<svg width="198" height="212" viewBox="0 0 198 212" fill="none" xmlns="http://www.w3.org/2000/svg">
<path d="M83.178 162.521C127.256 162.521 162.988 126.789 162.988 82.7107C162.988 38.6328 127.256 2.90063 83.178 2.90063C39.1001 2.90063 3.36792 38.6328 3.36792 82.7107C3.36792 126.789 39.1001 162.521 83.178 162.521Z" fill="#141124" stroke="url(#paint0_linear_723_26210)" stroke-width="5" stroke-miterlimit="10"/>
<path d="M83.1779 141.028C115.386 141.028 141.495 114.918 141.495 82.7107C141.495 50.5029 115.386 24.3933 83.1779 24.3933C50.9702 24.3933 24.8606 50.5029 24.8606 82.7107C24.8606 114.918 50.9702 141.028 83.1779 141.028Z" fill="#141124" stroke="url(#paint1_linear_723_26210)" stroke-width="5" stroke-miterlimit="10"/>
<path d="M80.2587 117.492V109.005C75.336 108.925 70.3328 107.395 67.363 105.271L69.3965 99.5829C72.3663 101.536 76.7756 103.227 81.5271 103.227C87.5471 103.227 91.6242 99.754 91.6242 94.9119C91.6242 90.2509 88.3122 87.3617 82.0405 84.8148C73.3931 81.4223 68.0476 77.4358 68.0476 70.0568C68.0476 63.02 73.0508 57.6745 80.7721 56.396V47.9097H86.1176V56.1343C91.1208 56.3054 94.604 57.6645 97.1408 59.104L95.0167 64.7012C93.2349 63.6844 89.7618 61.7315 84.3257 61.7315C77.7923 61.7315 75.336 65.6374 75.336 69.1105C75.336 73.4392 78.4769 75.6439 85.8559 78.7847C94.5939 82.3484 99.0032 86.6772 99.0032 94.2273C99.0032 101.012 94.3422 107.294 85.6042 108.643V117.462H80.2587V117.492Z" fill="white"/>
<path d="M121.754 89.093C123.395 86.2642 127.482 86.2642 129.113 89.093L162.002 146.051L194.89 203.01C196.531 205.838 194.477 209.382 191.206 209.382H125.429H59.6619C56.3901 209.382 54.3466 205.838 55.9774 203.01L88.8658 146.051L121.754 89.093Z" fill="#141124" stroke="url(#paint2_linear_723_26210)" stroke-width="5" stroke-miterlimit="10"/>
<path d="M119.137 180.027C119.137 178.024 120.013 176.353 121.785 175.014C122.499 174.47 123.355 174.108 124.231 173.977C126.415 173.645 128.288 174.198 129.848 175.618C131.106 176.776 131.741 178.195 131.741 179.866C131.741 181.447 131.187 182.826 130.1 183.983C129.002 185.151 127.462 185.896 125.862 185.997C124.865 186.057 123.929 185.906 123.043 185.534C122.278 185.222 121.613 184.799 121.04 184.275C120.466 183.752 120.003 183.118 119.66 182.383C119.308 181.658 119.137 180.863 119.137 180.027ZM130.16 168.058H120.707V133.377C120.707 131.394 122.318 129.783 124.301 129.783H126.566C128.549 129.783 130.16 131.394 130.16 133.377V168.058Z" fill="url(#paint3_linear_723_26210)"/>
<defs>
<linearGradient id="paint0_linear_723_26210" x1="83.1814" y1="0.383918" x2="83.1814" y2="165.045" gradientUnits="userSpaceOnUse">
<stop stop-color="#81B4FC"/>
<stop offset="0.4735" stop-color="#A78AFE"/>
<stop offset="0.9426" stop-color="#141124"/>
</linearGradient>
<linearGradient id="paint1_linear_723_26210" x1="83.1814" y1="21.8752" x2="83.1814" y2="143.553" gradientUnits="userSpaceOnUse">
<stop stop-color="#81B4FC"/>
<stop offset="0.4735" stop-color="#A78AFE"/>
<stop offset="0.9426" stop-color="#141124"/>
</linearGradient>
<linearGradient id="paint2_linear_723_26210" x1="125.435" y1="84.4476" x2="125.435" y2="211.907" gradientUnits="userSpaceOnUse">
<stop stop-color="#81B4FC"/>
<stop offset="0.4735" stop-color="#A78AFE"/>
<stop offset="0.5238" stop-color="#A285F6"/>
<stop offset="0.6025" stop-color="#9279E0"/>
<stop offset="0.6999" stop-color="#7A65BB"/>
<stop offset="0.812" stop-color="#584989"/>
<stop offset="0.9351" stop-color="#2D2549"/>
<stop offset="1" stop-color="#141124"/>
</linearGradient>
<linearGradient id="paint3_linear_723_26210" x1="125.435" y1="129.792" x2="125.435" y2="186.012" gradientUnits="userSpaceOnUse">
<stop stop-color="#81B4FC"/>
<stop offset="0.4735" stop-color="#A78AFE"/>
<stop offset="0.5703" stop-color="#A588FB"/>
<stop offset="0.6441" stop-color="#9E83F1"/>
<stop offset="0.7103" stop-color="#937AE1"/>
<stop offset="0.772" stop-color="#846DCA"/>
<stop offset="0.8306" stop-color="#705DAC"/>
<stop offset="0.8869" stop-color="#574888"/>
<stop offset="0.9413" stop-color="#3A305C"/>
<stop offset="0.993" stop-color="#19152B"/>
<stop offset="1" stop-color="#141124"/>
</linearGradient>
</defs>
</svg>
