<svg width="202" height="167" viewBox="0 0 202 167" fill="none" xmlns="http://www.w3.org/2000/svg">
<g clip-path="url(#clip0_2_864)">
<path d="M192.561 166.32H83.4013C78.2068 166.32 73.99 162.087 73.99 156.873V140.595C73.99 135.381 78.2068 131.148 83.4013 131.148H192.561C197.756 131.148 201.973 135.381 201.973 140.595V156.873C201.973 162.087 197.756 166.32 192.561 166.32ZM83.4013 135.881C80.8137 135.881 78.7052 137.997 78.7052 140.595V156.873C78.7052 159.47 80.8137 161.587 83.4013 161.587H192.561C195.149 161.587 197.257 159.47 197.257 156.873V140.595C197.257 137.997 195.149 135.881 192.561 135.881H83.4013Z" fill="url(#paint0_linear_2_864)"/>
<path d="M192.561 131.244H83.4013C78.2068 131.244 73.99 127.011 73.99 121.797V105.519C73.99 100.305 78.2068 96.0718 83.4013 96.0718H192.561C197.756 96.0718 201.973 100.305 201.973 105.519V121.797C201.973 126.992 197.756 131.244 192.561 131.244ZM83.4013 100.805C80.8137 100.805 78.7052 102.921 78.7052 105.519V121.797C78.7052 124.394 80.8137 126.511 83.4013 126.511H192.561C195.149 126.511 197.257 124.394 197.257 121.797V105.519C197.257 102.921 195.149 100.805 192.561 100.805H83.4013Z" fill="url(#paint1_linear_2_864)"/>
<path d="M192.561 96.0526H83.4013C78.2068 96.0526 73.99 91.8196 73.99 86.6054V70.3277C73.99 65.1135 78.2068 60.8805 83.4013 60.8805H192.561C197.756 60.8805 201.973 65.1135 201.973 70.3277V86.6054C201.973 91.8004 197.756 96.0526 192.561 96.0526ZM83.4013 65.6137C80.8137 65.6137 78.7052 67.7302 78.7052 70.3277V86.6054C78.7052 89.2029 80.8137 91.3194 83.4013 91.3194H192.561C195.149 91.3194 197.257 89.2029 197.257 86.6054V70.3277C197.257 67.7302 195.149 65.6137 192.561 65.6137H83.4013Z" fill="url(#paint2_linear_2_864)"/>
<path d="M192.561 61.0344H83.4013C78.2068 61.0344 73.99 56.8014 73.99 51.5872V35.3095C73.99 30.0953 78.2068 25.8623 83.4013 25.8623H192.561C197.756 25.8623 201.973 30.0953 201.973 35.3095V51.5872C201.973 56.7822 197.756 61.0344 192.561 61.0344ZM83.4013 30.5955C80.8137 30.5955 78.7052 32.712 78.7052 35.3095V51.5872C78.7052 54.1847 80.8137 56.3012 83.4013 56.3012H192.561C195.149 56.3012 197.257 54.1847 197.257 51.5872V35.3095C197.257 32.712 195.149 30.5955 192.561 30.5955H83.4013Z" fill="url(#paint3_linear_2_864)"/>
<path d="M58.4833 163.953C89.0875 163.953 113.897 139.049 113.897 108.328C113.897 77.6073 89.0875 52.7031 58.4833 52.7031C27.8791 52.7031 3.06955 77.6073 3.06955 108.328C3.06955 139.049 27.8791 163.953 58.4833 163.953Z" fill="#141124"/>
<path d="M58.4833 166.397C26.5883 166.397 0.635254 140.345 0.635254 108.328C0.635254 76.3115 26.5883 50.2595 58.4833 50.2595C90.3783 50.2595 116.351 76.3115 116.351 108.328C116.351 140.345 90.3975 166.397 58.4833 166.397ZM58.4833 55.1659C29.2909 55.1659 5.52301 79.0052 5.52301 108.328C5.52301 137.651 29.2909 161.49 58.4833 161.49C87.6757 161.49 111.444 137.632 111.444 108.328C111.444 79.0244 87.6948 55.1659 58.4833 55.1659Z" fill="url(#paint4_linear_2_864)"/>
<path d="M58.4833 151.427C34.8112 151.427 15.5477 132.09 15.5477 108.328C15.5477 84.5658 34.8112 65.2289 58.4833 65.2289C82.1554 65.2289 101.419 84.5658 101.419 108.328C101.419 132.09 82.1554 151.427 58.4833 151.427ZM58.4833 70.1353C37.4947 70.1353 20.4355 87.2595 20.4355 108.328C20.4355 129.378 37.4947 146.521 58.4833 146.521C79.4719 146.521 96.5312 129.397 96.5312 108.328C96.5312 87.2788 79.4719 70.1353 58.4833 70.1353Z" fill="url(#paint5_linear_2_864)"/>
<path d="M56.4515 132.572V126.665C53.0397 126.607 49.5703 125.549 47.5002 124.067L48.9186 120.104C50.9887 121.47 54.0364 122.643 57.3332 122.643C61.5118 122.643 64.3486 120.219 64.3486 116.852C64.3486 113.6 62.0485 111.599 57.6974 109.81C51.6979 107.443 47.9794 104.672 47.9794 99.5159C47.9794 94.6095 51.4488 90.8768 56.8157 89.9917V84.0848H60.5342V89.8186C64.0036 89.934 66.4187 90.8768 68.1822 91.8966L66.7062 95.8025C65.4603 95.0905 63.0644 93.7245 59.2883 93.7245C54.7456 93.7245 53.0397 96.4374 53.0397 98.8617C53.0397 101.883 55.2248 103.422 60.3426 105.596C66.3996 108.078 69.4664 111.099 69.4664 116.352C69.4664 121.085 66.227 125.452 60.1701 126.395V132.552H56.4515V132.572Z" fill="white"/>
<path d="M140.425 6.44836H135.537V43.8716H140.425V6.44836Z" fill="white"/>
<path d="M124.305 20.7635L120.855 17.3002L137.972 0.118164L155.108 17.3002L151.638 20.7635L137.972 7.04483L124.305 20.7635Z" fill="white"/>
</g>
<defs>
<linearGradient id="paint0_linear_2_864" x1="137.979" y1="131.147" x2="137.979" y2="166.319" gradientUnits="userSpaceOnUse">
<stop stop-color="#81B4FC"/>
<stop offset="0.4735" stop-color="#A78AFE"/>
<stop offset="0.9426" stop-color="#141124"/>
</linearGradient>
<linearGradient id="paint1_linear_2_864" x1="137.979" y1="96.0643" x2="137.979" y2="131.236" gradientUnits="userSpaceOnUse">
<stop stop-color="#81B4FC"/>
<stop offset="0.4735" stop-color="#A78AFE"/>
<stop offset="0.9426" stop-color="#141124"/>
</linearGradient>
<linearGradient id="paint2_linear_2_864" x1="137.979" y1="60.8755" x2="137.979" y2="96.0487" gradientUnits="userSpaceOnUse">
<stop stop-color="#81B4FC"/>
<stop offset="0.4735" stop-color="#A78AFE"/>
<stop offset="0.9426" stop-color="#141124"/>
</linearGradient>
<linearGradient id="paint3_linear_2_864" x1="137.979" y1="25.8556" x2="137.979" y2="61.0275" gradientUnits="userSpaceOnUse">
<stop offset="8.07343e-08" stop-color="#81B4FC"/>
<stop offset="0.4735" stop-color="#A78AFE"/>
<stop offset="0.9426" stop-color="#141124"/>
</linearGradient>
<linearGradient id="paint4_linear_2_864" x1="58.4891" y1="50.2561" x2="58.4891" y2="166.405" gradientUnits="userSpaceOnUse">
<stop stop-color="#81B4FC"/>
<stop offset="0.4735" stop-color="#A78AFE"/>
<stop offset="0.9426" stop-color="#141124"/>
</linearGradient>
<linearGradient id="paint5_linear_2_864" x1="58.4891" y1="65.2329" x2="58.4891" y2="151.428" gradientUnits="userSpaceOnUse">
<stop stop-color="#81B4FC"/>
<stop offset="0.4735" stop-color="#A78AFE"/>
<stop offset="0.9426" stop-color="#141124"/>
</linearGradient>
<clipPath id="clip0_2_864">
<rect width="201.337" height="166.279" fill="white" transform="translate(0.635254 0.118164)"/>
</clipPath>
</defs>
</svg>
