<svg width="204" height="243" viewBox="0 0 204 243" fill="none" xmlns="http://www.w3.org/2000/svg">
<path d="M153.296 98.6324C179.771 98.6324 201.234 77.1697 201.234 50.694C201.234 24.2184 179.771 2.75562 153.296 2.75562C126.82 2.75562 105.357 24.2184 105.357 50.694C105.357 77.1697 126.82 98.6324 153.296 98.6324Z" fill="#141124" stroke="url(#paint0_linear_723_26184)" stroke-width="5" stroke-miterlimit="10"/>
<path d="M153.295 85.7268C172.643 85.7268 188.328 70.0421 188.328 50.6941C188.328 31.346 172.643 15.6614 153.295 15.6614C133.947 15.6614 118.263 31.346 118.263 50.6941C118.263 70.0421 133.947 85.7268 153.295 85.7268Z" fill="#141124" stroke="url(#paint1_linear_723_26184)" stroke-width="5" stroke-miterlimit="10"/>
<path d="M151.544 71.5829V66.4891C148.584 66.4387 145.584 65.5227 143.802 64.2442L145.021 60.8315C146.802 61.9992 149.45 63.0261 152.309 63.0261C155.923 63.0261 158.369 60.9422 158.369 58.0329C158.369 55.2343 156.386 53.5028 152.611 51.9727C147.416 49.9391 144.205 47.5432 144.205 43.1037C144.205 38.8757 147.215 35.6643 151.846 34.8993V29.8054H155.057V34.7482C158.067 34.8489 160.151 35.6643 161.681 36.5301L160.403 39.8924C159.336 39.2783 157.242 38.1106 153.98 38.1106C150.054 38.1106 148.584 40.4562 148.584 42.54C148.584 45.1373 150.467 46.4661 154.906 48.3486C160.151 50.4928 162.799 53.0901 162.799 57.6202C162.799 61.6972 160 65.4622 154.745 66.2777V71.5728H151.544V71.5829Z" fill="white"/>
<path d="M50.6337 239.991C77.1094 239.991 98.5721 218.529 98.5721 192.053C98.5721 165.577 77.1094 144.115 50.6337 144.115C24.1581 144.115 2.69531 165.577 2.69531 192.053C2.69531 218.529 24.1581 239.991 50.6337 239.991Z" fill="#141124" stroke="url(#paint2_linear_723_26184)" stroke-width="5" stroke-miterlimit="10"/>
<path d="M50.6338 227.086C69.9818 227.086 85.6665 211.401 85.6665 192.053C85.6665 172.705 69.9818 157.02 50.6338 157.02C31.2857 157.02 15.6011 172.705 15.6011 192.053C15.6011 211.401 31.2857 227.086 50.6338 227.086Z" fill="#141124" stroke="url(#paint3_linear_723_26184)" stroke-width="5" stroke-miterlimit="10"/>
<path d="M51.1471 170.973C55.2343 177.778 59.3315 184.583 63.5092 191.539C63.177 191.408 62.9858 191.348 62.8146 191.278C59.0396 189.627 55.2645 187.986 51.4995 186.315C51.2881 186.224 51.0364 185.922 51.0364 185.721C51.0062 180.828 51.0163 175.936 51.0163 171.033C51.0666 171.013 51.1069 170.993 51.1471 170.973Z" fill="white"/>
<path d="M37.9199 191.449C42.0171 184.563 46.0439 177.798 50.0807 171.023C50.121 171.033 50.1612 171.043 50.2015 171.053C50.2116 171.254 50.2317 171.446 50.2317 171.647C50.2317 176.268 50.2317 180.899 50.2317 185.519C50.2317 185.862 50.2317 186.133 49.819 186.315C45.9432 187.986 42.0775 189.687 38.2119 191.378C38.1716 191.398 38.1112 191.398 37.9199 191.449Z" fill="white"/>
<path d="M37.4663 192.576C41.7749 190.694 45.9325 188.872 50.1707 187.009C50.1707 191.348 50.1707 195.616 50.1707 200.016C45.9527 197.549 41.7749 195.103 37.4663 192.576Z" fill="white"/>
<path d="M51.0566 200.036C51.0566 195.646 51.0566 191.378 51.0566 186.999C55.3049 188.861 59.4725 190.683 63.8013 192.576C59.4927 195.103 55.3149 197.549 51.0566 200.036Z" fill="white"/>
<path d="M50.1909 213.123C45.9628 207.143 41.8354 201.304 37.708 195.475C37.7382 195.445 37.7583 195.415 37.7885 195.385C38.302 195.677 38.8154 195.969 39.3288 196.271C42.7817 198.294 46.2246 200.318 49.6775 202.321C50.0903 202.562 50.2513 202.824 50.2413 203.297C50.2211 206.317 50.2312 209.337 50.2312 212.358C50.2312 212.559 50.2111 212.75 50.1909 213.123Z" fill="white"/>
<path d="M51.0566 213.133C51.0365 212.801 51.0264 212.64 51.0264 212.489C51.0264 209.388 51.0164 206.287 51.0365 203.177C51.0365 202.935 51.1774 202.593 51.3687 202.482C55.3451 200.126 59.3316 197.801 63.3181 195.465C63.3584 195.445 63.3986 195.435 63.6302 195.355C59.4021 201.324 55.2747 207.153 51.0566 213.133Z" fill="white"/>
<path d="M153.436 118.776V188.415C153.436 190.624 151.646 192.415 149.436 192.415H118.716" stroke="white" stroke-width="5" stroke-miterlimit="10"/>
<path d="M50.5835 123.981V54.6941C50.5835 52.4849 52.3744 50.6941 54.5835 50.6941H85.2236" stroke="white" stroke-width="5" stroke-miterlimit="10"/>
<path d="M61.8582 112.072L50.7243 123.206L39.5903 112.072" stroke="white" stroke-width="5" stroke-miterlimit="10"/>
<path d="M142.343 129.94L153.477 118.806L164.621 129.94" stroke="white" stroke-width="5" stroke-miterlimit="10"/>
<defs>
<linearGradient id="paint0_linear_723_26184" x1="153.299" y1="0.238899" x2="153.299" y2="101.155" gradientUnits="userSpaceOnUse">
<stop stop-color="#81B4FC"/>
<stop offset="0.4735" stop-color="#A78AFE"/>
<stop offset="0.9426" stop-color="#141124"/>
</linearGradient>
<linearGradient id="paint1_linear_723_26184" x1="153.299" y1="13.1482" x2="153.299" y2="88.2458" gradientUnits="userSpaceOnUse">
<stop stop-color="#81B4FC"/>
<stop offset="0.4735" stop-color="#A78AFE"/>
<stop offset="0.9426" stop-color="#141124"/>
</linearGradient>
<linearGradient id="paint2_linear_723_26184" x1="50.6366" y1="141.595" x2="50.6366" y2="242.511" gradientUnits="userSpaceOnUse">
<stop stop-color="#81B4FC"/>
<stop offset="0.4735" stop-color="#A78AFE"/>
<stop offset="0.9426" stop-color="#141124"/>
</linearGradient>
<linearGradient id="paint3_linear_723_26184" x1="50.6367" y1="154.505" x2="50.6367" y2="229.602" gradientUnits="userSpaceOnUse">
<stop stop-color="#81B4FC"/>
<stop offset="0.4735" stop-color="#A78AFE"/>
<stop offset="0.9426" stop-color="#141124"/>
</linearGradient>
</defs>
</svg>
