<svg width="204" height="243" viewBox="0 0 204 243" fill="none" xmlns="http://www.w3.org/2000/svg">
<path d="M27.9582 215.503C42.2413 215.503 53.82 203.925 53.82 189.642C53.82 175.359 42.2413 163.78 27.9582 163.78C13.6752 163.78 2.09647 175.359 2.09647 189.642C2.09647 203.925 13.6752 215.503 27.9582 215.503Z" fill="#141124" stroke="url(#paint0_linear_2_892)" stroke-width="3" stroke-miterlimit="10"/>
<path d="M27.9581 208.547C38.3994 208.547 46.8637 200.083 46.8637 189.642C46.8637 179.2 38.3994 170.736 27.9581 170.736C17.5169 170.736 9.05255 179.2 9.05255 189.642C9.05255 200.083 17.5169 208.547 27.9581 208.547Z" stroke="url(#paint1_linear_2_892)" stroke-width="3" stroke-miterlimit="10"/>
<path d="M27.012 200.917V198.168C25.4214 198.138 23.8007 197.645 22.8343 196.96L23.4987 195.118C24.4651 195.752 25.8946 196.296 27.4247 196.296C29.3777 196.296 30.6965 195.168 30.6965 193.598C30.6965 192.088 29.6294 191.152 27.5858 190.326C24.7772 189.229 23.0457 187.93 23.0457 185.544C23.0457 183.259 24.6664 181.528 27.1731 181.115V178.367H28.9046V181.035C30.5253 181.085 31.6528 181.528 32.4783 182.001L31.7938 183.813C31.22 183.481 30.0925 182.847 28.3308 182.847C26.2167 182.847 25.4214 184.115 25.4214 185.242C25.4214 186.642 26.4382 187.357 28.8341 188.373C31.6629 189.531 33.0924 190.93 33.0924 193.377C33.0924 195.571 31.5824 197.605 28.7536 198.048V200.907H27.012V200.917Z" fill="white"/>
<path d="M5.58963 238.718V229.345C5.58963 228.449 6.31444 227.715 7.22046 227.715H48.7161C49.612 227.715 50.3469 228.439 50.3469 229.345V238.718C50.3469 239.614 49.6221 240.348 48.7161 240.348H7.22046C6.31444 240.348 5.58963 239.614 5.58963 238.718Z" fill="#141124" stroke="url(#paint2_linear_2_892)" stroke-width="3" stroke-miterlimit="10"/>
<path d="M176.243 215.503C190.526 215.503 202.105 203.925 202.105 189.642C202.105 175.359 190.526 163.78 176.243 163.78C161.96 163.78 150.381 175.359 150.381 189.642C150.381 203.925 161.96 215.503 176.243 215.503Z" fill="#141124" stroke="url(#paint3_linear_2_892)" stroke-width="3" stroke-miterlimit="10"/>
<path d="M176.243 208.547C186.684 208.547 195.149 200.083 195.149 189.642C195.149 179.2 186.684 170.736 176.243 170.736C165.802 170.736 157.338 179.2 157.338 189.642C157.338 200.083 165.802 208.547 176.243 208.547Z" stroke="url(#paint4_linear_2_892)" stroke-width="3" stroke-miterlimit="10"/>
<path d="M175.297 200.917V198.168C173.706 198.138 172.086 197.645 171.119 196.96L171.784 195.118C172.75 195.752 174.18 196.296 175.71 196.296C177.663 196.296 178.981 195.168 178.981 193.598C178.981 192.088 177.914 191.152 175.871 190.326C173.062 189.229 171.331 187.93 171.331 185.544C171.331 183.259 172.951 181.528 175.458 181.115V178.367H177.19V181.035C178.81 181.085 179.938 181.528 180.763 182.001L180.079 183.813C179.505 183.481 178.377 182.847 176.616 182.847C174.502 182.847 173.706 184.115 173.706 185.242C173.706 186.642 174.723 187.357 177.119 188.373C179.948 189.531 181.377 190.93 181.377 193.377C181.377 195.571 179.867 197.605 177.039 198.048V200.907H175.297V200.917Z" fill="white"/>
<path d="M153.865 238.718V229.345C153.865 228.449 154.589 227.715 155.495 227.715H196.991C197.887 227.715 198.622 228.439 198.622 229.345V238.718C198.622 239.614 197.897 240.349 196.991 240.349H155.495C154.599 240.349 153.865 239.614 153.865 238.718Z" fill="#141124" stroke="url(#paint5_linear_2_892)" stroke-width="3" stroke-miterlimit="10"/>
<path d="M79.7322 238.718V229.345C79.7322 228.449 80.457 227.715 81.3631 227.715H122.859C123.755 227.715 124.49 228.439 124.49 229.345V238.718C124.49 239.614 123.765 240.348 122.859 240.348H81.353C80.4571 240.348 79.7322 239.614 79.7322 238.718Z" fill="#141124" stroke="url(#paint6_linear_2_892)" stroke-width="5" stroke-miterlimit="10"/>
<path d="M133.368 141.834L104.185 112.65C103.037 111.503 101.175 111.503 100.027 112.65L70.8431 141.834C69.6955 142.982 69.6955 144.844 70.8431 145.992H79.7322V213.52C79.7322 215.141 81.0509 216.46 82.6717 216.46H121.54C123.161 216.46 124.479 215.141 124.479 213.52V145.992H133.368C134.516 144.844 134.516 142.982 133.368 141.834Z" stroke="url(#paint7_linear_2_892)" stroke-width="5" stroke-miterlimit="10"/>
<path d="M102.101 98.5566C128.576 98.5566 150.039 77.0939 150.039 50.6182C150.039 24.1426 128.576 2.67981 102.101 2.67981C75.625 2.67981 54.1623 24.1426 54.1623 50.6182C54.1623 77.0939 75.625 98.5566 102.101 98.5566Z" fill="#141124" stroke="url(#paint8_linear_2_892)" stroke-width="5" stroke-miterlimit="10"/>
<path d="M102.101 85.6508C121.449 85.6508 137.134 69.9662 137.134 50.6181C137.134 31.2701 121.449 15.5854 102.101 15.5854C82.7528 15.5854 67.0681 31.2701 67.0681 50.6181C67.0681 69.9662 82.7528 85.6508 102.101 85.6508Z" fill="#141124" stroke="url(#paint9_linear_2_892)" stroke-width="5" stroke-miterlimit="10"/>
<path d="M100.349 71.507V66.4131C97.3894 66.3628 94.3895 65.4467 92.6076 64.1682L93.8257 60.7556C95.6076 61.9233 98.2551 62.9501 101.114 62.9501C104.728 62.9501 107.174 60.8663 107.174 57.957C107.174 55.1584 105.191 53.4269 101.416 51.8967C96.2216 49.8632 93.0103 47.4673 93.0103 43.0278C93.0103 38.7997 96.0203 35.5884 100.651 34.8233V29.7295H103.862V34.6723C106.872 34.773 108.956 35.5884 110.486 36.4542L109.208 39.8165C108.141 39.2024 106.047 38.0347 102.785 38.0347C98.8592 38.0347 97.3894 40.3802 97.3894 42.4641C97.3894 45.0613 99.2719 46.3902 103.711 48.2727C108.956 50.4169 111.604 53.0141 111.604 57.5442C111.604 61.6213 108.805 65.3863 103.55 66.2017V71.4969H100.349V71.507Z" fill="white"/>
<defs>
<linearGradient id="paint0_linear_2_892" x1="27.9622" y1="162.522" x2="27.9622" y2="216.77" gradientUnits="userSpaceOnUse">
<stop stop-color="#81B4FC"/>
<stop offset="0.4735" stop-color="#A78AFE"/>
<stop offset="0.9426" stop-color="#141124"/>
</linearGradient>
<linearGradient id="paint1_linear_2_892" x1="27.9621" y1="169.487" x2="27.9621" y2="209.805" gradientUnits="userSpaceOnUse">
<stop stop-color="#81B4FC"/>
<stop offset="0.4735" stop-color="#A78AFE"/>
<stop offset="0.9426" stop-color="#141124"/>
</linearGradient>
<linearGradient id="paint2_linear_2_892" x1="27.9623" y1="226.45" x2="27.9623" y2="241.602" gradientUnits="userSpaceOnUse">
<stop stop-color="#81B4FC"/>
<stop offset="0.4735" stop-color="#A78AFE"/>
<stop offset="0.9426" stop-color="#141124"/>
</linearGradient>
<linearGradient id="paint3_linear_2_892" x1="176.243" y1="162.522" x2="176.243" y2="216.77" gradientUnits="userSpaceOnUse">
<stop stop-color="#81B4FC"/>
<stop offset="0.4735" stop-color="#A78AFE"/>
<stop offset="0.9426" stop-color="#141124"/>
</linearGradient>
<linearGradient id="paint4_linear_2_892" x1="176.243" y1="169.487" x2="176.243" y2="209.805" gradientUnits="userSpaceOnUse">
<stop stop-color="#81B4FC"/>
<stop offset="0.4735" stop-color="#A78AFE"/>
<stop offset="0.9426" stop-color="#141124"/>
</linearGradient>
<linearGradient id="paint5_linear_2_892" x1="176.243" y1="226.45" x2="176.243" y2="241.602" gradientUnits="userSpaceOnUse">
<stop stop-color="#81B4FC"/>
<stop offset="0.4735" stop-color="#A78AFE"/>
<stop offset="0.9426" stop-color="#141124"/>
</linearGradient>
<linearGradient id="paint6_linear_2_892" x1="102.103" y1="225.283" x2="102.103" y2="242.769" gradientUnits="userSpaceOnUse">
<stop stop-color="#81B4FC"/>
<stop offset="0.4735" stop-color="#A78AFE"/>
<stop offset="0.9426" stop-color="#141124"/>
</linearGradient>
<linearGradient id="paint7_linear_2_892" x1="102.103" y1="110.279" x2="102.103" y2="217.973" gradientUnits="userSpaceOnUse">
<stop offset="0.000636187" stop-color="#81B4FC"/>
<stop offset="1" stop-color="#A78AFE"/>
</linearGradient>
<linearGradient id="paint8_linear_2_892" x1="102.102" y1="1.16978" x2="102.102" y2="100.073" gradientUnits="userSpaceOnUse">
<stop stop-color="#81B4FC"/>
<stop offset="0.4735" stop-color="#A78AFE"/>
<stop offset="0.9426" stop-color="#141124"/>
</linearGradient>
<linearGradient id="paint9_linear_2_892" x1="102.103" y1="14.0789" x2="102.103" y2="87.1635" gradientUnits="userSpaceOnUse">
<stop stop-color="#81B4FC"/>
<stop offset="0.4735" stop-color="#A78AFE"/>
<stop offset="0.9426" stop-color="#141124"/>
</linearGradient>
</defs>
</svg>
