<svg width="1440" height="64" viewBox="0 0 1440 64" fill="none" xmlns="http://www.w3.org/2000/svg">
<g clip-path="url(#clip0)">
<path d="M1492.65 -237V-169.87H1425.52V-102.74H1358.39V-35.61H1291.26V31.52H1224.13V98.65H1157V165.78H1224.13H1559.78V-169.87V-237H1492.65Z" fill="#3521B5"/>
<path d="M48 -15H81V18L48 -15Z" fill="#3521B5"/>
<path d="M81 -15H113V18L81 -15Z" fill="#3521B5"/>
<path d="M113 -15H146V18L113 -15Z" fill="#3521B5"/>
<path d="M146 -15H179V18L146 -15Z" fill="#3521B5"/>
<path d="M48 18H81V50L48 18Z" fill="#3521B5"/>
<path d="M81 18H113V50L81 18Z" fill="#3521B5"/>
<path d="M113 18H146V50L113 18Z" fill="#3521B5"/>
<path d="M146 18H179V50L146 18Z" fill="#3521B5"/>
<path d="M447 50C453.63 50 459.989 52.6339 464.678 57.3223C469.366 62.0107 472 68.3696 472 75H497C497 61.7392 491.732 49.0214 482.355 39.6446C472.979 30.2678 460.261 25 447 25C433.739 25 421.021 30.2678 411.645 39.6446C402.268 49.0214 397 61.7392 397 75H422C422 68.3696 424.634 62.0107 429.322 57.3223C434.011 52.6339 440.37 50 447 50V50Z" fill="#3521B5"/>
<path d="M973.156 -0.569925C973.156 -0.158164 973.034 0.244329 972.805 0.586454C972.576 0.92858 972.25 1.19491 971.87 1.35169C971.489 1.50847 971.07 1.54868 970.667 1.4671C970.263 1.38552 969.893 1.18584 969.603 0.893484C969.313 0.60113 969.116 0.229322 969.038 -0.174935C968.96 -0.579191 969.003 -0.997622 969.163 -1.37706C969.323 -1.7565 969.592 -2.07986 969.936 -2.30616C970.28 -2.53246 970.684 -2.6515 971.095 -2.64812C971.644 -2.64363 972.168 -2.4227 972.554 -2.03344C972.94 -1.64418 973.157 -1.11817 973.156 -0.569925Z" fill="#3521B5"/>
<path d="M1007.12 -0.569925C1007.12 -0.158164 1007 0.244329 1006.77 0.586454C1006.54 0.92858 1006.22 1.19491 1005.84 1.35169C1005.46 1.50847 1005.04 1.54868 1004.63 1.4671C1004.23 1.38552 1003.86 1.18584 1003.57 0.893484C1003.28 0.60113 1003.08 0.229322 1003.01 -0.174935C1002.93 -0.579191 1002.97 -0.997622 1003.13 -1.37706C1003.29 -1.7565 1003.56 -2.07986 1003.9 -2.30616C1004.25 -2.53246 1004.65 -2.6515 1005.06 -2.64812C1005.61 -2.64363 1006.14 -2.4227 1006.52 -2.03344C1006.91 -1.64418 1007.12 -1.11817 1007.12 -0.569925V-0.569925Z" fill="#3521B5"/>
<path d="M1041.09 -0.569925C1041.09 -0.158164 1040.97 0.244329 1040.74 0.586454C1040.51 0.92858 1040.19 1.19491 1039.81 1.35169C1039.42 1.50847 1039.01 1.54868 1038.6 1.4671C1038.2 1.38552 1037.83 1.18584 1037.54 0.893484C1037.25 0.60113 1037.05 0.229322 1036.97 -0.174935C1036.9 -0.579191 1036.94 -0.997622 1037.1 -1.37706C1037.26 -1.7565 1037.53 -2.07986 1037.87 -2.30616C1038.22 -2.53246 1038.62 -2.6515 1039.03 -2.64812C1039.58 -2.64363 1040.1 -2.4227 1040.49 -2.03344C1040.88 -1.64418 1041.09 -1.11817 1041.09 -0.569925Z" fill="#3521B5"/>
<path d="M1075.06 -0.569925C1075.06 -0.158164 1074.94 0.244329 1074.71 0.586454C1074.48 0.92858 1074.15 1.19491 1073.77 1.35169C1073.39 1.50847 1072.97 1.54868 1072.57 1.4671C1072.17 1.38552 1071.79 1.18584 1071.51 0.893484C1071.22 0.60113 1071.02 0.229322 1070.94 -0.174935C1070.86 -0.579191 1070.91 -0.997622 1071.07 -1.37706C1071.23 -1.7565 1071.49 -2.07986 1071.84 -2.30616C1072.18 -2.53246 1072.59 -2.6515 1073 -2.64812C1073.55 -2.64363 1074.07 -2.4227 1074.46 -2.03344C1074.84 -1.64418 1075.06 -1.11817 1075.06 -0.569925V-0.569925Z" fill="#3521B5"/>
<path d="M1109.03 -0.569925C1109.03 -0.158164 1108.9 0.244329 1108.68 0.586454C1108.45 0.92858 1108.12 1.19491 1107.74 1.35169C1107.36 1.50847 1106.94 1.54868 1106.54 1.4671C1106.13 1.38552 1105.76 1.18584 1105.47 0.893484C1105.18 0.60113 1104.99 0.229322 1104.91 -0.174935C1104.83 -0.579191 1104.87 -0.997622 1105.03 -1.37706C1105.19 -1.7565 1105.46 -2.07986 1105.81 -2.30616C1106.15 -2.53246 1106.55 -2.6515 1106.97 -2.64812C1107.51 -2.64363 1108.04 -2.4227 1108.42 -2.03344C1108.81 -1.64418 1109.03 -1.11817 1109.03 -0.569925Z" fill="#3521B5"/>
<path d="M973.156 22.6145C973.156 23.0263 973.034 23.4287 972.805 23.7708C972.576 24.1129 972.25 24.3793 971.87 24.5361C971.489 24.6929 971.07 24.733 970.667 24.6514C970.263 24.5698 969.893 24.3703 969.603 24.0779C969.313 23.7856 969.116 23.4136 969.038 23.0094C968.96 22.6051 969.003 22.1867 969.163 21.8073C969.323 21.4278 969.592 21.1045 969.936 20.8782C970.28 20.6519 970.684 20.5328 971.095 20.5362C971.367 20.5362 971.637 20.5901 971.888 20.6948C972.139 20.7994 972.367 20.9527 972.559 21.1459C972.75 21.3391 972.902 21.5684 973.005 21.8205C973.107 22.0725 973.159 22.3424 973.156 22.6145V22.6145Z" fill="#3521B5"/>
<path d="M1007.12 22.6145C1007.12 23.0263 1007 23.4287 1006.77 23.7708C1006.54 24.1129 1006.22 24.3793 1005.84 24.5361C1005.46 24.6929 1005.04 24.733 1004.63 24.6514C1004.23 24.5698 1003.86 24.3703 1003.57 24.0779C1003.28 23.7856 1003.08 23.4136 1003.01 23.0094C1002.93 22.6051 1002.97 22.1867 1003.13 21.8073C1003.29 21.4278 1003.56 21.1045 1003.9 20.8782C1004.25 20.6519 1004.65 20.5328 1005.06 20.5362C1005.34 20.5362 1005.6 20.5901 1005.86 20.6948C1006.11 20.7994 1006.34 20.9527 1006.53 21.1459C1006.72 21.3391 1006.87 21.5684 1006.97 21.8205C1007.07 22.0725 1007.13 22.3424 1007.12 22.6145V22.6145Z" fill="#3521B5"/>
<path d="M1041.09 22.6145C1041.09 23.0263 1040.97 23.4287 1040.74 23.7708C1040.51 24.1129 1040.19 24.3793 1039.81 24.5361C1039.42 24.6929 1039.01 24.733 1038.6 24.6514C1038.2 24.5698 1037.83 24.3703 1037.54 24.0779C1037.25 23.7856 1037.05 23.4136 1036.97 23.0094C1036.9 22.6051 1036.94 22.1867 1037.1 21.8073C1037.26 21.4278 1037.53 21.1045 1037.87 20.8782C1038.22 20.6519 1038.62 20.5328 1039.03 20.5362C1039.3 20.5362 1039.57 20.5901 1039.82 20.6948C1040.07 20.7994 1040.3 20.9527 1040.49 21.1459C1040.69 21.3391 1040.84 21.5684 1040.94 21.8205C1041.04 22.0725 1041.09 22.3424 1041.09 22.6145V22.6145Z" fill="#3521B5"/>
<path d="M1075.06 22.6145C1075.06 23.0263 1074.94 23.4287 1074.71 23.7708C1074.48 24.1129 1074.15 24.3793 1073.77 24.5361C1073.39 24.6929 1072.97 24.733 1072.57 24.6514C1072.17 24.5698 1071.79 24.3703 1071.51 24.0779C1071.22 23.7856 1071.02 23.4136 1070.94 23.0094C1070.86 22.6051 1070.91 22.1867 1071.07 21.8073C1071.23 21.4278 1071.49 21.1045 1071.84 20.8782C1072.18 20.6519 1072.59 20.5328 1073 20.5362C1073.27 20.5362 1073.54 20.5901 1073.79 20.6948C1074.04 20.7994 1074.27 20.9527 1074.46 21.1459C1074.65 21.3391 1074.8 21.5684 1074.91 21.8205C1075.01 22.0725 1075.06 22.3424 1075.06 22.6145V22.6145Z" fill="#3521B5"/>
<path d="M1109.03 22.6145C1109.03 23.0263 1108.9 23.4287 1108.68 23.7708C1108.45 24.1129 1108.12 24.3793 1107.74 24.5361C1107.36 24.6929 1106.94 24.733 1106.54 24.6514C1106.13 24.5698 1105.76 24.3703 1105.47 24.0779C1105.18 23.7856 1104.99 23.4136 1104.91 23.0094C1104.83 22.6051 1104.87 22.1867 1105.03 21.8073C1105.19 21.4278 1105.46 21.1045 1105.81 20.8782C1106.15 20.6519 1106.55 20.5328 1106.97 20.5362C1107.24 20.5362 1107.51 20.5901 1107.76 20.6948C1108.01 20.7994 1108.24 20.9527 1108.43 21.1459C1108.62 21.3391 1108.77 21.5684 1108.87 21.8205C1108.98 22.0725 1109.03 22.3424 1109.03 22.6145V22.6145Z" fill="#3521B5"/>
<path d="M973.156 45.7819C973.156 46.1936 973.034 46.5961 972.805 46.9383C972.576 47.2804 972.25 47.5467 971.87 47.7035C971.489 47.8603 971.07 47.9005 970.667 47.8189C970.263 47.7373 969.893 47.5376 969.603 47.2453C969.313 46.9529 969.116 46.581 969.038 46.1768C968.96 45.7725 969.003 45.3542 969.163 44.9747C969.323 44.5953 969.592 44.2718 969.936 44.0455C970.28 43.8192 970.684 43.7003 971.095 43.7037C971.644 43.7082 972.168 43.9291 972.554 44.3184C972.94 44.7076 973.157 45.2336 973.156 45.7819Z" fill="#3521B5"/>
<path d="M1007.12 45.7819C1007.12 46.1936 1007 46.5961 1006.77 46.9383C1006.54 47.2804 1006.22 47.5467 1005.84 47.7035C1005.46 47.8603 1005.04 47.9005 1004.63 47.8189C1004.23 47.7373 1003.86 47.5376 1003.57 47.2453C1003.28 46.9529 1003.08 46.581 1003.01 46.1768C1002.93 45.7725 1002.97 45.3542 1003.13 44.9747C1003.29 44.5953 1003.56 44.2718 1003.9 44.0455C1004.25 43.8192 1004.65 43.7003 1005.06 43.7037C1005.61 43.7082 1006.14 43.9291 1006.52 44.3184C1006.91 44.7076 1007.12 45.2336 1007.12 45.7819V45.7819Z" fill="#3521B5"/>
<path d="M1041.09 45.7819C1041.09 46.1936 1040.97 46.5961 1040.74 46.9383C1040.51 47.2804 1040.19 47.5467 1039.81 47.7035C1039.42 47.8603 1039.01 47.9005 1038.6 47.8189C1038.2 47.7373 1037.83 47.5376 1037.54 47.2453C1037.25 46.9529 1037.05 46.581 1036.97 46.1768C1036.9 45.7725 1036.94 45.3542 1037.1 44.9747C1037.26 44.5953 1037.53 44.2718 1037.87 44.0455C1038.22 43.8192 1038.62 43.7003 1039.03 43.7037C1039.58 43.7082 1040.1 43.9291 1040.49 44.3184C1040.88 44.7076 1041.09 45.2336 1041.09 45.7819Z" fill="#3521B5"/>
<path d="M1075.06 45.7819C1075.06 46.1936 1074.94 46.5961 1074.71 46.9383C1074.48 47.2804 1074.15 47.5467 1073.77 47.7035C1073.39 47.8603 1072.97 47.9005 1072.57 47.8189C1072.17 47.7373 1071.79 47.5376 1071.51 47.2453C1071.22 46.9529 1071.02 46.581 1070.94 46.1768C1070.86 45.7725 1070.91 45.3542 1071.07 44.9747C1071.23 44.5953 1071.49 44.2718 1071.84 44.0455C1072.18 43.8192 1072.59 43.7003 1073 43.7037C1073.55 43.7082 1074.07 43.9291 1074.46 44.3184C1074.84 44.7076 1075.06 45.2336 1075.06 45.7819V45.7819Z" fill="#3521B5"/>
<path d="M1109.03 45.7819C1109.03 46.1936 1108.9 46.5961 1108.68 46.9383C1108.45 47.2804 1108.12 47.5467 1107.74 47.7035C1107.36 47.8603 1106.94 47.9005 1106.54 47.8189C1106.13 47.7373 1105.76 47.5376 1105.47 47.2453C1105.18 46.9529 1104.99 46.581 1104.91 46.1768C1104.83 45.7725 1104.87 45.3542 1105.03 44.9747C1105.19 44.5953 1105.46 44.2718 1105.81 44.0455C1106.15 43.8192 1106.55 43.7003 1106.97 43.7037C1107.51 43.7082 1108.04 43.9291 1108.42 44.3184C1108.81 44.7076 1109.03 45.2336 1109.03 45.7819Z" fill="#3521B5"/>
</g>
<defs>
<clipPath id="clip0">
<rect width="1440" height="64" fill="white"/>
</clipPath>
</defs>
</svg>
