<svg width="796" height="216" viewBox="0 0 796 216" fill="none" xmlns="http://www.w3.org/2000/svg">
<g clip-path="url(#clip0_221_53)">
<path d="M221.99 26.04H258.58C267.88 26.04 274.7 28.52 279.04 32.86C283.38 36.58 285.24 41.54 285.24 46.5C285.24 48.36 285.24 50.84 284.62 52.7C283.38 55.8 281.52 58.9 279.04 61.38C277.8 62.62 276.56 63.24 275.32 63.86C279.66 65.1 283.38 67.58 286.48 70.68C288.96 73.78 290.2 77.5 290.2 83.08C290.2 86.18 289.58 89.9 288.34 92.38C287.1 94.86 284.62 97.34 282.14 99.2C279.04 101.06 275.94 102.3 272.84 103.54C269.12 104.78 264.78 104.78 260.44 104.78H222.61V26.04H221.99ZM255.48 58.29C258.58 58.29 261.68 57.67 264.78 56.43C267.26 55.19 268.5 52.71 268.5 50.23C268.5 47.75 267.26 45.27 265.4 44.03C262.92 42.17 259.82 41.55 256.72 42.17H239.36V58.91H255.48V58.29V58.29ZM259.82 89.91C262.92 89.91 266.02 89.29 269.12 88.05C271.6 86.81 272.84 84.33 272.22 81.23C272.22 78.75 270.98 76.27 269.12 75.03C267.26 73.79 263.54 72.55 259.2 72.55H238.74V89.91H259.82V89.91Z" fill="white"/>
<path d="M311.91 26.04H329.27V105.42H311.91V26.04Z" fill="white"/>
<path d="M355.93 26.04H372.06L409.26 75.03V26.04H426.62V105.42H411.74L372.68 55.19V105.42H355.93V26.04Z" fill="white"/>
<path d="M479.33 25.42H495.45L529.56 105.41H511.58L504.14 87.43H470.65L463.21 105.41H445.23L479.33 25.42ZM497.94 72.55L487.4 46.51L476.86 72.55H497.94Z" fill="white"/>
<path d="M548.16 26.04H564.29L601.49 75.03V26.04H618.85V105.42H603.97L565.53 55.19V105.42H548.16V26.04Z" fill="white"/>
<path d="M682.1 106.66C676.52 106.66 670.94 105.42 665.98 103.56C656.06 99.22 648.62 91.78 644.28 81.86C642.42 76.9 641.18 71.32 641.18 65.74C641.18 55.2 645.52 44.66 652.96 36.6C656.68 32.88 661.02 29.78 665.98 27.92C671.56 25.44 677.14 24.82 682.72 24.82C685.82 24.82 689.54 24.82 692.64 25.44C695.74 26.06 698.22 26.68 700.7 27.92C703.18 29.16 705.66 30.4 707.52 31.64C709.38 32.88 711.86 34.74 713.72 36.6L703.18 49.62C700.08 47.14 696.98 44.66 693.88 42.8C690.78 40.94 687.06 40.32 683.34 40.32C680.24 40.32 677.14 40.94 674.04 42.18C670.94 43.42 668.46 45.28 666.6 47.76C664.74 50.24 662.88 52.72 661.64 55.82C660.4 58.92 659.78 62.02 659.78 65.12C659.78 68.22 660.4 71.94 661.64 75.04C662.88 78.14 664.12 80.62 666.6 83.1C670.94 88.06 677.14 90.54 683.34 90.54C687.06 90.54 691.4 89.92 695.12 88.06C698.22 86.2 701.94 83.72 704.42 81.24L715.58 92.4C713.72 94.26 711.24 96.74 709.38 98.6C706.9 100.46 704.42 101.7 701.94 102.94C699.46 104.18 696.36 105.42 693.26 106.04C688.92 106.66 685.2 106.66 682.1 106.66Z" fill="white"/>
<path d="M735.43 26.04H794.96V41.55H752.17V57.67H790V73.17H752.17V89.91H795.58V105.42H735.43V26.04Z" fill="white"/>
<path d="M244.32 183.55C239.98 183.55 235.64 182.93 231.92 181.07C228.2 179.83 224.48 177.35 220.76 174.25L226.96 167.43C229.44 169.91 231.92 171.15 235.02 173.01C238.12 174.25 241.22 174.87 244.32 174.87C246.8 174.87 249.28 174.25 251.76 173.01C253.62 171.77 254.24 169.91 254.24 168.05C254.24 167.43 254.24 166.19 253.62 165.57C253 164.95 252.38 163.71 251.76 163.09C250.52 162.47 249.28 161.85 248.04 161.23C246.18 160.61 243.7 159.99 241.84 159.37C239.36 158.75 236.26 158.13 233.78 156.89C231.92 156.27 229.44 155.03 228.2 153.79C226.96 152.55 225.72 151.31 224.48 149.45C223.24 146.97 223.24 144.49 223.24 142.63C223.24 140.15 223.86 138.29 224.48 135.81C225.1 133.95 226.96 132.09 228.2 130.85C230.06 129.61 231.92 128.37 234.4 127.75C236.88 127.13 239.36 126.51 241.84 126.51C245.56 126.51 249.28 127.13 253 128.37C256.1 129.61 259.2 131.47 262.3 133.33L257.34 140.77C254.86 138.91 252.38 137.67 249.9 136.43C247.42 135.19 244.94 135.19 242.46 135.19C239.98 135.19 237.5 135.81 235.64 137.05C234.4 138.29 233.16 140.15 233.16 142.01C233.16 143.25 233.16 143.87 233.78 145.11C234.4 145.73 235.02 146.97 235.64 147.59C236.88 148.21 238.12 148.83 239.98 149.45C241.84 150.07 243.7 150.69 246.8 151.31C249.28 151.93 251.76 152.55 254.86 153.79C256.72 154.41 258.58 155.65 260.44 156.89C261.68 158.13 262.92 159.99 263.54 161.23C264.16 163.09 264.78 164.95 264.78 167.43C264.78 169.91 264.16 172.39 263.54 174.25C262.3 176.11 261.06 177.97 259.2 179.83C257.34 181.07 255.48 182.31 253 182.93C249.9 182.93 246.8 183.55 244.32 183.55Z" fill="white"/>
<path d="M275.32 127.12H285.86L302.61 153.16L319.97 127.12H330.51V182.93H320.59V142.62L303.23 168.67H302.61L285.24 142.62V182.93H275.32V127.12Z" fill="white"/>
<path d="M364 126.5H373.3L397.48 182.31H386.94L381.36 168.67H355.32L349.74 182.31H339.82L364 126.5ZM378.26 160.6L368.34 138.28L359.04 160.6H378.26Z" fill="white"/>
<path d="M407.4 127.12H432.2C435.3 127.12 438.4 127.74 441.5 128.36C443.98 128.98 446.46 130.84 448.32 132.7C449.56 133.94 450.8 135.8 452.04 138.28C452.66 140.14 453.28 142.62 453.28 145.1C453.28 146.96 452.66 149.44 452.04 151.3C451.42 153.16 450.18 154.4 449.56 156.26C448.32 157.5 447.08 158.74 445.22 159.98C443.36 161.22 441.5 161.84 439.64 162.46L454.52 183.54H442.74L429.1 164.32H416.7V183.54H406.78L407.4 127.12ZM431.59 154.4C434.69 154.4 437.79 153.78 439.65 151.92C441.51 150.06 442.75 147.58 442.75 145.1C442.75 142.62 441.51 140.14 439.65 138.28C437.17 136.42 434.07 135.8 430.97 135.8H416.7V154.4H431.59V154.4Z" fill="white"/>
<path d="M478.71 135.8H460.73V127.12H506V135.8H488.01V182.93H478.09L478.71 135.8Z" fill="white"/>
<path d="M566.15 183.55C562.43 183.55 558.71 182.93 554.99 181.07C548.17 177.97 542.59 173.01 540.11 166.19C538.87 162.47 537.63 158.75 538.25 155.03C538.25 151.31 538.87 147.59 540.11 143.87C542.59 137.05 548.17 131.47 554.99 128.37C558.71 127.13 562.43 125.89 566.77 125.89C569.25 125.89 571.73 125.89 573.59 126.51C575.45 127.13 577.31 127.75 579.17 128.37C581.03 128.99 582.27 130.23 584.13 130.85C585.37 132.09 587.23 133.33 588.47 134.57L582.27 142.01C580.41 140.15 577.93 138.29 575.45 137.05C572.97 135.81 569.87 135.19 566.77 135.19C564.29 135.19 561.81 135.81 559.33 136.43C556.85 137.67 554.99 138.91 553.13 140.77C551.27 142.63 550.03 144.49 549.41 146.97C548.79 149.45 548.17 151.93 548.17 154.41C548.17 156.89 548.79 159.37 549.41 161.85C550.03 164.33 551.27 166.19 553.13 168.05C554.99 169.91 556.85 171.15 559.33 172.39C561.81 173.63 564.29 174.25 566.77 173.63C569.87 173.63 572.97 173.01 575.45 171.77C577.93 170.53 580.41 168.67 582.89 166.19L589.09 172.39C587.85 173.63 585.99 175.49 584.75 176.73C582.89 177.97 581.65 179.21 579.79 179.83C577.93 180.45 576.07 181.69 573.59 181.69C571.11 183.55 568.63 183.55 566.15 183.55Z" fill="white"/>
<path d="M599.01 127.12H608.31V150.06H634.98V127.12H644.9V182.93H634.98V159.36H608.31V182.93H599.01V127.12Z" fill="white"/>
<path d="M679 126.5H688.3L712.48 182.31H701.94L696.36 168.67H670.32L664.74 182.31H654.82L679 126.5ZM692.64 160.6L683.34 138.28L674.04 160.6H692.64Z" fill="white"/>
<path d="M722.41 127.12H732.33V182.93H722.41V127.12Z" fill="white"/>
<path d="M747.21 127.12H755.89L785.66 165.57V127.12H795.58V182.93H787.52L757.13 143.24V182.93H747.21V127.12Z" fill="white"/>
<path d="M112.86 179.21V203.39L91.78 215.79L71.32 203.39V179.21L91.78 191.61L112.86 179.21ZM0 95.49L20.46 107.89V149.44L55.81 170.52V194.7L0 161.84V95.49ZM183.55 95.49V161.84L127.12 194.7V170.52L162.47 149.44V107.9L183.55 95.49ZM127.12 62.63L148.2 75.03V99.21L112.85 120.29V162.46L92.39 174.86L71.93 162.46V120.3L35.35 99.21V75.03L56.43 62.63L91.78 83.71L127.12 62.63ZM35.35 116.58L55.81 128.98V153.16L35.35 140.76V116.58ZM148.2 116.58V140.76L127.74 153.16V128.98L148.2 116.58ZM20.46 41.55L41.54 53.95L20.46 66.35V90.53L0 78.13V53.95L20.46 41.55ZM163.08 41.55L184.16 53.95V78.13L163.08 90.53V66.35L142.62 53.95L163.08 41.55ZM91.77 41.55L112.85 53.95L91.77 66.35L71.31 53.95L91.77 41.55ZM91.77 0L148.2 32.86L127.74 45.26L92.39 24.18L56.43 45.27L35.97 32.87L91.77 0Z" fill="white"/>
</g>
<defs>
<clipPath id="clip0_221_53">
<rect width="795.58" height="215.79" fill="white"/>
</clipPath>
</defs>
</svg>
