<svg width="542" height="190" viewBox="0 0 542 190" fill="none" xmlns="http://www.w3.org/2000/svg">
<path d="M1 5C1 2.79086 2.79086 1 5 1H537C539.209 1 541 2.79086 541 5V185C541 187.209 539.209 189 537 189H5.00001C2.79087 189 1 187.209 1 185V5Z" fill="#141125" stroke="#2A263F" stroke-width="2"/>
<path d="M429 37C429 25.9543 437.954 17 449 17H505C516.046 17 525 25.9543 525 37V37C525 48.0457 516.046 57 505 57H449C437.954 57 429 48.0457 429 37V37Z" fill="#141125"/>
<path d="M452.556 42V40.404H448.006V32.074H446.326V42H452.556ZM453.292 40.152C453.292 41.23 454.174 42.21 455.602 42.21C456.708 42.21 457.38 41.65 457.702 41.132C457.702 41.678 457.758 41.958 457.772 42H459.284C459.27 41.93 459.2 41.524 459.2 40.908V37.52C459.2 36.162 458.402 34.972 456.302 34.972C454.622 34.972 453.558 36.022 453.432 37.198L454.916 37.534C454.986 36.848 455.462 36.302 456.316 36.302C457.212 36.302 457.604 36.764 457.604 37.338C457.604 37.576 457.492 37.772 457.1 37.828L455.35 38.094C454.188 38.262 453.292 38.934 453.292 40.152ZM455.91 40.936C455.266 40.936 454.916 40.516 454.916 40.054C454.916 39.494 455.322 39.214 455.826 39.13L457.604 38.864V39.172C457.604 40.502 456.82 40.936 455.91 40.936ZM460.281 40.152C460.365 40.922 461.121 42.21 463.095 42.21C464.831 42.21 465.671 41.062 465.671 40.026C465.671 39.018 464.999 38.234 463.711 37.954L462.675 37.744C462.255 37.66 461.989 37.394 461.989 37.03C461.989 36.61 462.395 36.246 462.969 36.246C463.879 36.246 464.173 36.876 464.229 37.268L465.601 36.876C465.489 36.204 464.873 34.972 462.969 34.972C461.555 34.972 460.463 35.98 460.463 37.17C460.463 38.108 461.093 38.892 462.297 39.158L463.305 39.382C463.851 39.494 464.103 39.774 464.103 40.138C464.103 40.558 463.753 40.922 463.081 40.922C462.213 40.922 461.751 40.376 461.695 39.76L460.281 40.152ZM469.06 33.096H467.59V34.118C467.59 34.72 467.268 35.182 466.54 35.182H466.19V36.624H467.45V40.054C467.45 41.328 468.234 42.084 469.494 42.084C470.082 42.084 470.39 41.972 470.488 41.93V40.586C470.418 40.6 470.152 40.642 469.928 40.642C469.326 40.642 469.06 40.39 469.06 39.788V36.624H470.474V35.182H469.06V33.096ZM477.1 44.758L481.44 35.182H479.718L477.884 39.494L475.924 35.182H474.09L477.002 41.188L475.364 44.758H477.1ZM483.169 37.842C483.225 37.114 483.813 36.33 484.835 36.33C485.955 36.33 486.487 37.044 486.515 37.842H483.169ZM486.697 39.62C486.473 40.292 485.969 40.81 484.989 40.81C483.981 40.81 483.169 40.068 483.127 39.032H488.111C488.125 39.004 488.153 38.78 488.153 38.514C488.153 36.358 486.921 34.972 484.821 34.972C483.099 34.972 481.503 36.4 481.503 38.556C481.503 40.866 483.141 42.21 484.989 42.21C486.627 42.21 487.705 41.244 488.069 40.054L486.697 39.62ZM489.005 40.152C489.005 41.23 489.887 42.21 491.315 42.21C492.421 42.21 493.093 41.65 493.415 41.132C493.415 41.678 493.471 41.958 493.485 42H494.997C494.983 41.93 494.913 41.524 494.913 40.908V37.52C494.913 36.162 494.115 34.972 492.015 34.972C490.335 34.972 489.271 36.022 489.145 37.198L490.629 37.534C490.699 36.848 491.175 36.302 492.029 36.302C492.925 36.302 493.317 36.764 493.317 37.338C493.317 37.576 493.205 37.772 492.813 37.828L491.063 38.094C489.901 38.262 489.005 38.934 489.005 40.152ZM491.623 40.936C490.979 40.936 490.629 40.516 490.629 40.054C490.629 39.494 491.035 39.214 491.539 39.13L493.317 38.864V39.172C493.317 40.502 492.533 40.936 491.623 40.936ZM500.586 35.14C500.516 35.126 500.348 35.098 500.152 35.098C499.256 35.098 498.5 35.532 498.178 36.274V35.182H496.596V42H498.22V38.752C498.22 37.478 498.794 36.75 500.054 36.75C500.222 36.75 500.404 36.764 500.586 36.792V35.14Z" fill="#5B5675"/>
<path d="M513 40L508.757 35.757L510.172 34.343L513 37.172L515.828 34.343L517.243 35.757L513 40Z" fill="#5B5675"/>
<path d="M25 164.466C87.4123 164.466 80.0378 94.4656 142.45 94.4656C204.862 94.4656 197.476 113.132 259.888 113.132C322.301 113.132 312.687 143.799 375.1 143.799C437.512 143.799 454.588 113.132 517 113.132" stroke="#2A263F" stroke-width="2" stroke-linecap="round"/>
<path d="M25 163C85.9812 163 93.7711 112.465 154.752 112.465C215.734 112.465 205.624 71 266.605 71C327.586 71 326.421 129.623 387.402 129.623C448.383 129.623 456.019 163 517 163" fill="url(#paint0_linear)" fill-opacity="0.16"/>
<path d="M25 163C85.9812 163 93.7711 112.465 154.752 112.465C215.734 112.465 205.624 71 266.605 71C327.586 71 326.421 129.623 387.402 129.623C448.383 129.623 456.019 163 517 163" stroke="#5138EE" stroke-width="2" stroke-linecap="round"/>
<circle cx="368" cy="126" r="8" fill="white"/>
<circle cx="368" cy="126" r="2" fill="#5138EE"/>
<path d="M36.328 52.744V49.352C40.264 48.808 42.376 46.056 42.376 43.176C42.376 40.328 40.424 37.928 36.616 37.096L36.328 37.032V31.304C37.928 31.912 38.536 33.384 38.696 34.344L42.152 33.256C41.704 31.144 40.104 28.52 36.328 27.912V24.488H33.384V27.88C29.864 28.36 27.304 30.984 27.304 34.152C27.304 37.288 29.416 39.272 32.808 40.04L33.384 40.168V46.056C31.24 45.544 30.248 43.752 30.088 41.928L26.504 42.92C26.792 45.672 28.936 48.84 33.384 49.384V52.744H36.328ZM31.048 33.928C31.048 32.712 31.848 31.56 33.384 31.176V36.424C31.784 36.104 31.048 35.08 31.048 33.928ZM38.664 43.368C38.664 44.584 37.928 45.736 36.328 46.056V40.808C37.928 41.256 38.664 42.216 38.664 43.368Z" fill="#2A263F"/>
<rect x="315" y="62" width="107" height="52" rx="4" fill="white"/>
<path d="M344.753 85.872V84.176C346.721 83.904 347.777 82.528 347.777 81.088C347.777 79.664 346.801 78.464 344.897 78.048L344.753 78.016V75.152C345.553 75.456 345.857 76.192 345.937 76.672L347.665 76.128C347.441 75.072 346.641 73.76 344.753 73.456V71.744H343.281V73.44C341.521 73.68 340.241 74.992 340.241 76.576C340.241 78.144 341.297 79.136 342.993 79.52L343.281 79.584V82.528C342.209 82.272 341.713 81.376 341.633 80.464L339.841 80.96C339.985 82.336 341.057 83.92 343.281 84.192V85.872H344.753ZM342.113 76.464C342.113 75.856 342.513 75.28 343.281 75.088V77.712C342.481 77.552 342.113 77.04 342.113 76.464ZM345.921 81.184C345.921 81.792 345.553 82.368 344.753 82.528V79.904C345.553 80.128 345.921 80.608 345.921 81.184ZM354.461 77.52C354.445 77.344 354.413 77.152 354.413 76.992C354.413 75.92 355.005 75.072 356.221 75.072C357.389 75.072 357.965 75.84 357.965 76.688C357.965 77.44 357.565 78.064 356.637 78.64L354.925 79.712C353.117 80.832 352.493 82.224 352.461 84H359.965V82.304H354.829C354.973 81.792 355.389 81.424 355.885 81.12L357.901 79.872C359.149 79.104 359.901 78 359.901 76.656C359.901 74.88 358.541 73.392 356.253 73.392C353.901 73.392 352.557 75.008 352.557 76.8C352.557 77.008 352.589 77.248 352.605 77.392L354.461 77.52ZM363.742 79.296C363.902 79.216 364.222 79.12 364.718 79.12C365.598 79.12 366.558 79.632 366.558 80.832C366.558 81.776 365.854 82.592 364.59 82.592C363.438 82.592 362.574 81.776 362.526 80.576L360.654 80.96C360.782 82.688 362.206 84.24 364.606 84.24C367.07 84.24 368.494 82.624 368.494 80.848C368.494 78.848 366.942 77.728 365.39 77.696L368.206 75.232V73.632H361.006V75.312H365.726L362.862 77.872L363.742 79.296ZM369.614 82.832C369.614 83.568 370.126 84.048 370.83 84.048C371.038 84.048 371.15 84 371.214 83.968C371.198 84.8 370.526 85.536 369.79 85.696V86.64C370.878 86.496 372.398 85.552 372.398 83.312C372.398 82.288 371.79 81.616 370.942 81.616C370.19 81.616 369.614 82.16 369.614 82.832ZM377.516 77.952C376.492 77.936 375.82 77.296 375.82 76.432C375.82 75.648 376.46 74.96 377.516 74.96C378.572 74.96 379.228 75.648 379.228 76.432C379.228 77.296 378.556 77.936 377.516 77.952ZM377.516 82.624C376.268 82.624 375.58 81.888 375.58 81.04C375.58 80.192 376.268 79.44 377.516 79.44C378.78 79.44 379.468 80.192 379.468 81.04C379.468 81.888 378.78 82.624 377.516 82.624ZM377.516 84.24C379.9 84.24 381.372 82.96 381.372 81.232C381.372 80.048 380.54 79.072 379.452 78.688C380.444 78.32 381.132 77.328 381.132 76.32C381.132 74.592 379.596 73.392 377.516 73.392C375.436 73.392 373.916 74.592 373.916 76.32C373.916 77.344 374.604 78.32 375.596 78.688C374.492 79.072 373.676 80.048 373.676 81.232C373.676 82.96 375.148 84.24 377.516 84.24ZM384.259 77.52C384.243 77.344 384.211 77.152 384.211 76.992C384.211 75.92 384.803 75.072 386.019 75.072C387.187 75.072 387.763 75.84 387.763 76.688C387.763 77.44 387.363 78.064 386.435 78.64L384.723 79.712C382.915 80.832 382.291 82.224 382.259 84H389.763V82.304H384.627C384.771 81.792 385.187 81.424 385.683 81.12L387.699 79.872C388.947 79.104 389.699 78 389.699 76.656C389.699 74.88 388.339 73.392 386.051 73.392C383.699 73.392 382.355 75.008 382.355 76.8C382.355 77.008 382.387 77.248 382.403 77.392L384.259 77.52ZM397.829 73.632H390.085V75.312H395.653C395.653 75.312 392.037 78.208 391.589 84H393.573C394.037 78.656 396.965 76.032 397.829 75.312V73.632Z" fill="#5138EE"/>
<path d="M349.381 102L352.768 93.4922H354.121L357.508 102H356.236L355.311 99.6211H351.543L350.646 102H349.381ZM351.965 98.5312H354.895L353.418 94.7168L351.965 98.5312ZM358.533 99.8613V96.2285H359.658V99.6973C359.658 100.131 359.764 100.488 359.975 100.77C360.189 101.047 360.52 101.186 360.965 101.186C361.41 101.186 361.75 101.053 361.984 100.787C362.219 100.521 362.336 100.162 362.336 99.709V96.2285H363.461V100.934C363.461 101.27 363.482 101.625 363.525 102H362.441C362.41 101.82 362.395 101.588 362.395 101.303C362.246 101.588 362.014 101.807 361.697 101.959C361.385 102.107 361.049 102.182 360.689 102.182C360.033 102.182 359.51 101.963 359.119 101.525C358.729 101.088 358.533 100.533 358.533 99.8613ZM364.908 102.311L366.004 102.059C366.047 102.469 366.211 102.807 366.496 103.072C366.785 103.342 367.145 103.477 367.574 103.477C368.176 103.477 368.619 103.32 368.904 103.008C369.193 102.699 369.338 102.23 369.338 101.602V100.775C369.193 101.053 368.967 101.281 368.658 101.461C368.35 101.637 367.988 101.725 367.574 101.725C366.805 101.725 366.17 101.463 365.67 100.939C365.17 100.416 364.92 99.7461 364.92 98.9297C364.92 98.1367 365.168 97.4707 365.664 96.9316C366.16 96.3887 366.797 96.1172 367.574 96.1172C368.453 96.1172 369.045 96.4219 369.35 97.0312V96.2285H370.463V101.566C370.463 101.871 370.432 102.158 370.369 102.428C370.311 102.701 370.209 102.963 370.064 103.213C369.924 103.467 369.746 103.684 369.531 103.863C369.316 104.047 369.041 104.191 368.705 104.297C368.373 104.406 367.996 104.461 367.574 104.461C366.859 104.461 366.254 104.258 365.758 103.852C365.266 103.449 364.982 102.936 364.908 102.311ZM366.074 98.9297C366.074 99.4961 366.223 99.9453 366.52 100.277C366.82 100.609 367.227 100.775 367.738 100.775C368.227 100.775 368.623 100.607 368.928 100.271C369.232 99.9316 369.385 99.4844 369.385 98.9297C369.385 98.375 369.232 97.9277 368.928 97.5879C368.623 97.248 368.227 97.0781 367.738 97.0781C367.238 97.0781 366.836 97.248 366.531 97.5879C366.227 97.9277 366.074 98.375 366.074 98.9297ZM372.15 99.8613V96.2285H373.275V99.6973C373.275 100.131 373.381 100.488 373.592 100.77C373.807 101.047 374.137 101.186 374.582 101.186C375.027 101.186 375.367 101.053 375.602 100.787C375.836 100.521 375.953 100.162 375.953 99.709V96.2285H377.078V100.934C377.078 101.27 377.1 101.625 377.143 102H376.059C376.027 101.82 376.012 101.588 376.012 101.303C375.863 101.588 375.631 101.807 375.314 101.959C375.002 102.107 374.666 102.182 374.307 102.182C373.65 102.182 373.127 101.963 372.736 101.525C372.346 101.088 372.15 100.533 372.15 99.8613ZM378.467 100.5L379.486 100.143C379.521 100.459 379.656 100.719 379.891 100.922C380.125 101.121 380.438 101.221 380.828 101.221C381.133 101.221 381.373 101.146 381.549 100.998C381.725 100.85 381.812 100.668 381.812 100.453C381.812 100.273 381.748 100.117 381.619 99.9844C381.49 99.8516 381.307 99.7598 381.068 99.709L380.084 99.4922C379.635 99.3945 379.281 99.2031 379.023 98.918C378.77 98.6289 378.643 98.2793 378.643 97.8691C378.643 97.373 378.844 96.9453 379.246 96.5859C379.652 96.2266 380.137 96.0469 380.699 96.0469C381 96.0469 381.273 96.0859 381.52 96.1641C381.77 96.2383 381.971 96.332 382.123 96.4453C382.275 96.5547 382.408 96.6836 382.521 96.832C382.635 96.9766 382.717 97.1094 382.768 97.2305C382.822 97.3516 382.863 97.4727 382.891 97.5938L381.895 97.9688C381.883 97.8984 381.865 97.8262 381.842 97.752C381.818 97.6777 381.775 97.5957 381.713 97.5059C381.654 97.4121 381.584 97.3301 381.502 97.2598C381.42 97.1895 381.309 97.1309 381.168 97.084C381.027 97.0332 380.871 97.0078 380.699 97.0078C380.422 97.0078 380.191 97.084 380.008 97.2363C379.828 97.3887 379.738 97.5684 379.738 97.7754C379.738 98.1465 379.957 98.3789 380.395 98.4727L381.332 98.6777C381.848 98.791 382.242 98.998 382.516 99.2988C382.793 99.5996 382.932 99.9648 382.932 100.395C382.932 100.605 382.887 100.814 382.797 101.021C382.711 101.225 382.584 101.414 382.416 101.59C382.248 101.766 382.025 101.908 381.748 102.018C381.471 102.127 381.16 102.182 380.816 102.182C380.441 102.182 380.102 102.125 379.797 102.012C379.496 101.902 379.256 101.76 379.076 101.584C378.896 101.408 378.756 101.229 378.654 101.045C378.557 100.861 378.494 100.68 378.467 100.5ZM383.711 97.248V96.2285H384.021C384.318 96.2285 384.541 96.1465 384.689 95.9824C384.838 95.8184 384.912 95.6035 384.912 95.3379V94.4062H385.943V96.2285H387.191V97.248H385.943V100.248C385.943 100.518 386.006 100.717 386.131 100.846C386.256 100.975 386.461 101.039 386.746 101.039C386.918 101.039 387.066 101.023 387.191 100.992V101.953C387.004 102.023 386.748 102.059 386.424 102.059C385.928 102.059 385.535 101.914 385.246 101.625C384.957 101.336 384.812 100.934 384.812 100.418V97.248H383.711Z" fill="#8C87A6"/>
<path d="M58.696 49V28.264H55.368C54.92 30.44 52.872 32.104 49.896 32.168V34.792H54.92V49H58.696ZM77.0253 28.808C76.1293 28.232 74.5293 27.784 72.6093 27.784C66.1773 27.784 61.4733 32.328 61.4733 39.848C61.4733 45.16 64.4813 49.48 69.7613 49.48C74.1133 49.48 77.6333 46.6 77.6333 42.28C77.6333 38.024 74.7213 35.272 70.5933 35.272C68.3853 35.272 66.4013 36.072 65.3133 37.736C65.6653 33.704 68.4813 31.112 72.3853 31.112C74.0813 31.112 75.1693 31.528 75.9373 31.944L77.0253 28.808ZM65.7293 42.344C65.7293 39.912 67.5853 38.472 69.7613 38.472C71.9373 38.472 73.7933 39.912 73.7933 42.344C73.7933 44.744 71.9373 46.216 69.7613 46.216C67.6493 46.216 65.7293 44.712 65.7293 42.344ZM82.371 36.04C82.339 35.688 82.275 35.304 82.275 34.984C82.275 32.84 83.459 31.144 85.891 31.144C88.227 31.144 89.379 32.68 89.379 34.376C89.379 35.88 88.579 37.128 86.723 38.28L83.299 40.424C79.683 42.664 78.435 45.448 78.371 49H93.379V45.608H83.107C83.395 44.584 84.227 43.848 85.219 43.24L89.251 40.744C91.747 39.208 93.251 37 93.251 34.312C93.251 30.76 90.531 27.784 85.955 27.784C81.251 27.784 78.563 31.016 78.563 34.6C78.563 35.016 78.627 35.496 78.659 35.784L82.371 36.04ZM95.3025 46.664C95.3025 48.136 96.3265 49.096 97.7345 49.096C98.1505 49.096 98.3745 49 98.5025 48.936C98.4705 50.6 97.1265 52.072 95.6545 52.392V54.28C97.8305 53.992 100.871 52.104 100.871 47.624C100.871 45.576 99.6545 44.232 97.9585 44.232C96.4545 44.232 95.3025 45.32 95.3025 46.664ZM116.341 28.264H100.853V31.624H111.989C111.989 31.624 104.757 37.416 103.861 49H107.829C108.757 38.312 114.613 33.064 116.341 31.624V28.264ZM115.874 43.272C116.13 46.536 119.202 49.512 123.682 49.512C128.482 49.512 131.49 46.248 131.49 42.344C131.49 37.992 128.514 35.432 124.386 35.432C122.914 35.432 121.314 35.944 120.418 36.872L121.698 31.624H130.466V28.264H119.106L116.546 38.728L120.162 40.04C120.898 39.208 122.146 38.6 123.618 38.6C125.73 38.6 127.618 39.88 127.618 42.44C127.618 44.744 125.858 46.216 123.682 46.216C121.282 46.216 119.65 44.552 119.49 42.344L115.874 43.272ZM140.735 49V28.264H137.407C136.959 30.44 134.911 32.104 131.935 32.168V34.792H136.959V49H140.735Z" fill="#F8F7FC"/>
<defs>
<linearGradient id="paint0_linear" x1="271" y1="71" x2="271" y2="163" gradientUnits="userSpaceOnUse">
<stop stop-color="#5138EE"/>
<stop offset="1" stop-color="#5138EE" stop-opacity="0"/>
</linearGradient>
</defs>
</svg>
