<svg width="510" height="510" viewBox="0 0 510 510" fill="none" xmlns="http://www.w3.org/2000/svg">
<path d="M0 0V510H510C510 374.74 456.268 245.019 360.624 149.376C264.981 53.732 135.26 0 0 0Z" fill="#F8F7FC"/>
<circle cx="387.5" cy="225.5" r="1.5" transform="rotate(90 387.5 225.5)" fill="#BCB8D0"/>
<circle cx="361.5" cy="225.5" r="1.5" transform="rotate(90 361.5 225.5)" fill="#BCB8D0"/>
<circle cx="335.5" cy="225.5" r="1.5" transform="rotate(90 335.5 225.5)" fill="#BCB8D0"/>
<circle cx="309.5" cy="225.5" r="1.5" transform="rotate(90 309.5 225.5)" fill="#BCB8D0"/>
<circle cx="283.5" cy="225.5" r="1.5" transform="rotate(90 283.5 225.5)" fill="#BCB8D0"/>
<circle cx="257.5" cy="225.5" r="1.5" transform="rotate(90 257.5 225.5)" fill="#BCB8D0"/>
<circle cx="387.5" cy="259.5" r="1.5" transform="rotate(90 387.5 259.5)" fill="#BCB8D0"/>
<circle cx="361.5" cy="259.5" r="1.5" transform="rotate(90 361.5 259.5)" fill="#BCB8D0"/>
<circle cx="335.5" cy="259.5" r="1.5" transform="rotate(90 335.5 259.5)" fill="#BCB8D0"/>
<circle cx="309.5" cy="259.5" r="1.5" transform="rotate(90 309.5 259.5)" fill="#BCB8D0"/>
<circle cx="283.5" cy="259.5" r="1.5" transform="rotate(90 283.5 259.5)" fill="#BCB8D0"/>
<circle cx="257.5" cy="259.5" r="1.5" transform="rotate(90 257.5 259.5)" fill="#BCB8D0"/>
<circle cx="387.5" cy="293.5" r="1.5" transform="rotate(90 387.5 293.5)" fill="#BCB8D0"/>
<circle cx="361.5" cy="293.5" r="1.5" transform="rotate(90 361.5 293.5)" fill="#BCB8D0"/>
<circle cx="335.5" cy="293.5" r="1.5" transform="rotate(90 335.5 293.5)" fill="#BCB8D0"/>
<circle cx="309.5" cy="293.5" r="1.5" transform="rotate(90 309.5 293.5)" fill="#BCB8D0"/>
<circle cx="283.5" cy="293.5" r="1.5" transform="rotate(90 283.5 293.5)" fill="#BCB8D0"/>
<circle cx="257.5" cy="293.5" r="1.5" transform="rotate(90 257.5 293.5)" fill="#BCB8D0"/>
<circle cx="387.5" cy="327.5" r="1.5" transform="rotate(90 387.5 327.5)" fill="#BCB8D0"/>
<circle cx="361.5" cy="327.5" r="1.5" transform="rotate(90 361.5 327.5)" fill="#BCB8D0"/>
<circle cx="335.5" cy="327.5" r="1.5" transform="rotate(90 335.5 327.5)" fill="#BCB8D0"/>
<circle cx="309.5" cy="327.5" r="1.5" transform="rotate(90 309.5 327.5)" fill="#BCB8D0"/>
<circle cx="283.5" cy="327.5" r="1.5" transform="rotate(90 283.5 327.5)" fill="#BCB8D0"/>
<circle cx="257.5" cy="327.5" r="1.5" transform="rotate(90 257.5 327.5)" fill="#BCB8D0"/>
<circle cx="387.5" cy="361.5" r="1.5" transform="rotate(90 387.5 361.5)" fill="#BCB8D0"/>
<circle cx="361.5" cy="361.5" r="1.5" transform="rotate(90 361.5 361.5)" fill="#BCB8D0"/>
<circle cx="335.5" cy="361.5" r="1.5" transform="rotate(90 335.5 361.5)" fill="#BCB8D0"/>
<circle cx="309.5" cy="361.5" r="1.5" transform="rotate(90 309.5 361.5)" fill="#BCB8D0"/>
<circle cx="283.5" cy="361.5" r="1.5" transform="rotate(90 283.5 361.5)" fill="#BCB8D0"/>
<circle cx="257.5" cy="361.5" r="1.5" transform="rotate(90 257.5 361.5)" fill="#BCB8D0"/>
<circle cx="387.5" cy="395.5" r="1.5" transform="rotate(90 387.5 395.5)" fill="#BCB8D0"/>
<circle cx="361.5" cy="395.5" r="1.5" transform="rotate(90 361.5 395.5)" fill="#BCB8D0"/>
<circle cx="335.5" cy="395.5" r="1.5" transform="rotate(90 335.5 395.5)" fill="#BCB8D0"/>
<circle cx="309.5" cy="395.5" r="1.5" transform="rotate(90 309.5 395.5)" fill="#BCB8D0"/>
<circle cx="283.5" cy="395.5" r="1.5" transform="rotate(90 283.5 395.5)" fill="#BCB8D0"/>
<circle cx="257.5" cy="395.5" r="1.5" transform="rotate(90 257.5 395.5)" fill="#BCB8D0"/>
<circle cx="387.5" cy="429.5" r="1.5" transform="rotate(90 387.5 429.5)" fill="#BCB8D0"/>
<circle cx="361.5" cy="429.5" r="1.5" transform="rotate(90 361.5 429.5)" fill="#BCB8D0"/>
<circle cx="335.5" cy="429.5" r="1.5" transform="rotate(90 335.5 429.5)" fill="#BCB8D0"/>
<circle cx="309.5" cy="429.5" r="1.5" transform="rotate(90 309.5 429.5)" fill="#BCB8D0"/>
<circle cx="283.5" cy="429.5" r="1.5" transform="rotate(90 283.5 429.5)" fill="#BCB8D0"/>
<circle cx="257.5" cy="429.5" r="1.5" transform="rotate(90 257.5 429.5)" fill="#BCB8D0"/>
<circle cx="387.5" cy="463.5" r="1.5" transform="rotate(90 387.5 463.5)" fill="#BCB8D0"/>
<circle cx="361.5" cy="463.5" r="1.5" transform="rotate(90 361.5 463.5)" fill="#BCB8D0"/>
<circle cx="335.5" cy="463.5" r="1.5" transform="rotate(90 335.5 463.5)" fill="#BCB8D0"/>
<circle cx="309.5" cy="463.5" r="1.5" transform="rotate(90 309.5 463.5)" fill="#BCB8D0"/>
<circle cx="283.5" cy="463.5" r="1.5" transform="rotate(90 283.5 463.5)" fill="#BCB8D0"/>
<circle cx="257.5" cy="463.5" r="1.5" transform="rotate(90 257.5 463.5)" fill="#BCB8D0"/>
</svg>
