<svg width="551" height="502" viewBox="0 0 551 502" fill="none" xmlns="http://www.w3.org/2000/svg">
<rect x="1" width="330" height="308" fill="white"/>
<path d="M101 264C101 252.954 109.954 244 121 244H211C222.046 244 231 252.954 231 264V264C231 275.046 222.046 284 211 284H121C109.954 284 101 275.046 101 264V264Z" fill="white"/>
<path d="M117.333 259.074H119.158L121.927 266.799L124.716 259.074H126.493L122.74 269H121.031L117.333 259.074ZM127.457 260.53C127.252 260.325 127.15 260.077 127.15 259.785C127.15 259.493 127.252 259.245 127.457 259.04C127.662 258.83 127.909 258.726 128.196 258.726C128.492 258.726 128.742 258.83 128.948 259.04C129.157 259.245 129.262 259.493 129.262 259.785C129.262 260.077 129.157 260.325 128.948 260.53C128.742 260.735 128.492 260.838 128.196 260.838C127.909 260.838 127.662 260.735 127.457 260.53ZM127.403 269V262.185H129.009V269H127.403ZM130.226 267.154L131.634 266.758C131.662 267.086 131.796 267.362 132.038 267.585C132.279 267.808 132.607 267.92 133.022 267.92C133.341 267.92 133.592 267.845 133.774 267.694C133.956 267.544 134.047 267.359 134.047 267.141C134.047 266.954 133.979 266.794 133.842 266.662C133.71 266.53 133.512 266.437 133.248 266.382L132.236 266.156C131.648 266.024 131.195 265.78 130.876 265.425C130.561 265.069 130.404 264.65 130.404 264.167C130.404 263.565 130.645 263.05 131.129 262.622C131.616 262.189 132.211 261.973 132.913 261.973C133.277 261.973 133.608 262.018 133.904 262.109C134.205 262.201 134.449 262.314 134.635 262.451C134.822 262.583 134.982 262.738 135.114 262.916C135.251 263.094 135.351 263.26 135.415 263.415C135.478 263.57 135.522 263.723 135.545 263.873L134.171 264.27C134.157 264.16 134.125 264.051 134.075 263.941C134.025 263.832 133.954 263.723 133.863 263.613C133.772 263.504 133.644 263.415 133.48 263.347C133.316 263.278 133.127 263.244 132.913 263.244C132.63 263.244 132.395 263.322 132.209 263.477C132.022 263.632 131.928 263.816 131.928 264.03C131.928 264.208 131.99 264.361 132.113 264.488C132.24 264.616 132.409 264.7 132.619 264.741L133.651 264.953C134.284 265.09 134.77 265.343 135.107 265.712C135.444 266.076 135.613 266.514 135.613 267.024C135.613 267.293 135.558 267.555 135.449 267.811C135.339 268.061 135.182 268.294 134.977 268.508C134.772 268.717 134.501 268.886 134.164 269.014C133.826 269.146 133.45 269.212 133.036 269.212C132.571 269.212 132.154 269.141 131.785 269C131.416 268.863 131.124 268.686 130.91 268.467C130.7 268.248 130.538 268.029 130.424 267.811C130.315 267.587 130.249 267.368 130.226 267.154ZM137.001 260.53C136.796 260.325 136.693 260.077 136.693 259.785C136.693 259.493 136.796 259.245 137.001 259.04C137.206 258.83 137.452 258.726 137.739 258.726C138.035 258.726 138.286 258.83 138.491 259.04C138.701 259.245 138.806 259.493 138.806 259.785C138.806 260.077 138.701 260.325 138.491 260.53C138.286 260.735 138.035 260.838 137.739 260.838C137.452 260.838 137.206 260.735 137.001 260.53ZM136.946 269V262.185H138.553V269H136.946ZM139.558 263.627V262.185H139.906C140.253 262.185 140.515 262.087 140.693 261.891C140.87 261.695 140.959 261.437 140.959 261.118V260.093H142.429V262.185H143.844V263.627H142.429V266.785C142.429 267.086 142.497 267.305 142.634 267.441C142.775 267.574 142.996 267.64 143.297 267.64C143.488 267.64 143.675 267.621 143.858 267.585V268.932C143.625 269.032 143.292 269.082 142.86 269.082C142.226 269.082 141.727 268.902 141.362 268.542C140.998 268.182 140.816 267.685 140.816 267.052V263.627H139.558ZM148.534 269V259.074H152.048C152.727 259.074 153.358 259.186 153.941 259.409C154.529 259.632 155.039 259.951 155.472 260.366C155.91 260.781 156.254 261.305 156.505 261.938C156.755 262.572 156.881 263.278 156.881 264.058C156.881 264.832 156.753 265.536 156.498 266.17C156.247 266.799 155.901 267.318 155.459 267.729C155.021 268.134 154.509 268.449 153.921 268.672C153.337 268.891 152.708 269 152.034 269H148.534ZM150.216 267.462H151.979C152.417 267.462 152.822 267.391 153.196 267.25C153.574 267.109 153.907 266.901 154.194 266.628C154.486 266.35 154.714 265.992 154.878 265.555C155.046 265.113 155.131 264.614 155.131 264.058C155.131 263.493 155.049 262.989 154.884 262.547C154.72 262.1 154.495 261.738 154.208 261.46C153.921 261.182 153.588 260.972 153.21 260.831C152.836 260.685 152.43 260.612 151.993 260.612H150.216V267.462ZM157.797 267.154C157.797 266.571 157.986 266.106 158.364 265.76C158.743 265.409 159.239 265.188 159.854 265.097L161.604 264.83C161.942 264.785 162.11 264.62 162.11 264.338C162.11 264.033 162.003 263.784 161.789 263.593C161.575 263.397 161.254 263.299 160.825 263.299C160.415 263.299 160.087 263.415 159.841 263.647C159.599 263.88 159.46 264.176 159.424 264.536L157.94 264.201C158.004 263.581 158.296 263.055 158.815 262.622C159.335 262.189 159.998 261.973 160.805 261.973C161.311 261.973 161.755 262.041 162.138 262.178C162.521 262.314 162.824 262.504 163.047 262.745C163.27 262.982 163.434 263.251 163.539 263.552C163.648 263.848 163.703 264.172 163.703 264.522V267.906C163.703 268.339 163.733 268.704 163.792 269H162.281C162.231 268.85 162.206 268.56 162.206 268.132C162.019 268.433 161.748 268.688 161.393 268.897C161.042 269.107 160.613 269.212 160.107 269.212C159.419 269.212 158.861 269.011 158.433 268.61C158.009 268.205 157.797 267.719 157.797 267.154ZM159.424 267.052C159.424 267.298 159.51 267.507 159.684 267.681C159.861 267.849 160.105 267.934 160.415 267.934C160.652 267.934 160.868 267.904 161.064 267.845C161.26 267.781 161.438 267.685 161.598 267.558C161.762 267.425 161.887 267.243 161.974 267.011C162.065 266.774 162.11 266.493 162.11 266.17V265.862L160.333 266.129C160.06 266.174 159.839 266.275 159.67 266.43C159.506 266.58 159.424 266.787 159.424 267.052ZM164.79 267.154L166.199 266.758C166.226 267.086 166.36 267.362 166.602 267.585C166.843 267.808 167.171 267.92 167.586 267.92C167.905 267.92 168.156 267.845 168.338 267.694C168.52 267.544 168.612 267.359 168.612 267.141C168.612 266.954 168.543 266.794 168.407 266.662C168.274 266.53 168.076 266.437 167.812 266.382L166.8 266.156C166.212 266.024 165.759 265.78 165.44 265.425C165.125 265.069 164.968 264.65 164.968 264.167C164.968 263.565 165.21 263.05 165.693 262.622C166.18 262.189 166.775 261.973 167.477 261.973C167.841 261.973 168.172 262.018 168.468 262.109C168.769 262.201 169.013 262.314 169.199 262.451C169.386 262.583 169.546 262.738 169.678 262.916C169.815 263.094 169.915 263.26 169.979 263.415C170.043 263.57 170.086 263.723 170.109 263.873L168.735 264.27C168.721 264.16 168.689 264.051 168.639 263.941C168.589 263.832 168.518 263.723 168.427 263.613C168.336 263.504 168.208 263.415 168.044 263.347C167.88 263.278 167.691 263.244 167.477 263.244C167.194 263.244 166.96 263.322 166.773 263.477C166.586 263.632 166.492 263.816 166.492 264.03C166.492 264.208 166.554 264.361 166.677 264.488C166.805 264.616 166.973 264.7 167.183 264.741L168.215 264.953C168.849 265.09 169.334 265.343 169.671 265.712C170.008 266.076 170.177 266.514 170.177 267.024C170.177 267.293 170.122 267.555 170.013 267.811C169.904 268.061 169.746 268.294 169.541 268.508C169.336 268.717 169.065 268.886 168.728 269.014C168.391 269.146 168.015 269.212 167.6 269.212C167.135 269.212 166.718 269.141 166.349 269C165.98 268.863 165.688 268.686 165.474 268.467C165.264 268.248 165.102 268.029 164.989 267.811C164.879 267.587 164.813 267.368 164.79 267.154ZM171.51 269V258.862H173.13V262.841C173.349 262.554 173.632 262.34 173.978 262.198C174.329 262.057 174.696 261.986 175.079 261.986C175.885 261.986 176.501 262.239 176.924 262.745C177.353 263.251 177.567 263.898 177.567 264.687V269H175.947V264.967C175.947 264.511 175.833 264.146 175.605 263.873C175.382 263.595 175.029 263.456 174.545 263.456C174.113 263.456 173.771 263.6 173.52 263.887C173.274 264.174 173.144 264.543 173.13 264.994V269H171.51ZM179.269 269V258.862H180.862V263.025C181.026 262.738 181.3 262.497 181.682 262.301C182.065 262.1 182.505 262 183.002 262C183.991 262 184.763 262.333 185.319 262.998C185.875 263.663 186.153 264.516 186.153 265.555C186.153 266.243 186.026 266.86 185.77 267.407C185.515 267.95 185.141 268.38 184.649 268.699C184.162 269.014 183.594 269.171 182.947 269.171C182.473 269.171 182.054 269.075 181.689 268.884C181.329 268.692 181.049 268.428 180.848 268.091V269H179.269ZM181.361 264.01C181.019 264.388 180.848 264.908 180.848 265.568C180.848 266.229 181.019 266.756 181.361 267.147C181.708 267.535 182.147 267.729 182.681 267.729C183.223 267.729 183.665 267.535 184.007 267.147C184.348 266.756 184.519 266.229 184.519 265.568C184.519 264.903 184.351 264.383 184.014 264.01C183.676 263.632 183.232 263.442 182.681 263.442C182.143 263.442 181.703 263.632 181.361 264.01ZM186.905 265.582C186.905 264.538 187.238 263.677 187.903 262.998C188.573 262.314 189.416 261.973 190.433 261.973C191.454 261.973 192.299 262.314 192.969 262.998C193.639 263.677 193.974 264.538 193.974 265.582C193.974 266.63 193.639 267.498 192.969 268.187C192.299 268.87 191.454 269.212 190.433 269.212C189.416 269.212 188.573 268.87 187.903 268.187C187.238 267.498 186.905 266.63 186.905 265.582ZM189.079 264.01C188.71 264.383 188.526 264.908 188.526 265.582C188.526 266.257 188.71 266.787 189.079 267.175C189.453 267.562 189.904 267.756 190.433 267.756C190.966 267.756 191.415 267.564 191.779 267.182C192.149 266.799 192.333 266.266 192.333 265.582C192.333 264.908 192.149 264.383 191.779 264.01C191.415 263.632 190.966 263.442 190.433 263.442C189.904 263.442 189.453 263.632 189.079 264.01ZM194.842 267.154C194.842 266.571 195.031 266.106 195.41 265.76C195.788 265.409 196.285 265.188 196.9 265.097L198.65 264.83C198.987 264.785 199.156 264.62 199.156 264.338C199.156 264.033 199.049 263.784 198.834 263.593C198.62 263.397 198.299 263.299 197.871 263.299C197.46 263.299 197.132 263.415 196.886 263.647C196.645 263.88 196.506 264.176 196.469 264.536L194.986 264.201C195.05 263.581 195.341 263.055 195.861 262.622C196.38 262.189 197.043 261.973 197.85 261.973C198.356 261.973 198.8 262.041 199.183 262.178C199.566 262.314 199.869 262.504 200.092 262.745C200.315 262.982 200.48 263.251 200.584 263.552C200.694 263.848 200.748 264.172 200.748 264.522V267.906C200.748 268.339 200.778 268.704 200.837 269H199.327C199.276 268.85 199.251 268.56 199.251 268.132C199.065 268.433 198.793 268.688 198.438 268.897C198.087 269.107 197.659 269.212 197.153 269.212C196.465 269.212 195.906 269.011 195.478 268.61C195.054 268.205 194.842 267.719 194.842 267.154ZM196.469 267.052C196.469 267.298 196.556 267.507 196.729 267.681C196.907 267.849 197.15 267.934 197.46 267.934C197.697 267.934 197.914 267.904 198.11 267.845C198.306 267.781 198.483 267.685 198.643 267.558C198.807 267.425 198.932 267.243 199.019 267.011C199.11 266.774 199.156 266.493 199.156 266.17V265.862L197.378 266.129C197.105 266.174 196.884 266.275 196.715 266.43C196.551 266.58 196.469 266.787 196.469 267.052ZM202.437 269V262.185H204.016V263.271C204.176 262.902 204.431 262.615 204.782 262.41C205.137 262.201 205.541 262.096 205.992 262.096C206.142 262.096 206.286 262.109 206.423 262.137V263.791C206.236 263.764 206.058 263.75 205.889 263.75C204.668 263.75 204.057 264.418 204.057 265.753V269H202.437ZM206.901 265.568C206.901 264.917 207.036 264.32 207.305 263.777C207.578 263.235 207.963 262.804 208.46 262.485C208.961 262.162 209.524 262 210.148 262C210.686 262 211.121 262.098 211.454 262.294C211.791 262.49 212.024 262.718 212.151 262.978V258.862H213.73V267.756C213.73 268.221 213.753 268.635 213.799 269H212.247C212.201 268.736 212.179 268.442 212.179 268.118C212.01 268.424 211.748 268.676 211.393 268.877C211.042 269.073 210.636 269.171 210.176 269.171C209.205 269.171 208.417 268.831 207.811 268.152C207.204 267.469 206.901 266.607 206.901 265.568ZM208.521 265.568C208.521 266.22 208.69 266.746 209.027 267.147C209.365 267.544 209.809 267.742 210.36 267.742C210.894 267.742 211.326 267.539 211.659 267.134C211.996 266.728 212.165 266.202 212.165 265.555C212.165 264.912 212.001 264.399 211.673 264.017C211.345 263.634 210.912 263.442 210.374 263.442C209.832 263.442 209.387 263.636 209.041 264.023C208.695 264.411 208.521 264.926 208.521 265.568Z" fill="#5B5675"/>
<line x1="1" y1="123.5" x2="331" y2="123.5" stroke="#F8F7FC"/>
<line x1="1" y1="147.5" x2="331" y2="147.5" stroke="#F8F7FC"/>
<line x1="1" y1="171.5" x2="331" y2="171.5" stroke="#F8F7FC"/>
<line x1="1" y1="195.5" x2="331" y2="195.5" stroke="#F8F7FC"/>
<line x1="1" y1="219.5" x2="331" y2="219.5" stroke="#F8F7FC"/>
<line x1="21.5" y1="220" x2="21.5" y2="124" stroke="#F8F7FC"/>
<line x1="53.5" y1="220" x2="53.5" y2="124" stroke="#F8F7FC"/>
<line x1="85.5" y1="220" x2="85.5" y2="124" stroke="#F8F7FC"/>
<line x1="117.5" y1="220" x2="117.5" y2="124" stroke="#F8F7FC"/>
<line x1="149.5" y1="220" x2="149.5" y2="124" stroke="#F8F7FC"/>
<line x1="181.5" y1="220" x2="181.5" y2="124" stroke="#F8F7FC"/>
<line x1="213.5" y1="220" x2="213.5" y2="124" stroke="#F8F7FC"/>
<line x1="245.5" y1="220" x2="245.5" y2="124" stroke="#F8F7FC"/>
<line x1="277.5" y1="220" x2="277.5" y2="124" stroke="#F8F7FC"/>
<line x1="309.5" y1="220" x2="309.5" y2="124" stroke="#F8F7FC"/>
<path d="M1 220C41.902 220 47.127 174.408 88.029 174.408C128.931 174.408 122.15 137 163.052 137C203.954 137 203.173 189.888 244.075 189.888C284.977 189.888 290.098 220 331 220" fill="url(#paint0_linear)" fill-opacity="0.16"/>
<path d="M1 220C41.902 220 47.127 174.408 88.029 174.408C128.931 174.408 122.15 137 163.052 137C203.954 137 203.173 189.888 244.075 189.888C284.977 189.888 290.098 220 331 220" stroke="#5138EE" stroke-width="2" stroke-linecap="round"/>
<path d="M34.0391 37.4863V31.0742H35.9668V37.3428C35.9668 37.9808 36.1331 38.473 36.4658 38.8193C36.8031 39.1611 37.2633 39.332 37.8467 39.332C38.4437 39.332 38.9062 39.1611 39.2344 38.8193C39.5671 38.4775 39.7334 37.9854 39.7334 37.3428V31.0742H41.668V37.4863C41.668 38.2747 41.4948 38.9561 41.1484 39.5303C40.8066 40.0999 40.3509 40.526 39.7812 40.8086C39.2116 41.0866 38.5667 41.2256 37.8467 41.2256C37.3135 41.2256 36.8167 41.1436 36.3564 40.9795C35.9007 40.8154 35.4997 40.5807 35.1533 40.2754C34.807 39.9655 34.5335 39.5713 34.333 39.0928C34.137 38.6143 34.0391 38.0788 34.0391 37.4863ZM44.4018 41V31.0742H46.808L50.937 37.6367V31.0742H52.8715V41H50.8413L46.3364 33.959V41H44.4018ZM55.6942 41V31.0742H57.6561V41H55.6942ZM59.8909 36.0439C59.8909 35.2646 60.0299 34.5469 60.3079 33.8906C60.5859 33.2298 60.9596 32.6829 61.429 32.25C61.8984 31.8125 62.4385 31.473 63.0491 31.2314C63.6644 30.9854 64.3092 30.8623 64.9837 30.8623C65.6582 30.8623 66.303 30.9854 66.9183 31.2314C67.5381 31.473 68.0827 31.8125 68.5521 32.25C69.0215 32.6829 69.3952 33.2298 69.6732 33.8906C69.9557 34.5469 70.097 35.2646 70.097 36.0439C70.097 37.402 69.6914 38.5459 68.8802 39.4756L70.0696 40.7881L68.7913 41.8818L67.5745 40.5352C66.7633 40.9863 65.8997 41.2119 64.9837 41.2119C64.3092 41.2119 63.6644 41.0911 63.0491 40.8496C62.4385 40.6035 61.8984 40.264 61.429 39.8311C60.9596 39.3936 60.5859 38.8467 60.3079 38.1904C60.0299 37.5342 59.8909 36.8187 59.8909 36.0439ZM62.1605 34.5742C61.9827 35.0072 61.8939 35.4925 61.8939 36.0303C61.8939 36.568 61.9827 37.0534 62.1605 37.4863C62.3382 37.9193 62.5752 38.2679 62.8714 38.5322C63.1676 38.792 63.4958 38.9902 63.8558 39.127C64.2158 39.2637 64.5918 39.332 64.9837 39.332C65.4531 39.332 65.8792 39.2477 66.262 39.0791L64.7034 37.377L65.9954 36.2695L67.5472 38.0059C67.9118 37.4544 68.0941 36.7959 68.0941 36.0303C68.0941 35.5973 68.0348 35.1986 67.9163 34.834C67.7978 34.4648 67.6383 34.1527 67.4378 33.8975C67.2418 33.6423 67.0094 33.4258 66.7405 33.248C66.4762 33.0703 66.196 32.9404 65.8997 32.8584C65.6035 32.7718 65.2982 32.7285 64.9837 32.7285C64.5918 32.7285 64.2158 32.7969 63.8558 32.9336C63.4958 33.0703 63.1676 33.2708 62.8714 33.5352C62.5752 33.7949 62.3382 34.1413 62.1605 34.5742ZM72.2361 37.4863V31.0742H74.1638V37.3428C74.1638 37.9808 74.3302 38.473 74.6629 38.8193C75.0001 39.1611 75.4604 39.332 76.0437 39.332C76.6407 39.332 77.1033 39.1611 77.4314 38.8193C77.7641 38.4775 77.9304 37.9854 77.9304 37.3428V31.0742H79.865V37.4863C79.865 38.2747 79.6918 38.9561 79.3455 39.5303C79.0037 40.0999 78.5479 40.526 77.9783 40.8086C77.4086 41.0866 76.7638 41.2256 76.0437 41.2256C75.5105 41.2256 75.0138 41.1436 74.5535 40.9795C74.0977 40.8154 73.6967 40.5807 73.3504 40.2754C73.004 39.9655 72.7306 39.5713 72.53 39.0928C72.3341 38.6143 72.2361 38.0788 72.2361 37.4863ZM82.5988 41V31.0742H88.8127V32.8926H84.5334V35.1621H88.4094V36.8848H84.5334V39.1816H88.8127V41H82.5988ZM94.3282 31.0742H96.4473L99.0382 38.4502L101.622 31.0742H103.666L99.9884 41H97.9991L94.3282 31.0742ZM105.498 41V31.0742H107.459V41H105.498ZM109.564 38.1016L111.362 37.623C111.408 38.1517 111.615 38.596 111.984 38.9561C112.353 39.3115 112.868 39.4893 113.529 39.4893C114.035 39.4893 114.429 39.3776 114.712 39.1543C114.999 38.9264 115.143 38.6325 115.143 38.2725C115.143 37.9808 115.035 37.7324 114.821 37.5273C114.612 37.3177 114.315 37.1742 113.933 37.0967L112.552 36.8164C111.75 36.6523 111.114 36.3219 110.644 35.8252C110.18 35.3285 109.947 34.7109 109.947 33.9727C109.947 33.3984 110.104 32.8721 110.419 32.3936C110.733 31.915 111.155 31.5413 111.684 31.2725C112.212 30.999 112.786 30.8623 113.406 30.8623C113.976 30.8623 114.484 30.9421 114.931 31.1016C115.382 31.2611 115.742 31.473 116.011 31.7373C116.28 32.0016 116.489 32.2751 116.64 32.5576C116.79 32.8356 116.897 33.1296 116.961 33.4395L115.225 33.9727C115.197 33.8177 115.147 33.6673 115.074 33.5215C115.001 33.3711 114.896 33.2207 114.76 33.0703C114.628 32.9199 114.445 32.7992 114.213 32.708C113.98 32.6169 113.716 32.5713 113.42 32.5713C112.964 32.5713 112.59 32.6966 112.299 32.9473C112.007 33.1934 111.861 33.4873 111.861 33.8291C111.861 34.1117 111.952 34.3532 112.135 34.5537C112.322 34.7497 112.59 34.8818 112.941 34.9502L114.329 35.2168C115.209 35.3854 115.89 35.7363 116.373 36.2695C116.856 36.7982 117.098 37.4225 117.098 38.1426C117.098 38.5299 117.018 38.9059 116.858 39.2705C116.699 39.6305 116.471 39.9564 116.175 40.248C115.883 40.5397 115.505 40.7744 115.04 40.9521C114.58 41.1253 114.072 41.2119 113.516 41.2119C113.01 41.2119 112.543 41.1481 112.114 41.0205C111.686 40.8975 111.324 40.7334 111.027 40.5283C110.736 40.3232 110.483 40.084 110.269 39.8105C110.054 39.5326 109.89 39.2523 109.776 38.9697C109.667 38.6872 109.596 38.3978 109.564 38.1016ZM119.291 41V31.0742H121.253V41H119.291ZM123.167 32.9062V31.0742H131.384V32.9062H128.246V41H126.305V32.9062H123.167ZM132.443 36.0439C132.443 35.2646 132.582 34.5469 132.86 33.8906C133.138 33.2298 133.511 32.6829 133.981 32.25C134.45 31.8125 134.99 31.473 135.601 31.2314C136.216 30.9854 136.861 30.8623 137.535 30.8623C138.21 30.8623 138.855 30.9854 139.47 31.2314C140.09 31.473 140.634 31.8125 141.104 32.25C141.573 32.6829 141.947 33.2298 142.225 33.8906C142.507 34.5469 142.649 35.2646 142.649 36.0439C142.649 36.8187 142.507 37.5342 142.225 38.1904C141.947 38.8467 141.573 39.3936 141.104 39.8311C140.634 40.264 140.09 40.6035 139.47 40.8496C138.855 41.0911 138.21 41.2119 137.535 41.2119C136.861 41.2119 136.216 41.0911 135.601 40.8496C134.99 40.6035 134.45 40.264 133.981 39.8311C133.511 39.3936 133.138 38.8467 132.86 38.1904C132.582 37.5342 132.443 36.8187 132.443 36.0439ZM134.712 34.5742C134.534 35.0072 134.446 35.4925 134.446 36.0303C134.446 36.568 134.534 37.0534 134.712 37.4863C134.89 37.9193 135.127 38.2679 135.423 38.5322C135.719 38.792 136.047 38.9902 136.408 39.127C136.768 39.2637 137.144 39.332 137.535 39.332C137.85 39.332 138.155 39.291 138.451 39.209C138.748 39.1224 139.028 38.9902 139.292 38.8125C139.561 38.6348 139.794 38.4183 139.99 38.1631C140.19 37.9079 140.35 37.598 140.468 37.2334C140.587 36.8643 140.646 36.4632 140.646 36.0303C140.646 35.5973 140.587 35.1986 140.468 34.834C140.35 34.4648 140.19 34.1527 139.99 33.8975C139.794 33.6423 139.561 33.4258 139.292 33.248C139.028 33.0703 138.748 32.9404 138.451 32.8584C138.155 32.7718 137.85 32.7285 137.535 32.7285C137.144 32.7285 136.768 32.7969 136.408 32.9336C136.047 33.0703 135.719 33.2708 135.423 33.5352C135.127 33.7949 134.89 34.1413 134.712 34.5742ZM144.884 41V31.0742H148.759C149.712 31.0742 150.478 31.3636 151.056 31.9424C151.635 32.5166 151.925 33.2435 151.925 34.123C151.925 34.8112 151.735 35.4059 151.357 35.9072C150.979 36.4085 150.464 36.7526 149.812 36.9395L151.938 41H149.785L147.837 37.1787H146.832V41H144.884ZM146.832 35.5107H148.397C148.88 35.5107 149.259 35.3854 149.532 35.1348C149.81 34.8841 149.949 34.5514 149.949 34.1367C149.949 33.7129 149.81 33.3779 149.532 33.1318C149.259 32.8812 148.88 32.7559 148.397 32.7559H146.832V35.5107ZM153.476 38.1016L155.274 37.623C155.319 38.1517 155.527 38.596 155.896 38.9561C156.265 39.3115 156.78 39.4893 157.441 39.4893C157.946 39.4893 158.341 39.3776 158.623 39.1543C158.91 38.9264 159.054 38.6325 159.054 38.2725C159.054 37.9808 158.947 37.7324 158.733 37.5273C158.523 37.3177 158.227 37.1742 157.844 37.0967L156.463 36.8164C155.661 36.6523 155.025 36.3219 154.556 35.8252C154.091 35.3285 153.859 34.7109 153.859 33.9727C153.859 33.3984 154.016 32.8721 154.33 32.3936C154.645 31.915 155.066 31.5413 155.595 31.2725C156.124 30.999 156.698 30.8623 157.318 30.8623C157.887 30.8623 158.395 30.9421 158.842 31.1016C159.293 31.2611 159.653 31.473 159.922 31.7373C160.191 32.0016 160.401 32.2751 160.551 32.5576C160.701 32.8356 160.808 33.1296 160.872 33.4395L159.136 33.9727C159.109 33.8177 159.058 33.6673 158.986 33.5215C158.913 33.3711 158.808 33.2207 158.671 33.0703C158.539 32.9199 158.357 32.7992 158.124 32.708C157.892 32.6169 157.627 32.5713 157.331 32.5713C156.875 32.5713 156.502 32.6966 156.21 32.9473C155.918 33.1934 155.773 33.4873 155.773 33.8291C155.773 34.1117 155.864 34.3532 156.046 34.5537C156.233 34.7497 156.502 34.8818 156.853 34.9502L158.24 35.2168C159.12 35.3854 159.801 35.7363 160.284 36.2695C160.767 36.7982 161.009 37.4225 161.009 38.1426C161.009 38.5299 160.929 38.9059 160.77 39.2705C160.61 39.6305 160.382 39.9564 160.086 40.248C159.794 40.5397 159.416 40.7744 158.951 40.9521C158.491 41.1253 157.983 41.2119 157.427 41.2119C156.921 41.2119 156.454 41.1481 156.026 41.0205C155.597 40.8975 155.235 40.7334 154.939 40.5283C154.647 40.3232 154.394 40.084 154.18 39.8105C153.966 39.5326 153.802 39.2523 153.688 38.9697C153.578 38.6872 153.508 38.3978 153.476 38.1016Z" fill="#8C87A6"/>
<path d="M33.7227 83.3242L39.0352 82.2891C39.1003 83.6172 39.569 84.7109 40.4414 85.5703C41.3138 86.4167 42.4206 86.8398 43.7617 86.8398C45.1029 86.8398 46.1706 86.4688 46.9648 85.7266C47.7591 84.9714 48.1562 84.0339 48.1562 82.9141C48.1562 81.7161 47.7656 80.7786 46.9844 80.1016C46.2031 79.4245 45.181 79.0859 43.918 79.0859C43.0977 79.0859 42.3099 79.2161 41.5547 79.4766L39.1133 75.6484L45.9297 69.8086H34.5625V65.043H52.9219V69.4766L46.2031 75.082C48.2604 75.1602 50.0247 75.9284 51.4961 77.3867C52.9805 78.832 53.7227 80.7005 53.7227 82.9922C53.7227 84.112 53.4948 85.1927 53.0391 86.2344C52.5833 87.263 51.9388 88.181 51.1055 88.9883C50.2852 89.7826 49.237 90.4206 47.9609 90.9023C46.6849 91.3711 45.2852 91.6055 43.7617 91.6055C40.8711 91.6055 38.5143 90.7982 36.6914 89.1836C34.8815 87.569 33.8919 85.6159 33.7227 83.3242ZM54.525 91C54.551 88.5651 55.0198 86.4427 55.9312 84.6328C56.8557 82.8229 58.4247 81.2539 60.6383 79.9258L64.9156 77.3672C66.0094 76.7161 66.7971 76.0326 67.2789 75.3164C67.7607 74.6003 68.0016 73.7865 68.0016 72.875C68.0016 71.8724 67.6565 71.0326 66.9664 70.3555C66.2763 69.6654 65.3128 69.3203 64.0758 69.3203C62.7477 69.3203 61.7255 69.724 61.0094 70.5312C60.3062 71.3255 59.9547 72.3607 59.9547 73.6367C59.9547 74.1055 60.0198 74.5872 60.15 75.082L54.9156 74.9258C54.7854 74.3398 54.7203 73.7409 54.7203 73.1289C54.7203 71.9831 54.9352 70.8893 55.3648 69.8477C55.7945 68.806 56.4 67.8815 57.1812 67.0742C57.9625 66.2669 58.9586 65.6289 60.1695 65.1602C61.3935 64.6784 62.7346 64.4375 64.193 64.4375C67.0055 64.4375 69.2646 65.2513 70.9703 66.8789C72.6891 68.4935 73.5484 70.4661 73.5484 72.7969C73.5484 76.1172 71.8687 78.7995 68.5094 80.8438L63.5094 83.8711C62.3505 84.6263 61.6083 85.4141 61.2828 86.2344H73.7242V91H54.525ZM76.7141 90.1797C76.1021 89.5547 75.7961 88.7604 75.7961 87.7969C75.7961 86.8333 76.1411 86.0326 76.8312 85.3945C77.5344 84.7565 78.4003 84.4375 79.4289 84.4375C80.6398 84.4375 81.6034 84.8737 82.3195 85.7461C83.0357 86.6185 83.3937 87.7188 83.3937 89.0469C83.3937 90.1797 83.244 91.2214 82.9445 92.1719C82.6451 93.1224 82.2544 93.9167 81.7727 94.5547C81.3039 95.1927 80.7505 95.7461 80.1125 96.2148C79.4875 96.6966 78.8625 97.0547 78.2375 97.2891C77.6125 97.5234 76.9875 97.6797 76.3625 97.7578V95.1992C77.326 94.9909 78.1854 94.4831 78.9406 93.6758C79.7089 92.8685 80.1125 91.9375 80.1516 90.8828C79.9432 91.0391 79.5982 91.1172 79.1164 91.1172C78.1398 91.1172 77.3391 90.8047 76.7141 90.1797ZM85.6219 84.0078C85.6219 82.6146 86.0385 81.3451 86.8719 80.1992C87.7182 79.0404 88.8315 78.2005 90.2117 77.6797C88.9617 77.224 87.9656 76.4492 87.2234 75.3555C86.4943 74.2487 86.1297 73.0898 86.1297 71.8789C86.1297 69.7044 87.0021 67.9206 88.7469 66.5273C90.5047 65.1341 92.7313 64.4375 95.4266 64.4375C98.1219 64.4375 100.342 65.1341 102.087 66.5273C103.832 67.9206 104.704 69.7044 104.704 71.8789C104.704 73.0768 104.339 74.2292 103.61 75.3359C102.894 76.4427 101.911 77.224 100.661 77.6797C102.015 78.1745 103.109 79.0078 103.942 80.1797C104.789 81.3385 105.212 82.6146 105.212 84.0078C105.212 86.2604 104.313 88.0898 102.516 89.4961C100.733 90.9023 98.3693 91.6055 95.4266 91.6055C92.4839 91.6055 90.1141 90.9023 88.3172 89.4961C86.5203 88.0898 85.6219 86.2604 85.6219 84.0078ZM91.0516 83.4414C91.0516 84.418 91.4422 85.2643 92.2234 85.9805C93.0047 86.6836 94.0724 87.0352 95.4266 87.0352C96.7938 87.0352 97.868 86.6836 98.6492 85.9805C99.4305 85.2643 99.8211 84.418 99.8211 83.4414C99.8211 82.4258 99.437 81.5599 98.6688 80.8438C97.9005 80.1276 96.8198 79.7695 95.4266 79.7695C94.0333 79.7695 92.9526 80.1276 92.1844 80.8438C91.4292 81.5599 91.0516 82.4258 91.0516 83.4414ZM91.618 72.2891C91.618 73.2396 91.9565 74.0404 92.6336 74.6914C93.3237 75.3424 94.2547 75.6745 95.4266 75.6875C96.6115 75.6745 97.5424 75.3424 98.2195 74.6914C98.9096 74.0404 99.2547 73.2396 99.2547 72.2891C99.2547 71.3776 98.9096 70.6029 98.2195 69.9648C97.5294 69.3268 96.5984 69.0078 95.4266 69.0078C94.2677 69.0078 93.3432 69.3333 92.6531 69.9844C91.963 70.6224 91.618 71.3906 91.618 72.2891ZM106.483 91C106.509 88.5651 106.978 86.4427 107.889 84.6328C108.814 82.8229 110.383 81.2539 112.596 79.9258L116.873 77.3672C117.967 76.7161 118.755 76.0326 119.237 75.3164C119.718 74.6003 119.959 73.7865 119.959 72.875C119.959 71.8724 119.614 71.0326 118.924 70.3555C118.234 69.6654 117.271 69.3203 116.034 69.3203C114.705 69.3203 113.683 69.724 112.967 70.5312C112.264 71.3255 111.912 72.3607 111.912 73.6367C111.912 74.1055 111.978 74.5872 112.108 75.082L106.873 74.9258C106.743 74.3398 106.678 73.7409 106.678 73.1289C106.678 71.9831 106.893 70.8893 107.323 69.8477C107.752 68.806 108.358 67.8815 109.139 67.0742C109.92 66.2669 110.916 65.6289 112.127 65.1602C113.351 64.6784 114.692 64.4375 116.151 64.4375C118.963 64.4375 121.222 65.2513 122.928 66.8789C124.647 68.4935 125.506 70.4661 125.506 72.7969C125.506 76.1172 123.827 78.7995 120.467 80.8438L115.467 83.8711C114.308 84.6263 113.566 85.4141 113.241 86.2344H125.682V91H106.483ZM125.508 69.8086V65.043H145.234V69.6328C144.831 69.9844 144.447 70.3294 144.082 70.668C143.73 71.0065 143.216 71.5534 142.539 72.3086C141.862 73.0638 141.237 73.8385 140.664 74.6328C140.104 75.4271 139.486 76.4297 138.809 77.6406C138.132 78.8385 137.539 80.0755 137.031 81.3516C136.536 82.6146 136.081 84.0924 135.664 85.7852C135.26 87.4648 134.98 89.2031 134.824 91H129.121C129.264 89.099 129.551 87.25 129.98 85.4531C130.423 83.6432 130.938 82.0547 131.523 80.6875C132.109 79.3203 132.734 78.0312 133.398 76.8203C134.076 75.5964 134.733 74.5677 135.371 73.7344C136.009 72.901 136.589 72.1849 137.109 71.5859C137.643 70.974 138.073 70.5247 138.398 70.2383L138.867 69.8086H125.508ZM144.845 79.6719C144.845 75.0495 146.167 71.3581 148.81 68.5977C151.453 65.8242 154.93 64.4375 159.24 64.4375C161.532 64.4375 163.348 64.8411 164.689 65.6484L163.166 70.1211C161.772 69.5091 160.347 69.2031 158.888 69.2031C156.61 69.2031 154.683 69.8542 153.107 71.1562C151.532 72.4453 150.594 74.2747 150.295 76.6445C150.828 75.8372 151.629 75.1536 152.697 74.5938C153.778 74.0339 155.028 73.7539 156.447 73.7539C159.129 73.7539 161.291 74.5482 162.931 76.1367C164.585 77.7122 165.412 79.8281 165.412 82.4844C165.412 85.1276 164.455 87.3086 162.541 89.0273C160.64 90.7461 158.25 91.6055 155.373 91.6055C153.94 91.6055 152.593 91.3451 151.33 90.8242C150.067 90.3034 148.947 89.5612 147.97 88.5977C147.007 87.6211 146.245 86.3646 145.685 84.8281C145.125 83.2917 144.845 81.5729 144.845 79.6719ZM150.763 82.6016C150.763 83.8776 151.213 84.9258 152.111 85.7461C153.009 86.5534 154.084 86.957 155.334 86.957C156.636 86.957 157.723 86.5599 158.595 85.7656C159.481 84.9583 159.923 83.9036 159.923 82.6016C159.923 81.2995 159.481 80.2578 158.595 79.4766C157.723 78.6823 156.636 78.2852 155.334 78.2852C154.045 78.2852 152.957 78.6823 152.072 79.4766C151.199 80.2578 150.763 81.2995 150.763 82.6016Z" fill="#0A071B"/>
<path d="M195 73L199.243 77.243L197.828 78.657L195 75.828L192.172 78.657L190.757 77.243L195 73Z" fill="#5138EE"/>
<path d="M211.781 78.1562V76.4141H214.805V73.2969H216.602V76.4141H219.641V78.1562H216.602V81.2969H214.805V78.1562H211.781ZM220.297 79.7734V77.4688L224.665 71.6172H227.383V77.8906H229.094V79.7734H227.383V82H225.204V79.7734H220.297ZM222.243 77.8906H225.204V73.9219L222.243 77.8906ZM229.204 82C229.215 81.026 229.402 80.1771 229.767 79.4531C230.137 78.7292 230.764 78.1016 231.65 77.5703L233.361 76.5469C233.798 76.2865 234.113 76.013 234.306 75.7266C234.499 75.4401 234.595 75.1146 234.595 74.75C234.595 74.349 234.457 74.013 234.181 73.7422C233.905 73.4661 233.519 73.3281 233.025 73.3281C232.493 73.3281 232.085 73.4896 231.798 73.8125C231.517 74.1302 231.376 74.5443 231.376 75.0547C231.376 75.2422 231.402 75.4349 231.454 75.6328L229.361 75.5703C229.309 75.3359 229.282 75.0964 229.282 74.8516C229.282 74.3932 229.368 73.9557 229.54 73.5391C229.712 73.1224 229.954 72.7526 230.267 72.4297C230.579 72.1068 230.978 71.8516 231.462 71.6641C231.952 71.4714 232.488 71.375 233.072 71.375C234.197 71.375 235.1 71.7005 235.782 72.3516C236.47 72.9974 236.814 73.7865 236.814 74.7188C236.814 76.0469 236.142 77.1198 234.798 77.9375L232.798 79.1484C232.335 79.4505 232.038 79.7656 231.907 80.0938H236.884V82H229.204ZM237.439 74.0625C237.439 73.3333 237.7 72.7135 238.221 72.2031C238.747 71.6927 239.372 71.4375 240.096 71.4375C240.82 71.4375 241.445 71.6927 241.971 72.2031C242.502 72.7135 242.767 73.3333 242.767 74.0625C242.767 74.7969 242.504 75.4167 241.978 75.9219C241.452 76.4219 240.825 76.6719 240.096 76.6719C239.366 76.6719 238.741 76.4193 238.221 75.9141C237.7 75.4036 237.439 74.7865 237.439 74.0625ZM239.01 82L246.338 71.6172H248.189L240.861 82H239.01ZM239.041 74.0625C239.041 74.3958 239.14 74.6667 239.338 74.875C239.541 75.0833 239.794 75.1875 240.096 75.1875C240.403 75.1875 240.656 75.0833 240.853 74.875C241.051 74.6615 241.15 74.3906 241.15 74.0625C241.15 73.7344 241.051 73.4688 240.853 73.2656C240.656 73.0625 240.403 72.9609 240.096 72.9609C239.794 72.9609 239.541 73.0651 239.338 73.2734C239.14 73.4766 239.041 73.7396 239.041 74.0625ZM244.432 79.5703C244.432 78.8411 244.692 78.2214 245.213 77.7109C245.739 77.2005 246.364 76.9453 247.088 76.9453C247.812 76.9453 248.437 77.2005 248.963 77.7109C249.494 78.2214 249.76 78.8411 249.76 79.5703C249.76 80.3047 249.497 80.9245 248.971 81.4297C248.445 81.9297 247.817 82.1797 247.088 82.1797C246.359 82.1797 245.734 81.9271 245.213 81.4219C244.692 80.9115 244.432 80.2943 244.432 79.5703ZM246.033 79.5703C246.033 79.9036 246.132 80.1745 246.33 80.3828C246.533 80.5859 246.786 80.6875 247.088 80.6875C247.395 80.6875 247.648 80.5833 247.846 80.375C248.044 80.1667 248.142 79.8984 248.142 79.5703C248.142 79.2422 248.044 78.9766 247.846 78.7734C247.648 78.5651 247.395 78.4609 247.088 78.4609C246.786 78.4609 246.533 78.5651 246.33 78.7734C246.132 78.9818 246.033 79.2474 246.033 79.5703Z" fill="#5138EE"/>
<rect x="1" y="348" width="510" height="154" fill="white"/>
<path d="M386 446C397.527 446 398.999 422.595 410.526 422.595C422.053 422.595 420.142 404 431.669 404C443.196 404 442.976 430.29 454.503 430.29C466.03 430.29 467.473 407.5 479 407.5" stroke="#5138EE" stroke-width="2" stroke-linecap="round"/>
<path opacity="0.16" d="M386 446C397.527 446 398.999 422.595 410.526 422.595C422.053 422.595 420.142 404 431.669 404C443.196 404 442.976 430.29 454.503 430.29C463 430.29 471 406 479 407.5C479 407.5 479 445.5 479 446" fill="url(#paint1_linear)"/>
<path d="M174.135 404V394.074H176.541L180.67 400.637V394.074H182.604V404H180.574L176.069 396.959V404H174.135ZM185.427 404V394.074H191.641V395.893H187.362V398.162H191.238V399.885H187.362V402.182H191.641V404H185.427ZM193.213 394.074H195.257L197.075 400.903L199.269 394.074H201.272L203.487 400.931L205.278 394.074H207.254L204.506 404H202.516L200.254 396.932L197.984 404H195.968L193.213 394.074ZM212.421 401.102L214.219 400.623C214.264 401.152 214.471 401.596 214.841 401.956C215.21 402.312 215.725 402.489 216.386 402.489C216.891 402.489 217.286 402.378 217.568 402.154C217.855 401.926 217.999 401.632 217.999 401.272C217.999 400.981 217.892 400.732 217.678 400.527C217.468 400.318 217.172 400.174 216.789 400.097L215.408 399.816C214.606 399.652 213.97 399.322 213.501 398.825C213.036 398.328 212.803 397.711 212.803 396.973C212.803 396.398 212.961 395.872 213.275 395.394C213.59 394.915 214.011 394.541 214.54 394.272C215.068 393.999 215.643 393.862 216.262 393.862C216.832 393.862 217.34 393.942 217.787 394.102C218.238 394.261 218.598 394.473 218.867 394.737C219.136 395.002 219.345 395.275 219.496 395.558C219.646 395.836 219.753 396.13 219.817 396.439L218.081 396.973C218.053 396.818 218.003 396.667 217.93 396.521C217.858 396.371 217.753 396.221 217.616 396.07C217.484 395.92 217.302 395.799 217.069 395.708C216.837 395.617 216.572 395.571 216.276 395.571C215.82 395.571 215.447 395.697 215.155 395.947C214.863 396.193 214.718 396.487 214.718 396.829C214.718 397.112 214.809 397.353 214.991 397.554C215.178 397.75 215.447 397.882 215.798 397.95L217.185 398.217C218.065 398.385 218.746 398.736 219.229 399.27C219.712 399.798 219.954 400.423 219.954 401.143C219.954 401.53 219.874 401.906 219.715 402.271C219.555 402.631 219.327 402.956 219.031 403.248C218.739 403.54 218.361 403.774 217.896 403.952C217.436 404.125 216.928 404.212 216.372 404.212C215.866 404.212 215.399 404.148 214.97 404.021C214.542 403.897 214.18 403.733 213.884 403.528C213.592 403.323 213.339 403.084 213.125 402.811C212.911 402.533 212.747 402.252 212.633 401.97C212.523 401.687 212.453 401.398 212.421 401.102ZM222.025 400.486V394.074H223.952V400.343C223.952 400.981 224.119 401.473 224.451 401.819C224.789 402.161 225.249 402.332 225.832 402.332C226.429 402.332 226.892 402.161 227.22 401.819C227.553 401.478 227.719 400.985 227.719 400.343V394.074H229.654V400.486C229.654 401.275 229.48 401.956 229.134 402.53C228.792 403.1 228.336 403.526 227.767 403.809C227.197 404.087 226.552 404.226 225.832 404.226C225.299 404.226 224.802 404.144 224.342 403.979C223.886 403.815 223.485 403.581 223.139 403.275C222.793 402.965 222.519 402.571 222.319 402.093C222.123 401.614 222.025 401.079 222.025 400.486ZM232.387 404V394.074H235.956C236.899 394.074 237.637 394.323 238.171 394.819C238.708 395.316 238.977 395.959 238.977 396.747C238.977 397.248 238.843 397.693 238.574 398.08C238.31 398.467 237.965 398.732 237.542 398.873C238.043 398.996 238.46 399.27 238.793 399.693C239.125 400.117 239.292 400.628 239.292 401.225C239.292 402.04 239.009 402.708 238.444 403.228C237.883 403.743 237.143 404 236.222 404H232.387ZM234.288 402.387H235.86C236.329 402.387 236.696 402.273 236.961 402.045C237.225 401.817 237.357 401.503 237.357 401.102C237.357 400.696 237.229 400.375 236.974 400.138C236.719 399.896 236.357 399.775 235.887 399.775H234.288V402.387ZM234.288 398.176H235.662C236.099 398.176 236.443 398.064 236.694 397.841C236.949 397.618 237.077 397.314 237.077 396.932C237.077 396.544 236.954 396.243 236.708 396.029C236.462 395.811 236.108 395.701 235.648 395.701H234.288V398.176ZM240.774 401.102L242.572 400.623C242.618 401.152 242.825 401.596 243.194 401.956C243.564 402.312 244.079 402.489 244.739 402.489C245.245 402.489 245.639 402.378 245.922 402.154C246.209 401.926 246.353 401.632 246.353 401.272C246.353 400.981 246.246 400.732 246.031 400.527C245.822 400.318 245.525 400.174 245.143 400.097L243.762 399.816C242.96 399.652 242.324 399.322 241.855 398.825C241.39 398.328 241.157 397.711 241.157 396.973C241.157 396.398 241.315 395.872 241.629 395.394C241.943 394.915 242.365 394.541 242.894 394.272C243.422 393.999 243.996 393.862 244.616 393.862C245.186 393.862 245.694 393.942 246.141 394.102C246.592 394.261 246.952 394.473 247.221 394.737C247.49 395.002 247.699 395.275 247.85 395.558C248 395.836 248.107 396.13 248.171 396.439L246.435 396.973C246.407 396.818 246.357 396.667 246.284 396.521C246.211 396.371 246.107 396.221 245.97 396.07C245.838 395.92 245.655 395.799 245.423 395.708C245.191 395.617 244.926 395.571 244.63 395.571C244.174 395.571 243.801 395.697 243.509 395.947C243.217 396.193 243.071 396.487 243.071 396.829C243.071 397.112 243.163 397.353 243.345 397.554C243.532 397.75 243.801 397.882 244.151 397.95L245.539 398.217C246.419 398.385 247.1 398.736 247.583 399.27C248.066 399.798 248.308 400.423 248.308 401.143C248.308 401.53 248.228 401.906 248.068 402.271C247.909 402.631 247.681 402.956 247.385 403.248C247.093 403.54 246.715 403.774 246.25 403.952C245.79 404.125 245.282 404.212 244.726 404.212C244.22 404.212 243.753 404.148 243.324 404.021C242.896 403.897 242.534 403.733 242.237 403.528C241.946 403.323 241.693 403.084 241.479 402.811C241.264 402.533 241.1 402.252 240.986 401.97C240.877 401.687 240.806 401.398 240.774 401.102ZM250.29 401.184C250.021 400.527 249.886 399.814 249.886 399.044C249.886 398.274 250.025 397.561 250.303 396.904C250.581 396.248 250.953 395.701 251.418 395.264C251.882 394.822 252.418 394.478 253.024 394.231C253.635 393.985 254.273 393.862 254.938 393.862C255.594 393.862 256.196 393.958 256.743 394.149C257.29 394.336 257.743 394.591 258.103 394.915C258.468 395.234 258.764 395.583 258.992 395.961C259.224 396.335 259.39 396.733 259.491 397.157L257.672 397.725C257.609 397.469 257.511 397.23 257.378 397.007C257.251 396.784 257.08 396.574 256.866 396.378C256.656 396.177 256.385 396.02 256.052 395.906C255.72 395.788 255.348 395.729 254.938 395.729C254.555 395.729 254.186 395.797 253.831 395.934C253.475 396.07 253.152 396.271 252.86 396.535C252.568 396.799 252.334 397.148 252.156 397.581C251.978 398.014 251.889 398.502 251.889 399.044C251.889 399.554 251.973 400.021 252.142 400.445C252.315 400.865 252.545 401.209 252.833 401.478C253.12 401.746 253.445 401.954 253.81 402.1C254.179 402.245 254.564 402.318 254.965 402.318C255.293 402.318 255.599 402.277 255.881 402.195C256.164 402.113 256.405 402.006 256.606 401.874C256.807 401.737 256.987 401.58 257.146 401.402C257.306 401.22 257.433 401.038 257.529 400.855C257.625 400.673 257.7 400.484 257.754 400.288L259.559 400.835C259.482 401.154 259.363 401.466 259.204 401.771C259.049 402.077 258.839 402.38 258.575 402.681C258.315 402.981 258.016 403.243 257.679 403.467C257.347 403.69 256.945 403.87 256.476 404.007C256.007 404.144 255.503 404.212 254.965 404.212C254.273 404.212 253.616 404.091 252.997 403.85C252.381 403.604 251.844 403.262 251.383 402.824C250.923 402.382 250.558 401.835 250.29 401.184ZM261.726 404V394.074H265.602C266.554 394.074 267.32 394.364 267.898 394.942C268.477 395.517 268.767 396.243 268.767 397.123C268.767 397.811 268.577 398.406 268.199 398.907C267.821 399.409 267.306 399.753 266.654 399.939L268.78 404H266.627L264.679 400.179H263.674V404H261.726ZM263.674 398.511H265.239C265.722 398.511 266.101 398.385 266.374 398.135C266.652 397.884 266.791 397.551 266.791 397.137C266.791 396.713 266.652 396.378 266.374 396.132C266.101 395.881 265.722 395.756 265.239 395.756H263.674V398.511ZM271.036 404V394.074H272.997V404H271.036ZM275.82 404V394.074H279.389C280.332 394.074 281.07 394.323 281.603 394.819C282.141 395.316 282.41 395.959 282.41 396.747C282.41 397.248 282.276 397.693 282.007 398.08C281.742 398.467 281.398 398.732 280.974 398.873C281.476 398.996 281.893 399.27 282.225 399.693C282.558 400.117 282.724 400.628 282.724 401.225C282.724 402.04 282.442 402.708 281.877 403.228C281.316 403.743 280.576 404 279.655 404H275.82ZM277.721 402.387H279.293C279.762 402.387 280.129 402.273 280.393 402.045C280.658 401.817 280.79 401.503 280.79 401.102C280.79 400.696 280.662 400.375 280.407 400.138C280.152 399.896 279.79 399.775 279.32 399.775H277.721V402.387ZM277.721 398.176H279.095C279.532 398.176 279.876 398.064 280.127 397.841C280.382 397.618 280.51 397.314 280.51 396.932C280.51 396.544 280.387 396.243 280.14 396.029C279.894 395.811 279.541 395.701 279.081 395.701H277.721V398.176ZM284.925 404V394.074H291.139V395.893H286.86V398.162H290.736V399.885H286.86V402.182H291.139V404H284.925ZM293.634 404V394.074H297.509C298.462 394.074 299.228 394.364 299.806 394.942C300.385 395.517 300.675 396.243 300.675 397.123C300.675 397.811 300.485 398.406 300.107 398.907C299.729 399.409 299.214 399.753 298.562 399.939L300.688 404H298.535L296.587 400.179H295.582V404H293.634ZM295.582 398.511H297.147C297.63 398.511 298.009 398.385 298.282 398.135C298.56 397.884 298.699 397.551 298.699 397.137C298.699 396.713 298.56 396.378 298.282 396.132C298.009 395.881 297.63 395.756 297.147 395.756H295.582V398.511ZM302.226 401.102L304.024 400.623C304.069 401.152 304.277 401.596 304.646 401.956C305.015 402.312 305.53 402.489 306.191 402.489C306.696 402.489 307.091 402.378 307.373 402.154C307.66 401.926 307.804 401.632 307.804 401.272C307.804 400.981 307.697 400.732 307.483 400.527C307.273 400.318 306.977 400.174 306.594 400.097L305.213 399.816C304.411 399.652 303.775 399.322 303.306 398.825C302.841 398.328 302.609 397.711 302.609 396.973C302.609 396.398 302.766 395.872 303.08 395.394C303.395 394.915 303.816 394.541 304.345 394.272C304.874 393.999 305.448 393.862 306.068 393.862C306.637 393.862 307.145 393.942 307.592 394.102C308.043 394.261 308.403 394.473 308.672 394.737C308.941 395.002 309.151 395.275 309.301 395.558C309.451 395.836 309.558 396.13 309.622 396.439L307.886 396.973C307.859 396.818 307.808 396.667 307.736 396.521C307.663 396.371 307.558 396.221 307.421 396.07C307.289 395.92 307.107 395.799 306.874 395.708C306.642 395.617 306.377 395.571 306.081 395.571C305.625 395.571 305.252 395.697 304.96 395.947C304.668 396.193 304.523 396.487 304.523 396.829C304.523 397.112 304.614 397.353 304.796 397.554C304.983 397.75 305.252 397.882 305.603 397.95L306.99 398.217C307.87 398.385 308.551 398.736 309.034 399.27C309.517 399.798 309.759 400.423 309.759 401.143C309.759 401.53 309.679 401.906 309.52 402.271C309.36 402.631 309.132 402.956 308.836 403.248C308.544 403.54 308.166 403.774 307.701 403.952C307.241 404.125 306.733 404.212 306.177 404.212C305.671 404.212 305.204 404.148 304.776 404.021C304.347 403.897 303.985 403.733 303.689 403.528C303.397 403.323 303.144 403.084 302.93 402.811C302.716 402.533 302.552 402.252 302.438 401.97C302.328 401.687 302.258 401.398 302.226 401.102Z" fill="#8C87A6"/>
<path d="M174.289 454C174.315 451.565 174.784 449.443 175.695 447.633C176.62 445.823 178.189 444.254 180.402 442.926L184.68 440.367C185.773 439.716 186.561 439.033 187.043 438.316C187.525 437.6 187.766 436.786 187.766 435.875C187.766 434.872 187.421 434.033 186.73 433.355C186.04 432.665 185.077 432.32 183.84 432.32C182.512 432.32 181.49 432.724 180.773 433.531C180.07 434.326 179.719 435.361 179.719 436.637C179.719 437.105 179.784 437.587 179.914 438.082L174.68 437.926C174.549 437.34 174.484 436.741 174.484 436.129C174.484 434.983 174.699 433.889 175.129 432.848C175.559 431.806 176.164 430.882 176.945 430.074C177.727 429.267 178.723 428.629 179.934 428.16C181.158 427.678 182.499 427.438 183.957 427.438C186.77 427.438 189.029 428.251 190.734 429.879C192.453 431.493 193.312 433.466 193.312 435.797C193.312 439.117 191.633 441.799 188.273 443.844L183.273 446.871C182.115 447.626 181.372 448.414 181.047 449.234H193.488V454H174.289ZM196.478 453.18C195.866 452.555 195.56 451.76 195.56 450.797C195.56 449.833 195.905 449.033 196.595 448.395C197.298 447.757 198.164 447.438 199.193 447.438C200.404 447.438 201.367 447.874 202.084 448.746C202.8 449.618 203.158 450.719 203.158 452.047C203.158 453.18 203.008 454.221 202.709 455.172C202.409 456.122 202.018 456.917 201.537 457.555C201.068 458.193 200.515 458.746 199.877 459.215C199.252 459.697 198.627 460.055 198.002 460.289C197.377 460.523 196.752 460.68 196.127 460.758V458.199C197.09 457.991 197.949 457.483 198.705 456.676C199.473 455.868 199.877 454.938 199.916 453.883C199.707 454.039 199.362 454.117 198.88 454.117C197.904 454.117 197.103 453.805 196.478 453.18ZM205.269 454C205.295 451.565 205.764 449.443 206.675 447.633C207.599 445.823 209.168 444.254 211.382 442.926L215.659 440.367C216.753 439.716 217.541 439.033 218.023 438.316C218.504 437.6 218.745 436.786 218.745 435.875C218.745 434.872 218.4 434.033 217.71 433.355C217.02 432.665 216.057 432.32 214.82 432.32C213.491 432.32 212.469 432.724 211.753 433.531C211.05 434.326 210.698 435.361 210.698 436.637C210.698 437.105 210.764 437.587 210.894 438.082L205.659 437.926C205.529 437.34 205.464 436.741 205.464 436.129C205.464 434.983 205.679 433.889 206.109 432.848C206.538 431.806 207.144 430.882 207.925 430.074C208.706 429.267 209.702 428.629 210.913 428.16C212.137 427.678 213.478 427.438 214.937 427.438C217.749 427.438 220.008 428.251 221.714 429.879C223.433 431.493 224.292 433.466 224.292 435.797C224.292 439.117 222.612 441.799 219.253 443.844L214.253 446.871C213.094 447.626 212.352 448.414 212.027 449.234H224.468V454H205.269ZM224.294 432.809V428.043H244.02V432.633C243.617 432.984 243.233 433.329 242.868 433.668C242.516 434.007 242.002 434.553 241.325 435.309C240.648 436.064 240.023 436.839 239.45 437.633C238.89 438.427 238.272 439.43 237.595 440.641C236.917 441.839 236.325 443.076 235.817 444.352C235.322 445.615 234.867 447.092 234.45 448.785C234.046 450.465 233.766 452.203 233.61 454H227.907C228.05 452.099 228.337 450.25 228.766 448.453C229.209 446.643 229.723 445.055 230.309 443.688C230.895 442.32 231.52 441.031 232.184 439.82C232.861 438.596 233.519 437.568 234.157 436.734C234.795 435.901 235.374 435.185 235.895 434.586C236.429 433.974 236.859 433.525 237.184 433.238L237.653 432.809H224.294ZM243.963 446.324L249.276 445.289C249.341 446.617 249.81 447.711 250.682 448.57C251.554 449.417 252.661 449.84 254.002 449.84C255.343 449.84 256.411 449.469 257.205 448.727C258 447.971 258.397 447.034 258.397 445.914C258.397 444.716 258.006 443.779 257.225 443.102C256.444 442.424 255.422 442.086 254.159 442.086C253.338 442.086 252.551 442.216 251.795 442.477L249.354 438.648L256.17 432.809H244.803V428.043H263.162V432.477L256.444 438.082C258.501 438.16 260.265 438.928 261.737 440.387C263.221 441.832 263.963 443.701 263.963 445.992C263.963 447.112 263.735 448.193 263.28 449.234C262.824 450.263 262.179 451.181 261.346 451.988C260.526 452.783 259.478 453.421 258.202 453.902C256.926 454.371 255.526 454.605 254.002 454.605C251.112 454.605 248.755 453.798 246.932 452.184C245.122 450.569 244.133 448.616 243.963 446.324Z" fill="#0A071B"/>
<path d="M294 436L298.243 440.243L296.828 441.657L294 438.828L291.172 441.657L289.757 440.243L294 436Z" fill="#5138EE"/>
<path d="M310.781 441.156V439.414H313.805V436.297H315.602V439.414H318.641V441.156H315.602V444.297H313.805V441.156H310.781ZM319.297 442.773V440.469L323.665 434.617H326.383V440.891H328.094V442.773H326.383V445H324.204V442.773H319.297ZM321.243 440.891H324.204V436.922L321.243 440.891ZM328.204 445C328.215 444.026 328.402 443.177 328.767 442.453C329.137 441.729 329.764 441.102 330.65 440.57L332.361 439.547C332.798 439.286 333.113 439.013 333.306 438.727C333.499 438.44 333.595 438.115 333.595 437.75C333.595 437.349 333.457 437.013 333.181 436.742C332.905 436.466 332.519 436.328 332.025 436.328C331.493 436.328 331.085 436.49 330.798 436.812C330.517 437.13 330.376 437.544 330.376 438.055C330.376 438.242 330.402 438.435 330.454 438.633L328.361 438.57C328.309 438.336 328.282 438.096 328.282 437.852C328.282 437.393 328.368 436.956 328.54 436.539C328.712 436.122 328.954 435.753 329.267 435.43C329.579 435.107 329.978 434.852 330.462 434.664C330.952 434.471 331.488 434.375 332.072 434.375C333.197 434.375 334.1 434.701 334.782 435.352C335.47 435.997 335.814 436.786 335.814 437.719C335.814 439.047 335.142 440.12 333.798 440.938L331.798 442.148C331.335 442.451 331.038 442.766 330.907 443.094H335.884V445H328.204ZM336.439 437.062C336.439 436.333 336.7 435.714 337.221 435.203C337.747 434.693 338.372 434.438 339.096 434.438C339.82 434.438 340.445 434.693 340.971 435.203C341.502 435.714 341.767 436.333 341.767 437.062C341.767 437.797 341.504 438.417 340.978 438.922C340.452 439.422 339.825 439.672 339.096 439.672C338.366 439.672 337.741 439.419 337.221 438.914C336.7 438.404 336.439 437.786 336.439 437.062ZM338.01 445L345.338 434.617H347.189L339.861 445H338.01ZM338.041 437.062C338.041 437.396 338.14 437.667 338.338 437.875C338.541 438.083 338.794 438.188 339.096 438.188C339.403 438.188 339.656 438.083 339.853 437.875C340.051 437.661 340.15 437.391 340.15 437.062C340.15 436.734 340.051 436.469 339.853 436.266C339.656 436.062 339.403 435.961 339.096 435.961C338.794 435.961 338.541 436.065 338.338 436.273C338.14 436.477 338.041 436.74 338.041 437.062ZM343.432 442.57C343.432 441.841 343.692 441.221 344.213 440.711C344.739 440.201 345.364 439.945 346.088 439.945C346.812 439.945 347.437 440.201 347.963 440.711C348.494 441.221 348.76 441.841 348.76 442.57C348.76 443.305 348.497 443.924 347.971 444.43C347.445 444.93 346.817 445.18 346.088 445.18C345.359 445.18 344.734 444.927 344.213 444.422C343.692 443.911 343.432 443.294 343.432 442.57ZM345.033 442.57C345.033 442.904 345.132 443.174 345.33 443.383C345.533 443.586 345.786 443.688 346.088 443.688C346.395 443.688 346.648 443.583 346.846 443.375C347.044 443.167 347.142 442.898 347.142 442.57C347.142 442.242 347.044 441.977 346.846 441.773C346.648 441.565 346.395 441.461 346.088 441.461C345.786 441.461 345.533 441.565 345.33 441.773C345.132 441.982 345.033 442.247 345.033 442.57Z" fill="#5138EE"/>
<circle cx="86" cy="425" r="45" fill="#5EC6E8" fill-opacity="0.08"/>
<path d="M93.7882 429.879L94.0228 430.115L94.2602 429.879C94.5387 429.6 94.8695 429.379 95.2334 429.229C95.5974 429.078 95.9875 429 96.3815 429C96.7755 429 97.1656 429.078 97.5296 429.229C97.8935 429.379 98.2243 429.6 98.5028 429.879C98.7814 430.157 99.0024 430.488 99.1532 430.852C99.3039 431.216 99.3815 431.606 99.3815 432C99.3815 432.394 99.3039 432.784 99.1532 433.148C99.0024 433.512 98.7814 433.843 98.5028 434.121L94.0228 438.6L89.5455 434.121C88.9829 433.559 88.6668 432.796 88.6668 432C88.6668 431.205 88.9829 430.441 89.5455 429.879C90.1081 429.316 90.8712 429 91.6668 429C92.4625 429 93.2255 429.316 93.7882 429.879ZM86.0002 427.667V430.333C83.8784 430.333 81.8436 431.176 80.3433 432.677C78.843 434.177 78.0002 436.212 78.0002 438.333H75.3335C75.3335 435.562 76.4121 432.9 78.3408 430.91C80.2695 428.92 82.8969 427.759 85.6668 427.672L86.0002 427.667ZM86.0002 410.333C90.4202 410.333 94.0002 413.913 94.0002 418.333C94.0009 420.404 93.199 422.393 91.763 423.884C90.327 425.375 88.3688 426.251 86.3002 426.328L86.0002 426.333C81.5802 426.333 78.0002 422.753 78.0002 418.333C77.9994 416.263 78.8014 414.274 80.2374 412.783C81.6734 411.292 83.6316 410.416 85.7002 410.339L86.0002 410.333ZM86.0002 413C83.0535 413 80.6668 415.387 80.6668 418.333C80.6668 421.28 83.0535 423.667 86.0002 423.667C88.9468 423.667 91.3335 421.28 91.3335 418.333C91.3335 415.387 88.9468 413 86.0002 413Z" fill="#5EC6E8"/>
<circle cx="503" cy="100" r="48" fill="white"/>
<circle cx="412" cy="183" r="35" fill="white"/>
<g clip-path="url(#clip0)">
<path d="M412 170C404.678 170 399 175.366 399 182.61C399 186.4 400.553 189.676 403.082 191.938C403.293 192.126 403.423 192.393 403.43 192.679L403.501 194.993C403.524 195.73 404.284 196.211 404.96 195.912L407.541 194.775C407.759 194.677 408.006 194.661 408.236 194.723C409.423 195.048 410.684 195.223 412 195.223C419.322 195.223 425 189.858 425 182.613C425 175.369 419.322 170 412 170Z" fill="url(#paint2_radial)"/>
<path d="M404.193 186.299L408.012 180.241C408.62 179.276 409.92 179.038 410.833 179.721L413.872 181.999C414.151 182.207 414.535 182.207 414.811 181.996L418.913 178.882C419.459 178.466 420.174 179.123 419.81 179.705L415.988 185.759C415.38 186.725 414.08 186.962 413.167 186.279L410.128 184.001C409.848 183.793 409.465 183.793 409.189 184.004L405.087 187.118C404.541 187.534 403.826 186.881 404.193 186.299Z" fill="white"/>
</g>
<circle cx="516" cy="264" r="35" fill="white"/>
<path d="M507.255 251.269C506.369 251.613 505.62 252.073 504.871 252.822C504.122 253.566 503.662 254.32 503.318 255.201C502.984 256.054 502.76 257.033 502.694 258.466C502.629 259.898 502.612 260.358 502.612 264.011C502.612 267.664 502.629 268.123 502.694 269.556C502.76 270.989 502.99 271.968 503.318 272.821C503.662 273.707 504.122 274.456 504.871 275.205C505.62 275.955 506.369 276.414 507.255 276.759C508.108 277.092 509.087 277.316 510.52 277.382C511.953 277.448 512.412 277.464 516.065 277.464C519.719 277.464 520.178 277.448 521.611 277.382C523.044 277.316 524.022 277.087 524.876 276.759C525.762 276.414 526.511 275.955 527.26 275.205C528.009 274.456 528.469 273.707 528.813 272.821C529.147 271.968 529.371 270.989 529.437 269.556C529.502 268.123 529.519 267.664 529.519 264.011C529.519 260.358 529.502 259.898 529.437 258.466C529.371 257.033 529.141 256.054 528.813 255.201C528.469 254.32 528.009 253.566 527.265 252.822C526.516 252.073 525.767 251.613 524.881 251.269C524.028 250.935 523.049 250.711 521.616 250.645C520.183 250.58 519.724 250.563 516.071 250.563C512.418 250.563 511.958 250.58 510.526 250.645C509.087 250.705 508.108 250.935 507.255 251.269ZM521.501 253.062C522.814 253.123 523.525 253.341 524.001 253.527C524.629 253.773 525.078 254.063 525.548 254.534C526.019 255.004 526.308 255.452 526.554 256.081C526.74 256.557 526.959 257.268 527.019 258.58C527.085 259.997 527.096 260.423 527.096 264.016C527.096 267.609 527.079 268.036 527.019 269.452C526.959 270.765 526.74 271.476 526.554 271.952C526.308 272.58 526.019 273.029 525.548 273.499C525.078 273.969 524.629 274.259 524.001 274.505C523.525 274.691 522.814 274.91 521.501 274.97C520.085 275.036 519.658 275.047 516.065 275.047C512.472 275.047 512.046 275.03 510.629 274.97C509.317 274.91 508.606 274.691 508.13 274.505C507.501 274.259 507.053 273.969 506.583 273.499C506.112 273.029 505.822 272.58 505.576 271.952C505.39 271.476 505.172 270.765 505.112 269.452C505.046 268.036 505.035 267.609 505.035 264.016C505.035 260.423 505.051 259.997 505.112 258.58C505.172 257.268 505.39 256.557 505.576 256.081C505.822 255.452 506.112 255.004 506.583 254.534C507.053 254.063 507.501 253.773 508.13 253.527C508.606 253.341 509.317 253.123 510.629 253.062C512.046 252.997 512.472 252.986 516.065 252.986C519.658 252.986 520.085 252.997 521.501 253.062Z" fill="url(#paint3_radial)"/>
<path d="M509.158 264.016C509.158 267.834 512.254 270.923 516.065 270.923C519.877 270.923 522.972 267.828 522.972 264.016C522.972 260.205 519.882 257.109 516.065 257.109C512.248 257.109 509.158 260.199 509.158 264.016ZM520.55 264.016C520.55 266.494 518.543 268.501 516.065 268.501C513.588 268.501 511.581 266.494 511.581 264.016C511.581 261.539 513.588 259.532 516.065 259.532C518.543 259.532 520.55 261.539 520.55 264.016Z" fill="url(#paint4_radial)"/>
<path d="M523.251 258.449C524.142 258.449 524.864 257.727 524.864 256.836C524.864 255.945 524.142 255.223 523.251 255.223C522.36 255.223 521.638 255.945 521.638 256.836C521.638 257.727 522.36 258.449 523.251 258.449Z" fill="#654C9F"/>
<path d="M519.937 89.4265C518.665 89.9894 517.315 90.359 515.934 90.5232C517.39 89.6523 518.48 88.2816 519 86.6665C517.634 87.4799 516.135 88.0499 514.574 88.3582C513.525 87.2358 512.134 86.4915 510.619 86.2409C509.103 85.9902 507.547 86.2474 506.192 86.9723C504.838 87.6972 503.761 88.8494 503.129 90.2495C502.497 91.6497 502.345 93.2195 502.697 94.7149C499.926 94.576 497.214 93.8557 494.739 92.601C492.264 91.3462 490.081 89.585 488.33 87.4315C487.711 88.4956 487.385 89.7053 487.387 90.9365C487.387 93.3532 488.617 95.4882 490.487 96.7382C489.38 96.7034 488.298 96.4045 487.33 95.8665V95.9532C487.331 97.5627 487.888 99.1226 488.907 100.368C489.926 101.614 491.344 102.469 492.922 102.788C491.895 103.067 490.818 103.108 489.772 102.908C490.217 104.294 491.084 105.505 492.251 106.373C493.419 107.242 494.829 107.723 496.284 107.75C494.838 108.885 493.182 109.725 491.412 110.22C489.641 110.715 487.791 110.857 485.965 110.637C489.151 112.686 492.86 113.773 496.649 113.77C509.47 113.77 516.482 103.148 516.482 93.9365C516.482 93.6365 516.474 93.3332 516.46 93.0365C517.825 92.0502 519.003 90.8282 519.939 89.4282L519.937 89.4265Z" fill="#1CB7EB"/>
<defs>
<linearGradient id="paint0_linear" x1="166" y1="137" x2="166" y2="220" gradientUnits="userSpaceOnUse">
<stop stop-color="#5138EE"/>
<stop offset="1" stop-color="#5138EE" stop-opacity="0"/>
</linearGradient>
<linearGradient id="paint1_linear" x1="432.5" y1="404" x2="432.5" y2="446" gradientUnits="userSpaceOnUse">
<stop stop-color="#5138EE"/>
<stop offset="1" stop-color="#5138EE" stop-opacity="0"/>
</linearGradient>
<radialGradient id="paint2_radial" cx="0" cy="0" r="1" gradientUnits="userSpaceOnUse" gradientTransform="translate(404.005 195.858) scale(28.3296)">
<stop stop-color="#0099FF"/>
<stop offset="0.6098" stop-color="#A033FF"/>
<stop offset="0.9348" stop-color="#FF5280"/>
<stop offset="1" stop-color="#FF7061"/>
</radialGradient>
<radialGradient id="paint3_radial" cx="0" cy="0" r="1" gradientUnits="userSpaceOnUse" gradientTransform="translate(503.102 275.001) rotate(-3.00009) scale(38.9 33.0646)">
<stop stop-color="#FED576"/>
<stop offset="0.2634" stop-color="#F47133"/>
<stop offset="0.6091" stop-color="#BC3081"/>
<stop offset="1" stop-color="#4C63D2"/>
</radialGradient>
<radialGradient id="paint4_radial" cx="0" cy="0" r="1" gradientUnits="userSpaceOnUse" gradientTransform="translate(509.409 269.657) rotate(-3.00009) scale(19.9757 16.9791)">
<stop stop-color="#FED576"/>
<stop offset="0.2634" stop-color="#F47133"/>
<stop offset="0.6091" stop-color="#BC3081"/>
<stop offset="1" stop-color="#4C63D2"/>
</radialGradient>
<clipPath id="clip0">
<rect width="26" height="26" fill="white" transform="translate(399 170)"/>
</clipPath>
</defs>
</svg>
