<svg width="260" height="154" viewBox="0 0 260 154" fill="none" xmlns="http://www.w3.org/2000/svg">
<rect width="260" height="154" fill="white"/>
<path d="M65.6992 39V24.8203H68.7559L75.2012 34.8789V24.8203H77.6035V39H75.1035L68.1016 28.2578V39H65.6992ZM79.1961 34.0781C79.1961 33.3294 79.3263 32.6328 79.5867 31.9883C79.8536 31.3372 80.2052 30.7936 80.6414 30.3574C81.0776 29.9212 81.5822 29.5794 82.1551 29.332C82.728 29.0846 83.3204 28.9609 83.9324 28.9609C85.4168 28.9609 86.5822 29.4167 87.4285 30.3281C88.2749 31.2396 88.698 32.4701 88.698 34.0195C88.698 34.4232 88.6753 34.6706 88.6297 34.7617H81.5105C81.5366 35.4974 81.8068 36.1061 82.3211 36.5879C82.8354 37.0632 83.4539 37.3008 84.1766 37.3008C85.4201 37.3008 86.2339 36.7344 86.618 35.6016L88.5711 36.2168C88.2977 37.1152 87.7768 37.8542 87.0086 38.4336C86.2404 39.013 85.2964 39.3027 84.1766 39.3027C83.5125 39.3027 82.881 39.1855 82.282 38.9512C81.6831 38.7103 81.1525 38.3717 80.6902 37.9355C80.2345 37.4993 79.8699 36.9492 79.5965 36.2852C79.3296 35.6146 79.1961 34.8789 79.1961 34.0781ZM81.5691 33.0625H86.3543C86.3348 32.4505 86.1199 31.9395 85.7098 31.5293C85.2996 31.1126 84.7137 30.9043 83.952 30.9043C83.2618 30.9043 82.702 31.1224 82.2723 31.5586C81.8491 31.9948 81.6147 32.4961 81.5691 33.0625ZM88.7379 29.2637H91.2184L93.191 36.002L95.4957 29.2637H97.898L100.193 36.002L102.136 29.2637H104.49L101.375 39H99.0504L96.6383 31.998L94.275 39H91.8922L88.7379 29.2637ZM109.823 39V24.8203H113.027L117.626 35.6406L122.167 24.8203H125.429V39H123.046V28.5605L118.622 39H116.542L112.167 28.5996V39H109.823ZM127.031 34.0781C127.031 33.3294 127.161 32.6328 127.422 31.9883C127.689 31.3372 128.04 30.7936 128.477 30.3574C128.913 29.9212 129.417 29.5794 129.99 29.332C130.563 29.0846 131.156 28.9609 131.768 28.9609C133.252 28.9609 134.417 29.4167 135.264 30.3281C136.11 31.2396 136.533 32.4701 136.533 34.0195C136.533 34.4232 136.51 34.6706 136.465 34.7617H129.346C129.372 35.4974 129.642 36.1061 130.156 36.5879C130.671 37.0632 131.289 37.3008 132.012 37.3008C133.255 37.3008 134.069 36.7344 134.453 35.6016L136.406 36.2168C136.133 37.1152 135.612 37.8542 134.844 38.4336C134.076 39.013 133.132 39.3027 132.012 39.3027C131.348 39.3027 130.716 39.1855 130.117 38.9512C129.518 38.7103 128.988 38.3717 128.525 37.9355C128.07 37.4993 127.705 36.9492 127.432 36.2852C127.165 35.6146 127.031 34.8789 127.031 34.0781ZM129.404 33.0625H134.189C134.17 32.4505 133.955 31.9395 133.545 31.5293C133.135 31.1126 132.549 30.9043 131.787 30.9043C131.097 30.9043 130.537 31.1224 130.107 31.5586C129.684 31.9948 129.45 32.4961 129.404 33.0625ZM137.091 36.3633L139.102 35.7969C139.141 36.2656 139.333 36.6595 139.679 36.9785C140.024 37.2975 140.492 37.457 141.085 37.457C141.54 37.457 141.899 37.3496 142.159 37.1348C142.419 36.9199 142.55 36.6562 142.55 36.3438C142.55 36.0768 142.452 35.849 142.257 35.6602C142.068 35.4714 141.785 35.3379 141.407 35.2598L139.962 34.9375C139.122 34.7487 138.474 34.4004 138.018 33.8926C137.569 33.3848 137.345 32.7858 137.345 32.0957C137.345 31.2363 137.69 30.5007 138.38 29.8887C139.076 29.2702 139.926 28.9609 140.929 28.9609C141.449 28.9609 141.921 29.026 142.345 29.1562C142.774 29.2865 143.123 29.4492 143.389 29.6445C143.656 29.8333 143.884 30.0547 144.073 30.3086C144.268 30.5625 144.412 30.8001 144.503 31.0215C144.594 31.2428 144.656 31.4609 144.688 31.6758L142.725 32.2422C142.706 32.0859 142.66 31.9297 142.589 31.7734C142.517 31.6172 142.416 31.4609 142.286 31.3047C142.156 31.1484 141.973 31.0215 141.739 30.9238C141.505 30.8262 141.235 30.7773 140.929 30.7773C140.525 30.7773 140.19 30.888 139.923 31.1094C139.656 31.3307 139.522 31.5944 139.522 31.9004C139.522 32.1543 139.61 32.3724 139.786 32.5547C139.968 32.737 140.209 32.8574 140.509 32.916L141.983 33.2188C142.888 33.4141 143.582 33.7754 144.063 34.3027C144.545 34.8236 144.786 35.4486 144.786 36.1777C144.786 36.5618 144.708 36.9362 144.552 37.3008C144.395 37.6589 144.171 37.9909 143.878 38.2969C143.585 38.5964 143.197 38.8372 142.716 39.0195C142.234 39.2083 141.697 39.3027 141.104 39.3027C140.44 39.3027 139.845 39.2018 139.317 39C138.79 38.8047 138.373 38.5508 138.067 38.2383C137.768 37.9258 137.537 37.6133 137.374 37.3008C137.218 36.9818 137.123 36.6693 137.091 36.3633ZM145.431 36.3633L147.443 35.7969C147.482 36.2656 147.674 36.6595 148.019 36.9785C148.364 37.2975 148.833 37.457 149.425 37.457C149.881 37.457 150.239 37.3496 150.5 37.1348C150.76 36.9199 150.89 36.6562 150.89 36.3438C150.89 36.0768 150.793 35.849 150.597 35.6602C150.408 35.4714 150.125 35.3379 149.748 35.2598L148.302 34.9375C147.463 34.7487 146.815 34.4004 146.359 33.8926C145.91 33.3848 145.685 32.7858 145.685 32.0957C145.685 31.2363 146.03 30.5007 146.72 29.8887C147.417 29.2702 148.267 28.9609 149.269 28.9609C149.79 28.9609 150.262 29.026 150.685 29.1562C151.115 29.2865 151.463 29.4492 151.73 29.6445C151.997 29.8333 152.225 30.0547 152.414 30.3086C152.609 30.5625 152.752 30.8001 152.843 31.0215C152.935 31.2428 152.996 31.4609 153.029 31.6758L151.066 32.2422C151.046 32.0859 151.001 31.9297 150.929 31.7734C150.858 31.6172 150.757 31.4609 150.627 31.3047C150.496 31.1484 150.314 31.0215 150.08 30.9238C149.845 30.8262 149.575 30.7773 149.269 30.7773C148.865 30.7773 148.53 30.888 148.263 31.1094C147.996 31.3307 147.863 31.5944 147.863 31.9004C147.863 32.1543 147.951 32.3724 148.127 32.5547C148.309 32.737 148.55 32.8574 148.849 32.916L150.324 33.2188C151.229 33.4141 151.922 33.7754 152.404 34.3027C152.886 34.8236 153.127 35.4486 153.127 36.1777C153.127 36.5618 153.048 36.9362 152.892 37.3008C152.736 37.6589 152.511 37.9909 152.218 38.2969C151.925 38.5964 151.538 38.8372 151.056 39.0195C150.574 39.2083 150.037 39.3027 149.445 39.3027C148.781 39.3027 148.185 39.2018 147.658 39C147.13 38.8047 146.714 38.5508 146.408 38.2383C146.108 37.9258 145.877 37.6133 145.714 37.3008C145.558 36.9818 145.464 36.6693 145.431 36.3633ZM153.889 36.3633C153.889 35.5299 154.159 34.8659 154.7 34.3711C155.24 33.8698 155.95 33.554 156.829 33.4238L159.329 33.043C159.81 32.9779 160.051 32.7435 160.051 32.3398C160.051 31.9036 159.898 31.5488 159.592 31.2754C159.286 30.9954 158.827 30.8555 158.215 30.8555C157.629 30.8555 157.161 31.0215 156.809 31.3535C156.464 31.6855 156.265 32.1087 156.213 32.623L154.094 32.1445C154.185 31.2591 154.602 30.5072 155.344 29.8887C156.086 29.2702 157.034 28.9609 158.186 28.9609C158.909 28.9609 159.543 29.0586 160.09 29.2539C160.637 29.4492 161.07 29.7194 161.389 30.0645C161.708 30.403 161.942 30.7871 162.092 31.2168C162.248 31.64 162.327 32.1022 162.327 32.6035V37.4375C162.327 38.056 162.369 38.5768 162.454 39H160.295C160.224 38.7852 160.188 38.3717 160.188 37.7598C159.921 38.1895 159.534 38.554 159.026 38.8535C158.524 39.153 157.912 39.3027 157.19 39.3027C156.207 39.3027 155.409 39.0163 154.797 38.4434C154.192 37.8639 153.889 37.1706 153.889 36.3633ZM156.213 36.2168C156.213 36.5684 156.337 36.8678 156.584 37.1152C156.838 37.3561 157.187 37.4766 157.629 37.4766C157.968 37.4766 158.277 37.4342 158.557 37.3496C158.837 37.2585 159.091 37.1217 159.319 36.9395C159.553 36.7507 159.732 36.4902 159.856 36.1582C159.986 35.8197 160.051 35.4193 160.051 34.957V34.5176L157.512 34.8984C157.121 34.9635 156.806 35.1068 156.565 35.3281C156.33 35.543 156.213 35.8392 156.213 36.2168ZM163.616 39.5371L165.755 38.9805C165.833 39.5924 166.094 40.0938 166.536 40.4844C166.986 40.8815 167.539 41.0801 168.196 41.0801C170.039 41.0801 170.96 40.1068 170.96 38.1602V37.1445C170.732 37.5547 170.371 37.8932 169.876 38.1602C169.388 38.4271 168.808 38.5605 168.138 38.5605C166.836 38.5605 165.758 38.1146 164.905 37.2227C164.059 36.3307 163.636 35.1979 163.636 33.8242C163.636 32.9583 163.821 32.1673 164.193 31.4512C164.57 30.7285 165.104 30.1523 165.794 29.7227C166.484 29.293 167.265 29.0781 168.138 29.0781C168.861 29.0781 169.463 29.2083 169.945 29.4688C170.433 29.7292 170.791 30.0742 171.019 30.5039V29.2637H173.255V38.082C173.255 38.6159 173.2 39.1204 173.089 39.5957C172.978 40.0775 172.796 40.5332 172.542 40.9629C172.295 41.3991 171.982 41.7734 171.605 42.0859C171.227 42.3984 170.752 42.6458 170.179 42.8281C169.606 43.0104 168.965 43.1016 168.255 43.1016C166.999 43.1016 165.944 42.7598 165.091 42.0762C164.245 41.3926 163.753 40.5462 163.616 39.5371ZM165.98 33.8242C165.98 34.6706 166.211 35.3411 166.673 35.8359C167.135 36.3307 167.751 36.5781 168.519 36.5781C169.267 36.5781 169.87 36.3275 170.325 35.8262C170.788 35.3249 171.019 34.6576 171.019 33.8242C171.019 33.0039 170.784 32.3431 170.316 31.8418C169.847 31.334 169.248 31.0801 168.519 31.0801C167.77 31.0801 167.158 31.334 166.683 31.8418C166.214 32.3431 165.98 33.0039 165.98 33.8242ZM174.535 34.0781C174.535 33.3294 174.665 32.6328 174.926 31.9883C175.193 31.3372 175.544 30.7936 175.98 30.3574C176.417 29.9212 176.921 29.5794 177.494 29.332C178.067 29.0846 178.66 28.9609 179.271 28.9609C180.756 28.9609 181.921 29.4167 182.768 30.3281C183.614 31.2396 184.037 32.4701 184.037 34.0195C184.037 34.4232 184.014 34.6706 183.969 34.7617H176.85C176.876 35.4974 177.146 36.1061 177.66 36.5879C178.174 37.0632 178.793 37.3008 179.516 37.3008C180.759 37.3008 181.573 36.7344 181.957 35.6016L183.91 36.2168C183.637 37.1152 183.116 37.8542 182.348 38.4336C181.579 39.013 180.635 39.3027 179.516 39.3027C178.852 39.3027 178.22 39.1855 177.621 38.9512C177.022 38.7103 176.492 38.3717 176.029 37.9355C175.574 37.4993 175.209 36.9492 174.936 36.2852C174.669 35.6146 174.535 34.8789 174.535 34.0781ZM176.908 33.0625H181.693C181.674 32.4505 181.459 31.9395 181.049 31.5293C180.639 31.1126 180.053 30.9043 179.291 30.9043C178.601 30.9043 178.041 31.1224 177.611 31.5586C177.188 31.9948 176.954 32.4961 176.908 33.0625ZM186.147 38.7168C185.867 38.4303 185.727 38.0853 185.727 37.6816C185.727 37.278 185.867 36.9297 186.147 36.6367C186.434 36.3438 186.776 36.1973 187.173 36.1973C187.583 36.1973 187.931 36.3438 188.218 36.6367C188.504 36.9297 188.647 37.278 188.647 37.6816C188.647 38.0853 188.504 38.4303 188.218 38.7168C187.931 38.9967 187.583 39.1367 187.173 39.1367C186.776 39.1367 186.434 38.9967 186.147 38.7168ZM185.766 24.8203H188.589L188.032 34.8008H186.352L185.766 24.8203Z" fill="#0A071B"/>
<circle cx="36" cy="32" r="10" fill="#5138EE" fill-opacity="0.06"/>
<circle cx="36" cy="32" r="3" fill="#5138EE"/>
<rect opacity="0.4" x="24" y="70" width="170" height="12" fill="#E1DFEC"/>
<rect opacity="0.4" x="24" y="94" width="211" height="12" fill="#E1DFEC"/>
<rect opacity="0.4" x="24" y="118" width="144" height="12" fill="#E1DFEC"/>
</svg>
