<svg width="1060" height="392" viewBox="0 0 1060 392" fill="none" xmlns="http://www.w3.org/2000/svg">
<circle cx="73.5" cy="69.5" r="1.5" fill="#3521B5"/>
<circle cx="73.5" cy="95.5" r="1.5" fill="#3521B5"/>
<circle cx="73.5" cy="121.5" r="1.5" fill="#3521B5"/>
<circle cx="73.5" cy="147.5" r="1.5" fill="#3521B5"/>
<circle cx="73.5" cy="173.5" r="1.5" fill="#3521B5"/>
<circle cx="73.5" cy="199.5" r="1.5" fill="#3521B5"/>
<circle cx="107.5" cy="69.5" r="1.5" fill="#3521B5"/>
<circle cx="107.5" cy="95.5" r="1.5" fill="#3521B5"/>
<circle cx="107.5" cy="121.5" r="1.5" fill="#3521B5"/>
<circle cx="107.5" cy="147.5" r="1.5" fill="#3521B5"/>
<circle cx="107.5" cy="173.5" r="1.5" fill="#3521B5"/>
<circle cx="107.5" cy="199.5" r="1.5" fill="#3521B5"/>
<circle cx="141.5" cy="69.5" r="1.5" fill="#3521B5"/>
<circle cx="141.5" cy="95.5" r="1.5" fill="#3521B5"/>
<circle cx="141.5" cy="121.5" r="1.5" fill="#3521B5"/>
<circle cx="141.5" cy="147.5" r="1.5" fill="#3521B5"/>
<circle cx="141.5" cy="173.5" r="1.5" fill="#3521B5"/>
<circle cx="141.5" cy="199.5" r="1.5" fill="#3521B5"/>
<circle cx="175.5" cy="69.5" r="1.5" fill="#3521B5"/>
<circle cx="175.5" cy="95.5" r="1.5" fill="#3521B5"/>
<circle cx="175.5" cy="121.5" r="1.5" fill="#3521B5"/>
<circle cx="175.5" cy="147.5" r="1.5" fill="#3521B5"/>
<circle cx="175.5" cy="173.5" r="1.5" fill="#3521B5"/>
<circle cx="175.5" cy="199.5" r="1.5" fill="#3521B5"/>
<circle cx="209.5" cy="69.5" r="1.5" fill="#3521B5"/>
<circle cx="209.5" cy="95.5" r="1.5" fill="#3521B5"/>
<circle cx="209.5" cy="121.5" r="1.5" fill="#3521B5"/>
<circle cx="209.5" cy="147.5" r="1.5" fill="#3521B5"/>
<circle cx="209.5" cy="173.5" r="1.5" fill="#3521B5"/>
<circle cx="209.5" cy="199.5" r="1.5" fill="#3521B5"/>
<circle cx="243.5" cy="69.5" r="1.5" fill="#3521B5"/>
<circle cx="243.5" cy="95.5" r="1.5" fill="#3521B5"/>
<circle cx="243.5" cy="121.5" r="1.5" fill="#3521B5"/>
<circle cx="243.5" cy="147.5" r="1.5" fill="#3521B5"/>
<circle cx="243.5" cy="173.5" r="1.5" fill="#3521B5"/>
<circle cx="243.5" cy="199.5" r="1.5" fill="#3521B5"/>
<circle cx="277.5" cy="69.5" r="1.5" fill="#3521B5"/>
<circle cx="277.5" cy="95.5" r="1.5" fill="#3521B5"/>
<circle cx="277.5" cy="121.5" r="1.5" fill="#3521B5"/>
<circle cx="277.5" cy="147.5" r="1.5" fill="#3521B5"/>
<circle cx="277.5" cy="173.5" r="1.5" fill="#3521B5"/>
<circle cx="277.5" cy="199.5" r="1.5" fill="#3521B5"/>
<circle cx="311.5" cy="69.5" r="1.5" fill="#3521B5"/>
<circle cx="311.5" cy="95.5" r="1.5" fill="#3521B5"/>
<circle cx="311.5" cy="121.5" r="1.5" fill="#3521B5"/>
<circle cx="311.5" cy="147.5" r="1.5" fill="#3521B5"/>
<circle cx="311.5" cy="173.5" r="1.5" fill="#3521B5"/>
<circle cx="311.5" cy="199.5" r="1.5" fill="#3521B5"/>
<path d="M856 44H898.989V87.0001L856 44Z" fill="#3521B5"/>
<path d="M898.987 44H941.992V87.0001L898.987 44Z" fill="#3521B5"/>
<path d="M941.992 44H984.996V87.0001L941.992 44Z" fill="#3521B5"/>
<path d="M984.996 44H1028V87.0001L984.996 44Z" fill="#3521B5"/>
<path d="M856 87H898.989V130L856 87Z" fill="#3521B5"/>
<path d="M898.987 87H941.992V130L898.987 87Z" fill="#3521B5"/>
<path d="M941.992 87H984.996V130L941.992 87Z" fill="#3521B5"/>
<path d="M984.996 87H1028V130L984.996 87Z" fill="#3521B5"/>
</svg>
