<svg xmlns="http://www.w3.org/2000/svg" width="17.286" height="19.755" viewBox="0 0 17.286 19.755">
  <defs>
    <style>
      .cls-1 {
        fill: #8c87a6;
      }
    </style>
  </defs>
  <path id="discord" class="cls-1" d="M9.855,10.287h0Zm3.605,0a1.1,1.1,0,1,0,1.007,1.1,1.052,1.052,0,0,0-1.007-1.1ZM18.261,2H5.025A2.03,2.03,0,0,0,3,4.035V17.389a2.03,2.03,0,0,0,2.025,2.035h11.2L15.7,17.6l1.264,1.175,1.2,1.106,2.124,1.877V4.035A2.03,2.03,0,0,0,18.261,2ZM14.448,14.9h0s-.356-.425-.652-.8a3.117,3.117,0,0,0,1.788-1.175,5.645,5.645,0,0,1-1.136.583,6.5,6.5,0,0,1-1.432.425,6.92,6.92,0,0,1-2.558-.01A8.3,8.3,0,0,1,9.005,13.5a5.8,5.8,0,0,1-.721-.336c-.03-.02-.059-.03-.089-.049a.136.136,0,0,1-.04-.03c-.178-.1-.277-.168-.277-.168A3.073,3.073,0,0,0,9.608,14.08c-.3.375-.662.82-.662.82a3.581,3.581,0,0,1-3.013-1.5A13.228,13.228,0,0,1,7.356,7.64,4.885,4.885,0,0,1,10.131,6.6l.1.119a6.662,6.662,0,0,0-2.6,1.294s.217-.119.583-.286a7.415,7.415,0,0,1,2.242-.622.965.965,0,0,1,.168-.02,8.357,8.357,0,0,1,2-.02,8.051,8.051,0,0,1,2.973.948,6.574,6.574,0,0,0-2.459-1.254l.138-.158A4.884,4.884,0,0,1,16.048,7.64,13.227,13.227,0,0,1,17.471,13.4a3.61,3.61,0,0,1-3.023,1.5Z" transform="translate(-3 -2)"/>
</svg>
