<svg xmlns="http://www.w3.org/2000/svg" width="20.028" height="19.755" viewBox="0 0 20.028 19.755">
  <defs>
    <style>
      .cls-1 {
        fill: #8c87a6;
      }
    </style>
  </defs>
  <path id="github" class="cls-1" d="M14.2,20.782h-.091l-.091-.091V17.869a3.118,3.118,0,0,0-.364-1.639c2.094-.364,4.37-1.457,4.37-5.553a4.7,4.7,0,0,0-1-2.913,4.458,4.458,0,0,0-.182-2.822l-.273-.273a.942.942,0,0,0-.364-.091A5.031,5.031,0,0,0,13.472,5.67,18.407,18.407,0,0,0,11.014,5.4a11.516,11.516,0,0,0-2.549.273,5.212,5.212,0,0,0-2.731-1c-.182,0-.273.091-.364.091a.41.41,0,0,0-.273.273,4.458,4.458,0,0,0-.182,2.822,4.7,4.7,0,0,0-1,2.913c0,4.006,2.367,5.1,4.37,5.553a6.273,6.273,0,0,0-.273.728,1.818,1.818,0,0,1-.819.182,1.369,1.369,0,0,1-1-.364L6.1,16.776c-.091-.091-.091-.182-.182-.182L5.825,16.5l-.091-.091a2.588,2.588,0,0,0-2-1.275.909.909,0,0,0-.91.455c-.182.455.364.819.637,1a2.257,2.257,0,0,1,.91,1.275,2.841,2.841,0,0,0,2.913,1.821h.637v1.275l-.091.091h0A10.6,10.6,0,0,1,1,11.314a10.014,10.014,0,1,1,13.2,9.468Z" transform="translate(-1 -1.3)"/>
</svg>
