<svg width="1440" height="560" viewBox="0 0 1440 560" fill="none" xmlns="http://www.w3.org/2000/svg">
<g clip-path="url(#clip0)">
<circle cx="411.5" cy="65.5" r="1.5" fill="#3521B5"/>
<circle cx="411.5" cy="91.5" r="1.5" fill="#3521B5"/>
<circle cx="411.5" cy="117.5" r="1.5" fill="#3521B5"/>
<circle cx="411.5" cy="143.5" r="1.5" fill="#3521B5"/>
<circle cx="411.5" cy="169.5" r="1.5" fill="#3521B5"/>
<circle cx="411.5" cy="195.5" r="1.5" fill="#3521B5"/>
<circle cx="445.5" cy="65.5" r="1.5" fill="#3521B5"/>
<circle cx="445.5" cy="91.5" r="1.5" fill="#3521B5"/>
<circle cx="445.5" cy="117.5" r="1.5" fill="#3521B5"/>
<circle cx="445.5" cy="143.5" r="1.5" fill="#3521B5"/>
<circle cx="445.5" cy="169.5" r="1.5" fill="#3521B5"/>
<circle cx="445.5" cy="195.5" r="1.5" fill="#3521B5"/>
<circle cx="479.5" cy="65.5" r="1.5" fill="#3521B5"/>
<circle cx="479.5" cy="91.5" r="1.5" fill="#3521B5"/>
<circle cx="479.5" cy="117.5" r="1.5" fill="#3521B5"/>
<circle cx="479.5" cy="143.5" r="1.5" fill="#3521B5"/>
<circle cx="479.5" cy="169.5" r="1.5" fill="#3521B5"/>
<circle cx="479.5" cy="195.5" r="1.5" fill="#3521B5"/>
<circle cx="513.5" cy="65.5" r="1.5" fill="#3521B5"/>
<circle cx="513.5" cy="91.5" r="1.5" fill="#3521B5"/>
<circle cx="513.5" cy="117.5" r="1.5" fill="#3521B5"/>
<circle cx="513.5" cy="143.5" r="1.5" fill="#3521B5"/>
<circle cx="513.5" cy="169.5" r="1.5" fill="#3521B5"/>
<circle cx="513.5" cy="195.5" r="1.5" fill="#3521B5"/>
<circle cx="547.5" cy="65.5" r="1.5" fill="#3521B5"/>
<circle cx="547.5" cy="91.5" r="1.5" fill="#3521B5"/>
<circle cx="547.5" cy="117.5" r="1.5" fill="#3521B5"/>
<circle cx="547.5" cy="143.5" r="1.5" fill="#3521B5"/>
<circle cx="547.5" cy="169.5" r="1.5" fill="#3521B5"/>
<circle cx="547.5" cy="195.5" r="1.5" fill="#3521B5"/>
<circle cx="581.5" cy="65.5" r="1.5" fill="#3521B5"/>
<circle cx="581.5" cy="91.5" r="1.5" fill="#3521B5"/>
<circle cx="581.5" cy="117.5" r="1.5" fill="#3521B5"/>
<circle cx="581.5" cy="143.5" r="1.5" fill="#3521B5"/>
<circle cx="581.5" cy="169.5" r="1.5" fill="#3521B5"/>
<circle cx="581.5" cy="195.5" r="1.5" fill="#3521B5"/>
<circle cx="615.5" cy="65.5" r="1.5" fill="#3521B5"/>
<circle cx="615.5" cy="91.5" r="1.5" fill="#3521B5"/>
<circle cx="615.5" cy="117.5" r="1.5" fill="#3521B5"/>
<circle cx="615.5" cy="143.5" r="1.5" fill="#3521B5"/>
<circle cx="615.5" cy="169.5" r="1.5" fill="#3521B5"/>
<circle cx="615.5" cy="195.5" r="1.5" fill="#3521B5"/>
<circle cx="649.5" cy="65.5" r="1.5" fill="#3521B5"/>
<circle cx="649.5" cy="91.5" r="1.5" fill="#3521B5"/>
<circle cx="649.5" cy="117.5" r="1.5" fill="#3521B5"/>
<circle cx="649.5" cy="143.5" r="1.5" fill="#3521B5"/>
<circle cx="649.5" cy="169.5" r="1.5" fill="#3521B5"/>
<circle cx="649.5" cy="195.5" r="1.5" fill="#3521B5"/>
<path d="M1070 87H1124.99V142L1070 87Z" fill="#3521B5"/>
<path d="M1124.99 87H1179.99V142L1124.99 87Z" fill="#3521B5"/>
<path d="M1179.99 87H1235V142L1179.99 87Z" fill="#3521B5"/>
<path d="M1235 87H1290V142L1235 87Z" fill="#3521B5"/>
<path d="M1070 142H1124.99V197L1070 142Z" fill="#3521B5"/>
<path d="M1124.99 142H1179.99V197L1124.99 142Z" fill="#3521B5"/>
<path d="M1179.99 142H1235V197L1179.99 142Z" fill="#3521B5"/>
<path d="M1235 142H1290V197L1235 142Z" fill="#3521B5"/>
<path d="M1440 283V653H1070C1070 554.87 1108.98 460.759 1178.37 391.37C1247.76 321.982 1341.87 283 1440 283V283Z" fill="#3521B5"/>
<path d="M-3.93391e-06 171V-129H300C300 -49.4351 268.393 26.8711 212.132 83.132C155.871 139.393 79.5649 171 -3.93391e-06 171V171Z" fill="#3521B5"/>
</g>
<defs>
<clipPath id="clip0">
<rect width="1440" height="560" fill="white"/>
</clipPath>
</defs>
</svg>
