<svg width="1440" height="376" viewBox="0 0 1440 376" fill="none" xmlns="http://www.w3.org/2000/svg">
<path d="M733 316C748.913 316 764.174 322.321 775.426 333.574C786.679 344.826 793 360.087 793 376H853C853 344.174 840.357 313.651 817.853 291.147C795.348 268.643 764.826 256 733 256C701.174 256 670.652 268.643 648.147 291.147C625.643 313.651 613 344.174 613 376H673C673 360.087 679.321 344.826 690.574 333.574C701.826 322.321 717.087 316 733 316V316Z" fill="#3521B5"/>
<circle cx="81.5" cy="179.5" r="1.5" fill="#3521B5"/>
<circle cx="81.5" cy="205.5" r="1.5" fill="#3521B5"/>
<circle cx="81.5" cy="231.5" r="1.5" fill="#3521B5"/>
<circle cx="81.5" cy="257.5" r="1.5" fill="#3521B5"/>
<circle cx="81.5" cy="283.5" r="1.5" fill="#3521B5"/>
<circle cx="81.5" cy="309.5" r="1.5" fill="#3521B5"/>
<circle cx="115.5" cy="179.5" r="1.5" fill="#3521B5"/>
<circle cx="115.5" cy="205.5" r="1.5" fill="#3521B5"/>
<circle cx="115.5" cy="231.5" r="1.5" fill="#3521B5"/>
<circle cx="115.5" cy="257.5" r="1.5" fill="#3521B5"/>
<circle cx="115.5" cy="283.5" r="1.5" fill="#3521B5"/>
<circle cx="115.5" cy="309.5" r="1.5" fill="#3521B5"/>
<circle cx="149.5" cy="179.5" r="1.5" fill="#3521B5"/>
<circle cx="149.5" cy="205.5" r="1.5" fill="#3521B5"/>
<circle cx="149.5" cy="231.5" r="1.5" fill="#3521B5"/>
<circle cx="149.5" cy="257.5" r="1.5" fill="#3521B5"/>
<circle cx="149.5" cy="283.5" r="1.5" fill="#3521B5"/>
<circle cx="149.5" cy="309.5" r="1.5" fill="#3521B5"/>
<circle cx="183.5" cy="179.5" r="1.5" fill="#3521B5"/>
<circle cx="183.5" cy="205.5" r="1.5" fill="#3521B5"/>
<circle cx="183.5" cy="231.5" r="1.5" fill="#3521B5"/>
<circle cx="183.5" cy="257.5" r="1.5" fill="#3521B5"/>
<circle cx="183.5" cy="283.5" r="1.5" fill="#3521B5"/>
<circle cx="183.5" cy="309.5" r="1.5" fill="#3521B5"/>
<circle cx="217.5" cy="179.5" r="1.5" fill="#3521B5"/>
<circle cx="217.5" cy="205.5" r="1.5" fill="#3521B5"/>
<circle cx="217.5" cy="231.5" r="1.5" fill="#3521B5"/>
<circle cx="217.5" cy="257.5" r="1.5" fill="#3521B5"/>
<circle cx="217.5" cy="283.5" r="1.5" fill="#3521B5"/>
<circle cx="217.5" cy="309.5" r="1.5" fill="#3521B5"/>
<circle cx="251.5" cy="179.5" r="1.5" fill="#3521B5"/>
<circle cx="251.5" cy="205.5" r="1.5" fill="#3521B5"/>
<circle cx="251.5" cy="231.5" r="1.5" fill="#3521B5"/>
<circle cx="251.5" cy="257.5" r="1.5" fill="#3521B5"/>
<circle cx="251.5" cy="283.5" r="1.5" fill="#3521B5"/>
<circle cx="251.5" cy="309.5" r="1.5" fill="#3521B5"/>
<circle cx="285.5" cy="179.5" r="1.5" fill="#3521B5"/>
<circle cx="285.5" cy="205.5" r="1.5" fill="#3521B5"/>
<circle cx="285.5" cy="231.5" r="1.5" fill="#3521B5"/>
<circle cx="285.5" cy="257.5" r="1.5" fill="#3521B5"/>
<circle cx="285.5" cy="283.5" r="1.5" fill="#3521B5"/>
<circle cx="285.5" cy="309.5" r="1.5" fill="#3521B5"/>
<circle cx="319.5" cy="179.5" r="1.5" fill="#3521B5"/>
<circle cx="319.5" cy="205.5" r="1.5" fill="#3521B5"/>
<circle cx="319.5" cy="231.5" r="1.5" fill="#3521B5"/>
<circle cx="319.5" cy="257.5" r="1.5" fill="#3521B5"/>
<circle cx="319.5" cy="283.5" r="1.5" fill="#3521B5"/>
<circle cx="319.5" cy="309.5" r="1.5" fill="#3521B5"/>
<path d="M1070 87H1124.99V142L1070 87Z" fill="#3521B5"/>
<path d="M1124.99 87H1179.99V142L1124.99 87Z" fill="#3521B5"/>
<path d="M1179.99 87H1235V142L1179.99 87Z" fill="#3521B5"/>
<path d="M1235 87H1290V142L1235 87Z" fill="#3521B5"/>
<path d="M1070 142H1124.99V197L1070 142Z" fill="#3521B5"/>
<path d="M1124.99 142H1179.99V197L1124.99 142Z" fill="#3521B5"/>
<path d="M1179.99 142H1235V197L1179.99 142Z" fill="#3521B5"/>
<path d="M1235 142H1290V197L1235 142Z" fill="#3521B5"/>
</svg>
