<svg width="64" height="64" viewBox="0 0 64 64" fill="none" xmlns="http://www.w3.org/2000/svg">
<rect width="64" height="64" rx="32" fill="#5138EE" fill-opacity="0.06"/>
<path d="M36.2986 36.6775L33.348 42.8775C33.2921 42.9947 33.2086 43.0966 33.1046 43.1743C33.0006 43.252 32.8793 43.3033 32.751 43.3236C32.6228 43.344 32.4915 43.3328 32.3686 43.2911C32.2456 43.2493 32.1347 43.1783 32.0453 43.0841L27.3226 38.0988C27.1965 37.9657 27.0284 37.8801 26.8466 37.8561L20.0373 36.9655C19.9086 36.9485 19.7861 36.9005 19.6801 36.8256C19.5741 36.7507 19.4879 36.6512 19.429 36.5356C19.3701 36.42 19.3402 36.2917 19.3419 36.162C19.3435 36.0322 19.3767 35.9048 19.4386 35.7908L22.7213 29.7588C22.8086 29.5975 22.8377 29.4111 22.804 29.2308L21.5466 22.4801C21.5228 22.3523 21.5304 22.2207 21.5688 22.0965C21.6073 21.9723 21.6754 21.8594 21.7673 21.7675C21.8593 21.6756 21.9722 21.6074 22.0963 21.569C22.2205 21.5305 22.3522 21.5229 22.48 21.5468L29.2306 22.8041C29.4109 22.8379 29.5973 22.8087 29.7586 22.7215L35.7906 19.4388C35.9048 19.3769 36.0323 19.3437 36.1621 19.3421C36.292 19.3405 36.4203 19.3705 36.5359 19.4296C36.6515 19.4887 36.7511 19.575 36.8259 19.6811C36.9007 19.7873 36.9485 19.91 36.9653 20.0388L37.856 26.8468C37.8799 27.0286 37.9656 27.1966 38.0986 27.3228L43.084 32.0455C43.1782 32.1348 43.2492 32.2458 43.2909 32.3687C43.3326 32.4917 43.3438 32.6229 43.3235 32.7512C43.3031 32.8794 43.2519 33.0008 43.1741 33.1048C43.0964 33.2088 42.9945 33.2923 42.8773 33.3481L36.6773 36.2988C36.5113 36.3778 36.3776 36.5115 36.2986 36.6775V36.6775ZM37.3613 39.2468L39.2466 37.3615L44.904 43.0175L43.0173 44.9041L37.3613 39.2468V39.2468Z" fill="#5138EE"/>
</svg>
