<svg width="64" height="64" viewBox="0 0 64 64" fill="none" xmlns="http://www.w3.org/2000/svg">
<rect width="64" height="64" rx="32" fill="#5138EE" fill-opacity="0.06"/>
<path d="M37 24C38.5913 24 40.1174 24.6321 41.2426 25.7574C42.3679 26.8826 43 28.4087 43 30V34C43 35.5913 42.3679 37.1174 41.2426 38.2426C40.1174 39.3679 38.5913 40 37 40H27C25.4087 40 23.8826 39.3679 22.7574 38.2426C21.6321 37.1174 21 35.5913 21 34V30C21 28.4087 21.6321 26.8826 22.7574 25.7574C23.8826 24.6321 25.4087 24 27 24H37ZM30 29H28V31H26V33H27.999L28 35H30L29.999 33H32V31H30V29ZM38 33H36V35H38V33ZM36 29H34V31H36V29Z" fill="#5138EE"/>
</svg>
