<svg width="64" height="64" viewBox="0 0 64 64" fill="none" xmlns="http://www.w3.org/2000/svg">
<rect width="64" height="64" rx="32" fill="#5138EE" fill-opacity="0.06"/>
<path d="M32 42C26.477 42 22 37.523 22 32C22 26.477 26.477 22 32 22C37.523 22 42 26.477 42 32C42 37.523 37.523 42 32 42ZM27 32C27 33.3261 27.5268 34.5979 28.4645 35.5355C29.4021 36.4732 30.6739 37 32 37C33.3261 37 34.5979 36.4732 35.5355 35.5355C36.4732 34.5979 37 33.3261 37 32H35C35 32.7956 34.6839 33.5587 34.1213 34.1213C33.5587 34.6839 32.7956 35 32 35C31.2044 35 30.4413 34.6839 29.8787 34.1213C29.3161 33.5587 29 32.7956 29 32H27Z" fill="#5138EE"/>
</svg>
