<svg width="64" height="64" viewBox="0 0 64 64" fill="none" xmlns="http://www.w3.org/2000/svg">
<rect width="64" height="64" rx="32" fill="#5138EE" fill-opacity="0.06"/>
<path d="M28.498 40.0001H35.502C34.8404 41.5824 33.5823 42.8405 32 43.5021C30.4177 42.8405 29.1596 41.5824 28.498 40.0001V40.0001ZM38 34.8051L40 37.0731V39.0001H24V37.0731L26 34.8051V29.0001C26 25.5171 28.504 22.5531 32 21.4551C35.496 22.5531 38 25.5171 38 29.0001V34.8051ZM32 31.0001C32.5304 31.0001 33.0391 30.7894 33.4142 30.4143C33.7893 30.0392 34 29.5305 34 29.0001C34 28.4696 33.7893 27.9609 33.4142 27.5859C33.0391 27.2108 32.5304 27.0001 32 27.0001C31.4696 27.0001 30.9609 27.2108 30.5858 27.5859C30.2107 27.9609 30 28.4696 30 29.0001C30 29.5305 30.2107 30.0392 30.5858 30.4143C30.9609 30.7894 31.4696 31.0001 32 31.0001Z" fill="#5138EE"/>
</svg>
