<svg width="1440" height="1914" viewBox="0 0 1440 1914" fill="none" xmlns="http://www.w3.org/2000/svg">
<path d="M472.248 1376.47C452.557 1356.67 425.849 1345.55 398 1345.55C370.151 1345.55 343.443 1356.67 323.752 1376.47C304.296 1396.03 293.265 1422.47 293.005 1450.1L191.002 1450.1C191.264 1395.27 213.045 1342.74 251.631 1303.95C290.451 1264.92 343.102 1243 398 1243C452.898 1243 505.549 1264.92 544.369 1303.95C582.955 1342.74 604.736 1395.27 604.998 1450.1L502.995 1450.1C502.735 1422.47 491.704 1396.03 472.248 1376.47Z" stroke="url(#paint0_linear)" stroke-width="2"/>
<path d="M1249 887.447C1177.22 887.182 1108.44 858.404 1057.67 807.36C1006.89 756.314 978.264 687.164 978.002 615L1249 615L1249 887.447Z" stroke="url(#paint1_linear)" stroke-width="2"/>
<g opacity="0.48">
<path d="M1180 1498L1180 1557.34L1119.15 1557.34L1180 1498Z" fill="#3C3754"/>
<path d="M1126.64 1612.33L1177 1564.34L1177 1612.33L1126.64 1612.33Z" stroke="#3C3754" stroke-width="6"/>
<path d="M1180 1615.33L1180 1674.66L1119.15 1674.66L1180 1615.33Z" fill="#3C3754"/>
<path d="M1126.52 1731L1177 1681.78L1177 1731L1126.52 1731Z" stroke="#3C3754" stroke-width="6"/>
<path d="M1119.15 1498L1119.15 1557.34L1061 1557.34L1119.15 1498Z" fill="#3C3754"/>
<path d="M1119.15 1557.34L1119.15 1615.33L1061 1615.33L1119.15 1557.34Z" fill="#3C3754"/>
<path d="M1068.14 1671.66L1116.15 1622.67L1116.15 1671.66L1068.14 1671.66Z" stroke="#3C3754" stroke-width="6"/>
<path d="M1119.15 1674.66L1119.15 1734L1061 1734L1119.15 1674.66Z" fill="#3C3754"/>
</g>
<circle cx="241.5" cy="975.5" r="1.5" fill="#3C3754"/>
<circle cx="241.5" cy="1001.5" r="1.5" fill="#3C3754"/>
<circle cx="241.5" cy="1027.5" r="1.5" fill="#3C3754"/>
<circle cx="241.5" cy="1053.5" r="1.5" fill="#3C3754"/>
<circle cx="241.5" cy="1079.5" r="1.5" fill="#3C3754"/>
<circle cx="241.5" cy="1105.5" r="1.5" fill="#3C3754"/>
<circle cx="275.5" cy="975.5" r="1.5" fill="#3C3754"/>
<circle cx="275.5" cy="1001.5" r="1.5" fill="#3C3754"/>
<circle cx="275.5" cy="1027.5" r="1.5" fill="#3C3754"/>
<circle cx="275.5" cy="1053.5" r="1.5" fill="#3C3754"/>
<circle cx="275.5" cy="1079.5" r="1.5" fill="#3C3754"/>
<circle cx="275.5" cy="1105.5" r="1.5" fill="#3C3754"/>
<circle cx="309.5" cy="975.5" r="1.5" fill="#3C3754"/>
<circle cx="309.5" cy="1001.5" r="1.5" fill="#3C3754"/>
<circle cx="309.5" cy="1027.5" r="1.5" fill="#3C3754"/>
<circle cx="309.5" cy="1053.5" r="1.5" fill="#3C3754"/>
<circle cx="309.5" cy="1079.5" r="1.5" fill="#3C3754"/>
<circle cx="309.5" cy="1105.5" r="1.5" fill="#3C3754"/>
<circle cx="343.5" cy="975.5" r="1.5" fill="#3C3754"/>
<circle cx="343.5" cy="1001.5" r="1.5" fill="#3C3754"/>
<circle cx="343.5" cy="1027.5" r="1.5" fill="#3C3754"/>
<circle cx="343.5" cy="1053.5" r="1.5" fill="#3C3754"/>
<circle cx="343.5" cy="1079.5" r="1.5" fill="#3C3754"/>
<circle cx="343.5" cy="1105.5" r="1.5" fill="#3C3754"/>
<circle cx="377.5" cy="975.5" r="1.5" fill="#3C3754"/>
<circle cx="377.5" cy="1001.5" r="1.5" fill="#3C3754"/>
<circle cx="377.5" cy="1027.5" r="1.5" fill="#3C3754"/>
<circle cx="377.5" cy="1053.5" r="1.5" fill="#3C3754"/>
<circle cx="377.5" cy="1079.5" r="1.5" fill="#3C3754"/>
<circle cx="377.5" cy="1105.5" r="1.5" fill="#3C3754"/>
<circle cx="411.5" cy="975.5" r="1.5" fill="#3C3754"/>
<circle cx="411.5" cy="1001.5" r="1.5" fill="#3C3754"/>
<circle cx="411.5" cy="1027.5" r="1.5" fill="#3C3754"/>
<circle cx="411.5" cy="1053.5" r="1.5" fill="#3C3754"/>
<circle cx="411.5" cy="1079.5" r="1.5" fill="#3C3754"/>
<circle cx="411.5" cy="1105.5" r="1.5" fill="#3C3754"/>
<circle cx="445.5" cy="975.5" r="1.5" fill="#3C3754"/>
<circle cx="445.5" cy="1001.5" r="1.5" fill="#3C3754"/>
<circle cx="445.5" cy="1027.5" r="1.5" fill="#3C3754"/>
<circle cx="445.5" cy="1053.5" r="1.5" fill="#3C3754"/>
<circle cx="445.5" cy="1079.5" r="1.5" fill="#3C3754"/>
<circle cx="445.5" cy="1105.5" r="1.5" fill="#3C3754"/>
<circle cx="479.5" cy="975.5" r="1.5" fill="#3C3754"/>
<circle cx="479.5" cy="1001.5" r="1.5" fill="#3C3754"/>
<circle cx="479.5" cy="1027.5" r="1.5" fill="#3C3754"/>
<circle cx="479.5" cy="1053.5" r="1.5" fill="#3C3754"/>
<circle cx="479.5" cy="1079.5" r="1.5" fill="#3C3754"/>
<circle cx="479.5" cy="1105.5" r="1.5" fill="#3C3754"/>
<circle cx="961.5" cy="315.5" r="1.5" fill="#3C3754"/>
<circle cx="961.5" cy="341.5" r="1.5" fill="#3C3754"/>
<circle cx="961.5" cy="367.5" r="1.5" fill="#3C3754"/>
<circle cx="961.5" cy="393.5" r="1.5" fill="#3C3754"/>
<circle cx="961.5" cy="419.5" r="1.5" fill="#3C3754"/>
<circle cx="961.5" cy="445.5" r="1.5" fill="#3C3754"/>
<circle cx="995.5" cy="315.5" r="1.5" fill="#3C3754"/>
<circle cx="995.5" cy="341.5" r="1.5" fill="#3C3754"/>
<circle cx="995.5" cy="367.5" r="1.5" fill="#3C3754"/>
<circle cx="995.5" cy="393.5" r="1.5" fill="#3C3754"/>
<circle cx="995.5" cy="419.5" r="1.5" fill="#3C3754"/>
<circle cx="995.5" cy="445.5" r="1.5" fill="#3C3754"/>
<circle cx="1029.5" cy="315.5" r="1.5" fill="#3C3754"/>
<circle cx="1029.5" cy="341.5" r="1.5" fill="#3C3754"/>
<circle cx="1029.5" cy="367.5" r="1.5" fill="#3C3754"/>
<circle cx="1029.5" cy="393.5" r="1.5" fill="#3C3754"/>
<circle cx="1029.5" cy="419.5" r="1.5" fill="#3C3754"/>
<circle cx="1029.5" cy="445.5" r="1.5" fill="#3C3754"/>
<circle cx="1063.5" cy="315.5" r="1.5" fill="#3C3754"/>
<circle cx="1063.5" cy="341.5" r="1.5" fill="#3C3754"/>
<circle cx="1063.5" cy="367.5" r="1.5" fill="#3C3754"/>
<circle cx="1063.5" cy="393.5" r="1.5" fill="#3C3754"/>
<circle cx="1063.5" cy="419.5" r="1.5" fill="#3C3754"/>
<circle cx="1063.5" cy="445.5" r="1.5" fill="#3C3754"/>
<circle cx="1097.5" cy="315.5" r="1.5" fill="#3C3754"/>
<circle cx="1097.5" cy="341.5" r="1.5" fill="#3C3754"/>
<circle cx="1097.5" cy="367.5" r="1.5" fill="#3C3754"/>
<circle cx="1097.5" cy="393.5" r="1.5" fill="#3C3754"/>
<circle cx="1097.5" cy="419.5" r="1.5" fill="#3C3754"/>
<circle cx="1097.5" cy="445.5" r="1.5" fill="#3C3754"/>
<circle cx="1131.5" cy="315.5" r="1.5" fill="#3C3754"/>
<circle cx="1131.5" cy="341.5" r="1.5" fill="#3C3754"/>
<circle cx="1131.5" cy="367.5" r="1.5" fill="#3C3754"/>
<circle cx="1131.5" cy="393.5" r="1.5" fill="#3C3754"/>
<circle cx="1131.5" cy="419.5" r="1.5" fill="#3C3754"/>
<circle cx="1131.5" cy="445.5" r="1.5" fill="#3C3754"/>
<circle cx="1165.5" cy="315.5" r="1.5" fill="#3C3754"/>
<circle cx="1165.5" cy="341.5" r="1.5" fill="#3C3754"/>
<circle cx="1165.5" cy="367.5" r="1.5" fill="#3C3754"/>
<circle cx="1165.5" cy="393.5" r="1.5" fill="#3C3754"/>
<circle cx="1165.5" cy="419.5" r="1.5" fill="#3C3754"/>
<circle cx="1165.5" cy="445.5" r="1.5" fill="#3C3754"/>
<circle cx="1199.5" cy="315.5" r="1.5" fill="#3C3754"/>
<circle cx="1199.5" cy="341.5" r="1.5" fill="#3C3754"/>
<circle cx="1199.5" cy="367.5" r="1.5" fill="#3C3754"/>
<circle cx="1199.5" cy="393.5" r="1.5" fill="#3C3754"/>
<circle cx="1199.5" cy="419.5" r="1.5" fill="#3C3754"/>
<circle cx="1199.5" cy="445.5" r="1.5" fill="#3C3754"/>
<defs>
<linearGradient id="paint0_linear" x1="606" y1="1346.55" x2="190" y2="1346.55" gradientUnits="userSpaceOnUse">
<stop stop-color="#2A263F"/>
<stop offset="0.532216" stop-color="#2A263F" stop-opacity="0"/>
</linearGradient>
<linearGradient id="paint1_linear" x1="895.035" y1="751.224" x2="1106.72" y2="751.224" gradientUnits="userSpaceOnUse">
<stop offset="0.0001" stop-color="#2A263F"/>
<stop offset="1" stop-color="#2A263F" stop-opacity="0"/>
</linearGradient>
</defs>
</svg>
