<svg width="1280" height="696" viewBox="0 0 1280 696" fill="none" xmlns="http://www.w3.org/2000/svg">
<path opacity="0.32" d="M919.427 153.874C908.175 142.609 892.914 136.28 877 136.28C861.086 136.28 845.825 142.609 834.573 153.874C823.793 164.667 817.539 179.143 817.033 194.348H763.017C763.534 164.8 775.483 136.574 796.391 115.641C817.77 94.2373 846.766 82.2131 877 82.2131C907.234 82.2131 936.23 94.2373 957.609 115.641C978.517 136.574 990.466 164.8 990.983 194.348H936.967C936.461 179.143 930.207 164.667 919.427 153.874Z" stroke="#ACE6F9" stroke-width="4"/>
<circle cx="684.5" cy="401.5" r="1.5" fill="#ACE6F9"/>
<circle cx="684.5" cy="427.5" r="1.5" fill="#ACE6F9"/>
<circle cx="684.5" cy="453.5" r="1.5" fill="#ACE6F9"/>
<circle cx="684.5" cy="479.5" r="1.5" fill="#ACE6F9"/>
<circle cx="684.5" cy="505.5" r="1.5" fill="#ACE6F9"/>
<circle cx="684.5" cy="531.5" r="1.5" fill="#ACE6F9"/>
<circle cx="718.5" cy="401.5" r="1.5" fill="#ACE6F9"/>
<circle cx="718.5" cy="427.5" r="1.5" fill="#ACE6F9"/>
<circle cx="718.5" cy="453.5" r="1.5" fill="#ACE6F9"/>
<circle cx="718.5" cy="479.5" r="1.5" fill="#ACE6F9"/>
<circle cx="718.5" cy="505.5" r="1.5" fill="#ACE6F9"/>
<circle cx="718.5" cy="531.5" r="1.5" fill="#ACE6F9"/>
<circle cx="752.5" cy="401.5" r="1.5" fill="#ACE6F9"/>
<circle cx="752.5" cy="427.5" r="1.5" fill="#ACE6F9"/>
<circle cx="752.5" cy="453.5" r="1.5" fill="#ACE6F9"/>
<circle cx="752.5" cy="479.5" r="1.5" fill="#ACE6F9"/>
<circle cx="752.5" cy="505.5" r="1.5" fill="#ACE6F9"/>
<circle cx="752.5" cy="531.5" r="1.5" fill="#ACE6F9"/>
<circle cx="786.5" cy="401.5" r="1.5" fill="#ACE6F9"/>
<circle cx="786.5" cy="427.5" r="1.5" fill="#ACE6F9"/>
<circle cx="786.5" cy="453.5" r="1.5" fill="#ACE6F9"/>
<circle cx="786.5" cy="479.5" r="1.5" fill="#ACE6F9"/>
<circle cx="786.5" cy="505.5" r="1.5" fill="#ACE6F9"/>
<circle cx="786.5" cy="531.5" r="1.5" fill="#ACE6F9"/>
<circle cx="820.5" cy="401.5" r="1.5" fill="#ACE6F9"/>
<circle cx="820.5" cy="427.5" r="1.5" fill="#ACE6F9"/>
<circle cx="820.5" cy="453.5" r="1.5" fill="#ACE6F9"/>
<circle cx="820.5" cy="479.5" r="1.5" fill="#ACE6F9"/>
<circle cx="820.5" cy="505.5" r="1.5" fill="#ACE6F9"/>
<circle cx="820.5" cy="531.5" r="1.5" fill="#ACE6F9"/>
<circle cx="854.5" cy="401.5" r="1.5" fill="#ACE6F9"/>
<circle cx="854.5" cy="427.5" r="1.5" fill="#ACE6F9"/>
<circle cx="854.5" cy="453.5" r="1.5" fill="#ACE6F9"/>
<circle cx="854.5" cy="479.5" r="1.5" fill="#ACE6F9"/>
<circle cx="854.5" cy="505.5" r="1.5" fill="#ACE6F9"/>
<circle cx="854.5" cy="531.5" r="1.5" fill="#ACE6F9"/>
<circle cx="888.5" cy="401.5" r="1.5" fill="#ACE6F9"/>
<circle cx="888.5" cy="427.5" r="1.5" fill="#ACE6F9"/>
<circle cx="888.5" cy="453.5" r="1.5" fill="#ACE6F9"/>
<circle cx="888.5" cy="479.5" r="1.5" fill="#ACE6F9"/>
<circle cx="888.5" cy="505.5" r="1.5" fill="#ACE6F9"/>
<circle cx="888.5" cy="531.5" r="1.5" fill="#ACE6F9"/>
<circle cx="922.5" cy="401.5" r="1.5" fill="#ACE6F9"/>
<circle cx="922.5" cy="427.5" r="1.5" fill="#ACE6F9"/>
<circle cx="922.5" cy="453.5" r="1.5" fill="#ACE6F9"/>
<circle cx="922.5" cy="479.5" r="1.5" fill="#ACE6F9"/>
<circle cx="922.5" cy="505.5" r="1.5" fill="#ACE6F9"/>
<circle cx="922.5" cy="531.5" r="1.5" fill="#ACE6F9"/>
</svg>
