<svg width="180" height="96" viewBox="0 0 180 96" fill="none" xmlns="http://www.w3.org/2000/svg">
<path d="M21.8109 57.7776C21.9421 57.7776 22.0265 57.6558 22.0639 57.4122C22.1202 57.1686 22.0358 56.7281 21.8109 56.091C21.736 55.8474 21.5673 55.4163 21.3049 54.7978C21.0613 54.1794 20.7708 53.4672 20.4335 52.6614C20.0962 51.8556 19.7495 51.0404 19.3934 50.2157C19.0561 49.3911 18.7468 48.6321 18.4657 47.9387C18.1846 47.2453 17.9691 46.7206 17.8192 46.3645C17.5755 45.7273 17.3132 45.2776 17.0321 45.0152C16.7697 44.7528 16.5542 44.6216 16.3855 44.6216H22.1202C22.0077 44.6216 21.9328 44.7528 21.8953 45.0152C21.8578 45.2776 21.9328 45.7273 22.1202 46.3645C22.2139 46.7018 22.3638 47.1985 22.5699 47.8544C22.7948 48.5103 23.0385 49.2505 23.3008 50.0752C23.5819 50.8998 23.8631 51.7431 24.1442 52.6052C24.444 53.4672 24.7158 54.2637 24.9594 54.9946H24.9875C25.1937 54.245 25.4185 53.4391 25.6622 52.5771C25.9058 51.6962 26.1401 50.8436 26.3649 50.019C26.5898 49.1756 26.7866 48.426 26.9553 47.7701C27.1427 47.1141 27.2739 46.6269 27.3488 46.3083C27.5175 45.6711 27.5831 45.2307 27.5456 44.9871C27.5081 44.7434 27.4425 44.6216 27.3488 44.6216H33.5895C33.4771 44.6216 33.4021 44.7528 33.3646 45.0152C33.3271 45.2776 33.4021 45.7273 33.5895 46.3645C33.6832 46.7018 33.8238 47.1985 34.0112 47.8544C34.1985 48.5103 34.4047 49.2505 34.6296 50.0752C34.8545 50.8998 35.0888 51.7431 35.3324 52.6052C35.576 53.4672 35.7916 54.2637 35.9789 54.9946H36.0071C36.2882 54.245 36.5787 53.4391 36.8785 52.5771C37.1971 51.6962 37.5064 50.8436 37.8062 50.019C38.106 49.1756 38.3684 48.426 38.5933 47.7701C38.8182 47.1141 38.9681 46.6269 39.0431 46.3083C39.2117 45.7086 39.2774 45.2776 39.2398 45.0152C39.2023 44.7528 39.1368 44.6216 39.0431 44.6216H44.6372C44.506 44.6216 44.3185 44.7434 44.0749 44.9871C43.8314 45.2307 43.5784 45.6617 43.3159 46.2802C43.1848 46.6175 42.9692 47.1141 42.6694 47.7701C42.3696 48.426 42.0415 49.1569 41.6855 49.9627C41.3295 50.7685 40.9733 51.5745 40.6173 52.3803C40.2612 53.1861 39.9426 53.917 39.6615 54.573C39.3991 55.2289 39.2117 55.7349 39.0993 56.091C38.9119 56.6907 38.8369 57.1217 38.8744 57.3841C38.9119 57.6465 38.9868 57.7776 39.0993 57.7776H32.8305C32.9429 57.7776 33.0179 57.6465 33.0554 57.3841C33.0929 57.1217 33.0179 56.6907 32.8305 56.091C32.7743 55.9223 32.6618 55.5381 32.4932 54.9384C32.3432 54.3387 32.1558 53.6172 31.9309 52.7738C31.7061 51.9118 31.4718 51.0215 31.2282 50.1033C30.9846 49.185 30.7503 48.3136 30.5254 47.489H30.4411C30.2162 48.2761 29.9819 49.1194 29.7383 50.019C29.4947 50.8998 29.2604 51.7618 29.0355 52.6052C28.8106 53.4298 28.6044 54.1607 28.4171 54.7978C28.2484 55.4163 28.1359 55.8474 28.0797 56.091C27.9111 56.7094 27.8454 57.1498 27.8829 57.4122C27.9205 57.6558 27.986 57.7776 28.0797 57.7776H21.8109ZM50.88 58.0587C48.9123 58.0587 47.3661 57.787 46.2417 57.2435C45.136 56.7 44.3583 55.9223 43.9085 54.9103C43.4587 53.8796 43.2338 52.652 43.2338 51.2277C43.2338 49.11 43.8241 47.4327 45.0048 46.1958C46.1855 44.959 47.994 44.3405 50.4303 44.3405C51.8545 44.3405 53.0071 44.5373 53.8879 44.9308C54.7875 45.3244 55.4716 45.8491 55.94 46.5051C56.4085 47.161 56.7271 47.8919 56.8958 48.6977C57.0832 49.4848 57.1769 50.2814 57.1769 51.0872V52.4084C57.1769 52.3522 56.9145 52.296 56.3898 52.2397C55.8838 52.1648 55.0218 52.1273 53.8036 52.1273H47.2818C47.2818 53.158 47.591 53.9358 48.2095 54.4605C48.8466 54.9665 49.8774 55.2195 51.3017 55.2195C52.5011 55.2195 53.5693 55.079 54.5064 54.7978C55.4621 54.498 56.1555 54.2169 56.5866 53.9545V54.7978L56.8677 56.9343C56.5117 57.1779 55.8276 57.4309 54.8156 57.6933C53.8036 57.9369 52.4918 58.0587 50.88 58.0587ZM48.3219 49.7097H53.1851C53.1851 49.2975 53.0914 48.8945 52.904 48.501C52.7354 48.1074 52.4543 47.7888 52.0607 47.5452C51.6671 47.2828 51.1236 47.1516 50.4303 47.1516C49.3996 47.1516 48.6593 47.3671 48.2095 47.7982C47.7597 48.2292 47.5348 48.679 47.5348 49.1475C47.5348 49.3349 47.591 49.4754 47.7035 49.5692C47.8159 49.6629 48.0221 49.7097 48.3219 49.7097ZM63.9631 58.0587C62.67 58.0587 61.733 57.787 61.152 57.2435C60.571 56.6813 60.2805 55.7723 60.2805 54.5167V47.4327H57.7505V44.6216C58.6127 44.6216 59.2873 44.5186 59.7745 44.3124C60.2618 44.0875 60.6086 43.7033 60.8146 43.1598C61.0208 42.6164 61.1238 41.8574 61.1238 40.8828H64.2723V44.6216H69.0793C68.9481 44.9964 68.817 45.465 68.6857 46.0272C68.5733 46.5707 68.5171 47.0392 68.5171 47.4327H64.2723V52.9706C64.2723 53.8327 64.3379 54.423 64.4691 54.7416C64.6003 55.0603 64.9096 55.2195 65.3967 55.2195C65.7154 55.2195 66.0621 55.1071 66.4368 54.8822C66.8304 54.6573 67.2053 54.3856 67.5613 54.067C67.9361 53.7296 68.2454 53.411 68.489 53.1112V53.9826L68.7701 56.7094C68.4327 57.0092 67.8424 57.3091 66.9991 57.609C66.1557 57.9088 65.1437 58.0587 63.9631 58.0587ZM69.4621 57.7776C69.5934 57.7776 69.7151 57.6465 69.8275 57.3841C69.9588 57.1217 70.0243 56.6907 70.0243 56.091V46.5894C70.0243 45.9897 69.9588 45.568 69.8275 45.3244C69.7151 45.062 69.5934 44.9215 69.4621 44.9027C70.2867 44.9027 71.1301 44.8465 71.9921 44.7341C72.8542 44.6029 73.5289 44.4717 74.0161 44.3405V45.465L73.9599 45.9428L74.0161 45.9991C74.1474 45.7929 74.3534 45.568 74.6345 45.3244C74.9345 45.062 75.3092 44.8371 75.759 44.6497C76.2276 44.4436 76.771 44.3405 77.3894 44.3405C78.3078 44.3405 79.123 44.4717 79.8351 44.7341C80.5473 44.9777 81.0533 45.2307 81.3531 45.4931L80.5098 49.26V50.1033C80.2286 49.7097 79.8445 49.3068 79.3572 48.8945C78.8887 48.4822 78.364 48.1355 77.783 47.8544C77.2208 47.5733 76.6398 47.4327 76.0401 47.4327C75.3654 47.4327 74.8594 47.6764 74.5221 48.1636C74.1848 48.6509 74.0161 49.4192 74.0161 50.4687V56.091C74.0161 56.6907 74.0723 57.1217 74.1848 57.3841C74.316 57.6465 74.4472 57.7776 74.5783 57.7776H69.4621ZM86.6108 58.0587C84.9242 58.0587 83.5748 57.7308 82.5628 57.0748C81.5695 56.4002 81.073 55.3225 81.073 53.8421C81.073 52.8114 81.3352 51.9773 81.8601 51.3402C82.3848 50.703 83.097 50.2344 83.9965 49.9346C84.9148 49.616 85.9549 49.4567 87.1168 49.4567C88.41 49.4567 89.422 49.6067 90.1528 49.9065C90.8837 50.2063 91.3428 50.4125 91.5303 50.525C91.5303 49.363 91.3241 48.5103 90.9118 47.9668C90.4995 47.4234 89.7031 47.1516 88.5224 47.1516C87.3791 47.1516 86.3671 47.2641 85.4864 47.489C84.6055 47.7138 83.8841 47.9762 83.3218 48.2761C82.7783 48.5759 82.4035 48.8289 82.1974 49.0351V48.1917L81.9163 45.4368C82.0474 45.3619 82.3942 45.2401 82.9564 45.0714C83.5186 44.9027 84.2869 44.7434 85.2615 44.5935C86.236 44.4248 87.398 44.3405 88.7473 44.3405C90.6026 44.3405 92.0175 44.6122 92.9921 45.1557C93.9665 45.6805 94.6318 46.4395 94.988 47.4327C95.3627 48.426 95.5502 49.6254 95.5502 51.031V56.091C95.5502 56.6157 95.6064 56.9999 95.7188 57.2435C95.85 57.4684 95.9811 57.6465 96.1124 57.7776H91.5584V57.1873L91.6146 56.6532L91.5584 56.597C91.2585 56.9156 90.687 57.2435 89.8436 57.5808C89.019 57.8995 87.9414 58.0587 86.6108 58.0587ZM87.9321 55.2195C89.0939 55.2195 89.9842 55.0884 90.6026 54.826C91.2398 54.5448 91.5584 54.1888 91.5584 53.7577C91.5584 53.3267 91.2304 52.9706 90.5745 52.6895C89.9372 52.4084 89.0658 52.2678 87.9602 52.2678C86.892 52.2678 86.133 52.4178 85.6832 52.7176C85.2521 53.0174 85.0366 53.3923 85.0366 53.8421C85.0366 54.4043 85.2896 54.7791 85.7956 54.9665C86.3016 55.1352 87.0137 55.2195 87.9321 55.2195ZM97.3009 57.7776C97.4322 57.7776 97.5539 57.6465 97.6663 57.3841C97.7976 57.1217 97.8631 56.6907 97.8631 56.091V46.5894C97.8631 45.9897 97.7976 45.568 97.6663 45.3244C97.5539 45.062 97.4322 44.9215 97.3009 44.9027C98.1255 44.9027 98.9689 44.8465 99.8309 44.7341C100.693 44.6029 101.368 44.4717 101.855 44.3405V46.0553L101.799 46.4207L101.855 46.477C101.911 46.3458 102.089 46.1115 102.389 45.7742C102.689 45.4368 103.12 45.1182 103.682 44.8184C104.244 44.4998 104.938 44.3405 105.762 44.3405C107.505 44.3405 108.836 44.8371 109.754 45.8304C110.691 46.8237 111.16 48.3791 111.16 50.4968V56.091C111.16 56.6907 111.216 57.1217 111.328 57.3841C111.46 57.6465 111.591 57.7776 111.722 57.7776H106.606C106.737 57.7776 106.859 57.6465 106.971 57.3841C107.102 57.1217 107.168 56.6907 107.168 56.091V50.5812C107.168 49.2505 106.962 48.351 106.549 47.8825C106.137 47.3952 105.612 47.1516 104.975 47.1516C104.169 47.1516 103.448 47.4421 102.811 48.0231C102.174 48.5853 101.855 49.5224 101.855 50.8342V56.091C101.855 56.6907 101.911 57.1217 102.024 57.3841C102.155 57.6465 102.286 57.7776 102.417 57.7776H97.3009ZM119.951 58.0587C118.283 58.0587 116.877 57.965 115.734 57.7776C114.591 57.5903 113.804 57.4028 113.373 57.2154V56.3721L112.782 53.6172C113.27 53.9732 114.179 54.3294 115.509 54.6854C116.84 55.0414 118.47 55.2195 120.401 55.2195C121.281 55.2195 121.89 55.1352 122.228 54.9665C122.584 54.7978 122.762 54.5073 122.762 54.0951C122.762 53.7764 122.64 53.5328 122.396 53.3642C122.172 53.1955 121.759 53.0644 121.16 52.9706C120.56 52.8582 119.688 52.727 118.545 52.5771C117.102 52.3897 115.959 52.1273 115.116 51.79C114.272 51.4339 113.673 50.9841 113.317 50.4406C112.979 49.8784 112.811 49.1944 112.811 48.3885C112.811 47.6389 112.989 46.9642 113.345 46.3645C113.719 45.7461 114.357 45.2588 115.256 44.9027C116.175 44.5279 117.449 44.3405 119.079 44.3405C120.616 44.3405 121.965 44.4342 123.127 44.6216C124.289 44.809 125.123 44.9964 125.629 45.1838V46.0272L126.191 48.501C125.76 48.2198 124.917 47.9294 123.661 47.6295C122.406 47.3297 120.813 47.1797 118.883 47.1797C118.133 47.1797 117.599 47.2547 117.28 47.4046C116.962 47.5546 116.802 47.8169 116.802 48.1917C116.802 48.4354 116.905 48.6415 117.112 48.8102C117.318 48.9601 117.721 49.1007 118.32 49.2318C118.939 49.363 119.857 49.513 121.075 49.6816C122.668 49.8878 123.868 50.1782 124.673 50.5531C125.479 50.9091 126.023 51.3589 126.304 51.9024C126.585 52.4271 126.726 53.0644 126.726 53.814C126.726 55.257 126.182 56.3253 125.095 57.0186C124.008 57.712 122.293 58.0587 119.951 58.0587ZM128.369 57.7776C128.5 57.7776 128.622 57.6465 128.734 57.3841C128.865 57.1217 128.931 56.6907 128.931 56.091V47.4327H126.401V44.6216H129.212L129.24 44.5654C129.184 44.4717 129.072 44.1625 128.903 43.6377C128.734 43.0942 128.65 42.4571 128.65 41.7262C128.65 40.2457 129.072 39.1774 129.915 38.5215C130.777 37.8656 131.948 37.5376 133.429 37.5376C134.628 37.5376 135.687 37.6032 136.605 37.7344C137.524 37.8468 138.189 37.9687 138.602 38.0998V38.9713L139.164 42.0354C138.826 41.7918 138.385 41.5481 137.843 41.3045C137.317 41.0421 136.755 40.8266 136.156 40.658C135.556 40.4706 134.956 40.3768 134.356 40.3768C133.757 40.3768 133.326 40.5174 133.063 40.7985C132.82 41.0796 132.698 41.4919 132.698 42.0354V43.7783C132.698 44.1906 132.735 44.4342 132.81 44.5092C132.885 44.5841 133.138 44.6216 133.569 44.6216H137.786C137.655 44.7903 137.524 45.1182 137.392 45.6055C137.28 46.074 137.224 46.6831 137.224 47.4327H132.979V56.091C132.979 56.6907 133.035 57.1217 133.148 57.3841C133.279 57.6465 133.41 57.7776 133.541 57.7776H128.369ZM144.692 58.0587C142.724 58.0587 141.178 57.787 140.054 57.2435C138.948 56.7 138.17 55.9223 137.72 54.9103C137.271 53.8796 137.046 52.652 137.046 51.2277C137.046 49.11 137.636 47.4327 138.817 46.1958C139.997 44.959 141.806 44.3405 144.242 44.3405C145.666 44.3405 146.819 44.5373 147.7 44.9308C148.599 45.3244 149.284 45.8491 149.752 46.5051C150.22 47.161 150.539 47.8919 150.708 48.6977C150.895 49.4848 150.989 50.2814 150.989 51.0872V52.4084C150.989 52.3522 150.726 52.296 150.202 52.2397C149.696 52.1648 148.834 52.1273 147.615 52.1273H141.094C141.094 53.158 141.403 53.9358 142.021 54.4605C142.658 54.9665 143.69 55.2195 145.114 55.2195C146.313 55.2195 147.381 55.079 148.318 54.7978C149.274 54.498 149.967 54.2169 150.399 53.9545V54.7978L150.68 56.9343C150.324 57.1779 149.64 57.4309 148.628 57.6933C147.616 57.9369 146.304 58.0587 144.692 58.0587ZM142.134 49.7097H146.997C146.997 49.2975 146.903 48.8945 146.716 48.501C146.547 48.1074 146.266 47.7888 145.873 47.5452C145.479 47.2828 144.935 47.1516 144.242 47.1516C143.212 47.1516 142.471 47.3671 142.021 47.7982C141.572 48.2292 141.347 48.679 141.347 49.1475C141.347 49.3349 141.403 49.4754 141.515 49.5692C141.628 49.6629 141.834 49.7097 142.134 49.7097ZM152.237 57.7776C152.369 57.7776 152.49 57.6465 152.602 57.3841C152.734 57.1217 152.799 56.6907 152.799 56.091V46.5894C152.799 45.9897 152.734 45.568 152.602 45.3244C152.49 45.062 152.369 44.9215 152.237 44.9027C153.062 44.9027 153.905 44.8465 154.767 44.7341C155.63 44.6029 156.304 44.4717 156.791 44.3405V45.465L156.734 45.9428L156.791 45.9991C156.923 45.7929 157.128 45.568 157.409 45.3244C157.71 45.062 158.084 44.8371 158.534 44.6497C159.003 44.4436 159.546 44.3405 160.164 44.3405C161.083 44.3405 161.898 44.4717 162.61 44.7341C163.322 44.9777 163.828 45.2307 164.128 45.4931L163.284 49.26V50.1033C163.003 49.7097 162.619 49.3068 162.132 48.8945C161.664 48.4822 161.139 48.1355 160.558 47.8544C159.995 47.5733 159.415 47.4327 158.815 47.4327C158.14 47.4327 157.634 47.6764 157.297 48.1636C156.959 48.6509 156.791 49.4192 156.791 50.4687V56.091C156.791 56.6907 156.847 57.1217 156.959 57.3841C157.091 57.6465 157.222 57.7776 157.353 57.7776H152.237Z" fill="#8C87A6"/>
</svg>
