<svg width="268" height="37" viewBox="0 0 268 37" fill="none" xmlns="http://www.w3.org/2000/svg">
<path d="M47.6266 1.53418L52.0097 5.91727C55.9632 5.42636 60.1009 6.68869 63.1427 9.73055C68.3761 14.9552 68.3761 23.4408 63.1427 28.6655C62.4239 29.3843 61.635 30.0067 60.8022 30.5239L30.8043 0.534838H23.318L43.6468 20.8548C43.4276 22.5642 42.8929 24.2386 42.0163 25.7726C41.4289 26.7983 40.7101 27.7889 39.8335 28.6655C39.3689 29.1301 38.878 29.5246 38.3871 29.8928C38.0978 30.1119 37.7997 30.3223 37.4929 30.5064L7.48631 0.534838H0L36.3533 36.8794C38.089 36.2921 39.7546 35.433 41.2887 34.3284C41.5341 34.1619 41.7796 33.9866 42.0075 33.8025C42.5422 33.3729 43.0682 32.9083 43.5766 32.4174C44.3568 31.6372 45.0406 30.7869 45.6542 29.9103C46.6886 28.4463 47.4688 26.8684 48.0386 25.2379L59.6801 36.8794C61.4158 36.2921 63.0814 35.433 64.6155 34.3284C65.4132 33.7586 66.1846 33.1275 66.8947 32.4086C74.1969 25.1415 74.1969 13.2984 66.8947 5.99616C61.6876 0.780291 54.1662 -0.701192 47.6266 1.53418Z" fill="#DADEE3"/>
<path d="M96.0161 10.537C95.7881 10.274 95.5252 10.0286 95.2183 9.81821C94.9115 9.59905 94.6924 9.46756 94.5872 9.4062C94.4645 9.34483 94.368 9.30977 94.2979 9.28347L94.482 9.17828C94.6047 9.09938 94.7625 8.97665 94.9466 8.79256C95.1307 8.60847 95.3148 8.38932 95.4989 8.1351C95.683 7.87212 95.8407 7.5653 95.9635 7.17959C96.0862 6.79388 96.1476 6.3994 96.1476 5.96109C96.1476 4.83902 95.6742 3.83968 94.7187 2.99812C93.7632 2.15657 92.5622 1.71826 91.107 1.71826H84.2168V17.7867H91.5103C93.0969 17.7867 94.4206 17.3221 95.4287 16.4016C96.4631 15.4812 96.9628 14.3766 96.9628 13.0792C96.9628 12.5533 96.8751 12.0799 96.6735 11.6328C96.4544 11.1507 96.244 10.8 96.0161 10.537ZM87.6444 4.5585H90.844C91.4138 4.5585 91.8609 4.71629 92.1853 5.03187C92.5096 5.33869 92.6762 5.76823 92.6762 6.2942C92.6762 6.82017 92.5096 7.23218 92.1853 7.55653C91.8609 7.86335 91.4051 8.02991 90.844 8.02991H87.6444V4.5585ZM92.8778 14.3065C92.4658 14.7097 91.9398 14.9026 91.3086 14.9026H87.6444V10.7562H91.3086C91.9398 10.7562 92.4658 10.9578 92.8778 11.3523C93.2898 11.7555 93.4914 12.2464 93.4914 12.825C93.4914 13.4123 93.2898 13.9032 92.8778 14.3065Z" fill="#DADEE3"/>
<path d="M105.887 1.70068H102.441V17.7691H113.347V14.6834H105.887V1.70068Z" fill="#DADEE3"/>
<path d="M131.353 3.82218C129.678 2.19167 127.601 1.35889 125.155 1.35889C122.709 1.35889 120.649 2.17414 118.957 3.82218C117.265 5.45269 116.433 7.43384 116.433 9.73935C116.433 12.0449 117.283 14.0172 118.957 15.6565C120.649 17.3046 122.709 18.1198 125.155 18.1198C127.601 18.1198 129.661 17.3046 131.353 15.6565C133.045 14.0085 133.877 12.0449 133.877 9.73935C133.895 7.41631 133.045 5.45269 131.353 3.82218ZM128.819 13.4737C127.82 14.4906 126.601 14.9991 125.155 14.9991C123.726 14.9991 122.49 14.4906 121.491 13.4737C120.491 12.4569 119.983 11.2121 119.983 9.72182C119.983 8.2491 120.491 6.98677 121.491 5.96989C122.49 4.95302 123.709 4.44458 125.155 4.44458C126.601 4.44458 127.811 4.95302 128.819 5.96989C129.819 6.98677 130.327 8.2491 130.327 9.72182C130.327 11.2121 129.819 12.4569 128.819 13.4737Z" fill="#DADEE3"/>
<path d="M151.514 16.9978C151.988 16.7172 152.452 16.4017 152.864 16.0335C153.276 15.6653 153.557 15.4023 153.679 15.2621C153.802 15.1043 153.899 14.9991 153.96 14.9114L151.882 12.7286L151.698 12.9566C151.576 13.1231 151.391 13.3072 151.111 13.5439C150.848 13.7718 150.524 13.991 150.173 14.2014C149.822 14.4205 149.375 14.6134 148.849 14.7712C148.315 14.9289 147.754 15.0166 147.175 15.0166C145.667 15.0166 144.422 14.5082 143.406 13.5088C142.389 12.492 141.898 11.2472 141.898 9.73937C141.898 8.23159 142.406 6.98679 143.406 5.96992C144.422 4.95304 145.667 4.46213 147.175 4.46213C147.727 4.46213 148.253 4.54103 148.77 4.70759C149.296 4.87415 149.708 5.05823 150.033 5.25986C150.357 5.46148 150.646 5.6894 150.927 5.95238C151.207 6.21537 151.374 6.39946 151.453 6.50465C151.532 6.60985 151.593 6.70628 151.637 6.75011L153.82 4.56733L153.557 4.22545C153.39 4.00629 153.127 3.75207 152.741 3.42773C152.373 3.12091 151.926 2.79656 151.453 2.48975C150.962 2.18293 150.331 1.90241 149.577 1.69202C148.823 1.47287 148.008 1.36768 147.166 1.36768C144.72 1.36768 142.643 2.18293 140.969 3.83097C139.294 5.46148 138.444 7.44263 138.444 9.74814C138.444 12.0536 139.294 14.026 140.969 15.6653C142.66 17.3133 144.72 18.1286 147.166 18.1286C147.999 18.1286 148.814 18.0234 149.594 17.778C150.41 17.5325 151.041 17.2695 151.514 16.9978Z" fill="#DADEE3"/>
<path d="M172.781 1.70068H168.766L162.463 8.69609V1.70068H159V17.7691H162.463V13.1756L164.523 10.8876L169.231 17.7778H173.246L166.82 8.35421L172.781 1.70068Z" fill="#DADEE3"/>
<path d="M196.187 1.70068L192.865 12.711L189.525 1.70068H186.325L183.003 12.711L179.663 1.70068H175.99L181.267 17.7691H184.493L187.921 6.97792L191.366 17.7691H194.583L199.869 1.70068H196.187Z" fill="#DADEE3"/>
<path d="M214.096 17.7603H217.769L211.449 1.69189H207.785L201.464 17.7603H205.137L206.522 13.9821H212.72L214.096 17.7603ZM207.662 11.0016L209.634 5.7331L211.589 11.0016H207.662Z" fill="#DADEE3"/>
<path d="M231.997 1.70068H219.374V4.80391H223.976V17.7603H227.421V4.80391H232.006V1.70068H231.997Z" fill="#DADEE3"/>
<path d="M248.863 14.6746H240.263V11.1068H246.785V8.02109H240.263V4.80391H248.626V1.70068H236.8V17.7691H248.854V14.6746H248.863Z" fill="#DADEE3"/>
<path d="M263.888 17.7603H267.561L264.116 11.6765L264.405 11.5188C264.607 11.4223 264.852 11.2558 265.124 11.0103C265.404 10.7649 265.694 10.4756 265.957 10.1162C266.237 9.77428 266.465 9.31844 266.667 8.76617C266.868 8.2139 266.974 7.60027 266.974 6.96911C266.974 5.49639 266.448 4.25159 265.404 3.21719C264.361 2.20031 263.055 1.68311 261.451 1.68311H254.333V17.7515H257.778V12.1412H260.758L263.888 17.7603ZM257.813 4.80386H261.363C261.994 4.80386 262.52 5.00548 262.932 5.4175C263.344 5.8295 263.546 6.33794 263.546 6.96911C263.546 7.55644 263.327 8.04735 262.932 8.44182C262.52 8.84507 261.994 9.03793 261.363 9.03793H257.813V4.80386Z" fill="#DADEE3"/>
<path d="M84.0503 27.9379H87.0834V36.0204H88.3107V27.9379H91.3437V26.7983H84.0503V27.9379Z" fill="#DADEE3"/>
<path d="M101.565 31.9353H106.483V30.8132H101.565V27.9379H107.07V26.7983H100.338V36.0291H107.132V34.8895H101.565V31.9353Z" fill="#DADEE3"/>
<path d="M123.077 33.6269C122.279 34.3983 121.49 34.9068 120.228 34.9068C118.317 34.9068 116.844 33.3201 116.844 31.2776V31.2425C116.844 29.2 118.308 27.6484 120.228 27.6484C121.271 27.6484 122.104 28.0166 122.998 28.8669L123.077 28.9458L123.91 28.0516L123.831 27.9727C123.033 27.2188 122.034 26.5088 120.246 26.5088C117.633 26.5088 115.582 28.5951 115.582 31.2776V31.3127C115.582 34.0214 117.563 36.0464 120.211 36.0464C122.06 36.0464 123.103 35.2311 123.884 34.4334L123.962 34.3545L123.147 33.5568L123.077 33.6269Z" fill="#DADEE3"/>
<path d="M138.339 30.8132H133.324V26.7983H132.106V36.0291H133.324V31.9704H138.339V36.0291H139.557V26.8071H138.339V30.8132Z" fill="#DADEE3"/>
<path d="M154.609 33.8464L149.104 26.851L149.069 26.8071H147.964V36.0291H149.165V28.8321L154.811 35.9941L154.846 36.0291H155.801V26.8071H154.618V33.8464H154.609Z" fill="#DADEE3"/>
<path d="M167.942 26.5264C165.295 26.5264 163.217 28.6127 163.217 31.2952V31.3302C163.217 34.039 165.233 36.064 167.907 36.064C170.555 36.064 172.632 33.9776 172.632 31.2952V31.2601C172.632 28.5601 170.616 26.5264 167.942 26.5264ZM171.37 31.3039C171.37 33.3464 169.897 34.8981 167.942 34.8981C165.97 34.8981 164.48 33.3464 164.48 31.2689V31.2338C164.48 29.1913 165.952 27.6397 167.907 27.6397C169.845 27.6397 171.37 29.2263 171.37 31.2689V31.3039Z" fill="#DADEE3"/>
<path d="M182.038 26.8159H180.819V36.0379H187.113V34.8896H182.038V26.8159Z" fill="#DADEE3"/>
<path d="M200.036 26.5264C197.388 26.5264 195.311 28.6127 195.311 31.2952V31.3302C195.311 34.039 197.327 36.064 200 36.064C202.648 36.064 204.725 33.9776 204.725 31.2952V31.2601C204.725 28.5601 202.709 26.5264 200.036 26.5264ZM203.463 31.3215C203.463 33.364 201.99 34.9156 200.036 34.9156C198.063 34.9156 196.573 33.364 196.573 31.2864V31.2513C196.573 29.2088 198.046 27.6572 200 27.6572C201.973 27.6572 203.463 29.2088 203.463 31.2864V31.3215Z" fill="#DADEE3"/>
<path d="M216.34 31.9529H219.075V34.0393C218.4 34.574 217.48 34.8808 216.568 34.8808C214.491 34.8808 213.106 33.4169 213.106 31.2341V31.199C213.106 29.1828 214.57 27.6049 216.428 27.6049C217.769 27.6049 218.506 28.0783 219.102 28.6042L219.181 28.6656L219.978 27.7276L219.899 27.6663C218.865 26.7896 217.866 26.4478 216.472 26.4478C213.868 26.4478 211.843 28.5341 211.843 31.2166V31.2516C211.843 34.048 213.763 35.9854 216.533 35.9854C218.374 35.9854 219.636 35.1087 220.224 34.5828L220.259 34.5477V30.8133H216.34V31.9529Z" fill="#DADEE3"/>
<path d="M232.733 26.8159H231.506V36.0379H232.733V26.8159Z" fill="#DADEE3"/>
<path d="M245.988 31.9529H250.905V30.8308H245.988V27.9555H251.493V26.8159H244.76V36.0379H251.554V34.8983H245.988V31.9529Z" fill="#DADEE3"/>
<path d="M264.686 30.7079C262.687 30.2783 262.319 29.8137 262.319 29.0598V29.0247C262.319 28.227 263.073 27.6748 264.134 27.6748C265.072 27.6748 265.869 27.9816 266.676 28.6303L266.755 28.6916L267.473 27.7361L267.395 27.6748C266.413 26.877 265.44 26.5352 264.169 26.5352C262.38 26.5352 261.109 27.6134 261.109 29.1036V29.1387C261.109 30.813 262.354 31.4267 264.212 31.8475C266.132 32.2507 266.474 32.7065 266.474 33.4604V33.4955C266.474 34.3371 265.694 34.9244 264.563 34.9244C263.397 34.9244 262.521 34.5562 261.53 33.6796L261.451 33.6007L260.68 34.5036L260.759 34.565C261.881 35.5643 263.082 36.0377 264.511 36.0377C266.386 36.0377 267.693 34.9419 267.693 33.3903V33.3552C267.719 31.9702 266.816 31.1725 264.686 30.7079Z" fill="#DADEE3"/>
</svg>
