<svg width="269" height="37" viewBox="0 0 269 37" fill="none" xmlns="http://www.w3.org/2000/svg">
<path d="M47.8591 1.01273L52.2636 5.41722C56.2364 4.92391 60.3943 6.19241 63.451 9.24912C68.7099 14.4993 68.7099 23.0263 63.451 28.2765C62.7286 28.9988 61.9358 29.6243 61.099 30.144L30.9547 0.00851221H23.4318L43.8598 20.4277C43.6396 22.1454 43.1023 23.8279 42.2214 25.3695C41.6312 26.4002 40.9088 27.3956 40.0279 28.2765C39.5611 28.7434 39.0678 29.1398 38.5745 29.5097C38.2838 29.73 37.9843 29.9414 37.6759 30.1264L7.52286 0.00851221H0L36.5308 36.5305C38.2749 35.9403 39.9487 35.077 41.4902 33.9671C41.7369 33.7997 41.9835 33.6235 42.2126 33.4385C42.7499 33.0069 43.2784 32.54 43.7894 32.0467C44.5734 31.2627 45.2605 30.4082 45.8771 29.5274C46.9165 28.0563 47.7005 26.4706 48.2731 24.8322L59.9714 36.5305C61.7156 35.9403 63.3893 35.077 64.9309 33.9671C65.7325 33.3945 66.5077 32.7602 67.2212 32.0379C74.5591 24.7353 74.5591 12.8344 67.2212 5.4965C61.9887 0.255163 54.4306 -1.23355 47.8591 1.01273Z" fill="white"/>
<path d="M96.4848 10.0596C96.2558 9.7953 95.9915 9.54865 95.6832 9.33724C95.3749 9.11701 95.1546 8.98488 95.0489 8.92322C94.9256 8.86155 94.8287 8.82632 94.7582 8.79989L94.9432 8.69418C95.0666 8.6149 95.2251 8.49158 95.4101 8.30659C95.5951 8.1216 95.7801 7.90138 95.9651 7.64592C96.1501 7.38165 96.3086 7.07333 96.4319 6.68574C96.5553 6.29814 96.6169 5.90174 96.6169 5.46129C96.6169 4.33375 96.1412 3.32952 95.1811 2.48386C94.2209 1.6382 93.0141 1.19775 91.5518 1.19775H84.6279V17.3446H91.957C93.5514 17.3446 94.8816 16.8777 95.8946 15.9528C96.9341 15.0278 97.4362 13.9179 97.4362 12.6142C97.4362 12.0856 97.3481 11.61 97.1455 11.1607C96.9252 10.6762 96.7138 10.3238 96.4848 10.0596ZM88.0722 4.05186H91.2875C91.8601 4.05186 92.3094 4.21042 92.6353 4.52754C92.9612 4.83586 93.1286 5.2675 93.1286 5.79603C93.1286 6.32457 92.9612 6.73859 92.6353 7.06453C92.3094 7.37284 91.8513 7.54021 91.2875 7.54021H88.0722V4.05186ZM93.3312 13.8474C92.9172 14.2526 92.3886 14.4464 91.7544 14.4464H88.0722V10.2798H91.7544C92.3886 10.2798 92.9172 10.4824 93.3312 10.8788C93.7452 11.284 93.9478 11.7773 93.9478 12.3587C93.9478 12.9489 93.7452 13.4422 93.3312 13.8474Z" fill="white"/>
<path d="M106.403 1.18018H102.941V17.327H113.9V14.2263H106.403V1.18018Z" fill="white"/>
<path d="M131.994 3.31199C130.311 1.67352 128.224 0.83667 125.766 0.83667C123.308 0.83667 121.238 1.6559 119.538 3.31199C117.838 4.95046 117.001 6.94128 117.001 9.25804C117.001 11.5748 117.855 13.5568 119.538 15.2041C121.238 16.8602 123.308 17.6794 125.766 17.6794C128.224 17.6794 130.294 16.8602 131.994 15.2041C133.694 13.548 134.531 11.5748 134.531 9.25804C134.548 6.92366 133.694 4.95046 131.994 3.31199ZM129.448 13.0107C128.444 14.0325 127.219 14.5434 125.766 14.5434C124.33 14.5434 123.088 14.0325 122.084 13.0107C121.08 11.9888 120.569 10.7379 120.569 9.24042C120.569 7.76052 121.08 6.49203 122.084 5.47019C123.088 4.44835 124.312 3.93743 125.766 3.93743C127.219 3.93743 128.435 4.44835 129.448 5.47019C130.452 6.49203 130.963 7.76052 130.963 9.24042C130.963 10.7379 130.452 11.9888 129.448 13.0107Z" fill="white"/>
<path d="M152.254 16.5518C152.729 16.27 153.196 15.9528 153.61 15.5829C154.024 15.2129 154.306 14.9486 154.43 14.8077C154.553 14.6491 154.65 14.5434 154.712 14.4553L152.624 12.2619L152.439 12.4909C152.315 12.6583 152.13 12.8433 151.849 13.0811C151.584 13.3101 151.258 13.5304 150.906 13.7418C150.554 13.962 150.104 14.1558 149.576 14.3144C149.039 14.4729 148.475 14.561 147.893 14.561C146.378 14.561 145.127 14.0501 144.106 13.0459C143.084 12.024 142.59 10.7732 142.59 9.25802C142.59 7.74288 143.101 6.49201 144.106 5.47017C145.127 4.44833 146.378 3.95502 147.893 3.95502C148.448 3.95502 148.977 4.0343 149.497 4.20167C150.025 4.36905 150.439 4.55403 150.765 4.75664C151.091 4.95925 151.382 5.18828 151.664 5.45255C151.945 5.71682 152.113 5.90181 152.192 6.00751C152.271 6.11322 152.333 6.21012 152.377 6.25416L154.571 4.06073L154.306 3.71718C154.139 3.49696 153.875 3.2415 153.487 2.91557C153.117 2.60725 152.668 2.28132 152.192 1.97301C151.699 1.66469 151.065 1.38281 150.307 1.17139C149.549 0.951167 148.73 0.845459 147.885 0.845459C145.427 0.845459 143.339 1.66469 141.657 3.32078C139.974 4.95925 139.12 6.95007 139.12 9.26683C139.12 11.5836 139.974 13.5656 141.657 15.2129C143.357 16.869 145.427 17.6882 147.885 17.6882C148.721 17.6882 149.541 17.5825 150.325 17.3358C151.144 17.0892 151.778 16.8249 152.254 16.5518Z" fill="white"/>
<path d="M173.625 1.18018H169.59L163.256 8.20973V1.18018H159.777V17.327H163.256V12.7111L165.326 10.412L170.057 17.3358H174.091L167.634 7.86618L173.625 1.18018Z" fill="white"/>
<path d="M197.144 1.18018L193.806 12.2442L190.45 1.18018H187.234L183.896 12.2442L180.54 1.18018H176.849L182.152 17.327H185.393L188.838 6.48317L192.3 17.327H195.532L200.844 1.18018H197.144Z" fill="white"/>
<path d="M215.141 17.3182H218.832L212.481 1.17139H208.799L202.448 17.3182H206.139L207.531 13.5216H213.758L215.141 17.3182ZM208.676 10.5265L210.658 5.23232L212.622 10.5265H208.676Z" fill="white"/>
<path d="M233.13 1.18018H220.445V4.29855H225.07V17.3182H228.531V4.29855H233.139V1.18018H233.13Z" fill="white"/>
<path d="M250.077 14.2174H241.436V10.6322H247.989V7.53144H241.436V4.29855H249.839V1.18018H237.956V17.327H250.068V14.2174H250.077Z" fill="white"/>
<path d="M265.176 17.3182H268.867L265.405 11.2048L265.696 11.0463C265.898 10.9494 266.145 10.782 266.418 10.5353C266.7 10.2887 266.991 9.99799 267.255 9.63682C267.537 9.29327 267.766 8.83521 267.968 8.28024C268.171 7.72528 268.277 7.10865 268.277 6.4744C268.277 4.9945 267.748 3.74362 266.7 2.70417C265.652 1.68233 264.339 1.1626 262.727 1.1626H255.574V17.3094H259.036V11.6717H262.031L265.176 17.3182ZM259.071 4.29859H262.639C263.273 4.29859 263.802 4.50119 264.216 4.91522C264.63 5.32924 264.832 5.84016 264.832 6.4744C264.832 7.0646 264.612 7.55791 264.216 7.95431C263.802 8.35952 263.273 8.55332 262.639 8.55332H259.071V4.29859Z" fill="white"/>
<path d="M84.4604 27.5453H87.5084V35.6672H88.7416V27.5453H91.7895V26.4001H84.4604V27.5453Z" fill="white"/>
<path d="M102.061 31.5622H107.003V30.4347H102.061V27.5453H107.593V26.4001H100.828V35.676H107.655V34.5308H102.061V31.5622Z" fill="white"/>
<path d="M123.678 33.2623C122.876 34.0374 122.083 34.5484 120.815 34.5484C118.894 34.5484 117.414 32.9539 117.414 30.9015V30.8662C117.414 28.8137 118.886 27.2545 120.815 27.2545C121.863 27.2545 122.7 27.6245 123.598 28.479L123.678 28.5583L124.515 27.6598L124.435 27.5805C123.634 26.8229 122.629 26.1094 120.832 26.1094C118.207 26.1094 116.146 28.2059 116.146 30.9015V30.9367C116.146 33.6587 118.137 35.6935 120.797 35.6935C122.656 35.6935 123.704 34.8743 124.488 34.0727L124.567 33.9934L123.748 33.1918L123.678 33.2623Z" fill="white"/>
<path d="M139.014 30.4347H133.975V26.4001H132.751V35.676H133.975V31.5974H139.014V35.676H140.239V26.409H139.014V30.4347Z" fill="white"/>
<path d="M155.364 33.4825L149.832 26.453L149.796 26.4089H148.687V35.676H149.893V28.4438L155.566 35.6407L155.602 35.676H156.562V26.4089H155.373V33.4825H155.364Z" fill="white"/>
<path d="M168.762 26.1272C166.102 26.1272 164.014 28.2237 164.014 30.9193V30.9545C164.014 33.6765 166.04 35.7114 168.727 35.7114C171.387 35.7114 173.475 33.6148 173.475 30.9193V30.884C173.475 28.1709 171.449 26.1272 168.762 26.1272ZM172.207 30.9281C172.207 32.9806 170.727 34.5398 168.762 34.5398C166.78 34.5398 165.283 32.9806 165.283 30.8928V30.8576C165.283 28.8051 166.763 27.2459 168.727 27.2459C170.674 27.2459 172.207 28.8404 172.207 30.8928V30.9281Z" fill="white"/>
<path d="M182.927 26.4177H181.702V35.6848H188.027V34.5308H182.927V26.4177Z" fill="white"/>
<path d="M201.012 26.1272C198.352 26.1272 196.264 28.2237 196.264 30.9193V30.9545C196.264 33.6765 198.29 35.7114 200.977 35.7114C203.637 35.7114 205.725 33.6148 205.725 30.9193V30.884C205.725 28.1709 203.699 26.1272 201.012 26.1272ZM204.457 30.9457C204.457 32.9982 202.977 34.5574 201.012 34.5574C199.03 34.5574 197.533 32.9982 197.533 30.9105V30.8752C197.533 28.8227 199.013 27.2636 200.977 27.2636C202.959 27.2636 204.457 28.8227 204.457 30.9105V30.9457Z" fill="white"/>
<path d="M217.396 31.5799H220.145V33.6764C219.467 34.2138 218.542 34.5221 217.625 34.5221C215.538 34.5221 214.146 33.051 214.146 30.8575V30.8223C214.146 28.7963 215.617 27.2106 217.485 27.2106C218.832 27.2106 219.572 27.6863 220.171 28.2149L220.251 28.2765L221.052 27.334L220.973 27.2723C219.933 26.3914 218.929 26.0479 217.529 26.0479C214.912 26.0479 212.877 28.1444 212.877 30.8399V30.8752C212.877 33.6852 214.807 35.632 217.59 35.632C219.44 35.632 220.709 34.7511 221.299 34.2226L221.334 34.1873V30.4347H217.396V31.5799Z" fill="white"/>
<path d="M233.869 26.4177H232.636V35.6848H233.869V26.4177Z" fill="white"/>
<path d="M247.188 31.5798H252.13V30.4522H247.188V27.5629H252.72V26.4177H245.955V35.6848H252.782V34.5396H247.188V31.5798Z" fill="white"/>
<path d="M265.978 30.3291C263.969 29.8974 263.599 29.4305 263.599 28.673V28.6377C263.599 27.8361 264.357 27.2812 265.423 27.2812C266.365 27.2812 267.167 27.5895 267.977 28.2413L268.057 28.303L268.779 27.3428L268.7 27.2812C267.713 26.4795 266.735 26.136 265.458 26.136C263.661 26.136 262.384 27.2195 262.384 28.717V28.7522C262.384 30.4348 263.635 31.0514 265.502 31.4742C267.431 31.8794 267.775 32.3375 267.775 33.0951V33.1303C267.775 33.976 266.991 34.5662 265.855 34.5662C264.683 34.5662 263.802 34.1962 262.807 33.3153L262.727 33.236L261.952 34.1433L262.031 34.205C263.159 35.2092 264.366 35.6849 265.802 35.6849C267.687 35.6849 268.999 34.5838 268.999 33.0246V32.9894C269.026 31.5975 268.118 30.7959 265.978 30.3291Z" fill="white"/>
</svg>
