<svg width="243" height="45" viewBox="0 0 243 45" fill="none" xmlns="http://www.w3.org/2000/svg">
<path d="M0.000635663 0.18176C0.282234 0.18176 0.512344 0.18176 0.742454 0.18176C6.31467 0.18176 11.8869 0.186831 17.4591 0.179225C19.1868 0.176689 20.879 0.364308 22.5292 0.902446C26.6146 2.2348 28.5394 5.44904 28.6748 9.23629C28.718 10.4488 28.5794 11.6411 28.1484 12.7858C27.5878 14.2747 26.5624 15.3612 25.1945 16.1465C24.9599 16.2809 24.7235 16.4121 24.4056 16.5915C24.5893 16.7081 24.6911 16.7968 24.8099 16.8456C28.4612 18.3345 30.1412 21.1647 30.3472 24.9773C30.4336 26.5752 30.2092 28.1434 29.6492 29.6462C28.3309 33.1831 25.7507 35.2215 22.0689 35.9346C20.7538 36.1894 19.4227 36.2801 18.0872 36.282C12.2823 36.2896 6.47677 36.2851 0.67126 36.2851C0.462763 36.2851 0.254265 36.2851 0 36.2851C0.000635663 24.2401 0.000635663 12.2547 0.000635663 0.18176ZM9.84324 21.0018C9.84324 23.4827 9.84324 25.8964 9.84324 28.3671C10.1178 28.3671 10.348 28.3671 10.5781 28.3671C12.2066 28.3671 13.8352 28.381 15.4638 28.3608C16.1369 28.3525 16.8152 28.3113 17.4814 28.2156C18.8735 28.0153 19.9058 27.2921 20.2999 25.9128C20.715 24.4613 20.5917 23.0656 19.4754 21.905C19.3311 21.7548 19.15 21.6344 18.9714 21.5241C18.344 21.1355 17.6498 20.9676 16.9175 20.9657C14.6965 20.9606 12.4762 20.9625 10.2551 20.9644C10.1312 20.9644 10.0072 20.9866 9.84324 21.0018ZM9.75997 8.01613C9.75997 10.0799 9.75997 12.0943 9.75997 14.1702C10.0072 14.1702 10.2132 14.1702 10.4198 14.1702C12.007 14.1702 13.5936 14.1689 15.1809 14.1714C15.3913 14.1721 15.6055 14.1702 15.8127 14.2038C17.2398 14.4332 18.6078 13.6067 19.0305 12.2407C19.2275 11.6031 19.2383 10.9483 19.1106 10.2992C18.9008 9.22995 18.2442 8.52701 17.2169 8.20121C16.7999 8.06874 16.3461 7.99711 15.9081 7.99204C13.9617 7.96922 12.0147 7.97936 10.0676 7.98C9.98563 7.97936 9.90363 7.99838 9.75997 8.01613Z" fill="white"/>
<path d="M124.265 36.2546C121.223 36.2546 118.286 36.2546 115.281 36.2546C115.269 35.9909 115.249 35.7462 115.249 35.5022C115.247 31.0032 115.259 26.5035 115.236 22.0044C115.233 21.2083 115.145 20.3989 114.983 19.6199C114.805 18.7692 114.348 18.06 113.511 17.6638C112.171 17.0287 110.572 17.4268 109.71 18.6273C109.11 19.462 108.889 20.4255 108.804 21.4251C108.768 21.8453 108.775 22.2694 108.774 22.6915C108.772 26.937 108.773 31.1832 108.773 35.4287C108.773 35.6797 108.773 35.9307 108.773 36.1678C108.273 36.3104 100.239 36.3376 99.5151 36.2045C99.5151 27.6697 99.5151 19.128 99.5151 10.5501C102.375 10.5501 105.202 10.5501 108.106 10.5501C108.106 11.8191 108.106 13.0519 108.106 14.2848C108.157 14.3038 108.207 14.3228 108.258 14.3418C108.369 14.184 108.486 14.0306 108.588 13.8677C109.224 12.8567 109.977 11.9522 110.955 11.248C112.614 10.0526 114.502 9.70141 116.496 9.78571C119.382 9.90805 121.537 11.2036 122.859 13.8024C122.923 13.9273 123.01 14.0401 123.143 14.2461C123.325 13.9888 123.468 13.7916 123.605 13.5913C124.851 11.7779 126.491 10.5159 128.672 10.0335C130.286 9.67669 131.91 9.65261 133.524 10.0228C135.867 10.5603 137.528 11.956 138.563 14.106C139.414 15.8745 139.709 17.7646 139.729 19.7042C139.749 21.6685 139.741 23.6328 139.742 25.5977C139.744 28.8715 139.743 32.146 139.743 35.4198C139.743 35.6708 139.743 35.9212 139.743 36.1532C139.251 36.3097 131.701 36.3535 130.771 36.2115C130.759 35.9827 130.735 35.7386 130.735 35.4946C130.733 30.9955 130.734 26.4959 130.731 21.9968C130.73 21.1512 130.701 20.3076 130.452 19.488C129.907 17.6955 128.129 16.8791 126.403 17.629C125.731 17.9212 125.27 18.4314 124.93 19.0602C124.553 19.7593 124.371 20.518 124.309 21.3027C124.273 21.7439 124.268 22.1889 124.268 22.6319C124.265 26.899 124.266 31.1654 124.266 35.4325C124.265 35.6822 124.265 35.932 124.265 36.2546Z" fill="white"/>
<path d="M233.349 13.1807C233.349 12.2888 233.349 11.397 233.349 10.4703C236.258 10.4703 239.086 10.4703 241.963 10.4703C241.976 10.67 241.998 10.8532 241.998 11.037C242 18.3237 242.005 25.6098 241.994 32.8965C241.993 34.3582 241.802 35.8015 241.379 37.208C240.292 40.8139 237.934 43.1382 234.308 44.1816C231.954 44.8585 229.549 44.927 227.128 44.7495C225.515 44.631 223.942 44.3083 222.445 43.6764C219.321 42.3586 217.406 40.0615 216.792 36.7161C216.778 36.6362 216.778 36.5538 216.772 36.479C217.24 36.3263 224.048 36.2673 225.418 36.3985C225.455 36.4518 225.512 36.5145 225.546 36.5874C226.022 37.6066 226.851 38.1714 227.927 38.3983C228.809 38.584 229.697 38.5796 230.569 38.3413C231.549 38.0732 232.259 37.4672 232.627 36.5196C232.8 36.0715 232.949 35.5923 232.988 35.1175C233.06 34.2358 233.046 33.3466 233.061 32.4598C233.063 32.3654 233.018 32.2703 232.976 32.108C232.796 32.2817 232.657 32.404 232.531 32.5384C230.655 34.5471 228.311 35.3077 225.627 34.9927C221.143 34.4659 218.344 31.8836 216.967 27.6863C216.189 25.317 216.117 22.8754 216.411 20.4167C216.659 18.3415 217.229 16.3626 218.284 14.5434C219.35 12.7053 220.759 11.1891 222.762 10.3917C225.693 9.22482 228.571 9.33891 231.229 11.1676C231.859 11.6011 232.33 12.2641 232.871 12.8257C232.993 12.9512 233.098 13.0919 233.212 13.2257C233.259 13.2111 233.304 13.1959 233.349 13.1807ZM233.436 22.3556C233.428 21.0309 233.178 19.6592 232.408 18.4118C230.889 15.9493 227.485 16.0945 226.121 18.4917C225.872 18.9278 225.659 19.4006 225.526 19.883C225.06 21.5868 225.064 23.3045 225.522 25.0114C225.749 25.857 226.132 26.6309 226.749 27.2705C227.359 27.9018 228.092 28.2859 228.979 28.3531C230.633 28.4786 231.772 27.6895 232.554 26.3121C233.229 25.1217 233.433 23.8147 233.436 22.3556Z" fill="white"/>
<path d="M151.392 13.2434C151.615 13.0336 151.716 12.9601 151.791 12.8657C153.258 11.0421 155.171 10.0191 157.486 9.75348C159.9 9.47712 162.17 9.86693 164.194 11.302C165.59 12.292 166.609 13.5965 167.38 15.1051C168.315 16.9356 168.807 18.8961 169.006 20.9282C169.277 23.6817 169.144 26.4123 168.41 29.0941C167.93 30.8461 167.169 32.4636 165.971 33.848C164.232 35.8579 161.988 36.8651 159.363 37.0761C157.733 37.2074 156.148 37.0261 154.654 36.3136C153.302 35.669 152.217 34.7208 151.425 33.448C151.337 33.3067 151.249 33.1653 151.111 32.9435C150.936 33.3529 151.032 33.7015 151.015 34.0337C150.997 34.3918 151.011 34.7518 151.011 35.1106C151.011 35.4681 151.011 35.8256 151.011 36.1697C150.497 36.3155 143.056 36.3326 142.403 36.1945C142.403 24.2344 142.403 12.2667 142.403 0.298359C142.83 0.155109 150.443 0.109472 151.386 0.258427C151.386 1.31378 151.386 2.38372 151.386 3.45429C151.386 4.5312 151.386 5.60874 151.386 6.68565C151.386 7.76256 151.385 8.8401 151.386 9.91701C151.387 10.9774 151.38 12.0379 151.392 13.2434ZM159.833 22.9407C159.819 22.6808 159.815 22.1725 159.761 21.6698C159.629 20.4446 159.355 19.2587 158.716 18.1805C157.221 15.6533 154.038 15.9392 152.611 17.8015C152.102 18.4657 151.742 19.2004 151.523 20.0015C150.975 21.9969 150.963 24.0081 151.429 26.0155C151.695 27.1609 152.178 28.2143 153.053 29.044C154.719 30.6223 157.308 30.3694 158.57 28.4621C158.936 27.9082 159.194 27.2642 159.402 26.6291C159.768 25.5167 159.829 24.3523 159.833 22.9407Z" fill="white"/>
<path d="M196.435 25.8416C190.657 25.8416 184.965 25.8416 179.211 25.8416C179.283 26.9064 179.538 27.8521 180.046 28.7173C181.168 30.6284 183.835 31.3282 185.775 30.2379C186.366 29.9064 186.802 29.4311 187.113 28.8352C187.2 28.6685 187.281 28.4987 187.371 28.3155C190.238 28.3155 193.091 28.3155 196.004 28.3155C195.974 28.5094 195.966 28.6704 195.921 28.82C194.815 32.5464 192.477 35.1268 188.74 36.3286C185.399 37.403 182.021 37.4429 178.687 36.3109C175.063 35.0812 172.507 32.6535 171.184 29.0742C169.662 24.9555 169.719 20.812 171.589 16.8073C173.403 12.9212 176.559 10.6964 180.769 9.96938C182.901 9.60048 185.04 9.67591 187.13 10.2609C190.762 11.2776 193.318 13.5627 194.868 16.9728C195.933 19.3174 196.356 21.8052 196.433 24.3609C196.447 24.8217 196.435 25.2832 196.435 25.8416ZM187.409 20.6415C187.386 20.3258 187.383 20.0957 187.352 19.8701C186.976 17.1426 185.132 15.6721 182.536 16.0277C181.683 16.1443 180.968 16.5284 180.423 17.1927C179.631 18.1587 179.3 19.2971 179.232 20.5249C179.23 20.5566 179.275 20.5908 179.311 20.6421C181.977 20.6415 184.656 20.6415 187.409 20.6415Z" fill="white"/>
<path d="M56.512 37.1856C54.5542 37.1216 52.6656 36.8066 50.8565 36.0713C47.5727 34.7358 45.3046 32.3855 44.1013 29.0825C42.7766 25.4461 42.7499 21.7438 44.0327 18.0935C45.4089 14.1769 48.1632 11.6301 52.1603 10.4645C54.9673 9.64556 57.8126 9.61451 60.6286 10.3789C64.8697 11.53 67.7276 14.2277 69.0962 18.3844C70.2538 21.8998 70.2309 25.4645 68.9812 28.9564C67.4181 33.3242 64.2423 35.892 59.7208 36.811C58.6694 37.0247 57.5825 37.0652 56.512 37.1856ZM52.2238 23.7798C52.255 24.2215 52.2798 24.9612 52.3662 25.6933C52.515 26.9572 52.7838 28.1926 53.4869 29.2866C54.8103 31.346 57.552 31.4747 59.0731 29.5522C59.6763 28.7903 60.0247 27.9112 60.2332 26.9762C60.7214 24.7838 60.729 22.5792 60.3158 20.3773C60.1041 19.2484 59.7323 18.1715 58.9434 17.2917C57.5437 15.7305 55.0869 15.778 53.7488 17.3893C53.2396 18.0022 52.9364 18.7191 52.7203 19.4753C52.3459 20.7848 52.2537 22.1298 52.2238 23.7798Z" fill="white"/>
<path d="M84.2777 37.1816C82.3199 37.129 80.4307 36.8165 78.6222 36.0768C75.5024 34.8002 73.2839 32.5944 72.0488 29.481C70.5239 25.6354 70.4705 21.7113 71.9217 17.8448C73.5897 13.4002 76.9421 10.913 81.5717 10.0922C83.9599 9.66878 86.3392 9.76892 88.6784 10.4471C92.4453 11.5386 95.1113 13.894 96.5091 17.5405C98.036 21.5236 98.0462 25.5727 96.4487 29.5387C94.8017 33.6282 91.6533 35.976 87.3613 36.8216C86.3493 37.0206 85.3062 37.0656 84.2777 37.1816ZM88.3847 23.2737C88.365 22.8788 88.3523 22.245 88.2957 21.6156C88.2544 21.1547 88.1692 20.6958 88.0771 20.242C87.8902 19.3255 87.587 18.4501 87.0416 17.6781C85.5725 15.6003 82.658 15.6244 81.285 17.7643C80.9049 18.3563 80.6233 19.0485 80.4574 19.7337C79.8662 22.1683 79.8878 24.6232 80.4008 27.073C80.5883 27.9692 80.908 28.8173 81.4674 29.5532C82.726 31.2095 85.0411 31.3717 86.5356 29.9196C87.1585 29.3143 87.5317 28.5638 87.805 27.7563C88.2703 26.3789 88.3644 24.9502 88.3847 23.2737Z" fill="white"/>
<path d="M41.1813 36.3252C38.1486 36.3252 35.1082 36.3252 32.071 36.3252C31.9426 35.8467 31.9178 0.927341 32.0494 0.216797C35.084 0.216797 38.1257 0.216797 41.1654 0.216797C41.2932 0.685211 41.3148 35.6591 41.1813 36.3252Z" fill="white"/>
<path d="M206.843 14.8998C206.939 14.7559 207.031 14.6095 207.132 14.4687C207.65 13.75 208.109 12.9779 208.701 12.3244C210.33 10.523 212.424 9.83405 214.82 9.9716C214.967 9.97984 215.114 10.0109 215.258 10.0445C215.784 10.1675 215.804 10.1839 215.805 10.7195C215.809 13.0432 215.807 15.3675 215.805 17.6912C215.805 17.8129 215.784 17.9346 215.765 18.1311C215.379 18.0868 215.029 18.0487 214.678 18.005C213.745 17.8884 212.815 17.9099 211.897 18.1045C209.812 18.5469 208.444 19.8108 207.732 21.7948C207.291 23.0232 207.164 24.2997 207.167 25.5972C207.174 28.9142 207.169 32.2311 207.169 35.548C207.169 35.7958 207.169 36.043 207.169 36.3245C204.108 36.3245 201.128 36.3245 198.152 36.3245C198.023 35.8637 197.971 11.7286 198.1 10.53C200.937 10.4882 203.782 10.5199 206.704 10.5091C206.704 12.0158 206.704 13.4356 206.704 14.8554C206.75 14.8706 206.796 14.8852 206.843 14.8998Z" fill="white"/>
</svg>
