<svg width="275" height="66" viewBox="0 0 275 66" fill="none" xmlns="http://www.w3.org/2000/svg">
<path fill-rule="evenodd" clip-rule="evenodd" d="M56.3902 10.0233L56.7337 12.1008C57.0118 14.031 57.1263 15.994 57.1099 17.9406C57.1099 22.259 56.5865 26.5612 55.5559 30.7652C54.1655 36.4741 51.7445 41.8722 48.4075 46.6977C44.547 52.2431 38.9854 57.6903 30.8555 62.0742L29.8577 62.614L28.8598 62.0742C20.7299 57.6903 15.1683 52.2431 11.3078 46.6977C7.98714 41.8722 5.54981 36.4741 4.15939 30.7815C3.12884 26.5939 2.60539 22.2754 2.60539 17.9569C2.58903 15.994 2.7199 14.0474 2.98162 12.1008L3.32514 10.0233C3.35786 9.85975 3.35786 9.67982 3.30878 9.51624C3.27607 9.35266 3.19428 9.18908 3.09613 9.04186C3.01434 8.911 2.88348 8.78013 2.73626 8.69834C2.58903 8.6002 2.42546 8.55112 2.26188 8.51841C2.08194 8.48569 1.91836 8.48569 1.75478 8.53476C1.57484 8.56748 1.42762 8.64927 1.2804 8.74742C1.14954 8.84556 1.01868 8.97643 0.936886 9.12365C0.838739 9.27087 0.789665 9.43445 0.756949 9.59803L0.413434 11.6755C0.118991 13.7529 -0.0282297 15.8631 0.00448614 17.9569C0.00448614 22.4881 0.560655 27.0028 1.64028 31.4031C3.11249 37.4228 5.66432 43.099 9.18127 48.2027C13.2544 54.0588 19.1596 59.8168 27.6493 64.397L29.2524 65.2476C29.4487 65.3458 29.6614 65.4112 29.874 65.4112C30.0867 65.4112 30.2993 65.3621 30.4956 65.2476L32.115 64.3806C40.6048 59.8004 46.51 54.0588 50.5831 48.1863C54.1001 43.099 56.6519 37.4065 58.1241 31.4031C59.2037 27.0028 59.7435 22.4881 59.7599 17.9569C59.7763 15.8631 59.6454 13.7693 59.351 11.6918L59.0074 9.61439C58.9747 9.45081 58.9256 9.28723 58.8275 9.14001C58.7294 8.99279 58.6148 8.86192 58.484 8.76377C58.3368 8.66563 58.1895 8.58384 58.026 8.55112C57.8624 8.51841 57.6824 8.50205 57.5189 8.53476C57.3553 8.56748 57.1917 8.61655 57.0445 8.7147C56.8973 8.81285 56.7664 8.92735 56.6683 9.05822C56.5701 9.20544 56.5047 9.35266 56.4556 9.5326C56.3902 9.67982 56.3738 9.85975 56.3902 10.0233Z" fill="white"/>
<path fill-rule="evenodd" clip-rule="evenodd" d="M10.4735 8.60017L29.8739 2.67861L49.7161 8.73103C50.0432 8.82918 50.4031 8.79646 50.7139 8.63288C51.0247 8.4693 51.2537 8.19122 51.3519 7.86406C51.45 7.5369 51.4173 7.17703 51.2537 6.86623C51.0901 6.55543 50.812 6.32642 50.4849 6.22827L30.2502 0.0613421C30.0048 -0.0204474 29.7431 -0.0204474 29.4813 0.0613421L9.70465 6.09741C9.54107 6.14648 9.37749 6.22827 9.24663 6.34278C9.11576 6.45728 9.00126 6.58815 8.91947 6.73537C8.83768 6.88259 8.78861 7.04617 8.77225 7.2261C8.75589 7.38968 8.77225 7.56962 8.82132 7.7332C8.8704 7.89678 8.95218 8.044 9.06669 8.19122C9.18119 8.32208 9.31206 8.42023 9.45928 8.50202C9.62286 8.58381 9.78644 8.63288 9.95002 8.64924C10.13 8.6656 10.2935 8.64924 10.4735 8.60017Z" fill="white"/>
<path fill-rule="evenodd" clip-rule="evenodd" d="M0.88773 10.3995L28.6962 64.6913C28.8107 64.904 28.9742 65.0839 29.1705 65.2148C29.3668 65.3457 29.6122 65.4111 29.8412 65.4111C30.0866 65.4111 30.3156 65.3457 30.5119 65.2311C30.7245 65.1166 30.8881 64.9367 31.0026 64.7241L47.9658 33.0061L47.9985 32.957L58.8601 10.3831C59.0074 10.0723 59.0237 9.71244 58.9092 9.38528C58.7947 9.05812 58.5493 8.7964 58.2385 8.64918C57.9277 8.50195 57.5679 8.46924 57.2407 8.58374C56.9135 8.69825 56.6518 8.92726 56.4882 9.23806L45.6429 31.7956L29.9066 61.2889L3.21055 9.20534C3.12876 9.05812 3.03062 8.92726 2.89975 8.81275C2.76889 8.69825 2.60531 8.61646 2.44173 8.55103C2.27815 8.50195 2.11457 8.4856 1.93464 8.4856C1.77106 8.50195 1.59112 8.55103 1.4439 8.63282C1.29668 8.71461 1.14946 8.81275 1.05131 8.94362C0.936804 9.09084 0.855015 9.23806 0.789583 9.40164C0.740509 9.56522 0.724151 9.74515 0.740509 9.90873C0.756867 10.0887 0.805941 10.2522 0.88773 10.3995Z" fill="white"/>
<path fill-rule="evenodd" clip-rule="evenodd" d="M14.2032 34.5766H45.136C45.4795 34.5766 45.8066 34.4457 46.052 34.2003C46.2974 33.955 46.4282 33.6278 46.4282 33.2843C46.4282 32.9408 46.2974 32.6136 46.052 32.3683C45.8066 32.1229 45.4795 31.992 45.136 31.992H14.2032C13.8596 31.992 13.5325 32.1229 13.2871 32.3683C13.0254 32.5973 12.8945 32.9408 12.8945 33.2843C12.8945 33.6278 13.0254 33.955 13.2708 34.2003C13.5161 34.4457 13.8596 34.5766 14.2032 34.5766ZM100.475 23.3223H80.3545C80.011 23.3223 79.6675 23.4696 79.4221 23.7149C79.1767 23.9603 79.0295 24.2875 79.0295 24.6473V40.7926C79.0295 41.1361 79.1767 41.4796 79.4221 41.725C79.6675 41.9704 79.9946 42.1176 80.3545 42.1176H100.475V44.8493H80.3545C79.8311 44.8493 79.2913 44.7512 78.8005 44.5549C78.3098 44.3586 77.8681 44.0478 77.4919 43.6879C77.1157 43.3281 76.8212 42.87 76.6249 42.3793C76.4286 41.8886 76.3141 41.3651 76.3305 40.8253V24.6801C76.3305 24.1566 76.4286 23.6168 76.6249 23.126C76.8212 22.6353 77.132 22.1937 77.4919 21.8174C77.8681 21.4412 78.3098 21.1467 78.8005 20.9504C79.2913 20.7542 79.8147 20.6396 80.3545 20.656H100.475V23.3223ZM138.261 20.5906V23.3223H118.877V31.3214H134.45V34.0858H118.877V42.1012H138.261V44.833H116.146V20.5906H138.261Z" fill="white"/>
<path d="M178.158 24.6637V31.763C178.158 32.2865 178.06 32.8263 177.864 33.317C177.667 33.8078 177.357 34.2494 176.997 34.6257C176.621 35.0019 176.179 35.2963 175.688 35.4926C175.197 35.6889 174.674 35.8034 174.134 35.8034H170.437L178.044 44.8166H174.445L166.871 35.8034H157.973C157.531 35.7871 157.089 35.738 156.664 35.6726V44.8166H153.932V20.6233H174.118C174.641 20.6233 175.181 20.7214 175.672 20.9341C176.163 21.1304 176.604 21.4412 176.98 21.8011C177.357 22.1773 177.651 22.619 177.847 23.1097C178.044 23.6004 178.158 24.1239 178.158 24.6637ZM157.973 33.0389H174.118C174.281 33.0389 174.445 33.0062 174.609 32.9408C174.772 32.8754 174.903 32.7772 175.034 32.6627C175.148 32.5482 175.246 32.401 175.312 32.2538C175.377 32.0902 175.41 31.9266 175.41 31.763V24.6637C175.41 24.5001 175.377 24.3202 175.312 24.1566C175.246 23.993 175.148 23.8458 175.034 23.7313C174.919 23.6004 174.772 23.5023 174.625 23.4369C174.461 23.3714 174.298 23.3387 174.134 23.3387H157.989C157.645 23.3387 157.302 23.4859 157.056 23.7313C156.811 23.9767 156.664 24.3038 156.664 24.6637V31.763C156.664 31.9266 156.697 32.1065 156.762 32.2538C156.827 32.4173 156.926 32.5482 157.056 32.6627C157.171 32.7772 157.318 32.8754 157.482 32.9408C157.629 33.0226 157.809 33.0553 157.973 33.0389Z" fill="white"/>
<path fill-rule="evenodd" clip-rule="evenodd" d="M192.635 20.5906H216.844V23.3223H206.13V44.8166H203.398V23.3387H192.635V20.5906ZM231.534 44.8166V20.5906H234.266V44.8166H231.534ZM270.629 20.5906H274.13L264.004 32.6954L274.163 44.8003H270.629L261.616 34.0695H253.813V44.8003H251.065V20.5906H253.83V31.3214H261.632L270.629 20.5906Z" fill="white"/>
</svg>
