<svg width="274" height="66" viewBox="0 0 274 66" fill="none" xmlns="http://www.w3.org/2000/svg">
<path fill-rule="evenodd" clip-rule="evenodd" d="M56.9331 10.448L57.275 12.5154C57.5517 14.4363 57.6657 16.3897 57.6494 18.3268C57.6494 22.6243 57.1285 26.9055 56.1029 31.0891C54.7193 36.7703 52.3101 42.1422 48.9893 46.9443C45.1475 52.4627 39.6129 57.8834 31.5225 62.246L30.5295 62.7832L29.5365 62.246C21.4461 57.8834 15.9115 52.4627 12.0698 46.9443C8.76524 42.1422 6.33975 36.7703 4.95608 31.1054C3.93054 26.9381 3.40963 22.6406 3.40963 18.3431C3.39335 16.3897 3.52358 14.4525 3.78403 12.5154L4.12588 10.448C4.15844 10.2853 4.15844 10.1062 4.1096 9.94341C4.07705 9.78062 3.99565 9.61784 3.89798 9.47133C3.81659 9.34111 3.68636 9.21088 3.53986 9.12949C3.39335 9.03182 3.23057 8.98298 3.06778 8.95042C2.88872 8.91787 2.72594 8.91787 2.56315 8.9667C2.38409 8.99926 2.23758 9.08065 2.09108 9.17832C1.96085 9.27599 1.83062 9.40622 1.74923 9.55273C1.65156 9.69923 1.60272 9.86202 1.57017 10.0248L1.22832 12.0922C0.935308 14.1595 0.788802 16.2594 0.821359 18.3431C0.821359 22.8522 1.37483 27.3451 2.4492 31.724C3.91426 37.7144 6.4537 43.363 9.95356 48.4419C14.0069 54.2696 19.8834 59.9996 28.3319 64.5576L29.9272 65.404C30.1225 65.5017 30.3342 65.5668 30.5458 65.5668C30.7574 65.5668 30.969 65.518 31.1644 65.404L32.7759 64.5413C41.2244 59.9833 47.101 54.2696 51.1543 48.4256C54.6542 43.363 57.1936 37.6981 58.6587 31.724C59.733 27.3451 60.2702 22.8522 60.2865 18.3431C60.3028 16.2594 60.1725 14.1758 59.8795 12.1084L59.5377 10.0411C59.5051 9.8783 59.4563 9.71551 59.3586 9.56901C59.261 9.4225 59.147 9.29227 59.0168 9.1946C58.8703 9.09693 58.7238 9.01554 58.561 8.98298C58.3982 8.95042 58.2191 8.93415 58.0563 8.9667C57.8936 8.99926 57.7308 9.0481 57.5843 9.14577C57.4378 9.24344 57.3075 9.35739 57.2099 9.48761C57.1122 9.63412 57.0471 9.78063 56.9982 9.95969C56.9331 10.1062 56.9169 10.2853 56.9331 10.448Z" fill="white"/>
<path fill-rule="evenodd" clip-rule="evenodd" d="M11.2391 9.03202L30.5453 3.13923L50.2911 9.16225C50.6166 9.25992 50.9748 9.22736 51.2841 9.06458C51.5933 8.90179 51.8212 8.62506 51.9189 8.29949C52.0166 7.97392 51.984 7.6158 51.8212 7.30651C51.6585 6.99722 51.3817 6.76932 51.0562 6.67165L30.9197 0.534677C30.6756 0.453285 30.4151 0.453285 30.1546 0.534677L10.474 6.54142C10.3112 6.59026 10.1484 6.67165 10.0182 6.7856C9.88799 6.89955 9.77404 7.02977 9.69265 7.17628C9.61126 7.32279 9.56242 7.48557 9.54614 7.66463C9.52986 7.82742 9.54614 8.00648 9.59498 8.16926C9.64381 8.33205 9.72521 8.47855 9.83916 8.62506C9.9531 8.75529 10.0833 8.85296 10.2298 8.93435C10.3926 9.01574 10.5554 9.06458 10.7182 9.08086C10.8973 9.09714 11.06 9.08086 11.2391 9.03202Z" fill="white"/>
<path fill-rule="evenodd" clip-rule="evenodd" d="M1.70022 10.823L29.3736 64.8512C29.4875 65.0628 29.6503 65.2419 29.8456 65.3721C30.041 65.5023 30.2852 65.5674 30.5131 65.5674C30.7572 65.5674 30.9851 65.5023 31.1805 65.3884C31.3921 65.2744 31.5549 65.0953 31.6688 64.8837L48.5496 33.3198L48.5821 33.271L59.391 10.8068C59.5375 10.4975 59.5538 10.1393 59.4398 9.81377C59.3259 9.4882 59.0817 9.22775 58.7724 9.08124C58.4631 8.93474 58.105 8.90218 57.7794 9.01613C57.4539 9.13008 57.1934 9.35797 57.0306 9.66727L46.238 32.1152L30.5782 61.4653L4.01176 9.63471C3.93036 9.4882 3.83269 9.35798 3.70247 9.24403C3.57224 9.13008 3.40945 9.04868 3.24667 8.98357C3.08389 8.93474 2.9211 8.91846 2.74204 8.91846C2.57925 8.93474 2.40019 8.98357 2.25368 9.06496C2.10718 9.14636 1.96067 9.24403 1.863 9.37425C1.74905 9.52076 1.66766 9.66727 1.60255 9.83005C1.55371 9.99283 1.53743 10.1719 1.55371 10.3347C1.56999 10.5137 1.61883 10.6765 1.70022 10.823Z" fill="white"/>
<path fill-rule="evenodd" clip-rule="evenodd" d="M14.951 34.8819H45.7335C46.0753 34.8819 46.4009 34.7517 46.6451 34.5075C46.8893 34.2634 47.0195 33.9378 47.0195 33.5959C47.0195 33.2541 46.8893 32.9285 46.6451 32.6843C46.4009 32.4402 46.0753 32.3099 45.7335 32.3099H14.951C14.6091 32.3099 14.2835 32.4402 14.0394 32.6843C13.7789 32.9122 13.6487 33.2541 13.6487 33.5959C13.6487 33.9378 13.7789 34.2634 14.0231 34.5075C14.2673 34.7517 14.6091 34.8819 14.951 34.8819ZM100.803 23.6824H80.781C80.4391 23.6824 80.0973 23.8289 79.8531 24.073C79.6089 24.3172 79.4624 24.6428 79.4624 25.0009V41.0677C79.4624 41.4096 79.6089 41.7514 79.8531 41.9956C80.0973 42.2398 80.4228 42.3863 80.781 42.3863H100.803V45.1048H80.781C80.2601 45.1048 79.7229 45.0071 79.2345 44.8118C78.7462 44.6164 78.3066 44.3071 77.9322 43.949C77.5578 43.5909 77.2648 43.1351 77.0695 42.6467C76.8741 42.1584 76.7602 41.6375 76.7765 41.1003V25.0335C76.7765 24.5126 76.8741 23.9754 77.0695 23.487C77.2648 22.9987 77.5741 22.5592 77.9322 22.1847C78.3066 21.8103 78.7462 21.5173 79.2345 21.322C79.7229 21.1267 80.2438 21.0127 80.781 21.029H100.803V23.6824ZM138.407 20.9639V23.6824H119.117V31.6425H134.614V34.3936H119.117V42.37H138.407V45.0885H116.398V20.9639H138.407Z" fill="white"/>
<path d="M178.11 25.0174V32.0822C178.11 32.6031 178.012 33.1403 177.817 33.6286C177.621 34.117 177.312 34.5565 176.954 34.9309C176.58 35.3053 176.14 35.5983 175.652 35.7937C175.163 35.989 174.643 36.103 174.105 36.103H170.426L177.996 45.0724H174.415L166.878 36.103H158.022C157.583 36.0867 157.143 36.0379 156.72 35.9727V45.0724H154.001V20.9966H174.089C174.61 20.9966 175.147 21.0943 175.636 21.3059C176.124 21.5012 176.563 21.8105 176.938 22.1686C177.312 22.543 177.605 22.9826 177.801 23.4709C177.996 23.9593 178.11 24.4802 178.11 25.0174ZM158.022 33.3519H174.089C174.252 33.3519 174.415 33.3194 174.577 33.2542C174.74 33.1891 174.87 33.0915 175.001 32.9775C175.115 32.8636 175.212 32.7171 175.277 32.5706C175.342 32.4078 175.375 32.245 175.375 32.0822V25.0174C175.375 24.8546 175.342 24.6755 175.277 24.5127C175.212 24.3499 175.115 24.2034 175.001 24.0895C174.887 23.9593 174.74 23.8616 174.594 23.7965C174.431 23.7314 174.268 23.6988 174.105 23.6988H158.039C157.697 23.6988 157.355 23.8453 157.111 24.0895C156.866 24.3337 156.72 24.6592 156.72 25.0174V32.0822C156.72 32.245 156.753 32.424 156.818 32.5706C156.883 32.7333 156.98 32.8636 157.111 32.9775C157.225 33.0915 157.371 33.1891 157.534 33.2542C157.68 33.3356 157.859 33.3682 158.022 33.3519Z" fill="white"/>
<path fill-rule="evenodd" clip-rule="evenodd" d="M192.516 20.9639H216.608V23.6824H205.946V45.0722H203.227V23.6986H192.516V20.9639ZM231.226 45.0722V20.9639H233.945V45.0722H231.226ZM270.132 20.9639H273.615L263.539 33.0099L273.648 45.056H270.132L261.162 34.3773H253.397V45.056H250.663V20.9639H253.414V31.6425H261.179L270.132 20.9639Z" fill="white"/>
</svg>
