<svg width="353" height="61" viewBox="0 0 353 61" fill="none" xmlns="http://www.w3.org/2000/svg">
<g clip-path="url(#clip0_723_25786)">
<path d="M51.8754 36.2072C50.8191 36.8527 49.5868 36.97 48.6479 36.4419C47.4742 35.7377 46.77 34.1533 46.77 31.982V25.3509C46.77 22.182 45.5377 19.8934 43.4251 19.3066C39.8455 18.2503 37.1461 22.6515 36.1485 24.2946L29.8108 34.4467V21.9473C29.7521 19.0718 28.8132 17.37 27.0527 16.8419C25.879 16.4898 24.1185 16.6659 22.4167 19.2479L8.27425 41.8994C6.3964 38.3197 5.3988 34.3293 5.3988 30.2802C5.3988 16.6072 16.3724 5.51616 29.8108 5.51616C43.2491 5.51616 54.2227 16.6072 54.2227 30.2802V30.3389V30.3976C54.3401 33.0383 53.5185 35.1509 51.8754 36.2072ZM59.6215 30.2802V30.2215V30.1628C59.5628 13.5557 46.1832 0 29.8108 0C13.3796 0 0 13.5557 0 30.2802C0 46.9461 13.3796 60.5604 29.8108 60.5604C37.3808 60.5604 44.5401 57.685 50.0563 52.4622C51.1712 51.4059 51.2299 49.7042 50.1736 48.5892C49.176 47.4742 47.4742 47.4155 46.3592 48.4131C46.3592 48.4131 46.3592 48.4131 46.3006 48.4718C41.8407 52.697 35.8551 55.1029 29.6934 55.1029C22.4754 55.1029 16.0203 51.9341 11.5605 46.8874L24.2946 26.4658V35.9137C24.2946 40.4323 26.0551 41.8994 27.5221 42.3101C28.9892 42.7209 31.2191 42.4275 33.6251 38.6131L40.6084 27.2874C40.8431 26.9353 41.0191 26.5832 41.2539 26.3485V32.0994C41.2539 36.3245 42.9557 39.7281 45.8898 41.3712C48.5305 42.897 51.8754 42.7209 54.6335 41.0191C58.0371 38.7892 59.8562 34.9161 59.6215 30.2802ZM101.169 19.9521C101.873 20.3629 102.518 21.3605 102.518 22.2407C102.518 23.6491 101.345 24.8227 99.9951 24.8227C99.643 24.8227 99.3496 24.7054 99.0562 24.6467C97.4718 23.473 95.4766 22.7102 93.364 22.7102C88.376 22.7102 84.9724 26.7593 84.9724 31.806C84.9724 36.8527 88.4347 40.8431 93.364 40.8431C95.8287 40.8431 98.0586 39.8455 99.7017 38.261C100.112 37.9676 100.641 37.7916 101.169 37.7916C102.518 37.7916 103.575 38.8479 103.575 40.1976C103.575 41.0778 103.047 41.8407 102.401 42.2515C99.9951 44.3054 96.7676 45.6551 93.4227 45.6551C85.7939 45.6551 79.5736 39.376 79.5736 31.6299C79.5736 23.8838 85.7939 17.6048 93.4227 17.6048C96.2394 17.5461 98.9388 18.4263 101.169 19.9521ZM115.135 25.8203C120.358 25.8203 124.701 30.2215 124.701 35.679C124.701 41.0778 120.299 45.7137 115.135 45.7137C109.678 45.7137 105.159 41.1365 105.159 35.679C105.159 30.2215 109.678 25.8203 115.135 25.8203ZM115.077 40.8431C117.365 40.8431 119.302 38.6718 119.302 35.7377C119.302 32.8036 117.365 30.9257 115.077 30.9257C112.612 30.9257 110.558 32.7449 110.558 35.7377C110.558 38.6131 112.612 40.8431 115.077 40.8431ZM127.987 42.6622V28.8131C127.987 27.2874 129.16 26.0551 130.686 26.0551C132.153 26.0551 133.386 27.2874 133.386 28.8131V42.6622C133.386 44.188 132.153 45.4203 130.686 45.4203C129.219 45.4203 127.987 44.1293 127.987 42.6622ZM127.576 20.8323C127.576 19.0132 128.984 17.6048 130.686 17.6048C132.447 17.6048 133.855 19.0718 133.855 20.8323C133.855 22.5928 132.447 24.0012 130.686 24.0012C128.926 23.9425 127.576 22.5341 127.576 20.8323ZM143.714 35.1509V42.6622C143.714 44.188 142.481 45.4203 141.014 45.4203C139.547 45.4203 138.315 44.188 138.315 42.6622V28.1676C138.315 26.994 139.254 26.0551 140.427 26.0551C141.601 26.0551 142.481 27.0527 142.481 28.1676C144.653 26.1138 146.589 25.8203 148.408 25.8203C153.807 25.8203 156.213 29.8694 156.213 34.5054V42.6622C156.213 44.188 154.981 45.4203 153.514 45.4203C152.047 45.4203 150.814 44.188 150.814 42.6622V35.1509C150.814 32.8036 150.521 30.8084 147.117 30.8084C144.711 30.8084 143.714 32.8036 143.714 35.1509ZM173.7 38.0263C173.055 38.0263 172.644 37.7329 172.292 37.3221L166.013 30.5149V42.6622C166.013 44.188 164.781 45.4203 163.314 45.4203C161.847 45.4203 160.614 44.188 160.614 42.6622V18.6024C160.79 18.1916 161.201 17.8982 161.612 17.8982C162.081 17.8982 162.492 18.309 162.786 18.6024L172.82 29.8694C173.114 30.2215 173.466 30.3976 173.7 30.3976C173.877 30.3976 174.287 30.2215 174.581 29.8694L184.615 18.6024C184.909 18.309 185.261 17.8982 185.789 17.8982C186.259 17.8982 186.669 18.1916 186.787 18.6024V42.6622C186.787 44.188 185.613 45.4203 184.087 45.4203C182.62 45.4203 181.388 44.188 181.388 42.6622V30.5149L175.109 37.3221C174.639 37.7329 174.229 38.0263 173.7 38.0263ZM199.638 40.8431C202.044 40.8431 204.098 38.6718 204.098 35.7377C204.098 32.8036 201.985 30.867 199.638 30.867C197.291 30.867 195.354 32.8622 195.354 35.7377C195.354 38.5545 197.232 40.8431 199.638 40.8431ZM205.389 43.3078L205.272 42.6622C204.215 44.7161 200.871 45.6551 198.758 45.6551C193.711 45.6551 189.956 41.0778 189.956 35.6203C189.956 30.2215 193.77 25.7617 199.051 25.7617C199.932 25.7617 202.983 25.9964 205.33 28.7545L205.448 28.109C205.448 26.9353 206.328 25.9964 207.502 25.9964C208.675 25.9964 209.614 26.994 209.614 28.109V43.2491C209.614 44.4227 208.675 45.3616 207.502 45.3616C206.269 45.4203 205.389 44.4227 205.389 43.3078ZM224.461 30.8084H223.874C220.47 30.9844 219.825 32.9209 219.825 35.1509V42.6622C219.825 44.188 218.593 45.4203 217.126 45.4203C215.659 45.4203 214.426 44.188 214.426 42.6622V28.1676C214.426 26.994 215.365 26.0551 216.539 26.0551C217.712 26.0551 218.593 27.0527 218.593 28.1676C220.588 26.2898 222.231 25.879 223.874 25.8203H224.402C225.693 25.8203 226.867 26.9353 226.867 28.3437C226.926 29.6347 225.752 30.8084 224.461 30.8084ZM245.293 41.3712C245.528 41.782 245.704 42.1928 245.704 42.6622C245.704 44.0706 244.413 45.3616 243.005 45.3616C242.066 45.3616 241.244 44.6574 240.599 43.8359L234.378 36.6179V42.6036C234.378 44.1293 233.146 45.3616 231.679 45.3616C230.212 45.3616 228.979 44.1293 228.979 42.6036V20.5976C228.979 19.0718 230.153 17.8395 231.679 17.8395C233.205 17.8395 234.378 19.0718 234.378 20.5976V34.3293L240.599 27.4634C241.244 26.7593 242.007 25.9964 242.946 25.9964C244.296 25.9964 245.528 27.2287 245.528 28.6371C245.528 29.0479 245.411 29.5173 245.176 29.8694L240.247 35.2682L245.293 41.3712ZM255.856 30.867C254.389 30.867 251.983 31.6299 251.983 33.9185H259.788C259.729 31.6299 257.264 30.867 255.856 30.867ZM262.898 37.3808H251.983C251.983 40.6083 255.093 41.1365 256.443 41.1365C257.441 41.1365 258.849 40.9604 259.964 40.4323C260.316 40.1976 260.844 40.0215 261.372 40.0215C262.546 40.0215 263.544 41.0191 263.544 42.2515C263.544 43.073 263.015 43.7772 262.37 44.188C260.727 45.4203 258.556 45.7137 256.502 45.7137C251.044 45.7137 246.526 42.7796 246.526 35.9137C246.526 30.5149 249.284 25.8203 255.739 25.8203C260.961 25.8203 264.893 29.2239 265.011 35.2682C265.011 36.3832 264.072 37.3808 262.898 37.3808ZM277.921 45.6551H276.454C272.346 45.6551 269.94 43.8359 269.94 37.4395V30.8084H268.532C267.241 30.8084 266.126 29.6347 266.126 28.3437C266.126 26.9353 267.299 25.8203 268.532 25.8203H269.94V20.715C269.94 19.1892 271.114 17.9569 272.639 17.9569C274.106 17.9569 275.339 19.1892 275.339 20.715V25.8203H277.569C278.86 25.8203 279.975 26.9353 279.975 28.3437C279.975 29.6347 278.801 30.8084 277.569 30.8084H275.339V36.3832C275.339 40.0802 275.515 40.8431 277.158 40.8431H277.921C279.212 40.8431 280.327 41.8994 280.327 43.2491C280.327 44.5401 279.212 45.6551 277.921 45.6551ZM304.034 19.9521C304.739 20.3629 305.384 21.3605 305.384 22.2407C305.384 23.6491 304.211 24.8227 302.861 24.8227C302.509 24.8227 302.215 24.7054 301.922 24.6467C300.337 23.473 298.342 22.7102 296.23 22.7102C291.242 22.7102 287.838 26.7593 287.838 31.806C287.838 36.8527 291.3 40.8431 296.23 40.8431C298.694 40.8431 300.924 39.8455 302.567 38.261C302.978 37.9676 303.506 37.7916 304.034 37.7916C305.384 37.7916 306.44 38.8479 306.44 40.1976C306.44 41.0778 305.912 41.8407 305.267 42.2515C302.861 44.3054 299.633 45.6551 296.288 45.6551C288.66 45.6551 282.439 39.376 282.439 31.6299C282.439 23.8838 288.66 17.6048 296.288 17.6048C299.105 17.5461 301.863 18.4263 304.034 19.9521ZM317.708 40.8431C320.114 40.8431 322.167 38.6718 322.167 35.7377C322.167 32.8036 320.055 30.867 317.708 30.867C315.302 30.867 313.424 32.8622 313.424 35.7377C313.424 38.5545 315.36 40.8431 317.708 40.8431ZM323.458 43.3078L323.341 42.6622C322.285 44.7161 318.94 45.6551 316.827 45.6551C311.781 45.6551 308.025 41.0778 308.025 35.6203C308.025 30.2215 311.839 25.7617 317.121 25.7617C318.001 25.7617 321.052 25.9964 323.4 28.7545L323.517 28.109C323.517 26.9353 324.397 25.9964 325.571 25.9964C326.745 25.9964 327.684 26.994 327.684 28.109V43.2491C327.684 44.4227 326.745 45.3616 325.571 45.3616C324.339 45.4203 323.458 44.4227 323.458 43.3078ZM342.413 40.8431C344.819 40.8431 346.697 38.5545 346.697 35.7377C346.697 32.8036 344.76 30.867 342.413 30.867C340.007 30.867 337.953 32.8036 337.953 35.7377C337.953 38.6718 340.007 40.8431 342.413 40.8431ZM337.953 44.0706V50.9365C337.953 52.4622 336.721 53.6946 335.254 53.6946C333.787 53.6946 332.554 52.4622 332.554 50.9365V28.1676C332.554 26.994 333.493 26.0551 334.667 26.0551C335.84 26.0551 336.721 27.0527 336.721 28.4024C338.716 26.3485 341.181 25.8203 343.058 25.8203C348.281 25.8203 352.154 30.2215 352.154 35.679C352.154 41.0778 348.457 45.7137 343.352 45.7137C341.767 45.6551 339.42 45.1856 337.953 44.0706Z" fill="#72727F"/>
</g>
<defs>
<clipPath id="clip0_723_25786">
<rect width="352.154" height="60.5604" fill="white"/>
</clipPath>
</defs>
</svg>
