<svg width="284" height="67" viewBox="0 0 284 67" fill="none" xmlns="http://www.w3.org/2000/svg">
<path d="M41.2272 48.736L29.3939 53.9339V53.4093C27.1219 53.9815 24.5659 54.3153 22.1993 54.4584C11.0286 54.363 2.22466 48.4499 2.08266 41.4876V38.9126C5.72731 44.2535 13.206 47.8777 22.1993 47.7346C25.2286 47.8777 28.3526 47.4008 30.9559 46.6855L31.9972 44.1104C28.9206 45.0641 25.5126 45.6841 22.1993 45.6841C11.0286 45.6841 2.22466 39.8186 2.08266 32.7133V30.6151C5.72731 35.5745 13.206 39.151 22.1993 38.9126C26.2699 39.151 30.1986 38.2926 33.5592 36.8143L34.0799 34.2393C30.8139 35.956 26.6012 36.9574 22.2466 36.8143C11.076 36.9574 2.27199 31.0919 2.12999 23.8436V21.7454C5.77465 26.8001 13.2533 30.4243 22.2466 30.5674C27.3586 30.4243 32.1866 29.0414 36.1625 26.9432L36.6832 23.8436C33.0859 26.514 27.8319 28.2784 22.2466 28.5169C11.076 28.2784 2.27199 22.3653 2.12999 15.0215C2.22466 8.01161 11.076 2.14615 22.2466 2.05077C28.8732 2.14615 35.0739 4.48279 38.7185 8.29773L39.0972 8.91765H41.7005L41.3219 8.29773C37.6772 3.29063 30.3406 0.000248598 22.2466 0.000248598C9.8453 -0.0474381 0 6.77175 0 14.9739V15.4984V41.9645C0.425998 49.9759 10.0346 56.5089 22.1519 56.5089C30.1512 56.5566 37.3932 53.3616 41.2272 48.736Z" fill="#72727F"/>
<path d="M36.3994 67.0001L40.5648 49.1653L28.5895 54.4108L35.8788 23.5099H21.8682L25.5128 8.29785H70.2426L66.598 23.5099H52.0194L48.8954 31.9027L65.036 25.0836L36.3994 67.0001ZM43.6888 45.5411L41.6061 56.0322L58.788 29.8522L44.7301 36.1469L50.9781 21.4594H65.036L67.6393 10.4438H27.0275L24.4242 21.4594H38.4821L31.7135 50.7867L43.6888 45.5411Z" fill="#72727F"/>
<path d="M99.9206 18.5024V18.5501C99.9679 20.2192 99.4472 21.5067 98.4059 22.4604C97.3646 23.4142 95.9446 23.891 94.0986 23.891C92.2526 23.891 90.7379 23.2711 89.6019 22.0789C88.4659 20.8868 87.8979 19.3131 87.8979 17.4057V14.306C87.8979 12.3986 88.4659 10.8249 89.5546 9.63273C90.6906 8.44056 92.1579 7.82064 93.9566 7.82064C95.8499 7.82064 97.3172 8.2975 98.4059 9.20355C99.4946 10.1573 100.015 11.4448 99.9679 13.1139V13.1615H96.9386C96.9386 12.1601 96.7019 11.3971 96.2286 10.9203C95.7553 10.4434 94.9979 10.205 94.0039 10.205C93.0573 10.205 92.3473 10.5865 91.8266 11.3494C91.3059 12.1124 91.0219 13.0662 91.0219 14.2583V17.4057C91.0219 18.5978 91.3059 19.5992 91.8266 20.3622C92.3946 21.1252 93.1519 21.5067 94.1459 21.5067C95.0926 21.5067 95.7553 21.2683 96.2286 20.7914C96.7019 20.3145 96.9386 19.5516 96.9386 18.5501H99.9206V18.5024ZM117.055 17.2626C117.055 19.1701 116.44 20.7914 115.257 22.0313C114.073 23.2711 112.511 23.891 110.571 23.891C108.63 23.891 107.115 23.2711 105.885 22.0313C104.701 20.7914 104.086 19.1701 104.086 17.2626V14.4491C104.086 12.5416 104.701 10.968 105.885 9.68042C107.068 8.44056 108.63 7.77295 110.523 7.77295C112.464 7.77295 114.026 8.39288 115.209 9.68042C116.44 10.9203 117.008 12.5416 117.008 14.4491V17.2626H117.055ZM113.931 14.4014C113.931 13.1615 113.647 12.2078 113.032 11.3971C112.417 10.6341 111.612 10.205 110.523 10.205C109.482 10.205 108.63 10.5865 108.062 11.3971C107.494 12.1601 107.163 13.1615 107.163 14.4014V17.2149C107.163 18.4548 107.447 19.4562 108.062 20.2669C108.63 21.0298 109.482 21.459 110.523 21.459C111.612 21.459 112.417 21.0775 113.032 20.2669C113.647 19.5039 113.931 18.4548 113.931 17.2149V14.4014ZM125.102 23.6526H121.978V8.01138H125.102V23.6526ZM143.041 23.6526H139.917L133.669 13.1139H133.622V23.6526H130.498V8.01138H133.622L139.87 18.5501H139.917V8.01138H143.041V23.6526ZM158.708 10.4434H154.259V23.6526H151.135V10.4434H146.78V8.01138H158.708V10.4434ZM171.583 16.7857H165.808V21.2683H172.672V23.6526H162.732V8.01138H172.672V10.4434H165.856V14.3537H171.63V16.7857H171.583ZM180.245 21.2683H187.203V23.6526H177.121V8.01138H180.245V21.2683ZM200.456 16.7857H194.682V21.2683H201.545V23.6526H191.605V8.01138H201.545V10.4434H194.729V14.3537H200.504V16.7857H200.456ZM217.922 21.5544C217.449 22.1743 216.739 22.7466 215.745 23.2234C214.798 23.7003 213.567 23.9387 212.053 23.9387C210.159 23.9387 208.645 23.3665 207.461 22.1743C206.278 20.9822 205.663 19.4562 205.663 17.5487V14.2583C205.663 12.3509 206.231 10.8249 207.414 9.63273C208.55 8.44056 210.065 7.82064 211.863 7.82064C213.757 7.82064 215.224 8.2975 216.218 9.20355C217.212 10.1096 217.733 11.3018 217.685 12.8277V12.8754H214.751C214.751 12.0647 214.514 11.3971 214.041 10.9203C213.567 10.4434 212.857 10.205 211.958 10.205C211.011 10.205 210.254 10.5865 209.639 11.3018C209.071 12.0647 208.787 13.0185 208.787 14.163V17.4533C208.787 18.6455 209.071 19.5992 209.686 20.3622C210.301 21.1252 211.106 21.459 212.1 21.459C212.857 21.459 213.425 21.3636 213.851 21.2206C214.277 21.0775 214.609 20.8868 214.845 20.6483V17.5964H211.863V15.4028H217.969V21.5544H217.922ZM225.969 17.4057V23.6526H222.845V8.01138H228.241C229.992 8.01138 231.412 8.44056 232.406 9.25124C233.4 10.0619 233.921 11.2064 233.921 12.637C233.921 13.4477 233.731 14.1153 233.305 14.7352C232.879 15.3074 232.264 15.7843 231.459 16.1658C232.359 16.4519 233.021 16.8811 233.447 17.5487C233.826 18.1686 234.063 18.9793 234.063 19.933V21.0775C234.063 21.5067 234.11 21.9836 234.252 22.4604C234.347 22.9373 234.583 23.2711 234.867 23.5095V23.748H231.649C231.365 23.5095 231.175 23.1281 231.081 22.6035C230.986 22.0789 230.939 21.5544 230.939 21.0775V19.9807C230.939 19.2177 230.749 18.5978 230.323 18.1686C229.897 17.7395 229.282 17.501 228.525 17.501H225.969V17.4057ZM225.969 15.0213H228.193C229.045 15.0213 229.708 14.8306 230.134 14.4491C230.56 14.0676 230.797 13.543 230.797 12.78C230.797 12.0647 230.56 11.4925 230.134 11.0633C229.708 10.6341 229.093 10.4434 228.241 10.4434H225.969V15.0213ZM247.127 20.3145H242.109L241.068 23.7003H237.802L243.056 8.05907H246.227L251.434 23.7003H248.168L247.127 20.3145ZM242.867 17.8348H246.369L244.665 12.3032H244.618L242.867 17.8348ZM258.345 17.9779V23.6526H255.221V8.01138H261.185C262.983 8.01138 264.356 8.48825 265.397 9.3943C266.439 10.3003 266.912 11.5402 266.912 13.0185C266.912 14.4968 266.391 15.7366 265.397 16.6427C264.356 17.5487 262.983 18.0256 261.185 18.0256H258.345V17.9779ZM258.345 15.5936H261.185C262.037 15.5936 262.699 15.3551 263.173 14.8783C263.599 14.4014 263.835 13.7815 263.835 13.0662C263.835 12.3032 263.599 11.6833 263.173 11.2064C262.747 10.7295 262.084 10.4911 261.185 10.4911H258.345V15.5936ZM283.999 23.6526H280.875V17.1672H274.533V23.6526H271.409V8.01138H274.533V14.7352H280.875V8.01138H283.999V23.6526Z" fill="#72727F"/>
<path d="M93.5781 49.213H91.6374V38.9126H88.1348V37.2436H97.0807V38.9126H93.5781V49.213ZM106.595 49.213H104.654V43.6336C104.654 42.9183 104.512 42.3938 104.228 42.06C103.944 41.7262 103.518 41.5354 102.903 41.5354C102.098 41.5354 101.53 41.7738 101.151 42.2507C100.773 42.7276 100.583 43.5383 100.583 44.6827V49.1653H98.6901V36.4329H100.583V39.6756C100.583 40.2002 100.536 40.7247 100.489 41.3447H100.631C100.867 40.9155 101.246 40.5817 101.719 40.3432C102.193 40.1048 102.713 39.9618 103.329 39.9618C105.506 39.9618 106.595 41.0585 106.595 43.2998V49.213ZM113.174 49.356C111.754 49.356 110.665 48.9268 109.908 48.1162C109.103 47.3055 108.725 46.161 108.725 44.7304C108.725 43.2521 109.103 42.1077 109.813 41.2493C110.523 40.3909 111.565 39.9618 112.843 39.9618C114.026 39.9618 114.973 40.3432 115.635 41.0585C116.345 41.7738 116.677 42.7753 116.677 44.0628V45.1119H110.665C110.713 45.9703 110.949 46.6856 111.375 47.1148C111.801 47.5916 112.464 47.8301 113.269 47.8301C113.789 47.8301 114.31 47.7824 114.736 47.687C115.209 47.5916 115.683 47.4009 116.203 47.1624V48.7361C115.73 48.9745 115.257 49.1176 114.783 49.213C114.357 49.3083 113.789 49.356 113.174 49.356ZM112.843 41.44C112.227 41.44 111.754 41.6308 111.375 42.0123C110.997 42.3938 110.807 42.966 110.713 43.729H114.783C114.783 42.966 114.594 42.3938 114.263 42.0123C113.931 41.6308 113.458 41.44 112.843 41.44ZM127.658 41.5831H125.481V49.213H123.54V41.5831H122.073V40.6771L123.54 40.1048V39.5326C123.54 38.4835 123.777 37.6728 124.297 37.1482C124.818 36.6237 125.575 36.3853 126.569 36.3853C127.232 36.3853 127.895 36.4806 128.557 36.7191L128.037 38.1973C127.563 38.0543 127.137 37.9589 126.664 37.9589C126.238 37.9589 125.907 38.102 125.717 38.3404C125.528 38.6265 125.433 39.008 125.433 39.5326V40.1048H127.611V41.5831H127.658ZM135.563 49.213L135.279 48.0208H135.184C134.9 48.45 134.521 48.7838 134.048 49.0222C133.575 49.2607 133.007 49.4037 132.391 49.4037C131.303 49.4037 130.498 49.1176 129.93 48.593C129.362 48.0685 129.125 47.2101 129.125 46.1133V40.1525H131.066V45.7318C131.066 46.4471 131.208 46.924 131.492 47.3055C131.776 47.6393 132.202 47.8301 132.817 47.8301C133.622 47.8301 134.19 47.5916 134.569 47.1148C134.947 46.6379 135.137 45.8272 135.137 44.6827V40.1525H137.077V49.213H135.563ZM143.136 47.7824C143.609 47.7824 144.083 47.687 144.556 47.5439V48.9745C144.367 49.0699 144.083 49.1653 143.751 49.213C143.42 49.2607 143.089 49.3083 142.71 49.3083C140.911 49.3083 140.012 48.3546 140.012 46.4471V41.5831H138.781V40.7247L140.107 40.0094L140.769 38.102H141.953V40.1048H144.509V41.5831H141.953V46.4471C141.953 46.924 142.047 47.2578 142.284 47.4962C142.426 47.687 142.757 47.7824 143.136 47.7824ZM152.65 49.213L152.366 48.0208H152.271C151.987 48.45 151.609 48.7838 151.135 49.0222C150.662 49.2607 150.094 49.4037 149.479 49.4037C148.39 49.4037 147.585 49.1176 147.017 48.593C146.497 48.0685 146.213 47.2101 146.213 46.1133V40.1525H148.153V45.7318C148.153 46.4471 148.295 46.924 148.579 47.3055C148.863 47.6393 149.289 47.8301 149.905 47.8301C150.709 47.8301 151.277 47.5916 151.656 47.1148C152.035 46.6379 152.224 45.8272 152.224 44.6827V40.1525H154.165V49.213H152.65ZM161.454 39.9618C161.832 39.9618 162.164 40.0094 162.4 40.0571L162.211 41.8692C161.927 41.8215 161.643 41.7738 161.359 41.7738C160.602 41.7738 159.987 42.0123 159.513 42.5368C159.04 43.0614 158.803 43.6813 158.803 44.492V49.213H156.91V40.1525H158.425L158.661 41.7262H158.756C159.04 41.2016 159.466 40.7724 159.939 40.4386C160.365 40.1525 160.886 39.9618 161.454 39.9618ZM167.654 49.356C166.234 49.356 165.146 48.9268 164.388 48.1162C163.584 47.3055 163.205 46.161 163.205 44.7304C163.205 43.2521 163.584 42.1077 164.294 41.2493C165.004 40.3909 166.045 39.9618 167.323 39.9618C168.506 39.9618 169.453 40.3432 170.116 41.0585C170.826 41.7738 171.157 42.7753 171.157 44.0628V45.1119H165.146C165.193 45.9703 165.43 46.6856 165.856 47.1148C166.282 47.5916 166.944 47.8301 167.749 47.8301C168.27 47.8301 168.79 47.7824 169.216 47.687C169.69 47.5916 170.163 47.4009 170.684 47.1624V48.7361C170.21 48.9745 169.737 49.1176 169.264 49.213C168.79 49.3083 168.27 49.356 167.654 49.356ZM167.323 41.44C166.708 41.44 166.234 41.6308 165.856 42.0123C165.477 42.3938 165.288 42.966 165.193 43.729H169.264C169.264 42.966 169.074 42.3938 168.743 42.0123C168.364 41.6308 167.891 41.44 167.323 41.44ZM185.594 44.635C185.594 46.1133 185.215 47.2578 184.458 48.1162C183.7 48.9268 182.659 49.356 181.334 49.356C180.482 49.356 179.772 49.1653 179.109 48.7838C178.446 48.4023 177.973 47.8301 177.642 47.1148C177.31 46.3995 177.121 45.5888 177.121 44.635C177.121 43.1568 177.5 42.0123 178.257 41.2016C179.014 40.3909 180.056 39.9618 181.428 39.9618C182.706 39.9618 183.748 40.3909 184.505 41.2493C185.262 42.1077 185.594 43.2044 185.594 44.635ZM179.062 44.635C179.062 46.7333 179.819 47.7824 181.381 47.7824C182.896 47.7824 183.653 46.7333 183.653 44.635C183.653 42.5845 182.896 41.5354 181.381 41.5354C180.576 41.5354 180.008 41.8215 179.63 42.3461C179.251 42.8706 179.062 43.6336 179.062 44.635ZM192.315 41.5831H190.138V49.213H188.197V41.5831H186.73V40.6771L188.197 40.1048V39.5326C188.197 38.4835 188.434 37.6728 188.954 37.1482C189.475 36.6237 190.232 36.3853 191.226 36.3853C191.889 36.3853 192.552 36.4806 193.214 36.7191L192.694 38.1973C192.22 38.0543 191.794 37.9589 191.321 37.9589C190.895 37.9589 190.564 38.102 190.374 38.3404C190.185 38.5788 190.09 39.008 190.09 39.5326V40.1048H192.268V41.5831H192.315ZM205.758 49.213H203.817V43.6336C203.817 42.9183 203.675 42.4415 203.438 42.06C203.202 41.7262 202.776 41.5354 202.208 41.5354C201.45 41.5354 200.93 41.7738 200.598 42.2507C200.267 42.7276 200.078 43.5383 200.078 44.6827V49.213H198.184V40.1525H199.699L199.983 41.3447H200.078C200.314 40.9155 200.693 40.5817 201.166 40.3432C201.64 40.1048 202.16 40.0094 202.728 40.0094C204.101 40.0094 205.048 40.4863 205.474 41.44H205.616C205.9 41.0109 206.278 40.6294 206.752 40.3909C207.225 40.1525 207.793 40.0094 208.408 40.0094C209.497 40.0094 210.254 40.2956 210.775 40.8201C211.248 41.3447 211.532 42.203 211.532 43.2998V49.213H209.639V43.6336C209.639 42.9183 209.497 42.4415 209.26 42.06C208.976 41.7262 208.598 41.5354 208.03 41.5354C207.272 41.5354 206.752 41.7738 206.42 42.2507C206.089 42.7276 205.9 43.4429 205.9 44.3966V49.213H205.758ZM222.04 44.635C222.04 46.1133 221.662 47.2578 220.904 48.1162C220.147 48.9268 219.106 49.356 217.78 49.356C216.928 49.356 216.218 49.1653 215.556 48.7838C214.893 48.4023 214.42 47.8301 214.088 47.1148C213.757 46.3995 213.568 45.5888 213.568 44.635C213.568 43.1568 213.946 42.0123 214.704 41.2016C215.461 40.3909 216.502 39.9618 217.875 39.9618C219.153 39.9618 220.194 40.3909 220.952 41.2493C221.662 42.1077 222.04 43.2044 222.04 44.635ZM215.508 44.635C215.508 46.7333 216.266 47.7824 217.828 47.7824C219.342 47.7824 220.1 46.7333 220.1 44.635C220.1 42.5845 219.342 41.5354 217.828 41.5354C217.023 41.5354 216.455 41.8215 216.076 42.3461C215.698 42.8706 215.508 43.6336 215.508 44.635ZM232.17 49.213H230.229V43.6336C230.229 42.9183 230.087 42.3938 229.803 42.06C229.519 41.7262 229.093 41.5354 228.478 41.5354C227.673 41.5354 227.058 41.7738 226.726 42.2507C226.395 42.7276 226.158 43.5383 226.158 44.6827V49.213H224.265V40.1525H225.78L226.064 41.3447H226.158C226.442 40.9155 226.821 40.5817 227.294 40.3432C227.768 40.1048 228.336 40.0094 228.951 40.0094C231.128 40.0094 232.17 41.1062 232.17 43.3475V49.213ZM238.749 49.356C237.329 49.356 236.24 48.9268 235.483 48.1162C234.678 47.3055 234.3 46.161 234.3 44.7304C234.3 43.2521 234.678 42.1077 235.388 41.2493C236.098 40.3909 237.14 39.9618 238.418 39.9618C239.601 39.9618 240.548 40.3432 241.21 41.0585C241.92 41.7738 242.252 42.7753 242.252 44.0628V45.1119H236.24C236.288 45.9703 236.524 46.6856 236.95 47.1148C237.376 47.5916 238.039 47.8301 238.844 47.8301C239.364 47.8301 239.885 47.7824 240.311 47.687C240.737 47.5916 241.258 47.4009 241.778 47.1624V48.7361C241.305 48.9745 240.832 49.1176 240.358 49.213C239.885 49.3083 239.364 49.356 238.749 49.356ZM238.37 41.44C237.755 41.44 237.282 41.6308 236.903 42.0123C236.524 42.3938 236.335 42.966 236.24 43.729H240.311C240.311 42.966 240.122 42.3938 239.79 42.0123C239.459 41.6308 238.986 41.44 238.37 41.44ZM242.725 40.1525H244.808L246.654 45.3027C246.938 46.018 247.127 46.7333 247.222 47.3532H247.269C247.316 47.0671 247.411 46.6856 247.553 46.2564C247.695 45.8272 248.357 43.7767 249.635 40.1525H251.718L247.884 50.4051C247.174 52.2649 246.038 53.2186 244.382 53.2186C243.956 53.2186 243.53 53.171 243.151 53.0756V51.5496C243.435 51.5973 243.766 51.645 244.145 51.645C245.044 51.645 245.707 51.1204 246.086 50.0236L246.417 49.1653L242.725 40.1525Z" fill="#72727F"/>
</svg>
