<svg width="172" height="95" viewBox="0 0 172 95" fill="none" xmlns="http://www.w3.org/2000/svg">
<path d="M124.131 33.2355C124.111 32.8541 124.082 32.5217 124.063 32.1991C124.043 32.1991 124.033 32.1893 124.014 32.1893C123.956 32.5119 123.907 32.8346 123.849 33.1768C123.179 32.4142 123.325 31.1138 124.15 30.4685C124.665 30.9085 124.674 31.5342 124.733 32.1697C125.286 31.8764 125.81 31.5831 126.432 31.7591C126.471 32.727 125.344 33.6461 124.237 33.4408C124.49 33.2746 124.674 33.1572 124.859 33.0399C124.83 33.0008 124.801 32.9715 124.771 32.9324C124.587 33.0204 124.383 33.1181 124.131 33.2355Z" fill="white"/>
<path d="M86.505 22.3045C86.4079 22.0405 86.3205 21.7961 86.2331 21.5419C86.2137 21.5516 86.1943 21.5516 86.1651 21.5614C86.1943 21.845 86.2137 22.1285 86.2525 22.4609C85.9904 22.412 85.7767 22.3729 85.5631 22.3338C85.5534 22.3534 85.5437 22.3729 85.5437 22.3925C85.7185 22.5098 85.8933 22.6174 86.0778 22.7445C85.2039 23.1356 83.9901 22.4707 83.7183 21.4637C84.3009 21.1312 84.8834 21.3757 85.4952 21.5419C85.4078 20.8966 85.3592 20.3099 85.7573 19.7917C86.6798 20.1731 87.1361 21.6983 86.505 22.3045Z" fill="white"/>
<path d="M116.508 34.2325C116.285 34.3205 116.062 34.4085 115.838 34.4965C115.945 33.597 117.304 32.9322 118.207 33.3233C118.139 33.8708 117.955 34.1054 117.159 34.6725C117.499 34.9756 117.887 35.2494 118.188 35.5916C118.489 35.9338 118.411 36.0707 117.955 36.1489C117.071 36.3151 116.139 35.8556 115.819 35.0636C116.091 35.1418 116.324 35.2103 116.567 35.2787C116.576 35.2591 116.596 35.2298 116.605 35.2103C116.392 35.0734 116.168 34.9463 115.887 34.7703C116.13 34.5943 116.333 34.4476 116.528 34.301C116.528 34.2814 116.518 34.2619 116.508 34.2325Z" fill="white"/>
<path d="M70.2508 6.91506C70.0178 6.86617 69.843 6.82706 69.6779 6.79773C69.6682 6.81728 69.6585 6.84662 69.6488 6.86617C69.7653 6.95417 69.8818 7.05194 69.9983 7.14971C69.2021 7.5408 67.9787 6.79773 67.7554 5.81023C68.202 5.5658 68.2312 5.57558 69.5031 5.91778C69.5031 5.68313 69.474 5.46803 69.5128 5.25293C69.5517 4.97917 69.6294 4.71518 69.7265 4.46098C69.8139 4.20677 69.9692 4.17744 70.1731 4.3632C70.814 4.90095 71.0179 6.04488 70.5324 6.87595C70.4353 6.53375 70.3576 6.25021 70.2702 5.97644C70.2411 5.97644 70.2217 5.97644 70.1925 5.98622C70.212 6.25998 70.2314 6.56308 70.2508 6.91506Z" fill="white"/>
<path d="M57.6572 27.5549C57.7737 27.2518 57.8708 27.0269 57.9582 26.8118C57.9387 26.7923 57.9193 26.7727 57.8999 26.7629C57.8222 26.8509 57.7543 26.9487 57.6766 27.0367C57.5989 27.1442 57.5115 27.2518 57.395 27.418C57.2299 27.1345 57.1037 26.9096 56.9678 26.6847C56.9483 26.6945 56.9289 26.7043 56.8998 26.7043C56.9678 26.9585 57.026 27.2127 57.1037 27.4962C56.1521 27.0465 55.7346 25.8048 56.2298 24.9248C56.8707 25.1106 57.1814 25.6288 57.463 26.235C57.8125 25.6679 58.1815 25.1888 58.832 25.0715C59.269 25.883 58.7349 27.0953 57.6572 27.5549Z" fill="white"/>
<path d="M101.079 5.56592C101.526 6.53386 101.186 7.61913 100.234 8.15688C100.283 7.8929 100.332 7.68757 100.37 7.48225C100.351 7.47248 100.322 7.4627 100.302 7.44314C100.186 7.63869 100.069 7.82446 99.914 8.07866C99.7198 7.81468 99.5547 7.58002 99.38 7.35515C99.3508 7.36493 99.3314 7.3747 99.3023 7.38448C99.4091 7.62891 99.5159 7.88312 99.6227 8.13733C98.7197 8.02 98.0691 6.74896 98.409 5.75169C99.0692 5.83968 99.4382 6.30899 99.8169 6.85651C100.147 6.30899 100.409 5.75169 101.079 5.56592Z" fill="white"/>
<path d="M81.8345 25.3548C81.8636 25.5406 81.8928 25.7362 81.9219 25.9415C81.0577 25.5993 80.679 24.2794 81.1645 23.4092C81.6791 23.5461 81.9219 23.81 82.3685 24.7487C82.7278 24.2207 83.1259 23.7709 83.7668 23.6634C84.2328 24.4553 83.5434 25.8144 82.5142 26.049C82.6598 25.7557 82.7861 25.5015 82.9123 25.2571C82.8929 25.2375 82.8735 25.2277 82.854 25.2082C82.6696 25.4331 82.4851 25.6579 82.2617 25.9317C82.1355 25.7068 82.0287 25.5211 81.9122 25.3353C81.8928 25.3353 81.8636 25.3451 81.8345 25.3548Z" fill="white"/>
<path d="M113.022 29.0899C113.129 28.8552 113.246 28.6303 113.382 28.337C113.586 28.5619 113.751 28.7574 113.926 28.953C113.945 28.9432 113.964 28.9236 113.984 28.9139C113.887 28.6988 113.799 28.4934 113.692 28.2588C114.673 28.4054 115.236 29.696 115.052 30.3804C115.032 30.4587 114.761 30.5662 114.683 30.5173C114.275 30.2533 113.906 29.96 113.479 29.6472C113.256 30.1262 112.993 30.6738 112.382 30.9084C111.76 30.2436 112.187 28.689 113.09 28.2686C113.022 28.5717 112.974 28.8161 112.916 29.0703C112.955 29.0801 112.984 29.0801 113.022 29.0899Z" fill="white"/>
<path d="M94.5835 8.52841C95.3312 7.64846 95.4865 7.53113 96.0109 7.45291C96.3993 8.31331 95.7972 9.57457 94.7874 9.85811C94.9137 9.56479 95.0302 9.31059 95.137 9.05638C95.1176 9.0466 95.0884 9.02705 95.069 9.01727C94.9039 9.24215 94.7292 9.46702 94.5155 9.75056C94.3699 9.49635 94.2437 9.28125 94.1174 9.06616C94.098 9.07593 94.0689 9.08571 94.0495 9.08571C94.098 9.31059 94.1466 9.52569 94.1951 9.76034C93.3795 9.57457 92.8163 8.00044 93.3892 7.21826C93.9912 7.44314 94.3116 7.932 94.5835 8.52841Z" fill="white"/>
<path d="M89.3304 24.5044C89.7868 24.9933 89.7382 25.619 89.7479 26.1567C90.2431 26.0785 90.7092 25.9905 91.185 25.9319C91.3792 25.9123 91.554 25.971 91.486 26.2545C91.2918 27.0562 90.1363 27.7309 89.2722 27.506C89.4178 27.3691 89.544 27.2518 89.6703 27.1442C89.6606 27.1149 89.6508 27.0954 89.6411 27.066C89.4567 27.1247 89.2722 27.1834 89.0294 27.2616C89.0586 26.8705 89.078 26.5381 89.0974 26.1959C89.0683 26.1959 89.0488 26.1861 89.0197 26.1861C88.942 26.4989 88.8644 26.8216 88.7673 27.1736C88.175 26.3132 88.476 24.9639 89.3304 24.5044Z" fill="white"/>
<path d="M129.248 33.597C129.529 33.7926 129.743 33.949 129.966 34.1055C129.986 34.0859 129.995 34.0664 130.015 34.0566C129.83 33.8513 129.646 33.6362 129.413 33.3722C129.762 33.2646 130.044 33.1766 130.325 33.0886C130.325 33.0593 130.325 33.0397 130.316 33.0104C130.034 33.03 129.762 33.0495 129.461 33.0691C129.918 32.238 131.287 32.062 132.093 32.6878C131.859 33.1766 131.636 33.3233 130.665 33.6655C130.889 34.0468 131.16 34.4086 131.345 34.8192C131.52 35.2201 131.384 35.3472 130.947 35.3081C130.121 35.2298 129.383 34.5063 129.248 33.597Z" fill="white"/>
<path d="M90.3014 29.481C90.6024 29.0313 90.9325 28.5033 91.5928 28.386C92.02 29.2855 91.4763 30.5565 90.5247 30.8498C90.6024 30.6152 90.6704 30.4099 90.7383 30.2045C90.7092 30.185 90.6898 30.1752 90.6607 30.1557C90.5344 30.3414 90.3985 30.537 90.2237 30.7814C90.0489 30.4979 89.8936 30.2437 89.7382 29.9992C89.7188 30.009 89.6994 30.0188 89.6703 30.0286C89.7479 30.2828 89.8256 30.537 89.913 30.801C89.1459 30.7032 88.5148 29.305 88.8741 28.4935C88.9032 28.4251 89.1945 28.386 89.2722 28.4447C89.6314 28.7771 89.9519 29.1291 90.3014 29.481Z" fill="white"/>
<path d="M80.1934 17.5626C80.4749 17.6995 80.7274 17.8266 80.9799 17.9439C80.9993 17.9244 81.009 17.9048 81.0284 17.8755C80.8051 17.6897 80.5818 17.5137 80.3099 17.2986C80.5429 17.1617 80.7274 17.0542 80.9119 16.9466C80.9022 16.9271 80.8925 16.8978 80.8925 16.8782C80.6886 16.9075 80.4847 16.9369 80.2808 16.976C80.5429 16.1351 82.0868 15.6561 82.8053 16.2036C82.6888 16.6631 82.6888 16.6631 81.5333 17.4551C82.0285 17.807 82.4558 18.2079 82.582 18.8336C81.7566 19.2736 80.4167 18.5794 80.1934 17.5626Z" fill="white"/>
<path d="M128.345 31.0061C128.471 31.2114 128.587 31.4265 128.723 31.6416C127.859 31.7101 127.043 30.4977 127.257 29.4418C127.927 29.4613 128.354 29.8817 128.782 30.4097C128.995 29.7937 129.228 29.2169 129.83 28.9333C130.442 29.7253 130.209 31.0452 129.335 31.5634C129.354 31.2994 129.374 31.0648 129.393 30.8399C129.374 30.8301 129.354 30.8301 129.325 30.8204C129.228 31.0452 129.131 31.2799 129.005 31.5928C128.791 31.3385 128.616 31.1137 128.442 30.8986C128.403 30.9377 128.374 30.9768 128.345 31.0061Z" fill="white"/>
<path d="M51.3843 32.3262C51.3649 31.6516 51.7727 31.2018 52.2485 30.7423C51.5979 30.5956 51.0444 30.3708 50.7046 29.8037C51.3746 29.1193 52.8019 29.2855 53.3651 30.1459C53.0155 30.1166 52.7145 30.0872 52.4038 30.0677C52.4038 30.0872 52.3941 30.1068 52.3941 30.1263C52.7048 30.2241 53.0155 30.3219 53.4039 30.449C53.2 30.6641 53.0447 30.8303 52.8796 31.0063C52.8893 31.0258 52.9087 31.0552 52.9184 31.0747C53.1126 30.9574 53.3068 30.8401 53.5107 30.713C53.4816 31.72 52.365 32.5609 51.3843 32.3262Z" fill="white"/>
<path d="M78.232 9.12488C79.6011 9.17376 79.6011 9.17376 79.9409 9.41819C79.5525 10.3275 78.2417 10.7772 77.4066 10.2395C77.6979 10.1222 77.9601 10.0244 78.2223 9.91683C78.2223 9.89728 78.2125 9.86795 78.2125 9.84839C77.9213 9.8875 77.6397 9.92661 77.2804 9.9755C77.3387 9.72129 77.3775 9.50619 77.4163 9.30087C77.3969 9.29109 77.3775 9.28131 77.3581 9.27154C77.2513 9.42797 77.1445 9.58441 77.0279 9.75062C76.5716 8.97822 77.2416 7.66807 78.2902 7.37476C78.3194 7.68763 78.3679 7.98094 78.3582 8.27426C78.3582 8.5578 78.2805 8.84134 78.232 9.12488Z" fill="white"/>
<path d="M77.5522 30.3119C77.0764 29.8426 76.756 29.3733 76.7851 28.7378C77.6882 28.4934 78.8048 29.3929 78.8533 30.3999C78.6688 30.2924 78.4941 30.1946 78.3193 30.0968C78.2999 30.1164 78.2902 30.1359 78.2707 30.1555C78.397 30.3119 78.5232 30.4781 78.698 30.6932C78.3678 30.7812 78.0863 30.8595 77.8047 30.9279C77.8047 30.9475 77.8047 30.967 77.8144 30.9866C78.096 30.9866 78.3678 30.9866 78.6591 30.9866C78.3873 31.7101 76.6589 31.9741 76.0181 31.231C76.3191 30.6346 76.9599 30.527 77.5522 30.3119Z" fill="white"/>
<path d="M57.8125 20.1729C57.5795 20.0262 57.3853 19.8991 57.1911 19.772C57.1716 19.7916 57.1522 19.8111 57.1328 19.8307C57.2979 20.0165 57.4532 20.1924 57.6766 20.4467C57.3076 20.564 56.9872 20.6715 56.6667 20.7791C56.6667 20.7986 56.6764 20.8182 56.6764 20.8377C56.9774 20.8084 57.2882 20.7889 57.6377 20.7497C57.1037 21.6101 55.7928 21.7861 55.0063 21.1506C55.3171 20.5542 55.8802 20.3391 56.5308 20.1631C56.055 19.7231 55.6472 19.2734 55.6278 18.6085C56.5793 18.3348 57.696 19.117 57.8125 20.1729Z" fill="white"/>
<path d="M82.4556 20.4663C82.1837 21.444 81.1642 22.0307 80.0379 21.7667C80.3971 21.5516 80.6787 21.3756 80.97 21.2094C80.9603 21.1898 80.9603 21.1703 80.9506 21.1507C80.6399 21.2583 80.3292 21.3756 79.9699 21.5027C79.9408 21.2681 79.9214 21.0921 79.8922 20.789C79.7757 21.0432 79.7077 21.2094 79.6204 21.3854C79.096 20.5054 79.4553 19.2931 80.3486 18.8042C80.6496 19.1268 80.6496 19.1268 80.7079 20.525C81.2807 20.4272 81.8536 20.1241 82.4556 20.4663Z" fill="white"/>
<path d="M100.137 28.601C100.555 28.5228 101.001 28.4055 101.468 28.3468C101.778 28.3077 101.914 28.4641 101.769 28.8063C101.429 29.5885 100.555 30.0872 99.5741 29.9503C99.8169 29.7547 100.011 29.6081 100.205 29.4614C100.196 29.4419 100.186 29.4223 100.176 29.4028C99.9334 29.4907 99.6906 29.5885 99.3702 29.7058C99.3993 29.2365 99.4188 28.8357 99.4479 28.4348C99.4285 28.4348 99.4091 28.4348 99.3994 28.425C99.312 28.7966 99.2343 29.1583 99.1469 29.5299C99.0983 29.5396 99.0401 29.5396 98.9915 29.5494C98.9236 29.2268 98.7391 28.8943 98.7973 28.601C98.8847 28.1219 99.0692 27.6331 99.3217 27.2127C99.5353 26.8509 99.7586 26.8802 99.8848 27.2811C100.011 27.7211 100.06 28.1904 100.137 28.601Z" fill="white"/>
<path d="M104.332 6.76855C104.653 7.37474 104.497 7.9516 104.264 8.59689C104.915 8.46001 105.507 8.41113 106.051 8.78266C105.711 9.70172 104.4 10.1612 103.526 9.63328C103.866 9.50618 104.157 9.39863 104.439 9.29108C104.439 9.26174 104.429 9.24219 104.429 9.21286C104.099 9.27152 103.779 9.32041 103.371 9.38885C103.458 9.08576 103.517 8.84132 103.585 8.60667C103.565 8.59689 103.536 8.58712 103.517 8.56756C103.4 8.76311 103.274 8.96843 103.148 9.17375C102.711 8.37202 103.313 7.13031 104.332 6.76855Z" fill="white"/>
<path d="M61.8612 15.2257C61.9777 14.8737 62.0845 14.5608 62.1913 14.248C62.1719 14.2382 62.1525 14.2284 62.1233 14.2186C61.9583 14.5119 61.7932 14.8053 61.599 15.1572C61.4436 14.9421 61.3077 14.7662 61.1718 14.5999C61.1426 14.6097 61.1135 14.6195 61.0941 14.6293C61.1523 14.815 61.2106 15.0008 61.2689 15.1964C60.3756 15.0692 59.7638 13.7298 60.1522 12.8205C60.6571 12.8889 60.7834 12.9867 61.5504 13.9351C61.8417 13.3876 62.1719 12.8791 62.7933 12.6738C63.2691 13.5733 62.8224 14.8346 61.8612 15.2257Z" fill="white"/>
<path d="M91.2046 17.983C91.5541 17.9439 91.8454 17.8754 92.1367 17.8852C92.4183 17.895 92.6999 17.9634 93.0203 18.0221C92.9621 17.4061 92.8358 16.8097 93.2437 16.2915C94.137 16.663 94.5739 17.8363 94.137 18.8238C93.9913 18.4914 93.8651 18.2176 93.7389 17.9439C93.7194 17.9536 93.7 17.9536 93.6806 17.9634C93.7389 18.2763 93.7874 18.5794 93.8554 18.9509C93.5738 18.902 93.3408 18.8629 93.1174 18.814C93.1077 18.8336 93.098 18.8531 93.0883 18.8825C93.2728 18.99 93.4573 19.0976 93.6418 19.2051C92.9135 19.6744 91.6415 19.0878 91.2046 17.983Z" fill="white"/>
<path d="M82.5046 8.3719C82.5629 8.66522 82.6211 8.95853 82.6794 9.29096C81.7861 8.9292 81.4948 7.34529 82.0482 6.66089C82.6891 6.90532 82.9221 7.48218 83.1455 8.06881C83.9999 7.22797 84.0388 7.19864 84.6116 7.10086C85.0486 7.87326 84.2621 9.2323 83.2328 9.38873C83.3688 9.12475 83.495 8.89987 83.6212 8.66522C83.6115 8.65544 83.5921 8.63589 83.5727 8.61633C83.3882 8.82165 83.2037 9.02698 82.961 9.28118C82.8153 8.91943 82.6891 8.61633 82.5629 8.31324C82.5434 8.33279 82.524 8.35235 82.5046 8.3719Z" fill="white"/>
<path d="M96.4282 21.6884C96.7389 21.8155 96.9914 21.9133 97.2341 22.0111C97.2439 21.9915 97.2536 21.9719 97.2633 21.9524C97.0399 21.7862 96.8166 21.62 96.5253 21.4049C96.8652 21.2289 97.137 21.0822 97.4186 20.9356C97.4089 20.916 97.4089 20.8965 97.3992 20.8769C97.1176 20.9453 96.836 21.0236 96.5447 21.1018C96.6807 20.2316 98.3411 19.7134 99.0013 20.2218C98.9042 20.6814 98.9042 20.6814 97.7876 21.5222C98.2634 21.8742 98.7586 22.2262 98.8654 22.8715C98.0109 23.3016 96.7972 22.7346 96.4282 21.6884Z" fill="white"/>
<path d="M50.7337 38.036C50.8502 38.3978 50.9473 38.6813 51.0444 38.9747C51.0638 38.9747 51.0929 38.9747 51.1123 38.9747C51.0929 38.6911 51.0638 38.4174 51.0444 38.0947C51.8891 38.5836 52.0833 39.923 51.4425 40.7346C50.8599 40.4119 50.6269 39.8644 50.4618 39.2093C50.0054 39.6786 49.5685 40.099 48.9082 40.099C48.646 39.1311 49.4228 38.0263 50.4715 37.9089C50.3161 38.1534 50.1802 38.3685 50.0345 38.5738C50.054 38.5933 50.0637 38.6129 50.0831 38.6325C50.1802 38.5445 50.2773 38.4662 50.3744 38.3782C50.4715 38.2805 50.5686 38.1925 50.7337 38.036Z" fill="white"/>
<path d="M104.798 19.4005C104.662 19.029 104.536 18.6868 104.41 18.3446C104.391 18.3446 104.371 18.3544 104.352 18.3544C104.41 18.7259 104.468 19.0974 104.536 19.5081C104.264 19.4494 104.051 19.4103 103.837 19.3614C103.827 19.381 103.818 19.4103 103.808 19.4299C103.973 19.5276 104.138 19.6352 104.293 19.7329C104.293 19.7721 104.293 19.8112 104.293 19.8503C104.06 19.8601 103.818 19.9089 103.585 19.8796C102.963 19.8014 102.458 19.4983 102.099 18.9703C101.856 18.5988 101.885 18.4619 102.313 18.4228C102.759 18.3837 103.206 18.4521 103.691 18.4815C103.691 17.9633 103.517 17.3473 103.925 16.8193C104.808 17.0247 105.352 18.6477 104.798 19.4005Z" fill="white"/>
<path d="M49.7529 33.3332C49.6752 32.9324 49.6072 32.5608 49.549 32.1893C49.5296 32.1893 49.5004 32.1893 49.481 32.1893C49.481 32.5804 49.481 32.9617 49.481 33.4408C49.1703 33.2844 48.9373 33.167 48.7042 33.0399C48.6848 33.0595 48.6751 33.079 48.6557 33.0986C48.8402 33.2746 49.0344 33.4408 49.2383 33.6363C48.4129 33.8612 47.238 33.079 47.1215 32.2675C47.073 31.9449 47.3157 31.9155 47.5002 31.9547C47.9566 32.0427 48.4032 32.1795 48.8693 32.3066C48.8499 31.7396 48.9276 31.1431 49.3645 30.6641C50.1995 31.1823 50.4229 32.5902 49.7529 33.3332Z" fill="white"/>
<path d="M60.2689 29.2561C61.1428 29.7939 61.4244 30.9867 60.8612 31.9546C60.7544 31.5538 60.6573 31.2115 60.5699 30.8791C60.5505 30.8791 60.5311 30.8889 60.502 30.8889C60.5311 31.2409 60.5505 31.6026 60.5893 32.0524C60.2495 31.9057 59.9873 31.7982 59.7155 31.6809C59.7057 31.7004 59.6863 31.72 59.6766 31.7395C59.8999 31.9057 60.1136 32.0719 60.3563 32.2479C59.4921 32.5999 58.2687 31.7982 58.123 30.7911C58.7251 30.5956 59.2882 30.7325 59.8999 31.0747C59.8223 30.3903 59.8417 29.7939 60.2689 29.2561Z" fill="white"/>
<path d="M90.3694 5.79074C90.6121 5.50721 90.7966 5.30188 90.9811 5.08678C90.9617 5.05745 90.9423 5.0379 90.9229 5.00857C90.6995 5.17478 90.4762 5.35077 90.2335 5.53654C90.2238 4.52948 91.2724 3.63976 92.2725 3.78641C92.3599 4.45127 91.9424 4.91079 91.5443 5.42899C92.1754 5.55609 92.7289 5.74186 93.0882 6.26983C92.5638 7.02267 90.884 6.87602 90.3888 6.07428C90.7869 6.09384 91.1365 6.11339 91.486 6.13295C91.4957 6.11339 91.4957 6.08406 91.5055 6.06451C91.1462 5.98629 90.7966 5.89829 90.3694 5.79074Z" fill="white"/>
<path d="M103.983 15.8808C104.264 15.6266 104.478 15.431 104.701 15.2257C104.682 15.2061 104.672 15.1866 104.653 15.167C104.391 15.3137 104.138 15.4603 103.818 15.6461C103.769 15.3039 103.721 15.0106 103.672 14.7271C103.653 14.7271 103.633 14.7271 103.623 14.7368C103.585 15.0008 103.546 15.2746 103.497 15.5581C102.798 14.9324 102.924 13.5831 103.75 12.8694C104.235 13.3191 104.323 13.9155 104.342 14.6097C104.886 14.2675 105.42 14.0035 106.031 14.1306C106.167 15.0399 105.09 15.9981 103.983 15.8808Z" fill="white"/>
<path d="M112.382 16.2133C112.343 15.8907 112.304 15.5974 112.275 15.304C112.246 15.304 112.216 15.304 112.197 15.304C112.168 15.6071 112.149 15.9102 112.119 16.3013C111.809 16.1156 111.556 15.9689 111.304 15.8125C111.275 15.8418 111.245 15.8711 111.216 15.8907C111.449 16.0569 111.673 16.2231 111.906 16.3893C110.847 16.5946 109.906 15.7342 109.867 14.7272C110.362 14.5512 110.595 14.6099 111.527 15.1574C111.653 14.7467 111.731 14.3068 111.915 13.9255C112.139 13.4366 112.362 13.4659 112.634 13.945C113.042 14.6979 112.954 15.6756 112.382 16.2133Z" fill="white"/>
<path d="M73.6104 7.7363C73.8337 7.9514 74.0668 8.1665 74.3192 8.41093C73.358 8.60647 72.2996 7.65808 72.3287 6.59236C72.6297 6.63147 72.9307 6.64125 73.2123 6.72924C73.4842 6.80746 73.7269 6.97367 74.0182 7.12033C74.1056 6.50437 74.1639 5.89818 74.6688 5.49731C75.465 6.09372 75.5718 7.44298 74.8436 8.21538C74.8144 7.8634 74.7853 7.57008 74.7659 7.27677C74.7368 7.27677 74.7173 7.26699 74.6882 7.26699C74.6494 7.57008 74.6105 7.87318 74.562 8.24471C74.2416 8.04917 73.9503 7.87318 73.659 7.69719C73.6298 7.69719 73.6201 7.71674 73.6104 7.7363Z" fill="white"/>
<path d="M56.5597 36.4815C56.181 35.934 56.2684 35.3278 56.4238 34.6825C55.8023 34.8585 55.21 35.0149 54.6274 34.7118C54.8313 33.7732 56.0936 33.1475 57.0355 33.5386C56.8413 33.6657 56.6665 33.7732 56.4917 33.8808C56.5014 33.9101 56.5014 33.9297 56.5112 33.959C56.7248 33.9199 56.9287 33.871 57.22 33.8221C57.152 34.2034 57.084 34.5554 57.0258 34.8976C57.0452 34.9074 57.0646 34.9074 57.0743 34.9172C57.2103 34.6043 57.3365 34.2914 57.4821 33.9492C57.9676 34.8292 57.4918 36.1002 56.5597 36.4815Z" fill="white"/>
<path d="M57.6279 40.6857C56.9385 40.1088 57.123 38.3978 57.9775 38.0067C57.958 38.2707 57.9386 38.5249 57.9192 38.7694C57.9386 38.7791 57.9678 38.7791 57.9872 38.7889C58.0746 38.5445 58.1717 38.3001 58.2882 37.9872C58.5406 38.2218 58.7445 38.4174 58.9484 38.6129C58.9679 38.6032 58.9873 38.5934 59.0067 38.5836C58.8708 38.3587 58.7445 38.1241 58.5989 37.8796C59.4436 37.8894 60.3758 39.0529 60.1816 39.8155C60.1622 39.9035 59.9 40.0209 59.8223 39.9817C59.3951 39.7666 58.9873 39.5124 58.5503 39.268C58.4629 39.4733 58.3756 39.7666 58.2105 40.0111C58.0454 40.2751 57.8221 40.4706 57.6279 40.6857Z" fill="white"/>
<path d="M70.3768 19.0388C70.2021 19.3517 70.0273 19.6744 69.804 20.0655C69.6098 19.7624 69.4447 19.5179 69.2893 19.2735C69.2602 19.2833 69.2408 19.2931 69.2117 19.3028C69.3088 19.557 69.4059 19.821 69.503 20.085C68.5805 19.909 67.9688 18.5011 68.4349 17.6505C69.066 17.7874 69.4156 18.2664 69.7554 18.8335C70.0758 18.2762 70.3768 17.7483 71.008 17.5723C71.5517 18.3447 71.0857 19.6646 70.0564 20.1339C70.1924 19.7428 70.3186 19.4006 70.4351 19.0682C70.4157 19.0682 70.3963 19.0486 70.3768 19.0388Z" fill="white"/>
<path d="M118.072 27.0072C117.081 26.4695 116.702 25.3647 117.149 24.4065C117.79 24.5825 118.101 25.1105 118.411 25.7069C118.78 25.1691 119.12 24.6607 119.79 24.5629C120.198 25.4331 119.664 26.6064 118.625 27.017C118.742 26.7139 118.839 26.4793 118.926 26.2348C118.907 26.2251 118.877 26.2055 118.858 26.1957C118.703 26.4108 118.547 26.6259 118.343 26.8997C118.169 26.5868 118.013 26.3228 117.858 26.0588C117.839 26.0686 117.809 26.0686 117.79 26.0784C117.877 26.3619 117.965 26.6455 118.072 27.0072Z" fill="white"/>
<path d="M46.9765 36.6476C46.5201 36.3836 46.0929 36.1489 45.6948 35.8849C45.52 35.7676 45.4714 35.6014 45.6948 35.445C46.3744 34.9561 47.6659 35.1907 48.1999 35.9338C47.8698 35.9143 47.5785 35.8947 47.2872 35.8752C47.2775 35.9045 47.2775 35.924 47.2678 35.9534C47.559 36.0414 47.8406 36.1196 48.2193 36.2271C47.9863 36.4911 47.8115 36.6867 47.6367 36.892C47.6561 36.9115 47.6659 36.9409 47.6853 36.9604C47.8989 36.804 48.1028 36.6573 48.3261 36.5009C48.4038 37.4297 47.2872 38.3292 46.2676 38.1532C46.19 37.4884 46.6172 37.0582 46.9765 36.6476Z" fill="white"/>
<path d="M54.472 37.0486C53.9282 37.3712 53.4136 37.645 52.8019 37.5081C52.7145 36.5597 53.7826 35.6211 54.8215 35.758C54.5982 35.9535 54.3943 36.1197 54.1904 36.2957C54.2195 36.3251 54.2487 36.3642 54.2681 36.3935C54.5108 36.2566 54.7536 36.1197 55.0352 35.9633C55.074 36.3055 55.1128 36.6086 55.1517 36.9019C55.1711 36.9019 55.1905 36.9019 55.2099 36.9117C55.2585 36.6379 55.2973 36.3544 55.3556 36.0317C56.045 36.8041 55.909 38.085 55.1323 38.7009C54.7342 38.3881 54.6759 38.2512 54.472 37.0486Z" fill="white"/>
<path d="M73.0277 12.8791C72.9889 13.1725 72.95 13.4658 72.9112 13.8373C72.6199 13.6711 72.3577 13.5147 71.979 13.2996C72.28 13.5929 72.4742 13.7884 72.6879 13.9937C71.8722 14.3359 70.4934 13.104 70.6779 12.2827C71.2994 12.097 71.814 12.4098 72.2801 12.6934C72.484 12.1361 72.6781 11.5886 72.8821 11.0312C73.7754 11.5494 73.921 12.9574 73.2122 13.808C73.1636 13.456 73.1345 13.1725 73.0957 12.8889C73.0665 12.8791 73.0471 12.8791 73.0277 12.8791Z" fill="white"/>
<path d="M87.4951 15.4507C88.4078 15.9591 88.7574 17.1226 88.2719 18.071C88.1263 17.6799 88.0097 17.3475 87.8932 17.0248C87.8738 17.0248 87.8544 17.0346 87.8447 17.0346C87.8932 17.3964 87.9515 17.7483 88.0097 18.1785C87.7281 18.1003 87.4854 18.0416 87.2524 17.983C87.2427 18.0025 87.2329 18.0319 87.2135 18.0514C87.4077 18.1688 87.6019 18.2959 87.8058 18.423C87.0096 18.7749 85.7376 18.1981 85.5046 17.3768C85.4852 17.2888 85.6405 17.0541 85.7182 17.0541C86.2134 17.0541 86.6989 17.103 87.2135 17.1421C87.1456 16.6142 87.0873 15.9982 87.4951 15.4507Z" fill="white"/>
<path d="M67.8234 10.9432C67.7748 11.3148 67.7166 11.6863 67.6583 12.136C67.3573 11.9307 67.1145 11.7743 66.8621 11.6081C66.8427 11.6276 66.833 11.6374 66.8135 11.657C67.0077 11.8721 67.2019 12.0774 67.4155 12.3218C66.396 12.3903 65.5124 11.5396 65.4639 10.4348C66.095 10.3175 66.5999 10.6206 67.134 11.0019C67.3087 10.4055 67.3379 9.76996 67.8622 9.4082C68.5904 9.74063 68.7458 11.4516 67.9399 12.0872C67.9205 11.6863 67.901 11.3343 67.8816 10.9726C67.8622 10.9628 67.8428 10.953 67.8234 10.9432Z" fill="white"/>
<path d="M76.4069 2.08521C77.2031 2.68162 77.3099 4.09931 76.5816 4.78372C76.5525 4.44151 76.5234 4.1482 76.4942 3.8451C76.4748 3.8451 76.4554 3.83533 76.436 3.83533C76.3874 4.1482 76.3486 4.45129 76.2903 4.8326C75.9893 4.65661 75.7272 4.50018 75.465 4.34374C75.4456 4.3633 75.4359 4.38285 75.4164 4.40241C75.6301 4.60773 75.8437 4.80327 76.067 5.01837C75.0863 5.24325 74.0959 4.18731 74.0474 3.44424C74.0474 3.36602 74.2804 3.19003 74.3678 3.20959C74.8144 3.31713 75.2611 3.47357 75.766 3.63978C75.8534 3.14114 75.8922 2.50563 76.4069 2.08521Z" fill="white"/>
<path d="M54.035 25.4331C54.1709 25.0323 54.2777 24.7194 54.3748 24.4163C54.3554 24.4065 54.336 24.3967 54.3166 24.387C54.1515 24.6705 53.9864 24.9638 53.7825 25.3158C53.5689 25.0225 53.3941 24.7878 53.2096 24.5434C53.1902 24.5532 53.1708 24.563 53.1514 24.5727C53.2485 24.8367 53.3553 25.0909 53.4621 25.3842C52.5397 25.218 52.0348 23.8394 52.2484 23.1746C52.3358 22.9106 52.53 22.9302 52.6756 23.0573C53.0446 23.3604 53.3941 23.7026 53.7243 23.9959C53.9767 23.7123 54.2486 23.3408 54.5884 23.0475C54.9186 22.7542 55.0836 22.8422 55.171 23.2724C55.3458 24.0839 54.8895 25.0029 54.035 25.4331Z" fill="white"/>
<path d="M60.7835 26.0882C60.5796 25.6482 60.3563 25.2669 60.23 24.8562C60.0941 24.4163 60.2592 24.2794 60.6961 24.3869C61.5117 24.5825 62.1235 25.3256 62.1817 26.2837C61.9001 26.0295 61.6768 25.8144 61.4535 25.6091C61.4341 25.6286 61.4146 25.6384 61.3952 25.658C61.5797 25.9122 61.7642 26.1762 61.9972 26.4988C61.6088 26.5673 61.2787 26.6357 60.9389 26.6944C60.9389 26.7139 60.9389 26.7335 60.9389 26.753C61.2593 26.753 61.57 26.753 61.9293 26.753C61.4341 27.545 60.065 27.5841 59.2202 26.8312C59.628 26.3424 60.1621 26.1175 60.7835 26.0882Z" fill="white"/>
<path d="M108.964 21.493C108.964 21.8646 108.964 22.2361 108.964 22.637C108.187 22.0894 108.119 20.7988 108.828 19.9678C109.371 20.3198 109.546 20.8771 109.653 21.5224C109.973 21.3268 110.245 21.1117 110.556 20.9846C110.779 20.8966 111.051 20.9162 111.304 20.8868C111.284 21.141 111.304 21.405 111.226 21.6299C110.964 22.373 110.284 22.8618 109.507 22.8716C109.721 22.6174 109.905 22.4023 110.09 22.1872C110.071 22.1676 110.051 22.1481 110.041 22.1188C109.808 22.3045 109.566 22.4903 109.274 22.7152C109.187 22.2654 109.1 21.8743 109.022 21.4735C108.993 21.493 108.983 21.493 108.964 21.493Z" fill="white"/>
<path d="M102.905 22.2556C103.371 21.8742 103.798 21.5125 104.245 21.1507C104.818 22.0013 104.157 23.419 103.157 23.6537C103.293 23.3408 103.419 23.0475 103.546 22.764C103.526 22.7542 103.507 22.7346 103.487 22.7249C103.303 22.9888 103.109 23.2431 102.866 23.5853C102.672 23.2039 102.507 22.8911 102.332 22.5782C102.312 22.5782 102.293 22.588 102.274 22.588C102.371 22.9204 102.458 23.2528 102.565 23.6048C101.681 23.331 101.235 22.0013 101.71 21.0725C102.361 21.2192 102.643 21.7471 102.905 22.2556Z" fill="white"/>
<path d="M65.6094 25.2375C65.7453 24.8171 65.8424 24.4846 65.9492 24.1522C65.9298 24.1424 65.9007 24.1327 65.8812 24.1229C65.7259 24.4358 65.5608 24.7486 65.3666 25.1299C65.1433 24.8366 64.9685 24.5922 64.7937 24.3575C64.7743 24.3673 64.7549 24.3771 64.7355 24.3869C64.8423 24.6606 64.9588 24.9246 65.085 25.2277C64.182 24.9442 63.5703 23.8589 63.7839 23.0181C63.8519 22.7345 64.0364 22.7541 64.1917 22.8714C64.5704 23.1647 64.9297 23.4874 65.3278 23.81C65.5802 23.3603 65.8618 22.8127 66.4832 22.6172C67.0173 23.3603 66.6386 24.6508 65.6094 25.2375Z" fill="white"/>
<path d="M61.5796 10.611C62.1913 10.3274 62.7545 10.5816 63.3759 10.8163C63.2788 10.1514 63.3079 9.56481 63.706 9.0564C64.5702 9.46704 64.9101 10.7674 64.3566 11.7256C64.2401 11.2954 64.1333 10.9238 64.0362 10.5621C64.0168 10.5621 64.0071 10.5719 63.9876 10.5719C64.0168 10.9532 64.0459 11.3247 64.0847 11.794C63.7449 11.6669 63.473 11.5594 63.1914 11.4616C63.1817 11.4811 63.1623 11.4909 63.1526 11.5105C63.3662 11.6669 63.5798 11.8233 63.8031 11.9896C63.0749 12.4295 61.7447 11.6083 61.5796 10.611Z" fill="white"/>
<path d="M90.4858 15.7342C90.7674 15.4702 90.9907 15.2551 91.214 15.04C91.1946 15.0205 91.1849 15.0009 91.1655 14.9814C90.8936 15.1574 90.6217 15.3431 90.2819 15.568C90.2334 15.2356 90.1945 14.9618 90.1557 14.6881C90.1265 14.6881 90.0974 14.6881 90.0683 14.6881C90.0392 14.9423 90.01 15.2063 89.9809 15.4702C89.2527 14.8934 89.3109 13.5441 90.0974 12.7717C90.5926 13.1824 90.7188 13.7592 90.7868 14.4143C91.0781 14.2676 91.3306 14.0819 91.6121 14.0134C91.884 13.945 92.185 13.9841 92.4763 13.9743C92.3986 14.2579 92.3792 14.5903 92.2336 14.8249C91.9131 15.3529 91.4277 15.7049 90.7868 15.7733C90.7091 15.7831 90.6315 15.7538 90.4858 15.7342Z" fill="white"/>
<path d="M70.2312 24.9051C70.0953 24.6412 69.9787 24.4358 69.8719 24.2305C69.8428 24.2403 69.8234 24.2501 69.7943 24.2501C69.8331 24.4554 69.8719 24.6607 69.9108 24.8856C69.0563 24.6216 68.6873 23.1648 69.2602 22.3337C69.8719 22.5586 70.1147 23.1061 70.3574 23.6341C70.6876 23.3506 70.9692 23.0475 71.3187 22.8422C71.8139 22.5391 71.9693 22.6662 71.9498 23.2332C71.911 24.0741 71.2896 24.866 70.5031 25.0029C70.6487 24.7194 70.775 24.4749 70.9109 24.2207C70.8915 24.2012 70.8721 24.1816 70.8526 24.1719C70.6487 24.4065 70.4545 24.6314 70.2312 24.9051Z" fill="white"/>
<path d="M127.461 36.2664C127.694 36.6673 127.946 37.0583 128.15 37.4788C128.296 37.7916 128.189 37.9676 127.791 37.9187C126.898 37.8112 126.111 37.0975 126.062 36.2468C126.286 36.3935 126.49 36.5304 126.684 36.6575C126.703 36.6379 126.723 36.6282 126.742 36.6086C126.577 36.4131 126.412 36.2175 126.198 35.9633C126.558 35.8558 126.878 35.758 127.189 35.67C127.189 35.6406 127.189 35.6211 127.179 35.5918C126.868 35.6211 126.567 35.6406 126.218 35.67C126.742 34.8487 128.043 34.6825 128.849 35.2789C128.674 35.7286 128.606 35.7775 127.461 36.2664Z" fill="white"/>
<path d="M116.324 25.4528C115.858 26.4109 114.664 26.8411 113.761 26.3621C114.062 26.2349 114.333 26.1176 114.605 26.0003C114.596 25.9807 114.596 25.9514 114.586 25.9319C114.295 25.9807 114.003 26.0296 113.634 26.0883C113.722 25.7265 113.799 25.4332 113.877 25.1301C113.858 25.1203 113.838 25.1106 113.828 25.1106C113.683 25.3648 113.547 25.6288 113.392 25.9025C112.964 25.0519 113.557 23.8102 114.508 23.4875C114.79 23.9373 114.799 24.1231 114.537 25.2768C115.139 25.1692 115.741 25.091 116.324 25.4528Z" fill="white"/>
<path d="M54.4335 27.4668C54.1422 27.6232 53.9189 27.7406 53.6956 27.8579C53.7053 27.8774 53.7053 27.9068 53.715 27.9263C53.9772 27.8677 54.2393 27.7992 54.5889 27.721C54.5015 28.161 54.4238 28.5325 54.3461 28.904C54.3656 28.9138 54.3753 28.9138 54.3947 28.9236C54.5403 28.5814 54.686 28.2294 54.8413 27.8481C55.3171 28.7378 54.8413 29.9991 53.9383 30.3804C53.6859 30.0578 53.6859 30.0578 53.6956 28.6498C53.3946 28.6987 53.1033 28.7769 52.8023 28.7672C52.5207 28.7672 52.2488 28.6792 51.9575 28.6303C52.2391 27.6428 53.482 27.0562 54.4335 27.4668Z" fill="white"/>
<path d="M114.789 16.1643C115.246 16.0665 115.634 15.9883 116.013 15.9101C116.013 15.9003 116.013 15.8905 116.003 15.8807C115.624 15.8807 115.246 15.8807 114.867 15.8807C115.12 15.1963 116.78 14.9226 117.518 15.7341C117.139 16.2718 116.586 16.4869 115.887 16.526C116.294 17.054 116.722 17.5233 116.625 18.2175C115.654 18.3642 114.615 17.4549 114.634 16.438C114.848 16.6043 115.042 16.7509 115.246 16.9074C115.265 16.8878 115.285 16.8682 115.304 16.8487C115.149 16.6434 114.993 16.4283 114.789 16.1643Z" fill="white"/>
<path d="M58.7928 16.2425C59.6182 15.9003 61.0164 16.9073 60.9484 17.8166C60.6668 17.6211 60.4046 17.4451 60.1522 17.2691C60.1425 17.2789 60.1425 17.2789 60.1328 17.2886C60.3755 17.5037 60.6086 17.7188 60.8513 17.9339C60.8319 17.9828 60.8028 18.0317 60.7833 18.0904C60.4532 18.2077 60.1134 18.325 59.7832 18.4423C59.7832 18.4619 59.7929 18.4814 59.7929 18.501C60.1231 18.4619 60.4629 18.4228 60.8125 18.3837C60.3755 19.2245 59.0064 19.4494 58.1714 18.8139C58.4627 18.2272 59.0064 18.0121 59.6764 17.8166C59.2298 17.3571 58.7734 16.9171 58.7928 16.2425Z" fill="white"/>
<path d="M85.7476 3.60054C86.4272 3.43432 86.9516 3.74719 87.4856 4.11873C87.505 3.45388 87.6216 2.86724 88.0876 2.40771C88.8838 2.94546 89.0101 4.28494 88.3012 5.14534C88.2527 4.72492 88.2042 4.36316 88.1653 3.99162C88.1459 3.99162 88.1362 3.99162 88.1168 3.99162C88.0876 4.36316 88.0585 4.73469 88.0294 5.18444C87.6992 4.9889 87.4565 4.84224 87.2235 4.69558C87.204 4.71514 87.1846 4.73469 87.1652 4.75425C87.3691 4.92046 87.573 5.08667 87.8255 5.29199C86.8448 5.55598 85.7961 4.6467 85.7476 3.60054Z" fill="white"/>
<path d="M100.827 11.6767C100.885 11.9015 100.953 12.1264 101.031 12.4295C100.691 12.4002 100.428 12.3709 100.166 12.3513C100.157 12.3709 100.157 12.3904 100.147 12.4197C100.39 12.5175 100.642 12.6153 100.895 12.7228C100.079 13.2704 98.7487 12.8304 98.3506 11.882C98.8749 11.5007 99.4672 11.5985 100.108 11.6669C99.9721 11.0705 99.7488 10.4838 100.069 9.89722C100.982 10.0928 101.516 11.0509 101.351 12.3122C101.176 12.0482 101.04 11.8527 100.914 11.6669C100.885 11.6669 100.856 11.6669 100.827 11.6767Z" fill="white"/>
<path d="M96.6418 16.1056C96.467 15.7439 96.3214 15.4505 96.1757 15.1475C96.1563 15.1572 96.1369 15.1572 96.1078 15.167C96.1757 15.4603 96.2534 15.7536 96.3311 16.0763C95.4378 15.7243 95.0494 14.4239 95.5543 13.5049C96.1466 13.7591 96.4864 14.248 96.7389 14.8737C97.137 14.3653 97.4963 13.8666 98.1662 13.7884C98.5449 14.7075 97.9138 15.9492 96.9331 16.1545C97.069 15.8612 97.1855 15.5972 97.3021 15.3332C97.2826 15.3234 97.2632 15.3137 97.2341 15.2941C97.0593 15.5483 96.8651 15.8025 96.6418 16.1056Z" fill="white"/>
<path d="M115.411 38.2511C115.663 38.0947 115.906 37.9284 116.246 37.7133C116.304 38.1827 116.353 38.5835 116.401 38.9844C116.411 38.9844 116.421 38.9844 116.43 38.9844C116.46 38.6031 116.498 38.2218 116.528 37.8111C117.256 38.3489 117.217 39.7275 116.489 40.4412C116.032 40.2065 115.896 39.923 115.77 38.8964C115.343 39.0626 114.925 39.2679 114.479 39.3755C114.003 39.4928 113.925 39.3755 114.071 38.9062C114.323 38.0849 115.091 37.508 115.994 37.596C115.751 37.7622 115.508 37.9187 115.256 38.0849C115.304 38.1435 115.362 38.2022 115.411 38.2511Z" fill="white"/>
<path d="M87.7477 8.63582C87.7283 8.96824 87.7089 9.29089 87.6895 9.71131C87.3399 9.50599 87.0486 9.33 86.7573 9.15401C86.7476 9.17357 86.7282 9.18334 86.7185 9.2029C86.9418 9.418 87.1748 9.62332 87.4079 9.84819C86.4952 10.0828 85.4465 9.18334 85.3979 8.10785C86.0485 7.96119 86.5728 8.22517 87.1263 8.64559C87.1943 7.99052 87.2331 7.355 87.7574 6.9248C88.5536 7.51144 88.6702 8.79225 87.9613 9.65265C87.9128 9.28111 87.8642 8.94869 87.8254 8.61626C87.806 8.63582 87.7769 8.63582 87.7477 8.63582Z" fill="white"/>
<path d="M65.91 15.8418C66.4344 16.8489 66.1139 17.9928 65.1527 18.5599C65.2498 18.1883 65.3275 17.8755 65.4051 17.5724C65.3857 17.5626 65.3566 17.5626 65.3372 17.5528C65.2012 17.8363 65.0556 18.1199 64.8808 18.4719C64.6672 18.2177 64.4924 18.0026 64.3079 17.7972C64.2885 17.807 64.2691 17.8168 64.2497 17.8363C64.3468 18.071 64.4536 18.2959 64.5604 18.5403C63.9292 18.4816 63.3078 17.7679 63.2301 16.9857C63.2107 16.7413 63.2884 16.4871 63.3175 16.2427C63.5505 16.3307 63.8127 16.3893 64.0166 16.5164C64.2982 16.6924 64.5604 16.9173 64.8225 17.1226C64.7934 17.1617 64.7643 17.2106 64.7351 17.2497C64.8905 16.9955 65.007 16.712 65.2012 16.4871C65.3954 16.2427 65.6479 16.0667 65.91 15.8418Z" fill="white"/>
<path d="M81.1157 12.0872C81.1157 13.1235 80.1738 14.0622 79.2223 13.9448C79.4359 13.7102 79.6301 13.4951 79.8146 13.2898C79.8048 13.2702 79.7854 13.2506 79.7757 13.2311C79.5233 13.4071 79.2805 13.5831 78.9601 13.8079C78.8921 13.4071 78.8339 13.0551 78.7756 12.7129C78.7562 12.7129 78.7465 12.7129 78.7271 12.7129C78.7076 13.0453 78.6979 13.368 78.6785 13.7395C77.8338 13.1235 77.9988 11.5103 78.6494 11.0605C79.0863 11.3539 79.1834 11.5592 79.4262 12.7129C79.9311 12.312 80.4263 11.9601 81.1157 12.0872Z" fill="white"/>
<path d="M115.304 18.853C115.479 19.5179 115.207 20.0458 114.887 20.6227C115.537 20.652 116.149 20.652 116.596 21.1605C116.062 21.9915 114.809 22.1675 113.896 21.5124C114.324 21.4342 114.702 21.3658 115.081 21.2973C115.081 21.2778 115.081 21.2582 115.081 21.2289C114.702 21.2289 114.314 21.2289 113.838 21.2289C113.993 20.9062 114.11 20.6618 114.236 20.4174C114.217 20.4076 114.197 20.3881 114.178 20.3783C114.013 20.564 113.838 20.7498 113.663 20.9454C113.333 20.1436 114.236 18.9801 115.304 18.853Z" fill="white"/>
<path d="M67.7357 15.216C67.6678 15.568 67.5998 15.9297 67.5221 16.311C66.8716 15.5777 67.0658 14.2969 67.9299 13.6321C68.396 14.1209 68.464 14.7271 68.4154 15.4018C68.9883 15.0791 69.5321 14.8151 70.1632 15.0009C70.1535 15.9688 69.1048 16.7803 68.0173 16.6239C68.2795 16.399 68.4931 16.2133 68.7067 16.0275C68.697 16.0079 68.6776 15.9884 68.6679 15.9688C68.4154 16.0959 68.163 16.223 67.8328 16.3795C67.8328 15.9493 67.8328 15.5875 67.8328 15.216C67.8037 15.2258 67.7746 15.216 67.7357 15.216Z" fill="white"/>
<path d="M60.1719 21.7081C60.1136 21.014 60.1913 20.4371 60.5991 19.9482C61.4439 20.3882 61.6963 21.7277 61.0555 22.637C60.9584 22.1872 60.8807 21.7961 60.803 21.405C60.7933 21.405 60.7739 21.405 60.7642 21.405C60.7642 21.8059 60.7642 22.2068 60.7642 22.6956C60.4243 22.5392 60.1524 22.4023 59.8709 22.2654C59.8611 22.285 59.8417 22.2948 59.832 22.3143C60.0651 22.5099 60.2884 22.6956 60.5408 22.9107C59.599 23.1454 58.5018 22.3339 58.3853 21.3366C59.0164 21.1215 59.5601 21.3953 60.1719 21.7081Z" fill="white"/>
<path d="M71.1243 26.9584C71.2602 26.4695 71.367 26.0002 71.5224 25.5407C71.6098 25.2865 71.7846 25.2278 72.0079 25.4625C72.5905 26.0687 72.6876 27.2224 72.1341 27.9948C72.0564 27.5841 71.9885 27.2224 71.9205 26.8606C71.8914 26.8606 71.8622 26.8606 71.8331 26.8704C71.8331 27.2419 71.8331 27.6135 71.8331 28.0632C71.503 27.897 71.2408 27.7699 70.9786 27.6428C70.9689 27.6623 70.9592 27.6819 70.9398 27.7015C71.1534 27.8774 71.367 28.0632 71.5904 28.2588C70.7553 28.4934 69.5804 27.721 69.493 26.9095C69.4833 26.8215 69.6678 26.6064 69.7552 26.6162C70.0951 26.6455 70.4349 26.7237 70.7747 26.8117C70.9204 26.8215 71.0466 26.9193 71.1243 26.9584Z" fill="white"/>
<path d="M79.3391 2.40771C79.844 2.84769 79.9217 3.4441 79.9508 4.11873C80.5043 3.73742 81.0383 3.42455 81.6986 3.59076C81.6597 4.60759 80.747 5.43865 79.6401 5.36043C79.9605 5.12578 80.2033 4.94001 80.446 4.75425C80.4072 4.70536 80.378 4.66625 80.3392 4.61737C80.0673 4.78358 79.8052 4.94979 79.4459 5.16489C79.4071 4.72492 79.3779 4.37294 79.3488 4.02096C79.3294 4.02096 79.3197 4.01118 79.3002 4.01118C79.2517 4.36316 79.2031 4.71514 79.1546 5.06712C78.4264 4.46093 78.5235 3.0139 79.3391 2.40771Z" fill="white"/>
<path d="M74.5133 19.9187C74.727 20.124 74.9406 20.3293 75.2513 20.6227C74.7367 20.6715 74.3386 20.5738 74.0764 20.3098C73.7269 19.9676 73.455 19.5374 73.2025 19.117C73.0569 18.8725 73.2316 18.7063 73.4744 18.7748C73.9599 18.9019 74.4454 19.0779 74.9406 19.2343C74.96 18.6965 75.0183 18.0904 75.5232 17.6602C76.3291 18.1686 76.4553 19.6058 75.7271 20.3489C75.6785 19.948 75.63 19.5765 75.5911 19.1952C75.5717 19.1952 75.562 19.1952 75.5426 19.1952C75.5135 19.5569 75.494 19.9187 75.4552 20.4173C75.1056 20.2022 74.8241 20.036 74.5522 19.8698C74.5425 19.8894 74.5231 19.9089 74.5133 19.9187Z" fill="white"/>
<path d="M90.0974 11.5789C90.4566 11.4029 90.7285 11.2758 90.9907 11.1389C90.9809 11.1194 90.981 11.0901 90.9712 11.0705C90.6605 11.1487 90.3595 11.2269 89.9711 11.3247C90.0488 10.9336 90.1168 10.6208 90.1847 10.2981C90.1653 10.2883 90.1459 10.2785 90.1168 10.2688C89.9905 10.5523 89.8643 10.8456 89.7187 11.1585C89.204 10.1417 89.9323 8.83152 90.7188 8.64575C91.0489 9.20305 90.9518 9.78969 90.8159 10.3861C91.4082 10.3861 91.9811 10.3861 92.5539 10.3861C92.4957 11.3149 91.2043 11.9505 90.0974 11.5789Z" fill="white"/>
<path d="M47.1995 29.7937C47.1024 29.9501 47.0442 30.0479 46.9374 30.2043C47.1122 30.1652 47.2287 30.1359 47.4132 30.087C47.384 30.2337 47.3743 30.3608 47.3355 30.4781C47.0248 31.3287 46.18 31.8762 45.3547 31.7883C45.1799 30.8888 46.0149 29.9501 47.1995 29.7937Z" fill="white"/>
<path d="M113.76 14.7956C113.935 14.5903 114.061 14.4339 114.197 14.2775C114.188 14.2579 114.168 14.2481 114.158 14.2286C113.984 14.3263 113.809 14.4143 113.605 14.5219C113.702 13.5246 114.867 12.7131 115.77 12.9869C115.77 13.9548 114.877 14.8054 113.76 14.7956Z" fill="white"/>
<path d="M74.4256 15.1475C74.7849 16.1252 74.2994 17.2691 73.3575 17.6113C73.4061 17.4158 73.4449 17.2496 73.4838 17.0833C73.4644 17.0736 73.4449 17.054 73.4255 17.0442C73.3187 17.1713 73.2119 17.2984 73.1051 17.4353C72.6876 16.6532 73.4449 15.3528 74.4256 15.1475Z" fill="white"/>
<path d="M121.363 36.2371C121.256 36.3935 121.188 36.5108 121.053 36.7064C121.276 36.6184 121.412 36.5597 121.538 36.5108C121.606 37.469 120.557 38.2903 119.8 38.3098C119.722 38.3098 119.577 38.085 119.577 37.9774C119.596 37.1463 120.431 36.3055 121.363 36.2371Z" fill="white"/>
<path d="M101.167 17.1519C101.322 18.1883 100.555 19.2149 99.5551 19.3029C99.6425 19.1367 99.7202 18.9803 99.8076 18.8238C99.7881 18.8043 99.7687 18.7847 99.7493 18.7652C99.6231 18.8629 99.4871 18.9705 99.3512 19.078C99.1958 18.1492 100.147 17.1421 101.167 17.1519Z" fill="white"/>
<path d="M111.09 23.6439C111.197 24.5826 110.313 25.5114 109.255 25.5505C109.362 25.3843 109.449 25.2474 109.605 25.003C109.342 25.1399 109.187 25.2181 109.012 25.3061C109.109 24.2697 110.119 23.4777 111.09 23.6439Z" fill="white"/>
<path d="M96.8363 12.1656C96.7878 12.4882 96.7392 12.8207 96.6907 13.1726C95.9915 12.4491 96.1372 11.0608 96.9431 10.4741C97.6811 11.139 97.7199 12.4002 96.9625 13.2215C96.9334 12.8304 96.9043 12.498 96.8848 12.1656C96.8654 12.1656 96.8557 12.1656 96.8363 12.1656Z" fill="white"/>
<path d="M84.9514 4.63696C85.9418 4.76407 86.7283 5.83956 86.5049 6.81728C86.3205 6.60218 86.1651 6.41642 86 6.22087C85.9806 6.23065 85.9612 6.24043 85.9321 6.25998C86.0389 6.49463 86.1554 6.72929 86.2719 6.98349C85.2524 6.74884 84.5727 5.50714 84.9514 4.63696Z" fill="white"/>
<path d="M80.98 2.98457C81.1062 2.77925 81.2324 2.58371 81.3489 2.39794C81.3295 2.37839 81.3198 2.35883 81.3004 2.33928C81.1353 2.47616 80.9605 2.62282 80.7858 2.76948C80.6207 1.93841 81.582 0.774923 82.3879 0.804255C82.4656 0.804255 82.6015 0.921581 82.6209 1.00958C82.7666 1.83086 81.883 2.90636 80.98 2.98457Z" fill="white"/>
<path d="M81.417 9.25195C81.7665 10.1221 81.116 11.3443 80.1353 11.5692C80.213 11.3541 80.2906 11.1683 80.3586 10.9825C80.3392 10.963 80.3198 10.9532 80.2906 10.9336C80.1547 11.0901 80.0188 11.2367 79.8828 11.3932C79.5041 10.6501 80.4266 9.3595 81.417 9.25195Z" fill="white"/>
<path d="M90.1944 3.32687C90.3012 3.06288 90.3789 2.87711 90.4566 2.68157C90.4372 2.66202 90.4177 2.65224 90.3983 2.63268C90.243 2.81845 90.0973 2.99444 89.9323 3.18999C89.6798 2.33937 90.3983 1.08788 91.1945 0.970557C91.2819 0.96078 91.4276 1.039 91.4567 1.11722C91.7577 1.86028 91.0683 3.11177 90.1944 3.32687Z" fill="white"/>
<path d="M118.198 34.7703C118.567 34.7996 118.848 34.8192 119.12 34.8485C119.13 34.829 119.13 34.7996 119.14 34.7801C118.877 34.6921 118.615 34.6041 118.324 34.5063C119.091 33.9295 120.353 34.2619 120.887 35.1223C120.256 35.7969 118.916 35.66 118.198 34.7703Z" fill="white"/>
<path d="M86.6215 14.3164C86.903 14.0818 87.107 13.9156 87.3012 13.7591C87.2817 13.7298 87.2623 13.7005 87.2332 13.6711C87.0001 13.808 86.7671 13.9449 86.5146 14.0916C86.6603 13.0845 87.6798 12.3512 88.6799 12.5076C88.845 13.4071 87.8061 14.3946 86.6215 14.3164Z" fill="white"/>
<path d="M73.7266 6.22094C73.4645 5.90807 73.2605 5.66364 73.0566 5.4192C73.0372 5.42898 73.0178 5.44854 72.9887 5.45831C73.144 5.73208 73.2994 6.00584 73.4645 6.29915C72.4741 6.26005 71.8429 4.96945 71.9691 4.24594C71.9789 4.16772 72.2216 4.06017 72.3284 4.07973C73.1634 4.27527 73.8043 5.21388 73.7266 6.22094Z" fill="white"/>
<path d="M106.109 10.5034C106.575 11.4029 106.148 12.6935 105.216 13.0357C105.293 12.7717 105.352 12.5469 105.42 12.3122C105.39 12.2926 105.371 12.2829 105.342 12.2633C105.225 12.4686 105.109 12.6837 104.983 12.8988C104.507 12.1069 105.167 10.7283 106.109 10.5034Z" fill="white"/>
<path d="M61.376 38.3098C61.6187 38.476 61.8323 38.6324 62.0362 38.7791C62.0557 38.7595 62.0751 38.74 62.0848 38.7204C61.9197 38.5151 61.7547 38.3196 61.5702 38.0947C62.58 38.0556 63.4636 39.004 63.415 40.0208C62.5314 40.2457 61.4537 39.3755 61.376 38.3098Z" fill="white"/>
<path d="M94.9427 6.61211C94.9136 6.22102 94.8942 5.9277 94.8747 5.62461C94.8553 5.62461 94.8359 5.61483 94.8262 5.61483C94.7776 5.9277 94.7291 6.24058 94.6805 6.56322C93.9717 5.9277 94.1271 4.48068 94.933 3.89404C95.6612 4.51978 95.7098 5.84949 94.9427 6.61211Z" fill="white"/>
<path d="M70.6585 22.676C70.6876 22.3729 70.707 22.1382 70.7362 21.9036C70.7168 21.8938 70.6973 21.8938 70.6682 21.884C70.5711 22.1089 70.4643 22.3435 70.3575 22.588C69.8429 21.7765 70.2701 20.5152 71.1828 20.0557C71.7945 20.7303 71.5615 22.0893 70.6585 22.676Z" fill="white"/>
<path d="M86.7572 2.79894C86.5241 2.57407 86.3493 2.41763 86.1746 2.25142C86.1552 2.2612 86.1357 2.28075 86.1163 2.29053C86.2523 2.52518 86.3882 2.75006 86.5435 3.00426C85.6502 2.88694 84.8637 1.9581 84.8929 1.09771C84.9026 0.863053 84.9803 0.765281 85.223 0.794612C86.0581 0.921716 86.8154 1.85055 86.7572 2.79894Z" fill="white"/>
<path d="M120.771 24.5629C120.946 24.3674 121.101 24.2012 121.266 24.0252C121.256 24.0056 121.237 23.9861 121.227 23.9665C121.014 24.1034 120.8 24.2305 120.577 24.3674C120.606 23.2723 121.868 22.627 122.499 22.715C122.577 22.7248 122.693 22.8617 122.703 22.9399C122.761 23.7318 121.606 24.7193 120.771 24.5629Z" fill="white"/>
<path d="M99.3218 2.60327C100.186 3.1508 100.458 4.43161 99.8364 5.23334C99.7684 4.95958 99.7005 4.71515 99.6422 4.47072C99.6228 4.47072 99.5937 4.47072 99.5742 4.47072C99.5742 4.71515 99.5742 4.9498 99.5742 5.22357C98.7489 4.80315 98.6324 3.29745 99.3218 2.60327Z" fill="white"/>
<path d="M58.2783 17.1813C57.987 17.0737 57.7442 16.9759 57.4918 16.8782C57.4723 16.8977 57.4626 16.927 57.4432 16.9466C57.6568 17.0933 57.8607 17.2399 58.0841 17.3964C57.2393 17.7777 56.0644 17.1128 55.8022 16.1449C56.5402 15.6169 57.919 16.1644 58.2783 17.1813Z" fill="white"/>
<path d="M120.693 31.5634C120.829 30.5173 121.412 29.8133 122.228 29.6178C122.626 29.52 122.732 29.6178 122.674 30.0284C122.548 30.8986 121.82 31.6319 120.956 31.7003C121.14 31.4461 121.295 31.231 121.451 31.0159C121.431 30.9964 121.422 30.9768 121.402 30.9573C121.179 31.143 120.965 31.3288 120.693 31.5634Z" fill="white"/>
<path d="M76.533 29.6374C76.2126 29.4907 75.9795 29.3929 75.7562 29.2854C75.7368 29.3049 75.7271 29.3245 75.7076 29.344C75.9018 29.5005 76.096 29.6667 76.2999 29.8329C75.5037 30.2044 74.2609 29.3636 74.1152 28.3956C74.9697 28.0241 76.1057 28.5521 76.533 29.6374Z" fill="white"/>
<path d="M103.322 17.8657C103.167 17.6408 103.012 17.4062 102.856 17.1813C102.817 17.2204 102.769 17.2497 102.73 17.2888C102.885 17.5235 103.041 17.7582 103.225 18.0221C102.303 17.9341 101.487 16.976 101.536 16.1351C101.545 15.8614 101.701 15.8516 101.905 15.8809C102.74 16.008 103.478 16.9075 103.449 17.7875C103.41 17.807 103.361 17.8364 103.322 17.8657Z" fill="white"/>
<path d="M66.7354 9.52565C66.5509 9.16389 66.3956 8.87058 66.2402 8.57726C66.2208 8.58704 66.2014 8.58704 66.182 8.59681C66.2694 8.91946 66.3567 9.24211 66.4538 9.60387C65.4926 9.13456 65.1042 7.91241 65.58 7.04224C66.5121 7.28667 67.085 8.45993 66.7354 9.52565Z" fill="white"/>
<path d="M85.1941 17.3182C84.8251 18.0515 83.1841 18.2959 82.5142 17.5528C82.8928 17.5039 83.2424 17.4551 83.5919 17.4062C83.5919 17.3866 83.5919 17.3671 83.5919 17.3573C83.2521 17.3377 82.9123 17.3182 82.5336 17.2888C83.0482 16.5262 84.7474 16.5947 85.1941 17.3182Z" fill="white"/>
<path d="M86.4663 16.2035C86.3401 15.9884 86.2138 15.783 86.0876 15.5679C86.0391 15.6071 86.0002 15.6462 85.9517 15.6853C86.0876 15.9199 86.2235 16.1448 86.3789 16.4088C85.3302 16.2524 84.6117 15.1769 84.8545 14.1991C85.7866 14.1698 86.6702 15.1377 86.5925 16.0959C86.544 16.135 86.5051 16.1741 86.4663 16.2035Z" fill="white"/>
<path d="M99.1373 10.0634C98.8848 9.86784 98.6615 9.70163 98.4285 9.52564C98.409 9.5452 98.3896 9.56475 98.3702 9.57453C98.5547 9.78963 98.7392 10.0047 98.9334 10.2296C98.0692 10.3372 96.9331 9.28121 97.0302 8.47948C97.04 8.40126 97.1759 8.28394 97.2633 8.28394C97.9624 8.28394 99.0984 8.92923 99.1373 10.0634Z" fill="white"/>
<path d="M101.108 26.8116C100.914 25.9219 101.672 24.7877 102.487 24.6802C102.584 24.6704 102.769 24.8073 102.788 24.8953C102.934 25.7655 102.186 26.8996 101.332 26.9681C101.497 26.6552 101.652 26.3716 101.807 26.0881C101.788 26.0783 101.769 26.0588 101.759 26.049C101.545 26.2934 101.341 26.5379 101.108 26.8116Z" fill="white"/>
<path d="M103.973 33.9491C104.322 34.1838 104.73 34.4184 105.09 34.702C105.332 34.8975 105.332 35.1028 104.992 35.2397C104.206 35.5624 103.235 35.2984 102.633 34.5064C102.944 34.5455 103.186 34.5749 103.419 34.5944C103.429 34.5749 103.439 34.5553 103.439 34.526C103.206 34.4184 102.973 34.3207 102.652 34.174C103.002 33.8611 103.293 33.5874 103.594 33.3234C103.585 33.3136 103.575 33.2941 103.565 33.2843C103.245 33.4896 102.934 33.6851 102.614 33.8905C102.575 33.8611 102.526 33.822 102.487 33.7927C102.662 33.5189 102.769 33.1474 103.012 32.9812C103.41 32.6976 103.876 32.4923 104.352 32.3554C104.759 32.2381 104.895 32.4239 104.701 32.8052C104.488 33.2256 104.196 33.5971 103.973 33.9491Z" fill="white"/>
<path d="M109.372 31.0061C109.974 31.055 110.527 31.1039 111.1 31.1626C110.916 32.1696 109.459 32.7172 108.585 32.1794C108.906 32.0523 109.187 31.935 109.479 31.8177C109.479 31.7981 109.469 31.7688 109.469 31.7492C109.158 31.8079 108.838 31.8568 108.43 31.9252C108.556 31.5146 108.653 31.1724 108.75 30.8302C108.731 30.8204 108.721 30.8106 108.702 30.8008C108.537 31.1039 108.372 31.407 108.197 31.7297C107.75 30.9084 108.362 29.6471 109.352 29.3245C109.702 29.8818 109.537 30.4586 109.372 31.0061Z" fill="white"/>
<path d="M105.915 33.3527C106.39 32.5901 107.721 32.3065 108.381 32.8052C108.459 32.8638 108.497 33.0985 108.449 33.1669C107.944 33.8904 106.623 34.174 105.973 33.6167C106.303 33.5091 106.614 33.4114 106.924 33.3234C106.924 33.3038 106.915 33.2843 106.915 33.2647C106.585 33.294 106.264 33.3234 105.915 33.3527Z" fill="white"/>
<path d="M62.3763 31.759C63.2696 32.2968 63.6094 33.5092 63.056 34.3696C62.9491 34.0371 62.8618 33.7634 62.7744 33.4798C62.7452 33.4798 62.7258 33.4798 62.6967 33.4896C62.7258 33.7829 62.7549 34.086 62.7841 34.4087C61.949 33.9296 61.7354 32.5314 62.3763 31.759Z" fill="white"/>
<path d="M118.45 20.7695C118.955 20.0655 120.508 20.0557 121.11 20.8086C120.625 21.6005 119.217 21.7472 118.411 21.0335C118.838 20.9846 119.217 20.9357 119.596 20.8966C119.596 20.8868 119.596 20.8673 119.596 20.8575C119.227 20.8281 118.858 20.8086 118.45 20.7695Z" fill="white"/>
<path d="M96.9039 6.72937C97.001 6.38716 97.0786 6.1134 97.1563 5.83964C97.1369 5.82986 97.1175 5.82009 97.0981 5.81031C96.9621 6.04496 96.8262 6.28939 96.6708 6.55338C96.2727 5.6441 96.865 4.43172 97.7972 4.15796C98.3118 4.92058 97.904 6.21117 96.9039 6.72937Z" fill="white"/>
<path d="M82.3006 23.7515C81.6792 22.9106 82.0967 21.6982 82.6502 21.2485C82.7182 21.1898 82.9609 21.2192 83.0095 21.2876C83.5532 22.0893 83.2619 23.4093 82.5725 23.8003C82.6016 23.3897 82.6308 23.0084 82.6599 22.6369C82.6405 22.6271 82.6308 22.6271 82.6114 22.6173C82.5143 22.9791 82.4074 23.3506 82.3006 23.7515Z" fill="white"/>
<path d="M123.199 37.6938C123.082 37.5276 122.956 37.3614 122.83 37.1756C123.82 37.1463 124.733 38.2023 124.577 39.1506C123.655 39.2875 122.713 38.476 122.587 37.3516C122.801 37.5081 122.975 37.6352 123.14 37.7623C123.16 37.7427 123.179 37.7134 123.199 37.6938Z" fill="white"/>
<path d="M110.906 13.3778C110.692 13.0747 110.517 12.8401 110.352 12.6054C110.304 12.6445 110.255 12.6934 110.207 12.7325C110.352 12.9574 110.498 13.192 110.653 13.4267C109.799 13.5147 108.954 12.4294 109.041 11.393C109.896 11.1682 110.983 12.2339 110.906 13.3778Z" fill="white"/>
<path d="M117.353 16.9563C117.79 17.0247 118.149 17.0736 118.508 17.1225C118.518 17.103 118.518 17.0834 118.528 17.0639C118.188 16.9465 117.858 16.839 117.508 16.7217C118.169 16.1252 119.625 16.5457 120.052 17.4452C119.324 18.0514 118.062 17.8656 117.353 16.9563Z" fill="white"/>
<path d="M112.692 37.811C112.624 38.1532 112.566 38.4172 112.508 38.6714C112.527 38.6812 112.556 38.691 112.576 38.7008C112.702 38.4368 112.828 38.1826 112.974 37.8795C113.401 38.8474 112.906 40.05 111.984 40.402C111.44 39.6296 111.75 38.3292 112.692 37.811Z" fill="white"/>
<path d="M53.8603 38.1924C53.802 38.5444 53.7535 38.8475 53.7049 39.1603C53.7243 39.1701 53.7438 39.1701 53.7632 39.1799C53.8797 38.8963 53.9865 38.603 54.1127 38.2902C54.6273 39.1897 54.1807 40.49 53.2874 40.8518C52.7145 40.0109 52.9573 38.7595 53.8603 38.1924Z" fill="white"/>
<path d="M115.46 24.2892C115.654 24.0056 115.809 23.7905 115.964 23.5657C115.945 23.5461 115.935 23.5363 115.916 23.5168C115.712 23.7025 115.498 23.8785 115.285 24.0741C115.139 23.2528 116.178 22.0795 116.965 22.1675C117.052 22.1773 117.188 22.3924 117.188 22.5097C117.178 23.3212 116.401 24.1621 115.46 24.2892Z" fill="white"/>
<path d="M128.452 28.9725C127.597 28.2099 127.5 26.9388 128.16 26.2349C129.024 26.7726 129.316 28.0241 128.714 28.8845C128.617 28.5227 128.539 28.2099 128.461 27.897C128.432 27.897 128.413 27.9068 128.384 27.9068C128.403 28.2392 128.422 28.5618 128.452 28.9725Z" fill="white"/>
<path d="M83.417 18.6379C84.3492 18.6477 85.1842 19.6157 85.1162 20.7303C84.8638 20.4663 84.6599 20.2414 84.4463 20.0165C84.4268 20.0263 84.4074 20.0361 84.3977 20.0459C84.5433 20.3098 84.689 20.5738 84.8444 20.8574C83.9802 20.9063 83.0286 19.3908 83.417 18.6379Z" fill="white"/>
<path d="M81.9026 32.5217C80.8733 32.7954 79.8344 32.1697 79.5625 31.192C80.349 30.7031 81.6598 31.2604 82.0385 32.287C81.6889 32.1403 81.3879 32.023 81.0869 31.8959C81.0772 31.9155 81.0578 31.935 81.0481 31.9546C81.3103 32.1306 81.5724 32.3066 81.9026 32.5217Z" fill="white"/>
<path d="M83.3297 12.4685C83.4462 12.1361 83.553 11.8525 83.6598 11.5592C83.6404 11.5494 83.621 11.5396 83.6016 11.5299C83.4365 11.7939 83.2714 12.0578 83.0966 12.3414C82.6888 11.5103 83.3879 10.2588 84.3492 10.0144C84.8347 10.8064 84.291 12.1849 83.3297 12.4685Z" fill="white"/>
<path d="M81.2132 6.00586C81.2715 7.05202 80.4753 8.01019 79.4849 8.03952C79.6597 7.79509 79.8053 7.57999 79.9607 7.37467C79.9412 7.35512 79.9315 7.34534 79.9121 7.32578C79.7082 7.492 79.4946 7.64843 79.2713 7.82442C79.1839 6.87603 80.2228 5.90809 81.2132 6.00586Z" fill="white"/>
<path d="M110.411 20.2609C110.479 19.9578 110.527 19.7232 110.585 19.4983C110.566 19.4885 110.547 19.4788 110.527 19.4788C110.401 19.6939 110.275 19.8992 110.139 20.1338C109.75 19.3614 110.255 18.0611 111.032 17.7775C111.119 17.7482 111.323 17.846 111.362 17.934C111.692 18.677 111.246 19.8307 110.411 20.2609Z" fill="white"/>
<path d="M104.623 24.8661C104.623 25.2376 104.623 25.6091 104.623 26.01C103.847 25.4625 103.779 24.1719 104.487 23.3408C105.031 23.6928 105.206 24.2501 105.313 24.8954C105.633 24.6999 105.905 24.4848 106.216 24.3577C106.439 24.2697 106.711 24.2892 106.963 24.2599C106.944 24.5141 106.963 24.7781 106.886 25.0029C106.624 25.746 105.944 26.2349 105.167 26.2447C105.381 25.9904 105.565 25.7753 105.75 25.5602C105.73 25.5407 105.711 25.5211 105.701 25.4918C105.468 25.6776 105.225 25.8633 104.934 26.0882C104.847 25.6385 104.759 25.2474 104.682 24.8465C104.662 24.8563 104.643 24.8661 104.623 24.8661Z" fill="white"/>
<path d="M104.915 27.017C105.022 27.9556 104.138 28.8844 103.08 28.9235C103.186 28.7573 103.274 28.6205 103.429 28.376C103.167 28.5129 103.012 28.5911 102.837 28.6791C102.924 27.6427 103.934 26.8508 104.915 27.017Z" fill="white"/>
<path d="M107.372 16.5554C107.44 16.2523 107.488 16.0176 107.546 15.7928C107.527 15.783 107.508 15.7732 107.488 15.7732C107.362 15.9883 107.236 16.1936 107.1 16.4283C106.711 15.6559 107.216 14.3555 107.993 14.072C108.08 14.0426 108.284 14.1404 108.323 14.2284C108.653 14.9715 108.216 16.1252 107.372 16.5554Z" fill="white"/>
<path d="M57.0259 30.9084C56.0938 31.0746 55.1422 30.3218 54.9189 29.5102C54.8607 29.2854 54.9286 29.168 55.1811 29.1387C55.9967 29.0409 56.958 29.7449 57.1716 30.6835C56.8512 30.4977 56.589 30.3511 56.3268 30.2044C56.3074 30.224 56.2977 30.2435 56.2783 30.2631C56.5113 30.4586 56.7444 30.664 57.0259 30.9084Z" fill="white"/>
<path d="M117.324 19.4593C117.013 19.5082 116.703 19.5473 116.382 19.5961C116.693 18.7455 118.217 18.462 118.955 19.0877C118.557 19.9579 117.353 20.3685 116.392 19.8797C116.751 19.7428 117.043 19.6353 117.344 19.5179C117.334 19.5082 117.334 19.4886 117.324 19.4593Z" fill="white"/>
<path d="M53.5592 22.324C52.8407 21.5809 52.928 20.2317 53.7048 19.6353C54.4525 20.3001 54.5593 21.4734 53.8796 22.3631C53.8408 22.1089 53.8019 21.9036 53.7825 21.708C53.7631 21.5125 53.7631 21.3169 53.7048 21.1214C53.6563 21.5125 53.6077 21.9036 53.5592 22.324Z" fill="white"/>
<path d="M65.512 19.7722C66.2111 20.4273 66.182 21.7179 65.347 22.4903C65.3664 22.0308 65.3858 21.669 65.4052 21.3072C65.3858 21.3072 65.3664 21.2975 65.347 21.2975C65.2693 21.6592 65.1916 22.021 65.1139 22.4121C64.444 21.6592 64.677 20.2904 65.512 19.7722Z" fill="white"/>
<path d="M118.829 21.7764C119.538 22.5097 119.519 23.7514 118.761 24.4944C118.761 24.0545 118.761 23.6536 118.761 23.2625C118.742 23.2625 118.713 23.2527 118.693 23.2527C118.625 23.6438 118.548 24.0349 118.47 24.4651C117.81 23.6829 118.004 22.3337 118.829 21.7764Z" fill="white"/>
<path d="M91.4764 24.3969C90.5345 24.1231 89.9811 22.8619 90.3792 22.0015C91.3113 22.109 92.0492 23.2921 91.7579 24.3089C91.5735 24.0253 91.4084 23.7809 91.2433 23.5365C91.2239 23.5463 91.2045 23.556 91.1851 23.5658C91.2725 23.82 91.3696 24.0938 91.4764 24.3969Z" fill="white"/>
<path d="M112.663 32.3944C112.799 33.3819 112.1 34.2912 110.915 34.5552C111.168 34.213 111.372 33.949 111.566 33.685C111.546 33.6654 111.527 33.6557 111.508 33.6361C111.265 33.8512 111.032 34.0761 110.76 34.3107C110.721 33.2841 111.663 32.3455 112.663 32.3944Z" fill="white"/>
<path d="M71.4061 11.2854C70.4157 10.8943 69.9399 9.65261 70.3671 8.81177C71.2993 9.00731 71.8916 10.0241 71.6974 11.1974C71.4838 10.865 71.309 10.601 71.1342 10.337C71.1148 10.3468 71.0954 10.3468 71.076 10.3566C71.1731 10.6401 71.2799 10.9236 71.4061 11.2854Z" fill="white"/>
<path d="M125.723 29.9796C125.577 30.2436 125.432 30.4978 125.266 30.7911C124.868 29.9503 125.519 28.777 126.257 28.4446C126.519 28.3273 126.587 28.4837 126.636 28.689C126.839 29.5299 126.403 30.4782 125.509 30.9475C125.626 30.5858 125.713 30.3022 125.801 30.0187C125.771 30.0089 125.752 29.9894 125.723 29.9796Z" fill="white"/>
<path d="M57.5698 22.1772C58.3465 22.8323 58.4436 24.1425 57.7348 24.866C57.6863 24.426 57.6377 24.0251 57.5892 23.6341C57.5795 23.6341 57.56 23.6341 57.5503 23.6341C57.5309 24.0251 57.5018 24.4162 57.4824 24.8366C56.7347 24.3282 56.8027 22.8421 57.5698 22.1772Z" fill="white"/>
<path d="M66.5025 35.1418C66.1918 34.9854 65.9394 34.8583 65.6869 34.7312C65.6772 34.7507 65.6578 34.7703 65.6481 34.7899C65.8617 34.9658 66.0753 35.1418 66.386 35.4058C66.1433 35.4156 65.9976 35.4449 65.8714 35.4254C65.0849 35.2983 64.5412 34.8485 64.2207 34.125C64.1236 33.9001 64.1333 33.7339 64.4246 33.7046C65.25 33.597 66.3569 34.2423 66.5025 35.1418Z" fill="white"/>
<path d="M45.4615 34.037C45.1799 33.949 44.9274 33.861 44.675 33.7828C44.6653 33.8121 44.6458 33.8317 44.6361 33.861C44.8692 33.9979 45.1022 34.1348 45.3547 34.2912C44.5584 34.653 43.2476 34.0761 43.0243 33.2841C43.0049 33.2059 43.0631 33.0397 43.1311 33.0006C43.8108 32.59 45.1896 33.1962 45.4615 34.037Z" fill="white"/>
<path d="M118.188 31.0258C118.45 30.6641 118.654 30.3903 118.858 30.1068C118.848 30.0872 118.829 30.0676 118.819 30.0579C118.557 30.3023 118.295 30.5565 118.004 30.8303C117.974 29.7645 118.926 28.8259 119.878 28.9139C120.072 29.8428 119.324 30.8498 118.188 31.0258Z" fill="white"/>
<path d="M83.485 6.56306C83.5239 6.11331 83.553 5.76133 83.5821 5.41913C83.5627 5.40935 83.5433 5.40935 83.5141 5.39957C83.4268 5.732 83.3394 6.06442 83.2423 6.4164C82.6111 5.78088 82.9121 4.43163 83.786 3.82544C84.4657 4.46096 84.3589 5.76133 83.485 6.56306Z" fill="white"/>
<path d="M64.454 15.5874C63.7452 14.8541 63.8618 13.4755 64.6483 12.9182C65.3959 13.4951 65.4736 14.9323 64.7162 15.6069C64.7162 15.1963 64.7162 14.8443 64.7162 14.4826C64.6774 14.4826 64.6482 14.4826 64.6094 14.4728C64.5512 14.8248 64.5123 15.1768 64.454 15.5874Z" fill="white"/>
<path d="M49.1025 36.2271C49.3841 35.308 50.6076 34.7801 51.6077 35.2005C51.2775 35.3471 50.996 35.484 50.7144 35.6111C50.7241 35.6405 50.7241 35.66 50.7338 35.6893C51.0445 35.6209 51.3455 35.5427 51.6854 35.4645C51.2193 36.3933 49.9376 36.7551 49.1025 36.2271Z" fill="white"/>
<path d="M71.1245 29.6275C71.7557 28.8747 73.115 28.8356 73.7947 29.5884C73.3869 29.608 73.0373 29.6275 72.6781 29.6373C72.6781 29.6569 72.6781 29.6764 72.6684 29.696C73.0179 29.7449 73.3675 29.8035 73.717 29.8524C73.2607 30.5662 71.7848 30.439 71.1245 29.6275Z" fill="white"/>
<path d="M68.6581 33.3918C67.9978 33.4016 67.4346 33.5091 67.0171 33.9882C67.4929 34.7997 68.9202 34.9464 69.6485 34.2424C69.4348 34.1837 69.2504 34.1349 69.0562 34.086C69.0562 34.0566 69.0659 34.0371 69.0659 34.0077C69.2698 33.9784 69.4737 33.9589 69.7456 33.9198C69.5708 33.6264 69.4154 33.3722 69.2698 33.118C69.2795 33.1082 69.2989 33.0985 69.3086 33.0789C69.5028 33.2745 69.7067 33.47 69.9106 33.6655C70.2213 32.9518 69.163 31.5537 68.192 31.6417C68.0075 32.2967 68.3862 32.8247 68.6581 33.3918Z" fill="white"/>
<path d="M67.4739 33.1474C67.1437 33.0203 66.9107 32.9421 66.668 32.8541C66.668 32.8247 66.668 32.8052 66.6777 32.7758C66.9301 32.7954 67.1826 32.815 67.4447 32.8443C67.1243 32.023 65.6581 31.7492 64.8813 32.3456C65.2309 33.2256 66.4155 33.6362 67.4739 33.1474Z" fill="white"/>
<path d="M73.3093 34.8585C72.7559 33.9394 71.581 33.6559 70.7168 34.1741C70.9401 35.0736 72.2704 35.6016 73.2511 35.1225C72.9015 34.9856 72.6005 34.8585 72.2995 34.7314C72.2995 34.7118 72.3092 34.6825 72.3092 34.663C72.6199 34.7216 72.9306 34.7803 73.3093 34.8585Z" fill="white"/>
<path d="M63.5899 29.3733C63.5219 30.3511 64.4735 31.3288 65.4833 31.2799C65.2114 30.9866 64.959 30.7226 64.7162 30.4586C64.7259 30.4391 64.7356 30.4293 64.7453 30.4097C65.0366 30.615 65.3182 30.8204 65.6095 31.0355C65.7649 30.1946 64.6191 29.2462 63.5899 29.3733Z" fill="white"/>
<path d="M49.6657 60.0934C50.025 60.0934 50.8892 59.4286 52.2485 58.1087C53.5885 56.7594 54.2585 55.899 54.2585 55.5079C54.2585 55.1266 53.5885 54.2564 52.2485 52.9072C50.9086 51.5579 50.0541 50.8833 49.6657 50.8833C49.287 50.8833 48.4229 51.5579 47.0829 52.9072C45.7624 54.276 45.1118 55.1364 45.1118 55.5079C45.1118 55.8697 45.7721 56.7399 47.0829 58.1087C48.452 59.4286 49.3065 60.0934 49.6657 60.0934Z" fill="white"/>
<path d="M59.2203 84.0769C59.1523 76.2845 58.8804 73.8891 58.6668 73.2731C57.7347 70.4182 56.8511 68.4138 56.0258 67.2992C54.7829 65.6371 53.3167 64.9625 51.5495 65.2558C49.9086 65.4807 48.1511 66.3411 46.3159 67.8077C44.2283 69.4796 43.034 71.259 42.7718 73.0971C42.6262 74.3193 42.8689 75.6392 43.4806 76.9982L43.8496 77.8097H11.4673C11.0401 77.8097 10.3604 77.6044 8.7777 76.0107C8.13685 75.3068 7.82614 74.2997 7.82614 73.0189V71.7088C7.85527 71.3763 7.87469 71.1221 7.8844 70.8973C7.89411 70.6822 7.90382 70.5159 7.90382 70.3986C7.90382 69.0983 7.3892 68.7952 6.94254 68.6876C6.88429 68.6681 6.81632 68.6583 6.73864 68.6583C6.16576 68.6583 5.08797 69.2449 3.3402 72.315C1.63127 75.3654 0.76709 78.6213 0.76709 81.9846C0.76709 82.7081 0.815639 83.4121 0.903028 84.1063H59.2203V84.0769ZM49.996 72.8331C50.5883 72.2856 51.2097 72.3247 51.6272 72.4616C52.0641 72.5496 52.6564 72.9994 53.4818 73.8891C54.2586 74.7104 54.6664 75.5903 54.6664 76.5094C54.6664 78.3182 53.4429 78.5137 52.9089 78.5137C51.9185 78.5137 50.9961 77.9857 50.1707 76.9396C49.559 76.0792 49.258 75.2677 49.258 74.5148C49.258 73.7718 49.5105 73.2047 49.996 72.8331Z" fill="white"/>
<path d="M75.4163 77.7901H71.6392C71.2411 77.7901 70.8624 77.5066 70.3866 76.8319C69.9302 76.2453 69.6875 75.6391 69.6875 75.0231V52.2031H63.2305V84.0866H79.7178C77.7078 82.5027 76.1834 80.3126 75.4163 77.7901Z" fill="white"/>
<path d="M45.3257 32.5118C45.4713 32.6291 45.617 32.7465 45.7626 32.8638C45.6461 32.7269 45.5296 32.5802 45.4131 32.4434C45.3839 32.4629 45.3548 32.4825 45.3257 32.5118Z" fill="white"/>
<path d="M129.083 32.4043C128.792 32.6194 128.52 32.8443 128.258 33.0985C127.025 34.2816 125.617 34.5944 124.034 33.91C123.519 33.6851 123.005 33.4309 122.509 33.1572C121.636 32.6781 120.791 32.1599 119.898 31.7101C118.635 31.0746 117.363 31.0942 116.111 31.7884C115.645 32.0524 115.169 32.3066 114.722 32.5999C113.693 33.2745 112.693 33.9687 111.664 34.6433C110.605 35.3277 109.45 35.2593 108.197 35.3668C106.022 35.5526 96.3414 35.6993 94.3218 35.357C94.1276 35.3864 93.9334 35.4059 93.7392 35.4255C93.7295 35.3864 93.7198 35.3473 93.7101 35.3179C94.1859 35.1224 94.6616 34.8975 95.1471 34.7313C96.759 34.1838 101.779 33.0985 103.391 32.5608C105.187 31.9644 106.634 30.928 107.595 29.2561C108.022 28.5032 108.692 28.0632 109.518 27.985C110.498 27.897 111.498 27.8775 112.489 27.9361C114.062 28.0241 115.625 28.249 117.188 28.3175C118.713 28.3859 119.713 27.4668 120.5 26.2642C120.315 26.362 120.15 26.4891 120.004 26.6358C119.033 27.721 117.81 28.0339 116.421 27.7993C115.091 27.5744 113.771 27.3202 112.45 27.1051C111.867 27.0073 111.275 26.9682 110.683 26.9095C110.829 26.8215 110.974 26.7629 111.12 26.7727C111.615 26.8118 111.916 26.5478 112.052 26.1176C112.324 25.267 112.673 24.4261 112.77 23.5559C112.916 22.1969 112.868 20.8183 112.897 19.4495C112.936 17.9243 113.353 16.5652 114.538 15.5289C114.586 15.4897 114.606 15.4213 114.635 15.3724C113.382 16.1155 112.683 17.2301 112.44 18.6282C112.304 19.43 112.236 20.2415 112.149 21.053C112.013 22.4022 111.906 23.7515 111.285 25.003C110.867 25.834 110.246 26.3522 109.323 26.4989C108.615 26.6162 107.906 26.7335 107.343 27.2811C107.508 26.9975 107.673 26.7238 107.916 26.5282C108.343 26.1762 108.479 25.7167 108.566 25.1985C108.751 24.0546 108.469 23.0182 107.848 22.0796C107.498 21.5516 107.323 20.9845 107.459 20.3784C107.653 19.5473 107.916 18.726 108.168 17.9047C108.44 17.0052 108.751 16.1253 108.984 15.216C109.1 14.7662 109.11 14.2774 108.741 13.8863C108.964 14.6098 108.683 15.2453 108.45 15.8906C108.294 16.3404 108.071 16.7608 107.867 17.2008C107.547 17.9145 107.187 18.6185 106.896 19.342C106.44 20.4859 106.372 21.6201 107.022 22.764C107.547 23.6831 107.498 24.651 107.032 25.5994C106.76 26.1665 106.411 26.7042 106.207 27.3006C105.488 29.305 100.633 30.84 98.5844 31.2311C96.6813 31.5928 94.749 31.9155 92.9916 32.815C92.9818 32.8248 92.9527 32.7856 92.8653 32.727C93.2246 32.4825 93.5353 32.199 93.8946 32.0328C94.2927 31.8373 94.516 31.5537 94.5937 31.1431C94.7005 30.5564 96.759 29.4907 97.2153 29.1192C97.6231 28.7868 97.963 28.3468 98.2737 27.9166C99.167 26.6749 99.5166 25.2279 99.8079 23.7515C100.012 22.7249 100.187 21.6885 100.759 20.7792C100.886 20.5935 101.022 20.4077 101.148 20.2219C101.09 20.173 101.031 20.1144 100.973 20.0655C100.701 20.3979 100.39 20.701 100.167 21.0628C99.7399 21.7667 99.3515 22.5 98.9631 23.2333C98.497 24.1035 98.0892 24.9932 97.5746 25.834C97.2347 26.3816 96.7493 26.8411 96.021 27.1833C96.1375 26.978 96.1764 26.8802 96.2444 26.8118C96.6133 26.3913 96.7104 25.9416 96.5162 25.4038C96.3026 24.827 96.1667 24.2208 95.9628 23.6439C95.5355 22.3925 95.8074 21.2681 96.6133 20.2708C96.9435 19.8504 97.3124 19.4495 97.7105 19.0975C98.5164 18.3642 99.3612 17.6798 100.187 16.9661C101.963 15.4311 102.633 13.4365 102.488 11.1487C102.42 10.1025 102.255 9.06611 102.148 8.02973C102.099 7.56042 102.08 7.08134 102.051 6.61203C102.012 6.61203 101.973 6.61203 101.934 6.61203C101.895 7.06178 101.828 7.52131 101.818 7.97106C101.798 8.98789 101.847 10.0047 101.808 11.0216C101.73 13.0357 101.012 14.7369 99.2835 15.9004C98.0601 16.7315 96.8366 17.5723 95.6618 18.374C95.6618 18.3642 95.6909 18.2567 95.7491 18.1785C96.0404 17.8363 96.0113 17.4941 95.8171 17.1225C95.5841 16.6728 95.3802 16.2035 95.1471 15.7537C94.6422 14.7662 94.0985 13.7885 93.9722 12.6641C93.9237 12.2339 93.9625 11.7842 93.9625 11.2171C93.5547 12.1948 93.4479 13.0943 93.613 14.0036C93.7683 14.8836 93.9722 15.7537 94.215 16.6141C94.5937 17.9536 94.5937 19.2442 93.9528 20.525C93.7101 21.0139 93.5644 21.5614 93.4576 22.0991C93.2343 23.1649 93.4868 24.211 93.681 25.2572C93.9043 26.4207 94.0014 27.5646 93.5547 28.7085C93.1275 29.7938 90.6321 31.2408 89.7485 31.935L88.7289 31.2213C88.3211 30.5173 87.8745 29.8329 87.4472 29.1387C86.787 28.0437 86.7481 26.9291 87.3404 25.7949C87.5735 25.3647 87.8356 24.9443 88.0687 24.5141C88.5347 23.6831 89.0397 22.8715 89.4475 22.0112C90.5253 19.7428 90.4282 17.543 88.962 15.4506C88.9134 15.3724 88.8357 15.3138 88.7775 15.2453C90.0106 17.9438 89.2727 20.2121 87.3793 22.2458C86.8258 22.8422 86.2821 23.4484 85.748 24.0644C85.0295 24.8857 84.3886 25.7656 84.0197 26.8215C83.9226 27.1051 83.9517 27.3104 84.175 27.5255C84.3886 27.7308 84.5537 27.9753 84.7382 28.2001C84.7091 28.2295 84.6896 28.2588 84.6605 28.2881C83.8061 27.4864 82.7185 27.2029 81.6602 26.8802C80.4562 26.5087 79.6405 25.7363 79.3589 24.5239C79.0385 23.1844 78.7472 21.8156 78.6501 20.4468C78.4851 18.1296 79.456 16.3599 81.5048 15.2258C81.8155 15.0498 82.1165 14.8836 82.437 14.7271C83.5148 14.2089 84.612 13.7298 85.6703 13.1823C87.6511 12.1459 89.1173 10.65 89.4766 8.3426C89.6125 7.44309 89.564 6.50448 89.564 5.58542C89.564 5.253 89.4766 4.91079 89.428 4.57837C89.3407 5.3801 89.3309 6.17206 89.263 6.96401C89.0688 9.13455 88.0881 10.826 86.1364 11.8135C84.9809 12.4001 83.7478 12.8303 82.5243 13.2899C81.3592 13.7298 80.2231 14.2089 79.223 14.9716C78.8929 15.2258 78.6404 15.4995 78.621 15.9493C78.6113 16.135 78.5239 16.311 78.4656 16.4968C78.388 15.6853 77.9219 15.1084 77.485 14.5218C77.3684 14.3654 77.2422 14.1992 77.1257 14.0427C76.0479 12.625 75.6886 11.0509 76.0479 9.30077C76.3392 7.86351 76.9024 6.54359 77.5626 5.253C77.6306 5.11612 77.6889 4.97924 77.7568 4.85213C77.6986 4.8228 77.65 4.80325 77.6015 4.77391C77.0286 5.78097 76.4072 6.76847 75.8925 7.81463C75.4847 8.63591 74.9701 9.46698 75.2323 10.3469C74.8342 10.0829 74.4069 9.74074 73.9311 9.49631C73.3291 9.12477 72.6689 8.90968 72.0474 8.61636C71.6396 8.43059 71.2512 8.17639 70.8531 7.95151C70.824 8.0004 70.7949 8.0395 70.7657 8.08839C71.2415 8.43059 71.7076 8.79235 72.1931 9.115C72.8145 9.53542 73.4748 9.89718 74.0865 10.3372C74.6108 10.7185 74.873 11.2562 75.0089 11.9211C75.1934 12.8597 75.4265 13.8374 75.8537 14.6782C76.514 15.9688 76.8538 17.2888 76.7276 18.726C76.5722 20.4957 76.4848 22.2556 76.8053 24.0155C76.9121 24.6217 76.9315 25.267 77.6112 25.5798C76.8053 25.4527 76.0285 25.3158 75.2614 25.1692C74.8147 25.0812 74.6108 24.7879 74.6982 24.3284C74.7662 23.9764 74.8245 23.6342 74.9118 23.292C75.0575 22.7347 74.9604 22.2165 74.6303 21.7569C74.4361 21.4832 74.2127 21.229 73.9797 20.9845C73.2806 20.2121 72.6009 19.4202 72.5426 18.2958C72.4164 19.0487 72.5912 19.7428 72.9505 20.3881C73.2223 20.8672 73.5233 21.3365 73.8341 21.796C74.1448 22.2556 74.203 22.7249 73.9603 23.2333C73.8243 23.5266 73.7078 23.8297 73.6204 24.1426C73.3291 25.1301 73.5816 25.8829 74.4749 26.3816C74.9798 26.6651 75.543 26.8313 76.0867 27.0171C76.9995 27.3202 77.9607 27.5451 78.6987 28.2099C79.5143 28.953 80.4562 29.4712 81.4466 29.9405C83.0584 30.7031 84.1459 31.9448 84.5731 33.7047C84.6605 34.0567 83.6216 34.4282 83.641 34.79C83.4565 34.7606 83.3982 34.7118 83.3497 34.6531C82.3107 33.47 80.9902 32.7759 79.4755 32.5412C77.5432 32.2381 75.6207 31.8666 73.737 31.3093C73.1058 31.1235 72.465 30.9769 71.8338 30.7911C70.9211 30.5271 70.2414 29.9405 69.8045 29.0996C69.2704 28.073 68.7461 27.0464 68.2606 26.01C67.8431 25.1105 67.8431 24.1621 68.3383 23.292C68.9791 22.1676 68.9403 21.053 68.4742 19.9188C68.1052 19.0193 67.6586 18.1589 67.2702 17.279C66.8721 16.3697 66.4157 15.4702 66.5517 14.4045C66.4352 14.7662 66.2992 15.1475 66.3575 15.4897C66.4643 16.1644 66.6585 16.839 66.8624 17.4941C67.1731 18.5109 67.5712 19.4984 67.8528 20.5152C68.0567 21.2583 67.9596 21.9818 67.4935 22.676C66.6099 23.9959 66.5128 25.4332 67.1246 26.8998C67.2119 27.1246 67.3187 27.3397 67.3673 27.4571C66.9012 27.3006 66.406 27.0855 65.8817 26.9682C65.0078 26.7727 64.3767 26.2936 64.0368 25.4625C63.8232 24.9541 63.6096 24.4261 63.5319 23.8884C63.3377 22.6076 63.2212 21.3267 63.0658 20.0361C62.9396 18.99 62.7066 17.9732 62.0851 17.0932C61.6191 16.4381 60.8132 15.7733 60.2888 15.6657C61.823 16.7412 62.4833 18.198 62.4541 20.0068C62.4444 20.7499 62.4347 21.4832 62.4541 22.2262C62.4833 23.4777 62.5512 24.7194 62.9979 25.9123C63.2406 26.5673 63.4931 27.2322 64.3184 27.3495C64.3573 27.3593 64.3961 27.3886 64.4155 27.3984C62.8911 27.6819 61.3958 27.9361 59.9101 28.2392C58.0264 28.6205 56.3175 28.4641 54.997 26.8411C54.8513 26.6553 54.6086 26.5576 54.4047 26.4109C54.7639 26.8509 55.162 27.2322 55.5213 27.6526C56.0359 28.2686 56.6768 28.7183 57.4633 28.7672C58.5411 28.8259 59.6286 28.7868 60.7064 28.7281C62.1822 28.6499 63.6581 28.4543 65.134 28.425C66.2215 28.4054 67.2119 28.7965 67.8139 29.8329C68.7946 31.5342 70.29 32.5608 72.1251 33.1376C73.4845 33.5678 74.8439 33.9882 76.1838 34.4771C76.9218 34.7411 77.6112 35.1224 78.3297 35.445C78.3103 35.4939 78.3006 35.5428 78.2812 35.5917C78.2132 35.5917 78.1452 35.5917 78.0773 35.5917C76.7373 35.5819 69.2607 35.5233 67.9305 35.6699C65.5613 35.9241 63.396 35.5917 61.522 33.998C61.4443 33.9296 61.3472 33.8709 61.2598 33.8123C60.3471 33.2256 59.4441 32.6097 58.5022 32.0621C57.5604 31.5244 56.5311 31.3484 55.4922 31.7297C54.8028 31.9839 54.1522 32.3163 53.5017 32.6585C52.6181 33.1181 51.7733 33.6558 50.88 34.0958C49.2293 34.8877 47.7049 34.6824 46.3746 33.3527C46.1902 33.1767 45.996 33.0105 45.8018 32.8541C46.1222 33.2452 46.4426 33.646 46.7922 34.0176C47.2679 34.5162 47.8797 34.8193 48.5594 34.9269C49.9576 35.1517 51.2198 34.7606 52.4044 34.0371C52.6375 33.8905 52.8802 33.7634 53.2007 33.5874C52.9094 34.1838 52.6278 34.6433 52.4433 35.142C52.2394 35.6895 51.919 36.1197 51.4335 36.413C51.0548 36.6476 50.6275 36.7943 50.2489 37.0094C49.744 37.2929 49.2585 37.6156 48.7535 37.9285C49.4624 37.6938 50.1129 37.3809 50.7926 37.1756C52.0646 36.7845 53.0162 36.1001 53.356 34.7313C53.3754 34.6531 53.4143 34.5847 53.4434 34.5162C54.2008 32.8248 56.269 32.1403 57.8517 33.0692C58.1915 33.2745 58.5119 33.5092 58.8421 33.734C60.182 34.6531 61.2404 35.9535 62.7357 36.6965C61.7162 36.237 60.6384 36.2468 59.58 36.3543C58.9197 36.413 58.2595 36.5988 57.638 36.8432C56.9195 37.1267 56.2884 37.8893 56.1039 38.5346C57.2691 37.029 58.7547 36.8725 60.3859 37.2343C62.3862 37.6645 64.4058 37.8405 66.4449 37.8014C67.6198 37.7818 74.9216 37.6547 76.0867 37.7427C78.4753 37.9285 80.4562 38.8866 81.6408 41.1158C82.3107 42.3673 82.5341 50.4433 82.5729 52.4867C82.7671 52.2814 82.9613 52.0663 83.1943 51.8219C85.2528 49.7491 86.0587 49.358 86.8355 49.358C87.6123 49.358 88.4182 49.7491 90.4767 51.8219C90.6321 51.9783 90.7583 52.1054 90.8845 52.2521V51.8708C90.9525 48.0674 90.2242 37.7329 97.293 37.7329C98.4388 37.7329 106.886 37.4689 108.032 37.4885C110.12 37.5178 112.188 37.3516 114.227 36.9116C115.683 36.5988 117.062 36.677 118.189 37.8405C118.218 37.8698 118.266 37.8698 118.305 37.8893C118.334 37.86 118.363 37.8209 118.402 37.7916C118.033 37.4298 117.713 36.9801 117.276 36.7259C115.625 35.7579 113.887 35.7579 112.101 36.3934C113.392 35.8166 114.246 34.7411 115.276 33.8709C115.781 33.4505 116.305 33.0399 116.868 32.7074C117.956 32.0719 119.033 32.1892 120.063 32.903C120.684 33.3332 121.15 33.8807 121.383 34.6238C121.616 35.3668 121.975 36.0415 122.713 36.3641C123.704 36.8041 124.723 37.1854 125.733 37.5863C125.753 37.5471 125.772 37.5178 125.791 37.4787C125.238 37.1756 124.684 36.853 124.121 36.5792C123.383 36.2174 122.626 35.885 122.325 35.0442C122.121 34.4967 121.985 33.9296 121.82 33.3723C124.315 35.4548 127.296 35.0637 129.083 32.4043Z" fill="white"/>
<path d="M86.8254 50.8931C86.4467 50.8931 85.5825 51.5677 84.2426 52.9072C82.922 54.276 82.2715 55.1364 82.2715 55.5079C82.2715 55.8697 82.9318 56.7398 84.2426 58.1087C85.602 59.4286 86.4564 60.0934 86.8254 60.0934C87.1847 60.0934 88.0488 59.4286 89.4082 58.1087C90.7482 56.7594 91.4084 55.899 91.4084 55.5079C91.4084 55.1266 90.7385 54.2564 89.4082 52.9072C88.0683 51.5677 87.2041 50.8931 86.8254 50.8931Z" fill="white"/>
<path d="M4.19465 93.1304C4.05871 93.3748 3.89364 93.5704 3.69945 93.7366C3.50525 93.9028 3.28192 94.0201 3.02947 94.0983C2.77701 94.1765 2.51485 94.2157 2.23326 94.2157C1.89342 94.2157 1.59241 94.157 1.32054 94.0397C1.04866 93.9223 0.805916 93.7561 0.5923 93.541C0.436943 93.3846 0.320425 93.2184 0.233036 93.0424C0.145648 92.8664 0.0873885 92.6806 0.058259 92.4753C0.0291295 92.27 0 92.0549 0 91.83C0 91.6149 0 91.3705 0 91.1065C0 90.8425 0 90.5981 0.00970983 90.3634C0.0194197 90.1386 0.0388393 89.9234 0.0679688 89.7181C0.106808 89.5128 0.165067 89.327 0.242746 89.1511C0.330134 88.9751 0.446652 88.8088 0.60201 88.6524C0.815626 88.4373 1.05837 88.2711 1.33025 88.1538C1.60212 88.0364 1.90313 87.9778 2.24297 87.9778C2.52456 87.9778 2.79643 88.0169 3.03918 88.0951C3.28192 88.1733 3.50525 88.3004 3.70916 88.4569C3.90335 88.6231 4.06842 88.8186 4.20436 89.0631C4.3403 89.3075 4.42768 89.5812 4.48594 89.9039H3.27221C3.21396 89.6595 3.09744 89.4541 2.94208 89.2879C2.78672 89.1217 2.55369 89.0337 2.25268 89.0337C2.08761 89.0337 1.94197 89.0631 1.81574 89.1217C1.68951 89.1804 1.5827 89.2586 1.49531 89.3564C1.43706 89.415 1.38851 89.4933 1.34967 89.5715C1.30112 89.6692 1.27199 89.767 1.24286 89.8941C1.21373 90.0212 1.20402 90.1777 1.19431 90.3732C1.1846 90.5688 1.1846 90.8132 1.1846 91.1065C1.1846 91.3998 1.1846 91.6442 1.19431 91.8398C1.20402 92.0353 1.21373 92.1918 1.24286 92.3189C1.27199 92.446 1.30112 92.5437 1.33996 92.622C1.3788 92.7002 1.42735 92.7686 1.4856 92.8371C1.57299 92.9348 1.6798 93.013 1.80603 93.0717C1.93226 93.1304 2.0779 93.1597 2.24297 93.1597C2.54398 93.1597 2.77701 93.0815 2.93237 92.9153C3.08773 92.7491 3.20425 92.5437 3.2625 92.2993H4.46652C4.42768 92.6024 4.33059 92.886 4.19465 93.1304Z" fill="white"/>
<path d="M15.196 94.1669L14.8368 93.0817H12.6715L12.3025 94.1669H11.0693L13.2832 88.0464H14.2153L16.4389 94.1669H15.196ZM13.7784 89.8552L13.0113 92.0844H14.526L13.7784 89.8552Z" fill="white"/>
<path d="M27.7408 90.6862C27.6534 90.9209 27.5175 91.1262 27.3427 91.2924C27.1679 91.4586 26.9543 91.6053 26.7116 91.7031C26.4688 91.8009 26.1872 91.8497 25.8668 91.8497H24.6919V94.1572H23.5073V88.0366H25.8668C26.1775 88.0366 26.4591 88.0855 26.7116 88.1833C26.9543 88.281 27.1679 88.4179 27.3427 88.5939C27.5175 88.7699 27.6534 88.9752 27.7408 89.2001C27.8282 89.425 27.8767 89.6792 27.8767 89.9334C27.8767 90.2072 27.8282 90.4614 27.7408 90.6862ZM26.4591 89.3468C26.3038 89.1903 26.0901 89.1121 25.8183 89.1121H24.7113V90.7938H25.8183C26.0901 90.7938 26.3038 90.7156 26.4591 90.5689C26.6145 90.4125 26.6922 90.2169 26.6922 89.9627C26.6922 89.7085 26.6145 89.4934 26.4591 89.3468Z" fill="white"/>
<path d="M35.1982 94.1669V88.0464H36.3828V94.1669H35.1982Z" fill="white"/>
<path d="M46.4518 89.1121V94.1669H45.2672V89.1121H43.6748V88.0464H48.0442V89.1121H46.4518Z" fill="white"/>
<path d="M58.2785 94.1669L57.9192 93.0817H55.7539L55.385 94.1669H54.1421L56.3559 88.0464H57.2881L59.5116 94.1669H58.2785ZM56.8608 89.8552L56.0938 92.0844H57.6085L56.8608 89.8552Z" fill="white"/>
<path d="M66.5898 94.1669V88.0464H67.7744V93.1012H70.532V94.1669H66.5898Z" fill="white"/>
<path d="M90.3595 90.6862C90.2721 90.9209 90.1361 91.1262 89.9614 91.2924C89.7866 91.4586 89.573 91.6053 89.3302 91.7031C89.0875 91.8009 88.8059 91.8497 88.4855 91.8497H87.3106V94.1572H86.126V88.0366H88.4855C88.7962 88.0366 89.0778 88.0855 89.3302 88.1833C89.573 88.281 89.7866 88.4179 89.9614 88.5939C90.1361 88.7699 90.2721 88.9752 90.3595 89.2001C90.4469 89.425 90.4954 89.6792 90.4954 89.9334C90.4954 90.2072 90.4469 90.4614 90.3595 90.6862ZM89.0681 89.3468C88.9127 89.1903 88.6991 89.1121 88.4272 89.1121H87.3203V90.7938H88.4272C88.6991 90.7938 88.9127 90.7156 89.0681 90.5689C89.2234 90.4125 89.3011 90.2169 89.3011 89.9627C89.3011 89.7085 89.2331 89.4934 89.0681 89.3468Z" fill="white"/>
<path d="M100.846 94.1669L100.487 93.0817H98.3218L97.9528 94.1669H96.71L98.9238 88.0464H99.8559L102.079 94.1669H100.846ZM99.4287 89.8552L98.6616 92.0844H100.176L99.4287 89.8552Z" fill="white"/>
<path d="M112.392 94.1669L111.207 91.7226H110.353V94.1669H109.168V88.0464H111.547C111.858 88.0464 112.129 88.0953 112.372 88.193C112.615 88.2908 112.829 88.4277 112.994 88.5939C113.168 88.7601 113.295 88.9655 113.382 89.1903C113.469 89.4152 113.518 89.6596 113.518 89.9138C113.518 90.1289 113.489 90.3245 113.431 90.5005C113.372 90.6765 113.285 90.8231 113.188 90.96C113.091 91.0969 112.965 91.2044 112.838 91.3022C112.702 91.4 112.566 91.4684 112.411 91.5173L113.77 94.1571H112.392V94.1669ZM112.1 89.337C111.945 89.1903 111.731 89.1121 111.469 89.1121H110.353V90.7253H111.469C111.731 90.7253 111.945 90.6471 112.1 90.5005C112.256 90.3538 112.333 90.1583 112.333 89.9138C112.333 89.6792 112.256 89.4836 112.1 89.337Z" fill="white"/>
<path d="M123.402 89.1121V94.1669H122.217V89.1121H120.625V88.0464H124.994V89.1121H123.402Z" fill="white"/>
<path d="M135.87 94.1669L133.462 90.4027V94.1669H132.277V88.0464H133.336L135.744 91.8008V88.0464H136.928V94.1669H135.87Z" fill="white"/>
<path d="M144.667 94.1669V88.0464H148.677V89.1121H145.861V90.5494H148.26V91.6151H145.861V93.1012H148.677V94.1669H144.667Z" fill="white"/>
<path d="M159.397 94.1669L158.212 91.7226H157.357V94.1669H156.173V88.0464H158.552C158.862 88.0464 159.134 88.0953 159.377 88.193C159.62 88.2908 159.833 88.4277 159.999 88.5939C160.173 88.7601 160.3 88.9655 160.387 89.1903C160.474 89.4152 160.523 89.6596 160.523 89.9138C160.523 90.1289 160.494 90.3245 160.435 90.5005C160.377 90.6765 160.29 90.8231 160.193 90.96C160.086 91.0969 159.969 91.2044 159.843 91.3022C159.707 91.4 159.571 91.4684 159.416 91.5173L160.775 94.1571H159.397V94.1669ZM159.096 89.337C158.94 89.1903 158.727 89.1121 158.464 89.1121H157.348V90.7253H158.464C158.727 90.7253 158.94 90.6471 159.096 90.5005C159.251 90.3538 159.329 90.1583 159.329 89.9138C159.329 89.6792 159.251 89.4836 159.096 89.337Z" fill="white"/>
<path d="M171.825 93.1502C171.708 93.3848 171.553 93.5706 171.349 93.727C171.145 93.8835 170.912 94.0106 170.631 94.0888C170.359 94.1768 170.058 94.2159 169.747 94.2159C169.281 94.2159 168.873 94.1572 168.514 94.0399C168.155 93.9226 167.824 93.7075 167.523 93.4044L168.291 92.632C168.485 92.8275 168.708 92.9644 168.96 93.0329C169.213 93.1111 169.475 93.1404 169.766 93.1404C170.116 93.1404 170.388 93.072 170.572 92.9449C170.757 92.8178 170.844 92.632 170.844 92.3778C170.844 92.1529 170.786 91.9769 170.66 91.8596C170.601 91.8009 170.524 91.7618 170.446 91.7227C170.368 91.6934 170.262 91.664 170.116 91.6445L169.378 91.5369C168.863 91.4587 168.465 91.2925 168.203 91.0285C167.912 90.7352 167.766 90.3343 167.766 89.8259C167.766 89.5522 167.815 89.298 167.912 89.0731C168.009 88.8482 168.145 88.6527 168.329 88.4865C168.514 88.3202 168.737 88.1931 168.999 88.1051C169.262 88.0171 169.563 87.9683 169.893 87.9683C170.31 87.9683 170.679 88.0269 171 88.1345C171.31 88.242 171.602 88.4278 171.864 88.682L171.116 89.4348C170.922 89.2491 170.718 89.1318 170.495 89.0829C170.271 89.034 170.067 89.0046 169.864 89.0046C169.543 89.0046 169.31 89.0829 169.155 89.2295C168.999 89.386 168.922 89.5619 168.922 89.777C168.922 89.8553 168.931 89.9335 168.96 90.0117C168.99 90.0899 169.038 90.1584 169.096 90.217C169.155 90.2757 169.242 90.3246 169.329 90.3637C169.417 90.4028 169.533 90.4419 169.66 90.4517L170.378 90.5592C170.66 90.5983 170.883 90.657 171.068 90.7352C171.252 90.8134 171.407 90.9112 171.534 91.0285C171.699 91.185 171.815 91.3707 171.893 91.5858C171.971 91.8009 172 92.0551 172 92.3289C172 92.6613 171.941 92.9253 171.825 93.1502Z" fill="white"/>
<path d="M159.504 84.0771V81.799V76.6171H170.544V71.8849H159.504V66.3901H172V61.8926H154.357V84.0771H159.504Z" fill="white"/>
<path d="M131.248 84.0769L132.724 80.9482H144.948L146.327 84.0769H151.464L141.666 62.0195H136.316L126.364 84.0769H131.248ZM139.055 66.5953H139.084L143.016 76.0107H134.986L139.055 66.5953Z" fill="white"/>
<path d="M107.255 84.0769V75.9031H118.46V84.0769H123.674V61.9217H118.46V70.6919H107.255V61.8533H102.07V84.0769H107.255Z" fill="white"/>
<path d="M79.7277 84.077H95.0887C96.4287 83.0211 97.555 81.7109 98.3512 80.1954C99.6038 78.5627 99.7397 74.0554 99.7397 73.3416C95.5742 73.3416 90.7969 73.3123 87.3791 73.3123V77.8098C87.3791 77.8391 87.6801 77.8391 88.3307 77.8391C89.69 77.8391 92.1563 77.8098 93.2438 77.8098H93.7876C92.8069 80.127 90.0978 81.4958 87.3888 81.4958C83.3301 81.4958 80.0773 78.2596 80.0773 74.1336C80.0773 70.0467 83.3301 66.7713 87.3888 66.7713C90.0978 66.7713 92.3991 68.1695 93.6516 70.3498C96.0208 69.157 96.1956 69.0494 98.3221 67.9641C96.1568 64.1804 92.0592 61.5503 87.3888 61.5503C80.5142 61.5503 74.8922 67.2113 74.8922 74.1336C74.8728 78.1716 76.7857 81.7696 79.7277 84.077Z" fill="white"/>
</svg>
