<svg width="173" height="94" viewBox="0 0 173 94" fill="none" xmlns="http://www.w3.org/2000/svg">
<path d="M124.488 32.5279C124.469 32.1485 124.44 31.8177 124.421 31.4966C124.401 31.4966 124.392 31.4868 124.373 31.4868C124.315 31.8079 124.266 32.129 124.208 32.4695C123.542 31.7106 123.686 30.4166 124.508 29.7744C125.02 30.2123 125.03 30.835 125.088 31.4674C125.638 31.1755 126.16 30.8836 126.779 31.0587C126.817 32.022 125.696 32.9366 124.595 32.7322C124.846 32.5668 125.03 32.4501 125.213 32.3333C125.184 32.2944 125.155 32.2652 125.126 32.2263C124.943 32.3139 124.74 32.4112 124.488 32.5279Z" fill="#DADEE3"/>
<path d="M87.0461 21.65C86.9495 21.3872 86.8625 21.144 86.7756 20.891C86.7563 20.9008 86.7369 20.9008 86.7079 20.9105C86.7369 21.1927 86.7563 21.4748 86.7949 21.8056C86.534 21.757 86.3214 21.7181 86.1089 21.6791C86.0992 21.6986 86.0895 21.7181 86.0895 21.7375C86.2635 21.8543 86.4374 21.9613 86.621 22.0878C85.7513 22.477 84.5435 21.8154 84.2729 20.8132C84.8527 20.4824 85.4325 20.7256 86.0412 20.891C85.9543 20.2489 85.9059 19.6651 86.3021 19.1494C87.2201 19.5289 87.6742 21.0467 87.0461 21.65Z" fill="#DADEE3"/>
<path d="M116.903 33.5208C116.681 33.6083 116.459 33.6959 116.237 33.7835C116.343 32.8883 117.696 32.2267 118.594 32.6159C118.527 33.1608 118.343 33.3943 117.551 33.9586C117.889 34.2602 118.275 34.5327 118.575 34.8732C118.875 35.2137 118.797 35.35 118.343 35.4278C117.464 35.5932 116.536 35.1359 116.217 34.3478C116.488 34.4256 116.72 34.4937 116.961 34.5619C116.971 34.5424 116.99 34.5132 117 34.4937C116.787 34.3575 116.565 34.231 116.285 34.0559C116.526 33.8808 116.729 33.7348 116.923 33.5889C116.923 33.5694 116.913 33.55 116.903 33.5208Z" fill="#DADEE3"/>
<path d="M70.8705 6.33567C70.6386 6.28703 70.4647 6.24811 70.3004 6.21892C70.2908 6.23838 70.2811 6.26757 70.2714 6.28702C70.3874 6.37459 70.5033 6.47189 70.6193 6.56919C69.8269 6.95838 68.6094 6.21892 68.3872 5.23621C68.8317 4.99297 68.8607 5.0027 70.1265 5.34324C70.1265 5.10973 70.0975 4.89567 70.1361 4.68162C70.1748 4.40919 70.2521 4.14649 70.3487 3.89351C70.4357 3.64054 70.5903 3.61135 70.7932 3.79622C71.4309 4.33135 71.6339 5.46973 71.1507 6.29675C71.0541 5.95621 70.9768 5.67405 70.8898 5.40162C70.8609 5.40162 70.8415 5.40162 70.8125 5.41135C70.8319 5.68378 70.8512 5.9854 70.8705 6.33567Z" fill="#DADEE3"/>
<path d="M58.3382 26.8751C58.4541 26.5735 58.5507 26.3497 58.6377 26.1356C58.6184 26.1162 58.5991 26.0967 58.5797 26.087C58.5024 26.1746 58.4348 26.2719 58.3575 26.3594C58.2802 26.4665 58.1932 26.5735 58.0773 26.7389C57.913 26.4567 57.7874 26.2329 57.6521 26.0092C57.6328 26.0189 57.6135 26.0286 57.5845 26.0286C57.6521 26.2816 57.7101 26.5346 57.7874 26.8167C56.8405 26.3692 56.425 25.1335 56.9178 24.2578C57.5555 24.4427 57.8647 24.9584 58.1449 25.5616C58.4928 24.9973 58.8599 24.5205 59.5073 24.4038C59.9422 25.2113 59.4107 26.4178 58.3382 26.8751Z" fill="#DADEE3"/>
<path d="M101.549 4.99316C101.994 5.95641 101.655 7.03641 100.709 7.57154C100.757 7.30884 100.805 7.10451 100.844 6.90019C100.824 6.89046 100.795 6.88073 100.776 6.86127C100.66 7.05587 100.544 7.24073 100.39 7.4937C100.196 7.231 100.032 6.99749 99.8582 6.7737C99.8292 6.78343 99.8099 6.79316 99.7809 6.80289C99.8872 7.04614 99.9935 7.29911 100.1 7.55208C99.2011 7.43532 98.5537 6.17046 98.8919 5.17803C99.549 5.2656 99.9162 5.73262 100.293 6.27749C100.622 5.73262 100.882 5.17803 101.549 4.99316Z" fill="#DADEE3"/>
<path d="M82.3981 24.6857C82.4271 24.8706 82.4561 25.0652 82.485 25.2695C81.6251 24.929 81.2482 23.6155 81.7314 22.7495C82.2435 22.8857 82.485 23.1484 82.9295 24.0825C83.287 23.5571 83.6832 23.1095 84.321 23.0025C84.7848 23.7906 84.0987 25.143 83.0745 25.3765C83.2194 25.0846 83.345 24.8317 83.4706 24.5884C83.4513 24.569 83.432 24.5592 83.4127 24.5398C83.2291 24.7636 83.0455 24.9873 82.8232 25.2598C82.6976 25.036 82.5913 24.8511 82.4754 24.6663C82.4561 24.6663 82.4271 24.676 82.3981 24.6857Z" fill="#DADEE3"/>
<path d="M113.434 28.4027C113.541 28.1692 113.657 27.9454 113.792 27.6535C113.995 27.8773 114.159 28.0719 114.333 28.2665C114.352 28.2568 114.372 28.2373 114.391 28.2276C114.294 28.0135 114.207 27.8092 114.101 27.5757C115.077 27.7216 115.638 29.006 115.454 29.687C115.435 29.7649 115.164 29.8719 115.087 29.8232C114.681 29.5605 114.314 29.2687 113.889 28.9573C113.666 29.4341 113.405 29.9789 112.797 30.2124C112.178 29.5508 112.603 28.0038 113.502 27.5854C113.434 27.887 113.386 28.1303 113.328 28.3833C113.367 28.393 113.396 28.393 113.434 28.4027Z" fill="#DADEE3"/>
<path d="M95.0854 7.94099C95.8294 7.06531 95.984 6.94856 96.5058 6.87072C96.8923 7.72694 96.2932 8.98207 95.2883 9.26423C95.4139 8.97234 95.5299 8.71937 95.6361 8.46639C95.6168 8.45666 95.5878 8.43721 95.5685 8.42748C95.4042 8.65126 95.2303 8.87504 95.0177 9.15721C94.8728 8.90423 94.7472 8.69018 94.6216 8.47612C94.6022 8.48585 94.5733 8.49558 94.5539 8.49558C94.6022 8.71937 94.6506 8.93342 94.6989 9.16693C93.8872 8.98207 93.3268 7.41558 93.8969 6.63721C94.4959 6.86099 94.8148 7.34748 95.0854 7.94099Z" fill="#DADEE3"/>
<path d="M89.8574 23.8394C90.3116 24.3258 90.2633 24.9485 90.2729 25.4837C90.7657 25.4058 91.2295 25.3183 91.703 25.2599C91.8963 25.2404 92.0702 25.2988 92.0026 25.581C91.8093 26.3788 90.6594 27.0502 89.7995 26.8264C89.9444 26.6902 90.07 26.5734 90.1956 26.4664C90.186 26.4372 90.1763 26.4177 90.1666 26.3885C89.9831 26.4469 89.7995 26.5053 89.5579 26.5831C89.5869 26.1939 89.6062 25.8631 89.6255 25.5226C89.5966 25.5226 89.5772 25.5129 89.5482 25.5129C89.4709 25.8242 89.3936 26.1453 89.297 26.4956C88.7076 25.6394 89.0071 24.2967 89.8574 23.8394Z" fill="#DADEE3"/>
<path d="M129.581 32.8884C129.861 33.083 130.074 33.2387 130.296 33.3944C130.315 33.3749 130.325 33.3554 130.344 33.3457C130.161 33.1414 129.977 32.9273 129.745 32.6646C130.093 32.5576 130.373 32.47 130.654 32.3825C130.654 32.3533 130.654 32.3338 130.644 32.3046C130.364 32.3241 130.093 32.3435 129.794 32.363C130.248 31.536 131.61 31.3608 132.412 31.9835C132.18 32.47 131.958 32.616 130.992 32.9565C131.214 33.336 131.485 33.696 131.668 34.1046C131.842 34.5035 131.707 34.63 131.272 34.5911C130.451 34.5133 129.716 33.7933 129.581 32.8884Z" fill="#DADEE3"/>
<path d="M90.8238 28.7919C91.1233 28.3443 91.4518 27.8189 92.1089 27.7021C92.534 28.5973 91.9929 29.8621 91.046 30.154C91.1233 29.9205 91.1909 29.7162 91.2586 29.5119C91.2296 29.4924 91.2103 29.4827 91.1813 29.4632C91.0557 29.6481 90.9204 29.8427 90.7465 30.0859C90.5725 29.8038 90.4179 29.5508 90.2633 29.3076C90.244 29.3173 90.2247 29.327 90.1957 29.3367C90.273 29.5897 90.3503 29.8427 90.4372 30.1054C89.6739 30.0081 89.0458 28.6167 89.4033 27.8092C89.4323 27.7411 89.7222 27.7021 89.7995 27.7605C90.157 28.0913 90.4759 28.4416 90.8238 28.7919Z" fill="#DADEE3"/>
<path d="M80.7651 16.9311C81.0454 17.0673 81.2966 17.1938 81.5478 17.3106C81.5671 17.2911 81.5768 17.2716 81.5961 17.2424C81.3739 17.0576 81.1516 16.8824 80.8811 16.6684C81.113 16.5322 81.2966 16.4251 81.4802 16.3181C81.4705 16.2987 81.4608 16.2695 81.4608 16.25C81.2579 16.2792 81.055 16.3084 80.8521 16.3473C81.113 15.5106 82.6494 15.0338 83.3644 15.5787C83.2484 16.036 83.2484 16.036 82.0986 16.8241C82.5914 17.1743 83.0165 17.5733 83.1422 18.196C82.3208 18.6338 80.9874 17.943 80.7651 16.9311Z" fill="#DADEE3"/>
<path d="M128.682 30.3098C128.808 30.5141 128.924 30.7281 129.059 30.9422C128.199 31.0103 127.388 29.8038 127.6 28.753C128.267 28.7725 128.692 29.1909 129.117 29.7163C129.33 29.1033 129.562 28.5292 130.161 28.2471C130.77 29.0352 130.538 30.3487 129.668 30.8644C129.687 30.6017 129.707 30.3681 129.726 30.1444C129.707 30.1346 129.687 30.1346 129.658 30.1249C129.562 30.3487 129.465 30.5822 129.339 30.8936C129.127 30.6406 128.953 30.4168 128.779 30.2027C128.74 30.2417 128.711 30.2806 128.682 30.3098Z" fill="#DADEE3"/>
<path d="M52.0958 31.6234C52.0765 30.9521 52.4823 30.5045 52.9558 30.0472C52.3084 29.9013 51.7576 29.6775 51.4194 29.1131C52.0862 28.4321 53.5066 28.5975 54.067 29.4537C53.7191 29.4245 53.4196 29.3953 53.1104 29.3758C53.1104 29.3953 53.1007 29.4148 53.1007 29.4342C53.4099 29.5315 53.7191 29.6288 54.1057 29.7553C53.9027 29.9694 53.7481 30.1348 53.5839 30.3099C53.5935 30.3294 53.6129 30.3586 53.6225 30.378C53.8158 30.2613 54.009 30.1445 54.2119 30.018C54.183 31.0202 53.0717 31.8569 52.0958 31.6234Z" fill="#DADEE3"/>
<path d="M78.8133 8.53459C80.1757 8.58324 80.1757 8.58324 80.5139 8.82648C80.1274 9.73134 78.823 10.1789 77.992 9.64378C78.2819 9.52702 78.5427 9.42972 78.8036 9.3227C78.8036 9.30324 78.794 9.27405 78.794 9.25459C78.5041 9.29351 78.2239 9.33243 77.8664 9.38108C77.9243 9.1281 77.963 8.91405 78.0016 8.70972C77.9823 8.69999 77.963 8.69026 77.9437 8.68053C77.8374 8.83621 77.7311 8.99189 77.6151 9.15729C77.161 8.38864 77.8277 7.08486 78.8713 6.79297C78.9003 7.10432 78.9486 7.39621 78.9389 7.6881C78.9389 7.97027 78.8616 8.25243 78.8133 8.53459Z" fill="#DADEE3"/>
<path d="M78.1366 29.619C77.6631 29.152 77.3442 28.685 77.3732 28.0525C78.2718 27.8093 79.383 28.7044 79.4314 29.7066C79.2478 29.5996 79.0738 29.5023 78.8999 29.405C78.8806 29.4244 78.8709 29.4439 78.8516 29.4634C78.9772 29.619 79.1028 29.7844 79.2768 29.9985C78.9482 30.0861 78.668 30.1639 78.3878 30.232C78.3878 30.2515 78.3878 30.2709 78.3975 30.2904C78.6777 30.2904 78.9482 30.2904 79.2381 30.2904C78.9676 31.0104 77.2476 31.2731 76.6099 30.5336C76.9094 29.9401 77.5471 29.8331 78.1366 29.619Z" fill="#DADEE3"/>
<path d="M58.4927 19.5295C58.2608 19.3836 58.0675 19.2571 57.8743 19.1306C57.855 19.1501 57.8356 19.1695 57.8163 19.189C57.9806 19.3739 58.1352 19.549 58.3574 19.802C57.9902 19.9187 57.6714 20.0257 57.3525 20.1328C57.3525 20.1522 57.3622 20.1717 57.3622 20.1911C57.6617 20.162 57.9709 20.1425 58.3188 20.1036C57.7873 20.9598 56.4829 21.1349 55.7002 20.5025C56.0094 19.909 56.5698 19.6949 57.2172 19.5198C56.7438 19.082 56.3379 18.6344 56.3186 17.9728C57.2655 17.7003 58.3768 18.4787 58.4927 19.5295Z" fill="#DADEE3"/>
<path d="M83.0164 19.821C82.7458 20.794 81.7312 21.3778 80.6103 21.1151C80.9679 20.901 81.2481 20.7259 81.538 20.5605C81.5283 20.541 81.5283 20.5216 81.5186 20.5021C81.2094 20.6092 80.9002 20.7259 80.5427 20.8524C80.5137 20.6189 80.4944 20.4437 80.4654 20.1421C80.3495 20.3951 80.2818 20.5605 80.1949 20.7356C79.6731 19.86 80.0306 18.6535 80.9196 18.167C81.2191 18.4881 81.2191 18.4881 81.2771 19.8794C81.8472 19.7821 82.4173 19.4805 83.0164 19.821Z" fill="#DADEE3"/>
<path d="M100.612 27.916C101.028 27.8382 101.472 27.7215 101.936 27.6631C102.245 27.6242 102.38 27.7798 102.236 28.1204C101.897 28.8987 101.028 29.395 100.052 29.2587C100.293 29.0642 100.487 28.9182 100.68 28.7723C100.67 28.7528 100.66 28.7333 100.651 28.7139C100.409 28.8014 100.168 28.8987 99.8488 29.0155C99.8778 28.5485 99.8971 28.1496 99.9261 27.7506C99.9068 27.7506 99.8875 27.7506 99.8778 27.7409C99.7909 28.1106 99.7136 28.4706 99.6266 28.8404C99.5783 28.8501 99.5203 28.8501 99.472 28.8598C99.4043 28.5387 99.2208 28.2079 99.2787 27.916C99.3657 27.4393 99.5493 26.9528 99.8005 26.5344C100.013 26.1744 100.235 26.2036 100.361 26.6025C100.487 27.0404 100.535 27.5074 100.612 27.916Z" fill="#DADEE3"/>
<path d="M104.787 6.18994C105.106 6.79318 104.951 7.36724 104.719 8.0094C105.366 7.87318 105.956 7.82453 106.497 8.19426C106.159 9.10886 104.854 9.56616 103.985 9.04075C104.323 8.91426 104.613 8.80724 104.893 8.70021C104.893 8.67102 104.883 8.65156 104.883 8.62237C104.555 8.68075 104.236 8.7294 103.83 8.79751C103.917 8.49589 103.975 8.25264 104.043 8.01913C104.023 8.0094 103.994 7.99967 103.975 7.98021C103.859 8.1748 103.733 8.37913 103.608 8.58345C103.173 7.78562 103.772 6.54994 104.787 6.18994Z" fill="#DADEE3"/>
<path d="M62.5217 14.6059C62.6377 14.2556 62.744 13.9442 62.8502 13.6329C62.8309 13.6232 62.8116 13.6134 62.7826 13.6037C62.6183 13.8956 62.4541 14.1875 62.2608 14.5378C62.1062 14.3237 61.9709 14.1486 61.8357 13.9832C61.8067 13.9929 61.7777 14.0026 61.7584 14.0124C61.8163 14.1972 61.8743 14.3821 61.9323 14.5767C61.0433 14.4502 60.4346 13.1172 60.8211 12.2124C61.3235 12.2805 61.4492 12.3778 62.2125 13.3215C62.5024 12.7767 62.8309 12.2707 63.4493 12.0664C63.9228 12.9615 63.4783 14.2167 62.5217 14.6059Z" fill="#DADEE3"/>
<path d="M91.7227 17.3497C92.0705 17.3108 92.3604 17.2427 92.6503 17.2524C92.9305 17.2622 93.2107 17.3303 93.5296 17.3887C93.4716 16.7757 93.346 16.1822 93.7518 15.6665C94.6408 16.0362 95.0756 17.2038 94.6408 18.1865C94.4958 17.8557 94.3702 17.5833 94.2446 17.3108C94.2253 17.3206 94.206 17.3206 94.1866 17.3303C94.2446 17.6416 94.2929 17.9433 94.3606 18.313C94.0804 18.2643 93.8484 18.2254 93.6262 18.1768C93.6165 18.1962 93.6069 18.2157 93.5972 18.2449C93.7808 18.3519 93.9644 18.4589 94.148 18.566C93.4233 19.033 92.1575 18.4492 91.7227 17.3497Z" fill="#DADEE3"/>
<path d="M83.065 7.78522C83.123 8.07711 83.1809 8.369 83.2389 8.69981C82.35 8.33981 82.0601 6.7636 82.6108 6.08252C83.2486 6.32576 83.4805 6.89982 83.7027 7.4836C84.553 6.64684 84.5917 6.61765 85.1618 6.52036C85.5966 7.28901 84.8139 8.64144 83.7897 8.79711C83.925 8.53441 84.0506 8.31063 84.1762 8.07711C84.1665 8.06738 84.1472 8.04792 84.1279 8.02846C83.9443 8.23279 83.7607 8.43711 83.5191 8.69009C83.3742 8.33009 83.2486 8.02846 83.123 7.72684C83.1036 7.7463 83.0843 7.76576 83.065 7.78522Z" fill="#DADEE3"/>
<path d="M96.9209 21.0375C97.2301 21.164 97.4813 21.2613 97.7229 21.3586C97.7326 21.3391 97.7422 21.3196 97.7519 21.3002C97.5296 21.1348 97.3074 20.9694 97.0175 20.7553C97.3557 20.5802 97.6263 20.4342 97.9065 20.2883C97.8968 20.2688 97.8968 20.2494 97.8872 20.2299C97.6069 20.298 97.3267 20.3759 97.0369 20.4537C97.1721 19.5878 98.8244 19.0721 99.4815 19.578C99.3849 20.0353 99.3849 20.0353 98.2737 20.8721C98.7471 21.2224 99.2399 21.5726 99.3462 22.2148C98.4959 22.6429 97.2881 22.0786 96.9209 21.0375Z" fill="#DADEE3"/>
<path d="M51.4482 37.3052C51.5641 37.6652 51.6608 37.9474 51.7574 38.2393C51.7767 38.2393 51.8057 38.2393 51.825 38.2393C51.8057 37.9571 51.7767 37.6847 51.7574 37.3636C52.598 37.8501 52.7913 39.183 52.1535 39.9906C51.5738 39.6695 51.3419 39.1247 51.1776 38.4728C50.7235 38.9398 50.2887 39.3582 49.6316 39.3582C49.3707 38.3949 50.1437 37.2955 51.1873 37.1787C51.0327 37.422 50.8974 37.636 50.7525 37.8403C50.7718 37.8598 50.7815 37.8793 50.8008 37.8987C50.8974 37.8111 50.994 37.7333 51.0907 37.6457C51.1873 37.5484 51.2839 37.4609 51.4482 37.3052Z" fill="#DADEE3"/>
<path d="M105.25 18.7605C105.115 18.3908 104.989 18.0503 104.864 17.7097C104.845 17.7097 104.825 17.7195 104.806 17.7195C104.864 18.0892 104.922 18.4589 104.989 18.8676C104.719 18.8092 104.506 18.7703 104.294 18.7216C104.284 18.7411 104.274 18.7703 104.265 18.7897C104.429 18.887 104.593 18.9941 104.748 19.0914C104.748 19.1303 104.748 19.1692 104.748 19.2081C104.516 19.2178 104.274 19.2665 104.043 19.2373C103.424 19.1595 102.922 18.8578 102.564 18.3324C102.323 17.9627 102.352 17.8265 102.777 17.7876C103.221 17.7487 103.666 17.8168 104.149 17.8459C104.149 17.3303 103.975 16.7173 104.381 16.1919C105.26 16.3962 105.801 18.0114 105.25 18.7605Z" fill="#DADEE3"/>
<path d="M50.4725 32.6255C50.3952 32.2265 50.3276 31.8568 50.2696 31.4871C50.2503 31.4871 50.2213 31.4871 50.2019 31.4871C50.2019 31.8763 50.2019 32.2557 50.2019 32.7325C49.8927 32.5768 49.6608 32.46 49.4289 32.3336C49.4096 32.353 49.3999 32.3725 49.3806 32.3919C49.5642 32.5671 49.7575 32.7325 49.9604 32.9271C49.139 33.1509 47.9699 32.3725 47.8539 31.5649C47.8056 31.2438 48.0472 31.2146 48.2308 31.2536C48.6849 31.3411 49.1294 31.4773 49.5932 31.6038C49.5739 31.0395 49.6512 30.446 50.086 29.9692C50.917 30.4849 51.1392 31.886 50.4725 32.6255Z" fill="#DADEE3"/>
<path d="M60.9372 28.5679C61.8068 29.103 62.0871 30.29 61.5266 31.2533C61.4203 30.8544 61.3237 30.5138 61.2368 30.183C61.2174 30.183 61.1981 30.1927 61.1691 30.1927C61.1981 30.543 61.2174 30.903 61.2561 31.3506C60.9179 31.2046 60.657 31.0976 60.3864 30.9808C60.3768 31.0003 60.3574 31.0198 60.3478 31.0392C60.57 31.2046 60.7826 31.37 61.0242 31.5452C60.1642 31.8954 58.9467 31.0976 58.8018 30.0954C59.4008 29.9008 59.9613 30.0371 60.57 30.3776C60.4927 29.6965 60.512 29.103 60.9372 28.5679Z" fill="#DADEE3"/>
<path d="M90.8917 5.21697C91.1333 4.9348 91.3168 4.73048 91.5004 4.51643C91.4811 4.48724 91.4618 4.46778 91.4425 4.43859C91.2202 4.60399 90.998 4.77913 90.7564 4.96399C90.7468 3.96183 91.7903 3.07643 92.7856 3.22237C92.8725 3.88399 92.457 4.34129 92.0609 4.85697C92.6889 4.98345 93.2397 5.16832 93.5972 5.69372C93.0755 6.44291 91.4038 6.29697 90.911 5.49913C91.3072 5.51859 91.655 5.53805 92.0029 5.55751C92.0126 5.53805 92.0126 5.50886 92.0222 5.4894C91.6647 5.41156 91.3168 5.32399 90.8917 5.21697Z" fill="#DADEE3"/>
<path d="M104.439 15.258C104.719 15.005 104.931 14.8104 105.154 14.6061C105.134 14.5866 105.125 14.5672 105.105 14.5477C104.844 14.6937 104.593 14.8396 104.274 15.0245C104.226 14.6839 104.178 14.392 104.129 14.1099C104.11 14.1099 104.091 14.1099 104.081 14.1196C104.042 14.3823 104.004 14.6547 103.955 14.9369C103.26 14.3142 103.385 12.9715 104.207 12.2612C104.69 12.7088 104.777 13.3023 104.796 13.9931C105.337 13.6526 105.869 13.3899 106.477 13.5164C106.613 14.4212 105.54 15.3747 104.439 15.258Z" fill="#DADEE3"/>
<path d="M112.797 15.5884C112.758 15.2674 112.719 14.9755 112.69 14.6836C112.661 14.6836 112.632 14.6836 112.613 14.6836C112.584 14.9852 112.565 15.2868 112.536 15.676C112.226 15.4911 111.975 15.3452 111.724 15.1895C111.695 15.2187 111.666 15.2479 111.637 15.2674C111.869 15.4328 112.091 15.5982 112.323 15.7636C111.27 15.9679 110.333 15.1117 110.294 14.1095C110.787 13.9344 111.019 13.9928 111.946 14.5376C112.072 14.129 112.149 13.6911 112.333 13.3117C112.555 12.8252 112.777 12.8544 113.048 13.3311C113.454 14.0803 113.367 15.0533 112.797 15.5884Z" fill="#DADEE3"/>
<path d="M74.214 7.1534C74.4363 7.36745 74.6682 7.58151 74.9194 7.82475C73.9628 8.01934 72.9096 7.07556 72.9386 6.01502C73.2381 6.05394 73.5377 6.06367 73.8179 6.15124C74.0884 6.22908 74.33 6.39448 74.6199 6.54043C74.7068 5.92745 74.7648 5.32421 75.2673 4.92529C76.0596 5.51881 76.1659 6.86151 75.4412 7.63016C75.4122 7.27989 75.3832 6.98799 75.3639 6.6961C75.3349 6.6961 75.3156 6.68637 75.2866 6.68637C75.248 6.98799 75.2093 7.28962 75.161 7.65934C74.8421 7.46475 74.5522 7.28962 74.2624 7.11448C74.2334 7.11448 74.2237 7.13394 74.214 7.1534Z" fill="#DADEE3"/>
<path d="M57.2461 35.7584C56.8693 35.2135 56.9562 34.6103 57.1108 33.9681C56.4924 34.1432 55.903 34.2989 55.3232 33.9973C55.5262 33.0632 56.7823 32.4405 57.7196 32.8297C57.5263 32.9562 57.3524 33.0633 57.1785 33.1703C57.1881 33.1995 57.1881 33.2189 57.1978 33.2481C57.4104 33.2092 57.6133 33.1605 57.9032 33.1119C57.8355 33.4914 57.7679 33.8416 57.7099 34.1822C57.7292 34.1919 57.7486 34.1919 57.7582 34.2016C57.8935 33.8903 58.0191 33.5789 58.1641 33.2384C58.6472 34.1141 58.1737 35.3789 57.2461 35.7584Z" fill="#DADEE3"/>
<path d="M58.309 39.9418C57.6229 39.3678 57.8065 37.6651 58.6568 37.2759C58.6375 37.5386 58.6182 37.7916 58.5988 38.0348C58.6182 38.0445 58.6472 38.0445 58.6665 38.0543C58.7534 37.811 58.8501 37.5678 58.966 37.2564C59.2173 37.49 59.4202 37.6845 59.6231 37.8791C59.6424 37.8694 59.6617 37.8597 59.6811 37.85C59.5458 37.6262 59.4202 37.3927 59.2752 37.1494C60.1159 37.1591 61.0435 38.317 60.8502 39.0759C60.8309 39.1635 60.57 39.2802 60.4927 39.2413C60.0676 39.0273 59.6617 38.7743 59.2269 38.531C59.14 38.7354 59.053 39.0273 58.8887 39.2705C58.7245 39.5332 58.5022 39.7278 58.309 39.9418Z" fill="#DADEE3"/>
<path d="M70.996 18.4004C70.8221 18.7117 70.6482 19.0328 70.4259 19.422C70.2327 19.1204 70.0684 18.8771 69.9138 18.6339C69.8848 18.6436 69.8655 18.6533 69.8365 18.6631C69.9331 18.9161 70.0298 19.1788 70.1264 19.4415C69.2084 19.2663 68.5997 17.8652 69.0635 17.0188C69.6916 17.155 70.0394 17.6317 70.3776 18.1961C70.6965 17.6415 70.996 17.1161 71.6241 16.9409C72.1652 17.7096 71.7014 19.0231 70.6772 19.4901C70.8124 19.1009 70.9381 18.7604 71.054 18.4296C71.0347 18.4296 71.0154 18.4101 70.996 18.4004Z" fill="#DADEE3"/>
<path d="M118.459 26.3303C117.474 25.7952 117.097 24.6957 117.541 23.7422C118.179 23.9173 118.488 24.4427 118.797 25.0362C119.165 24.5011 119.503 23.9952 120.17 23.8979C120.575 24.7638 120.044 25.9314 119.01 26.34C119.126 26.0384 119.223 25.8049 119.31 25.5616C119.29 25.5519 119.261 25.5325 119.242 25.5227C119.087 25.7368 118.933 25.9508 118.73 26.2233C118.556 25.9119 118.401 25.6492 118.247 25.3865C118.227 25.3962 118.198 25.3962 118.179 25.406C118.266 25.6881 118.353 25.9703 118.459 26.3303Z" fill="#DADEE3"/>
<path d="M47.7093 35.9239C47.2551 35.6612 46.8299 35.4277 46.4338 35.165C46.2599 35.0482 46.2115 34.8828 46.4338 34.7272C47.1102 34.2407 48.3953 34.4742 48.9267 35.2136C48.5982 35.1942 48.3083 35.1747 48.0185 35.1553C48.0088 35.1845 48.0088 35.2039 47.9991 35.2331C48.289 35.3207 48.5692 35.3985 48.9461 35.5055C48.7142 35.7682 48.5402 35.9628 48.3663 36.1672C48.3856 36.1866 48.3953 36.2158 48.4146 36.2353C48.6272 36.0796 48.8301 35.9336 49.0524 35.778C49.1297 36.7023 48.0185 37.5974 47.0039 37.4223C46.9266 36.7607 47.3517 36.3326 47.7093 35.9239Z" fill="#DADEE3"/>
<path d="M55.1684 36.323C54.6273 36.6441 54.1152 36.9165 53.5065 36.7803C53.4195 35.8365 54.4824 34.9025 55.5163 35.0387C55.2941 35.2333 55.0911 35.3987 54.8882 35.5738C54.9172 35.603 54.9462 35.6419 54.9655 35.6711C55.2071 35.5349 55.4487 35.3987 55.7289 35.243C55.7675 35.5835 55.8062 35.8852 55.8448 36.1771C55.8642 36.1771 55.8835 36.1771 55.9028 36.1868C55.9511 35.9144 55.9898 35.6322 56.0477 35.3111C56.7338 36.0798 56.5985 37.3544 55.8255 37.9673C55.4293 37.656 55.3714 37.5198 55.1684 36.323Z" fill="#DADEE3"/>
<path d="M73.6339 12.2706C73.5952 12.5624 73.5566 12.8543 73.5179 13.2241C73.228 13.0587 72.9672 12.903 72.5903 12.6889C72.8899 12.9808 73.0831 13.1754 73.2957 13.3797C72.484 13.7203 71.1119 12.4943 71.2955 11.677C71.9139 11.4922 72.4261 11.8035 72.8899 12.0857C73.0928 11.5311 73.286 10.9862 73.4889 10.4316C74.3779 10.9473 74.5229 12.3484 73.8175 13.1949C73.7692 12.8446 73.7402 12.5624 73.7015 12.2803C73.6725 12.2706 73.6532 12.2706 73.6339 12.2706Z" fill="#DADEE3"/>
<path d="M88.0313 14.8296C88.9396 15.3355 89.2875 16.4934 88.8044 17.4372C88.6594 17.048 88.5435 16.7172 88.4275 16.3961C88.4082 16.3961 88.3889 16.4058 88.3792 16.4058C88.4275 16.7658 88.4855 17.1161 88.5435 17.5442C88.2632 17.4663 88.0217 17.408 87.7898 17.3496C87.7801 17.369 87.7704 17.3982 87.7511 17.4177C87.9444 17.5345 88.1376 17.6609 88.3405 17.7874C87.5482 18.1377 86.2824 17.5636 86.0505 16.7463C86.0312 16.6588 86.1858 16.4253 86.2631 16.4253C86.7559 16.4253 87.239 16.4739 87.7511 16.5128C87.6835 15.9874 87.6255 15.3745 88.0313 14.8296Z" fill="#DADEE3"/>
<path d="M68.455 10.3445C68.4066 10.7142 68.3487 11.0839 68.2907 11.5315C67.9912 11.3272 67.7496 11.1715 67.4984 11.0061C67.479 11.0255 67.4694 11.0353 67.45 11.0547C67.6433 11.2688 67.8366 11.4731 68.0491 11.7164C67.0346 11.7845 66.1552 10.938 66.1069 9.83851C66.735 9.72176 67.2375 10.0234 67.7689 10.4028C67.9428 9.80933 67.9718 9.17689 68.4936 8.81689C69.2183 9.14771 69.3729 10.8504 68.5709 11.4828C68.5516 11.0839 68.5323 10.7336 68.5129 10.3736C68.4936 10.3639 68.4743 10.3542 68.455 10.3445Z" fill="#DADEE3"/>
<path d="M76.997 1.52881C77.7893 2.12232 77.8956 3.53313 77.1709 4.21421C77.1419 3.87367 77.1129 3.58178 77.0839 3.28016C77.0646 3.28016 77.0453 3.27043 77.0259 3.27043C76.9776 3.58178 76.939 3.8834 76.881 4.26286C76.5815 4.08773 76.3206 3.93205 76.0597 3.77637C76.0403 3.79583 76.0307 3.81529 76.0114 3.83475C76.2239 4.03908 76.4365 4.23367 76.6588 4.44773C75.6828 4.67151 74.6972 3.6207 74.6489 2.88124C74.6489 2.8034 74.8808 2.62827 74.9678 2.64773C75.4123 2.75475 75.8568 2.91043 76.3592 3.07583C76.4462 2.57962 76.4848 1.94719 76.997 1.52881Z" fill="#DADEE3"/>
<path d="M54.7336 24.764C54.8689 24.3651 54.9752 24.0537 55.0718 23.7521C55.0525 23.7424 55.0331 23.7326 55.0138 23.7229C54.8495 24.0051 54.6853 24.2969 54.4824 24.6472C54.2698 24.3553 54.0959 24.1218 53.9123 23.8786C53.8929 23.8883 53.8736 23.898 53.8543 23.9078C53.9509 24.1705 54.0572 24.4234 54.1635 24.7153C53.2455 24.5499 52.7431 23.178 52.9557 22.5164C53.0426 22.2537 53.2359 22.2732 53.3808 22.3996C53.748 22.7013 54.0959 23.0418 54.4244 23.3337C54.6756 23.0515 54.9462 22.6818 55.2844 22.3899C55.6129 22.098 55.7772 22.1856 55.8641 22.6137C56.038 23.4213 55.5839 24.3359 54.7336 24.764Z" fill="#DADEE3"/>
<path d="M61.4492 25.4157C61.2463 24.9778 61.0241 24.5984 60.8985 24.1897C60.7632 23.7519 60.9275 23.6157 61.3623 23.7227C62.1739 23.9173 62.7827 24.6568 62.8407 25.6103C62.5604 25.3573 62.3382 25.1432 62.116 24.9389C62.0966 24.9584 62.0773 24.9681 62.058 24.9876C62.2416 25.2405 62.4252 25.5032 62.6571 25.8243C62.2706 25.8924 61.942 25.9605 61.6038 26.0189C61.6038 26.0384 61.6038 26.0578 61.6038 26.0773C61.9227 26.0773 62.2319 26.0773 62.5894 26.0773C62.0966 26.8654 60.7342 26.9043 59.8936 26.1551C60.2994 25.6687 60.8308 25.4449 61.4492 25.4157Z" fill="#DADEE3"/>
<path d="M109.396 20.843C109.396 21.2128 109.396 21.5825 109.396 21.9814C108.623 21.4365 108.555 20.1522 109.26 19.3252C109.801 19.6755 109.975 20.2301 110.082 20.8722C110.401 20.6776 110.671 20.4636 110.98 20.3371C111.203 20.2495 111.473 20.269 111.724 20.2398C111.705 20.4928 111.724 20.7555 111.647 20.9792C111.386 21.7187 110.71 22.2052 109.937 22.2149C110.149 21.9619 110.333 21.7479 110.517 21.5338C110.497 21.5144 110.478 21.4949 110.468 21.4657C110.236 21.6506 109.995 21.8355 109.705 22.0592C109.618 21.6117 109.531 21.2225 109.454 20.8236C109.425 20.843 109.415 20.843 109.396 20.843Z" fill="#DADEE3"/>
<path d="M103.366 21.6021C103.83 21.2226 104.255 20.8626 104.699 20.5026C105.269 21.3491 104.612 22.7599 103.617 22.9935C103.752 22.6821 103.878 22.3902 104.004 22.108C103.984 22.0983 103.965 22.0789 103.946 22.0691C103.762 22.3318 103.569 22.5848 103.327 22.9253C103.134 22.5459 102.97 22.2345 102.796 21.9232C102.776 21.9232 102.757 21.9329 102.738 21.9329C102.834 22.2637 102.921 22.5945 103.028 22.9448C102.148 22.6724 101.704 21.3491 102.177 20.4248C102.825 20.5708 103.105 21.0962 103.366 21.6021Z" fill="#DADEE3"/>
<path d="M66.2517 24.569C66.3869 24.1506 66.4836 23.8198 66.5898 23.489C66.5705 23.4793 66.5415 23.4695 66.5222 23.4598C66.3676 23.7712 66.2033 24.0825 66.0101 24.462C65.7878 24.1701 65.6139 23.9268 65.44 23.6933C65.4207 23.703 65.4013 23.7128 65.382 23.7225C65.4883 23.9949 65.6043 24.2576 65.7299 24.5593C64.8312 24.2771 64.2225 23.1971 64.4351 22.3603C64.5027 22.0782 64.6863 22.0976 64.8409 22.2144C65.2177 22.5063 65.5753 22.8274 65.9714 23.1485C66.2227 22.7009 66.5029 22.156 67.1213 21.9614C67.6527 22.7009 67.2759 23.9852 66.2517 24.569Z" fill="#DADEE3"/>
<path d="M62.2417 10.0133C62.8504 9.73117 63.4109 9.98415 64.0293 10.2177C63.9327 9.55604 63.9617 8.97225 64.3578 8.46631C65.2178 8.87496 65.556 10.169 65.0052 11.1225C64.8893 10.6944 64.783 10.3247 64.6864 9.96469C64.667 9.96469 64.6574 9.97442 64.638 9.97442C64.667 10.3539 64.696 10.7236 64.7347 11.1906C64.3965 11.0641 64.1259 10.9571 63.8457 10.8598C63.836 10.8793 63.8167 10.889 63.8071 10.9085C64.0196 11.0641 64.2322 11.2198 64.4545 11.3852C63.7298 11.8231 62.406 11.0058 62.2417 10.0133Z" fill="#DADEE3"/>
<path d="M91.0072 15.1117C91.2875 14.849 91.5097 14.6349 91.7319 14.4209C91.7126 14.4014 91.7029 14.382 91.6836 14.3625C91.4131 14.5376 91.1425 14.7225 90.8043 14.9463C90.756 14.6155 90.7174 14.343 90.6787 14.0706C90.6497 14.0706 90.6207 14.0706 90.5917 14.0706C90.5628 14.3236 90.5338 14.5863 90.5048 14.849C89.7801 14.2749 89.8381 12.9322 90.6207 12.1636C91.1135 12.5722 91.2391 13.1463 91.3068 13.7982C91.5967 13.6522 91.8479 13.4674 92.1281 13.3992C92.3987 13.3311 92.6982 13.3701 92.9881 13.3603C92.9108 13.6425 92.8915 13.9733 92.7465 14.2068C92.4276 14.7322 91.9445 15.0825 91.3068 15.1506C91.2295 15.1603 91.1522 15.1311 91.0072 15.1117Z" fill="#DADEE3"/>
<path d="M70.8511 24.2386C70.7159 23.9759 70.5999 23.7716 70.4936 23.5673C70.4646 23.577 70.4453 23.5867 70.4163 23.5867C70.455 23.791 70.4936 23.9954 70.5323 24.2191C69.6819 23.9564 69.3148 22.5067 69.8849 21.6797C70.4936 21.9035 70.7352 22.4483 70.9767 22.9737C71.3053 22.6916 71.5855 22.39 71.9333 22.1856C72.4261 21.884 72.5807 22.0105 72.5614 22.5748C72.5228 23.4116 71.9044 24.1997 71.1217 24.3359C71.2666 24.0537 71.3922 23.8105 71.5275 23.5575C71.5082 23.5381 71.4889 23.5186 71.4695 23.5089C71.2666 23.7424 71.0734 23.9662 70.8511 24.2386Z" fill="#DADEE3"/>
<path d="M127.803 35.5445C128.034 35.9434 128.286 36.3326 128.489 36.751C128.634 37.0624 128.527 37.2375 128.131 37.1889C127.242 37.0818 126.459 36.3716 126.411 35.5251C126.633 35.671 126.836 35.8072 127.03 35.9337C127.049 35.9143 127.068 35.9045 127.088 35.8851C126.923 35.6905 126.759 35.4959 126.546 35.2429C126.904 35.1359 127.223 35.0386 127.532 34.951C127.532 34.9218 127.532 34.9024 127.522 34.8732C127.213 34.9024 126.914 34.9218 126.566 34.951C127.088 34.1337 128.382 33.9683 129.184 34.5618C129.01 35.0094 128.943 35.058 127.803 35.5445Z" fill="#DADEE3"/>
<path d="M116.72 24.7833C116.256 25.7368 115.068 26.1649 114.169 25.6882C114.469 25.5617 114.739 25.4449 115.01 25.3282C115 25.3087 115 25.2795 114.991 25.2601C114.701 25.3087 114.411 25.3574 114.044 25.4157C114.131 25.0557 114.208 24.7639 114.285 24.4622C114.266 24.4525 114.246 24.4428 114.237 24.4428C114.092 24.6957 113.957 24.9584 113.802 25.2309C113.377 24.3844 113.966 23.1487 114.913 22.8276C115.193 23.2752 115.203 23.4601 114.942 24.6082C115.541 24.5012 116.14 24.4233 116.72 24.7833Z" fill="#DADEE3"/>
<path d="M55.1305 26.7877C54.8406 26.9434 54.6184 27.0601 54.3961 27.1769C54.4058 27.1963 54.4058 27.2255 54.4154 27.245C54.6763 27.1866 54.9372 27.1185 55.2851 27.0407C55.1981 27.4785 55.1208 27.8482 55.0435 28.218C55.0628 28.2277 55.0725 28.2277 55.0918 28.2374C55.2368 27.8969 55.3817 27.5466 55.5363 27.1671C56.0098 28.0526 55.5363 29.3077 54.6377 29.6871C54.3865 29.3661 54.3865 29.3661 54.3961 27.965C54.0966 28.0136 53.8067 28.0915 53.5072 28.0817C53.2269 28.0817 52.9564 27.9942 52.6665 27.9455C52.9467 26.9628 54.1835 26.379 55.1305 26.7877Z" fill="#DADEE3"/>
<path d="M115.193 15.5404C115.647 15.4431 116.034 15.3653 116.41 15.2874C116.41 15.2777 116.41 15.268 116.401 15.2582C116.024 15.2582 115.647 15.2582 115.27 15.2582C115.521 14.5771 117.174 14.3047 117.908 15.1123C117.531 15.6474 116.981 15.8615 116.285 15.9004C116.691 16.4258 117.116 16.8928 117.019 17.5836C116.053 17.7296 115.019 16.8247 115.038 15.8128C115.251 15.9782 115.444 16.1242 115.647 16.2798C115.666 16.2604 115.686 16.2409 115.705 16.2215C115.55 16.0171 115.396 15.8031 115.193 15.5404Z" fill="#DADEE3"/>
<path d="M59.4685 15.6179C60.2898 15.2773 61.6813 16.2795 61.6136 17.1844C61.3334 16.9898 61.0725 16.8146 60.8213 16.6395C60.8116 16.6492 60.8116 16.6492 60.802 16.6589C61.0435 16.873 61.2754 17.0871 61.517 17.3011C61.4977 17.3498 61.4687 17.3984 61.4494 17.4568C61.1208 17.5735 60.7826 17.6903 60.4541 17.8071C60.4541 17.8265 60.4638 17.846 60.4638 17.8654C60.7923 17.8265 61.1305 17.7876 61.4783 17.7487C61.0435 18.5854 59.6811 18.8092 58.8501 18.1768C59.14 17.593 59.6811 17.3789 60.3478 17.1844C59.9033 16.7271 59.4492 16.2892 59.4685 15.6179Z" fill="#DADEE3"/>
<path d="M86.292 3.03712C86.9684 2.87172 87.4902 3.18307 88.0216 3.5528C88.0409 2.89118 88.1569 2.30739 88.6207 1.8501C89.413 2.38523 89.5387 3.7182 88.8333 4.57442C88.785 4.15604 88.7367 3.79604 88.698 3.42631C88.6787 3.42631 88.669 3.42631 88.6497 3.42631C88.6207 3.79604 88.5917 4.16577 88.5627 4.61334C88.2342 4.41874 87.9926 4.2728 87.7607 4.12685C87.7414 4.14631 87.7221 4.16577 87.7027 4.18523C87.9057 4.35064 88.1086 4.51604 88.3598 4.72037C87.3839 4.98307 86.3403 4.0782 86.292 3.03712Z" fill="#DADEE3"/>
<path d="M101.298 11.074C101.356 11.2978 101.424 11.5216 101.501 11.8232C101.163 11.794 100.902 11.7648 100.641 11.7454C100.631 11.7648 100.631 11.7843 100.622 11.8135C100.863 11.9108 101.114 12.0081 101.366 12.1151C100.554 12.66 99.2302 12.2221 98.834 11.2784C99.3558 10.8989 99.9452 10.9962 100.583 11.0643C100.448 10.4708 100.225 9.88701 100.544 9.30322C101.453 9.49782 101.984 10.4513 101.82 11.7065C101.646 11.4438 101.511 11.2492 101.385 11.0643C101.356 11.0643 101.327 11.0643 101.298 11.074Z" fill="#DADEE3"/>
<path d="M97.1335 15.4817C96.9595 15.1217 96.8146 14.8298 96.6697 14.5281C96.6503 14.5379 96.631 14.5379 96.602 14.5476C96.6697 14.8395 96.747 15.1314 96.8243 15.4525C95.9353 15.1022 95.5488 13.8081 96.0513 12.8936C96.6407 13.1465 96.9789 13.633 97.2301 14.2557C97.6263 13.7498 97.9838 13.2536 98.6505 13.1757C99.0274 14.0903 98.3993 15.326 97.4234 15.5303C97.5586 15.2384 97.6746 14.9757 97.7905 14.713C97.7712 14.7033 97.7519 14.6936 97.7229 14.6741C97.549 14.9271 97.3557 15.18 97.1335 15.4817Z" fill="#DADEE3"/>
<path d="M115.811 37.5191C116.063 37.3634 116.304 37.198 116.642 36.984C116.7 37.451 116.749 37.8499 116.797 38.2488C116.807 38.2488 116.816 38.2488 116.826 38.2488C116.855 37.8694 116.894 37.4899 116.923 37.0813C117.647 37.6164 117.609 38.9883 116.884 39.6986C116.43 39.4651 116.294 39.1829 116.169 38.1613C115.744 38.3267 115.328 38.531 114.884 38.638C114.41 38.7548 114.333 38.638 114.478 38.171C114.729 37.3537 115.492 36.7796 116.391 36.8672C116.15 37.0326 115.908 37.1883 115.657 37.3537C115.705 37.4121 115.763 37.4705 115.811 37.5191Z" fill="#DADEE3"/>
<path d="M88.2827 8.04792C88.2634 8.37873 88.2441 8.69981 88.2247 9.11819C87.8769 8.91386 87.587 8.73873 87.2971 8.56359C87.2874 8.58305 87.2681 8.59278 87.2585 8.61224C87.4807 8.82629 87.7126 9.03062 87.9445 9.2544C87.0362 9.48792 85.9926 8.59278 85.9443 7.52251C86.5917 7.37657 87.1135 7.63927 87.6643 8.05765C87.7319 7.40575 87.7706 6.77332 88.2924 6.34521C89.0847 6.929 89.2007 8.20359 88.4953 9.05981C88.447 8.69008 88.3987 8.35927 88.36 8.02846C88.3407 8.04792 88.3117 8.04792 88.2827 8.04792Z" fill="#DADEE3"/>
<path d="M66.5508 15.2192C67.0726 16.2214 66.7537 17.3598 65.7971 17.9241C65.8938 17.5544 65.9711 17.243 66.0484 16.9414C66.029 16.9317 66 16.9317 65.9807 16.9219C65.8454 17.2041 65.7005 17.4863 65.5266 17.8365C65.314 17.5836 65.1401 17.3695 64.9565 17.1652C64.9372 17.1749 64.9178 17.1846 64.8985 17.2041C64.9951 17.4376 65.1014 17.6614 65.2077 17.9046C64.5796 17.8463 63.9612 17.136 63.8839 16.3576C63.8646 16.1144 63.9419 15.8614 63.9709 15.6182C64.2028 15.7057 64.4637 15.7641 64.6666 15.8906C64.9468 16.0657 65.2077 16.2895 65.4686 16.4938C65.4396 16.5328 65.4106 16.5814 65.3816 16.6203C65.5362 16.3673 65.6522 16.0852 65.8454 15.8614C66.0387 15.6182 66.2899 15.443 66.5508 15.2192Z" fill="#DADEE3"/>
<path d="M81.6826 11.4826C81.6826 12.5139 80.7453 13.448 79.7984 13.3312C80.0109 13.0977 80.2042 12.8836 80.3878 12.6793C80.3781 12.6599 80.3588 12.6404 80.3491 12.6209C80.0979 12.7961 79.8563 12.9712 79.5375 13.195C79.4698 12.7961 79.4119 12.4458 79.3539 12.1053C79.3346 12.1053 79.3249 12.1053 79.3056 12.1053C79.2862 12.4361 79.2766 12.7572 79.2573 13.1269C78.4166 12.5139 78.5809 10.9085 79.2283 10.4609C79.6631 10.7528 79.7597 10.9572 80.0013 12.1053C80.5037 11.7063 80.9965 11.3561 81.6826 11.4826Z" fill="#DADEE3"/>
<path d="M115.705 18.2158C115.879 18.8774 115.609 19.4028 115.29 19.9769C115.937 20.0061 116.546 20.0061 116.99 20.512C116.459 21.3391 115.212 21.5142 114.304 20.8623C114.729 20.7845 115.106 20.7164 115.483 20.6483C115.483 20.6288 115.483 20.6093 115.483 20.5801C115.106 20.5801 114.72 20.5801 114.246 20.5801C114.401 20.2591 114.517 20.0158 114.642 19.7726C114.623 19.7628 114.604 19.7434 114.584 19.7337C114.42 19.9185 114.246 20.1034 114.072 20.298C113.744 19.5001 114.642 18.3423 115.705 18.2158Z" fill="#DADEE3"/>
<path d="M68.3676 14.5962C68.3 14.9465 68.2323 15.3065 68.155 15.686C67.5076 14.9562 67.7009 13.6816 68.5608 13.02C69.0247 13.5065 69.0923 14.1097 69.044 14.7811C69.6141 14.46 70.1552 14.1973 70.7833 14.3822C70.7736 15.3454 69.73 16.153 68.6478 15.9973C68.9087 15.7735 69.1213 15.5887 69.3339 15.4038C69.3242 15.3843 69.3049 15.3649 69.2952 15.3454C69.044 15.4719 68.7927 15.5984 68.4642 15.7541C68.4642 15.326 68.4642 14.966 68.4642 14.5962C68.4352 14.606 68.4062 14.5962 68.3676 14.5962Z" fill="#DADEE3"/>
<path d="M60.8409 21.057C60.7829 20.3662 60.8602 19.7922 61.2661 19.3057C62.1067 19.7435 62.358 21.0765 61.7202 21.9813C61.6236 21.5338 61.5463 21.1446 61.469 20.7554C61.4593 20.7554 61.44 20.7554 61.4303 20.7554C61.4303 21.1543 61.4303 21.5532 61.4303 22.0397C61.0921 21.884 60.8216 21.7478 60.5414 21.6116C60.5317 21.6311 60.5124 21.6408 60.5027 21.6603C60.7346 21.8549 60.9569 22.0397 61.2081 22.2538C60.2708 22.4873 59.1789 21.6797 59.063 20.6873C59.6911 20.4732 60.2322 20.7457 60.8409 21.057Z" fill="#DADEE3"/>
<path d="M71.7399 26.2817C71.8752 25.7952 71.9815 25.3282 72.1361 24.8709C72.223 24.6179 72.397 24.5595 72.6192 24.7931C73.199 25.3963 73.2956 26.5444 72.7448 27.3131C72.6675 26.9044 72.5999 26.5444 72.5322 26.1844C72.5033 26.1844 72.4743 26.1844 72.4453 26.1941C72.4453 26.5639 72.4453 26.9336 72.4453 27.3812C72.1168 27.2158 71.8559 27.0893 71.595 26.9628C71.5853 26.9822 71.5756 27.0017 71.5563 27.0212C71.7689 27.1963 71.9815 27.3812 72.2037 27.5758C71.3727 27.8093 70.2035 27.0406 70.1166 26.2331C70.1069 26.1455 70.2905 25.9314 70.3775 25.9412C70.7157 25.9703 71.0539 26.0482 71.392 26.1358C71.537 26.1455 71.6626 26.2428 71.7399 26.2817Z" fill="#DADEE3"/>
<path d="M79.9149 1.8501C80.4174 2.28794 80.4947 2.88145 80.5236 3.5528C81.0744 3.17334 81.6059 2.86199 82.2629 3.02739C82.2243 4.03929 81.316 4.86631 80.2144 4.78847C80.5333 4.55496 80.7749 4.3701 81.0164 4.18523C80.9778 4.13658 80.9488 4.09766 80.9102 4.04902C80.6396 4.21442 80.3787 4.37983 80.0212 4.59388C79.9825 4.15604 79.9536 3.80577 79.9246 3.4555C79.9052 3.4555 79.8956 3.44577 79.8763 3.44577C79.8279 3.79604 79.7796 4.14631 79.7313 4.49658C79.0066 3.89334 79.1032 2.45334 79.9149 1.8501Z" fill="#DADEE3"/>
<path d="M75.1127 19.2764C75.3253 19.4807 75.5378 19.685 75.847 19.9769C75.3349 20.0256 74.9388 19.9283 74.6779 19.6656C74.33 19.325 74.0594 18.8969 73.8082 18.4785C73.6633 18.2353 73.8372 18.0699 74.0788 18.138C74.5619 18.2645 75.045 18.4396 75.5378 18.5953C75.5572 18.0602 75.6151 17.4569 76.1176 17.0288C76.9196 17.5348 77.0452 18.965 76.3205 19.7045C76.2722 19.3056 76.2239 18.9358 76.1852 18.5564C76.1659 18.5564 76.1562 18.5564 76.1369 18.5564C76.1079 18.9164 76.0886 19.2764 76.05 19.7726C75.7021 19.5585 75.4219 19.3931 75.1513 19.2277C75.1417 19.2472 75.1223 19.2666 75.1127 19.2764Z" fill="#DADEE3"/>
<path d="M90.621 10.9765C90.9786 10.8014 91.2491 10.6749 91.51 10.5387C91.5003 10.5192 91.5003 10.49 91.4907 10.4706C91.1815 10.5484 90.8819 10.6263 90.4954 10.7236C90.5727 10.3344 90.6404 10.023 90.708 9.70194C90.6887 9.69221 90.6694 9.68248 90.6404 9.67275C90.5148 9.95491 90.3891 10.2468 90.2442 10.5582C89.7321 9.54627 90.4568 8.24248 91.2395 8.05762C91.568 8.61221 91.4714 9.196 91.3361 9.78951C91.9255 9.78951 92.4956 9.78951 93.0657 9.78951C93.0077 10.7138 91.7226 11.3463 90.621 10.9765Z" fill="#DADEE3"/>
<path d="M47.9312 29.1035C47.8346 29.2592 47.7766 29.3565 47.6703 29.5122C47.8442 29.4732 47.9602 29.4441 48.1438 29.3954C48.1148 29.5414 48.1051 29.6678 48.0665 29.7846C47.7573 30.6311 46.9166 31.1759 46.0953 31.0884C45.9214 30.1932 46.7524 29.2592 47.9312 29.1035Z" fill="#DADEE3"/>
<path d="M114.169 14.1782C114.343 13.9739 114.468 13.8182 114.604 13.6625C114.594 13.6431 114.575 13.6333 114.565 13.6139C114.391 13.7112 114.217 13.7987 114.014 13.9058C114.111 12.9133 115.27 12.1058 116.169 12.3782C116.169 13.3414 115.28 14.1879 114.169 14.1782Z" fill="#DADEE3"/>
<path d="M75.0251 14.5283C75.3826 15.5013 74.8995 16.6397 73.9622 16.9802C74.0105 16.7856 74.0492 16.6202 74.0878 16.4548C74.0685 16.4451 74.0492 16.4256 74.0298 16.4159C73.9235 16.5424 73.8173 16.6689 73.711 16.8051C73.2955 16.0267 74.0492 14.7326 75.0251 14.5283Z" fill="#DADEE3"/>
<path d="M121.735 35.5151C121.629 35.6708 121.561 35.7876 121.426 35.9822C121.648 35.8946 121.783 35.8362 121.909 35.7876C121.977 36.7411 120.933 37.5584 120.179 37.5778C120.102 37.5778 119.957 37.3541 119.957 37.247C119.976 36.42 120.807 35.5832 121.735 35.5151Z" fill="#DADEE3"/>
<path d="M101.637 16.523C101.791 17.5544 101.028 18.576 100.033 18.6636C100.12 18.4982 100.197 18.3425 100.284 18.1868C100.264 18.1673 100.245 18.1479 100.226 18.1284C100.1 18.2257 99.9649 18.3327 99.8296 18.4398C99.675 17.5155 100.622 16.5133 101.637 16.523Z" fill="#DADEE3"/>
<path d="M111.512 22.9829C111.618 23.917 110.739 24.8413 109.685 24.8802C109.792 24.7148 109.879 24.5786 110.033 24.3354C109.772 24.4716 109.618 24.5494 109.444 24.637C109.54 23.6056 110.545 22.8175 111.512 22.9829Z" fill="#DADEE3"/>
<path d="M97.3271 11.5607C97.2788 11.8818 97.2304 12.2126 97.1821 12.5628C96.4864 11.8428 96.6314 10.4612 97.4334 9.87744C98.1677 10.5391 98.2064 11.7942 97.4527 12.6115C97.4237 12.2223 97.3947 11.8915 97.3754 11.5607C97.3561 11.5607 97.3464 11.5607 97.3271 11.5607Z" fill="#DADEE3"/>
<path d="M85.4997 4.06885C86.4853 4.19533 87.268 5.2656 87.0457 6.23858C86.8621 6.02452 86.7075 5.83966 86.5433 5.64506C86.5239 5.65479 86.5046 5.66452 86.4756 5.68398C86.5819 5.9175 86.6979 6.15101 86.8138 6.40398C85.7992 6.17047 85.1228 4.93479 85.4997 4.06885Z" fill="#DADEE3"/>
<path d="M81.5478 2.42418C81.6734 2.21985 81.799 2.02526 81.915 1.84039C81.8956 1.82093 81.886 1.80147 81.8667 1.78201C81.7024 1.91823 81.5285 2.06418 81.3545 2.21012C81.1903 1.3831 82.1469 0.225258 82.9489 0.254447C83.0262 0.254447 83.1614 0.371204 83.1808 0.458772C83.3257 1.27607 82.4464 2.34634 81.5478 2.42418Z" fill="#DADEE3"/>
<path d="M81.9828 8.66113C82.3307 9.52708 81.6833 10.7433 80.7074 10.9671C80.7847 10.753 80.862 10.5682 80.9296 10.3833C80.9103 10.3638 80.891 10.3541 80.862 10.3346C80.7267 10.4903 80.5914 10.6363 80.4561 10.7919C80.0793 10.0525 80.9972 8.76816 81.9828 8.66113Z" fill="#DADEE3"/>
<path d="M90.7173 2.76512C90.8236 2.50242 90.9009 2.31756 90.9782 2.12296C90.9589 2.1035 90.9395 2.09377 90.9202 2.07431C90.7656 2.25918 90.6207 2.43431 90.4564 2.62891C90.2052 1.78242 90.9202 0.537017 91.7126 0.42026C91.7995 0.41053 91.9445 0.488368 91.9735 0.566206C92.273 1.30566 91.5869 2.55107 90.7173 2.76512Z" fill="#DADEE3"/>
<path d="M118.585 34.0557C118.952 34.0849 119.232 34.1043 119.503 34.1335C119.513 34.1141 119.513 34.0849 119.522 34.0654C119.261 33.9779 119 33.8903 118.711 33.793C119.474 33.2189 120.73 33.5498 121.262 34.406C120.633 35.0773 119.3 34.9411 118.585 34.0557Z" fill="#DADEE3"/>
<path d="M87.162 13.7013C87.4422 13.4678 87.6451 13.3024 87.8383 13.1467C87.819 13.1176 87.7997 13.0884 87.7707 13.0592C87.5388 13.1954 87.3069 13.3316 87.0557 13.4776C87.2006 12.4754 88.2152 11.7457 89.2104 11.9013C89.3747 12.7965 88.3408 13.7792 87.162 13.7013Z" fill="#DADEE3"/>
<path d="M74.3298 5.64485C74.0689 5.3335 73.866 5.09026 73.6631 4.84701C73.6438 4.85674 73.6244 4.8762 73.5955 4.88593C73.7501 5.15836 73.9047 5.4308 74.0689 5.72269C73.0833 5.68377 72.4553 4.39945 72.5809 3.67945C72.5905 3.60161 72.8321 3.49458 72.9384 3.51404C73.7694 3.70863 74.4071 4.64269 74.3298 5.64485Z" fill="#DADEE3"/>
<path d="M106.555 9.90674C107.019 10.8019 106.594 12.0862 105.666 12.4267C105.743 12.164 105.801 11.9402 105.869 11.7067C105.84 11.6873 105.82 11.6775 105.792 11.6581C105.676 11.8624 105.56 12.0765 105.434 12.2905C104.961 11.5024 105.618 10.1305 106.555 9.90674Z" fill="#DADEE3"/>
<path d="M62.0391 37.5775C62.2806 37.7429 62.4932 37.8986 62.6961 38.0445C62.7154 38.0251 62.7348 38.0056 62.7444 37.9862C62.5802 37.7818 62.4159 37.5873 62.2323 37.3635C63.2372 37.3245 64.1165 38.2683 64.0682 39.2802C63.1889 39.504 62.1164 38.6381 62.0391 37.5775Z" fill="#DADEE3"/>
<path d="M95.4427 6.03396C95.4137 5.64478 95.3943 5.35288 95.375 5.05126C95.3557 5.05126 95.3364 5.04153 95.3267 5.04153C95.2784 5.35288 95.2301 5.66424 95.1818 5.98532C94.4764 5.35288 94.631 3.91289 95.433 3.3291C96.1577 3.9518 96.206 5.27505 95.4427 6.03396Z" fill="#DADEE3"/>
<path d="M71.2766 22.0202C71.3056 21.7185 71.3249 21.485 71.3539 21.2515C71.3345 21.2418 71.3152 21.2418 71.2862 21.2321C71.1896 21.4558 71.0833 21.6894 70.977 21.9326C70.4649 21.125 70.8901 19.8699 71.7983 19.4126C72.4071 20.0839 72.1752 21.4364 71.2766 22.0202Z" fill="#DADEE3"/>
<path d="M87.2969 2.23938C87.065 2.01559 86.8911 1.85992 86.7172 1.69451C86.6978 1.70424 86.6785 1.7237 86.6592 1.73343C86.7945 1.96694 86.9297 2.19073 87.0843 2.4437C86.1954 2.32694 85.4127 1.40262 85.4417 0.546405C85.4514 0.312891 85.5287 0.215594 85.7702 0.244783C86.6012 0.37127 87.3549 1.29559 87.2969 2.23938Z" fill="#DADEE3"/>
<path d="M121.145 23.8976C121.319 23.703 121.474 23.5376 121.638 23.3625C121.629 23.343 121.609 23.3236 121.6 23.3041C121.387 23.4403 121.174 23.5668 120.952 23.703C120.981 22.6133 122.237 21.9712 122.865 22.0587C122.943 22.0685 123.059 22.2047 123.068 22.2825C123.126 23.0706 121.976 24.0533 121.145 23.8976Z" fill="#DADEE3"/>
<path d="M99.8006 2.04492C100.661 2.58979 100.931 3.86438 100.313 4.66222C100.245 4.38979 100.177 4.14654 100.119 3.9033C100.1 3.9033 100.071 3.9033 100.052 3.9033C100.052 4.14654 100.052 4.38006 100.052 4.65249C99.2305 4.23411 99.1145 2.73573 99.8006 2.04492Z" fill="#DADEE3"/>
<path d="M58.9562 16.5522C58.6663 16.4452 58.4247 16.3479 58.1735 16.2506C58.1542 16.27 58.1445 16.2992 58.1252 16.3187C58.3378 16.4646 58.5407 16.6106 58.7629 16.7662C57.9223 17.1457 56.7531 16.4841 56.4922 15.5208C57.2266 14.9954 58.5986 15.5403 58.9562 16.5522Z" fill="#DADEE3"/>
<path d="M121.068 30.8646C121.204 29.8235 121.783 29.123 122.595 28.9284C122.991 28.8311 123.098 28.9284 123.04 29.337C122.914 30.203 122.189 30.9327 121.329 31.0008C121.513 30.7479 121.667 30.5338 121.822 30.3197C121.803 30.3003 121.793 30.2808 121.774 30.2614C121.551 30.4462 121.339 30.6311 121.068 30.8646Z" fill="#DADEE3"/>
<path d="M77.1223 28.9476C76.8034 28.8017 76.5715 28.7044 76.3493 28.5974C76.33 28.6168 76.3203 28.6363 76.301 28.6557C76.4942 28.8114 76.6875 28.9768 76.8904 29.1422C76.0981 29.512 74.8612 28.6752 74.7163 27.712C75.5666 27.3422 76.6972 27.8676 77.1223 28.9476Z" fill="#DADEE3"/>
<path d="M103.781 17.233C103.627 17.0092 103.472 16.7757 103.318 16.5519C103.279 16.5908 103.231 16.62 103.192 16.6589C103.347 16.8924 103.501 17.1259 103.685 17.3886C102.767 17.3011 101.955 16.3476 102.004 15.5108C102.013 15.2384 102.168 15.2286 102.371 15.2578C103.202 15.3843 103.936 16.2794 103.907 17.1551C103.868 17.1746 103.82 17.2038 103.781 17.233Z" fill="#DADEE3"/>
<path d="M67.3724 8.93326C67.1888 8.57326 67.0342 8.28137 66.8796 7.98948C66.8603 7.99921 66.8409 7.99921 66.8216 8.00894C66.9086 8.33002 66.9955 8.6511 67.0922 9.0111C66.1356 8.54408 65.7491 7.32786 66.2225 6.46191C67.1501 6.70516 67.7202 7.87272 67.3724 8.93326Z" fill="#DADEE3"/>
<path d="M85.7416 16.6884C85.3744 17.4182 83.7414 17.6614 83.0747 16.922C83.4516 16.8733 83.7994 16.8247 84.1473 16.776C84.1473 16.7565 84.1473 16.7371 84.1473 16.7274C83.8091 16.7079 83.4709 16.6884 83.094 16.6593C83.6062 15.9003 85.2971 15.9684 85.7416 16.6884Z" fill="#DADEE3"/>
<path d="M87.0076 15.5787C86.8819 15.3647 86.7563 15.1604 86.6307 14.9463C86.5824 14.9852 86.5437 15.0241 86.4954 15.0631C86.6307 15.2966 86.766 15.5204 86.9206 15.7831C85.877 15.6274 85.162 14.5571 85.4035 13.5841C86.3312 13.555 87.2105 14.5182 87.1332 15.4717C87.0849 15.5106 87.0462 15.5495 87.0076 15.5787Z" fill="#DADEE3"/>
<path d="M99.6168 9.46856C99.3655 9.27397 99.1433 9.10856 98.9114 8.93343C98.8921 8.95289 98.8727 8.97235 98.8534 8.98208C99.037 9.19613 99.2206 9.41018 99.4138 9.63397C98.5539 9.741 97.4233 8.69019 97.52 7.89235C97.5296 7.81451 97.6649 7.69775 97.7519 7.69775C98.4476 7.69775 99.5781 8.33992 99.6168 9.46856Z" fill="#DADEE3"/>
<path d="M101.578 26.1357C101.385 25.2503 102.139 24.1217 102.951 24.0147C103.047 24.0049 103.231 24.1411 103.25 24.2287C103.395 25.0947 102.651 26.2233 101.801 26.2914C101.965 25.9801 102.12 25.6979 102.274 25.4157C102.255 25.406 102.236 25.3865 102.226 25.3768C102.013 25.6201 101.81 25.8633 101.578 26.1357Z" fill="#DADEE3"/>
<path d="M104.429 33.2383C104.777 33.4719 105.183 33.7054 105.54 33.9875C105.782 34.1821 105.782 34.3864 105.444 34.5227C104.661 34.8437 103.695 34.581 103.096 33.7929C103.405 33.8319 103.646 33.861 103.878 33.8805C103.888 33.861 103.898 33.8416 103.898 33.8124C103.666 33.7054 103.434 33.6081 103.115 33.4621C103.463 33.1508 103.753 32.8783 104.052 32.6156C104.043 32.6059 104.033 32.5864 104.023 32.5767C103.704 32.781 103.395 32.9756 103.076 33.18C103.038 33.1508 102.989 33.1119 102.951 33.0827C103.125 32.8102 103.231 32.4405 103.472 32.2751C103.869 31.9929 104.332 31.7886 104.806 31.6524C105.212 31.5356 105.347 31.7205 105.154 32.1C104.941 32.5183 104.651 32.8881 104.429 33.2383Z" fill="#DADEE3"/>
<path d="M109.801 30.3097C110.4 30.3584 110.951 30.407 111.521 30.4654C111.338 31.4676 109.888 32.0124 109.019 31.4773C109.338 31.3508 109.618 31.2341 109.908 31.1173C109.908 31.0978 109.898 31.0687 109.898 31.0492C109.589 31.1076 109.27 31.1562 108.864 31.2243C108.99 30.8157 109.086 30.4751 109.183 30.1346C109.164 30.1249 109.154 30.1151 109.135 30.1054C108.97 30.407 108.806 30.7087 108.632 31.0297C108.188 30.2124 108.796 28.9573 109.782 28.6362C110.13 29.1908 109.966 29.7649 109.801 30.3097Z" fill="#DADEE3"/>
<path d="M106.361 32.645C106.835 31.8861 108.159 31.6039 108.816 32.1001C108.893 32.1585 108.932 32.392 108.883 32.4601C108.381 33.1801 107.067 33.4623 106.419 32.9077C106.748 32.8006 107.057 32.7034 107.366 32.6158C107.366 32.5963 107.357 32.5769 107.357 32.5574C107.028 32.5866 106.709 32.6158 106.361 32.645Z" fill="#DADEE3"/>
<path d="M63.0346 31.0586C63.9236 31.5937 64.2618 32.8002 63.711 33.6564C63.6047 33.3256 63.5177 33.0532 63.4308 32.771C63.4018 32.771 63.3825 32.771 63.3535 32.7808C63.3825 33.0726 63.4114 33.3743 63.4404 33.6953C62.6094 33.2186 62.3969 31.8272 63.0346 31.0586Z" fill="#DADEE3"/>
<path d="M118.836 20.1229C119.338 19.4223 120.884 19.4126 121.483 20.1618C121 20.9499 119.599 21.0959 118.797 20.3856C119.222 20.3369 119.599 20.2883 119.976 20.2494C119.976 20.2396 119.976 20.2202 119.976 20.2104C119.609 20.1813 119.241 20.1618 118.836 20.1229Z" fill="#DADEE3"/>
<path d="M97.3943 6.15071C97.4909 5.81017 97.5682 5.53774 97.6455 5.26531C97.6262 5.25558 97.6069 5.24585 97.5876 5.23612C97.4523 5.46963 97.317 5.71288 97.1624 5.97558C96.7662 5.07071 97.3557 3.86423 98.2833 3.5918C98.7954 4.35072 98.3896 5.63504 97.3943 6.15071Z" fill="#DADEE3"/>
<path d="M82.8621 23.09C82.2437 22.2532 82.6592 21.0467 83.21 20.5992C83.2776 20.5408 83.5192 20.57 83.5675 20.6381C84.1086 21.4359 83.8187 22.7494 83.1327 23.1386C83.1617 22.73 83.1906 22.3505 83.2196 21.9808C83.2003 21.9711 83.1907 21.9711 83.1713 21.9613C83.0747 22.3213 82.9684 22.6911 82.8621 23.09Z" fill="#DADEE3"/>
<path d="M123.561 36.9645C123.445 36.7991 123.32 36.6337 123.194 36.4488C124.18 36.4196 125.088 37.4705 124.933 38.4142C124.016 38.5505 123.078 37.7429 122.953 36.624C123.165 36.7796 123.339 36.9061 123.503 37.0326C123.523 37.0132 123.542 36.984 123.561 36.9645Z" fill="#DADEE3"/>
<path d="M111.328 12.7669C111.116 12.4653 110.942 12.2318 110.777 11.9983C110.729 12.0372 110.681 12.0859 110.633 12.1248C110.777 12.3486 110.922 12.5821 111.077 12.8156C110.227 12.9032 109.386 11.8232 109.473 10.7918C110.323 10.568 111.406 11.6286 111.328 12.7669Z" fill="#DADEE3"/>
<path d="M117.744 16.3283C118.179 16.3964 118.536 16.4451 118.894 16.4937C118.904 16.4743 118.904 16.4548 118.913 16.4354C118.575 16.3186 118.247 16.2116 117.899 16.0948C118.556 15.5013 120.005 15.9197 120.43 16.8148C119.706 17.4181 118.45 17.2332 117.744 16.3283Z" fill="#DADEE3"/>
<path d="M113.106 37.0815C113.038 37.4221 112.98 37.6848 112.922 37.9378C112.942 37.9475 112.971 37.9572 112.99 37.9669C113.116 37.7042 113.241 37.4513 113.386 37.1497C113.811 38.1129 113.319 39.3096 112.401 39.6599C111.86 38.8913 112.169 37.5972 113.106 37.0815Z" fill="#DADEE3"/>
<path d="M54.5596 37.4609C54.5016 37.8112 54.4533 38.1128 54.405 38.4242C54.4243 38.4339 54.4436 38.4339 54.463 38.4436C54.5789 38.1615 54.6852 37.8696 54.8108 37.5582C55.323 38.4534 54.8785 39.7474 53.9895 40.1074C53.4194 39.2707 53.661 38.0253 54.5596 37.4609Z" fill="#DADEE3"/>
<path d="M115.86 23.6258C116.053 23.3436 116.208 23.1296 116.362 22.9058C116.343 22.8863 116.333 22.8766 116.314 22.8571C116.111 23.042 115.899 23.2171 115.686 23.4117C115.541 22.5944 116.575 21.4269 117.358 21.5144C117.445 21.5241 117.58 21.7382 117.58 21.855C117.57 22.6625 116.797 23.4993 115.86 23.6258Z" fill="#DADEE3"/>
<path d="M128.789 28.2858C127.939 27.5269 127.842 26.2621 128.499 25.5615C129.359 26.0967 129.649 27.3421 129.05 28.1983C128.953 27.8383 128.876 27.5269 128.798 27.2156C128.77 27.2156 128.75 27.2253 128.721 27.2253C128.741 27.5561 128.76 27.8772 128.789 28.2858Z" fill="#DADEE3"/>
<path d="M83.9727 18.002C84.9003 18.0117 85.7313 18.9749 85.6637 20.0841C85.4125 19.8214 85.2096 19.5976 84.997 19.3738C84.9776 19.3836 84.9583 19.3933 84.9487 19.403C85.0936 19.6657 85.2385 19.9284 85.3931 20.2106C84.5332 20.2592 83.5862 18.7511 83.9727 18.002Z" fill="#DADEE3"/>
<path d="M82.4659 31.8178C81.4417 32.0902 80.4078 31.4675 80.1372 30.4946C80.9199 30.0081 82.2243 30.5627 82.6012 31.5843C82.2533 31.4383 81.9538 31.3216 81.6542 31.1951C81.6446 31.2146 81.6253 31.234 81.6156 31.2535C81.8765 31.4286 82.1374 31.6037 82.4659 31.8178Z" fill="#DADEE3"/>
<path d="M83.8861 11.8626C84.002 11.5318 84.1083 11.2496 84.2146 10.9577C84.1953 10.948 84.176 10.9382 84.1566 10.9285C83.9924 11.1912 83.8281 11.4539 83.6542 11.7361C83.2483 10.9091 83.9441 9.66365 84.9007 9.42041C85.3838 10.2085 84.8427 11.5804 83.8861 11.8626Z" fill="#DADEE3"/>
<path d="M81.7799 5.43112C81.8379 6.4722 81.0456 7.42571 80.06 7.4549C80.2339 7.21166 80.3789 6.9976 80.5335 6.79328C80.5141 6.77382 80.5045 6.76409 80.4852 6.74463C80.2822 6.91004 80.0697 7.06571 79.8474 7.24085C79.7605 6.29706 80.7944 5.33382 81.7799 5.43112Z" fill="#DADEE3"/>
<path d="M110.835 19.6168C110.903 19.3151 110.951 19.0816 111.009 18.8578C110.99 18.8481 110.971 18.8384 110.951 18.8384C110.826 19.0524 110.7 19.2568 110.565 19.4903C110.178 18.7216 110.681 17.4276 111.454 17.1454C111.541 17.1162 111.744 17.2135 111.782 17.3011C112.111 18.0406 111.666 19.1887 110.835 19.6168Z" fill="#DADEE3"/>
<path d="M105.076 24.1995C105.076 24.5692 105.076 24.9389 105.076 25.3379C104.303 24.793 104.236 23.5087 104.941 22.6816C105.482 23.0319 105.656 23.5865 105.762 24.2287C106.081 24.0341 106.352 23.82 106.661 23.6935C106.883 23.606 107.154 23.6254 107.405 23.5962C107.386 23.8492 107.405 24.1119 107.328 24.3357C107.067 25.0752 106.39 25.5616 105.617 25.5714C105.83 25.3184 106.014 25.1043 106.197 24.8903C106.178 24.8708 106.159 24.8514 106.149 24.8222C105.917 25.007 105.675 25.1919 105.386 25.4157C105.299 24.9681 105.212 24.5789 105.134 24.18C105.115 24.1897 105.096 24.1995 105.076 24.1995Z" fill="#DADEE3"/>
<path d="M105.366 26.3404C105.472 27.2744 104.593 28.1987 103.54 28.2377C103.646 28.0723 103.733 27.936 103.888 27.6928C103.627 27.829 103.472 27.9069 103.298 27.9944C103.385 26.9631 104.39 26.175 105.366 26.3404Z" fill="#DADEE3"/>
<path d="M107.811 15.9293C107.879 15.6276 107.927 15.3941 107.985 15.1704C107.966 15.1606 107.946 15.1509 107.927 15.1509C107.801 15.3649 107.676 15.5693 107.54 15.8028C107.154 15.0341 107.656 13.7401 108.429 13.4579C108.516 13.4287 108.719 13.526 108.758 13.6136C109.086 14.3531 108.652 15.5012 107.811 15.9293Z" fill="#DADEE3"/>
<path d="M57.71 30.2125C56.7823 30.3779 55.8354 29.6287 55.6132 28.8211C55.5552 28.5974 55.6228 28.4806 55.8741 28.4514C56.6857 28.3541 57.6423 29.0547 57.8549 29.9887C57.536 29.8038 57.2751 29.6579 57.0142 29.512C56.9949 29.5314 56.9853 29.5509 56.9659 29.5703C57.1978 29.7649 57.4297 29.9693 57.71 30.2125Z" fill="#DADEE3"/>
<path d="M117.716 18.8193C117.406 18.868 117.097 18.9069 116.778 18.9556C117.088 18.1091 118.605 17.8269 119.339 18.4496C118.943 19.3156 117.745 19.7242 116.788 19.2377C117.146 19.1015 117.435 18.9945 117.735 18.8777C117.725 18.868 117.725 18.8485 117.716 18.8193Z" fill="#DADEE3"/>
<path d="M54.2599 21.6698C53.5449 20.9304 53.6319 19.5877 54.4049 18.9941C55.1489 19.6558 55.2552 20.8233 54.5788 21.7087C54.5401 21.4558 54.5015 21.2514 54.4822 21.0568C54.4628 20.8622 54.4628 20.6677 54.4049 20.4731C54.3566 20.8622 54.3082 21.2514 54.2599 21.6698Z" fill="#DADEE3"/>
<path d="M66.1547 19.1299C66.8504 19.7818 66.8214 21.0661 65.9904 21.8347C66.0098 21.3774 66.0291 21.0174 66.0484 20.6574C66.0291 20.6574 66.0098 20.6477 65.9904 20.6477C65.9131 21.0077 65.8358 21.3677 65.7585 21.7569C65.0918 21.0077 65.3237 19.6456 66.1547 19.1299Z" fill="#DADEE3"/>
<path d="M119.213 21.125C119.919 21.8547 119.899 23.0904 119.146 23.8299C119.146 23.392 119.146 22.9931 119.146 22.6039C119.126 22.6039 119.097 22.5942 119.078 22.5942C119.01 22.9834 118.933 23.3726 118.856 23.8007C118.199 23.0223 118.392 21.6796 119.213 21.125Z" fill="#DADEE3"/>
<path d="M91.9933 23.7324C91.0561 23.46 90.5053 22.2048 90.9015 21.3486C91.8291 21.4557 92.5634 22.633 92.2736 23.6448C92.09 23.3627 91.9257 23.1194 91.7614 22.8762C91.7421 22.8859 91.7228 22.8957 91.7035 22.9054C91.7904 23.1584 91.8871 23.4308 91.9933 23.7324Z" fill="#DADEE3"/>
<path d="M113.077 31.6913C113.212 32.674 112.517 33.5788 111.338 33.8415C111.589 33.501 111.792 33.2383 111.985 32.9756C111.966 32.9561 111.947 32.9464 111.927 32.9269C111.686 33.141 111.454 33.3648 111.183 33.5983C111.145 32.5767 112.082 31.6426 113.077 31.6913Z" fill="#DADEE3"/>
<path d="M72.0204 10.6853C71.0348 10.2961 70.5613 9.06039 70.9865 8.22363C71.9141 8.41823 72.5035 9.43012 72.3103 10.5977C72.0977 10.2669 71.9238 10.0042 71.7498 9.74147C71.7305 9.7512 71.7112 9.7512 71.6919 9.76093C71.7885 10.0431 71.8948 10.3253 72.0204 10.6853Z" fill="#DADEE3"/>
<path d="M126.073 29.2884C125.928 29.5511 125.783 29.804 125.619 30.0959C125.223 29.2592 125.87 28.0916 126.605 27.7608C126.865 27.644 126.933 27.7997 126.981 28.004C127.184 28.8408 126.749 29.7846 125.86 30.2516C125.976 29.8916 126.063 29.6094 126.15 29.3273C126.121 29.3175 126.102 29.2981 126.073 29.2884Z" fill="#DADEE3"/>
<path d="M58.2513 21.5239C59.0244 22.1758 59.121 23.4796 58.4156 24.1996C58.3673 23.7618 58.319 23.3628 58.2707 22.9737C58.261 22.9737 58.2417 22.9737 58.232 22.9737C58.2127 23.3628 58.1837 23.752 58.1644 24.1704C57.4204 23.6645 57.488 22.1855 58.2513 21.5239Z" fill="#DADEE3"/>
<path d="M67.1406 34.4253C66.8314 34.2696 66.5802 34.1432 66.3289 34.0167C66.3193 34.0361 66.3 34.0556 66.2903 34.0751C66.5029 34.2502 66.7155 34.4253 67.0247 34.688C66.7831 34.6978 66.6381 34.7269 66.5125 34.7075C65.7299 34.581 65.1888 34.1334 64.8699 33.4134C64.7733 33.1896 64.7829 33.0242 65.0728 32.9951C65.8941 32.888 66.9957 33.5302 67.1406 34.4253Z" fill="#DADEE3"/>
<path d="M46.2016 33.326C45.9213 33.2384 45.6701 33.1509 45.4189 33.073C45.4092 33.1022 45.3899 33.1217 45.3802 33.1509C45.6121 33.2871 45.844 33.4233 46.0953 33.579C45.3029 33.939 43.9985 33.3649 43.7762 32.5768C43.7569 32.499 43.8149 32.3336 43.8825 32.2946C44.5589 31.886 45.931 32.4892 46.2016 33.326Z" fill="#DADEE3"/>
<path d="M118.575 30.3295C118.836 29.9695 119.039 29.6971 119.242 29.4149C119.232 29.3954 119.213 29.376 119.203 29.3662C118.942 29.6095 118.681 29.8625 118.391 30.1349C118.362 29.0744 119.309 28.1403 120.256 28.2279C120.449 29.1522 119.705 30.1544 118.575 30.3295Z" fill="#DADEE3"/>
<path d="M84.0408 5.98555C84.0794 5.53799 84.1084 5.18772 84.1374 4.84718C84.1181 4.83745 84.0988 4.83745 84.0698 4.82772C83.9828 5.15853 83.8959 5.48934 83.7992 5.83961C83.1712 5.20718 83.4707 3.86447 84.3403 3.26123C85.0167 3.89366 84.9104 5.18772 84.0408 5.98555Z" fill="#DADEE3"/>
<path d="M65.1022 14.9663C64.3968 14.2365 64.5127 12.8647 65.2954 12.3101C66.0394 12.8841 66.1167 14.3144 65.3631 14.9857C65.3631 14.5771 65.3631 14.2268 65.3631 13.8668C65.3244 13.8668 65.2954 13.8668 65.2568 13.8571C65.1988 14.2074 65.1601 14.5576 65.1022 14.9663Z" fill="#DADEE3"/>
<path d="M49.8252 35.5053C50.1054 34.5907 51.3229 34.0653 52.3182 34.4837C51.9896 34.6297 51.7094 34.7659 51.4292 34.8924C51.4389 34.9215 51.4389 34.941 51.4485 34.9702C51.7577 34.9021 52.0573 34.8243 52.3955 34.7464C51.9317 35.6707 50.6562 36.0307 49.8252 35.5053Z" fill="#DADEE3"/>
<path d="M71.7402 28.9377C72.3683 28.1885 73.7211 28.1496 74.3975 28.8988C73.9916 28.9182 73.6438 28.9377 73.2863 28.9474C73.2863 28.9669 73.2863 28.9863 73.2766 29.0058C73.6245 29.0544 73.9723 29.1128 74.3202 29.1615C73.866 29.8717 72.3973 29.7453 71.7402 28.9377Z" fill="#DADEE3"/>
<path d="M69.2858 32.6836C68.6288 32.6933 68.0683 32.8003 67.6528 33.2771C68.1263 34.0846 69.5467 34.2306 70.2714 33.53C70.0588 33.4717 69.8753 33.423 69.682 33.3744C69.682 33.3452 69.6917 33.3257 69.6917 33.2965C69.8946 33.2673 70.0975 33.2479 70.368 33.209C70.1941 32.9171 70.0395 32.6641 69.8946 32.4111C69.9042 32.4014 69.9236 32.3917 69.9332 32.3722C70.1265 32.5668 70.3294 32.7614 70.5323 32.956C70.8415 32.2457 69.7883 30.8544 68.822 30.9419C68.6384 31.5938 69.0153 32.1192 69.2858 32.6836Z" fill="#DADEE3"/>
<path d="M68.1073 32.4405C67.7787 32.314 67.5468 32.2362 67.3053 32.1486C67.3053 32.1194 67.3053 32.1 67.3149 32.0708C67.5662 32.0902 67.8174 32.1097 68.0783 32.1389C67.7594 31.3216 66.3004 31.0492 65.5273 31.6427C65.8752 32.5183 67.054 32.927 68.1073 32.4405Z" fill="#DADEE3"/>
<path d="M73.9144 34.1435C73.3636 33.2289 72.1944 32.9467 71.3345 33.4624C71.5567 34.3575 72.8805 34.8829 73.8564 34.4062C73.5086 34.27 73.209 34.1435 72.9095 34.017C72.9095 33.9975 72.9191 33.9683 72.9191 33.9489C73.2284 34.0073 73.5376 34.0656 73.9144 34.1435Z" fill="#DADEE3"/>
<path d="M64.2422 28.6848C64.1745 29.6578 65.1215 30.6308 66.1264 30.5821C65.8559 30.2902 65.6046 30.0275 65.3631 29.7648C65.3727 29.7453 65.3824 29.7356 65.392 29.7162C65.6819 29.9205 65.9621 30.1248 66.252 30.3389C66.4066 29.5021 65.2664 28.5583 64.2422 28.6848Z" fill="#DADEE3"/>
<path d="M50.3858 59.2557C50.7433 59.2557 51.6033 58.5941 52.9561 57.2806C54.2895 55.9379 54.9562 55.0817 54.9562 54.6925C54.9562 54.313 54.2895 53.4471 52.9561 52.1044C51.6226 50.7617 50.7723 50.0903 50.3858 50.0903C50.009 50.0903 49.149 50.7617 47.8155 52.1044C46.5014 53.4665 45.854 54.3228 45.854 54.6925C45.854 55.0525 46.5111 55.9184 47.8155 57.2806C49.178 58.5941 50.0283 59.2557 50.3858 59.2557Z" fill="#DADEE3"/>
<path d="M59.8939 83.1226C59.8262 75.3681 59.5557 72.9843 59.3431 72.3713C58.4155 69.5302 57.5362 67.5356 56.7148 66.4264C55.478 64.7724 54.019 64.101 52.2604 64.3929C50.6274 64.6167 48.8784 65.4729 47.0522 66.9324C44.9747 68.5962 43.7862 70.367 43.5253 72.1962C43.3804 73.4124 43.6219 74.7259 44.2307 76.0783L44.5979 76.8859H12.3729C11.9477 76.8859 11.2713 76.6816 9.69631 75.0956C9.05857 74.3951 8.74937 73.3929 8.74937 72.1183V70.8145C8.77836 70.4837 8.79768 70.2308 8.80734 70.007C8.81701 69.7929 8.82667 69.6275 8.82667 69.5108C8.82667 68.2167 8.31455 67.9151 7.87007 67.8081C7.81209 67.7886 7.74445 67.7789 7.66715 67.7789C7.09705 67.7789 6.0245 68.3627 4.28522 71.4178C2.58459 74.4535 1.72461 77.6935 1.72461 81.0405C1.72461 81.7605 1.77292 82.461 1.85989 83.1518H59.8939V83.1226ZM50.7143 71.9335C51.3038 71.3886 51.9222 71.4275 52.3377 71.5637C52.7725 71.6513 53.3619 72.0989 54.1832 72.9843C54.9562 73.8016 55.3621 74.6773 55.3621 75.5918C55.3621 77.3918 54.1446 77.5864 53.6131 77.5864C52.6275 77.5864 51.7096 77.061 50.8883 76.0199C50.2795 75.1637 49.98 74.3562 49.98 73.607C49.98 72.8675 50.2312 72.3032 50.7143 71.9335Z" fill="#DADEE3"/>
<path d="M76.0109 76.8665H72.2521C71.856 76.8665 71.4791 76.5843 71.0057 75.913C70.5515 75.3292 70.3099 74.7259 70.3099 74.113V51.4038H63.8843V83.1324H80.2915C78.2913 81.5562 76.7743 79.3768 76.0109 76.8665Z" fill="#DADEE3"/>
<path d="M46.0664 31.8079C46.2114 31.9247 46.3565 32.0416 46.5015 32.1584C46.3855 32.0221 46.2695 31.8761 46.1534 31.7397C46.1244 31.7592 46.0954 31.7787 46.0664 31.8079Z" fill="#DADEE3"/>
<path d="M129.417 31.701C129.127 31.9151 128.857 32.1389 128.596 32.3919C127.369 33.5692 125.968 33.8805 124.393 33.1994C123.881 32.9756 123.368 32.7227 122.876 32.4502C122.006 31.9735 121.165 31.4578 120.276 31.0102C119.02 30.3778 117.754 30.3973 116.508 31.0881C116.044 31.3508 115.571 31.6037 115.126 31.8956C114.102 32.567 113.107 33.2578 112.082 33.9292C111.029 34.6102 109.879 34.5421 108.633 34.6492C106.468 34.834 96.8347 34.98 94.8249 34.6394C94.6316 34.6686 94.4384 34.6881 94.2451 34.7075C94.2355 34.6686 94.2258 34.6297 94.2161 34.6005C94.6896 34.4059 95.1631 34.1821 95.6462 34.0167C97.2502 33.4719 102.246 32.3919 103.85 31.8567C105.637 31.2632 107.077 30.2319 108.034 28.5681C108.459 27.8189 109.126 27.381 109.947 27.3032C110.923 27.2156 111.918 27.1962 112.904 27.2546C114.469 27.3421 116.025 27.5659 117.58 27.634C119.097 27.7021 120.093 26.7875 120.875 25.5908C120.692 25.6881 120.528 25.8146 120.383 25.9605C119.416 27.0405 118.199 27.3519 116.817 27.1183C115.493 26.8946 114.179 26.6416 112.865 26.4275C112.285 26.3302 111.696 26.2913 111.106 26.2329C111.251 26.1454 111.396 26.087 111.541 26.0967C112.034 26.1356 112.334 25.8729 112.469 25.4448C112.739 24.5983 113.087 23.7616 113.184 22.8956C113.329 21.5432 113.281 20.1713 113.31 18.8092C113.348 17.2913 113.764 15.9389 114.943 14.9075C114.991 14.8686 115.01 14.8005 115.039 14.7519C113.793 15.4913 113.097 16.6005 112.855 17.9919C112.72 18.7897 112.652 19.5973 112.566 20.4048C112.43 21.7475 112.324 23.0902 111.706 24.3356C111.29 25.1627 110.672 25.6783 109.754 25.8243C109.048 25.9411 108.343 26.0578 107.783 26.6027C107.947 26.3205 108.111 26.0481 108.353 25.8535C108.778 25.5032 108.913 25.0459 109 24.5302C109.184 23.3919 108.903 22.3605 108.285 21.4265C107.937 20.9011 107.763 20.3367 107.898 19.7335C108.092 18.9065 108.353 18.0892 108.604 17.2719C108.874 16.3767 109.184 15.5011 109.415 14.5962C109.531 14.1486 109.541 13.6621 109.174 13.273C109.396 13.9929 109.116 14.6254 108.884 15.2675C108.729 15.7151 108.507 16.1335 108.304 16.5713C107.985 17.2816 107.628 17.9821 107.338 18.7021C106.884 19.8405 106.816 20.9692 107.464 22.1075C107.985 23.0221 107.937 23.9854 107.473 24.9292C107.203 25.4935 106.855 26.0286 106.652 26.6221C105.937 28.6167 101.106 30.1443 99.0668 30.5335C97.1729 30.8935 95.25 31.2146 93.5011 32.1097C93.4914 32.1194 93.4624 32.0805 93.3755 32.0221C93.733 31.7789 94.0422 31.4967 94.3997 31.3313C94.7959 31.1367 95.0181 30.8546 95.0954 30.4459C95.2017 29.8621 97.2502 28.8016 97.7043 28.4319C98.1102 28.101 98.4484 27.6632 98.7576 27.2351C99.6465 25.9994 99.9944 24.5594 100.284 23.0902C100.487 22.0686 100.661 21.0373 101.231 20.1324C101.357 19.9475 101.492 19.7627 101.618 19.5778C101.56 19.5292 101.502 19.4708 101.444 19.4221C101.173 19.7529 100.864 20.0546 100.642 20.4146C100.217 21.1151 99.8301 21.8448 99.4436 22.5746C98.9798 23.4405 98.574 24.3259 98.0619 25.1627C97.7237 25.7075 97.2405 26.1648 96.5158 26.5054C96.6318 26.301 96.6704 26.2038 96.7381 26.1356C97.1053 25.7173 97.2019 25.2697 97.0086 24.7346C96.7961 24.1605 96.6608 23.5573 96.4579 22.9832C96.0327 21.7378 96.3033 20.6189 97.1053 19.6265C97.4338 19.2081 97.801 18.8092 98.1971 18.4589C98.9991 17.7292 99.8398 17.0481 100.661 16.3378C102.429 14.8102 103.096 12.8254 102.951 10.5486C102.884 9.50755 102.719 8.4762 102.613 7.44485C102.565 6.97782 102.545 6.50106 102.516 6.03404C102.478 6.03404 102.439 6.03404 102.4 6.03404C102.362 6.4816 102.294 6.9389 102.284 7.38647C102.265 8.39836 102.313 9.41025 102.275 10.4221C102.197 12.4265 101.482 14.1194 99.7625 15.2773C98.545 16.1043 97.3275 16.9411 96.1583 17.7389C96.1583 17.7292 96.1873 17.6221 96.2453 17.5443C96.5352 17.2038 96.5062 16.8632 96.3129 16.4935C96.081 16.0459 95.8781 15.5789 95.6462 15.1313C95.1437 14.1486 94.6026 13.1757 94.477 12.0567C94.4287 11.6286 94.4674 11.1811 94.4674 10.6167C94.0615 11.5897 93.9552 12.4848 94.1195 13.3897C94.2741 14.2654 94.477 15.1313 94.7186 15.9875C95.0954 17.3205 95.0954 18.6048 94.4577 19.8794C94.2161 20.3659 94.0712 20.9108 93.9649 21.4459C93.7427 22.5065 93.9939 23.5475 94.1871 24.5886C94.4094 25.7465 94.506 26.8848 94.0615 28.0232C93.6364 29.1032 91.1531 30.5432 90.2738 31.234L89.2592 30.5237C88.8533 29.8232 88.4089 29.1421 87.9837 28.4513C87.3266 27.3616 87.288 26.2524 87.8774 25.1238C88.1093 24.6956 88.3702 24.2773 88.6021 23.8492C89.0659 23.0221 89.5684 22.2146 89.9742 21.3584C91.0468 19.1011 90.9501 16.9119 89.4911 14.8297C89.4428 14.7519 89.3655 14.6935 89.3075 14.6254C90.5346 17.3108 89.8003 19.5681 87.9161 21.5919C87.3653 22.1854 86.8242 22.7886 86.2927 23.4016C85.5777 24.2189 84.94 25.0946 84.5728 26.1454C84.4762 26.4275 84.5051 26.6319 84.7274 26.8459C84.94 27.0502 85.1042 27.2935 85.2878 27.5173C85.2588 27.5465 85.2395 27.5756 85.2105 27.6048C84.3602 26.807 83.278 26.5248 82.2248 26.2038C81.0266 25.834 80.2149 25.0654 79.9347 23.8589C79.6158 22.5259 79.326 21.1638 79.2293 19.8016C79.0651 17.4956 80.0313 15.7346 82.0702 14.6059C82.3794 14.4308 82.6789 14.2654 82.9978 14.1097C84.0703 13.594 85.1622 13.1173 86.2154 12.5724C88.1866 11.5411 89.6457 10.0524 90.0032 7.7562C90.1385 6.86106 90.0902 5.92701 90.0902 5.01242C90.0902 4.6816 90.0032 4.34106 89.9549 4.01025C89.8679 4.80809 89.8583 5.5962 89.7906 6.38431C89.5974 8.5443 88.6214 10.2275 86.6792 11.2102C85.5294 11.794 84.3022 12.2221 83.0847 12.6794C81.9252 13.1173 80.7947 13.594 79.7994 14.3529C79.4709 14.6059 79.2197 14.8784 79.2003 15.3259C79.1907 15.5108 79.1037 15.6859 79.0457 15.8708C78.9684 15.0632 78.5046 14.4892 78.0698 13.9054C77.9539 13.7497 77.8282 13.5843 77.7123 13.4286C76.6397 12.0178 76.2822 10.4513 76.6397 8.70971C76.9296 7.27944 77.49 5.96593 78.1471 4.6816C78.2147 4.54539 78.2727 4.40917 78.3404 4.28269C78.2824 4.2535 78.2341 4.23404 78.1858 4.20485C77.6157 5.20701 76.9973 6.18971 76.4851 7.23079C76.0793 8.04809 75.5672 8.87512 75.8281 9.75079C75.4319 9.48809 75.0067 9.14755 74.5333 8.9043C73.9342 8.53457 73.2771 8.32052 72.6587 8.02863C72.2529 7.84376 71.8664 7.59079 71.4702 7.36701C71.4412 7.41566 71.4122 7.45458 71.3832 7.50322C71.8567 7.84376 72.3205 8.20376 72.8037 8.52485C73.4221 8.94322 74.0791 9.30322 74.6879 9.74106C75.2097 10.1205 75.4706 10.6557 75.6058 11.3173C75.7894 12.2513 76.0213 13.2243 76.4465 14.0611C77.1035 15.3454 77.4417 16.6589 77.3161 18.0892C77.1615 19.8502 77.0746 21.6016 77.3934 23.3529C77.4997 23.9562 77.519 24.5983 78.1954 24.9097C77.3934 24.7832 76.6204 24.647 75.8571 24.5011C75.4126 24.4135 75.2097 24.1216 75.2966 23.6643C75.3643 23.314 75.4222 22.9735 75.5092 22.6329C75.6541 22.0783 75.5575 21.5627 75.229 21.1054C75.0357 20.8329 74.8135 20.58 74.5816 20.3367C73.8859 19.5681 73.2095 18.78 73.1515 17.6611C73.0259 18.4102 73.1998 19.1011 73.5573 19.7432C73.8279 20.22 74.1274 20.687 74.4366 21.1443C74.7459 21.6016 74.8038 22.0686 74.5623 22.5746C74.427 22.8665 74.311 23.1681 74.2241 23.4794C73.9342 24.4621 74.1854 25.2113 75.0744 25.7075C75.5768 25.9897 76.1373 26.1551 76.6784 26.34C77.5867 26.6416 78.5433 26.8654 79.2776 27.527C80.0893 28.2665 81.0266 28.7821 82.0122 29.2492C83.6162 30.0081 84.6984 31.2437 85.1236 32.9951C85.2105 33.3454 84.1766 33.7151 84.1959 34.0751C84.0123 34.0459 83.9544 33.9973 83.9061 33.9389C82.8722 32.7616 81.558 32.0708 80.0507 31.8373C78.1278 31.5356 76.2146 31.1659 74.34 30.6113C73.7119 30.4265 73.0742 30.2805 72.4461 30.0956C71.5378 29.8329 70.8615 29.2492 70.4266 28.4124C69.8952 27.3908 69.3734 26.3692 68.8903 25.3378C68.4748 24.4427 68.4748 23.4989 68.9676 22.6329C69.6053 21.514 69.5667 20.4048 69.1029 19.2762C68.7357 18.3811 68.2912 17.5248 67.9047 16.6492C67.5085 15.7443 67.0544 14.8492 67.1896 13.7886C67.0737 14.1486 66.9384 14.5281 66.9964 14.8686C67.1027 15.54 67.2959 16.2113 67.4989 16.8632C67.8081 17.8751 68.2042 18.8578 68.4844 19.8697C68.6874 20.6092 68.5907 21.3292 68.1269 22.02C67.2476 23.3335 67.151 24.7638 67.7597 26.2232C67.8467 26.447 67.953 26.6611 68.0013 26.7778C67.5375 26.6221 67.0447 26.4081 66.5229 26.2913C65.6533 26.0967 65.0252 25.62 64.687 24.7929C64.4744 24.287 64.2619 23.7616 64.1846 23.2265C63.9913 21.9519 63.8753 20.6773 63.7207 19.3929C63.5951 18.3519 63.3632 17.34 62.7448 16.4643C62.281 15.8124 61.479 15.1508 60.9572 15.0438C62.4839 16.114 63.141 17.5638 63.112 19.3638C63.1023 20.1032 63.0927 20.8329 63.112 21.5724C63.141 22.8178 63.2086 24.0535 63.6531 25.2405C63.8947 25.8924 64.1459 26.554 64.9672 26.6708C65.0059 26.6805 65.0445 26.7097 65.0639 26.7194C63.5468 27.0016 62.0588 27.2546 60.5804 27.5562C58.7058 27.9356 57.0052 27.78 55.6911 26.1648C55.5461 25.98 55.3046 25.8827 55.1017 25.7367C55.4592 26.1746 55.8553 26.554 56.2129 26.9724C56.725 27.5854 57.3627 28.0329 58.1454 28.0816C59.2179 28.14 60.3002 28.101 61.3727 28.0427C62.8414 27.9648 64.3102 27.7702 65.7789 27.741C66.8611 27.7216 67.8467 28.1108 68.4458 29.1421C69.4217 30.8351 70.9098 31.8567 72.736 32.4308C74.0888 32.8589 75.4416 33.2773 76.775 33.7637C77.5094 34.0265 78.1954 34.4059 78.9105 34.727C78.8911 34.7756 78.8815 34.8243 78.8622 34.8729C78.7945 34.8729 78.7269 34.8729 78.6592 34.8729C77.3258 34.8632 69.8855 34.8048 68.5617 34.9508C66.2041 35.2037 64.0493 34.8729 62.1844 33.287C62.1071 33.2189 62.0105 33.1605 61.9235 33.1021C61.0152 32.5183 60.1166 31.9054 59.1793 31.3605C58.242 30.8254 57.2178 30.6502 56.1839 31.0297C55.4978 31.2827 54.8504 31.6135 54.203 31.954C53.3237 32.4113 52.4831 32.9465 51.5941 33.3843C49.9515 34.1724 48.4344 33.9681 47.1106 32.6448C46.927 32.4697 46.7338 32.3043 46.5405 32.1486C46.8594 32.5378 47.1783 32.9367 47.5261 33.3064C47.9996 33.8027 48.6083 34.1043 49.2847 34.2113C50.6761 34.4351 51.9323 34.0459 53.1111 33.3259C53.343 33.18 53.5846 33.0535 53.9035 32.8783C53.6136 33.4719 53.3334 33.9292 53.1498 34.4254C52.9469 34.9702 52.628 35.3983 52.1449 35.6902C51.768 35.9237 51.3429 36.0697 50.966 36.2837C50.4636 36.5659 49.9804 36.887 49.478 37.1983C50.1834 36.9648 50.8308 36.6535 51.5071 36.4492C52.773 36.06 53.7199 35.3789 54.0581 34.0167C54.0774 33.9389 54.1161 33.8708 54.145 33.8027C54.8987 32.1194 56.9569 31.4383 58.5319 32.3627C58.8701 32.567 59.189 32.8005 59.5175 33.0243C60.8509 33.9389 61.9042 35.2329 63.3922 35.9724C62.3776 35.5151 61.3051 35.5248 60.2519 35.6319C59.5948 35.6902 58.9377 35.8751 58.3193 36.1183C57.6043 36.4005 56.9762 37.1594 56.7926 37.8016C57.9521 36.3032 59.4305 36.1475 61.0539 36.5075C63.0444 36.9356 65.0542 37.1108 67.0834 37.0718C68.2525 37.0524 75.5189 36.9259 76.6784 37.0135C79.0554 37.1983 81.0266 38.1519 82.2054 40.3702C82.8722 41.6156 83.0944 49.6524 83.133 51.6859C83.3263 51.4816 83.5196 51.2675 83.7515 51.0243C85.7999 48.9616 86.6019 48.5724 87.375 48.5724C88.148 48.5724 88.95 48.9616 90.9985 51.0243C91.1531 51.18 91.2787 51.3064 91.4043 51.4524V51.0729C91.4719 47.2881 90.7472 37.0037 97.7816 37.0037C98.9218 37.0037 107.328 36.741 108.469 36.7605C110.546 36.7897 112.604 36.6243 114.633 36.1864C116.083 35.8751 117.455 35.9529 118.576 37.1108C118.605 37.14 118.653 37.14 118.692 37.1594C118.721 37.1302 118.75 37.0913 118.788 37.0621C118.421 36.7021 118.102 36.2546 117.667 36.0016C116.025 35.0383 114.295 35.0383 112.517 35.6708C113.802 35.0967 114.653 34.0265 115.677 33.1605C116.179 32.7421 116.701 32.3335 117.262 32.0027C118.344 31.3702 119.416 31.487 120.441 32.1973C121.059 32.6254 121.523 33.1702 121.755 33.9097C121.987 34.6492 122.344 35.3205 123.079 35.6416C124.064 36.0794 125.079 36.4589 126.084 36.8578C126.103 36.8189 126.122 36.7897 126.142 36.7508C125.591 36.4492 125.04 36.1281 124.48 35.8556C123.745 35.4956 122.992 35.1648 122.692 34.3281C122.489 33.7832 122.354 33.2189 122.19 32.6643C124.673 34.7367 127.639 34.3475 129.417 31.701Z" fill="#DADEE3"/>
<path d="M87.3648 50.1001C86.9879 50.1001 86.128 50.7714 84.7945 52.1044C83.4804 53.4666 82.833 54.3228 82.833 54.6925C82.833 55.0525 83.4901 55.9185 84.7945 57.2806C86.1473 58.5941 86.9976 59.2558 87.3648 59.2558C87.7223 59.2558 88.5823 58.5941 89.9351 57.2806C91.2685 55.9379 91.9256 55.0817 91.9256 54.6925C91.9256 54.3131 91.2589 53.4471 89.9351 52.1044C88.6016 50.7714 87.7416 50.1001 87.3648 50.1001Z" fill="#DADEE3"/>
<path d="M5.13521 92.1325C4.99993 92.3757 4.83567 92.5703 4.64241 92.7357C4.44916 92.9011 4.22692 93.0179 3.97569 93.0957C3.72446 93.1735 3.46357 93.2125 3.18335 93.2125C2.84516 93.2125 2.54561 93.1541 2.27506 93.0373C2.00451 92.9206 1.76294 92.7552 1.55036 92.5411C1.39576 92.3854 1.27981 92.22 1.19284 92.0449C1.10588 91.8697 1.0479 91.6849 1.01891 91.4806C0.989925 91.2762 0.960938 91.0622 0.960938 90.8384C0.960938 90.6243 0.960938 90.3811 0.960938 90.1184C0.960938 89.8557 0.960938 89.6125 0.9706 89.3789C0.980263 89.1552 0.999588 88.9411 1.02858 88.7368C1.06723 88.5324 1.1252 88.3476 1.2025 88.1725C1.28947 87.9973 1.40542 87.8319 1.56002 87.6762C1.7726 87.4622 2.01417 87.2968 2.28472 87.18C2.55528 87.0633 2.85482 87.0049 3.19301 87.0049C3.47323 87.0049 3.74379 87.0438 3.98535 87.1216C4.22692 87.1995 4.44916 87.326 4.65208 87.4816C4.84533 87.647 5.00959 87.8416 5.14487 88.0849C5.28015 88.3281 5.36711 88.6006 5.42509 88.9216H4.21726C4.15928 88.6784 4.04333 88.4741 3.88873 88.3087C3.73412 88.1433 3.50222 88.0557 3.20268 88.0557C3.03841 88.0557 2.89347 88.0849 2.76786 88.1433C2.64224 88.2016 2.53595 88.2795 2.44899 88.3768C2.39101 88.4352 2.3427 88.513 2.30405 88.5908C2.25573 88.6881 2.22675 88.7854 2.19776 88.9119C2.16877 89.0384 2.15911 89.1941 2.14945 89.3887C2.13978 89.5833 2.13978 89.8265 2.13978 90.1184C2.13978 90.4103 2.13978 90.6535 2.14945 90.8481C2.15911 91.0427 2.16877 91.1984 2.19776 91.3249C2.22675 91.4514 2.25573 91.5487 2.29439 91.6265C2.33304 91.7043 2.38135 91.7724 2.43933 91.8406C2.52629 91.9379 2.63258 92.0157 2.75819 92.0741C2.88381 92.1324 3.02875 92.1616 3.19301 92.1616C3.49256 92.1616 3.72446 92.0838 3.87906 91.9184C4.03367 91.753 4.14962 91.5487 4.20759 91.3054H5.40576C5.36711 91.607 5.27049 91.8892 5.13521 92.1325Z" fill="#DADEE3"/>
<path d="M16.0832 93.1636L15.7257 92.0836H13.5709L13.2037 93.1636H11.9766L14.1797 87.0728H15.1073L17.32 93.1636H16.0832ZM14.6724 88.8728L13.9091 91.0911H15.4165L14.6724 88.8728Z" fill="#DADEE3"/>
<path d="M28.5674 89.6997C28.4805 89.9333 28.3452 90.1376 28.1712 90.303C27.9973 90.4684 27.7847 90.6143 27.5432 90.7116C27.3016 90.8089 27.0214 90.8576 26.7025 90.8576H25.5333V93.1538H24.3545V87.063H26.7025C27.0117 87.063 27.2919 87.1116 27.5432 87.2089C27.7847 87.3062 27.9973 87.4424 28.1712 87.6176C28.3452 87.7927 28.4805 87.997 28.5674 88.2208C28.6544 88.4446 28.7027 88.6976 28.7027 88.9505C28.7027 89.223 28.6544 89.476 28.5674 89.6997ZM27.2919 88.3668C27.1373 88.2111 26.9248 88.1333 26.6542 88.1333H25.5527V89.8068H26.6542C26.9248 89.8068 27.1373 89.7289 27.2919 89.583C27.4465 89.4273 27.5238 89.2327 27.5238 88.9797C27.5238 88.7268 27.4465 88.5127 27.2919 88.3668Z" fill="#DADEE3"/>
<path d="M35.9883 93.1636V87.0728H37.1671V93.1636H35.9883Z" fill="#DADEE3"/>
<path d="M47.1874 88.1333V93.1636H46.0085V88.1333H44.4238V87.0728H48.772V88.1333H47.1874Z" fill="#DADEE3"/>
<path d="M58.9566 93.1636L58.5991 92.0836H56.4443L56.0772 93.1636H54.8403L57.0434 87.0728H57.971L60.1838 93.1636H58.9566ZM57.5459 88.8728L56.7825 91.0911H58.2899L57.5459 88.8728Z" fill="#DADEE3"/>
<path d="M67.2275 93.1636V87.0728H68.4064V92.103H71.1506V93.1636H67.2275Z" fill="#DADEE3"/>
<path d="M90.8819 89.6997C90.7949 89.9333 90.6596 90.1376 90.4857 90.303C90.3118 90.4684 90.0992 90.6143 89.8576 90.7116C89.6161 90.8089 89.3358 90.8576 89.017 90.8576H87.8478V93.1538H86.6689V87.063H89.017C89.3262 87.063 89.6064 87.1116 89.8576 87.2089C90.0992 87.3062 90.3118 87.4424 90.4857 87.6176C90.6596 87.7927 90.7949 87.997 90.8819 88.2208C90.9688 88.4446 91.0171 88.6976 91.0171 88.9505C91.0171 89.223 90.9688 89.476 90.8819 89.6997ZM89.5967 88.3668C89.4421 88.2111 89.2296 88.1333 88.959 88.1333H87.8575V89.8068H88.959C89.2296 89.8068 89.4421 89.7289 89.5967 89.583C89.7513 89.4273 89.8286 89.2327 89.8286 88.9797C89.8286 88.7268 89.761 88.5127 89.5967 88.3668Z" fill="#DADEE3"/>
<path d="M101.317 93.1636L100.96 92.0836H98.8052L98.438 93.1636H97.2012L99.4043 87.0728H100.332L102.545 93.1636H101.317ZM99.9067 88.8728L99.1434 91.0911H100.651L99.9067 88.8728Z" fill="#DADEE3"/>
<path d="M112.807 93.1636L111.628 90.7311H110.777V93.1636H109.599V87.0728H111.966C112.275 87.0728 112.546 87.1214 112.787 87.2187C113.029 87.316 113.241 87.4522 113.406 87.6176C113.58 87.783 113.705 87.9874 113.792 88.2111C113.879 88.4349 113.928 88.6782 113.928 88.9311C113.928 89.1452 113.899 89.3398 113.841 89.5149C113.783 89.6901 113.696 89.836 113.599 89.9722C113.502 90.1084 113.377 90.2155 113.251 90.3128C113.116 90.4101 112.981 90.4782 112.826 90.5268L114.179 93.1538H112.807V93.1636ZM112.517 88.3571C112.362 88.2111 112.15 88.1333 111.889 88.1333H110.777V89.7387H111.889C112.15 89.7387 112.362 89.6609 112.517 89.5149C112.671 89.369 112.749 89.1744 112.749 88.9311C112.749 88.6976 112.671 88.503 112.517 88.3571Z" fill="#DADEE3"/>
<path d="M123.764 88.1333V93.1636H122.585V88.1333H121V87.0728H125.348V88.1333H123.764Z" fill="#DADEE3"/>
<path d="M136.171 93.1636L133.775 89.4176V93.1636H132.596V87.0728H133.649L136.045 90.809V87.0728H137.224V93.1636H136.171Z" fill="#DADEE3"/>
<path d="M144.925 93.1636V87.0728H148.916V88.1333H146.114V89.5636H148.5V90.6241H146.114V92.103H148.916V93.1636H144.925Z" fill="#DADEE3"/>
<path d="M159.584 93.1636L158.405 90.7311H157.554V93.1636H156.375V87.0728H158.743C159.052 87.0728 159.323 87.1214 159.564 87.2187C159.806 87.316 160.018 87.4522 160.183 87.6176C160.357 87.783 160.482 87.9874 160.569 88.2111C160.656 88.4349 160.704 88.6782 160.704 88.9311C160.704 89.1452 160.675 89.3398 160.617 89.5149C160.559 89.6901 160.472 89.836 160.376 89.9722C160.27 90.1084 160.154 90.2155 160.028 90.3128C159.893 90.4101 159.757 90.4782 159.603 90.5268L160.956 93.1538H159.584V93.1636ZM159.284 88.3571C159.129 88.2111 158.917 88.1333 158.656 88.1333H157.545V89.7387H158.656C158.917 89.7387 159.129 89.6609 159.284 89.5149C159.439 89.369 159.516 89.1744 159.516 88.9311C159.516 88.6976 159.439 88.503 159.284 88.3571Z" fill="#DADEE3"/>
<path d="M171.951 92.1519C171.836 92.3854 171.681 92.5702 171.478 92.7259C171.275 92.8816 171.043 93.0081 170.763 93.0859C170.492 93.1735 170.193 93.2124 169.884 93.2124C169.42 93.2124 169.014 93.154 168.656 93.0373C168.299 92.9205 167.97 92.7065 167.671 92.4048L168.434 91.6362C168.628 91.8308 168.85 91.967 169.101 92.0351C169.352 92.1129 169.613 92.1421 169.903 92.1421C170.251 92.1421 170.521 92.074 170.705 91.9475C170.889 91.8211 170.976 91.6362 170.976 91.3832C170.976 91.1594 170.918 90.9843 170.792 90.8675C170.734 90.8092 170.657 90.7702 170.579 90.7313C170.502 90.7021 170.396 90.6729 170.251 90.6535L169.516 90.5465C169.004 90.4686 168.608 90.3032 168.347 90.0405C168.057 89.7486 167.912 89.3497 167.912 88.8438C167.912 88.5713 167.961 88.3184 168.057 88.0946C168.154 87.8708 168.289 87.6762 168.473 87.5108C168.656 87.3454 168.879 87.2189 169.14 87.1313C169.401 87.0438 169.7 86.9951 170.029 86.9951C170.444 86.9951 170.811 87.0535 171.13 87.1605C171.439 87.2675 171.729 87.4524 171.99 87.7054L171.246 88.4546C171.053 88.2697 170.85 88.153 170.628 88.1043C170.405 88.0557 170.203 88.0265 170 88.0265C169.681 88.0265 169.449 88.1043 169.294 88.2502C169.14 88.4059 169.062 88.5811 169.062 88.7951C169.062 88.873 169.072 88.9508 169.101 89.0286C169.13 89.1065 169.178 89.1746 169.236 89.2329C169.294 89.2913 169.381 89.34 169.468 89.3789C169.555 89.4178 169.671 89.4567 169.797 89.4665L170.512 89.5735C170.792 89.6124 171.014 89.6708 171.198 89.7486C171.381 89.8265 171.536 89.9238 171.662 90.0405C171.826 90.1962 171.942 90.3811 172.019 90.5951C172.096 90.8092 172.125 91.0621 172.125 91.3346C172.125 91.6654 172.067 91.9281 171.951 92.1519Z" fill="#DADEE3"/>
<path d="M159.69 83.1226V80.8556V75.6989H170.677V70.9897H159.69V65.5216H172.126V61.0459H154.569V83.1226H159.69Z" fill="#DADEE3"/>
<path d="M131.571 83.1226L133.04 80.0091H145.205L146.577 83.1226H151.689L141.939 61.1724H136.615L126.711 83.1226H131.571ZM139.34 65.7259H139.369L143.282 75.0956H135.291L139.34 65.7259Z" fill="#DADEE3"/>
<path d="M107.695 83.123V74.9889H118.846V83.123H124.035V61.0754H118.846V69.803H107.695V61.0073H102.535V83.123H107.695Z" fill="#DADEE3"/>
<path d="M80.3014 83.1228H95.5878C96.9212 82.072 98.0421 80.7683 98.8344 79.2601C100.081 77.6353 100.216 73.1499 100.216 72.4396C96.0709 72.4396 91.3169 72.4104 87.9156 72.4104V76.8861C87.9156 76.9153 88.2151 76.9153 88.8625 76.9153C90.2153 76.9153 92.6696 76.8861 93.7518 76.8861H94.293C93.317 79.192 90.6211 80.5542 87.9253 80.5542C83.8863 80.5542 80.6493 77.3337 80.6493 73.2277C80.6493 69.1607 83.8863 65.9012 87.9253 65.9012C90.6211 65.9012 92.9112 67.2926 94.1577 69.4623C96.5154 68.2753 96.6893 68.1683 98.8054 67.0883C96.6506 63.3229 92.573 60.7056 87.9253 60.7056C81.0841 60.7056 75.4894 66.3391 75.4894 73.2277C75.4701 77.2461 77.3736 80.8266 80.3014 83.1228Z" fill="#DADEE3"/>
</svg>
