<svg width="352" height="44" viewBox="0 0 352 44" fill="none" xmlns="http://www.w3.org/2000/svg">
<path d="M31.496 34.1407C31.496 37.2893 31.496 40.4369 31.496 43.6139C23.3107 43.6139 15.1771 43.6139 7.00498 43.6139C6.98774 43.4901 6.95529 43.3634 6.95529 43.2356C6.95225 40.2858 6.95326 37.336 6.95529 34.3861C6.95529 34.303 6.97557 34.2198 6.98672 34.1377L6.96644 34.1549C9.28757 34.1549 11.6097 34.1549 13.9744 34.1549C13.9744 35.3667 13.9744 36.4892 13.9744 37.6696C14.2158 37.6696 14.4145 37.6696 14.6143 37.6696C17.4343 37.6696 20.2544 37.6696 23.0744 37.6696C24.491 37.6696 24.491 37.6696 24.491 36.2428C24.491 35.5604 24.491 34.8779 24.491 34.1549C26.8902 34.1549 29.2012 34.1549 31.5122 34.1549L31.496 34.1407Z" fill="white"/>
<path d="M165.071 29.5379C166.754 29.5379 168.437 29.5379 170.163 29.5379C170.163 31.1766 170.163 32.8133 170.163 34.5168C169.727 34.5168 169.31 34.5168 168.894 34.5168C167.814 34.5168 166.733 34.4986 165.654 34.526C165.241 34.5361 165.14 34.3962 165.146 34.0058C165.167 32.6926 165.157 31.3784 165.151 30.0652C165.15 29.8857 165.105 29.7073 165.081 29.5288L165.071 29.5379Z" fill="white"/>
<path d="M225.687 29.5393C227.368 29.5393 229.049 29.5393 230.768 29.5393C230.768 31.177 230.768 32.8146 230.768 34.5172C230.438 34.5172 230.123 34.5172 229.808 34.5172C228.678 34.5172 227.547 34.4929 226.419 34.5283C225.925 34.5436 225.743 34.4351 225.762 33.8976C225.805 32.6199 225.779 31.3402 225.772 30.0615C225.771 29.8851 225.721 29.7086 225.693 29.5332C225.692 29.5332 225.687 29.5393 225.687 29.5393Z" fill="white"/>
<path d="M6.98668 34.1377C5.82662 34.1377 4.66657 34.1377 3.42843 34.1377C3.42843 31.7892 3.42843 29.4752 3.42843 27.1602L3.41626 27.1754C4.57327 27.1754 5.7313 27.1754 6.93598 27.1754C6.93598 27.4583 6.93496 27.6743 6.93598 27.8903C6.94612 29.9782 6.95626 32.0661 6.9664 34.155L6.98668 34.1377Z" fill="white"/>
<path d="M291.379 34.4944C282.983 34.4944 274.626 34.4944 266.231 34.4944C266.231 26.1225 266.231 17.772 266.231 9.38184C274.606 9.38184 282.975 9.38184 291.379 9.38184C291.379 17.7385 291.379 26.0911 291.379 34.4944ZM286.339 29.4739C286.339 24.419 286.339 19.4056 286.339 14.3749C281.293 14.3749 276.284 14.3749 271.26 14.3749C271.26 19.4238 271.26 24.4362 271.26 29.4739C276.296 29.4739 281.291 29.4739 286.339 29.4739Z" fill="white"/>
<path d="M321.689 34.4944C313.293 34.4944 304.936 34.4944 296.541 34.4944C296.541 26.1225 296.541 17.772 296.541 9.38184C304.916 9.38184 313.285 9.38184 321.689 9.38184C321.689 17.7375 321.689 26.0911 321.689 34.4944ZM301.558 29.4587C306.633 29.4587 311.64 29.4587 316.664 29.4587C316.664 24.4169 316.664 19.4147 316.664 14.382C311.619 14.382 306.597 14.382 301.558 14.382C301.558 19.4259 301.558 24.4271 301.558 29.4587Z" fill="white"/>
<path d="M84.3576 9.37207C92.7964 9.37207 101.152 9.37207 109.545 9.37207C109.545 17.7521 109.545 26.1026 109.545 34.4857C107.904 34.4857 106.289 34.4857 104.601 34.4857C104.601 31.1535 104.601 27.8285 104.601 24.4629C99.5053 24.4629 94.4838 24.4629 89.4004 24.4629C89.4004 27.792 89.4004 31.1201 89.4004 34.5181C89.1601 34.5181 88.9806 34.5181 88.8001 34.5181C87.5326 34.5181 86.265 34.4958 84.9995 34.5293C84.5026 34.5425 84.3373 34.4309 84.3424 33.8965C84.3708 30.8118 84.3566 27.7261 84.3566 24.6404C84.3566 19.768 84.3566 14.8955 84.3566 10.0231C84.3576 9.82332 84.3576 9.62457 84.3576 9.37207ZM104.549 19.3694C104.56 19.1595 104.575 18.9943 104.575 18.829C104.577 17.532 104.553 16.233 104.588 14.9371C104.601 14.4301 104.422 14.3266 103.951 14.3287C99.3075 14.3449 94.6653 14.3378 90.022 14.3398C89.8253 14.3398 89.6286 14.3601 89.4217 14.3713C89.4217 16.0647 89.4217 17.7054 89.4217 19.3694C94.4675 19.3694 99.4769 19.3694 104.549 19.3694Z" fill="white"/>
<path d="M200.479 9.375C200.479 11.04 200.479 12.6392 200.479 14.3144C193.772 14.3144 187.078 14.3144 180.346 14.3144C180.346 16.0311 180.346 17.6739 180.346 19.3693C183.674 19.3693 187.01 19.3693 190.385 19.3693C190.385 21.0648 190.385 22.7075 190.385 24.406C187.045 24.406 183.71 24.406 180.342 24.406C180.342 26.1187 180.342 27.7767 180.342 29.4823C187.045 29.4823 193.728 29.4823 200.452 29.4823C200.452 31.1697 200.452 32.8104 200.452 34.4835C192.073 34.4835 183.703 34.4835 175.301 34.4835C175.301 26.1127 175.301 17.7601 175.301 9.375C183.691 9.375 192.061 9.375 200.479 9.375Z" fill="white"/>
<path d="M225.692 29.533C224.919 29.5147 224.145 29.4894 223.373 29.4813C222.513 29.4721 221.652 29.4792 220.725 29.4792C220.725 27.798 220.725 26.141 220.725 24.4527C217.339 24.4527 214.019 24.4527 210.647 24.4527C210.647 27.7746 210.647 31.1017 210.647 34.4733C208.95 34.4733 207.306 34.4733 205.621 34.4733C205.621 26.1319 205.621 17.7844 205.621 9.38916C213.988 9.38916 222.366 9.38916 230.773 9.38916C230.773 14.3873 230.773 19.3683 230.773 24.408C229.123 24.408 227.478 24.408 225.786 24.408C225.775 24.6433 225.759 24.8238 225.759 25.0043C225.757 26.3357 225.761 27.6671 225.755 28.9986C225.754 29.1791 225.71 29.3586 225.686 29.5391L225.692 29.533ZM210.639 19.3632C215.704 19.3632 220.713 19.3632 225.745 19.3632C225.745 17.6911 225.745 16.0483 225.745 14.3853C220.693 14.3853 215.672 14.3853 210.639 14.3853C210.639 16.0615 210.639 17.6931 210.639 19.3632Z" fill="white"/>
<path d="M74.2719 9.37752C75.9978 9.37752 77.6273 9.37752 79.3167 9.37752C79.3167 9.59351 79.3167 9.77502 79.3167 9.95552C79.3167 17.9471 79.3127 25.9377 79.3259 33.9293C79.3269 34.3836 79.2204 34.5408 78.7408 34.5276C77.4408 34.4942 76.1398 34.5165 74.8387 34.5154C74.6735 34.5154 74.5082 34.5013 74.3023 34.4911C74.3023 31.1418 74.3023 27.8269 74.3023 24.4664C69.2362 24.4664 64.2137 24.4664 59.1212 24.4664C59.1212 27.7792 59.1212 31.1063 59.1212 34.4759C58.9103 34.4931 58.7653 34.5144 58.6203 34.5144C57.2686 34.5175 55.9168 34.5053 54.5662 34.5236C54.1879 34.5286 54.0368 34.4485 54.0378 34.0247C54.051 25.9661 54.047 17.9076 54.048 9.84904C54.048 9.70099 54.0662 9.55294 54.0774 9.37549C55.7404 9.37549 57.372 9.37549 59.0735 9.37549C59.0735 12.6904 59.0735 15.9992 59.0735 19.3506C64.166 19.3506 69.1875 19.3506 74.2719 19.3506C74.2719 16.0428 74.2719 12.733 74.2719 9.37752Z" fill="white"/>
<path d="M235.921 9.36377C244.317 9.36377 252.675 9.36377 261.075 9.36377C261.075 17.7346 261.075 26.0872 261.075 34.4784C259.433 34.4784 257.786 34.4784 256.084 34.4784C256.084 27.7908 256.084 21.1063 256.084 14.3812C251.022 14.3812 246.016 14.3812 240.955 14.3812C240.955 21.0728 240.955 27.7563 240.955 34.4784C239.255 34.4784 237.609 34.4784 235.921 34.4784C235.921 26.1248 235.921 17.7742 235.921 9.36377Z" fill="white"/>
<path d="M119.737 29.4965C126.462 29.4965 133.131 29.4965 139.847 29.4965C139.847 31.1677 139.847 32.8064 139.847 34.516C139.66 34.516 139.481 34.516 139.3 34.516C131.294 34.516 123.288 34.512 115.283 34.5262C114.804 34.5272 114.657 34.4116 114.658 33.9167C114.673 25.9271 114.669 17.9376 114.669 9.94797C114.669 9.76747 114.669 9.58697 114.669 9.37402C123.087 9.37402 131.441 9.37402 139.845 9.37402C139.845 10.9985 139.845 12.622 139.845 14.3215C133.161 14.3215 126.468 14.3215 119.737 14.3215C119.737 19.4079 119.737 24.4183 119.737 29.4965Z" fill="white"/>
<path d="M331.796 34.4875C330.09 34.4875 328.476 34.4875 326.826 34.4875C326.826 26.1095 326.826 17.76 326.826 9.37695C335.225 9.37695 343.594 9.37695 352 9.37695C352 17.7367 352 26.0893 352 34.4794C350.359 34.4794 348.714 34.4794 347.007 34.4794C347.007 27.7939 347.007 21.1124 347.007 14.3772C346.755 14.3619 346.558 14.3407 346.362 14.3407C341.717 14.3386 337.073 14.3478 332.427 14.3275C331.902 14.3254 331.784 14.4816 331.785 14.9836C331.802 21.2543 331.796 27.5241 331.796 33.7949C331.796 34.0099 331.796 34.2269 331.796 34.4875Z" fill="white"/>
<path d="M6.98362 9.67187C6.97348 8.56048 6.95725 7.4491 6.95421 6.33772C6.94914 4.43336 6.9532 2.529 6.9532 0.624646C6.9532 0.425895 6.9532 0.227144 6.9532 0C15.1415 0 23.2751 0 31.4989 0C31.4989 3.21652 31.4989 6.44318 31.4989 9.66984L31.5141 9.65767C29.19 9.65767 26.8668 9.65767 24.4909 9.65767C24.4909 8.63552 24.4656 7.67827 24.5021 6.72204C24.5203 6.24037 24.348 6.11767 23.8947 6.13593C23.1189 6.16736 22.3402 6.17345 21.5654 6.1339C21.0736 6.10855 20.9469 6.27079 20.9479 6.75449C20.9641 12.1634 20.958 17.5732 20.958 22.9821C20.958 23.192 20.958 23.4029 20.958 23.6463C19.943 23.6463 19.0141 23.6189 18.0883 23.6574C17.5864 23.6787 17.4353 23.5489 17.4373 23.0206C17.4596 17.628 17.4505 12.2364 17.4505 6.84372C17.4505 6.63078 17.4505 6.41783 17.4505 6.17547C16.256 6.17547 15.1344 6.17547 13.9521 6.17547C13.9521 7.34162 13.9521 8.47733 13.9521 9.65767C11.5843 9.65767 9.27534 9.65767 6.96536 9.65767L6.98362 9.67187Z" fill="white"/>
<path d="M160.194 24.3919C159.233 24.402 158.271 24.4182 157.309 24.4203C155.079 24.4243 152.85 24.4213 150.62 24.4213C150.438 24.4213 150.256 24.4213 150.014 24.4213C150.014 27.8001 150.014 31.1281 150.014 34.4856C148.308 34.4856 146.662 34.4856 144.987 34.4856C144.987 26.1097 144.987 17.7581 144.987 9.37402C146.657 9.37402 148.302 9.37402 150.007 9.37402C150.007 12.7132 150.007 16.0241 150.007 19.3927C150.266 19.3927 150.463 19.3927 150.66 19.3927C153.651 19.3927 156.64 19.3927 159.63 19.3937C159.816 19.3937 160.001 19.4069 160.186 19.414L160.172 19.3978C160.153 20.3337 160.118 21.2687 160.117 22.2046C160.117 22.9367 160.16 23.6699 160.182 24.4041C160.181 24.4061 160.194 24.3919 160.194 24.3919Z" fill="white"/>
<path d="M160.186 19.4139C160.167 18.6746 160.139 17.9364 160.132 17.1972C160.123 16.2734 160.13 15.3486 160.13 14.369C161.816 14.369 163.446 14.369 165.136 14.369C165.136 12.6878 165.136 11.0623 165.136 9.39014C166.836 9.39014 168.478 9.39014 170.163 9.39014C170.163 11.0146 170.163 12.6371 170.163 14.3092C169.973 14.3194 169.793 14.3366 169.614 14.3366C168.347 14.3386 167.08 14.3376 165.813 14.3376C165.139 14.3376 165.138 14.3386 165.138 15.0353C165.138 16.2825 165.139 17.5308 165.137 18.7781C165.137 18.9586 165.12 19.1391 165.109 19.3956C163.438 19.3956 161.804 19.3956 160.172 19.3966C160.172 19.3976 160.186 19.4139 160.186 19.4139Z" fill="white"/>
<path d="M34.9397 16.6549C36.1008 16.6549 37.2608 16.6549 38.4716 16.6549C38.4716 17.8372 38.4716 18.974 38.4716 20.1685C39.658 20.1685 40.7968 20.1685 41.973 20.1685C41.973 21.3427 41.973 22.4592 41.973 23.6446C40.816 23.6446 39.6773 23.6446 38.5 23.6446C38.5 24.8331 38.5 25.9546 38.5 27.1592C37.2862 27.1592 36.1129 27.1592 34.9407 27.1592L34.9579 27.1755C34.9681 26.9575 34.9874 26.7405 34.9874 26.5224C34.9894 23.8667 34.9904 21.2099 34.9874 18.5541C34.9863 17.9163 34.9681 17.2785 34.9579 16.6396L34.9397 16.6549Z" fill="white"/>
<path d="M3.42845 27.1599C2.29983 27.1599 1.1702 27.1599 0 27.1599C0 23.6533 0 20.1914 0 16.6524C1.14383 16.6524 2.28665 16.6524 3.42845 16.6524L3.41628 16.6372C3.41628 20.1498 3.41628 23.6624 3.41628 27.1751L3.42845 27.1599Z" fill="white"/>
<path d="M165.08 29.5287C163.749 29.5125 162.419 29.4953 161.089 29.48C160.789 29.477 160.49 29.479 160.13 29.479C160.13 28.5187 160.122 27.6142 160.132 26.7087C160.141 25.937 160.172 25.1653 160.193 24.3926C160.194 24.3916 160.181 24.4058 160.183 24.4048C161.595 24.416 163.005 24.4281 164.416 24.4403C164.631 24.4423 164.846 24.4403 165.106 24.4403C165.118 24.6634 165.136 24.8418 165.136 25.0203C165.138 26.3629 165.14 27.7055 165.135 29.0481C165.134 29.2113 165.094 29.3746 165.072 29.5389C165.071 29.5378 165.08 29.5287 165.08 29.5287Z" fill="white"/>
<path d="M3.42843 16.6525C3.42843 14.3527 3.42843 12.0529 3.42843 9.6709C4.64121 9.6709 5.81243 9.6709 6.98364 9.6709L6.96741 9.65771C6.96741 11.9748 6.96741 14.2919 6.96741 16.6373C5.71001 16.6373 4.56313 16.6373 3.41626 16.6373L3.42843 16.6525Z" fill="white"/>
<path d="M31.498 9.66891C32.6267 9.66891 33.7543 9.66891 34.8717 9.66891C34.9143 9.75206 34.9549 9.79465 34.9549 9.83724C34.9519 12.1097 34.9458 14.3821 34.9407 16.6546L34.9579 16.6384C33.8192 16.6384 32.6814 16.6384 31.5143 16.6384C31.5143 14.2605 31.5143 11.9586 31.5143 9.65674L31.498 9.66891Z" fill="white"/>
<path d="M34.9395 27.1577C34.9395 29.4626 34.9395 31.7675 34.9395 34.1404C33.7795 34.1404 32.6377 34.1404 31.4958 34.1404L31.5121 34.1546C31.5121 31.8405 31.5121 29.5265 31.5121 27.1739C32.7056 27.1739 33.8312 27.1739 34.9568 27.1739L34.9395 27.1577Z" fill="white"/>
</svg>
