<svg width="164" height="164" viewBox="0 0 164 164" fill="none" xmlns="http://www.w3.org/2000/svg">
<g filter="url(#filter0_d_723_26418)">
<path d="M77 149C116.765 149 149 116.765 149 77C149 37.2355 116.765 5 77 5C37.2355 5 5 37.2355 5 77C5 116.765 37.2355 149 77 149Z" fill="black"/>
</g>
<path d="M76.9497 139.354C111.431 139.354 139.384 111.407 139.384 76.9322C139.384 42.4575 111.431 14.5103 76.9497 14.5103C42.4682 14.5103 14.5154 42.4575 14.5154 76.9322C14.5154 111.407 42.4682 139.354 76.9497 139.354Z" fill="url(#paint0_linear_723_26418)"/>
<path d="M47.6562 35.209H57.7162V66.0237H96.1839V35.209H106.244V75.4522H96.1839H57.7162H47.6562V35.209Z" fill="white"/>
<path d="M47.6562 77.8181H57.7162H96.1839H106.244V118.061H96.1839V87.2466H57.7162V118.061H47.6562V77.8181Z" fill="white"/>
<defs>
<filter id="filter0_d_723_26418" x="0" y="0" width="164" height="164" filterUnits="userSpaceOnUse" color-interpolation-filters="sRGB">
<feFlood flood-opacity="0" result="BackgroundImageFix"/>
<feColorMatrix in="SourceAlpha" type="matrix" values="0 0 0 0 0 0 0 0 0 0 0 0 0 0 0 0 0 0 127 0" result="hardAlpha"/>
<feOffset dx="5" dy="5"/>
<feGaussianBlur stdDeviation="5"/>
<feComposite in2="hardAlpha" operator="out"/>
<feColorMatrix type="matrix" values="0 0 0 0 0 0 0 0 0 0 0 0 0 0 0 0 0 0 0.25 0"/>
<feBlend mode="normal" in2="BackgroundImageFix" result="effect1_dropShadow_723_26418"/>
<feBlend mode="normal" in="SourceGraphic" in2="effect1_dropShadow_723_26418" result="shape"/>
</filter>
<linearGradient id="paint0_linear_723_26418" x1="14.5186" y1="76.9338" x2="139.391" y2="76.9338" gradientUnits="userSpaceOnUse">
<stop stop-color="#7956EC"/>
<stop offset="0.1747" stop-color="#634CDE"/>
<stop offset="0.5355" stop-color="#3C39C4"/>
<stop offset="0.8233" stop-color="#242DB4"/>
<stop offset="1" stop-color="#1B29AE"/>
</linearGradient>
</defs>
</svg>
