<svg width="274" height="58" viewBox="0 0 274 58" fill="none" xmlns="http://www.w3.org/2000/svg">
<g opacity="0.1" clip-path="url(#clip0_723_26106)">
<path fill-rule="evenodd" clip-rule="evenodd" d="M15.5515 24.5225L33.8064 43.1206L51.8802 24.7263L66.6925 39.8132L49.4794 57.3467L45.0402 52.952L57.9501 39.8132L51.8802 33.629L33.8064 52.0232L15.5515 33.4251L9.54957 39.5414L22.6406 52.884L18.2241 57.256L0.807129 39.5414L15.5515 24.5225Z" fill="white"/>
<path fill-rule="evenodd" clip-rule="evenodd" d="M51.9481 33.4251L33.6932 14.827L15.6194 33.2212L0.807129 18.157L18.0202 0.623535L22.4594 5.01822L9.54957 18.157L15.6194 24.3412L33.6932 5.94699L51.9481 24.5451L57.9501 18.4288L44.8591 5.08618L49.2756 0.691494L66.6925 18.4061L51.9481 33.4251Z" fill="white"/>
<path fill-rule="evenodd" clip-rule="evenodd" d="M30.9526 56.8937V45.1821H36.9093V56.8937H30.9526Z" fill="white"/>
<path fill-rule="evenodd" clip-rule="evenodd" d="M30.9526 12.7653V1.05371H36.9093V12.7653H30.9526Z" fill="white"/>
<path d="M95.2753 14.4644H89.3413V44.389H95.2753V14.4644Z" fill="white"/>
<path d="M125.421 22.3477C122.726 22.3477 120.144 23.503 118.853 26.0401C117.516 23.503 115.025 22.3477 112.126 22.3477C109.499 22.3477 107.506 23.3444 106.464 25.134L105.83 22.7554H100.462V44.3664H106.283V32.2697C106.283 29.0756 107.936 27.5352 110.405 27.5352C112.738 27.5352 114.3 28.985 114.3 32.5189V44.3664H119.917V32.4056C120.008 29.0303 121.752 27.5352 124.039 27.5352C126.417 27.5352 127.935 28.985 127.935 32.2244V44.4117H133.801V31.0691C133.778 25.0887 129.747 22.3477 125.421 22.3477Z" fill="white"/>
<path d="M163.38 22.3477C160.685 22.3477 158.103 23.503 156.812 26.0401C155.476 23.503 152.984 22.3477 150.085 22.3477C147.458 22.3477 145.465 23.3444 144.423 25.134L143.789 22.7554H138.376V44.3664H144.197V32.2697C144.197 29.0756 145.85 27.5352 148.319 27.5352C150.652 27.5352 152.214 28.985 152.214 32.5189V44.3664H157.831V32.4056C157.922 29.0303 159.666 27.5352 161.953 27.5352C164.332 27.5352 165.849 28.985 165.849 32.2244V44.4117H171.715V31.0691C171.738 25.0887 167.706 22.3477 163.38 22.3477Z" fill="white"/>
<path d="M190.514 22.7783V34.6032C190.514 37.7973 189.019 39.7228 186.142 39.7681C183.402 39.8587 181.658 38.2277 181.658 34.8524V22.7783H176.132V35.6226C176.132 41.1499 179.325 44.797 184.851 44.797C187.433 44.797 189.291 43.6417 190.423 42.0107L190.717 44.3893H196.04V22.7783H190.514Z" fill="white"/>
<path d="M213.117 22.3477C209.878 22.3477 207.704 23.5483 206.594 25.3379L206.254 22.7554H200.841V44.3664H206.662V32.9266C206.662 29.438 208.315 27.3087 211.396 27.3087C214.227 27.3087 215.925 29.1436 215.925 32.7227V44.3664H221.791V31.5221C221.791 26.0174 218.643 22.3477 213.117 22.3477Z" fill="white"/>
<path d="M247.249 33.2437C247.249 26.6291 242.968 22.3477 236.536 22.3477C230.104 22.3477 225.778 26.8329 225.778 33.5609C225.778 40.3341 230.104 44.8194 236.581 44.8194C242.017 44.8194 246.139 41.7839 247.09 37.2986H241.224C240.568 39.1788 238.846 40.1303 236.74 40.1303C233.954 40.1303 231.712 38.3407 231.621 35.1466H247.249V33.2437ZM236.513 26.8783C239.05 26.8783 241.179 28.328 241.428 31.3182H231.667C231.916 28.328 234.022 26.8783 236.513 26.8783Z" fill="white"/>
<path d="M249.514 22.7781V27.8524H252.843V44.3891H258.709V27.8524H263.647V22.7781H258.709V20.5581C258.709 19.0177 259.117 17.8624 261.495 17.8624H263.647V13.1279H260.204C254.768 13.1279 252.843 15.7783 252.843 19.9918V22.7781H249.514Z" fill="white"/>
<path d="M267.497 19.4481H273.386L273.476 13.1279H267.565L267.497 19.4481ZM267.565 44.3891H273.386V22.7781H267.565V44.3891Z" fill="white"/>
</g>
<defs>
<clipPath id="clip0_723_26106">
<rect width="272.669" height="56.7231" fill="white" transform="translate(0.807129 0.623535)"/>
</clipPath>
</defs>
</svg>
