<svg width="274" height="57" viewBox="0 0 274 57" fill="none" xmlns="http://www.w3.org/2000/svg">
<path fill-rule="evenodd" clip-rule="evenodd" d="M14.8163 24.0156L33.1604 42.7045L51.3224 24.2204L66.207 39.381L48.9099 57L44.449 52.5839L57.4219 39.381L51.3224 33.1665L33.1604 51.6505L14.8163 32.9616L8.78512 39.1078L21.94 52.5156L17.502 56.9089L0 39.1078L14.8163 24.0156Z" fill="white"/>
<path fill-rule="evenodd" clip-rule="evenodd" d="M51.3906 32.9617L33.0466 14.2728L14.8846 32.7568L0 17.619L17.2971 0L21.758 4.41613L8.78512 17.619L14.8846 23.8335L33.0466 5.34944L51.3906 24.0383L57.4219 17.8922L44.267 4.48442L48.705 0.0682907L66.207 17.8694L51.3906 32.9617Z" fill="white"/>
<path fill-rule="evenodd" clip-rule="evenodd" d="M30.2925 56.5447V44.7759H36.2782V56.5447H30.2925V56.5447Z" fill="white"/>
<path fill-rule="evenodd" clip-rule="evenodd" d="M30.2925 12.2013V0.432495H36.2782V12.2013H30.2925Z" fill="white"/>
<path d="M94.9293 13.9086H88.9663V43.9793H94.9293V13.9086Z" fill="white"/>
<path d="M125.222 21.8303C122.514 21.8303 119.919 22.9912 118.622 25.5407C117.279 22.9912 114.775 21.8303 111.862 21.8303C109.222 21.8303 107.219 22.8319 106.172 24.6302L105.535 22.24H100.141V43.9565H105.99V31.8007C105.99 28.591 107.652 27.0431 110.132 27.0431C112.477 27.0431 114.047 28.5 114.047 32.0511V43.9565H119.691V31.9373C119.782 28.5455 121.535 27.0431 123.834 27.0431C126.223 27.0431 127.748 28.5 127.748 31.7552V44.002H133.643V30.5942C133.62 24.5847 129.569 21.8303 125.222 21.8303Z" fill="white"/>
<path d="M163.367 21.8303C160.658 21.8303 158.064 22.9912 156.766 25.5407C155.424 22.9912 152.92 21.8303 150.007 21.8303C147.367 21.8303 145.364 22.8319 144.317 24.6302L143.68 22.24H138.24V43.9565H144.089V31.8007C144.089 28.591 145.751 27.0431 148.232 27.0431C150.576 27.0431 152.146 28.5 152.146 32.0511V43.9565H157.791V31.9373C157.882 28.5455 159.634 27.0431 161.933 27.0431C164.322 27.0431 165.847 28.5 165.847 31.7552V44.002H171.742V30.5942C171.765 24.5847 167.714 21.8303 163.367 21.8303Z" fill="white"/>
<path d="M190.632 22.2628V34.1453C190.632 37.355 189.13 39.2899 186.24 39.3354C183.486 39.4265 181.733 37.7875 181.733 34.3957V22.2628H176.18V35.1697C176.18 40.724 179.389 44.389 184.943 44.389C187.537 44.389 189.403 43.228 190.541 41.589L190.837 43.9792H196.186V22.2628H190.632Z" fill="white"/>
<path d="M213.346 21.8303C210.092 21.8303 207.907 23.0367 206.792 24.8351L206.45 22.24H201.011V43.9565H206.86V32.4609C206.86 28.9553 208.521 26.8155 211.617 26.8155C214.462 26.8155 216.168 28.6593 216.168 32.256V43.9565H222.063V31.0495C222.063 25.518 218.9 21.8303 213.346 21.8303Z" fill="white"/>
<path d="M247.645 32.7795C247.645 26.1326 243.343 21.8303 236.88 21.8303C230.416 21.8303 226.069 26.3374 226.069 33.0982C226.069 39.9045 230.416 44.4117 236.925 44.4117C242.387 44.4117 246.53 41.3614 247.485 36.8542H241.591C240.931 38.7436 239.201 39.6997 237.084 39.6997C234.285 39.6997 232.032 37.9013 231.941 34.6917H247.645V32.7795V32.7795ZM236.857 26.383C239.406 26.383 241.545 27.8398 241.796 30.8446H231.986C232.237 27.8398 234.353 26.383 236.857 26.383Z" fill="white"/>
<path d="M249.92 22.2628V27.3618H253.266V43.9792H259.161V27.3618H264.122V22.2628H259.161V20.0319C259.161 18.484 259.57 17.3231 261.96 17.3231H264.122V12.5655H260.663C255.201 12.5655 253.266 15.2288 253.266 19.4629V22.2628H249.92Z" fill="white"/>
<path d="M267.992 18.9165H273.909L274 12.5655H268.06L267.992 18.9165ZM268.06 43.9792H273.909V22.2628H268.06V43.9792Z" fill="white"/>
</svg>
