<svg width="131" height="37" viewBox="0 0 131 37" fill="none" xmlns="http://www.w3.org/2000/svg">
<g clip-path="url(#clip0_723_25792)">
<path d="M117.913 0.115126C117.015 0.239095 116.128 0.444832 115.264 0.724423C110.843 2.33339 108.006 5.31657 107.195 10.0221C106.904 11.6707 106.93 13.3588 107.269 14.9967C107.328 15.2816 107.42 15.4109 107.762 15.4056C109.617 15.3818 111.452 15.3871 113.299 15.4056C113.643 15.4056 113.648 15.3159 113.564 15.0258C113.095 13.1794 113.034 11.3172 113.733 9.48669C114.663 7.02841 116.973 5.62781 119.614 5.85729C121.116 5.98917 122.396 6.49824 123.323 7.72474C123.938 8.58198 124.327 9.57901 124.454 10.6262C124.661 11.7498 124.618 12.9051 124.335 14.0103C123.914 15.461 122.963 16.5108 121.741 17.3495C120.621 18.1197 119.373 18.6393 118.128 19.1695C115.982 20.0848 113.911 21.1346 112.056 22.5694C109.052 24.909 107.235 27.9661 106.469 31.6614C106.167 33.1464 106.014 34.6551 106.014 36.1692C106.014 36.367 105.966 36.4329 105.749 36.4329C103.894 36.4329 102.04 36.4197 100.186 36.4329C99.8705 36.4329 99.9208 36.2641 99.9208 36.0821V8.88531C99.9208 7.99906 99.9208 7.11545 99.9208 6.23183C99.9208 6.10787 100.024 5.92587 99.8149 5.8652C99.6056 5.80454 99.5499 5.96807 99.4599 6.09731L96.3392 10.8767L88.6569 22.6591C88.588 22.7673 88.5244 22.878 88.4343 23.0284H88.8344C91.1364 23.0284 93.4385 23.0284 95.7405 23.0284C96.0214 23.0284 96.0902 23.1049 96.0876 23.3766C96.0743 25.0805 96.0743 26.7844 96.0876 28.4857C96.0876 28.7257 96.0372 28.7996 95.7803 28.7996C91.1762 28.789 86.572 28.789 81.9705 28.7996C81.7295 28.7996 81.65 28.7547 81.6527 28.4962C81.6659 25.8058 81.6712 23.1154 81.6712 20.425C81.6685 20.2589 81.7189 20.098 81.8143 19.9634C86.1932 13.4273 90.5695 6.88861 94.9485 0.349877C95.0438 0.18898 95.224 0.0966624 95.4094 0.115126C102.814 0.115126 110.218 0.115126 117.625 0.115126H117.913Z" fill="white"/>
<path d="M37.479 27.7419C37.479 25.0436 37.479 22.3479 37.479 19.6496C37.479 18.9638 37.3757 18.2833 37.1664 17.6292C36.8326 16.3895 35.7226 15.5111 34.4352 15.4689C32.7503 15.3054 31.0523 15.4768 29.4363 15.9754C29.2641 16.0017 29.1449 16.1653 29.1714 16.3367C29.1714 21.0133 29.1714 25.6898 29.1714 30.3664C29.1714 30.609 29.227 30.6882 29.484 30.6829C30.3503 30.6671 31.2165 30.6829 32.0854 30.6829C32.3132 30.6829 32.3874 30.7356 32.3848 30.973C32.3848 32.6981 32.3848 34.4231 32.3848 36.1481C32.3848 36.3776 32.3265 36.4409 32.0907 36.4409C27.7992 36.4409 23.5076 36.4409 19.2161 36.4409C18.9883 36.4409 18.9194 36.396 18.9194 36.156C18.93 34.431 18.93 32.706 18.9194 30.9809C18.9194 30.7172 19.0095 30.6776 19.24 30.6829C20.0983 30.6829 20.9539 30.6829 21.8096 30.6829C22.0427 30.6829 22.1354 30.6433 22.1354 30.3796C22.1248 25.6925 22.1248 21.0054 22.1354 16.3156C22.1354 16.0941 22.0718 16.0518 21.8705 16.0518C20.7817 16.0518 19.6929 16.0518 18.6015 16.0518C18.3658 16.0518 18.281 16.0149 18.2836 15.7512C18.2969 14.0393 18.2969 12.3275 18.2836 10.6104C18.2836 10.3466 18.3552 10.2991 18.5989 10.2991C21.5129 10.3097 24.4269 10.3097 27.3409 10.2991C27.5078 10.278 27.6641 10.3756 27.7171 10.5339C27.8336 10.7977 27.982 11.0614 28.1091 11.3252C28.1965 11.5283 28.2866 11.5415 28.48 11.4465C29.8443 10.737 31.3013 10.2174 32.8086 9.90349C34.9941 9.45509 37.2565 9.56587 39.3863 10.2279C41.8579 11.0192 43.3388 12.7601 44.0355 15.2052C44.4143 16.6242 44.5918 18.0881 44.5653 19.5573C44.5653 23.1392 44.5653 26.7211 44.5653 30.3031C44.5653 30.5668 44.605 30.6776 44.915 30.6697C45.9746 30.646 47.0502 30.6697 48.1177 30.6565C48.3535 30.6565 48.4144 30.7198 48.4144 30.9519C48.4038 32.677 48.4038 34.402 48.4144 36.127C48.4144 36.3644 48.3429 36.4145 48.1151 36.4145C44.6686 36.4145 41.2248 36.4145 37.7836 36.4145C37.5373 36.4145 37.5028 36.3327 37.5055 36.1138C37.4922 33.3285 37.4816 30.5378 37.479 27.7419Z" fill="white"/>
<path d="M74.6431 30.0366V30.3822C74.6431 31.9648 74.6431 33.5658 74.6431 35.1563C74.6431 35.3937 74.5875 35.4966 74.3411 35.5388C72.6378 35.8395 70.9265 36.0663 69.2019 36.2298C67.2442 36.4092 65.2759 36.4646 63.3103 36.4013C60.9261 36.3142 58.5817 36.0505 56.367 35.0825C53.7789 33.9615 52.3033 31.9859 51.8132 29.2453C51.6331 28.2114 51.543 27.1642 51.5483 26.1145C51.5483 24.0043 51.5324 21.9127 51.5483 19.8131C51.543 18.4547 51.755 17.1069 52.1709 15.8144C53.0769 13.1056 54.9895 11.4307 57.6571 10.5391C59.8744 9.79795 62.1606 9.63442 64.4865 9.67134C67.5886 9.75575 70.6774 10.0907 73.7239 10.6789C73.9305 10.7159 73.9888 10.8003 73.9888 11.0034C73.9888 13.7571 73.9888 16.5108 73.9888 19.2618C73.9888 19.5256 73.9146 19.5652 73.6736 19.5652C71.5278 19.5546 69.382 19.5546 67.2363 19.5652C66.9714 19.5652 66.9237 19.486 66.9263 19.2486C66.9396 18.1197 66.9263 16.9935 66.9263 15.8645C66.9263 15.6931 66.9263 15.5639 66.7038 15.5428C65.0879 15.3819 63.4666 15.2526 61.8957 15.8065C60.1526 16.4264 59.2095 17.7373 58.8201 19.4992C58.6717 20.1929 58.6029 20.8998 58.6161 21.6093C58.6161 22.7699 58.6002 23.9305 58.6161 25.091C58.6426 26.7 59.1168 28.1296 60.3884 29.2111C61.2493 29.9127 62.2851 30.369 63.3871 30.5299C64.9104 30.7936 66.4442 30.6802 67.9754 30.6644C70.2112 30.6538 72.4444 30.4428 74.6431 30.0366Z" fill="white"/>
<path d="M11.253 18.315C11.253 22.3269 11.253 26.3414 11.253 30.3532C11.253 30.6381 11.3298 30.6961 11.6 30.6909C12.6596 30.675 13.7193 30.6909 14.7789 30.6909C15.0226 30.6909 15.1233 30.7278 15.1207 31.01C15.1048 32.7219 15.1207 34.439 15.1207 36.1508C15.1207 36.3724 15.0756 36.4489 14.8319 36.4489C10.1086 36.4489 5.38523 36.4489 0.656598 36.4489C0.41818 36.4489 0.362549 36.3829 0.362549 36.1534C0.373145 34.4311 0.373145 32.706 0.362549 30.981C0.362549 30.741 0.439373 30.6882 0.667195 30.6909C1.75597 30.6909 2.84475 30.6909 3.93618 30.6909C4.14811 30.6909 4.20109 30.6408 4.20109 30.4271C4.20109 22.3374 4.20109 14.2504 4.20109 6.16073C4.20109 5.93653 4.13486 5.89696 3.93618 5.89696C3.05933 5.89696 2.17983 5.89696 1.28708 5.89696C1.06456 5.89696 0.985086 5.8574 0.987735 5.61473C0.993033 3.86333 0.990384 2.11721 0.979788 0.378999C0.979788 0.154799 1.04602 0.115234 1.25794 0.115234C5.56007 0.115234 9.8622 0.115234 14.167 0.115234C14.4001 0.115234 14.461 0.1759 14.461 0.408013C14.4504 2.13304 14.4504 3.85806 14.461 5.58044C14.461 5.81783 14.3922 5.8785 14.1617 5.87322C13.306 5.87322 12.4504 5.87322 11.5947 5.87322C11.3298 5.87322 11.245 5.92598 11.245 6.21084C11.2556 10.2359 11.2583 14.2689 11.253 18.315Z" fill="white"/>
<path d="M130.944 30.7117H119.008C117.765 30.7117 116.52 30.7117 115.275 30.7117C115.034 30.7117 114.965 30.6722 114.981 30.4005C115.058 29.1371 115.696 28.2297 116.713 27.536C117.731 26.8423 118.87 26.3649 119.974 25.8268C122.239 24.7243 124.449 23.5294 126.401 21.9205C128.939 19.9053 130.558 16.959 130.889 13.7437C130.889 13.6541 130.889 13.567 130.902 13.48C130.952 13.48 130.989 13.4958 130.995 13.5459C131 13.6462 131 13.7437 130.995 13.844C130.995 19.354 130.995 24.8641 130.995 30.3741C130.981 30.4744 131.04 30.6036 130.944 30.7117Z" fill="white"/>
</g>
<defs>
<clipPath id="clip0_723_25792">
<rect width="130.637" height="36.3363" fill="white" transform="translate(0.362549 0.112305)"/>
</clipPath>
</defs>
</svg>
