<svg width="214" height="37" viewBox="0 0 214 37" fill="none" xmlns="http://www.w3.org/2000/svg">
<path d="M139.68 36.4486C136.366 36.4486 133.909 35.8077 132.307 34.5259C130.918 33.4577 130.171 31.8524 130.171 30.1433H136.796C137.117 31.4252 137.651 32.1729 139.787 32.1729C142.137 32.1729 143.102 30.8911 143.102 28.0039V25.4403H142.995C142.14 27.5767 140.004 28.8615 137.758 28.6479C132.307 28.6479 129.53 25.5502 129.53 19.4586C129.423 16.8949 130.277 14.3283 131.987 12.4056C133.482 10.8033 135.621 9.94877 137.865 9.94877C140.001 9.73513 142.033 10.8033 143.102 12.7291H143.208V10.3791H149.727V27.3661C149.727 30.4638 148.98 32.71 147.377 34.0986C145.665 35.7009 143.205 36.4486 139.68 36.4486ZM139.894 14.5389C137.758 14.5389 136.476 16.3548 136.476 19.4555C136.476 22.66 137.651 24.3722 139.787 24.3722C141.603 24.3722 143.102 22.8767 143.102 21.0578V20.7373V18.601C143.102 16.0374 141.924 14.5389 139.894 14.5389ZM77.4822 30.0365C75.1322 30.2502 72.7792 29.6093 70.8565 28.3274C69.5747 27.2593 68.827 25.657 68.7202 23.9449H74.8118C74.9186 25.2267 75.7731 25.8676 77.3754 25.8676C78.8708 25.8676 79.8322 25.3335 79.8322 24.2653C79.8322 23.4108 79.2981 22.9835 77.9095 22.7699L74.8087 22.3426C71.0671 21.9154 69.0376 19.779 69.0376 16.4646C69.0376 14.7555 69.6785 13.1533 70.9603 11.9752C74.7019 9.41163 79.6155 9.30481 83.3572 11.6548C84.639 12.723 85.3867 14.3283 85.3867 15.9305H79.4019C79.4019 14.8624 78.4405 14.0078 77.3724 14.0078H77.2655C75.5565 14.0078 75.236 14.7555 75.236 15.5033C75.236 16.251 75.5565 16.7851 77.0519 16.9987L80.3663 17.426C81.8617 17.5328 83.2504 18.0669 84.3216 19.0282C85.3898 20.0964 85.9238 21.485 85.817 22.9835C86.0307 27.3661 82.7193 30.0365 77.4822 30.0365ZM58.246 29.9297C52.0475 29.9297 48.5195 26.2949 48.5195 19.776C48.4127 17.1025 49.374 14.5389 51.0831 12.6161C53.0058 10.8003 55.5725 9.73208 58.2429 9.94267C61.5573 9.94267 64.1209 10.904 65.7232 12.723C67.3254 14.7525 68.18 17.426 68.0732 19.9896V21.485H55.3558C55.5694 24.2653 56.424 25.5471 58.4535 25.5471C59.7353 25.7608 60.9103 24.9062 61.1239 23.7313H67.8565C67.4353 27.6865 64.1209 29.9297 58.246 29.9297ZM58.246 14.0048C56.4301 14.0048 55.5755 15.2866 55.3619 17.8532H61.1331V17.6396C60.9164 15.1828 59.955 14.0048 58.246 14.0048ZM180.826 29.8229C178.797 29.9297 176.764 29.182 175.269 27.6865C173.88 26.0843 173.133 23.9449 173.239 21.8085C173.133 19.6722 173.88 17.5328 175.269 16.0374C176.764 14.6487 178.797 13.7942 180.826 13.901C185.529 13.901 188.414 16.8919 188.414 21.8085C188.414 26.7221 185.42 29.8229 180.826 29.8229ZM180.826 16.9987C178.37 16.9987 177.836 19.6691 177.836 21.9154C177.836 25.2297 178.904 26.832 180.826 26.832C182.749 26.832 183.82 25.1229 183.82 21.9154C183.82 18.7078 182.749 16.9987 180.826 16.9987ZM165.542 29.8229C163.513 29.9297 161.48 29.182 159.985 27.6865C158.596 26.0843 157.955 23.9449 158.062 21.9154C158.062 16.9987 160.946 14.0078 165.649 14.0078C169.925 14.0078 172.489 16.1442 172.595 19.779H168.213C168.106 18.4972 167.572 16.9987 165.646 16.9987C162.976 16.9987 162.655 20.0964 162.655 21.9154C162.655 25.2297 163.617 26.832 165.646 26.832C167.142 26.832 168.317 25.657 168.317 24.1616V23.8411H172.592C172.592 25.5502 171.845 27.2593 170.563 28.3305C169.07 29.3956 167.251 29.8229 165.542 29.8229ZM93.7246 29.7161C92.1223 29.8229 90.4102 29.3956 89.1284 28.3274C87.8466 27.0456 87.2057 25.1199 87.3125 23.304V5.13589H93.9382V10.373H97.8935V15.076H94.045V22.0222C94.045 24.0517 94.6859 24.8025 96.5018 24.8025C96.9291 24.8025 97.3563 24.8025 97.7836 24.6957V29.5024C96.398 29.6093 95.1162 29.7161 93.7246 29.7161ZM204.122 29.3956H199.632V20.5237C199.739 19.6691 199.526 18.8146 199.205 18.0669C198.778 17.426 198.03 17.1055 197.282 17.2123C195.467 17.2123 194.398 18.4942 194.398 20.6305V29.3926H189.909V14.3252H194.185V16.782C195.146 14.9661 196.962 13.898 198.888 14.0048C201.451 14.0048 202.95 15.0729 203.591 17.1025H203.698C204.552 15.1798 206.475 13.8949 208.614 14.0048C212.035 14.0048 213.638 15.8207 213.638 19.5623V29.3956H209.148V20.5237C209.255 19.6691 209.041 18.8146 208.721 18.0669C208.294 17.426 207.546 17.1055 206.798 17.2123C204.982 17.2123 203.911 18.4942 203.911 20.6305L204.122 29.3956ZM115.421 29.3956H108.581V10.373H115.207V13.4707H115.314C116.489 11.2275 118.949 9.83585 121.512 10.0495C123.969 10.0495 125.681 10.6904 126.749 11.9722C127.818 13.5745 128.352 15.604 128.138 17.5297V29.3926H121.299V18.601C121.406 17.6396 121.192 16.6783 120.765 15.8237C120.231 15.1828 119.483 14.7555 118.628 14.8624C116.599 14.8624 115.531 16.1442 115.531 18.7108L115.421 29.3956ZM16.459 29.3956H9.61966V10.373H16.2454V13.4707H16.3522C17.5272 11.2275 19.987 9.83585 22.5507 10.0495C25.0075 10.0495 26.7196 10.6904 27.7878 11.9722C28.8559 13.5745 29.39 15.604 29.1764 17.5297V29.3926H22.337V18.601C22.4438 17.6396 22.2302 16.6783 21.8029 15.8237C21.2689 15.1828 20.5211 14.7555 19.6666 14.8624C17.6371 14.8624 16.5689 16.1442 16.5689 18.7108L16.459 29.3956ZM156.674 29.3956H151.971V24.9062H156.674V29.3956ZM106.335 29.3956H99.4958V10.373H106.335V29.3956ZM42.6415 29.3956H35.5885L28.8559 10.373H35.6953L38.1551 18.601C38.796 20.951 39.3301 23.4108 39.3301 23.5176H39.437C39.7574 21.9154 40.0779 20.3131 40.5051 18.7078L42.9619 10.4798H49.5876L42.6415 29.3956ZM7.05299 29.3956H0V2.4624H7.05299V29.3956Z" fill="#72727F"/>
<path d="M99.2815 8.34029L106.334 7.05848V0.112305L99.2815 1.39411V8.34029Z" fill="#72727F"/>
</svg>
