<svg width="116" height="66" viewBox="0 0 116 66" fill="none" xmlns="http://www.w3.org/2000/svg">
<path d="M2.88122 56.0071C3.06499 56.3031 3.24876 56.7109 3.47191 57.1517C3.69506 57.5924 3.91164 58.1121 4.17417 58.6317C4.43669 59.1514 4.65328 59.704 4.87642 60.2565L5.5393 61.809C5.76245 61.3288 5.94622 60.8091 6.20218 60.2565C6.45814 59.704 6.68129 59.1448 6.90444 58.6317C7.12758 58.1187 7.38355 57.599 7.60669 57.1517C7.82984 56.7109 8.01361 56.3031 8.19738 56.0071H10.1926C10.3042 56.6386 10.3763 57.3753 10.4485 58.191C10.5207 59.0067 10.5929 59.8158 10.6717 60.7039C10.7439 61.5919 10.7833 62.4405 10.8555 63.3285C10.9277 64.2166 10.967 65.0323 10.9998 65.769H8.86026C8.82088 64.8086 8.78806 63.8087 8.74868 62.6641C8.7093 61.5524 8.63711 60.4078 8.52554 59.2961C8.34177 59.704 8.158 60.1118 7.97423 60.592L7.34417 62.0326C7.1604 62.5128 6.93725 62.9602 6.75348 63.4009L6.27437 64.5126H4.75829L4.27918 63.4009C4.09541 62.9602 3.91164 62.5128 3.68849 62.0326C3.46534 61.5524 3.28158 61.0722 3.06499 60.592C2.84185 60.1118 2.65808 59.6645 2.51369 59.2961C2.44149 60.4407 2.3693 61.5524 2.29054 62.6641C2.25116 63.7758 2.21835 64.8086 2.17897 65.769H0C0.0393789 64.9928 0.0721947 64.1771 0.144389 63.3285C0.216584 62.4799 0.255963 61.5919 0.328158 60.7039C0.400352 59.8158 0.472547 59.0001 0.551305 58.191C0.6235 57.3753 0.735073 56.6715 0.807268 56.0071H2.88122Z" fill="white"/>
<path d="M19.3745 65.769C19.2629 65.4335 19.1514 65.0652 19.0398 64.7363C18.9282 64.4008 18.7838 64.0324 18.6723 63.664H14.8722C14.7606 64.0324 14.6162 64.3679 14.5047 64.7363C14.3931 65.1046 14.2815 65.4401 14.1699 65.769H11.8794C12.2469 64.7362 12.5817 63.7364 12.9098 62.8483C13.2445 61.9603 13.5727 61.1117 13.868 60.3355C14.1634 59.5593 14.4981 58.8159 14.7934 58.0792C15.0888 57.3424 15.4235 56.6715 15.7517 56.0071H17.819C18.1538 56.6715 18.4491 57.3753 18.7445 58.0792C19.0398 58.783 19.3745 59.5198 19.6699 60.3355C19.9652 61.1117 20.2999 61.9603 20.6281 62.8483C20.9628 63.7364 21.291 64.6968 21.6585 65.769H19.3745ZM16.7493 58.2239C16.7099 58.3686 16.6377 58.5594 16.5261 58.8159L16.1914 59.6645C16.0798 60 15.9354 60.3289 15.7845 60.7368C15.6401 61.1446 15.4891 61.513 15.3447 61.9603H18.1144C17.97 61.5524 17.819 61.1446 17.6747 60.7368C17.5303 60.3289 17.4187 60 17.2677 59.6645L16.9724 58.8159C16.9002 58.5594 16.7886 58.3752 16.7493 58.2239Z" fill="white"/>
<path d="M25.8325 55.8953C27.3092 55.8953 28.4183 56.1518 29.1928 56.6715C29.9673 57.1912 30.3742 58.0003 30.3742 59.112C30.4135 59.704 30.2298 60.296 29.8951 60.7762C29.5275 61.217 29.0812 61.5919 28.5299 61.7761C28.7137 61.9998 28.9368 62.2958 29.16 62.6247C29.3831 62.9602 29.5997 63.2562 29.79 63.6246C29.9738 63.9929 30.197 64.3284 30.4201 64.6968C30.6433 65.0652 30.7876 65.4335 30.9714 65.8085H28.5365C28.3527 65.473 28.1689 65.177 27.9852 64.8481C27.8014 64.5126 27.6176 64.1837 27.4339 63.8877C27.2501 63.5917 27.0663 63.2956 26.8432 62.9996C26.6594 62.7431 26.4757 62.48 26.2919 62.2629H25.2024V65.8151H23.0234V56.1913C23.5025 56.0794 24.021 56.0466 24.5001 56.0071C24.9464 55.9347 25.4256 55.8953 25.8325 55.8953ZM25.9375 57.7832C25.7931 57.7832 25.6421 57.7832 25.4977 57.7832L25.1302 57.8227V60.4473H25.7603C26.351 60.4868 26.981 60.375 27.5323 60.1513C27.8999 59.9277 28.123 59.5198 28.0508 59.0791C28.0902 58.6712 27.867 58.2634 27.4995 58.0792C27.0466 57.8555 26.4953 57.7437 25.9375 57.7832Z" fill="white"/>
<path d="M38.0401 65.7691C37.8564 65.4336 37.6004 65.1047 37.3379 64.7363C37.0754 64.368 36.7866 63.9996 36.4912 63.6246C36.1959 63.2497 35.8612 62.8879 35.533 62.5524C35.1983 62.2169 34.8701 61.9209 34.5354 61.6643V65.7691H32.3564V56.0466H34.5354V59.7106C35.0867 59.1186 35.6774 58.4871 36.2353 57.8622C36.826 57.1978 37.3444 56.6058 37.8564 56.0532H40.4422C39.7794 56.8294 39.1165 57.6056 38.4471 58.3095C37.7776 59.0134 37.0819 59.7896 36.3468 60.4934C37.1607 61.1973 37.9351 61.9735 38.598 62.8221C39.3331 63.7496 40.0353 64.7429 40.6654 65.7823L38.0401 65.7691Z" fill="white"/>
<path d="M41.9189 65.7691V56.0466H48.4887V57.8951H44.0979V59.8159H47.9702V61.6249H44.0979V63.9535H48.784V65.802L41.9189 65.7691Z" fill="white"/>
<path d="M57.5984 56.0071V57.895H54.6843V65.7756H52.5053V57.895H49.5913V56.0071H57.5984Z" fill="white"/>
<path d="M68.8936 65.769C68.782 65.4335 68.6704 65.0652 68.5588 64.7363L68.1913 63.664H64.3912C64.2797 64.0324 64.1353 64.3679 64.0237 64.7363C63.9121 65.1046 63.8005 65.4401 63.689 65.769H61.3984C61.766 64.7362 62.1007 63.7364 62.4289 62.8483C62.7636 61.9603 63.0917 61.1117 63.3871 60.3355C63.7218 59.5593 64.0171 58.8159 64.3125 58.0792C64.6078 57.3424 64.9425 56.6715 65.2707 56.0071H67.3381C67.6728 56.6715 67.9681 57.3753 68.2963 58.0792C68.631 58.783 68.9264 59.5198 69.2217 60.3355C69.5171 61.1512 69.8518 61.9603 70.1799 62.8483C70.5147 63.7364 70.8428 64.6968 71.2103 65.769H68.8936ZM66.2683 58.2239C66.2289 58.3686 66.1567 58.5594 66.0451 58.8159L65.7104 59.6645C65.5989 60 65.4545 60.3289 65.3035 60.7368C65.1591 61.1446 65.0082 61.513 64.8638 61.9603H67.6334C67.489 61.5524 67.3381 61.1446 67.1937 60.7368C67.0493 60.3289 66.9377 60 66.7868 59.6645C66.6424 59.329 66.5636 59.0725 66.4521 58.8159C66.3471 58.5594 66.3471 58.3752 66.2683 58.2239Z" fill="white"/>
<path d="M76.5657 65.9599C74.9774 65.9599 73.7632 65.5191 72.9494 64.6311C72.1355 63.7431 71.6958 62.4866 71.6958 60.8947C71.6958 60.158 71.8074 59.4147 72.0633 58.7503C72.2865 58.1582 72.654 57.6057 73.0938 57.1584C73.5335 56.7176 74.0914 56.3821 74.682 56.1585C75.3121 55.9348 75.975 55.823 76.6772 55.823C77.0448 55.823 77.4123 55.8625 77.7864 55.8954C78.0817 55.9348 78.3771 56.0072 78.6724 56.119C78.8956 56.1914 79.1122 56.2637 79.3025 56.3756C79.4863 56.4479 79.5978 56.5203 79.67 56.5597L79.04 58.3358C78.7052 58.1517 78.3771 58.0398 78.0096 57.928C77.5698 57.8162 77.1235 57.7438 76.6444 57.7438C76.3097 57.7438 75.9815 57.8162 75.6468 57.928C75.3121 58.0398 75.0168 58.224 74.8002 58.4806C74.5442 58.7371 74.3211 59.0726 74.2095 59.441C74.0651 59.8817 73.9863 60.4014 73.9863 60.8816C73.9863 61.2894 74.0257 61.7301 74.1307 62.138C74.2029 62.5064 74.3867 62.8419 74.6098 63.1379C74.833 63.4339 75.1283 63.6575 75.4565 63.8023C75.8634 63.9864 76.3031 64.0588 76.7494 64.0588C77.0448 64.0588 77.3401 64.0588 77.5961 64.0193C77.852 63.9799 78.0752 63.947 78.259 63.8746C78.4427 63.8351 78.6265 63.7628 78.7774 63.6904L79.1844 63.5062L79.775 65.2823C79.3681 65.506 78.9284 65.6902 78.4821 65.802C77.8586 65.8809 77.2285 65.9599 76.5657 65.9599Z" fill="white"/>
<path d="M84.0937 55.8953C85.5704 55.8953 86.6796 56.1518 87.454 56.6715C88.2285 57.1912 88.596 58.0003 88.596 59.112C88.6354 59.704 88.4516 60.296 88.1169 60.7762C87.7822 61.217 87.3031 61.5919 86.7518 61.7761C86.9355 61.9998 87.1587 62.2958 87.3818 62.6247C87.605 62.9602 87.8216 63.2562 88.0119 63.6246C88.1957 63.9929 88.4188 64.3284 88.6419 64.6968C88.8651 65.0652 89.0095 65.4335 89.1932 65.8085H86.7189C86.5352 65.473 86.3514 65.177 86.1676 64.8481C85.9839 64.5126 85.8001 64.1837 85.6163 63.8877C85.4326 63.5917 85.2488 63.2956 85.0257 62.9996C84.8025 62.7036 84.6581 62.48 84.4743 62.2629H83.4046V65.8151H81.2256V56.1913C81.7047 56.0794 82.2232 56.0466 82.7023 56.0071C83.2077 55.9347 83.6868 55.8953 84.0937 55.8953ZM84.2053 57.7832C84.0609 57.7832 83.9099 57.7832 83.7655 57.7832L83.398 57.8227V60.4473H84.0281C84.6187 60.4868 85.2488 60.375 85.8001 60.1513C86.1676 59.9277 86.3514 59.5198 86.3186 59.0791C86.358 58.6712 86.1348 58.2634 85.8001 58.0792C85.3144 57.8555 84.7566 57.7437 84.2053 57.7832Z" fill="white"/>
<path d="M99.5893 60.8881C99.5893 61.6249 99.4777 62.3682 99.2217 63.0721C98.9986 63.6641 98.6704 64.2167 98.1913 64.664C97.7516 65.1047 97.2331 65.4402 96.6424 65.6244C96.0124 65.848 95.3889 65.9599 94.726 65.9599C94.0959 65.9599 93.4331 65.848 92.8424 65.6244C92.2517 65.4007 91.7332 65.0718 91.2935 64.664C90.8537 64.2232 90.4796 63.6641 90.263 63.0721C90.0071 62.3682 89.8955 61.6315 89.8955 60.8881C89.8955 60.1514 90.0071 59.3686 90.3024 58.7042C90.5256 58.1122 90.8931 57.5596 91.3722 57.1123C91.8119 56.6716 92.3304 56.3361 92.9211 56.1519C93.5118 55.9282 94.1419 55.8164 94.7654 55.8164C95.3889 55.8164 96.0583 55.9282 96.649 56.1519C97.2397 56.3755 97.7582 56.7045 98.1979 57.1123C98.6376 57.553 99.0117 58.1122 99.2283 58.7042C99.4777 59.3752 99.5893 60.1514 99.5893 60.8881ZM92.1729 60.8881C92.1729 61.3289 92.2123 61.7762 92.3567 62.184C92.4683 62.5524 92.6126 62.8879 92.8752 63.1839C93.0983 63.4405 93.3543 63.6641 93.689 63.8154C94.0237 63.9601 94.4241 64.0391 94.7982 64.0391C95.1657 64.0391 95.5333 63.9667 95.9074 63.8154C96.2421 63.6707 96.498 63.447 96.7212 63.1839C96.9443 62.8879 97.1281 62.5524 97.2397 62.184C97.3513 61.7762 97.4234 61.3354 97.4234 60.8881C97.4234 60.4408 97.3841 60.0001 97.2397 59.5922C97.1281 59.2239 96.9837 58.8884 96.7212 58.5924C96.498 58.3358 96.2421 58.1122 95.9074 57.9609C95.5726 57.8162 95.2051 57.7372 94.7982 57.7372C94.4306 57.7372 94.0237 57.8096 93.689 57.9609C93.3543 58.1056 93.0983 58.3293 92.8752 58.6253C92.652 58.9213 92.4683 59.2568 92.3567 59.6251C92.2123 60.0001 92.1729 60.4474 92.1729 60.8881Z" fill="white"/>
<path d="M104.059 64.0718C104.315 64.0718 104.577 64.0323 104.833 63.9994C105.017 63.96 105.168 63.8876 105.312 63.7758C105.424 63.7034 105.496 63.5916 105.568 63.4403C105.608 63.2956 105.64 63.1838 105.64 63.0325C105.64 62.697 105.457 62.401 105.201 62.2562C104.722 61.9602 104.203 61.7366 103.652 61.5918C103.317 61.48 103.022 61.3682 102.694 61.2235C102.398 61.0788 102.103 60.888 101.847 60.6709C101.591 60.4473 101.368 60.1907 101.217 59.8552C101.033 59.4868 100.961 59.1185 100.994 58.7106C100.994 58.3028 101.066 57.8621 101.25 57.4871C101.394 57.1187 101.657 56.8227 101.952 56.5596C102.287 56.303 102.654 56.0794 103.061 55.9676C103.54 55.8228 104.019 55.7439 104.538 55.7439C105.089 55.7439 105.68 55.8163 106.238 55.9676C106.645 56.0794 107.051 56.2241 107.419 56.4478L106.789 58.1844C106.494 58.0397 106.198 57.9278 105.864 57.816C105.457 57.7042 105.089 57.6318 104.682 57.6713C104.275 57.6318 103.908 57.7108 103.54 57.8949C103.317 58.0397 103.173 58.3028 103.205 58.5593C103.205 58.7041 103.245 58.8948 103.317 59.0001C103.429 59.1448 103.54 59.2566 103.685 59.3356C103.868 59.4474 104.019 59.5197 104.203 59.5921C104.387 59.6645 104.61 59.7368 104.866 59.8486C105.345 60.0328 105.791 60.217 106.192 60.4012C106.526 60.5459 106.855 60.7696 107.117 61.0327C107.373 61.2564 107.557 61.5524 107.668 61.8813C107.78 62.2497 107.852 62.6575 107.852 63.0653C107.892 63.881 107.557 64.6573 106.894 65.1703C106.264 65.69 105.306 65.9071 104.013 65.9071C103.606 65.9071 103.238 65.8676 102.831 65.8347C102.536 65.7953 102.201 65.7229 101.906 65.6506C101.683 65.5782 101.427 65.5058 101.204 65.4269C101.059 65.3545 100.869 65.2822 100.725 65.2032L101.355 63.4666C101.689 63.6508 102.057 63.8021 102.424 63.8745C102.989 64.0323 103.54 64.1047 104.059 64.0718Z" fill="white"/>
<path d="M112.21 64.0718C112.466 64.0718 112.728 64.0323 112.984 63.9994C113.168 63.96 113.319 63.8876 113.464 63.7758C113.575 63.7034 113.647 63.5916 113.719 63.4403C113.759 63.2956 113.792 63.1838 113.792 63.0325C113.792 62.697 113.608 62.401 113.352 62.2562C112.873 61.9602 112.354 61.7366 111.803 61.5918C111.468 61.48 111.173 61.3682 110.845 61.2235C110.549 61.0788 110.254 60.888 109.998 60.6709C109.742 60.4473 109.519 60.1907 109.368 59.8552C109.184 59.4868 109.112 59.1185 109.145 58.7106C109.145 58.3028 109.217 57.8621 109.401 57.4871C109.545 57.1187 109.808 56.8227 110.103 56.5596C110.438 56.303 110.805 56.0794 111.212 55.9676C111.691 55.8228 112.171 55.7439 112.689 55.7439C113.28 55.7439 113.831 55.8163 114.389 55.9676C114.796 56.0794 115.203 56.2241 115.57 56.4478L114.94 58.1844C114.645 58.0397 114.35 57.9278 114.015 57.816C113.608 57.7042 113.201 57.6318 112.794 57.6713C112.387 57.6318 112.02 57.7108 111.652 57.8949C111.429 58.0397 111.285 58.3028 111.317 58.5593C111.317 58.7041 111.357 58.8948 111.429 59.0001C111.541 59.1448 111.652 59.2566 111.796 59.3356C111.98 59.4474 112.131 59.5197 112.348 59.5921C112.532 59.6645 112.755 59.7368 113.011 59.8486C113.529 60.0328 113.969 60.217 114.336 60.4012C114.671 60.5459 114.999 60.7696 115.262 61.0327C115.518 61.2893 115.702 61.5524 115.813 61.8813C115.958 62.2497 115.997 62.6575 115.997 63.0653C116.036 63.881 115.662 64.6573 115.039 65.1703C114.409 65.6505 113.45 65.9071 112.157 65.9071C111.751 65.9071 111.383 65.8676 111.015 65.8347C110.72 65.7953 110.385 65.7229 110.09 65.6506C109.683 65.5387 109.276 65.394 108.909 65.1703L109.539 63.4337C110.366 63.9205 111.291 64.1047 112.21 64.0718Z" fill="white"/>
<path d="M99.2937 19.2485C99.2215 18.8801 99.0377 18.5117 98.7752 18.2486C93.7544 13.5123 83.9031 3.97407 82.1311 2.23744C81.9079 2.01379 81.2056 1.30993 81.2056 1.30993C78.8101 -0.393807 76.4474 -0.577995 74.1568 1.60594L57.4864 18.4722C57.4142 18.3999 57.3748 18.3275 57.3026 18.2486C52.3212 13.5123 42.4305 3.97407 40.6979 2.23744C40.4747 2.01379 39.8118 1.30993 39.8118 1.30993C37.4163 -0.393807 35.0536 -0.577995 32.763 1.60594L0.662633 34.115C-0.0724401 34.8189 -0.0724401 36.0029 0.662633 36.7397L0.702012 36.7792C3.95077 39.884 11.9184 47.5015 12.9882 48.5014C13.6511 49.1329 14.7209 49.1329 15.3838 48.4619L42.4305 21.018C43.5003 19.9063 44.7211 18.9853 46.0468 18.242C46.9722 17.7223 48.5211 17.4658 49.3284 17.6894C50.0307 17.8736 53.3844 19.7616 55.1237 20.9061L42.1024 34.115C41.3673 34.8189 41.3673 36.0029 42.1024 36.7397L42.1418 36.7792C45.3905 39.884 53.3582 47.5015 54.428 48.5014C55.0909 49.1329 56.1607 49.1329 56.8235 48.4619L83.8703 21.018C84.9401 19.9063 86.1608 18.9853 87.4866 18.242C88.412 17.6894 89.9609 17.4658 90.7682 17.6894C91.4704 17.8736 94.9751 19.8734 96.675 20.9785C97.0097 21.2022 97.4101 21.314 97.817 21.2351H97.8564C98.8146 21.0969 99.4446 20.2089 99.2937 19.2485Z" fill="white"/>
<path d="M90.1054 33.5953L100.291 23.3861C101.473 22.202 103.389 22.202 104.61 23.3861L114.757 33.5953C115.938 34.7794 115.938 36.7002 114.757 37.9237L104.571 48.0935C103.389 49.2776 101.473 49.2776 100.252 48.0935L90.066 37.8843C88.924 36.7002 88.924 34.7794 90.1054 33.5953Z" fill="white"/>
</svg>
