<svg width="116" height="67" viewBox="0 0 116 67" fill="none" xmlns="http://www.w3.org/2000/svg">
<path d="M3.07475 56.3345C3.25762 56.6291 3.4405 57.0349 3.66256 57.4735C3.88462 57.9121 4.10016 58.4292 4.36141 58.9464C4.62266 59.4635 4.83819 60.0134 5.06025 60.5633L5.71991 62.1082C5.94198 61.6303 6.12485 61.1132 6.37957 60.5633C6.63429 60.0134 6.85635 59.457 7.07842 58.9464C7.30048 58.4358 7.5552 57.9186 7.77726 57.4735C7.99933 57.0349 8.1822 56.6291 8.36508 56.3345H10.3506C10.4616 56.9629 10.5335 57.6961 10.6053 58.5078C10.6771 59.3195 10.749 60.1247 10.8274 61.0084C10.8992 61.8922 10.9384 62.7366 11.0102 63.6204C11.0821 64.5041 11.1213 65.3158 11.1539 66.049H9.02474C8.98555 65.0932 8.95289 64.0982 8.9137 62.9592C8.87452 61.8529 8.80267 60.7139 8.69164 59.6076C8.50876 60.0134 8.32589 60.4193 8.14301 60.8972L7.51601 62.3308C7.33314 62.8086 7.11107 63.2538 6.9282 63.6924L6.45141 64.7987H4.94269L4.46591 63.6924C4.28303 63.2538 4.10016 62.8086 3.87809 62.3308C3.65603 61.8529 3.47316 61.375 3.25762 60.8972C3.03556 60.4193 2.85268 59.9741 2.709 59.6076C2.63715 60.7466 2.56531 61.8529 2.48693 62.9592C2.44775 64.0655 2.41509 65.0932 2.3759 66.049H0.20752C0.246707 65.2765 0.279364 64.4648 0.351207 63.6204C0.423051 62.7759 0.462239 61.8922 0.534083 61.0084C0.605927 60.1247 0.677771 59.313 0.756146 58.5078C0.82799 57.6961 0.939022 56.9956 1.01087 56.3345H3.07475Z" fill="#DADEE3"/>
<path d="M19.488 66.049C19.377 65.7151 19.2659 65.3485 19.1549 65.0212C19.0439 64.6874 18.9002 64.3208 18.7892 63.9542H15.0076C14.8965 64.3208 14.7528 64.6547 14.6418 65.0212C14.5308 65.3878 14.4197 65.7217 14.3087 66.049H12.0293C12.395 65.0212 12.7281 64.0262 13.0547 63.1425C13.3878 62.2588 13.7144 61.4143 14.0083 60.6419C14.3022 59.8694 14.6353 59.1297 14.9292 58.3965C15.2231 57.6633 15.5562 56.9956 15.8827 56.3345H17.9401C18.2732 56.9956 18.5671 57.6961 18.861 58.3965C19.1549 59.097 19.488 59.8301 19.7819 60.6419C20.0758 61.4143 20.4089 62.2588 20.7355 63.1425C21.0686 64.0262 21.3951 64.982 21.7609 66.049H19.488ZM16.8755 58.5405C16.8363 58.6845 16.7645 58.8744 16.6534 59.1297L16.3203 59.9741C16.2093 60.308 16.0656 60.6353 15.9154 61.0412C15.7717 61.447 15.6215 61.8136 15.4778 62.2588H18.234C18.0903 61.8529 17.9401 61.447 17.7964 61.0412C17.6527 60.6353 17.5417 60.308 17.3915 59.9741L17.0976 59.1297C17.0257 58.8744 16.9147 58.6911 16.8755 58.5405Z" fill="#DADEE3"/>
<path d="M25.9148 56.2231C27.3843 56.2231 28.4881 56.4784 29.2588 56.9956C30.0295 57.5127 30.4344 58.3179 30.4344 59.4242C30.4736 60.0134 30.2907 60.6025 29.9576 61.0804C29.5919 61.519 29.1477 61.8921 28.5991 62.0754C28.782 62.298 29.0041 62.5926 29.2261 62.9199C29.4482 63.2537 29.6637 63.5483 29.8531 63.9149C30.036 64.2815 30.2581 64.6153 30.4801 64.9819C30.7022 65.3485 30.8459 65.7151 31.0288 66.0882H28.6057C28.4228 65.7544 28.2399 65.4598 28.057 65.1325C27.8741 64.7986 27.6913 64.4713 27.5084 64.1767C27.3255 63.8822 27.1426 63.5876 26.9206 63.293C26.7377 63.0377 26.5548 62.7759 26.372 62.5598H25.2878V66.0948H23.1194V56.5177C23.5962 56.4064 24.1121 56.3737 24.5889 56.3344C25.033 56.2624 25.5098 56.2231 25.9148 56.2231ZM26.0193 58.1019C25.8756 58.1019 25.7254 58.1019 25.5817 58.1019L25.2159 58.1412V60.7531H25.8429C26.4307 60.7924 27.0577 60.6811 27.6064 60.4585C27.9721 60.2359 28.1942 59.8301 28.1223 59.3915C28.1615 58.9856 27.9395 58.5798 27.5737 58.3965C27.1231 58.1739 26.5744 58.0626 26.0193 58.1019Z" fill="#DADEE3"/>
<path d="M38.0628 66.0488C37.8799 65.7149 37.6252 65.3876 37.364 65.021C37.1027 64.6544 36.8153 64.2879 36.5214 63.9147C36.2275 63.5416 35.8944 63.1815 35.5679 62.8477C35.2348 62.5138 34.9082 62.2193 34.5751 61.964V66.0488H32.4067V56.3735H34.5751V60.0198C35.1237 59.4306 35.7116 58.8022 36.2667 58.1803C36.8545 57.5191 37.3705 56.93 37.8799 56.3801H40.4533C39.7936 57.1525 39.1339 57.925 38.4678 58.6254C37.8016 59.3259 37.1093 60.0983 36.3778 60.7987C37.1876 61.4992 37.9583 62.2716 38.618 63.1161C39.3495 64.0391 40.0483 65.0276 40.6753 66.0619L38.0628 66.0488Z" fill="#DADEE3"/>
<path d="M41.9226 66.0488V56.3735H48.4604V58.213H44.091V60.1245H47.9444V61.9247H44.091V64.242H48.7543V66.0815L41.9226 66.0488Z" fill="#DADEE3"/>
<path d="M57.526 56.3345V58.2132H54.6261V66.0555H52.4577V58.2132H49.5579V56.3345H57.526Z" fill="#DADEE3"/>
<path d="M68.7661 66.049C68.6551 65.7151 68.544 65.3485 68.433 65.0212L68.0672 63.9542H64.2856C64.1746 64.3208 64.0309 64.6547 63.9199 65.0212C63.8088 65.3878 63.6978 65.7217 63.5868 66.049H61.3074C61.6731 65.0212 62.0062 64.0262 62.3328 63.1425C62.6659 62.2588 62.9924 61.4143 63.2863 60.6419C63.6194 59.8694 63.9133 59.1297 64.2073 58.3965C64.5012 57.6633 64.8343 56.9956 65.1608 56.3345H67.2182C67.5513 56.9956 67.8452 57.6961 68.1717 58.3965C68.5048 59.097 68.7987 59.8301 69.0926 60.6419C69.3866 61.4536 69.7196 62.2588 70.0462 63.1425C70.3793 64.0262 70.7059 64.982 71.0716 66.049H68.7661ZM66.1536 58.5405C66.1144 58.6845 66.0425 58.8744 65.9315 59.1297L65.5984 59.9741C65.4874 60.308 65.3437 60.6353 65.1935 61.0412C65.0498 61.447 64.8996 61.8136 64.7559 62.2588H67.5121C67.3684 61.8529 67.2182 61.447 67.0745 61.0412C66.9308 60.6353 66.8198 60.308 66.6695 59.9741C66.5259 59.6403 66.4475 59.385 66.3364 59.1297C66.2319 58.8744 66.2319 58.6911 66.1536 58.5405Z" fill="#DADEE3"/>
<path d="M76.4014 66.2385C74.8208 66.2385 73.6125 65.7999 72.8027 64.9162C71.9928 64.0325 71.5552 62.7821 71.5552 61.198C71.5552 60.4648 71.6662 59.7251 71.9209 59.0639C72.143 58.4748 72.5087 57.9249 72.9463 57.4797C73.3839 57.0412 73.9391 56.7073 74.5269 56.4847C75.1539 56.2622 75.8136 56.1509 76.5124 56.1509C76.8782 56.1509 77.2439 56.1902 77.6162 56.2229C77.9101 56.2622 78.204 56.3342 78.4979 56.4455C78.72 56.5175 78.9355 56.5895 79.1249 56.7008C79.3078 56.7728 79.4188 56.8448 79.4907 56.8841L78.8637 58.6515C78.5306 58.4682 78.204 58.3569 77.8383 58.2457C77.4007 58.1344 76.9565 58.0624 76.4798 58.0624C76.1467 58.0624 75.8201 58.1344 75.487 58.2457C75.1539 58.3569 74.86 58.5402 74.6445 58.7955C74.3897 59.0508 74.1677 59.3847 74.0567 59.7513C73.913 60.1899 73.8346 60.707 73.8346 61.1849C73.8346 61.5907 73.8738 62.0293 73.9783 62.4352C74.0501 62.8018 74.233 63.1356 74.4551 63.4302C74.6771 63.7248 74.971 63.9474 75.2976 64.0914C75.7025 64.2747 76.1401 64.3467 76.5843 64.3467C76.8782 64.3467 77.1721 64.3467 77.4268 64.3074C77.6815 64.2681 77.9036 64.2354 78.0864 64.1634C78.2693 64.1241 78.4522 64.0521 78.6024 63.9801L79.0074 63.7968L79.5952 65.5643C79.1902 65.7868 78.7526 65.9701 78.3085 66.0814C77.688 66.16 77.061 66.2385 76.4014 66.2385Z" fill="#DADEE3"/>
<path d="M83.8925 56.2231C85.362 56.2231 86.4658 56.4784 87.2365 56.9956C88.0072 57.5127 88.3729 58.3179 88.3729 59.4242C88.4121 60.0134 88.2293 60.6025 87.8962 61.0804C87.5631 61.519 87.0863 61.8921 86.5377 62.0754C86.7205 62.298 86.9426 62.5926 87.1647 62.9199C87.3867 63.2537 87.6023 63.5483 87.7917 63.9149C87.9745 64.2815 88.1966 64.6153 88.4187 64.9819C88.6407 65.3485 88.7844 65.7151 88.9673 66.0882H86.505C86.3221 65.7544 86.1392 65.4598 85.9564 65.1325C85.7735 64.7986 85.5906 64.4713 85.4077 64.1767C85.2249 63.8822 85.042 63.5876 84.8199 63.293C84.5979 62.9984 84.4542 62.7759 84.2713 62.5598H83.2067V66.0948H81.0383V56.5177C81.5151 56.4064 82.0311 56.3737 82.5079 56.3344C83.0108 56.2624 83.4876 56.2231 83.8925 56.2231ZM84.0035 58.1019C83.8598 58.1019 83.7096 58.1019 83.5659 58.1019L83.2002 58.1412V60.7531H83.8272C84.415 60.7924 85.042 60.6811 85.5906 60.4585C85.9564 60.2359 86.1393 59.8301 86.1066 59.3915C86.1458 58.9856 85.9237 58.5798 85.5906 58.3965C85.1073 58.1739 84.5522 58.0626 84.0035 58.1019Z" fill="#DADEE3"/>
<path d="M99.3129 61.1916C99.3129 61.9248 99.2019 62.6645 98.9472 63.365C98.7251 63.9541 98.3986 64.504 97.9218 64.9491C97.4842 65.3877 96.9682 65.7216 96.3804 65.9049C95.7534 66.1274 95.1329 66.2387 94.4733 66.2387C93.8463 66.2387 93.1866 66.1274 92.5988 65.9049C92.011 65.6823 91.495 65.355 91.0574 64.9491C90.6198 64.5105 90.2475 63.9541 90.032 63.365C89.7773 62.6645 89.6663 61.9313 89.6663 61.1916C89.6663 60.4585 89.7773 59.6795 90.0712 59.0183C90.2933 58.4291 90.659 57.8793 91.1358 57.4341C91.5734 56.9955 92.0894 56.6617 92.6772 56.4784C93.265 56.2558 93.892 56.1445 94.5125 56.1445C95.1329 56.1445 95.7991 56.2558 96.3869 56.4784C96.9747 56.701 97.4907 57.0283 97.9283 57.4341C98.3659 57.8727 98.7382 58.4291 98.9537 59.0183C99.2019 59.686 99.3129 60.4585 99.3129 61.1916ZM91.9326 61.1916C91.9326 61.6302 91.9718 62.0754 92.1155 62.4812C92.2265 62.8478 92.3702 63.1817 92.6315 63.4762C92.8535 63.7315 93.1082 63.9541 93.4413 64.1047C93.7744 64.2487 94.1728 64.3272 94.5451 64.3272C94.9109 64.3272 95.2766 64.2552 95.6489 64.1047C95.982 63.9607 96.2367 63.7381 96.4588 63.4762C96.6808 63.1817 96.8637 62.8478 96.9748 62.4812C97.0858 62.0754 97.1576 61.6368 97.1576 61.1916C97.1576 60.7465 97.1184 60.3079 96.9748 59.902C96.8637 59.5354 96.72 59.2016 96.4588 58.907C96.2367 58.6517 95.982 58.4291 95.6489 58.2786C95.3158 58.1346 94.9501 58.056 94.5451 58.056C94.1794 58.056 93.7744 58.128 93.4413 58.2786C93.1082 58.4226 92.8535 58.6452 92.6315 58.9397C92.4094 59.2343 92.2265 59.5682 92.1155 59.9348C91.9718 60.3079 91.9326 60.753 91.9326 61.1916Z" fill="#DADEE3"/>
<path d="M103.761 64.3602C104.015 64.3602 104.277 64.3209 104.531 64.2882C104.714 64.2489 104.865 64.1769 105.008 64.0656C105.119 63.9936 105.191 63.8823 105.263 63.7318C105.302 63.5878 105.335 63.4765 105.335 63.3259C105.335 62.9921 105.152 62.6975 104.897 62.5535C104.42 62.2589 103.904 62.0363 103.356 61.8923C103.023 61.781 102.729 61.6697 102.402 61.5257C102.108 61.3817 101.814 61.1919 101.56 60.9758C101.305 60.7533 101.083 60.498 100.933 60.1641C100.75 59.7975 100.678 59.4309 100.711 59.0251C100.711 58.6192 100.782 58.1806 100.965 57.8075C101.109 57.4409 101.37 57.1463 101.664 56.8845C101.997 56.6292 102.363 56.4066 102.768 56.2953C103.245 56.1513 103.722 56.0728 104.238 56.0728C104.786 56.0728 105.374 56.1448 105.929 56.2953C106.334 56.4066 106.739 56.5506 107.105 56.7732L106.478 58.5014C106.184 58.3574 105.89 58.2461 105.557 58.1348C105.152 58.0235 104.786 57.9515 104.381 57.9908C103.976 57.9515 103.611 58.0301 103.245 58.2134C103.023 58.3574 102.879 58.6192 102.912 58.8745C102.912 59.0185 102.951 59.2084 103.023 59.3131C103.134 59.4571 103.245 59.5684 103.388 59.647C103.571 59.7582 103.722 59.8303 103.904 59.9023C104.087 59.9743 104.309 60.0463 104.564 60.1576C105.041 60.3409 105.485 60.5241 105.883 60.7074C106.217 60.8515 106.543 61.074 106.804 61.3359C107.059 61.5584 107.242 61.853 107.353 62.1803C107.464 62.5469 107.536 62.9528 107.536 63.3586C107.575 64.1704 107.242 64.9428 106.582 65.4534C105.955 65.9706 105.002 66.1866 103.715 66.1866C103.31 66.1866 102.944 66.1473 102.539 66.1146C102.245 66.0753 101.912 66.0033 101.619 65.9313C101.396 65.8593 101.142 65.7873 100.92 65.7087C100.776 65.6367 100.587 65.5647 100.443 65.4861L101.07 63.758C101.403 63.9413 101.769 64.0918 102.134 64.1638C102.696 64.3209 103.245 64.3929 103.761 64.3602Z" fill="#DADEE3"/>
<path d="M111.873 64.3602C112.127 64.3602 112.389 64.3209 112.643 64.2882C112.826 64.2489 112.976 64.1769 113.12 64.0656C113.231 63.9936 113.303 63.8823 113.375 63.7318C113.414 63.5878 113.447 63.4765 113.447 63.3259C113.447 62.9921 113.264 62.6975 113.009 62.5535C112.532 62.2589 112.016 62.0363 111.468 61.8923C111.135 61.781 110.841 61.6697 110.514 61.5257C110.22 61.3817 109.926 61.1919 109.672 60.9758C109.417 60.7533 109.195 60.498 109.045 60.1641C108.862 59.7975 108.79 59.4309 108.823 59.0251C108.823 58.6192 108.894 58.1806 109.077 57.8075C109.221 57.4409 109.482 57.1463 109.776 56.8845C110.109 56.6292 110.475 56.4066 110.88 56.2953C111.357 56.1513 111.833 56.0728 112.349 56.0728C112.937 56.0728 113.486 56.1448 114.041 56.2953C114.446 56.4066 114.851 56.5506 115.217 56.7732L114.59 58.5014C114.296 58.3574 114.002 58.2461 113.669 58.1348C113.264 58.0235 112.859 57.9515 112.454 57.9908C112.049 57.9515 111.683 58.0301 111.317 58.2134C111.095 58.3574 110.952 58.6192 110.984 58.8745C110.984 59.0185 111.024 59.2084 111.095 59.3131C111.206 59.4571 111.317 59.5684 111.461 59.647C111.644 59.7582 111.794 59.8303 112.01 59.9023C112.193 59.9743 112.415 60.0463 112.669 60.1576C113.185 60.3409 113.623 60.5241 113.989 60.7074C114.322 60.8515 114.648 61.074 114.91 61.3359C115.164 61.5912 115.347 61.853 115.458 62.1803C115.602 62.5469 115.641 62.9528 115.641 63.3586C115.68 64.1704 115.308 64.9428 114.688 65.4534C114.061 65.9313 113.107 66.1866 111.82 66.1866C111.415 66.1866 111.05 66.1473 110.684 66.1146C110.39 66.0753 110.057 66.0033 109.763 65.9313C109.358 65.82 108.953 65.676 108.587 65.4534L109.214 63.7252C110.037 64.2096 110.958 64.3929 111.873 64.3602Z" fill="#DADEE3"/>
<path d="M99.0192 19.7543C98.9473 19.3877 98.7645 19.0212 98.5032 18.7593C93.5068 14.0461 83.7033 4.55412 81.9399 2.82594C81.7178 2.60337 81.019 1.90293 81.019 1.90293C78.6351 0.20747 76.2838 0.0241771 74.0044 2.1975L57.415 18.9819C57.3431 18.9099 57.3039 18.8379 57.2321 18.7593C52.2749 14.0461 42.4322 4.55412 40.708 2.82594C40.4859 2.60337 39.8263 1.90293 39.8263 1.90293C37.4423 0.20747 35.0911 0.0241771 32.8117 2.1975L0.86723 34.5487C0.135728 35.2491 0.135728 36.4274 0.86723 37.1606L0.906418 37.1999C4.1394 40.2896 12.0684 47.8701 13.133 48.8651C13.7926 49.4936 14.8572 49.4936 15.5169 48.8258L42.4322 21.5152C43.4968 20.4089 44.7117 19.4925 46.031 18.7528C46.9519 18.2356 48.4933 17.9803 49.2966 18.2029C49.9955 18.3862 53.3329 20.2649 55.0637 21.404L42.1057 34.5487C41.3742 35.2491 41.3742 36.4274 42.1057 37.1606L42.1449 37.1999C45.3778 40.2896 53.3068 47.8701 54.3714 48.8651C55.0311 49.4936 56.0957 49.4936 56.7553 48.8258L83.6707 21.5152C84.7353 20.4089 85.9501 19.4925 87.2694 18.7528C88.1903 18.2029 89.7317 17.9803 90.535 18.2029C91.2339 18.3862 94.7216 20.3762 96.4132 21.476C96.7463 21.6985 97.1447 21.8098 97.5496 21.7313H97.5888C98.5424 21.5938 99.1694 20.7101 99.0192 19.7543Z" fill="#DADEE3"/>
<path d="M89.8755 34.0312L100.012 23.8715C101.188 22.6932 103.095 22.6932 104.31 23.8715L114.407 34.0312C115.583 35.2095 115.583 37.121 114.407 38.3386L104.27 48.4589C103.095 49.6372 101.188 49.6372 99.9728 48.4589L89.8363 38.2993C88.6998 37.121 88.6998 35.2095 89.8755 34.0312Z" fill="#DADEE3"/>
</svg>
