<svg width="306" height="76" viewBox="0 0 306 76" fill="none" xmlns="http://www.w3.org/2000/svg">
<path d="M16.2912 0.321777C17.7576 0.483077 19.224 0.644376 20.6903 0.805676C27.5236 1.62684 33.5503 4.38359 38.7705 8.78267C40.3982 10.0877 40.5595 11.8767 39.4157 13.1817C38.272 14.4868 36.6443 14.6481 35.0167 13.343C28.1834 7.96151 20.5144 5.68865 11.8922 6.83241C11.5696 6.83241 11.4083 6.99371 10.7484 6.99371C21.0129 14.8094 26.5411 25.0739 26.5411 37.7726C26.5411 50.6326 21.1596 60.8971 10.7484 68.7128C11.7309 68.8887 12.5374 69.05 13.1972 69.05C21.6728 69.6952 29.3272 67.4224 35.6765 61.7182C45.7797 52.4362 48.5365 41.2039 44.9586 28.0066C44.3134 25.8951 43.3309 23.7689 42.1871 21.8186C41.0434 19.707 41.8645 18.2407 43.3309 17.4195C44.7973 16.5984 46.4249 17.2582 47.4074 18.8859C53.4341 29.9569 54.4166 41.3652 49.1963 52.9201C43.8148 64.9735 34.5328 72.3054 21.6728 74.7395C19.7225 75.0621 17.9336 75.2234 15.9686 75.3847H15.8074C15.3235 75.3847 14.9862 75.2234 14.5023 75.2234C10.5871 75.2234 6.8479 74.2409 3.26998 72.9505C1.64232 72.4666 0.337263 71.6455 0.0146636 69.8565V69.3726C0.498562 67.9063 1.64232 67.0998 2.94738 66.4399C7.50776 64.4897 11.247 61.3956 14.1797 57.3192C18.7401 51.1311 21.0129 44.1219 20.529 36.4675C19.8692 24.1061 14.0037 14.9854 2.93272 9.44253C1.62766 8.79733 0.483898 7.97617 0 6.50981V6.02591C0.322599 4.39826 1.46636 3.4158 3.09402 2.9319C5.36687 2.2867 7.49309 1.62684 9.76595 1.14294C11.7309 0.805676 13.8424 0.644376 15.7927 0.483077H16.2766V0.321777H16.2912Z" fill="white"/>
<path d="M80.6205 27.2002H81.2657H81.427H81.5883C81.5883 27.2002 81.5883 27.2002 81.5883 27.3615V27.5228V50.486V50.6473V50.8086C81.5883 50.8086 81.5883 50.8086 81.427 50.8086H81.2657H80.6205H80.4592H80.2979C80.2979 50.8086 80.2979 50.8086 80.2979 50.6473V50.486V29.7957V29.6344C80.2979 29.6344 80.2979 29.6344 80.1366 29.7957L73.9485 39.5616L73.7872 39.7229H73.6113H73.2887C73.1274 39.7229 73.1274 39.7229 73.1274 39.7229L72.9661 39.5616L66.6167 29.7957C66.6167 29.7957 66.6167 29.6344 66.4554 29.7957V50.486V50.6473V50.8086C66.4554 50.8086 66.4554 50.8086 66.2941 50.8086H66.1328H65.4876H65.3263H65.165C65.165 50.8086 65.165 50.8086 65.165 50.6473V50.486V27.5228V27.3615V27.2002C65.165 27.2002 65.165 27.2002 65.3263 27.2002H65.4876H66.1328C66.2941 27.2002 66.2941 27.2002 66.2941 27.2002L66.4554 27.3615L73.2887 37.9486L79.9606 27.3615L80.1219 27.2002C80.4592 27.2002 80.4592 27.2002 80.6205 27.2002Z" fill="white"/>
<path d="M90.2257 49.8408C89.0819 49.0197 88.4367 47.8906 88.1141 46.5855C87.9528 46.1016 87.9528 45.4417 87.7915 44.7965C87.7915 44.1513 87.7915 43.3302 87.7915 42.3477C87.7915 41.3653 87.7915 40.3975 87.7915 39.7376C87.7915 39.2537 87.9528 38.5938 88.1141 38.1099C88.4367 36.8049 89.2579 35.6611 90.2257 34.8546C91.3694 34.0335 92.6745 33.5496 94.1408 33.5496C95.7685 33.5496 97.0736 34.0335 98.056 34.8546C99.1998 35.6758 99.845 36.8049 100.168 38.1099C100.329 38.5938 100.329 39.2537 100.329 39.7376C100.329 40.3828 100.329 41.204 100.329 42.3477C100.329 43.4915 100.329 44.298 100.329 44.9578C100.329 45.4417 100.168 46.1016 100.168 46.5855C99.845 47.8906 99.0238 49.0343 98.056 49.8408C96.9123 50.662 95.6072 51.1459 93.9795 51.1459C92.5132 50.9699 91.2081 50.6473 90.2257 49.8408ZM97.3962 48.8583C98.2173 48.2132 98.8625 47.2307 99.0238 46.0869C99.1851 45.603 99.1851 45.1045 99.1851 44.6206C99.1851 43.9754 99.1851 43.1542 99.1851 42.509C99.1851 41.6879 99.1851 40.8814 99.1851 40.2362C99.1851 39.7523 99.1851 39.2537 99.0238 38.7698C98.8625 37.626 98.2027 36.6582 97.3962 35.9984C96.575 35.3532 95.4459 34.8546 94.1408 34.8546C92.8358 34.8546 91.8533 35.1772 90.8855 35.9984C90.0644 36.6436 89.4192 37.626 89.2579 38.7698C89.0966 39.0924 89.0966 40.3975 89.0966 42.3477C89.0966 44.298 89.0966 45.4417 89.2579 46.0869C89.4192 47.2307 90.079 48.1985 90.8855 48.8583C91.7067 49.5035 92.8358 49.8408 94.1408 49.8408C95.4459 49.8408 96.4137 49.5035 97.3962 48.8583Z" fill="white"/>
<path d="M107.983 49.8408C106.839 49.0197 106.194 47.8906 105.871 46.5855C105.71 46.1016 105.71 45.4417 105.549 44.7965C105.549 44.1513 105.549 43.3302 105.549 42.3477C105.549 41.3653 105.549 40.3975 105.549 39.7376C105.549 39.2537 105.71 38.5938 105.871 38.1099C106.194 36.8049 107.015 35.6611 107.983 34.8546C109.127 34.0335 110.432 33.5496 111.898 33.5496C113.526 33.5496 114.831 34.0335 115.975 34.8546C117.118 35.6758 117.764 36.8049 118.086 38.1099C118.247 38.5938 118.247 39.2537 118.247 39.7376C118.247 40.3828 118.247 41.204 118.247 42.3477C118.247 43.4915 118.247 44.298 118.247 44.9578C118.247 45.4417 118.086 46.1016 118.086 46.5855C117.764 47.8906 116.942 49.0343 115.975 49.8408C114.831 50.662 113.526 51.1459 111.898 51.1459C110.432 50.9699 109.127 50.6473 107.983 49.8408ZM115.153 48.8583C115.975 48.2132 116.62 47.2307 116.781 46.0869C116.942 45.603 116.942 45.1045 116.942 44.6206C116.942 43.9754 116.942 43.1542 116.942 42.509C116.942 41.6879 116.942 40.8814 116.942 40.2362C116.942 39.7523 116.942 39.2537 116.781 38.7698C116.62 37.626 115.96 36.6582 115.153 35.9984C114.332 35.3532 113.203 34.8546 111.898 34.8546C110.593 34.8546 109.625 35.1772 108.643 35.9984C107.822 36.6436 107.176 37.626 107.015 38.7698C106.854 39.415 106.854 40.5588 106.854 42.509C106.854 44.4593 106.854 45.603 107.015 46.2482C107.176 47.392 107.836 48.3598 108.643 49.0196C109.464 49.6648 110.593 50.0021 111.898 50.0021C113.189 49.8408 114.332 49.5035 115.153 48.8583Z" fill="white"/>
<path d="M134.362 35.1772C135.345 36.1597 135.99 37.6261 135.99 39.2537V50.486V50.6473V50.8086C135.99 50.8086 135.99 50.8086 135.829 50.8086H135.667H135.022H134.861H134.699C134.699 50.8086 134.699 50.8086 134.699 50.6473V50.486V39.5763C134.699 38.11 134.216 36.9662 133.394 36.1597C132.573 35.3385 131.444 34.8546 130.139 34.8546C128.673 34.8546 127.529 35.3385 126.722 36.1597C125.901 36.9809 125.417 38.11 125.417 39.5763V50.486V50.6473V50.8086C125.417 50.8086 125.417 50.8086 125.256 50.8086H125.08H124.435H124.274H124.112C124.112 50.8086 124.112 50.8086 124.112 50.6473V50.486V34.1948V34.0335V33.8722C124.112 33.8722 124.112 33.8722 124.274 33.8722H124.435H124.919H125.08H125.241C125.241 33.8722 125.241 33.8722 125.241 34.0335V34.1948V35.9837V36.145C125.241 36.145 125.241 36.145 125.403 36.145C125.887 35.3239 126.546 34.6787 127.353 34.3561C128.174 33.8722 129.142 33.7109 130.286 33.7109C131.928 33.5496 133.394 34.0335 134.362 35.1772Z" fill="white"/>
<path d="M149.847 34.0333C150.009 34.0333 150.009 34.1946 150.009 34.5172L149.847 35.1624C149.847 35.3237 149.686 35.485 149.525 35.3237C149.041 35.1624 148.381 35.0011 147.897 35.1624C147.076 35.1624 146.27 35.3237 145.61 35.8076C144.964 36.2915 144.305 36.9513 143.982 37.7578C143.659 38.579 143.337 39.3855 143.337 40.368V50.4712V50.6325V50.7938C143.337 50.7938 143.337 50.7938 143.175 50.7938H143.014H142.369H142.208H142.046C142.046 50.7938 142.046 50.7938 142.046 50.6325V50.4712V34.1946V34.0333V33.872C142.046 33.872 142.046 33.872 142.208 33.872H142.369H143.014H143.175H143.337C143.337 33.872 143.337 33.872 143.337 34.0333V34.1946V36.8047V36.966C143.337 36.966 143.337 36.966 143.498 36.8047C143.982 35.9835 144.642 35.1771 145.287 34.5319C146.108 34.048 147.076 33.7107 148.058 33.7107C148.704 33.7107 149.349 33.872 149.847 34.0333Z" fill="white"/>
<path d="M155.537 49.8408C154.393 49.0197 153.748 47.8906 153.425 46.5855C153.264 46.1016 153.264 45.4417 153.103 44.7965C153.103 44.1513 153.103 43.3302 153.103 42.3477C153.103 41.3653 153.103 40.3975 153.103 39.7376C153.103 39.2537 153.264 38.5938 153.425 38.1099C153.748 36.8049 154.569 35.6611 155.537 34.8546C156.68 34.0335 157.986 33.5496 159.452 33.5496C160.918 33.5496 162.385 34.0335 163.528 34.8546C164.672 35.6758 165.317 36.8049 165.64 38.1099C165.801 38.5938 165.801 39.2537 165.801 39.7376C165.801 40.3828 165.801 41.204 165.801 42.3477C165.801 43.4915 165.801 44.298 165.801 44.9578C165.801 45.4417 165.64 46.1016 165.64 46.5855C165.317 47.8906 164.496 49.0343 163.528 49.8408C162.385 50.662 161.08 51.1459 159.452 51.1459C157.986 50.9699 156.68 50.6473 155.537 49.8408ZM162.707 48.8583C163.528 48.2132 164.174 47.2307 164.335 46.0869C164.496 45.603 164.496 45.1045 164.496 44.6206C164.496 43.9754 164.496 43.1542 164.496 42.509C164.496 41.6879 164.496 40.8814 164.496 40.2362C164.496 39.7523 164.496 39.2537 164.335 38.7698C164.174 37.626 163.514 36.6582 162.707 35.9984C161.886 35.3532 160.757 34.8546 159.452 34.8546C158.147 34.8546 157.179 35.1772 156.197 35.9984C155.375 36.6436 154.73 37.626 154.569 38.7698C154.408 39.415 154.408 40.5588 154.408 42.509C154.408 44.4593 154.408 45.603 154.569 46.2482C154.73 47.392 155.39 48.3598 156.197 49.0196C157.018 49.6648 158.147 50.0021 159.452 50.0021C160.757 49.8408 161.886 49.5035 162.707 48.8583Z" fill="white"/>
<path d="M173.455 49.8408C172.311 49.0196 171.666 47.8906 171.344 46.5855C171.021 45.603 171.021 44.1367 171.021 42.3477C171.021 40.5588 171.182 39.2537 171.344 38.1099C171.666 36.8049 172.326 35.6611 173.455 34.8546C174.599 34.0335 175.904 33.5496 177.37 33.5496C178.837 33.5496 180.303 33.8722 181.286 34.6933C182.429 35.5145 183.074 36.4823 183.397 37.626C183.558 37.9486 183.558 38.2712 183.558 38.4472C183.558 38.6085 183.397 38.7698 183.236 38.7698H182.591C182.429 38.7698 182.268 38.6085 182.268 38.4472L182.107 37.9633C181.945 36.9808 181.286 36.1743 180.479 35.3532C179.497 34.708 178.529 34.3707 177.224 34.3707C175.919 34.3707 174.775 34.6933 173.968 35.3532C173.147 35.9984 172.502 36.9808 172.341 38.1246C172.179 39.1071 172.018 40.2362 172.018 41.8638C172.018 43.3302 172.179 44.6352 172.341 45.603C172.502 46.7468 173.162 47.7146 173.968 48.3745C174.79 49.0196 175.919 49.5182 177.224 49.5182C178.529 49.5182 179.673 49.1956 180.479 48.5358C181.461 47.8906 181.945 47.0694 182.107 45.9256V45.7643C182.107 45.603 182.268 45.4417 182.429 45.4417L182.913 45.603C183.074 45.603 183.236 45.7643 183.236 45.9256V46.0869C183.236 46.2482 183.236 46.2482 183.236 46.4095C182.913 47.5533 182.253 48.6824 181.124 49.3422C179.995 50.0021 178.675 50.486 177.048 50.486C175.904 50.9699 174.599 50.6473 173.455 49.8408Z" fill="white"/>
<path d="M188.604 50.486V27.5228V27.3615V27.2002C188.604 27.2002 188.604 27.2002 188.765 27.2002H188.926H189.571H189.733H189.894C189.894 27.2002 189.894 27.2002 189.894 27.3615V27.5228V42.3477C189.894 42.3477 189.894 42.3477 190.055 42.3477L198.355 33.8721L198.516 33.7108H198.677H199.499C199.66 33.7108 199.66 33.7108 199.821 33.8721C199.821 33.8721 199.821 34.0334 199.66 34.1947L195.422 38.5938C195.422 38.5938 195.422 38.5938 195.422 38.7551L200.466 50.3247V50.486C200.466 50.6473 200.305 50.8086 200.144 50.8086H199.499C199.337 50.8086 199.337 50.8086 199.337 50.8086L199.176 50.6473L194.454 39.8989C194.454 39.7376 194.293 39.7376 194.293 39.8989L189.894 44.2979C189.894 44.2979 189.894 44.2979 189.894 44.4592V50.486V50.6473V50.8086C189.894 50.8086 189.894 50.8086 189.733 50.8086H189.571H188.926H188.765H188.604C188.604 50.6473 188.604 50.6473 188.604 50.486Z" fill="white"/>
<path d="M214.822 50.1633C213.678 49.6794 212.871 48.697 212.211 47.7145C211.566 46.5707 211.229 45.4416 211.229 43.9753V34.0334C211.229 32.567 211.552 31.4232 212.211 30.2942C212.871 29.1651 213.678 28.3439 214.822 27.8453C215.965 27.2001 217.27 27.0242 218.737 27.0242C220.203 27.0242 221.508 27.3468 222.652 27.8453C223.796 28.3292 224.602 29.3117 225.262 30.2942C225.907 31.4379 226.245 32.567 226.245 34.0334V34.1947V34.356C226.245 34.356 226.245 34.356 226.083 34.356H225.922H225.277C225.115 34.356 224.954 34.1947 224.954 34.0334V33.8721C224.954 32.0831 224.47 30.778 223.326 29.6343C222.183 28.4905 220.716 28.0066 218.927 28.0066C217.138 28.0066 215.511 28.4905 214.367 29.6343C213.223 30.778 212.739 32.0831 212.739 33.8721V43.9753C212.739 45.7642 213.223 47.2306 214.367 48.2131C215.511 49.3568 216.977 49.8407 218.927 49.8407C220.716 49.8407 222.183 49.3568 223.326 48.2131C224.47 47.0693 224.954 45.7642 224.954 43.9753C224.954 43.814 225.115 43.6527 225.277 43.6527H225.922C226.083 43.6527 226.245 43.814 226.245 43.9753C226.245 45.4416 225.922 46.5854 225.262 47.7145C224.617 48.8583 223.796 49.6648 222.652 50.1633C221.508 50.8085 220.203 50.9845 218.737 50.9845C217.27 51.1311 215.965 50.8085 214.822 50.1633Z" fill="white"/>
<path d="M241.216 35.0159C242.199 35.9983 242.683 37.4647 242.683 39.0923V50.4859V50.6472V50.8085C242.683 50.8085 242.683 50.8085 242.521 50.8085H242.36H241.715H241.554H241.392C241.392 50.8085 241.392 50.8085 241.392 50.6472V50.4859V48.8583C241.392 48.8583 241.392 48.8583 241.231 48.8583C240.586 49.6794 239.926 50.3246 238.958 50.6472C237.976 50.9698 236.847 51.2924 235.864 51.2924C234.398 51.2924 233.093 50.9698 231.949 50.1487C230.966 49.3275 230.321 48.1984 230.321 46.5708C230.321 44.9431 230.966 43.638 232.11 42.6556C233.254 41.6731 235.043 41.1892 237.155 41.1892H241.231V39.0777C241.231 37.7726 240.908 36.6288 240.087 35.8224C239.266 35.0012 238.137 34.6786 236.671 34.6786C235.527 34.6786 234.559 35.0012 233.738 35.4998C232.917 35.9837 232.433 36.6435 232.272 37.6113C232.272 37.7726 232.11 37.9339 231.949 37.9339L231.304 37.7726C231.142 37.7726 231.142 37.7726 231.142 37.6113C231.142 37.6113 231.142 37.6113 231.142 37.45C231.142 37.45 231.142 37.45 231.142 37.2887C231.304 36.145 231.964 35.1772 233.093 34.5173C234.075 33.8721 235.542 33.3735 237.008 33.3735C238.768 33.5495 240.234 34.0334 241.216 35.0159ZM239.75 48.697C240.894 48.0518 241.378 46.908 241.378 45.603V42.3477H237.301C235.673 42.3477 234.207 42.6703 233.225 43.4914C232.242 44.1366 231.597 45.2804 231.597 46.5854C231.597 47.7292 231.92 48.697 232.741 49.1956C233.562 49.8407 234.53 50.178 235.835 50.178C237.301 49.8407 238.606 49.5035 239.75 48.697Z" fill="white"/>
<path d="M260.924 39.7374C260.924 40.3826 260.924 41.2038 260.924 42.3475C260.924 43.33 260.924 44.2978 260.924 44.9577C260.924 45.6029 260.762 46.1014 260.601 46.7466C260.278 48.0517 259.619 49.1954 258.489 50.0019C257.507 50.8231 256.217 51.307 254.574 51.307C253.592 51.307 252.624 51.1457 251.803 50.6618C250.982 50.1779 250.336 49.6793 249.853 48.8728C249.853 48.8728 249.853 48.8728 249.691 48.8728C249.691 48.8728 249.691 48.8728 249.691 49.0341V57.5097V57.671V57.8323C249.691 57.8323 249.691 57.8323 249.53 57.8323H249.369H248.723H248.562H248.401C248.401 57.8323 248.401 57.8323 248.401 57.671V57.5097V34.1946V34.0333V33.872C248.401 33.872 248.401 33.872 248.562 33.872H248.723H249.369H249.53H249.691C249.691 33.872 249.691 33.872 249.691 34.0333V34.1946V35.9835V36.1448H249.853C250.336 35.3237 250.996 34.6785 251.803 34.3559C252.624 33.872 253.592 33.7107 254.574 33.7107C256.041 33.7107 257.346 34.0333 258.313 34.8545C259.296 35.6756 260.102 36.8047 260.425 38.1098C260.748 38.5937 260.924 39.0776 260.924 39.7374ZM259.457 44.943C259.457 44.4591 259.457 43.6379 259.457 42.3329C259.457 41.0278 259.457 40.2213 259.457 39.7228C259.457 39.2389 259.296 38.7403 259.296 38.4177C259.135 37.4352 258.475 36.4674 257.668 35.8076C256.847 35.1624 255.718 34.8251 254.574 34.8251C253.431 34.8251 252.463 35.1477 251.642 35.8076C250.82 36.4528 250.336 37.4352 250.175 38.4177C250.014 38.9016 250.014 39.2389 250.014 39.7228C250.014 40.2067 250.014 41.0278 250.014 42.3329C250.014 43.6379 250.014 44.4444 250.014 44.943C250.014 45.4269 250.175 45.9255 250.175 46.4094C250.336 47.3918 250.82 48.3596 251.642 49.0195C252.463 49.6647 253.431 50.0019 254.574 50.0019C255.718 50.0019 256.686 49.6793 257.668 49.0195C258.489 48.3743 259.135 47.5531 259.296 46.4094C259.457 45.9255 259.457 45.4416 259.457 44.943Z" fill="white"/>
<path d="M266.614 29.7956C266.452 29.6343 266.291 29.473 266.291 29.3117C266.291 29.1504 266.13 28.9891 266.13 28.6665C266.13 28.5052 266.13 28.1826 266.291 28.0213C266.291 27.86 266.452 27.6987 266.614 27.5374C266.775 27.3761 266.936 27.2148 267.098 27.2148C267.259 27.2148 267.42 27.0535 267.743 27.0535C267.904 27.0535 268.227 27.0535 268.388 27.2148C268.549 27.2148 268.711 27.3761 268.872 27.5374C269.033 27.6987 269.195 27.86 269.195 28.0213C269.195 28.1826 269.356 28.3439 269.356 28.6665C269.356 28.8278 269.356 28.9891 269.195 29.3117C269.195 29.473 269.033 29.6343 268.872 29.7956C268.549 30.1182 268.227 30.2795 267.728 30.2795C267.274 30.1328 266.951 29.9569 266.614 29.7956ZM266.951 50.3246V34.1946C266.951 34.0333 267.112 33.872 267.274 33.872H267.919H268.08H268.241C268.241 33.872 268.241 33.872 268.241 34.0333C268.241 34.1946 268.241 34.1946 268.241 34.1946V50.4859V50.6472V50.8085C268.241 50.8085 268.241 50.8085 268.08 50.8085H267.919H267.274C267.112 50.6472 266.951 50.6472 266.951 50.3246Z" fill="white"/>
<path d="M281.277 35.0159H277.201V46.2482C277.201 47.392 277.524 48.3598 278.022 48.8583C278.506 49.3422 279.488 49.5035 280.632 49.5035H281.453H281.615H281.776C281.776 49.5035 281.776 49.5035 281.776 49.6648V49.8261V50.4713V50.6326V50.7939C281.776 50.7939 281.776 50.7939 281.615 50.7939H281.453H280.632C279.166 50.7939 278.022 50.4713 277.216 49.8115C276.409 49.1516 276.072 48.1838 276.072 46.5561V35.1625H273.96H273.799H273.638C273.638 35.1625 273.638 35.1625 273.638 35.0012V34.8399V34.1947V34.0334V33.8721C273.638 33.8721 273.638 33.8721 273.799 33.8721H273.96H276.072V30.1329V29.9716V29.7957C276.072 29.7957 276.072 29.7957 276.233 29.7957H276.394H277.04H277.201H277.362C277.362 29.7957 277.362 29.7957 277.362 29.957V30.1183V33.8575H281.439H281.6H281.761C281.761 33.8575 281.761 33.8575 281.761 34.0188V34.1801V34.664V34.8253V34.9866C281.6 34.8546 281.6 35.0159 281.277 35.0159C281.439 35.0159 281.439 35.0159 281.277 35.0159Z" fill="white"/>
<path d="M296.747 35.0159C297.73 35.9983 298.213 37.4647 298.213 39.0923V50.4859V50.6472V50.8085C298.213 50.8085 298.213 50.8085 298.052 50.8085H297.891H297.246H297.084H296.923C296.923 50.8085 296.923 50.8085 296.923 50.6472V50.4859V48.8583C296.923 48.8583 296.923 48.8583 296.762 48.8583C296.117 49.6794 295.457 50.3246 294.489 50.6472C293.521 50.9698 292.377 51.2924 291.395 51.2924C289.929 51.2924 288.623 50.9698 287.48 50.1487C286.497 49.3275 285.852 48.1984 285.852 46.5708C285.852 44.9431 286.497 43.638 287.641 42.6556C288.785 41.6731 290.574 41.1892 292.685 41.1892H296.762V39.0777C296.762 37.7726 296.439 36.6288 295.618 35.8224C294.797 35.0012 293.668 34.6786 292.201 34.6786C291.058 34.6786 290.09 35.0012 289.269 35.4998C288.448 35.9837 287.964 36.6435 287.802 37.6113C287.802 37.7726 287.641 37.9339 287.48 37.9339L286.835 37.7726C286.673 37.7726 286.673 37.7726 286.673 37.6113C286.673 37.6113 286.673 37.6113 286.673 37.45C286.673 37.45 286.673 37.45 286.673 37.2887C286.835 36.145 287.494 35.1772 288.623 34.5173C289.606 33.8721 291.072 33.3735 292.539 33.3735C294.313 33.5495 295.779 34.0334 296.747 35.0159ZM295.119 48.697C296.263 48.0518 296.747 46.908 296.747 45.603V42.3477H292.671C291.043 42.3477 289.577 42.6703 288.594 43.4914C287.612 44.1366 286.966 45.2804 286.966 46.5854C286.966 47.7292 287.289 48.697 288.11 49.1956C288.931 49.8407 289.899 50.178 291.204 50.178C292.847 49.8407 294.137 49.5035 295.119 48.697Z" fill="white"/>
<path d="M303.756 50.486V27.5228V27.3615V27.2002C303.756 27.2002 303.756 27.2002 303.917 27.2002H304.078H304.724H304.885H305.046C305.046 27.2002 305.046 27.2002 305.046 27.3615V27.5228V50.486V50.6473V50.8086C305.046 50.8086 305.046 50.8086 304.885 50.8086H304.724H304.078H303.917H303.756C303.756 50.6473 303.756 50.6473 303.756 50.486Z" fill="white"/>
</svg>
