<svg width="305" height="76" viewBox="0 0 305 76" fill="none" xmlns="http://www.w3.org/2000/svg">
<path d="M17.1906 0.726074C18.6499 0.88659 20.1091 1.04711 21.5683 1.20762C28.3684 2.02479 34.3658 4.76816 39.5607 9.14586C41.1805 10.4446 41.341 12.2249 40.2028 13.5236C39.0646 14.8223 37.4448 14.9828 35.8251 13.6841C29.025 8.32869 21.3932 6.06688 12.8129 7.20508C12.4919 7.20508 12.3314 7.3656 11.6747 7.3656C21.8894 15.1433 27.3907 25.358 27.3907 37.995C27.3907 50.7925 22.0353 61.0071 11.6747 68.7848C12.6524 68.9599 13.455 69.1205 14.1116 69.1205C22.546 69.7625 30.1632 67.5007 36.4817 61.8243C46.5359 52.5873 49.2792 41.4096 45.7187 28.2764C45.0766 26.1751 44.0989 24.0593 42.9607 22.1185C41.8225 20.0172 42.6397 18.5579 44.0989 17.7408C45.5582 16.9236 47.1779 17.5802 48.1556 19.2C54.1531 30.2172 55.1308 41.5701 49.9359 53.0689C44.5805 65.0638 35.3435 72.36 22.546 74.7823C20.6052 75.1033 18.825 75.2638 16.8696 75.4244H16.7091C16.2275 75.4244 15.8919 75.2638 15.4104 75.2638C11.5142 75.2638 7.79315 74.2861 4.23261 73.002C2.61286 72.5205 1.31414 71.7033 0.993108 69.923V69.4415C1.47466 67.9823 2.61286 67.1797 3.91158 66.523C8.4498 64.5822 12.1709 61.5032 15.0893 57.4466C19.6275 51.2886 21.8894 44.3134 21.4078 36.6962C20.7512 24.3949 14.9142 15.3184 3.89699 9.80252C2.59827 9.16046 1.46006 8.34328 0.978516 6.88405V6.4025C1.29955 4.78275 2.43775 3.80506 4.0575 3.32351C6.31932 2.68145 8.43521 2.02479 10.697 1.54325C12.6524 1.20762 14.7537 1.04711 16.6945 0.88659H17.176V0.726074H17.1906Z" fill="#DADEE3"/>
<path d="M81.2072 27.4736H81.8493H82.0098H82.1703C82.1703 27.4736 82.1703 27.4736 82.1703 27.6341V27.7947V50.6463V50.8068V50.9673C82.1703 50.9673 82.1703 50.9673 82.0098 50.9673H81.8493H81.2072H81.0467H80.8862C80.8862 50.9673 80.8862 50.9673 80.8862 50.8068V50.6463V30.0565V29.896C80.8862 29.896 80.8862 29.896 80.7257 30.0565L74.5677 39.775L74.4072 39.9355H74.2321H73.9111C73.7506 39.9355 73.7506 39.9355 73.7506 39.9355L73.59 39.775L67.2716 30.0565C67.2716 30.0565 67.2715 29.896 67.111 30.0565V50.6463V50.8068V50.9673C67.111 50.9673 67.111 50.9673 66.9505 50.9673H66.79H66.1479H65.9874H65.8269C65.8269 50.9673 65.8269 50.9673 65.8269 50.8068V50.6463V27.7947V27.6341V27.4736C65.8269 27.4736 65.8269 27.4736 65.9874 27.4736H66.1479H66.79C66.9505 27.4736 66.9505 27.4736 66.9505 27.4736L67.111 27.6341L73.9111 38.1698L80.5506 27.6341L80.7111 27.4736C81.0467 27.4736 81.0467 27.4736 81.2072 27.4736Z" fill="#DADEE3"/>
<path d="M90.7656 50.0041C89.6274 49.1869 88.9853 48.0633 88.6643 46.7646C88.5038 46.2831 88.5038 45.6264 88.3433 44.9843C88.3433 44.3423 88.3433 43.5251 88.3433 42.5474C88.3433 41.5697 88.3433 40.6066 88.3433 39.95C88.3433 39.4684 88.5038 38.8118 88.6643 38.3302C88.9853 37.0315 89.8025 35.8933 90.7656 35.0907C91.9038 34.2735 93.2025 33.792 94.6617 33.792C96.2815 33.792 97.5802 34.2735 98.5579 35.0907C99.6961 35.9079 100.338 37.0315 100.659 38.3302C100.82 38.8118 100.82 39.4684 100.82 39.95C100.82 40.592 100.82 41.4092 100.82 42.5474C100.82 43.6856 100.82 44.4882 100.82 45.1448C100.82 45.6264 100.659 46.2831 100.659 46.7646C100.338 48.0633 99.521 49.2015 98.5579 50.0041C97.4197 50.8213 96.121 51.3028 94.5012 51.3028C93.042 51.1277 91.7433 50.8067 90.7656 50.0041ZM97.9013 49.0264C98.7184 48.3844 99.3605 47.4067 99.521 46.2685C99.6815 45.7869 99.6815 45.2908 99.6815 44.8092C99.6815 44.1672 99.6815 43.35 99.6815 42.7079C99.6815 41.8908 99.6815 41.0882 99.6815 40.4461C99.6815 39.9646 99.6815 39.4684 99.521 38.9869C99.3605 37.8487 98.7038 36.8856 97.9013 36.2289C97.0841 35.5869 95.9605 35.0907 94.6617 35.0907C93.363 35.0907 92.3853 35.4117 91.4222 36.2289C90.6051 36.871 89.963 37.8487 89.8025 38.9869C89.642 39.3079 89.642 40.6066 89.642 42.5474C89.642 44.4882 89.642 45.6264 89.8025 46.2685C89.963 47.4067 90.6197 48.3698 91.4222 49.0264C92.2394 49.6685 93.363 50.0041 94.6617 50.0041C95.9605 50.0041 96.9236 49.6685 97.9013 49.0264Z" fill="#DADEE3"/>
<path d="M108.437 50.0041C107.299 49.1869 106.656 48.0633 106.335 46.7646C106.175 46.2831 106.175 45.6264 106.014 44.9843C106.014 44.3423 106.014 43.5251 106.014 42.5474C106.014 41.5697 106.014 40.6066 106.014 39.95C106.014 39.4684 106.175 38.8118 106.335 38.3302C106.656 37.0315 107.474 35.8933 108.437 35.0907C109.575 34.2735 110.874 33.792 112.333 33.792C113.953 33.792 115.251 34.2735 116.39 35.0907C117.528 35.9079 118.17 37.0315 118.491 38.3302C118.651 38.8118 118.651 39.4684 118.651 39.95C118.651 40.592 118.651 41.4092 118.651 42.5474C118.651 43.6856 118.651 44.4882 118.651 45.1448C118.651 45.6264 118.491 46.2831 118.491 46.7646C118.17 48.0633 117.353 49.2015 116.39 50.0041C115.251 50.8213 113.953 51.3028 112.333 51.3028C110.874 51.1277 109.575 50.8067 108.437 50.0041ZM115.572 49.0264C116.39 48.3844 117.032 47.4067 117.192 46.2685C117.353 45.7869 117.353 45.2908 117.353 44.8092C117.353 44.1672 117.353 43.35 117.353 42.7079C117.353 41.8908 117.353 41.0882 117.353 40.4461C117.353 39.9646 117.353 39.4684 117.192 38.9869C117.032 37.8487 116.375 36.8856 115.572 36.2289C114.755 35.5869 113.632 35.0907 112.333 35.0907C111.034 35.0907 110.071 35.4117 109.093 36.2289C108.276 36.871 107.634 37.8487 107.474 38.9869C107.313 39.6289 107.313 40.7671 107.313 42.7079C107.313 44.6487 107.313 45.7869 107.474 46.429C107.634 47.5672 108.291 48.5303 109.093 49.1869C109.911 49.829 111.034 50.1646 112.333 50.1646C113.617 50.0041 114.755 49.6685 115.572 49.0264Z" fill="#DADEE3"/>
<path d="M134.688 35.4122C135.666 36.3898 136.308 37.8491 136.308 39.4688V50.6466V50.8071V50.9676C136.308 50.9676 136.308 50.9676 136.147 50.9676H135.987H135.345H135.184H135.023C135.023 50.9676 135.023 50.9676 135.023 50.8071V50.6466V39.7899C135.023 38.3306 134.542 37.1924 133.725 36.3898C132.908 35.5727 131.784 35.0911 130.485 35.0911C129.026 35.0911 127.888 35.5727 127.085 36.3898C126.268 37.207 125.787 38.3306 125.787 39.7899V50.6466V50.8071V50.9676C125.787 50.9676 125.787 50.9676 125.626 50.9676H125.451H124.809H124.648H124.488C124.488 50.9676 124.488 50.9676 124.488 50.8071V50.6466V34.4345V34.274V34.1134C124.488 34.1134 124.488 34.1134 124.648 34.1134H124.809H125.29H125.451H125.611C125.611 34.1134 125.611 34.1134 125.611 34.274V34.4345V36.2147V36.3753C125.611 36.3753 125.611 36.3753 125.772 36.3753C126.253 35.5581 126.91 34.916 127.713 34.595C128.53 34.1134 129.493 33.9529 130.631 33.9529C132.266 33.7924 133.725 34.274 134.688 35.4122Z" fill="#DADEE3"/>
<path d="M150.098 34.2737C150.259 34.2737 150.259 34.4342 150.259 34.7552L150.098 35.3973C150.098 35.5578 149.938 35.7183 149.777 35.5578C149.296 35.3973 148.639 35.2368 148.157 35.3973C147.34 35.3973 146.538 35.5578 145.881 36.0393C145.239 36.5209 144.582 37.1775 144.261 37.9801C143.94 38.7973 143.619 39.5999 143.619 40.5776V50.6317V50.7922V50.9527C143.619 50.9527 143.619 50.9527 143.459 50.9527H143.298H142.656H142.495H142.335C142.335 50.9527 142.335 50.9527 142.335 50.7922V50.6317V34.4342V34.2737V34.1132C142.335 34.1132 142.335 34.1132 142.495 34.1132H142.656H143.298H143.459H143.619C143.619 34.1132 143.619 34.1132 143.619 34.2737V34.4342V37.0316V37.1921C143.619 37.1921 143.619 37.1921 143.78 37.0316C144.261 36.2145 144.918 35.4119 145.56 34.7698C146.377 34.2883 147.34 33.9526 148.318 33.9526C148.96 33.9526 149.602 34.1132 150.098 34.2737Z" fill="#DADEE3"/>
<path d="M155.759 50.0041C154.621 49.1869 153.979 48.0633 153.658 46.7646C153.498 46.2831 153.498 45.6264 153.337 44.9843C153.337 44.3423 153.337 43.5251 153.337 42.5474C153.337 41.5697 153.337 40.6066 153.337 39.95C153.337 39.4684 153.498 38.8118 153.658 38.3302C153.979 37.0315 154.796 35.8933 155.759 35.0907C156.898 34.2735 158.196 33.792 159.656 33.792C161.115 33.792 162.574 34.2735 163.712 35.0907C164.851 35.9079 165.493 37.0315 165.814 38.3302C165.974 38.8118 165.974 39.4684 165.974 39.95C165.974 40.592 165.974 41.4092 165.974 42.5474C165.974 43.6856 165.974 44.4882 165.974 45.1448C165.974 45.6264 165.814 46.2831 165.814 46.7646C165.493 48.0633 164.675 49.2015 163.712 50.0041C162.574 50.8213 161.275 51.3028 159.656 51.3028C158.196 51.1277 156.898 50.8067 155.759 50.0041ZM162.895 49.0264C163.712 48.3844 164.354 47.4067 164.515 46.2685C164.675 45.7869 164.675 45.2908 164.675 44.8092C164.675 44.1672 164.675 43.35 164.675 42.7079C164.675 41.8908 164.675 41.0882 164.675 40.4461C164.675 39.9646 164.675 39.4684 164.515 38.9869C164.354 37.8487 163.698 36.8856 162.895 36.2289C162.078 35.5869 160.954 35.0907 159.656 35.0907C158.357 35.0907 157.394 35.4117 156.416 36.2289C155.599 36.871 154.957 37.8487 154.796 38.9869C154.636 39.6289 154.636 40.7671 154.636 42.7079C154.636 44.6487 154.636 45.7869 154.796 46.429C154.957 47.5672 155.614 48.5303 156.416 49.1869C157.233 49.829 158.357 50.1646 159.656 50.1646C160.954 50.0041 162.078 49.6685 162.895 49.0264Z" fill="#DADEE3"/>
<path d="M173.591 50.0041C172.453 49.1869 171.811 48.0633 171.49 46.7646C171.169 45.7869 171.169 44.3277 171.169 42.5474C171.169 40.7671 171.329 39.4684 171.49 38.3302C171.811 37.0315 172.468 35.8933 173.591 35.0907C174.729 34.2735 176.028 33.792 177.487 33.792C178.947 33.792 180.406 34.113 181.384 34.9302C182.522 35.7474 183.164 36.7105 183.485 37.8487C183.645 38.1697 183.645 38.4907 183.645 38.6658C183.645 38.8264 183.485 38.9869 183.324 38.9869H182.682C182.522 38.9869 182.361 38.8264 182.361 38.6658L182.201 38.1843C182.04 37.2066 181.384 36.404 180.581 35.5869C179.603 34.9448 178.64 34.6092 177.342 34.6092C176.043 34.6092 174.905 34.9302 174.102 35.5869C173.285 36.2289 172.643 37.2066 172.482 38.3448C172.322 39.3225 172.161 40.4461 172.161 42.0659C172.161 43.5251 172.322 44.8238 172.482 45.7869C172.643 46.9251 173.299 47.8882 174.102 48.5449C174.919 49.1869 176.043 49.6831 177.342 49.6831C178.64 49.6831 179.778 49.362 180.581 48.7054C181.559 48.0633 182.04 47.2461 182.201 46.1079V45.9474C182.201 45.7869 182.361 45.6264 182.522 45.6264L183.003 45.7869C183.164 45.7869 183.324 45.9474 183.324 46.1079V46.2685C183.324 46.429 183.324 46.429 183.324 46.5895C183.003 47.7277 182.347 48.8513 181.223 49.508C180.099 50.1646 178.786 50.6462 177.166 50.6462C176.028 51.1277 174.729 50.8067 173.591 50.0041Z" fill="#DADEE3"/>
<path d="M188.666 50.6463V27.7947V27.6341V27.4736C188.666 27.4736 188.666 27.4736 188.826 27.4736H188.987H189.629H189.789H189.95C189.95 27.4736 189.95 27.4736 189.95 27.6341V27.7947V42.5475C189.95 42.5475 189.95 42.5475 190.11 42.5475L198.369 34.1132L198.53 33.9526H198.69H199.508C199.668 33.9526 199.668 33.9526 199.829 34.1132C199.829 34.1132 199.829 34.2737 199.668 34.4342L195.451 38.8119C195.451 38.8119 195.451 38.8119 195.451 38.9724L200.471 50.4858V50.6463C200.471 50.8068 200.31 50.9673 200.15 50.9673H199.508C199.347 50.9673 199.347 50.9673 199.347 50.9673L199.187 50.8068L194.488 40.1106C194.488 39.9501 194.327 39.9501 194.327 40.1106L189.95 44.4883C189.95 44.4883 189.95 44.4883 189.95 44.6488V50.6463V50.8068V50.9673C189.95 50.9673 189.95 50.9673 189.789 50.9673H189.629H188.987H188.826H188.666C188.666 50.8068 188.666 50.8068 188.666 50.6463Z" fill="#DADEE3"/>
<path d="M214.757 50.3256C213.619 49.844 212.816 48.8663 212.159 47.8886C211.517 46.7504 211.182 45.6268 211.182 44.1676V34.274C211.182 32.8147 211.503 31.6765 212.159 30.5529C212.816 29.4293 213.619 28.6121 214.757 28.116C215.895 27.4739 217.194 27.2988 218.653 27.2988C220.112 27.2988 221.411 27.6199 222.549 28.116C223.687 28.5976 224.49 29.5752 225.147 30.5529C225.789 31.6911 226.124 32.8147 226.124 34.274V34.4345V34.595C226.124 34.595 226.124 34.595 225.964 34.595H225.803H225.161C225.001 34.595 224.84 34.4345 224.84 34.274V34.1135C224.84 32.3332 224.359 31.0345 223.22 29.8963C222.082 28.7581 220.623 28.2765 218.843 28.2765C217.062 28.2765 215.443 28.7581 214.304 29.8963C213.166 31.0345 212.685 32.3332 212.685 34.1135V44.1676C212.685 45.9479 213.166 47.4071 214.304 48.3848C215.443 49.523 216.902 50.0045 218.843 50.0045C220.623 50.0045 222.082 49.523 223.22 48.3848C224.359 47.2466 224.84 45.9479 224.84 44.1676C224.84 44.0071 225.001 43.8466 225.161 43.8466H225.803C225.964 43.8466 226.124 44.0071 226.124 44.1676C226.124 45.6268 225.803 46.765 225.147 47.8886C224.504 49.0269 223.687 49.8294 222.549 50.3256C221.411 50.9676 220.112 51.1427 218.653 51.1427C217.194 51.2887 215.895 50.9676 214.757 50.3256Z" fill="#DADEE3"/>
<path d="M241.023 35.2515C242.001 36.2292 242.482 37.6885 242.482 39.3082V50.6465V50.807V50.9675C242.482 50.9675 242.482 50.9675 242.322 50.9675H242.161H241.519H241.359H241.198C241.198 50.9675 241.198 50.9675 241.198 50.807V50.6465V49.0267C241.198 49.0267 241.198 49.0267 241.038 49.0267C240.396 49.8439 239.739 50.486 238.776 50.807C237.798 51.128 236.675 51.449 235.697 51.449C234.238 51.449 232.939 51.128 231.801 50.3108C230.823 49.4937 230.181 48.3701 230.181 46.7503C230.181 45.1306 230.823 43.8318 231.961 42.8542C233.099 41.8765 234.88 41.3949 236.981 41.3949H241.038V39.2936C241.038 37.9949 240.717 36.8567 239.899 36.0541C239.082 35.2369 237.959 34.9159 236.499 34.9159C235.361 34.9159 234.398 35.2369 233.581 35.7331C232.764 36.2146 232.282 36.8713 232.122 37.8344C232.122 37.9949 231.961 38.1554 231.801 38.1554L231.159 37.9949C230.998 37.9949 230.998 37.9949 230.998 37.8344C230.998 37.8344 230.998 37.8344 230.998 37.6739C230.998 37.6739 230.998 37.6739 230.998 37.5133C231.159 36.3751 231.815 35.412 232.939 34.7554C233.917 34.1133 235.376 33.6172 236.835 33.6172C238.586 33.7923 240.045 34.2738 241.023 35.2515ZM239.564 48.8662C240.702 48.2241 241.184 47.0859 241.184 45.7872V42.5477H237.127C235.507 42.5477 234.048 42.8687 233.07 43.6859C232.093 44.328 231.45 45.4662 231.45 46.7649C231.45 47.9031 231.771 48.8662 232.589 49.3623C233.406 50.0044 234.369 50.34 235.668 50.34C237.127 50.0044 238.426 49.6688 239.564 48.8662Z" fill="#DADEE3"/>
<path d="M260.634 39.9501C260.634 40.5922 260.634 41.4093 260.634 42.5475C260.634 43.5252 260.634 44.4883 260.634 45.145C260.634 45.787 260.474 46.2832 260.313 46.9252C259.992 48.224 259.336 49.3622 258.212 50.1647C257.234 50.9819 255.95 51.4635 254.316 51.4635C253.338 51.4635 252.375 51.303 251.558 50.8214C250.741 50.3399 250.099 49.8437 249.617 49.0411C249.617 49.0411 249.617 49.0411 249.457 49.0411C249.457 49.0411 249.457 49.0411 249.457 49.2017V57.636V57.7965V57.9571C249.457 57.9571 249.457 57.9571 249.296 57.9571H249.136H248.494H248.333H248.173C248.173 57.9571 248.173 57.9571 248.173 57.7965V57.636V34.4342V34.2737V34.1132C248.173 34.1132 248.173 34.1132 248.333 34.1132H248.494H249.136H249.296H249.457C249.457 34.1132 249.457 34.1132 249.457 34.2737V34.4342V36.2145V36.375H249.617C250.099 35.5578 250.755 34.9157 251.558 34.5947C252.375 34.1132 253.338 33.9526 254.316 33.9526C255.775 33.9526 257.074 34.2737 258.037 35.0908C259.015 35.908 259.817 37.0316 260.138 38.3303C260.459 38.8119 260.634 39.2934 260.634 39.9501ZM259.175 45.1304C259.175 44.6488 259.175 43.8317 259.175 42.5329C259.175 41.2342 259.175 40.4316 259.175 39.9355C259.175 39.454 259.015 38.9578 259.015 38.6368C258.854 37.6591 258.198 36.696 257.395 36.0393C256.578 35.3973 255.454 35.0617 254.316 35.0617C253.178 35.0617 252.215 35.3827 251.398 36.0393C250.58 36.6814 250.099 37.6591 249.938 38.6368C249.778 39.1183 249.778 39.454 249.778 39.9355C249.778 40.4171 249.778 41.2342 249.778 42.5329C249.778 43.8317 249.778 44.6342 249.778 45.1304C249.778 45.6119 249.938 46.1081 249.938 46.5896C250.099 47.5673 250.58 48.5304 251.398 49.1871C252.215 49.8291 253.178 50.1647 254.316 50.1647C255.454 50.1647 256.417 49.8437 257.395 49.1871C258.212 48.545 258.854 47.7278 259.015 46.5896C259.175 46.1081 259.175 45.6265 259.175 45.1304Z" fill="#DADEE3"/>
<path d="M266.297 30.0569C266.136 29.8964 265.976 29.7359 265.976 29.5753C265.976 29.4148 265.815 29.2543 265.815 28.9333C265.815 28.7728 265.815 28.4517 265.976 28.2912C265.976 28.1307 266.136 27.9702 266.297 27.8097C266.457 27.6492 266.618 27.4886 266.779 27.4886C266.939 27.4886 267.1 27.3281 267.421 27.3281C267.581 27.3281 267.902 27.3281 268.063 27.4886C268.223 27.4886 268.384 27.6492 268.544 27.8097C268.705 27.9702 268.865 28.1307 268.865 28.2912C268.865 28.4517 269.026 28.6123 269.026 28.9333C269.026 29.0938 269.026 29.2543 268.865 29.5753C268.865 29.7359 268.705 29.8964 268.544 30.0569C268.223 30.3779 267.902 30.5384 267.406 30.5384C266.954 30.3925 266.633 30.2174 266.297 30.0569ZM266.633 50.4862V34.4346C266.633 34.2741 266.793 34.1136 266.954 34.1136H267.596H267.756H267.917C267.917 34.1136 267.917 34.1136 267.917 34.2741C267.917 34.4346 267.917 34.4346 267.917 34.4346V50.6467V50.8072V50.9677C267.917 50.9677 267.917 50.9677 267.756 50.9677H267.596H266.954C266.793 50.8072 266.633 50.8072 266.633 50.4862Z" fill="#DADEE3"/>
<path d="M280.889 35.251H276.833V46.4288C276.833 47.567 277.154 48.5301 277.65 49.0262C278.131 49.5078 279.109 49.6683 280.247 49.6683H281.064H281.225H281.385C281.385 49.6683 281.385 49.6683 281.385 49.8288V49.9893V50.6314V50.7919V50.9524C281.385 50.9524 281.385 50.9524 281.225 50.9524H281.064H280.247C278.788 50.9524 277.65 50.6314 276.847 49.9747C276.045 49.3181 275.709 48.355 275.709 46.7352V35.397H273.608H273.447H273.287C273.287 35.397 273.287 35.397 273.287 35.2364V35.0759V34.4339V34.2733V34.1128C273.287 34.1128 273.287 34.1128 273.447 34.1128H273.608H275.709V30.3918V30.2313V30.0562C275.709 30.0562 275.709 30.0562 275.869 30.0562H276.03H276.672H276.833H276.993C276.993 30.0562 276.993 30.0562 276.993 30.2167V30.3772V34.0982H281.05H281.21H281.371C281.371 34.0982 281.371 34.0982 281.371 34.2587V34.4193V34.9008V35.0613V35.2218C281.21 35.0905 281.21 35.251 280.889 35.251C281.05 35.251 281.05 35.251 280.889 35.251Z" fill="#DADEE3"/>
<path d="M296.284 35.2515C297.262 36.2292 297.743 37.6885 297.743 39.3082V50.6465V50.807V50.9675C297.743 50.9675 297.743 50.9675 297.583 50.9675H297.422H296.78H296.62H296.459C296.459 50.9675 296.459 50.9675 296.459 50.807V50.6465V49.0267C296.459 49.0267 296.459 49.0267 296.299 49.0267C295.657 49.8439 295 50.486 294.037 50.807C293.074 51.128 291.935 51.449 290.958 51.449C289.499 51.449 288.2 51.128 287.062 50.3108C286.084 49.4937 285.442 48.3701 285.442 46.7503C285.442 45.1306 286.084 43.8318 287.222 42.8542C288.36 41.8765 290.141 41.3949 292.242 41.3949H296.299V39.2936C296.299 37.9949 295.978 36.8567 295.16 36.0541C294.343 35.2369 293.22 34.9159 291.76 34.9159C290.622 34.9159 289.659 35.2369 288.842 35.7331C288.025 36.2146 287.543 36.8713 287.383 37.8344C287.383 37.9949 287.222 38.1554 287.062 38.1554L286.42 37.9949C286.259 37.9949 286.259 37.9949 286.259 37.8344C286.259 37.8344 286.259 37.8344 286.259 37.6739C286.259 37.6739 286.259 37.6739 286.259 37.5133C286.42 36.3751 287.076 35.412 288.2 34.7554C289.178 34.1133 290.637 33.6172 292.096 33.6172C293.862 33.7923 295.321 34.2738 296.284 35.2515ZM294.664 48.8662C295.802 48.2241 296.284 47.0859 296.284 45.7872V42.5477H292.227C290.608 42.5477 289.148 42.8687 288.171 43.6859C287.193 44.328 286.551 45.4662 286.551 46.7649C286.551 47.9031 286.872 48.8662 287.689 49.3623C288.506 50.0044 289.469 50.34 290.768 50.34C292.402 50.0044 293.687 49.6688 294.664 48.8662Z" fill="#DADEE3"/>
<path d="M303.259 50.6463V27.7947V27.6341V27.4736C303.259 27.4736 303.259 27.4736 303.42 27.4736H303.58H304.222H304.383H304.543C304.543 27.4736 304.543 27.4736 304.543 27.6341V27.7947V50.6463V50.8068V50.9673C304.543 50.9673 304.543 50.9673 304.383 50.9673H304.222H303.58H303.42H303.259C303.259 50.8068 303.259 50.8068 303.259 50.6463Z" fill="#DADEE3"/>
</svg>
