<svg width="194" height="56" viewBox="0 0 194 56" fill="none" xmlns="http://www.w3.org/2000/svg">
<g clip-path="url(#clip0_723_25739)">
<path d="M31.443 14.1275C31.2346 14.3818 30.916 14.4366 30.6751 14.6163C30.1103 15.0383 29.7896 15.6159 29.5552 16.2702C28.0422 20.5051 26.5205 24.7367 25.0032 28.9706C21.9005 37.6235 18.7988 46.2763 15.6961 54.9281C15.6194 55.1408 15.5179 55.3468 15.4596 55.5638C15.3894 55.8269 15.2382 55.9398 14.9758 55.9233C14.8646 55.9167 14.7522 55.9233 14.6399 55.9233C9.94318 55.9233 5.24644 55.9233 0.549699 55.9222C0.384465 55.9222 0.218152 55.9069 0.0334787 55.8981C-0.0874767 55.5145 0.138235 55.223 0.245151 54.9238C3.09408 46.9613 5.95273 39.0022 8.80814 31.0431C10.575 26.1177 12.3375 21.1912 14.1043 16.2669C14.6486 14.7511 15.5114 14.0913 17.0418 14.0869C21.7946 14.076 26.5465 14.0847 31.2994 14.0869C31.3436 14.0869 31.3868 14.1111 31.443 14.1275Z" fill="white"/>
<path d="M32.9236 41.9481C33.9765 41.4012 34.4496 40.4872 34.8243 39.4372C39.4163 26.5987 44.0245 13.7657 48.6327 0.932671C48.9577 0.0273779 48.7752 0.101906 49.8033 0.10081C54.3338 0.0997137 58.8642 0.0997137 63.3935 0.104098C63.6679 0.104098 63.9497 0.0492978 64.2165 0.166569C64.3493 0.474544 64.1549 0.724431 64.0642 0.978702C59.4269 13.9213 54.783 26.8617 50.137 39.8011C49.5852 41.3388 48.7191 41.947 47.0991 41.9481C42.3743 41.9503 37.6495 41.9481 32.9236 41.9481Z" fill="white"/>
<path d="M85.7389 35.8817C85.7389 35.5857 85.7389 35.2887 85.7389 34.9928C85.7378 28.8947 85.7368 22.7977 85.7357 16.6995C85.7357 16.4727 85.7389 16.2458 85.7368 16.0189C85.7346 15.8271 85.7886 15.6803 86.0078 15.6792C87.2876 15.677 88.5673 15.6781 89.8957 15.6781C89.8957 16.0156 89.8957 16.2677 89.8957 16.5209C89.8957 24.6894 89.8957 32.8567 89.8957 41.0252C89.8957 41.0822 89.8957 41.1392 89.8957 41.1951C89.8881 41.9283 89.8881 41.9338 89.1656 41.9359C87.712 41.9392 86.2573 41.9107 84.8048 41.9513C84.2842 41.9655 84.0131 41.7858 83.7604 41.3353C80.7355 35.943 77.6911 30.5628 74.651 25.1793C74.0268 24.0734 73.4047 22.9654 72.774 21.8617C72.7125 21.7532 72.6898 21.5866 72.4587 21.5712C72.355 21.8595 72.4057 22.1653 72.4047 22.459C72.3993 28.6415 72.3982 34.8251 72.396 41.0076C72.396 42.0828 72.4414 41.9294 71.5148 41.9349C70.5925 41.9414 69.6691 41.9283 68.7468 41.9403C68.438 41.9436 68.2684 41.8505 68.2943 41.5085C68.3073 41.3397 68.2954 41.1688 68.2954 40.9978C68.2954 32.8578 68.2954 24.7178 68.2954 16.5779C68.2954 16.5209 68.2954 16.4639 68.2954 16.408C68.3019 15.677 68.3019 15.6715 69.0222 15.6693C70.4478 15.6649 71.8744 15.6967 73.2989 15.654C73.8518 15.6364 74.1369 15.8216 74.4112 16.3072C77.9427 22.5478 81.499 28.7741 85.051 35.0027C85.2259 35.3096 85.4139 35.6088 85.5964 35.9113C85.645 35.9014 85.6925 35.8915 85.7389 35.8817Z" fill="white"/>
<path d="M189.048 50.8498C189.048 50.315 189.048 49.8952 189.048 49.4765C189.048 47.3503 189.049 45.223 189.048 43.0967C189.047 42.2243 189.045 42.2254 188.16 42.3361C186.345 42.5619 184.544 42.5104 182.744 42.1388C177.869 41.1338 176.086 37.6957 175.509 34.2531C175.167 32.2113 175.256 30.1793 175.87 28.1978C176.971 24.6489 179.452 22.7057 182.983 22.0393C184.638 21.727 186.314 21.6711 187.994 21.7533C189.613 21.8333 191.23 21.9374 192.849 22.013C193.539 22.0448 193.466 22.0602 193.466 22.7013C193.466 26.728 193.466 30.7536 193.466 34.7803C193.466 39.2037 193.45 43.6272 193.484 48.0506C193.49 48.6995 193.284 48.9965 192.713 49.2277C191.52 49.7089 190.359 50.2634 189.048 50.8498ZM189.08 32.0809C189.08 30.0138 189.07 27.9468 189.089 25.8797C189.093 25.4413 188.952 25.2846 188.521 25.2769C187.433 25.2594 186.344 25.1564 185.258 25.2703C182.92 25.5169 181.06 26.5176 180.274 28.8992C179.544 31.1109 179.597 33.3687 180.396 35.5618C181.009 37.2419 182.233 38.2853 183.955 38.7281C185.447 39.1128 186.949 38.9582 188.449 38.83C189.073 38.7763 189.078 38.7456 189.079 38.111C189.083 36.1021 189.08 34.0909 189.08 32.0809Z" fill="white"/>
<path d="M146.495 21.9274C146.495 21.2698 146.495 20.7065 146.495 20.1431C146.495 18.3281 146.492 16.5121 146.497 14.6971C146.499 14.0603 146.508 14.0527 147.147 14.0494C148.21 14.0428 149.273 14.0658 150.334 14.0395C150.75 14.0296 150.891 14.1842 150.847 14.5809C150.829 14.7486 150.844 14.9207 150.844 15.0917C150.844 23.6865 150.844 32.2802 150.844 40.875C150.844 41.0449 150.832 41.2158 150.846 41.3857C150.874 41.7266 150.758 41.8964 150.395 41.9425C147.568 42.3041 144.748 42.7579 141.88 42.4729C140.592 42.3447 139.348 42.0422 138.17 41.4964C135.122 40.0837 133.422 37.6341 132.904 34.3231C132.556 32.1026 132.73 29.9051 133.514 27.791C134.821 24.2652 137.409 22.3778 141.031 21.8583C142.818 21.603 144.603 21.7783 146.495 21.9274ZM146.495 32.1969C146.495 30.212 146.496 28.2283 146.494 26.2434C146.493 25.5069 146.488 25.519 145.736 25.3929C144.654 25.211 143.565 25.1924 142.477 25.2724C140.013 25.4532 138.306 26.8155 137.646 29.1686C137.181 30.8291 137.106 32.5246 137.458 34.2179C138 36.8286 139.766 38.5789 142.281 39.0173C143.419 39.2156 144.567 39.1027 145.711 39.0447C146.489 39.0052 146.493 39.0008 146.494 38.2369C146.496 36.2225 146.495 34.2091 146.495 32.1969Z" fill="white"/>
<path d="M155.688 25.9136C155.688 24.8055 155.689 23.7336 155.687 22.6617C155.686 22.3768 155.898 22.3823 156.085 22.3406C157.562 22.0085 159.059 21.808 160.565 21.7301C162.434 21.6337 164.308 21.5964 166.174 21.8419C166.759 21.9187 167.331 22.0359 167.894 22.2047C170.047 22.8503 171.257 24.3386 171.617 26.5569C171.722 27.1992 171.778 27.8491 171.777 28.5045C171.772 32.7022 171.775 36.8987 171.774 41.0964C171.774 41.8833 171.767 41.8669 171.014 41.9491C167.896 42.2877 164.768 42.3678 161.635 42.2976C160.795 42.279 159.964 42.1738 159.145 41.9863C156.134 41.2992 154.693 39.6519 154.398 36.5469C154.317 35.6942 154.366 34.8437 154.558 34.0108C154.918 32.4578 155.813 31.3135 157.201 30.5705C158.355 29.9523 159.607 29.6728 160.891 29.5369C162.73 29.3418 164.573 29.3133 166.417 29.4547C166.528 29.4635 166.641 29.4701 166.752 29.4734C167.391 29.4898 167.411 29.4887 167.395 28.8267C167.381 28.2612 167.337 27.6935 167.265 27.1323C167.151 26.2599 166.655 25.6922 165.821 25.4434C165.065 25.2187 164.286 25.1486 163.504 25.1113C161.311 25.0061 159.155 25.302 157.005 25.6878C156.597 25.7601 156.186 25.8281 155.688 25.9136ZM167.644 35.8696C167.644 34.9643 167.633 34.0579 167.649 33.1526C167.656 32.7778 167.578 32.5904 167.147 32.5893C165.614 32.586 164.079 32.4742 162.546 32.5948C161.737 32.6583 160.941 32.7986 160.19 33.1263C159.553 33.4047 159.055 33.8453 158.779 34.504C158.011 36.3321 158.869 38.2643 160.722 38.8759C160.985 38.9625 161.259 39.025 161.533 39.071C163.421 39.3866 165.314 39.2453 167.208 39.128C167.588 39.105 167.655 38.9208 167.648 38.5866C167.633 37.6813 167.644 36.7749 167.644 35.8696Z" fill="white"/>
<path d="M94.7977 25.9126C94.7977 24.8002 94.7988 23.7305 94.7966 22.6597C94.7955 22.3692 95.0137 22.3846 95.1994 22.3418C96.6736 22.0043 98.1726 21.8103 99.6769 21.7314C101.545 21.6338 103.418 21.5977 105.283 21.8399C105.895 21.9199 106.497 22.0393 107.082 22.2224C109.116 22.8592 110.312 24.2664 110.704 26.374C110.818 26.9845 110.887 27.6048 110.887 28.2328C110.882 32.5412 110.886 36.8495 110.885 41.1579C110.885 41.8747 110.877 41.8692 110.234 41.9394C107.062 42.2846 103.88 42.3788 100.693 42.2923C99.488 42.2594 98.3054 42.0818 97.1617 41.6719C95.2988 41.0056 94.1357 39.7079 93.7059 37.7472C93.4413 36.5427 93.3948 35.3283 93.6519 34.1194C93.9974 32.4995 94.9133 31.3071 96.368 30.5443C97.5019 29.9502 98.7244 29.673 99.9783 29.5382C101.815 29.3409 103.658 29.3091 105.502 29.4494C105.725 29.4658 105.949 29.4647 106.172 29.4834C106.421 29.5042 106.517 29.3935 106.522 29.1458C106.536 28.3786 106.522 27.6114 106.339 26.8639C106.156 26.111 105.656 25.6496 104.93 25.438C104.174 25.2166 103.396 25.1465 102.613 25.1092C100.422 25.0051 98.2665 25.3021 96.1185 25.6879C95.7081 25.7614 95.2977 25.8282 94.7977 25.9126ZM106.776 35.9223C106.776 35.017 106.761 34.1107 106.782 33.2054C106.791 32.7966 106.715 32.5861 106.238 32.5872C104.732 32.5905 103.226 32.4765 101.72 32.5905C100.911 32.6519 100.115 32.7856 99.3616 33.1056C98.692 33.3895 98.1736 33.8399 97.8918 34.5337C97.1401 36.387 97.9976 38.27 99.8746 38.8826C100.112 38.9604 100.357 39.0218 100.604 39.0635C102.491 39.3857 104.384 39.2443 106.279 39.1325C106.677 39.1095 106.795 38.9462 106.784 38.5538C106.758 37.677 106.776 36.7991 106.776 35.9223Z" fill="white"/>
<path d="M30.8338 41.3342C29.904 41.3375 28.9828 40.681 28.5562 39.517C27.8564 37.6045 27.1792 35.6843 26.4924 33.7674C26.3876 33.4748 26.3109 33.1668 26.1695 32.8928C25.5712 31.7355 25.6651 30.6482 26.1338 29.4185C27.663 25.4028 29.067 21.3367 30.5185 17.2902C30.6049 17.0502 30.6837 16.808 30.7776 16.5713C31.2517 15.3668 32.1697 14.6982 33.3199 14.7147C34.4365 14.73 35.3264 15.3876 35.7638 16.5789C36.5921 18.8356 37.3438 21.1229 38.2358 23.3522C38.6646 24.423 38.6451 25.3458 38.2445 26.421C36.6515 30.6855 35.1385 34.9818 33.6093 39.2704C33.3836 39.9028 33.0672 40.4486 32.5293 40.8509C32.0844 41.1841 31.5779 41.3211 30.8338 41.3342Z" fill="white"/>
<path d="M129.138 25.7941C128.145 25.6385 127.241 25.4796 126.331 25.359C124.749 25.1497 123.164 24.9995 121.57 25.256C120.958 25.3546 120.359 25.4927 119.825 25.816C118.561 26.5788 118.572 28.0694 119.848 28.8147C120.658 29.287 121.568 29.4723 122.464 29.6849C123.606 29.9545 124.762 30.1606 125.877 30.5387C126.379 30.7086 126.884 30.8861 127.36 31.1195C129.841 32.3383 130.715 34.356 130.282 37.0796C129.962 39.0885 128.747 40.4278 126.97 41.2827C125.715 41.8866 124.378 42.176 123.006 42.2713C120.425 42.45 117.87 42.1968 115.334 41.7047C114.721 41.5852 114.718 41.5732 114.714 40.9682C114.71 39.9829 114.713 38.9976 114.713 37.9454C115.975 38.1843 117.145 38.4255 118.322 38.6249C120.128 38.9307 121.936 38.9987 123.733 38.5471C124.141 38.4441 124.532 38.2994 124.898 38.0857C126.35 37.2363 126.382 35.577 124.957 34.6717C124.382 34.3067 123.741 34.1094 123.086 33.9516C121.73 33.6239 120.342 33.4332 119.02 32.9564C118.413 32.7383 117.824 32.4906 117.25 32.1947C113.562 30.2844 113.922 24.9359 116.936 23.0684C117.954 22.4371 119.05 22.048 120.219 21.8639C122.478 21.5088 124.735 21.6743 126.988 21.9472C127.57 22.0173 128.148 22.1269 128.731 22.1949C128.994 22.2255 129.143 22.3132 129.142 22.6048C129.136 23.6449 129.138 24.6882 129.138 25.7941Z" fill="white"/>
</g>
<defs>
<clipPath id="clip0_723_25739">
<rect width="193.482" height="55.8333" fill="white" transform="translate(0 0.0908203)"/>
</clipPath>
</defs>
</svg>
