<svg width="272" height="26" viewBox="0 0 272 26" fill="none" xmlns="http://www.w3.org/2000/svg">
<path d="M119.521 0.763428H114.484L102.87 13.2936V2.14281V0.923614H98.4385V2.14281V25.0583H102.87V19.4073L103.022 18.9446L107 14.6729L114.786 24.9071H120.135L109.901 11.4603L119.521 0.763428Z" fill="white"/>
<path d="M45.4253 4.42991H46.3419H53.0608V24.907H57.4927V4.42991H64.2205L65.1371 0.763428H46.3419L45.4253 4.42991Z" fill="white"/>
<path d="M79.8033 0.460938C76.1368 0.460938 72.7729 1.84032 70.4858 3.97614C68.1987 6.11195 66.8193 9.32457 66.8193 12.8398C66.8193 16.355 68.1987 19.5587 70.4858 21.7034C72.7729 23.8481 75.9855 25.2186 79.652 25.2186C83.3185 25.2186 86.6824 23.8392 88.8182 21.7034C91.1142 19.5676 92.4847 16.355 92.4847 12.8398C92.4847 9.32457 91.1053 6.42342 88.8182 3.97614C86.8248 1.84032 83.4698 0.460938 79.8033 0.460938ZM85.7569 19.0959C84.2262 20.6266 82.2417 21.6945 79.9546 21.6945C77.6675 21.6945 75.5228 20.7779 73.8408 19.0959C72.3102 17.5742 71.2423 15.4295 71.2423 12.9911C71.2423 10.5527 72.1589 8.55924 73.8408 6.87729C75.5228 5.19533 77.6586 4.27871 79.9546 4.27871C82.2506 4.27871 84.3864 5.19533 85.7569 6.87729C87.2876 8.40795 88.0529 10.5438 88.0529 12.9911C88.0529 15.2782 87.1363 17.4229 85.7569 19.0959Z" fill="white"/>
<path d="M0.0483398 6.57463H23.4266L29.2289 0.763428H5.85064L0.0483398 6.57463Z" fill="white"/>
<path d="M11.6616 25.2098L17.4639 19.5588V7.94531H11.6616V25.2098Z" fill="white"/>
<path d="M231.055 24.7558H235.487V14.3615H245.418L246.183 10.8463H235.487V4.12734H248.017C248.168 3.05943 248.319 1.83134 248.782 0.763428H231.064L231.055 24.7558Z" fill="white"/>
<path d="M213.176 0.460938C209.51 0.460938 206.146 1.84032 203.859 3.97614C201.572 6.11195 200.192 9.32457 200.192 12.8398C200.192 16.355 201.572 19.5587 203.859 21.7034C206.146 23.8481 209.359 25.2186 213.025 25.2186C216.692 25.2186 220.055 23.8392 222.191 21.7034C224.487 19.5676 225.858 16.355 225.858 12.8398C225.858 9.32457 224.478 6.42342 222.191 3.97614C220.055 1.84032 216.843 0.460938 213.176 0.460938ZM218.988 19.0959C217.457 20.6266 215.472 21.6945 213.185 21.6945C210.898 21.6945 208.753 20.7779 207.072 19.0959C205.541 17.5653 204.473 15.4295 204.473 12.9822C204.473 10.5349 205.39 8.55034 207.072 6.86839C208.602 5.18643 210.738 4.26981 213.185 4.26981C215.481 4.26981 217.617 5.18643 218.988 6.86839C220.518 8.39905 221.284 10.5349 221.284 12.9822C221.275 15.2782 220.358 17.4229 218.988 19.0959Z" fill="white"/>
<path d="M253.356 0.763428L252.439 4.42991H253.356H260.084V24.907H264.356V4.42991H271.083L272 0.763428H253.356Z" fill="white"/>
<path d="M187.964 10.6951C185.063 9.92972 182.465 9.16439 182.465 6.56581C182.465 5.64919 182.927 5.03514 183.684 4.43C184.298 3.96724 185.215 3.81595 186.434 3.81595C187.653 3.81595 189.032 3.96724 190.403 4.58128C191.622 5.04404 193.001 5.4979 194.069 6.11195L194.986 2.14289C192.85 1.37756 189.486 0.460938 186.888 0.460938C184.138 0.460938 181.842 1.22627 180.008 2.44547C178.478 3.66466 177.712 5.34662 177.712 7.33115C177.712 12.0655 181.993 13.1334 185.508 14.2103C188.561 14.9756 191.159 15.7409 191.159 18.3395C191.159 19.2561 190.696 20.1727 189.78 20.6355C189.015 21.0983 187.947 21.4008 186.727 21.4008C185.348 21.4008 183.675 20.9381 181.842 20.1816C180.462 19.5676 179.092 18.8023 177.873 17.8856L176.956 21.8547C179.857 23.8392 183.675 24.9071 186.736 24.9071C189.486 24.9071 192.085 24.2931 193.615 22.9226C195.146 21.7034 195.911 20.0215 195.911 17.8767C195.911 12.9911 191.64 11.763 187.964 10.6951Z" fill="white"/>
<path d="M142.436 4.12734L143.201 0.763428H142.436H125.332V25.0583H142.285H143.05L142.285 21.3919H129.915V14.5127H140.914V11.0064H129.915V4.12734H142.436Z" fill="white"/>
<path d="M166.58 18.3394L153.284 0.763428H149.013V24.7558L153.133 23.5277V7.33996L166.429 24.907H170.709V0.923614L166.58 2.14281V18.3394Z" fill="white"/>
</svg>
