<svg width="272" height="26" viewBox="0 0 272 26" fill="none" xmlns="http://www.w3.org/2000/svg">
<path d="M119.633 1.04883H114.621L103.064 13.5181V2.42151V1.20824H98.6536V2.42151V25.2257H103.064V19.6022L103.214 19.1416L107.173 14.8908L114.922 25.0752H120.245L110.06 11.6937L119.633 1.04883Z" fill="#DADEE3"/>
<path d="M45.8982 4.6975H46.8104H53.4966V25.0752H57.9069V4.6975H64.6021L65.5142 1.04883H46.8104L45.8982 4.6975Z" fill="#DADEE3"/>
<path d="M80.1087 0.747559C76.46 0.747559 73.1124 2.12024 70.8364 4.24568C68.5604 6.37112 67.1877 9.56814 67.1877 13.0663C67.1877 16.5644 68.5604 19.7525 70.8364 21.8868C73.1124 24.0211 76.3094 25.385 79.9581 25.385C83.6068 25.385 86.9543 24.0123 89.0798 21.8868C91.3646 19.7614 92.7285 16.5644 92.7285 13.0663C92.7285 9.56814 91.3558 6.68108 89.0798 4.24568C87.096 2.12024 83.7573 0.747559 80.1087 0.747559ZM86.0333 19.292C84.5101 20.8153 82.5352 21.878 80.2592 21.878C77.9832 21.878 75.8489 20.9658 74.1751 19.292C72.6519 17.7777 71.5892 15.6434 71.5892 13.2168C71.5892 10.7903 72.5013 8.80652 74.1751 7.13274C75.8489 5.45895 77.9744 4.54678 80.2592 4.54678C82.5441 4.54678 84.6695 5.45895 86.0333 7.13274C87.5566 8.65597 88.3182 10.7814 88.3182 13.2168C88.3182 15.4928 87.406 17.6271 86.0333 19.292Z" fill="#DADEE3"/>
<path d="M0.741455 6.8318H24.0062L29.7803 1.04883H6.51557L0.741455 6.8318Z" fill="#DADEE3"/>
<path d="M12.2986 25.3764L18.0727 19.7529V8.1958H12.2986V25.3764Z" fill="#DADEE3"/>
<path d="M230.625 24.9246H235.036V14.5808H244.919L245.681 11.0827H235.036V4.3964H247.505C247.656 3.33368 247.806 2.11155 248.267 1.04883H230.634L230.625 24.9246Z" fill="#DADEE3"/>
<path d="M212.834 0.747559C209.185 0.747559 205.838 2.12024 203.562 4.24568C201.286 6.37112 199.913 9.56814 199.913 13.0663C199.913 16.5644 201.286 19.7525 203.562 21.8868C205.838 24.0211 209.035 25.385 212.683 25.385C216.332 25.385 219.68 24.0123 221.805 21.8868C224.09 19.7614 225.454 16.5644 225.454 13.0663C225.454 9.56814 224.081 6.68108 221.805 4.24568C219.68 2.12024 216.483 0.747559 212.834 0.747559ZM218.617 19.292C217.094 20.8153 215.119 21.878 212.843 21.878C210.567 21.878 208.433 20.9658 206.759 19.292C205.236 17.7688 204.173 15.6434 204.173 13.208C204.173 10.7726 205.085 8.79767 206.759 7.12388C208.282 5.4501 210.407 4.53793 212.843 4.53793C215.128 4.53793 217.253 5.4501 218.617 7.12388C220.14 8.64711 220.902 10.7726 220.902 13.208C220.893 15.4928 219.981 17.6271 218.617 19.292Z" fill="#DADEE3"/>
<path d="M252.819 1.04883L251.906 4.6975H252.819H259.514V25.0752H263.765V4.6975H270.46L271.372 1.04883H252.819Z" fill="#DADEE3"/>
<path d="M187.745 10.932C184.858 10.1703 182.272 9.40873 182.272 6.82278C182.272 5.91061 182.732 5.29954 183.485 4.69734C184.096 4.23682 185.008 4.08627 186.221 4.08627C187.435 4.08627 188.807 4.23682 190.171 4.84789C191.384 5.3084 192.757 5.76006 193.82 6.37112L194.732 2.42134C192.607 1.65973 189.259 0.747559 186.673 0.747559C183.937 0.747559 181.652 1.50917 179.827 2.72245C178.304 3.93572 177.543 5.6095 177.543 7.58439C177.543 12.2958 181.802 13.3585 185.3 14.4301C188.338 15.1917 190.924 15.9533 190.924 18.5393C190.924 19.4514 190.463 20.3636 189.551 20.8241C188.79 21.2846 187.727 21.5857 186.514 21.5857C185.141 21.5857 183.476 21.1252 181.652 20.3725C180.279 19.7614 178.915 18.9998 177.702 18.0876L176.79 22.0374C179.677 24.0123 183.476 25.075 186.523 25.075C189.259 25.075 191.845 24.4639 193.368 23.1001C194.891 21.8868 195.653 20.2131 195.653 18.0788C195.653 13.2168 191.402 11.9947 187.745 10.932Z" fill="#DADEE3"/>
<path d="M142.438 4.3964L143.199 1.04883H142.438H125.416V25.2257H142.287H143.049L142.287 21.577H129.977V14.7314H140.923V11.2421H129.977V4.3964H142.438Z" fill="#DADEE3"/>
<path d="M166.464 18.5394L153.233 1.04883H148.982V24.9246L153.082 23.7025V7.59341L166.313 25.0752H170.573V1.20824L166.464 2.42151V18.5394Z" fill="#DADEE3"/>
</svg>
