<svg width="239" height="34" viewBox="0 0 239 34" fill="none" xmlns="http://www.w3.org/2000/svg">
<path fill-rule="evenodd" clip-rule="evenodd" d="M42.3735 13.766V26.9392H45.5793H48.7851V21.9177C48.7851 18.5976 48.8019 16.771 48.8355 16.5281C48.9058 16.0116 49.0821 15.513 49.3245 15.1439C49.7631 14.4767 50.399 14.1754 51.2648 14.2242C52.3844 14.2879 53.0445 14.9572 53.2439 16.2322C53.2743 16.4274 53.2921 18.4162 53.2921 21.7385V26.9403H56.4979H59.7037V20.8697C59.7037 15.7527 59.6922 14.7037 59.6334 14.1924C59.4225 12.3722 58.8118 10.9625 57.7761 9.91236C56.8841 9.0065 55.7812 8.47401 54.4202 8.2905C53.8903 8.21943 52.5523 8.26186 52.0833 8.36581C50.9258 8.62145 50.0139 9.11999 49.1912 9.94842L48.7379 10.4045V5.49866V0.592773H45.5552H42.3735V13.766Z" fill="white"/>
<path fill-rule="evenodd" clip-rule="evenodd" d="M110.533 0.792191C110.359 1.19527 103.841 17.1253 103.841 17.1476C103.841 17.1603 105.55 17.1656 107.637 17.1593L111.433 17.1476L114.813 8.90572C116.672 4.37216 118.193 0.647931 118.196 0.627778C118.197 0.608684 116.493 0.592773 114.409 0.592773H110.62L110.533 0.792191Z" fill="white"/>
<path fill-rule="evenodd" clip-rule="evenodd" d="M34.1026 8.6715V10.3538L33.8119 10.0462C33.069 9.25703 32.0626 8.70863 30.8034 8.40526C30.3847 8.30449 30.1832 8.2854 29.3868 8.27267C28.8747 8.26418 28.3941 8.26631 28.3175 8.27903C26.904 8.49012 25.8284 8.89108 24.758 9.60707C22.5995 11.0497 21.1283 13.4883 20.718 16.3013C20.5291 17.5986 20.6099 19.2353 20.9247 20.4923C21.717 23.649 23.8147 26.0622 26.5713 26.9903C27.5777 27.3287 27.9428 27.3849 29.1769 27.386C30.073 27.3881 30.3406 27.3722 30.6638 27.3001C31.9587 27.0147 32.9105 26.5173 33.6954 25.7175L34.1026 25.3027V26.9415H40.2812V8.6715H34.1026ZM34.1089 18.7919C33.7626 20.1147 32.7835 21.1043 31.4781 21.4512C30.9587 21.5891 30.094 21.5891 29.5736 21.4523C28.4497 21.1553 27.4874 20.3173 27.075 19.2746C26.6217 18.129 26.7613 16.6938 27.4203 15.7317C28.3217 14.4154 29.839 13.8458 31.453 14.2191C32.7374 14.5161 33.7626 15.5376 34.1099 16.8667C34.2474 17.3939 34.2474 18.2658 34.1089 18.7919Z" fill="white"/>
<path fill-rule="evenodd" clip-rule="evenodd" d="M100.562 15.8098C99.7655 11.7886 96.6038 8.87157 92.441 8.31999C91.7557 8.22877 90.3433 8.23301 89.6497 8.32636C87.9203 8.56078 86.2802 9.25662 84.9086 10.3364C84.4301 10.7141 83.5455 11.6443 83.194 12.1418C82.3157 13.3818 81.7427 14.8339 81.514 16.3964C81.4038 17.1485 81.4027 18.4924 81.5119 19.2561C82.0911 23.3166 85.001 26.4171 88.9812 27.2169C89.7378 27.3686 90.1869 27.41 91.0946 27.41C92.8324 27.41 94.3172 27.0631 95.7349 26.327C99.4916 24.3752 101.423 20.1652 100.562 15.8098ZM94.3193 19.4492C93.8765 20.406 93.0622 21.0976 92.0401 21.3818C91.6214 21.4985 90.5626 21.4975 90.1355 21.3797C88.8994 21.0392 87.9539 20.0655 87.6223 18.7905C87.4848 18.2644 87.4848 17.3903 87.6212 16.8705C88.0494 15.2466 89.4073 14.1816 91.0652 14.1699C91.2562 14.1678 91.57 14.1954 91.762 14.2304C92.9583 14.4478 93.9457 15.2476 94.3917 16.3646C94.6026 16.8939 94.6614 17.2068 94.6604 17.8284C94.6593 18.5126 94.5827 18.8796 94.3193 19.4492Z" fill="white"/>
<path fill-rule="evenodd" clip-rule="evenodd" d="M80.2647 16.3964C80.0359 14.834 79.463 13.3818 78.5857 12.1418C78.2331 11.6454 77.3496 10.7141 76.87 10.3365C75.4754 9.23859 73.8447 8.55442 72.0692 8.32212C71.3535 8.22878 69.9558 8.2309 69.2527 8.32636C67.5013 8.56397 65.7289 9.32557 64.4225 10.4012C61.8704 12.5025 60.6248 15.8735 61.1233 19.3304C61.6742 23.148 64.3522 26.1371 68.09 27.1045C68.9284 27.3219 69.6798 27.41 70.6851 27.41C72.4385 27.41 73.7681 27.1066 75.2319 26.3726C77.9876 24.9915 79.8187 22.4044 80.2678 19.2572C80.3759 18.4924 80.3749 17.1485 80.2647 16.3964ZM74.1574 18.7915C73.8269 20.0655 72.8803 21.0403 71.6442 21.3808C71.2171 21.4975 70.1583 21.4996 69.7396 21.3829C68.7175 21.0976 67.9032 20.406 67.4604 19.4503C67.198 18.8806 67.1204 18.5136 67.1204 17.8305C67.1204 17.21 67.1771 16.896 67.3901 16.3667C67.644 15.7292 68.1257 15.1341 68.6923 14.7555C69.43 14.2633 70.4427 14.0649 71.3672 14.2325C72.7649 14.4839 73.8394 15.5277 74.1836 16.9671C74.2949 17.438 74.2823 18.3068 74.1574 18.7915Z" fill="white"/>
<path fill-rule="evenodd" clip-rule="evenodd" d="M0 8.69584C0 8.70963 1.7283 12.8454 3.84066 17.886C5.95302 22.9266 7.68027 27.073 7.67922 27.1006C7.67817 27.1282 7.058 28.628 6.30036 30.4334C5.54377 32.2388 4.92465 33.7238 4.92465 33.7333C4.92465 33.7429 6.45567 33.745 8.32668 33.7386L11.7287 33.727L16.8485 21.2581C19.665 14.3994 21.9715 8.7616 21.9726 8.72872C21.9747 8.68205 21.2873 8.6725 18.602 8.68205L15.2273 8.69372L13.1537 14.008C12.0131 16.9314 11.0708 19.3127 11.0571 19.3C11.0445 19.2872 10.1127 16.8953 8.98777 13.9857L6.94152 8.69372L3.47024 8.68205C1.56145 8.67569 0 8.68205 0 8.69584Z" fill="white"/>
<path fill-rule="evenodd" clip-rule="evenodd" d="M105.352 18.7526C103.495 18.987 102.028 20.3299 101.624 22.166C101.511 22.6762 101.524 23.5736 101.649 24.0891C102.037 25.6771 103.256 26.8672 104.827 27.1939C105.028 27.2353 105.413 27.2682 105.701 27.2682C106.916 27.2682 107.87 26.8693 108.726 26.0048C109.586 25.135 109.977 24.1772 109.977 22.9298C109.977 21.3959 109.285 20.1241 108.027 19.3413C107.28 18.8778 106.217 18.6433 105.352 18.7526Z" fill="white"/>
<path fill-rule="evenodd" clip-rule="evenodd" d="M135.534 0.377453C133.278 1.13163 132.282 3.71345 133.462 5.749C133.77 6.28042 134.506 6.93808 135.125 7.23402C135.649 7.48435 135.722 7.49708 136.651 7.49708C137.582 7.49708 137.652 7.48435 138.182 7.23084C138.893 6.89034 139.665 6.12344 139.981 5.44563C140.841 3.59996 140.06 1.47319 138.191 0.575809C137.636 0.309566 137.488 0.275622 136.786 0.249104C136.174 0.226829 135.897 0.255468 135.534 0.377453Z" fill="white"/>
<path fill-rule="evenodd" clip-rule="evenodd" d="M126.16 0.549253C123.153 1.15917 121.178 3.08758 120.422 6.15204C120.311 6.60497 120.238 7.23929 120.207 8.01044L120.161 9.18149H118.951H117.741L117.762 11.8736L117.784 14.5658L118.984 14.5891L120.183 14.6114V20.98V27.3486H123.436H126.689V20.98V14.6103L128.905 14.588L131.122 14.5658L131.143 11.8736L131.164 9.18149H128.921H126.679L126.735 8.58535C126.86 7.26368 127.38 6.5286 128.415 6.21038C129.112 5.99611 130.112 6.03217 130.87 6.29948C131.134 6.39282 131.363 6.46919 131.378 6.46919C131.393 6.46919 131.406 5.23238 131.406 3.72084V0.974606L130.938 0.797464C130.152 0.499398 129.361 0.386961 128.085 0.394386C127.285 0.398629 126.651 0.449544 126.16 0.549253Z" fill="white"/>
<path fill-rule="evenodd" clip-rule="evenodd" d="M152.793 8.80801C151.425 9.10502 150.308 9.78283 149.585 10.7566L149.215 11.2541V10.2188V9.18351H145.921H142.627V18.2666V27.3496H145.921H149.215L149.216 22.397C149.216 19.55 149.251 17.2345 149.296 16.9512C149.402 16.2957 149.796 15.5044 150.153 15.2286C151.103 14.4957 152.606 14.6686 153.232 15.5818C153.727 16.3021 153.718 16.2077 153.751 22.0268L153.78 27.3496H157.068H160.356V21.3872C160.356 15.0642 160.323 14.3397 159.981 13.1432C159.652 11.9987 159.204 11.2201 158.407 10.4118C157.631 9.62478 156.975 9.22912 155.964 8.93742C155.174 8.70831 153.554 8.64254 152.793 8.80801Z" fill="white"/>
<path fill-rule="evenodd" clip-rule="evenodd" d="M175.724 9.18262V11.0622L175.297 10.6019C174.446 9.68435 173.232 9.05533 171.845 8.8103C171.201 8.69574 170.001 8.66498 169.423 8.74666C168.36 8.89622 166.771 9.5316 165.939 10.1415C164.032 11.5396 162.709 13.7416 162.248 16.2906C162.064 17.3046 162.069 19.3328 162.257 20.3076C162.576 21.9634 163.198 23.4208 164.096 24.6184C165.288 26.2063 166.982 27.2935 168.877 27.6913C169.903 27.9066 171.631 27.8632 172.512 27.6012C173.52 27.301 174.351 26.8279 175.068 26.1458L175.724 25.5211V27.3476H182.229V9.18262H175.724ZM173.467 21.6929C172.849 21.9167 171.72 21.939 171.08 21.7385C169.987 21.3991 169.048 20.4508 168.721 19.3593C168.584 18.9053 168.556 18.638 168.582 18.0609C168.613 17.4287 168.656 17.2548 168.916 16.7255C169.706 15.11 171.451 14.3272 173.242 14.7875C174.137 15.0156 175.111 15.8313 175.506 16.6756C176.433 18.6624 175.502 20.9525 173.467 21.6929Z" fill="white"/>
<path fill-rule="evenodd" clip-rule="evenodd" d="M194.957 8.82066C193.803 9.06038 192.472 9.89305 191.783 10.8063L191.502 11.1787V10.1795V9.18024L188.188 9.20146L184.874 9.22267L184.853 18.2856L184.832 27.3484H188.167H191.502L191.503 22.1901C191.504 16.7358 191.511 16.6223 191.888 15.8809C192.242 15.1872 192.925 14.7756 193.729 14.7735C194.432 14.7703 194.822 14.9188 195.249 15.3473C195.956 16.0591 195.928 15.7971 195.955 21.943L195.979 27.3474H199.273H202.567L202.54 20.7507C202.514 14.2272 202.511 14.1466 202.331 13.455C202.231 13.071 201.967 12.3773 201.744 11.9137C201.407 11.2137 201.231 10.9633 200.708 10.434C200.025 9.74349 199.446 9.35739 198.693 9.08902C197.562 8.68912 196.098 8.58305 194.957 8.82066Z" fill="white"/>
<path fill-rule="evenodd" clip-rule="evenodd" d="M212.319 8.81542C209.416 9.27896 207.049 10.8499 205.633 13.2514C205.209 13.9706 204.879 14.8086 204.62 15.8162C204.413 16.6298 204.394 16.8314 204.392 18.2241C204.39 19.8693 204.463 20.4209 204.843 21.6068C205.833 24.6999 208.335 26.9136 211.668 27.6466C212.206 27.7643 212.702 27.7983 213.904 27.7972C215.628 27.7961 216.295 27.6795 217.563 27.1565L218.214 26.8882L218.235 23.8354L218.256 20.7826L217.706 21.1082C216.911 21.5803 216.248 21.7712 215.243 21.82C214.212 21.8698 213.652 21.7659 212.897 21.383C212.206 21.034 211.664 20.4633 211.316 19.7219C211.076 19.2085 211.057 19.1077 211.059 18.3058C211.061 17.6004 211.095 17.3564 211.248 16.9703C211.785 15.6105 213.051 14.7958 214.757 14.712C215.969 14.6526 216.461 14.7884 218.193 15.6593C218.226 15.6762 218.254 14.3217 218.254 12.65V9.61097L217.735 9.40094C216.152 8.7592 214.073 8.53539 212.319 8.81542Z" fill="white"/>
<path fill-rule="evenodd" clip-rule="evenodd" d="M234.804 22.2627L232.038 21.1881L231.632 21.605C231.128 22.1227 230.716 22.3709 230.09 22.5353C228.154 23.0455 226.22 22.0208 225.908 20.3183L225.838 19.9513L232.029 19.9301L238.219 19.9078L238.213 18.3878C238.209 17.2486 238.172 16.6928 238.061 16.1719C237.628 14.1237 236.825 12.5633 235.54 11.2745C234.312 10.043 232.93 9.30689 231.062 8.8879C230.237 8.70228 228.142 8.66091 227.288 8.81365C222.265 9.70573 218.983 14.1258 219.468 19.3435C219.64 21.185 220.115 22.6276 220.991 23.9598C222.242 25.8607 224.119 27.0879 226.63 27.6448C227.71 27.8835 230.507 27.8633 231.671 27.6045C233.484 27.2057 235.089 26.3539 236.251 25.1786C236.795 24.6281 237.678 23.4422 237.601 23.3679C237.583 23.3531 236.324 22.8546 234.804 22.2627ZM226.072 15.4613C226.567 14.1258 228.218 13.449 229.925 13.8839C230.385 14.0017 230.663 14.1619 231.079 14.549C231.48 14.9235 231.711 15.3202 231.825 15.8346L231.9 16.1698H228.9C225.514 16.1698 225.784 16.2377 226.072 15.4613Z" fill="white"/>
<path fill-rule="evenodd" clip-rule="evenodd" d="M133.357 18.2657V27.3487H136.65H139.944V18.2657V9.18262H136.65H133.357V18.2657Z" fill="white"/>
</svg>
