<svg width="288" height="170" viewBox="0 0 288 170" fill="none" xmlns="http://www.w3.org/2000/svg">
<path d="M0.436079 63V0.454544H25.4787C30.08 0.454544 33.9179 1.1366 36.9922 2.50071C40.0665 3.86482 42.3774 5.75829 43.9247 8.18111C45.4721 10.5836 46.2457 13.3525 46.2457 16.4879C46.2457 18.9311 45.7571 21.0791 44.7798 22.9318C43.8026 24.7642 42.4588 26.2708 40.7486 27.4517C39.0587 28.6122 37.1245 29.4368 34.946 29.9254V30.5362C37.3281 30.638 39.5575 31.3099 41.6342 32.5518C43.7313 33.7938 45.4313 35.5346 46.7344 37.7741C48.0374 39.9934 48.6889 42.6402 48.6889 45.7145C48.6889 49.0331 47.8643 51.9955 46.2152 54.6016C44.5864 57.1873 42.1738 59.2334 38.9773 60.7401C35.7808 62.2467 31.8411 63 27.1584 63H0.436079ZM13.6598 52.1889H24.4403C28.1255 52.1889 30.813 51.4865 32.5028 50.0817C34.1927 48.6565 35.0376 46.763 35.0376 44.4013C35.0376 42.6707 34.6203 41.1437 33.7855 39.8203C32.9508 38.4969 31.7597 37.4586 30.2124 36.7053C28.6854 35.9519 26.8632 35.5753 24.7457 35.5753H13.6598V52.1889ZM13.6598 26.6271H23.4631C25.2751 26.6271 26.8835 26.3116 28.2884 25.6804C29.7135 25.0289 30.8333 24.1127 31.6477 22.9318C32.4825 21.7509 32.8999 20.3359 32.8999 18.6868C32.8999 16.4268 32.0956 14.6046 30.4872 13.2202C28.8991 11.8357 26.6392 11.1435 23.7074 11.1435H13.6598V26.6271ZM76.6098 63.9162C71.8659 63.9162 67.7634 62.9084 64.3023 60.8928C60.8614 58.8568 58.2045 56.0268 56.3314 52.4027C54.4583 48.7583 53.5217 44.5336 53.5217 39.7287C53.5217 34.883 54.4583 30.6482 56.3314 27.0241C58.2045 23.3797 60.8614 20.5497 64.3023 18.5341C67.7634 16.4981 71.8659 15.4801 76.6098 15.4801C81.3536 15.4801 85.446 16.4981 88.8868 18.5341C92.348 20.5497 95.0151 23.3797 96.8882 27.0241C98.7613 30.6482 99.6979 34.883 99.6979 39.7287C99.6979 44.5336 98.7613 48.7583 96.8882 52.4027C95.0151 56.0268 92.348 58.8568 88.8868 60.8928C85.446 62.9084 81.3536 63.9162 76.6098 63.9162ZM76.6709 53.8381C78.829 53.8381 80.6309 53.2273 82.0764 52.0057C83.522 50.7637 84.6112 49.0739 85.3442 46.9361C86.0975 44.7983 86.4741 42.3653 86.4741 39.6371C86.4741 36.9089 86.0975 34.4759 85.3442 32.3381C84.6112 30.2003 83.522 28.5104 82.0764 27.2685C80.6309 26.0265 78.829 25.4055 76.6709 25.4055C74.4924 25.4055 72.66 26.0265 71.1737 27.2685C69.7078 28.5104 68.5982 30.2003 67.8449 32.3381C67.1119 34.4759 66.7454 36.9089 66.7454 39.6371C66.7454 42.3653 67.1119 44.7983 67.8449 46.9361C68.5982 49.0739 69.7078 50.7637 71.1737 52.0057C72.66 53.2273 74.4924 53.8381 76.6709 53.8381ZM106.523 63V16.0909H119.136V24.2756H119.625C120.48 21.3641 121.915 19.1652 123.931 17.679C125.947 16.1723 128.268 15.419 130.894 15.419C131.546 15.419 132.248 15.4598 133.001 15.5412C133.755 15.6226 134.416 15.7346 134.986 15.8771V27.4212C134.376 27.2379 133.531 27.075 132.452 26.9325C131.373 26.79 130.385 26.7188 129.489 26.7188C127.575 26.7188 125.865 27.1361 124.359 27.9709C122.872 28.7853 121.691 29.9254 120.816 31.3913C119.961 32.8572 119.533 34.5471 119.533 36.4609V63H106.523ZM140.079 63V16.0909H152.692V24.2756H153.18C154.036 21.3641 155.471 19.1652 157.487 17.679C159.502 16.1723 161.823 15.419 164.45 15.419C165.101 15.419 165.804 15.4598 166.557 15.5412C167.31 15.6226 167.972 15.7346 168.542 15.8771V27.4212C167.931 27.2379 167.086 27.075 166.007 26.9325C164.928 26.79 163.941 26.7188 163.045 26.7188C161.131 26.7188 159.421 27.1361 157.914 27.9709C156.428 28.7853 155.247 29.9254 154.371 31.3913C153.516 32.8572 153.089 34.5471 153.089 36.4609V63H140.079ZM192.645 63.9162C187.901 63.9162 183.799 62.9084 180.338 60.8928C176.897 58.8568 174.24 56.0268 172.367 52.4027C170.494 48.7583 169.557 44.5336 169.557 39.7287C169.557 34.883 170.494 30.6482 172.367 27.0241C174.24 23.3797 176.897 20.5497 180.338 18.5341C183.799 16.4981 187.901 15.4801 192.645 15.4801C197.389 15.4801 201.481 16.4981 204.922 18.5341C208.383 20.5497 211.051 23.3797 212.924 27.0241C214.797 30.6482 215.733 34.883 215.733 39.7287C215.733 44.5336 214.797 48.7583 212.924 52.4027C211.051 56.0268 208.383 58.8568 204.922 60.8928C201.481 62.9084 197.389 63.9162 192.645 63.9162ZM192.706 53.8381C194.865 53.8381 196.666 53.2273 198.112 52.0057C199.557 50.7637 200.647 49.0739 201.38 46.9361C202.133 44.7983 202.51 42.3653 202.51 39.6371C202.51 36.9089 202.133 34.4759 201.38 32.3381C200.647 30.2003 199.557 28.5104 198.112 27.2685C196.666 26.0265 194.865 25.4055 192.706 25.4055C190.528 25.4055 188.695 26.0265 187.209 27.2685C185.743 28.5104 184.634 30.2003 183.88 32.3381C183.147 34.4759 182.781 36.9089 182.781 39.6371C182.781 42.3653 183.147 44.7983 183.88 46.9361C184.634 49.0739 185.743 50.7637 187.209 52.0057C188.695 53.2273 190.528 53.8381 192.706 53.8381ZM230.637 63L217.871 16.0909H231.034L238.302 47.608H238.73L246.304 16.0909H259.222L266.918 47.4247H267.315L274.461 16.0909H287.593L274.858 63H261.085L253.022 33.4986H252.442L244.38 63H230.637ZM22.9134 167.855C18.5971 167.855 14.7491 167.061 11.3693 165.473C8.00994 163.885 5.3428 161.696 3.3679 158.907C1.39299 156.118 0.36482 152.921 0.283381 149.317H13.1101C13.2526 151.74 14.2706 153.705 16.1641 155.212C18.0575 156.718 20.3073 157.472 22.9134 157.472C24.9901 157.472 26.8224 157.013 28.4105 156.097C30.0189 155.161 31.2711 153.868 32.1669 152.219C33.0831 150.549 33.5412 148.635 33.5412 146.477C33.5412 144.278 33.0729 142.344 32.1364 140.675C31.2202 139.005 29.9477 137.702 28.3189 136.766C26.6901 135.829 24.8272 135.351 22.7301 135.33C20.8977 135.33 19.1162 135.707 17.3857 136.46C15.6754 137.214 14.3419 138.242 13.3849 139.545L1.62713 137.438L4.58949 104.455H42.8253V115.266H15.4922L13.8736 130.933H14.2401C15.3395 129.385 16.9988 128.103 19.218 127.085C21.4373 126.067 23.9212 125.558 26.6697 125.558C30.4363 125.558 33.7957 126.443 36.7479 128.214C39.7 129.986 42.0312 132.419 43.7415 135.513C45.4517 138.588 46.2966 142.13 46.2763 146.141C46.2966 150.356 45.3194 154.102 43.3445 157.38C41.3899 160.638 38.6515 163.203 35.1293 165.076C31.6274 166.929 27.5554 167.855 22.9134 167.855ZM78.3887 168.374C73.1359 168.354 68.616 167.061 64.8291 164.496C61.0625 161.93 58.1612 158.215 56.1252 153.349C54.1096 148.483 53.112 142.629 53.1323 135.788C53.1323 128.968 54.1401 123.155 56.1558 118.35C58.1918 113.545 61.093 109.891 64.8596 107.386C68.6465 104.862 73.1562 103.599 78.3887 103.599C83.6212 103.599 88.1207 104.862 91.8873 107.386C95.6742 109.911 98.5857 113.576 100.622 118.381C102.658 123.165 103.665 128.968 103.645 135.788C103.645 142.65 102.627 148.513 100.591 153.379C98.5755 158.245 95.6844 161.961 91.9179 164.526C88.1513 167.092 83.6416 168.374 78.3887 168.374ZM78.3887 157.411C81.9721 157.411 84.8326 155.609 86.9704 152.005C89.1082 148.401 90.1669 142.996 90.1465 135.788C90.1465 131.045 89.6579 127.095 88.6806 123.939C87.7237 120.783 86.3596 118.411 84.5883 116.823C82.8374 115.235 80.7708 114.441 78.3887 114.441C74.8258 114.441 71.9754 116.223 69.8376 119.786C67.6998 123.348 66.6207 128.683 66.6004 135.788C66.6004 140.593 67.0788 144.604 68.0357 147.821C69.013 151.018 70.3873 153.42 72.1586 155.028C73.9299 156.616 76.0066 157.411 78.3887 157.411ZM135.964 168.374C130.711 168.354 126.191 167.061 122.404 164.496C118.637 161.93 115.736 158.215 113.7 153.349C111.685 148.483 110.687 142.629 110.707 135.788C110.707 128.968 111.715 123.155 113.731 118.35C115.767 113.545 118.668 109.891 122.435 107.386C126.222 104.862 130.731 103.599 135.964 103.599C141.196 103.599 145.696 104.862 149.462 107.386C153.249 109.911 156.161 113.576 158.197 118.381C160.233 123.165 161.24 128.968 161.22 135.788C161.22 142.65 160.202 148.513 158.166 153.379C156.151 158.245 153.259 161.961 149.493 164.526C145.726 167.092 141.217 168.374 135.964 168.374ZM135.964 157.411C139.547 157.411 142.408 155.609 144.545 152.005C146.683 148.401 147.742 142.996 147.722 135.788C147.722 131.045 147.233 127.095 146.256 123.939C145.299 120.783 143.935 118.411 142.163 116.823C140.412 115.235 138.346 114.441 135.964 114.441C132.401 114.441 129.55 116.223 127.413 119.786C125.275 123.348 124.196 128.683 124.175 135.788C124.175 140.593 124.654 144.604 125.611 147.821C126.588 151.018 127.962 153.42 129.734 155.028C131.505 156.616 133.582 157.411 135.964 157.411ZM203.25 155.273V151.974C203.25 149.47 203.78 147.17 204.838 145.072C205.917 142.955 207.475 141.265 209.511 140.003C211.567 138.72 214.072 138.079 217.024 138.079C220.017 138.079 222.531 138.71 224.567 139.972C226.623 141.235 228.171 142.924 229.209 145.042C230.268 147.139 230.797 149.45 230.797 151.974V155.273C230.797 157.777 230.268 160.088 229.209 162.205C228.15 164.302 226.593 165.982 224.537 167.244C222.48 168.527 219.976 169.168 217.024 169.168C214.031 169.168 211.516 168.527 209.48 167.244C207.444 165.982 205.897 164.302 204.838 162.205C203.78 160.088 203.25 157.777 203.25 155.273ZM212.137 151.974V155.273C212.137 156.718 212.484 158.082 213.176 159.365C213.888 160.648 215.171 161.289 217.024 161.289C218.877 161.289 220.139 160.658 220.811 159.396C221.503 158.133 221.849 156.759 221.849 155.273V151.974C221.849 150.488 221.523 149.104 220.872 147.821C220.22 146.538 218.938 145.897 217.024 145.897C215.191 145.897 213.919 146.538 213.206 147.821C212.494 149.104 212.137 150.488 212.137 151.974ZM171.153 119.48V116.182C171.153 113.657 171.693 111.346 172.772 109.249C173.851 107.132 175.408 105.442 177.444 104.18C179.501 102.917 181.984 102.286 184.896 102.286C187.909 102.286 190.434 102.917 192.47 104.18C194.506 105.442 196.053 107.132 197.112 109.249C198.171 111.346 198.7 113.657 198.7 116.182V119.48C198.7 122.005 198.16 124.316 197.081 126.413C196.023 128.51 194.465 130.189 192.409 131.452C190.373 132.694 187.868 133.315 184.896 133.315C181.923 133.315 179.409 132.683 177.353 131.421C175.317 130.138 173.769 128.459 172.711 126.382C171.672 124.285 171.153 121.984 171.153 119.48ZM180.101 116.182V119.48C180.101 120.966 180.447 122.341 181.14 123.603C181.852 124.865 183.104 125.496 184.896 125.496C186.769 125.496 188.042 124.865 188.713 123.603C189.406 122.341 189.752 120.966 189.752 119.48V116.182C189.752 114.696 189.426 113.311 188.775 112.028C188.123 110.746 186.83 110.104 184.896 110.104C183.084 110.104 181.832 110.756 181.14 112.059C180.447 113.362 180.101 114.736 180.101 116.182ZM175.184 167L218.184 104.455H226.186L183.186 167H175.184Z" fill="url(#paint0_linear_381_4507)"/>
<defs>
<linearGradient id="paint0_linear_381_4507" x1="-5" y1="-20" x2="481.771" y2="41.7147" gradientUnits="userSpaceOnUse">
<stop stop-color="white"/>
<stop offset="1" stop-color="#222DB3"/>
</linearGradient>
</defs>
</svg>
