<svg width="1107" height="634" viewBox="0 0 1107 634" fill="none" xmlns="http://www.w3.org/2000/svg">
<path d="M620 154L620 634L1100 634C1100 506.696 1049.43 384.606 959.411 294.589C869.394 204.571 747.304 154 620 154V154Z" fill="#F8F7FC"/>
<path d="M990.5 125C1005.95 125 1020.77 131.111 1031.69 141.988C1042.61 152.865 1048.75 167.617 1048.75 183L1107 183C1107 152.235 1094.73 122.73 1072.88 100.976C1051.03 79.2214 1021.4 67 990.5 67C959.602 67 929.97 79.2214 908.122 100.976C886.274 122.73 874 152.235 874 183L932.25 183C932.25 167.617 938.387 152.865 949.311 141.988C960.235 131.111 975.051 125 990.5 125Z" fill="#F8F7FC"/>
<path d="M440 234L440 634L40 634C40 527.913 82.1428 426.172 157.157 351.157C232.172 276.143 333.913 234 440 234V234Z" fill="#F8F7FC"/>
<path d="M0 133L66.3771 133L66.3771 64.9886L0 133Z" fill="#F8F7FC"/>
<path d="M128.246 72.4806L73.3841 130L128.246 130L128.246 72.4806Z" stroke="#F8F7FC" stroke-width="6"/>
<path d="M131.246 133L197.623 133L197.623 64.9886L131.246 133Z" fill="#F8F7FC"/>
<path d="M261 72.3577L204.743 130L261 130L261 72.3577Z" stroke="#F8F7FC" stroke-width="6"/>
<path d="M0 64.9886L66.3771 64.9886L66.3771 3.47071e-07L0 64.9886Z" fill="#F8F7FC"/>
<path d="M66.377 64.9886L131.246 64.9886L131.246 4.05291e-07L66.377 64.9886Z" fill="#F8F7FC"/>
<path d="M194.623 7.13574L138.598 61.9886L194.623 61.9886L194.623 7.13574Z" stroke="#F8F7FC" stroke-width="6"/>
<path d="M197.623 64.9886L264 64.9886L264 3.47071e-07L197.623 64.9886Z" fill="#F8F7FC"/>
<circle cx="802.5" cy="466.5" r="1.5" fill="#E1DFEC"/>
<circle cx="802.5" cy="492.5" r="1.5" fill="#E1DFEC"/>
<circle cx="802.5" cy="518.5" r="1.5" fill="#E1DFEC"/>
<circle cx="802.5" cy="544.5" r="1.5" fill="#E1DFEC"/>
<circle cx="802.5" cy="570.5" r="1.5" fill="#E1DFEC"/>
<circle cx="802.5" cy="596.5" r="1.5" fill="#E1DFEC"/>
<circle cx="836.5" cy="466.5" r="1.5" fill="#E1DFEC"/>
<circle cx="836.5" cy="492.5" r="1.5" fill="#E1DFEC"/>
<circle cx="836.5" cy="518.5" r="1.5" fill="#E1DFEC"/>
<circle cx="836.5" cy="544.5" r="1.5" fill="#E1DFEC"/>
<circle cx="836.5" cy="570.5" r="1.5" fill="#E1DFEC"/>
<circle cx="836.5" cy="596.5" r="1.5" fill="#E1DFEC"/>
<circle cx="870.5" cy="466.5" r="1.5" fill="#E1DFEC"/>
<circle cx="870.5" cy="492.5" r="1.5" fill="#E1DFEC"/>
<circle cx="870.5" cy="518.5" r="1.5" fill="#E1DFEC"/>
<circle cx="870.5" cy="544.5" r="1.5" fill="#E1DFEC"/>
<circle cx="870.5" cy="570.5" r="1.5" fill="#E1DFEC"/>
<circle cx="870.5" cy="596.5" r="1.5" fill="#E1DFEC"/>
<circle cx="904.5" cy="466.5" r="1.5" fill="#E1DFEC"/>
<circle cx="904.5" cy="492.5" r="1.5" fill="#E1DFEC"/>
<circle cx="904.5" cy="518.5" r="1.5" fill="#E1DFEC"/>
<circle cx="904.5" cy="544.5" r="1.5" fill="#E1DFEC"/>
<circle cx="904.5" cy="570.5" r="1.5" fill="#E1DFEC"/>
<circle cx="904.5" cy="596.5" r="1.5" fill="#E1DFEC"/>
<circle cx="938.5" cy="466.5" r="1.5" fill="#E1DFEC"/>
<circle cx="938.5" cy="492.5" r="1.5" fill="#E1DFEC"/>
<circle cx="938.5" cy="518.5" r="1.5" fill="#E1DFEC"/>
<circle cx="938.5" cy="544.5" r="1.5" fill="#E1DFEC"/>
<circle cx="938.5" cy="570.5" r="1.5" fill="#E1DFEC"/>
<circle cx="938.5" cy="596.5" r="1.5" fill="#E1DFEC"/>
<circle cx="972.5" cy="466.5" r="1.5" fill="#E1DFEC"/>
<circle cx="972.5" cy="492.5" r="1.5" fill="#E1DFEC"/>
<circle cx="972.5" cy="518.5" r="1.5" fill="#E1DFEC"/>
<circle cx="972.5" cy="544.5" r="1.5" fill="#E1DFEC"/>
<circle cx="972.5" cy="570.5" r="1.5" fill="#E1DFEC"/>
<circle cx="972.5" cy="596.5" r="1.5" fill="#E1DFEC"/>
<circle cx="1006.5" cy="466.5" r="1.5" fill="#E1DFEC"/>
<circle cx="1006.5" cy="492.5" r="1.5" fill="#E1DFEC"/>
<circle cx="1006.5" cy="518.5" r="1.5" fill="#E1DFEC"/>
<circle cx="1006.5" cy="544.5" r="1.5" fill="#E1DFEC"/>
<circle cx="1006.5" cy="570.5" r="1.5" fill="#E1DFEC"/>
<circle cx="1006.5" cy="596.5" r="1.5" fill="#E1DFEC"/>
<circle cx="1040.5" cy="466.5" r="1.5" fill="#E1DFEC"/>
<circle cx="1040.5" cy="492.5" r="1.5" fill="#E1DFEC"/>
<circle cx="1040.5" cy="518.5" r="1.5" fill="#E1DFEC"/>
<circle cx="1040.5" cy="544.5" r="1.5" fill="#E1DFEC"/>
<circle cx="1040.5" cy="570.5" r="1.5" fill="#E1DFEC"/>
<circle cx="1040.5" cy="596.5" r="1.5" fill="#E1DFEC"/>
</svg>
