<svg id="Layer_1" data-name="Layer 1" xmlns="http://www.w3.org/2000/svg" xmlns:xlink="http://www.w3.org/1999/xlink" width="626.38" height="471.91" viewBox="0 0 626.38 471.91">
  <defs>
    <style>
      .cls-1, .cls-30, .cls-40 {
        fill-rule: evenodd;
      }

      .cls-2 {
        fill: #313443;
      }

      .cls-3 {
        fill: url(#radial-gradient);
      }

      .cls-4 {
        fill: url(#radial-gradient-2);
      }

      .cls-5 {
        fill: url(#radial-gradient-3);
      }

      .cls-6 {
        fill: url(#radial-gradient-4);
      }

      .cls-7 {
        opacity: 0.585;
        fill: url(#radial-gradient-19);
      }

      .cls-8 {
        fill: #272729;
      }

      .cls-9 {
        fill: #1c1c1c;
      }

      .cls-46, .cls-48, .cls-9 {
        opacity: 0.502;
      }

      .cls-10 {
        fill: #1f2021;
      }

      .cls-11 {
        fill: #1a1a1a;
      }

      .cls-12 {
        opacity: 0.349;
        fill: url(#linear-gradient);
      }

      .cls-13 {
        fill: #393939;
      }

      .cls-14 {
        fill: url(#linear-gradient-2);
      }

      .cls-15 {
        fill: url(#radial-gradient-20);
      }

      .cls-16 {
        fill: #474747;
      }

      .cls-17 {
        fill: #252525;
      }

      .cls-18 {
        fill: #fff;
      }

      .cls-19 {
        fill: #e1e1e1;
      }

      .cls-20 {
        fill: url(#radial-gradient-21);
      }

      .cls-21 {
        fill: #9086f7;
      }

      .cls-22 {
        fill: url(#linear-gradient-3);
      }

      .cls-23 {
        fill: url(#linear-gradient-4);
      }

      .cls-24 {
        fill: url(#radial-gradient-22);
      }

      .cls-25 {
        fill: #eebd2c;
      }

      .cls-26 {
        fill: #e79a24;
      }

      .cls-27 {
        fill: #2c2c2b;
      }

      .cls-28 {
        fill: #3c3c3c;
      }

      .cls-29 {
        fill: #333;
      }

      .cls-30 {
        fill: #292929;
      }

      .cls-31 {
        fill: #2e2e2d;
      }

      .cls-32 {
        fill: #222;
      }

      .cls-33 {
        fill: #bababa;
      }

      .cls-34 {
        fill: #a3a3a3;
      }

      .cls-35 {
        fill: #bebebe;
      }

      .cls-36 {
        fill: #d3d3d3;
      }

      .cls-37 {
        fill: #f2f2f2;
      }

      .cls-38 {
        fill: #585858;
      }

      .cls-39 {
        fill: #4a4a4a;
      }

      .cls-40 {
        fill: #404040;
      }

      .cls-41 {
        fill: #2b2b2b;
      }

      .cls-42 {
        fill: #7e7e7e;
      }

      .cls-43 {
        fill: #dbdbdb;
      }

      .cls-44 {
        opacity: 0.149;
        fill: url(#linear-gradient-5);
      }

      .cls-45 {
        opacity: 0.302;
        fill: url(#linear-gradient-6);
      }

      .cls-46 {
        fill: url(#linear-gradient-7);
      }

      .cls-47 {
        fill: url(#linear-gradient-8);
      }

      .cls-49 {
        fill: url(#linear-gradient-9);
      }

      .cls-50 {
        fill: url(#linear-gradient-10);
      }

      .cls-51 {
        fill: #646464;
      }

      .cls-52 {
        fill: #4b4b4b;
      }

      .cls-53 {
        fill: #555353;
      }

      .cls-54 {
        fill: #454545;
      }

      .cls-55 {
        fill: #464646;
      }

      .cls-56 {
        fill: #ebebeb;
      }
    </style>
    <radialGradient id="radial-gradient" cx="-4.015" cy="-0.613" r="9.836" gradientTransform="translate(-0.426) scale(1.852 1)" gradientUnits="objectBoundingBox">
      <stop offset="0.019" stop-color="#1d74ff"/>
      <stop offset="0.268" stop-color="#2b4bdf"/>
      <stop offset="0.698" stop-color="#2c0aa5"/>
      <stop offset="1" stop-color="#350094"/>
    </radialGradient>
    <radialGradient id="radial-gradient-2" cx="-0.989" cy="-1.355" r="8.797" gradientTransform="translate(0.224) scale(0.551 1)" xlink:href="#radial-gradient"/>
    <radialGradient id="radial-gradient-3" cx="-2.06" cy="-4.812" r="20.943" gradientTransform="translate(0.322) scale(0.356 1)" xlink:href="#radial-gradient"/>
    <radialGradient id="radial-gradient-4" cx="0.5" cy="0.5" r="0.5" gradientUnits="objectBoundingBox">
      <stop offset="0" stop-color="#6472bc" stop-opacity="0.961"/>
      <stop offset="1" stop-color="#32395e" stop-opacity="0"/>
    </radialGradient>
    <radialGradient id="radial-gradient-19" cx="-1.611" cy="-0.22" r="2.891" gradientTransform="translate(0.211) scale(0.577 1)" gradientUnits="objectBoundingBox">
      <stop offset="0" stop-color="#1d74ff"/>
      <stop offset="0.019" stop-color="#3e3e3e"/>
      <stop offset="0.123" stop-color="#2c2c2c"/>
      <stop offset="0.38" stop-color="#292929"/>
      <stop offset="0.558" stop-color="#1a1a1a"/>
      <stop offset="1" stop-color="#121212"/>
    </radialGradient>
    <linearGradient id="linear-gradient" y1="-0.004" x2="1" y2="-0.004" gradientUnits="objectBoundingBox">
      <stop offset="0" stop-color="#222"/>
      <stop offset="1" stop-color="#262626"/>
    </linearGradient>
    <linearGradient id="linear-gradient-2" x1="0.1" y1="-0.025" x2="1.219" y2="0.062" gradientUnits="objectBoundingBox">
      <stop offset="0" stop-color="#ebca8d"/>
      <stop offset="0.079" stop-color="#fff"/>
      <stop offset="0.153" stop-color="#ebcb90"/>
      <stop offset="0.409" stop-color="#b06bca"/>
      <stop offset="0.995" stop-color="#817ff5"/>
      <stop offset="1" stop-color="#6173f3"/>
    </linearGradient>
    <radialGradient id="radial-gradient-20" cx="-0.908" cy="0.718" r="4.419" gradientTransform="translate(0.211) scale(0.577 1)" gradientUnits="objectBoundingBox">
      <stop offset="0" stop-color="#181819"/>
      <stop offset="0.02" stop-color="#2a2b2c"/>
      <stop offset="0.123" stop-color="#333334"/>
      <stop offset="0.38" stop-color="#1e1d21"/>
      <stop offset="0.558" stop-color="#2b2b2b"/>
      <stop offset="1" stop-color="#171717"/>
    </radialGradient>
    <radialGradient id="radial-gradient-21" cx="2.886" cy="-0.176" r="1.478" gradientTransform="translate(-0.053) scale(1.106 1)" gradientUnits="objectBoundingBox">
      <stop offset="0" stop-color="#717171"/>
      <stop offset="0.019" stop-color="#7b7b7b"/>
      <stop offset="0.123" stop-color="#727272"/>
      <stop offset="0.38" stop-color="#747474"/>
      <stop offset="0.558" stop-color="#535353"/>
      <stop offset="1" stop-color="#454546"/>
    </radialGradient>
    <linearGradient id="linear-gradient-3" y1="-0.045" x2="1" y2="-0.045" gradientUnits="objectBoundingBox">
      <stop offset="0" stop-color="#94f4ff"/>
      <stop offset="0.995" stop-color="#95e9fd"/>
    </linearGradient>
    <linearGradient id="linear-gradient-4" x1="0" y1="-0.045" x2="1" y2="-0.045" xlink:href="#linear-gradient-3"/>
    <radialGradient id="radial-gradient-22" cx="0.827" cy="-2.415" r="2.786" gradientTransform="translate(-0.145) scale(1.291 1)" gradientUnits="objectBoundingBox">
      <stop offset="0.019" stop-color="#1d74ff"/>
      <stop offset="0.123" stop-color="#2b4bdf"/>
      <stop offset="0.38" stop-color="#2c0aa5"/>
      <stop offset="0.558" stop-color="#350094"/>
      <stop offset="1" stop-color="#0c002a"/>
    </radialGradient>
    <linearGradient id="linear-gradient-5" y1="-0.003" x2="1" y2="-0.003" gradientUnits="objectBoundingBox">
      <stop offset="0" stop-color="#a8a0fa"/>
      <stop offset="1" stop-color="#a198fc"/>
    </linearGradient>
    <linearGradient id="linear-gradient-6" y1="-0.003" x2="1" y2="-0.003" gradientUnits="objectBoundingBox">
      <stop offset="0" stop-color="#9086f7"/>
      <stop offset="1" stop-color="#8c82fa"/>
    </linearGradient>
    <linearGradient id="linear-gradient-7" y1="-0.003" x2="1" y2="-0.003" gradientUnits="objectBoundingBox">
      <stop offset="0" stop-color="#9086f7"/>
      <stop offset="1" stop-color="#6c5ff2"/>
    </linearGradient>
    <linearGradient id="linear-gradient-8" y1="-0.004" x2="1" y2="-0.004" gradientUnits="objectBoundingBox">
      <stop offset="0" stop-color="#e5e0e6"/>
      <stop offset="1" stop-color="#f4f4f4"/>
    </linearGradient>
    <linearGradient id="linear-gradient-9" x1="0.894" y1="-0.869" x2="-0.035" y2="0.033" gradientUnits="objectBoundingBox">
      <stop offset="0" stop-color="#9086f7"/>
      <stop offset="1" stop-color="#9086f7"/>
    </linearGradient>
    <linearGradient id="linear-gradient-10" x1="0.888" y1="-0.867" x2="-0.034" y2="0.033" xlink:href="#linear-gradient-9"/>
  </defs>
  <g id="_Group_" data-name="&lt;Group&gt;" transform="translate(127.271 205.336)">
    <path id="_Compound_Path_" data-name="&lt;Compound Path&gt;" class="cls-1" d="M481.874,1735.565a37.359,37.359,0,0,1-18.181-4.535l-128.806-74.365c-5.039-2.909-7.928-6.78-7.928-10.621,0-3.186,2-6.1,5.635-8.2l133.4-77.016c8.234-4.754,22.661-4.16,32.158,1.324l128.806,74.365c5.039,2.909,7.928,6.78,7.928,10.619,0,3.188-2,6.1-5.635,8.2l-133.4,77.016C492.119,1734.508,487.115,1735.565,481.874,1735.565Zm-1.906-177.518c-5.162,0-10.088,1.04-13.761,3.161l-133.4,77.016c-3.494,2.017-5.419,4.8-5.419,7.821,0,3.682,2.811,7.416,7.711,10.245l128.806,74.365c9.379,5.416,23.611,6.009,31.725,1.324l133.4-77.016c3.5-2.017,5.419-4.8,5.419-7.823,0-3.68-2.81-7.414-7.711-10.244l-128.805-74.365A36.919,36.919,0,0,0,479.968,1558.047Z" transform="translate(-326.96 -1557.621)"/>
  </g>
  <g id="_Group_2" data-name="&lt;Group&gt;" transform="translate(0 29.394)">
    <g id="_Group_3" data-name="&lt;Group&gt;" transform="translate(0 0)">
      <g id="_Group_4" data-name="&lt;Group&gt;">
        <path id="_Path_" data-name="&lt;Path&gt;" class="cls-2" d="M145.437,1943.5l-.674.393-.173-.1-5.707-3.3-1.276-.736-38.813-22.409H-.44v-.554H99.186l39.093,22.571,1.278.736,5.709,3.3Z" transform="translate(0.44 -1738.999)"/>
        <path id="_Path_2" data-name="&lt;Path&gt;" class="cls-3" d="M1013.618,1133.921l-.459-81.363v-.114l-16.546-9.554H995.26l16.943,9.783.459,81.477,45.349,26.182.674-.393Z" transform="translate(-851.499 -991.266)"/>
        <path id="_Path_3" data-name="&lt;Path&gt;" class="cls-2" d="M2705.471,2507.188l-97.452-56.264H2467.356l-26.271-15.254-.674.391,26.553,15.417-.142-.081.674-.393.82.474h139.311l97.118,56.071.031-.019A6.043,6.043,0,0,1,2705.471,2507.188Z" transform="translate(-2087.997 -2182.954)"/>
        <path id="_Path_4" data-name="&lt;Path&gt;" class="cls-2" d="M165.056,1455.186l-.546.318h0l-.127.075h0L161.647,1454l-2.078-1.2h0l-.2-.119-.146-.084-.586-.338-1.278-.738-1.916-1.106-36.16-20.877-2.027-1.17-2.772-1.6-.977-.565-14.825-8.559-1.276-.736-4.871-2.812L38.723,1383.03l-1.275-.735L-.44,1360.421v-.781L38.121,1381.9l1.275.735,25.02,14.445.025.014,33.632,19.418,1.276.736,13.881,8.013.274.159.976.565,2.771,1.6,2.029,1.172,3.773,2.177,34.976,20.193,1.276.738,2.684,1.549,1.569.905Z" transform="translate(0.44 -1262.283)"/>
        <path id="_Path_5" data-name="&lt;Path&gt;" class="cls-2" d="M530.711,1499l-127.828-73.8c-.121.087-.251.17-.391.251-.088.052-.179.1-.271.149l127.817,73.792Z" transform="translate(-344.083 -1318.377)"/>
        <path id="_Path_6" data-name="&lt;Path&gt;" class="cls-4" d="M865.372,1859.819l-.134-24.123L966.1,1777.079h41.641l94.561,54.595v-.943l-52.908-30.548-.407.237-.68-.393.407-.237-20.522-11.848-.407.237-.679-.391.407-.237-19.3-11.141h-42.6l-19.177,11.143-.674.393L925.887,1799.5l-.674.393-20.457,11.888-.674.391-20.037,11.645-.674.393-19.289,11.21.139,24.676,19.464,11.237.654-.38.679.391-.654.381,20.524,11.848.8-.465.678.393-.8.465,41.157,23.762.814-.474Z" transform="translate(-739.259 -1618.879)"/>
        <path id="_Path_7" data-name="&lt;Path&gt;" class="cls-5" d="M1596.067,2382.68l-93.767,54.491H1460.66l-18.686-10.79-.814.473,19.025,10.985h42.6l40.226-23.377-.023-.013.674-.393.023.013,52.383-30.441Z" transform="translate(-1233.02 -2137.615)"/>
        <path id="_Compound_Path_2" data-name="&lt;Compound Path&gt;" class="cls-2" d="M2058.186,975.305v-.426l-29.429,17.1-1.275.742-1.544.9.122,21.65.009,1.486.019,3.441-32.438,18.85-.407.237.679.393.407-.237h0l32.718-19.014-.018-3.107-.009-1.487-.125-21.981,1.259-.732,1.275-.74,29.377-17.072Zm126.556-73.362c-.114-.075-.222-.152-.323-.231l-.137-.113-35.621,20.7-1.278.744-20.454,11.887-1.272.739-36.952,21.473-1.275.74-20.2,11.737-1.335.777-6.76,3.929,0,.784,7.432-4.319,1.272-.739,20.258-11.773,1.275-.741,36.953-21.475,1.272-.739,20.453-11.885,1.278-.742,35.553-20.661C2184.837,902.006,2184.788,901.975,2184.742,901.944Z" transform="translate(-1705.39 -870.375)"/>
        <path id="_Path_8" data-name="&lt;Path&gt;" class="cls-2" d="M2521.543,721.98,2441,768.787l.3,52.406v.424h.957l0-.2,0-.783-.288-51.621,80.248-46.635c-.088-.046-.175-.092-.258-.141A4.591,4.591,0,0,1,2521.543,721.98Z" transform="translate(-2088.502 -716.689)"/>
        <path id="_Path_9" data-name="&lt;Path&gt;" class="cls-2" d="M2484.756,2578.918h-85.394l-100.916-58.349-.676.393,101.2,58.51h85.748A1.9,1.9,0,0,1,2484.756,2578.918Z" transform="translate(-1965.952 -2255.596)"/>
        <path id="_Path_10" data-name="&lt;Path&gt;" class="cls-2" d="M2277.7,1386.07l-137.21,79.738-.407.237.68.393.407-.237,137.161-79.709-.049-.029A4.816,4.816,0,0,1,2277.7,1386.07Z" transform="translate(-1831.029 -1284.897)"/>
        <path id="_Path_11" data-name="&lt;Path&gt;" class="cls-2" d="M458.661,2515.813l-.679-.393-.8.465L340.83,2583.5c.059.03.118.064.176.1a5.066,5.066,0,0,1,.475.31l116.38-67.632Z" transform="translate(-291.557 -2251.189)"/>
        <path id="_Path_12" data-name="&lt;Path&gt;" class="cls-2" d="M2572.855,1383.67l-73.35,42.627H2379.164l-84.1,48.875.681.393,83.822-48.713,120.144,0h.2l73.6-42.769c-.052-.027-.1-.056-.151-.085A4.841,4.841,0,0,1,2572.855,1383.67Z" transform="translate(-1963.633 -1282.844)"/>
        <path id="_Path_13" data-name="&lt;Path&gt;" class="cls-2" d="M2489.466,1886.67l-54.105,31.442.678.393,54.009-31.386A4.415,4.415,0,0,1,2489.466,1886.67Z" transform="translate(-2083.676 -1713.22)"/>
        <path id="_Path_14" data-name="&lt;Path&gt;" class="cls-2" d="M2077.378,2729.827l-71.033-41.1-.676.393,70.751,40.935.4,71.3a9.507,9.507,0,0,1,.959.039Z" transform="translate(-1716.025 -2399.477)"/>
        <path id="_Compound_Path_3" data-name="&lt;Compound Path&gt;" class="cls-2" d="M2301.754,2689.394l-5.628-3.253-1.275-.736-34.964-20.206-8.486-4.9-15.2-8.784-1.276-.736-34.6-19.994-8.822-5.1-15.23-8.8-1.276-.737-27.875-16.109-.021-.013-.674.391.02.013h0l27.875,16.109,1.275.738,14.948,8.638,9.4,5.435,34.3,19.82,1.276.736,14.86,8.588,9.177,5.3,34.614,20,1.275.736,5.883,3.4,0-.54Zm122.842,70.921-8.565-4.944-1.276-.738-34.513-19.926-7.569-4.369-16.6-9.582-1.276-.738-34.722-20.047-8.081-4.665-9.7-5.6,0,.784,8.624,4.979,8.9,5.139,34.3,19.806,1.278.738,16.113,9.3,8.544,4.932,34.017,19.642,1.277.737,8.552,4.936.722.417.675-.393Z" transform="translate(-1836.462 -2323.575)"/>
        <path id="_Path_15" data-name="&lt;Path&gt;" class="cls-2" d="M3220.266,3219.02h-.956l0,.54.25,44.46,38.921,22.469c.1-.067.2-.131.309-.193s.242-.135.368-.2l-38.642-22.31-.245-43.676,0-.784Z" transform="translate(-2754.438 -2853.203)"/>
        <path id="_Path_16" data-name="&lt;Path&gt;" class="cls-2" d="M2667.4,2566.93l-42.566-24.577-.821-.474-.674.393.141.081,43.207,24.946c.036-.021.072-.045.11-.065A5.644,5.644,0,0,1,2667.4,2566.93Z" transform="translate(-2244.515 -2273.829)"/>
        <path id="_Path_17" data-name="&lt;Path&gt;" class="cls-2" d="M880.975,2682.273l-.679-.393-.192.113-.814.473-69.849,40.591.388,69.32-24.559,14.258c.108.053.212.11.315.169.127.074.247.149.36.228l24.845-14.423-.391-69.322,69.57-40.43.814-.474Z" transform="translate(-671.828 -2393.616)"/>
        <path id="_Path_18" data-name="&lt;Path&gt;" class="cls-2" d="M186.61,2603.633l-38.05,22.114-1.278.74-19.076,11.086-1.273.74-38.327,22.274-1.276.742L68.449,2672.3l-1.273.739-38.52,22.385-1.278.742L8.689,2707.031h0l-1.272.739-7.856,4.565v-.788l7.18-4.173,1.272-.739L26.7,2695.773l1.278-.742L66.5,2672.646l1.272-.74,18.884-10.974,1.276-.741,38.326-22.274,1.273-.739,19.077-11.087,1.278-.742,38.045-22.109Z" transform="translate(0.44 -2326.33)"/>
        <path id="_Path_19" data-name="&lt;Path&gt;" class="cls-2" d="M145.316,2431.63l-.478.279-.071.042-.1.061-37.89,22.02-1.276.742-19.213,11.165-1.275.741-20.846,12.114H22.834L5.9,2488.63l-1.272.741-5.072,2.947v-.785l4.4-2.556,1.273-.739,17.2-10H63.764l20.57-11.954,1.275-.741,19.214-11.166,1.276-.742,4.4-2.557h.141V2451l33.343-19.377.11-.064.546-.316Z" transform="translate(0.44 -2179.164)"/>
        <path id="_Path_20" data-name="&lt;Path&gt;" class="cls-2" d="M110.64,2565.274v.081H-.44v-.554H110.637Z" transform="translate(0.44 -2293.44)"/>
        <path id="_Path_21" data-name="&lt;Path&gt;" class="cls-2" d="M240.8,3099.5h-.96l.245,43.708-35.155,20.43c.114.056.225.115.334.177s.235.143.344.216l35.438-20.594Z" transform="translate(-175.278 -2750.94)"/>
        <path id="_Path_22" data-name="&lt;Path&gt;" class="cls-6" d="M730.712,3541.474c-.1-.059-.206-.115-.315-.169a8.824,8.824,0,0,0-7.628.169c-2.186,1.269-2.174,3.329.026,4.6a8.753,8.753,0,0,0,7.942,0c2.059-1.2,2.167-3.094.334-4.372Q730.9,3541.583,730.712,3541.474Z" transform="translate(-616.955 -3128.285)"/>
        <path id="_Path_23" data-name="&lt;Path&gt;" class="cls-6" d="M150.5,3539.319c-.108-.062-.219-.122-.333-.178a8.832,8.832,0,0,0-7.609.178c-2.187,1.271-2.174,3.331.026,4.6a8.755,8.755,0,0,0,7.942,0c2.065-1.2,2.169-3.107.318-4.385C150.734,3539.461,150.62,3539.39,150.5,3539.319Z" transform="translate(-120.513 -3126.442)"/>
        <path id="_Path_24" data-name="&lt;Path&gt;" class="cls-6" d="M285.318,2982c-.058-.034-.117-.067-.176-.1a8.8,8.8,0,0,0-7.766.1c-2.185,1.271-2.173,3.331.026,4.6a8.75,8.75,0,0,0,7.942,0c2.016-1.171,2.163-3.013.449-4.29A5.069,5.069,0,0,0,285.318,2982Z" transform="translate(-235.869 -2649.588)"/>
        <path id="_Path_25" data-name="&lt;Path&gt;" class="cls-6" d="M2813.772,1853.216a8.755,8.755,0,0,0-7.942,0c-1.874,1.09-2.134,2.761-.78,4.015a4.4,4.4,0,0,0,.582.449c.072.046.146.093.224.137a8.762,8.762,0,0,0,7.942,0C2815.982,1856.547,2815.971,1854.487,2813.772,1853.216Z" transform="translate(-2399.26 -1683.781)"/>
        <path id="_Path_26" data-name="&lt;Path&gt;" class="cls-6" d="M3095.352,1351.283a8.752,8.752,0,0,0-7.942,0c-1.972,1.146-2.155,2.935-.556,4.207a4.852,4.852,0,0,0,.582.393l.049.029a8.766,8.766,0,0,0,7.894-.029C3097.564,1354.614,3097.553,1352.554,3095.352,1351.283Z" transform="translate(-2640.186 -1254.317)"/>
        <path id="_Path_27" data-name="&lt;Path&gt;" class="cls-6" d="M3319.37,867.5a8.755,8.755,0,0,0-7.942,0c-1.922,1.118-2.146,2.844-.677,4.108a4.443,4.443,0,0,0,.6.435c.032.02.065.039.1.059a8.756,8.756,0,0,0,7.941,0C3321.582,870.826,3321.569,868.767,3319.37,867.5Z" transform="translate(-2831.858 -840.38)"/>
        <path id="_Path_28" data-name="&lt;Path&gt;" class="cls-6" d="M4220.627,1348.423a8.752,8.752,0,0,0-7.942,0c-2.007,1.167-2.16,3-.47,4.274a4.9,4.9,0,0,0,.5.326c.05.029.1.057.151.085a8.789,8.789,0,0,0,7.791-.085C4222.84,1351.752,4222.828,1349.694,4220.627,1348.423Z" transform="translate(-3602.992 -1251.87)"/>
        <path id="_Path_29" data-name="&lt;Path&gt;" class="cls-6" d="M2999.764,686.286a8.757,8.757,0,0,0-7.943,0c-2.041,1.187-2.165,3.062-.381,4.339a4.612,4.612,0,0,0,.407.261c.084.049.17.1.259.141a8.811,8.811,0,0,0,7.682-.141C3001.976,689.616,3001.963,687.557,2999.764,686.286Z" transform="translate(-2558.398 -685.334)"/>
        <path id="_Path_30" data-name="&lt;Path&gt;" class="cls-6" d="M347.19,1389.433a8.749,8.749,0,0,0-7.941,0c-2.186,1.271-2.174,3.331.026,4.6a8.824,8.824,0,0,0,7.669.149c.092-.048.183-.1.271-.149.14-.081.27-.165.391-.251C349.393,1392.5,349.251,1390.623,347.19,1389.433Z" transform="translate(-288.808 -1286.959)"/>
        <path id="_Path_31" data-name="&lt;Path&gt;" class="cls-6" d="M3602.106,2906.06a8.756,8.756,0,0,0-7.941,0,3.057,3.057,0,0,0-1.587,1.875,1.91,1.91,0,0,0-.041.556,2.9,2.9,0,0,0,1.653,2.17,8.753,8.753,0,0,0,7.941,0C3604.318,2909.39,3604.307,2907.33,3602.106,2906.06Z" transform="translate(-3073.774 -2584.614)"/>
        <path id="_Path_32" data-name="&lt;Path&gt;" class="cls-6" d="M2922.6,2711.841a8.881,8.881,0,0,0-7.339-.3,5.708,5.708,0,0,0-.6.3c-.038.02-.074.043-.11.065-2.075,1.274-2.027,3.286.136,4.535a8.762,8.762,0,0,0,7.942,0C2924.813,2715.172,2924.8,2713.112,2922.6,2711.841Z" transform="translate(-2492.378 -2418.437)"/>
        <path id="_Path_33" data-name="&lt;Path&gt;" class="cls-6" d="M4269.713,2927.738a8.886,8.886,0,0,0-7.248-.343,6,6,0,0,0-.694.343.258.258,0,0,1-.032.019c-2.154,1.272-2.131,3.318.058,4.583a8.758,8.758,0,0,0,7.942,0C4271.925,2931.067,4271.913,2929.008,4269.713,2927.738Z" transform="translate(-3644.99 -2603.162)"/>
        <path id="_Path_34" data-name="&lt;Path&gt;" class="cls-6" d="M3491.045,3679.332a8.839,8.839,0,0,0-7.575-.2c-.125.062-.248.127-.368.2s-.21.126-.309.193c-1.87,1.279-1.756,3.2.335,4.407a8.758,8.758,0,0,0,7.942,0C3493.257,3682.66,3493.247,3680.6,3491.045,3679.332Z" transform="translate(-2978.748 -3246.239)"/>
        <path id="_Path_35" data-name="&lt;Path&gt;" class="cls-6" d="M4068.335,3706.139a8.843,8.843,0,0,0-7.575-.195c-.127.061-.25.127-.368.195s-.212.128-.309.195c-1.87,1.278-1.756,3.2.335,4.407a8.753,8.753,0,0,0,7.941,0C4070.546,3709.47,4070.536,3707.411,4068.335,3706.139Z" transform="translate(-3472.688 -3269.177)"/>
        <path id="_Path_36" data-name="&lt;Path&gt;" class="cls-6" d="M2469.919,3469.76a7.669,7.669,0,0,0-3.108-.913,9.5,9.5,0,0,0-.958-.039,8.012,8.012,0,0,0-3.874.953c-2.186,1.27-2.174,3.33.024,4.6a8.75,8.75,0,0,0,7.942,0C2472.131,3473.09,2472.12,3471.03,2469.919,3469.76Z" transform="translate(-2105.055 -3066.926)"/>
      </g>
    </g>
  </g>
  <g id="_Group_5" data-name="&lt;Group&gt;" transform="translate(114.628 152.12)">
    <path id="_Path_37" data-name="&lt;Path&gt;" class="cls-7" d="M422.061,2302.356,566.614,2218.9c8.872-5.121,7.759-14.068-2.485-19.984l-139.578-80.585c-10.244-5.914-25.74-6.556-34.613-1.434l-144.553,83.457c-8.872,5.123-7.759,14.07,2.485,19.984l139.578,80.585C397.692,2306.836,413.19,2307.479,422.061,2302.356Z" transform="translate(-239.396 -2025.971)"/>
    <g id="_Group_6" data-name="&lt;Group&gt;">
      <path id="_Path_38" data-name="&lt;Path&gt;" class="cls-8" d="M572.679,2064.691c-.232,3.757-3.058,7.664-8.387,10.752l-.045.025L424.67,2156.055a1.257,1.257,0,0,1-.153.084,32.37,32.37,0,0,1-5.211,2.375,42.365,42.365,0,0,1-12.895,2.414,34.08,34.08,0,0,1-13.855-2.221,21.171,21.171,0,0,1-2.5-1.22L245.5,2074.031c-4.264-2.46-6.2-5.806-5.944-9.271v-44.221l111.939.06,36.065-20.822c10.247-5.914,25.745-6.558,34.613-1.432l2.122,1.224,36.536,21.094,111.839.059v42.8c0,.025,0,.055,0,.08A6.985,6.985,0,0,1,572.679,2064.691Z" transform="translate(-239.518 -1924.535)"/>
      <path id="_Path_39" data-name="&lt;Path&gt;" class="cls-9" d="M243.454,2172.572l-3.894,0v44.221c-.208,2.85,1.064,5.618,3.894,7.88Z" transform="translate(-239.518 -2076.566)"/>
      <path id="_Path_40" data-name="&lt;Path&gt;" class="cls-10" d="M1553.916,2074.173l-2.445,1.412-.045.024L1411.7,2156.281l-2.335,1.348a20.8,20.8,0,0,1-2.876,1.369,34.168,34.168,0,0,1-12.895,2.072c-.094,0-.192,0-.292,0V1995.05a40.151,40.151,0,0,1,18.179,4.66c.124.065.253.135.377.208l36.065,20.821,111.938-.059V2064.9C1560.113,2068.367,1558.178,2071.712,1553.916,2074.173Z" transform="translate(-1226.698 -1924.677)"/>
      <path id="_Path_41" data-name="&lt;Path&gt;" class="cls-11" d="M2525.253,2216.791V2172.57l-3.653,0v51.9C2524.261,2222.25,2525.456,2219.559,2525.253,2216.791Z" transform="translate(-2192.092 -2076.566)"/>
      <path id="_Path_42" data-name="&lt;Path&gt;" class="cls-12" d="M1303.162,2698.042h4.157V2686.65H1273.47v4.9h4.492v59.339a34.832,34.832,0,0,0,13.1,1.923,42.636,42.636,0,0,0,12.1-2.137Z" transform="translate(-1124.169 -2516.422)"/>
      <path id="_Path_43" data-name="&lt;Path&gt;" class="cls-13" d="M422.061,1705.06,566.614,1621.6c8.872-5.123,7.759-14.07-2.485-19.984l-139.578-80.585c-10.244-5.915-25.74-6.557-34.613-1.435l-144.553,83.458c-8.872,5.122-7.759,14.069,2.485,19.984l139.578,80.585C397.692,1709.541,413.19,1710.183,422.061,1705.06Z" transform="translate(-239.396 -1514.914)"/>
      <path id="_Path_44" data-name="&lt;Path&gt;" class="cls-14" d="M422.061,1696.556,566.614,1613.1c8.872-5.123,7.759-14.07-2.485-19.984l-139.578-80.587c-10.244-5.914-25.74-6.557-34.613-1.434l-144.553,83.457c-8.872,5.123-7.759,14.07,2.485,19.984l139.578,80.585C397.692,1701.036,413.19,1701.679,422.061,1696.556Z" transform="translate(-239.396 -1507.637)"/>
      <path id="_Path_45" data-name="&lt;Path&gt;" class="cls-15" d="M625.377,1652.953,491.1,1730.48c-8.241,4.757-22.636,4.161-32.152-1.333l-129.659-74.859c-6.23-3.6-8.825-8.4-7.558-12.626.666-2.228,2.405-4.294,5.251-5.937L461.259,1558.2c8.241-4.759,22.636-4.162,32.152,1.333L623.07,1634.39c3.68,2.125,6.093,4.672,7.189,7.273C632,1645.783,630.43,1650.037,625.377,1652.953Z" transform="translate(-309.574 -1548.151)"/>
      <path id="_Path_46" data-name="&lt;Path&gt;" d="M630.8,1646.322c-.611-3.2-3.217-6.437-7.732-9.044L493.407,1562.42c-9.516-5.495-23.911-6.091-32.152-1.333l-134.279,77.526c-3.139,1.812-4.934,4.141-5.424,6.631-.676-3.537,1.093-7.018,5.424-9.519L461.255,1558.2c8.241-4.759,22.636-4.162,32.152,1.333l129.659,74.857C628.957,1637.792,631.6,1642.272,630.8,1646.322Z" transform="translate(-309.57 -1548.151)"/>
    </g>
    <path id="_Path_47" data-name="&lt;Path&gt;" class="cls-13" d="M1861.991,2519.917l-61.511,35.513v-18.038l61.459-35.483Z" transform="translate(-1575.089 -2358.356)"/>
    <path id="_Path_48" data-name="&lt;Path&gt;" class="cls-16" d="M2134.078,2519.891l-15.6-9.007,15.545-8.974Z" transform="translate(-1847.176 -2358.356)"/>
    <path id="_Path_49" data-name="&lt;Path&gt;" class="cls-17" d="M2134.078,2519.891l-15.6-9.007,15.545-8.974Z" transform="translate(-1847.176 -2358.356)"/>
    <path id="_Path_50" data-name="&lt;Path&gt;" class="cls-18" d="M1725.489,2815.235a6.716,6.716,0,0,1-3.039,5.264c-1.679.969-3.039.184-3.039-1.754a6.714,6.714,0,0,1,3.039-5.264C1724.129,2812.513,1725.489,2813.3,1725.489,2815.235Z" transform="translate(-1505.724 -2624.587)"/>
    <path id="_Path_51" data-name="&lt;Path&gt;" class="cls-19" d="M2259.718,2512.64a6.718,6.718,0,0,1-3.039,5.264c-1.677.969-3.039.184-3.039-1.756a6.719,6.719,0,0,1,3.039-5.263C2258.358,2509.915,2259.718,2510.7,2259.718,2512.64Z" transform="translate(-1962.821 -2365.679)"/>
    <path id="_Path_52" data-name="&lt;Path&gt;" class="cls-20" d="M416.363,2399.745l-.335,19.1a4.786,4.786,0,0,1-.045.661,2.162,2.162,0,0,1-3.208,1.559l-38.641-21.812a9.076,9.076,0,0,1-4.115-7.127v-.817l.335-18.288c.007-2.615,1.864-3.676,4.144-2.359l37.75,21.951a8.754,8.754,0,0,1,3.277,3.766A7.929,7.929,0,0,1,416.363,2399.745Z" transform="translate(-351.16 -2245.578)"/>
    <g id="_Group_7" data-name="&lt;Group&gt;" transform="translate(27.022 132.505)">
      <path id="_Path_53" data-name="&lt;Path&gt;" class="cls-21" d="M444.224,2456.9l1.7.982,0,1.491-1.7-.981Z" transform="translate(-441.669 -2452.349)"/>
      <path id="_Path_54" data-name="&lt;Path&gt;" class="cls-21" d="M436.938,2432.725l-10.138-5.853,0-1.491,10.138,5.853Z" transform="translate(-426.764 -2425.38)"/>
      <path id="_Path_55" data-name="&lt;Path&gt;" class="cls-21" d="M513.564,2518.41l4.89,2.823,0,1.491-4.89-2.823Z" transform="translate(-500.997 -2504.978)"/>
      <path id="_Path_56" data-name="&lt;Path&gt;" class="cls-21" d="M470.144,2493.34l4.89,2.823,0,1.492-4.89-2.824Z" transform="translate(-463.846 -2483.528)"/>
      <path id="_Path_57" data-name="&lt;Path&gt;" class="cls-21" d="M470.2,2471.9l4.89,2.824,0,1.491-4.89-2.823Z" transform="translate(-463.898 -2465.184)"/>
      <path id="_Path_58" data-name="&lt;Path&gt;" class="cls-21" d="M436.7,2518.465l-10.138-5.853,0-1.491,10.139,5.853Z" transform="translate(-426.559 -2498.741)"/>
      <path id="_Path_59" data-name="&lt;Path&gt;" class="cls-21" d="M517.964,2498.38l10.137,5.852,0,1.493-10.137-5.854Z" transform="translate(-504.762 -2487.84)"/>
      <path id="_Path_60" data-name="&lt;Path&gt;" class="cls-21" d="M518.393,2542.663l0,1.493-4.89-2.823,0-1.493Z" transform="translate(-500.946 -2523.314)"/>
      <path id="_Path_61" data-name="&lt;Path&gt;" class="cls-21" d="M474.855,2560.473l0,1.491-4.89-2.823,0-1.491Z" transform="translate(-463.692 -2538.553)"/>
      <path id="_Path_62" data-name="&lt;Path&gt;" class="cls-21" d="M426.554,2532.58l4.889,2.823,0,1.493-4.889-2.824Z" transform="translate(-426.55 -2517.102)"/>
    </g>
    <g id="_Group_8" data-name="&lt;Group&gt;" transform="translate(71.757 165.811)">
      <path id="_Path_63" data-name="&lt;Path&gt;" class="cls-22" d="M736.39,2657.6a4.77,4.77,0,0,0,2.157,3.735c1.19.687,2.156.13,2.156-1.246a4.767,4.767,0,0,0-2.156-3.734C737.356,2655.669,736.39,2656.226,736.39,2657.6Z" transform="translate(-736.39 -2656.062)"/>
      <path id="_Path_64" data-name="&lt;Path&gt;" class="cls-23" d="M782.78,2684.581a4.763,4.763,0,0,0,2.156,3.735c1.191.688,2.156.13,2.156-1.245a4.767,4.767,0,0,0-2.156-3.735C783.745,2682.649,782.78,2683.206,782.78,2684.581Z" transform="translate(-776.082 -2679.146)"/>
      <path id="_Path_65" data-name="&lt;Path&gt;" class="cls-24" d="M829.16,2711.571a4.769,4.769,0,0,0,2.156,3.734c1.191.687,2.157.13,2.157-1.245a4.764,4.764,0,0,0-2.157-3.734C830.126,2709.639,829.16,2710.2,829.16,2711.571Z" transform="translate(-815.766 -2702.24)"/>
    </g>
  </g>
  <g id="_Group_9" data-name="&lt;Group&gt;" transform="translate(326.172 0)">
    <g id="_Group_10" data-name="&lt;Group&gt;" transform="translate(0 0)">
      <g id="_Group_11" data-name="&lt;Group&gt;">
        <g id="_Group_12" data-name="&lt;Group&gt;" transform="translate(8.903 50.613)">
          <path id="_Path_66" data-name="&lt;Path&gt;" class="cls-25" d="M1776.132,806.311c-2.16,10.432-2.023,21.351.927,30.27l-8.432-1.721c-2.951-8.918-3.088-19.838-.928-30.27Z" transform="translate(-1766.225 -804.59)"/>
        </g>
        <g id="_Group_13" data-name="&lt;Group&gt;" transform="translate(11.304 80.882)">
          <path id="_Path_67" data-name="&lt;Path&gt;" class="cls-25" d="M1791.292,1015.961c2.97,8.976,8.23,14.24,14.313,15.484l-8.433-1.721c-6.083-1.243-11.343-6.507-14.311-15.483Z" transform="translate(-1782.86 -1014.24)"/>
        </g>
        <g id="_Group_14" data-name="&lt;Group&gt;" transform="translate(10.376 14.603)">
          <path id="_Path_68" data-name="&lt;Path&gt;" class="cls-25" d="M1797.718,565.58c-6.238,6.962-10.694,16.9-12.854,27.334l-8.433-1.721c2.16-10.43,6.617-20.372,12.854-27.334,6.2-6.92,13.01-9.616,19.018-8.389l8.433,1.721C1810.728,555.964,1803.917,558.66,1797.718,565.58Z" transform="translate(-1776.43 -555.184)"/>
        </g>
        <g id="_Group_15" data-name="&lt;Group&gt;" transform="translate(42.245 14.888)">
          <path id="_Path_69" data-name="&lt;Path&gt;" class="cls-26" d="M1997.16,557.16l8.434,1.721c6.083,1.242,11.344,6.507,14.312,15.482l-8.432-1.721C2008.5,563.667,2003.244,558.4,1997.16,557.16Z" transform="translate(-1997.16 -557.16)"/>
        </g>
        <g id="_Group_16" data-name="&lt;Group&gt;" transform="translate(45.204 0.387)">
          <path id="_Path_70" data-name="&lt;Path&gt;" class="cls-27" d="M2017.65,456.72l8.433,1.721c8.241,1.682,15.365,8.825,19.4,21.009l-8.433-1.721C2033.015,465.546,2025.891,458.4,2017.65,456.72Z" transform="translate(-2017.65 -456.72)"/>
        </g>
        <g id="_Group_17" data-name="&lt;Group&gt;" transform="translate(25.618 30.37)">
          <path id="_Path_71" data-name="&lt;Path&gt;" class="cls-26" d="M1890.433,732.106,1882,730.385c6.008,1.226,12.817-1.47,19.015-8.387,12.477-13.927,17.827-39.767,11.926-57.608l8.432,1.721c5.9,17.84.553,43.68-11.925,57.608C1903.25,730.637,1896.441,733.332,1890.433,732.106Z" transform="translate(-1882 -664.39)"/>
        </g>
        <g id="_Group_18" data-name="&lt;Group&gt;" transform="translate(22.661 21.396)">
          <g id="_Group_19" data-name="&lt;Group&gt;">
            <path id="_Path_72" data-name="&lt;Path&gt;" class="cls-28" d="M1869.953,693.423l-8.433-1.719c8.136,1.659,17.36-2,25.775-11.395,16.938-18.905,24.174-53.862,16.164-78.079l8.433,1.721c8.01,24.217.774,59.173-16.164,78.079C1887.314,691.42,1878.089,695.083,1869.953,693.423Z" transform="translate(-1861.52 -602.23)"/>
          </g>
        </g>
        <g id="_Group_20" data-name="&lt;Group&gt;" transform="translate(22.661 99.474)">
          <path id="_Path_73" data-name="&lt;Path&gt;" class="cls-29" d="M1887.3,1143.01c-8.415,9.391-17.639,13.053-25.775,11.395l8.433,1.719c8.136,1.661,17.36-2,25.775-11.393Z" transform="translate(-1861.52 -1143.01)"/>
        </g>
        <path id="_Compound_Path_4" data-name="&lt;Compound Path&gt;" class="cls-30" d="M1753,553.518c-16.938,18.905-37.161,14.6-45.171-9.619s-.775-59.169,16.162-78.073,37.162-14.6,45.173,9.613S1769.939,534.613,1753,553.518Zm-3.8-11.5c12.477-13.927,17.827-39.768,11.926-57.608s-20.851-21.019-33.329-7.092-17.827,39.767-11.926,57.6S1736.723,555.947,1749.2,542.023Z" transform="translate(-1704.566 -454.044)"/>
        <path id="_Path_74" data-name="&lt;Path&gt;" class="cls-31" d="M1715.862,534.906c-5.889-17.837-.538-43.665,11.933-57.585s27.423-10.745,33.325,7.083l8.042-8.973c-8.012-24.207-28.234-28.51-45.17-9.606s-24.168,53.838-16.169,78.051Z" transform="translate(-1704.565 -454.042)"/>
        <g id="_Group_21" data-name="&lt;Group&gt;" transform="translate(8.903 14.603)">
          <path id="_Path_75" data-name="&lt;Path&gt;" class="cls-32" d="M1813.884,570.949c5.9,17.841.552,43.681-11.926,57.608s-27.428,10.743-33.329-7.1-.55-43.678,11.926-57.6S1807.983,553.112,1813.884,570.949Z" transform="translate(-1766.228 -555.181)"/>
        </g>
      </g>
    </g>
    <g id="_Group_22" data-name="&lt;Group&gt;" transform="translate(13.25 31.717)">
      <g id="_Group_23" data-name="&lt;Group&gt;">
        <g id="_Group_24" data-name="&lt;Group&gt;" transform="translate(6.434 15.334)">
          <path id="_Path_76" data-name="&lt;Path&gt;" class="cls-33" d="M1840.9,779.92l5.528,1.128a1.516,1.516,0,0,1,.788.6l-5.527-1.128A1.51,1.51,0,0,0,1840.9,779.92Z" transform="translate(-1840.9 -779.92)"/>
        </g>
        <g id="_Group_25" data-name="&lt;Group&gt;" transform="translate(1.885 42.602)">
          <path id="_Path_77" data-name="&lt;Path&gt;" class="cls-33" d="M1814.917,970.586l-5.527-1.128c.273.055.605-.178,1.053-.679l5.527,1.129C1815.522,970.409,1815.19,970.643,1814.917,970.586Z" transform="translate(-1809.39 -968.78)"/>
        </g>
        <g id="_Group_26" data-name="&lt;Group&gt;" transform="translate(7.224 15.931)">
          <path id="_Path_78" data-name="&lt;Path&gt;" class="cls-33" d="M1846.37,784.06l5.527,1.128,1.575,1.9-5.527-1.128Z" transform="translate(-1846.37 -784.06)"/>
        </g>
        <g id="_Group_27" data-name="&lt;Group&gt;" transform="translate(2.937 40.387)">
          <path id="_Path_79" data-name="&lt;Path&gt;" class="cls-33" d="M1818.665,953.44l5.527,1.128-1.985,2.216-5.527-1.129Z" transform="translate(-1816.68 -953.44)"/>
        </g>
        <g id="_Group_28" data-name="&lt;Group&gt;" transform="translate(8.799 17.833)">
          <path id="_Path_80" data-name="&lt;Path&gt;" class="cls-33" d="M1857.28,797.23l5.527,1.128a2.757,2.757,0,0,1,.5.865,3.573,3.573,0,0,1-.488,2.641l-5.528-1.128a3.573,3.573,0,0,0,.489-2.641A2.8,2.8,0,0,0,1857.28,797.23Z" transform="translate(-1857.28 -797.23)"/>
        </g>
        <g id="_Group_29" data-name="&lt;Group&gt;" transform="translate(7.257 21.339)">
          <path id="_Path_81" data-name="&lt;Path&gt;" class="cls-33" d="M1856.257,838.611l-5.527-1.128c-1.25-.256-2.346-2-3.351-5.033a13.8,13.8,0,0,1,.768-10.94l5.528,1.128a13.79,13.79,0,0,0-.77,10.94C1853.911,836.615,1855.007,838.355,1856.257,838.611Z" transform="translate(-1846.596 -821.51)"/>
        </g>
        <g id="_Group_30" data-name="&lt;Group&gt;" transform="translate(23.535 0.08)">
          <path id="_Path_82" data-name="&lt;Path&gt;" class="cls-34" d="M1959.34,674.27l5.527,1.129c1.845.375,3.565,2.078,5.043,5.24l-5.527-1.128C1962.9,676.349,1961.185,674.647,1959.34,674.27Z" transform="translate(-1959.34 -674.27)"/>
        </g>
        <g id="_Group_31" data-name="&lt;Group&gt;" transform="translate(10.193 8.712)">
          <g id="_Group_32" data-name="&lt;Group&gt;">
            <path id="_Path_83" data-name="&lt;Path&gt;" class="cls-33" d="M1878.971,734.089l5.527,1.129c-.725-.149-1.513.268-2.4,1.255-2.25,2.511-1.481,6.575-.43,11.013,1.582,6.523,3.275,14.637-3.136,21.792-2.066,2.306-4.136,3.283-6.077,2.888l-5.529-1.129c1.942.4,4.012-.58,6.079-2.886,6.409-7.156,4.719-15.268,3.135-21.793-1.05-4.437-1.819-8.5.43-11.012C1877.457,734.359,1878.245,733.942,1878.971,734.089Z" transform="translate(-1866.93 -734.061)"/>
          </g>
        </g>
        <g id="_Group_33" data-name="&lt;Group&gt;" transform="translate(31.493 2.578)">
          <path id="_Path_84" data-name="&lt;Path&gt;" class="cls-34" d="M2014.46,691.57l5.528,1.128c.274.056.491.393.7,1.018l-5.527-1.128C2014.951,691.961,2014.736,691.626,2014.46,691.57Z" transform="translate(-2014.46 -691.57)"/>
        </g>
        <g id="_Group_34" data-name="&lt;Group&gt;" transform="translate(30.67 9.56)">
          <path id="_Path_85" data-name="&lt;Path&gt;" class="cls-35" d="M2010.631,739.93l5.527,1.128-1.869,2.088-5.529-1.128Z" transform="translate(-2008.76 -739.93)"/>
        </g>
        <g id="_Group_35" data-name="&lt;Group&gt;" transform="translate(32.192 3.595)">
          <path id="_Path_86" data-name="&lt;Path&gt;" class="cls-35" d="M2019.3,698.62l5.527,1.128.993,3-5.527-1.128Z" transform="translate(-2019.3 -698.62)"/>
        </g>
        <g id="_Group_36" data-name="&lt;Group&gt;" transform="translate(32.541 6.599)">
          <path id="_Path_87" data-name="&lt;Path&gt;" class="cls-35" d="M2022.364,719.42l5.527,1.128a2.562,2.562,0,0,1-.644,2.961l-5.527-1.128A2.565,2.565,0,0,0,2022.364,719.42Z" transform="translate(-2021.72 -719.42)"/>
        </g>
        <g id="_Group_37" data-name="&lt;Group&gt;" transform="translate(27.266 11.648)">
          <g id="_Group_38" data-name="&lt;Group&gt;">
            <path id="_Path_88" data-name="&lt;Path&gt;" class="cls-36" d="M1990.707,773l-5.527-1.128c.521.107.949-.39,1.427-1.529,2.264-5.3,3.165-10.177,1.978-15.95l5.529,1.128c1.186,5.772.286,10.651-1.979,15.95C1991.656,772.608,1991.229,773.1,1990.707,773Z" transform="translate(-1985.18 -754.39)"/>
          </g>
        </g>
        <g id="_Group_39" data-name="&lt;Group&gt;">
          <g id="_Group_40" data-name="&lt;Group&gt;">
            <path id="_Path_89" data-name="&lt;Path&gt;" class="cls-37" d="M1829.521,680.316a2.566,2.566,0,0,1-.644,2.961l-1.871,2.088c1.187,5.772.286,10.651-1.978,15.95-.7,1.67-1.291,1.959-2.232.993l-1.725-1.737a2.294,2.294,0,0,1-.565-.865,3.626,3.626,0,0,1,.4-2.456c1.385-3.416,1.929-6.344.631-10.267-1.535-4.64-3.152-5.742-5.368-3.269-2.25,2.511-1.48,6.575-.43,11.012,1.584,6.525,3.275,14.637-3.135,21.793-4.121,4.6-8.262,3.914-11.348-2.415l-1.985,2.215c-.881.983-1.314.937-1.727-.313l-.993-3a2.629,2.629,0,0,1,.628-3.009l1.943-2.17a26.015,26.015,0,0,1,2.267-17.466c.751-1.516,1.372-1.689,2.169-.709l1.575,1.9a2.816,2.816,0,0,1,.5.865,3.576,3.576,0,0,1-.49,2.641,13.8,13.8,0,0,0-.768,10.94c1.622,4.9,3.478,6.424,5.843,3.784,2.406-2.685,1.653-6.7.527-11.2-1.56-6.617-3.023-15,3.116-21.849,4.045-4.515,8.043-4.124,11.052,2.307l1.87-2.088c.881-.982,1.33-.886,1.744.362Z" transform="translate(-1796.335 -673.717)"/>
          </g>
        </g>
      </g>
    </g>
  </g>
  <g id="_Group_41" data-name="&lt;Group&gt;" transform="translate(151.677 50.828)">
    <g id="_Group_42" data-name="&lt;Group&gt;" transform="translate(0 0)">
      <g id="_Group_43" data-name="&lt;Group&gt;">
        <g id="_Group_44" data-name="&lt;Group&gt;" transform="translate(45.205 58.963)">
          <path id="_Path_90" data-name="&lt;Path&gt;" class="cls-25" d="M812.152,1214.47c9.945,3.817,20.743,5.449,30.021,3.979l-3.062,8.043c-9.278,1.47-20.076-.16-30.021-3.979Z" transform="translate(-809.09 -1214.47)"/>
        </g>
        <g id="_Group_45" data-name="&lt;Group&gt;" transform="translate(75.226 51.323)">
          <path id="_Path_91" data-name="&lt;Path&gt;" class="cls-25" d="M1020.082,1173.17c9.337-1.478,15.384-5.819,17.593-11.62l-3.061,8.043c-2.211,5.8-8.257,10.141-17.594,11.62Z" transform="translate(-1017.02 -1161.55)"/>
        </g>
        <g id="_Group_46" data-name="&lt;Group&gt;" transform="translate(14.163 21.733)">
          <path id="_Path_92" data-name="&lt;Path&gt;" class="cls-25" d="M603.3,976.734c5.862,7.283,14.952,13.287,24.9,17.106l-3.062,8.043c-9.944-3.817-19.034-9.824-24.9-17.1-5.827-7.238-7.387-14.395-5.2-20.124l3.062-8.045C595.914,962.341,597.474,969.5,603.3,976.734Z" transform="translate(-594.093 -956.61)"/>
        </g>
        <g id="_Group_47" data-name="&lt;Group&gt;" transform="translate(15.104 10.115)">
          <path id="_Path_93" data-name="&lt;Path&gt;" class="cls-26" d="M600.61,895.806l3.062-8.045c2.209-5.8,8.256-10.143,17.593-11.621l-3.062,8.044C608.866,885.662,602.819,890,600.61,895.806Z" transform="translate(-600.61 -876.14)"/>
        </g>
        <g id="_Group_48" data-name="&lt;Group&gt;" transform="translate(1.273 0.728)">
          <path id="_Path_94" data-name="&lt;Path&gt;" class="cls-38" d="M504.81,834.917l3.061-8.045c2.993-7.86,11.194-13.735,23.869-15.742l-3.061,8.044C516,821.18,507.8,827.055,504.81,834.917Z" transform="translate(-504.81 -811.13)"/>
        </g>
        <g id="_Group_49" data-name="&lt;Group&gt;" transform="translate(32.697 9.58)">
          <path id="_Path_95" data-name="&lt;Path&gt;" class="cls-26" d="M785.646,914.174l-3.062,8.043c2.182-5.729.622-12.885-5.2-20.12-11.727-14.567-36.361-24.024-54.921-21.085l3.062-8.044c18.559-2.938,43.195,6.519,54.92,21.084C786.268,901.288,787.827,908.443,785.646,914.174Z" transform="translate(-722.46 -872.433)"/>
        </g>
        <g id="_Group_50" data-name="&lt;Group&gt;" transform="translate(25.142)">
          <g id="_Group_51" data-name="&lt;Group&gt;">
            <path id="_Path_96" data-name="&lt;Path&gt;" class="cls-39" d="M754.7,862.667l-3.062,8.043c2.954-7.759.832-17.456-7.076-27.276-15.917-19.772-49.243-32.567-74.436-28.578l3.061-8.043c25.193-3.989,58.519,8.806,74.437,28.577C755.535,845.211,757.658,854.906,754.7,862.667Z" transform="translate(-670.13 -806.084)"/>
          </g>
        </g>
        <g id="_Group_52" data-name="&lt;Group&gt;" transform="translate(99.577 29.306)">
          <path id="_Path_97" data-name="&lt;Path&gt;" class="cls-39" d="M1185.68,1017.1c7.908,9.821,10.03,19.518,7.076,27.277l3.062-8.043c2.954-7.76.83-17.456-7.076-27.277Z" transform="translate(-1185.68 -1009.06)"/>
        </g>
        <path id="_Compound_Path_5" data-name="&lt;Compound Path&gt;" class="cls-40" d="M595.575,891.1c15.917,19.772,8.4,39.031-16.8,43.021s-58.513-8.8-74.432-28.576-8.4-39.034,16.793-43.023S579.658,871.329,595.575,891.1Zm-11.959,1.893c-11.727-14.565-36.361-24.022-54.921-21.084s-24.115,17.177-12.388,31.744,36.361,24.022,54.917,21.084S595.339,907.557,583.615,892.993Z" transform="translate(-495.997 -853.751)"/>
        <path id="_Path_98" data-name="&lt;Path&gt;" class="cls-41" d="M571.2,929.065c-18.554,2.929-43.177-6.529-54.9-21.087s-6.169-28.8,12.379-31.742l-7.555-9.386c-25.183,3.992-32.7,23.253-16.784,43.021s49.222,32.557,74.41,28.579Z" transform="translate(-495.996 -858.077)"/>
        <g id="_Group_53" data-name="&lt;Group&gt;" transform="translate(14.164 17.623)">
          <path id="_Path_99" data-name="&lt;Path&gt;" class="cls-32" d="M612.629,928.679c18.56-2.938,43.195,6.519,54.921,21.085s6.168,28.8-12.392,31.742-43.193-6.522-54.917-21.084S594.073,931.617,612.629,928.679Z" transform="translate(-594.095 -928.144)"/>
        </g>
      </g>
    </g>
    <g id="_Group_54" data-name="&lt;Group&gt;" transform="translate(30.644 24.1)">
      <g id="_Group_55" data-name="&lt;Group&gt;">
        <g id="_Group_56" data-name="&lt;Group&gt;" transform="translate(12.55 27.191)">
          <path id="_Path_100" data-name="&lt;Path&gt;" class="cls-42" d="M795.16,1167.283l2.008-5.271a1.511,1.511,0,0,1,.716-.682l-2.007,5.271A1.521,1.521,0,0,0,795.16,1167.283Z" transform="translate(-795.16 -1161.33)"/>
        </g>
        <g id="_Group_57" data-name="&lt;Group&gt;" transform="translate(38.895 35.734)">
          <path id="_Path_101" data-name="&lt;Path&gt;" class="cls-42" d="M980.135,1221.648l-2.007,5.273c.1-.26-.076-.627-.5-1.149l2.007-5.271C980.059,1221.023,980.235,1221.388,980.135,1221.648Z" transform="translate(-977.63 -1220.5)"/>
        </g>
        <g id="_Group_58" data-name="&lt;Group&gt;" transform="translate(13.268 25.944)">
          <path id="_Path_102" data-name="&lt;Path&gt;" class="cls-42" d="M800.13,1159.209l2.007-5.271,2.133-1.247-2.007,5.271Z" transform="translate(-800.13 -1152.69)"/>
        </g>
        <g id="_Group_59" data-name="&lt;Group&gt;" transform="translate(37.03 33.416)">
          <path id="_Path_103" data-name="&lt;Path&gt;" class="cls-42" d="M964.71,1209.713l2.007-5.273,1.865,2.319-2.007,5.271Z" transform="translate(-964.71 -1204.44)"/>
        </g>
        <g id="_Group_60" data-name="&lt;Group&gt;" transform="translate(15.4 25.568)">
          <path id="_Path_104" data-name="&lt;Path&gt;" class="cls-42" d="M814.9,1155.732l2.007-5.271a2.8,2.8,0,0,1,.934-.352,3.582,3.582,0,0,1,2.527.91l-2.007,5.273a3.566,3.566,0,0,0-2.527-.91A2.8,2.8,0,0,0,814.9,1155.732Z" transform="translate(-814.9 -1150.084)"/>
        </g>
        <g id="_Group_61" data-name="&lt;Group&gt;" transform="translate(18.861 26.501)">
          <path id="_Path_105" data-name="&lt;Path&gt;" class="cls-42" d="M857.056,1156.585l-2.007,5.273c-.453,1.193-2.348,1.992-5.508,2.493a13.8,13.8,0,0,1-10.671-2.528l2.007-5.273a13.792,13.792,0,0,0,10.671,2.528C854.709,1158.579,856.6,1157.777,857.056,1156.585Z" transform="translate(-838.87 -1156.55)"/>
        </g>
        <g id="_Group_62" data-name="&lt;Group&gt;" transform="translate(0.263 4.402)">
          <path id="_Path_106" data-name="&lt;Path&gt;" class="cls-33" d="M710.06,1012.892l2.007-5.273c.671-1.76,2.628-3.181,5.987-4.129l-2.007,5.271C712.689,1009.71,710.732,1011.131,710.06,1012.892Z" transform="translate(-710.06 -1003.49)"/>
        </g>
        <g id="_Group_63" data-name="&lt;Group&gt;" transform="translate(8.506 11.216)">
          <g id="_Group_64" data-name="&lt;Group&gt;">
            <path id="_Path_107" data-name="&lt;Path&gt;" class="cls-42" d="M767.245,1055.953l2.007-5.273c-.264.693.022,1.538.852,2.568,2.114,2.626,6.247,2.525,10.8,2.206,6.693-.507,14.975-.865,21,6.618,1.941,2.411,2.571,4.613,1.865,6.464l-2.005,5.272c.7-1.852.074-4.054-1.867-6.465-6.024-7.482-14.305-7.125-21-6.618-4.549.319-8.683.422-10.8-2.2C767.267,1057.491,766.981,1056.645,767.245,1055.953Z" transform="translate(-767.15 -1050.68)"/>
          </g>
        </g>
        <g id="_Group_65" data-name="&lt;Group&gt;" transform="translate(4.014 0.557)">
          <path id="_Path_108" data-name="&lt;Path&gt;" class="cls-33" d="M736.04,982.656l2.007-5.271c.1-.263.468-.422,1.119-.524l-2.007,5.271C736.508,982.235,736.141,982.394,736.04,982.656Z" transform="translate(-736.04 -976.86)"/>
        </g>
        <g id="_Group_66" data-name="&lt;Group&gt;" transform="translate(11.074 1.177)">
          <path id="_Path_109" data-name="&lt;Path&gt;" class="cls-33" d="M784.94,986.422l2.007-5.271,1.759,2.183L786.7,988.6Z" transform="translate(-784.94 -981.15)"/>
        </g>
        <g id="_Group_67" data-name="&lt;Group&gt;" transform="translate(5.133 0.062)">
          <path id="_Path_110" data-name="&lt;Path&gt;" class="cls-33" d="M743.79,979.2l2.007-5.271,3.124-.5-2.007,5.273Z" transform="translate(-743.79 -973.43)"/>
        </g>
        <g id="_Group_68" data-name="&lt;Group&gt;" transform="translate(8.258)">
          <path id="_Path_111" data-name="&lt;Path&gt;" class="cls-33" d="M765.43,978.335l2.007-5.273a2.562,2.562,0,0,1,2.817,1.115l-2.007,5.271A2.562,2.562,0,0,0,765.43,978.335Z" transform="translate(-765.43 -973)"/>
        </g>
        <g id="_Group_69" data-name="&lt;Group&gt;" transform="translate(12.833 3.338)">
          <g id="_Group_70" data-name="&lt;Group&gt;">
            <path id="_Path_112" data-name="&lt;Path&gt;" class="cls-36" d="M815.825,1002.326l-2.007,5.273c.191-.5-.231-1-1.278-1.656-4.864-3.091-9.532-4.769-15.42-4.532l2.007-5.271c5.888-.237,10.556,1.441,15.42,4.532C815.594,1001.327,816.015,1001.828,815.825,1002.326Z" transform="translate(-797.12 -996.117)"/>
          </g>
        </g>
        <g id="_Group_71" data-name="&lt;Group&gt;" transform="translate(0 5.273)">
          <g id="_Group_72" data-name="&lt;Group&gt;">
            <path id="_Path_113" data-name="&lt;Path&gt;" class="cls-43" d="M716.5,1009.582a2.562,2.562,0,0,1,2.817,1.113l1.759,2.183c5.888-.237,10.556,1.441,15.42,4.532,1.535.962,1.724,1.591.619,2.364l-1.993,1.422a2.3,2.3,0,0,1-.946.417,3.631,3.631,0,0,1-2.359-.8c-3.146-1.919-5.947-2.928-10.029-2.281-4.828.764-6.175,2.182-4.093,4.768,2.114,2.626,6.247,2.524,10.8,2.2,6.693-.507,14.975-.863,21,6.619,3.871,4.809,2.527,8.785-4.219,10.808l1.865,2.317c.827,1.028.712,1.448-.589,1.655l-3.124.494a2.63,2.63,0,0,1-2.868-1.106l-1.828-2.27a26.011,26.011,0,0,1-16.87-5.061c-1.373-.988-1.445-1.627-.349-2.255l2.133-1.247a2.8,2.8,0,0,1,.934-.351,3.566,3.566,0,0,1,2.527.91,13.8,13.8,0,0,0,10.671,2.528c5.1-.807,6.9-2.4,4.679-5.156-2.261-2.808-6.344-2.715-10.967-2.33-6.782.468-15.289.557-21.058-6.608-3.8-4.723-2.768-8.605,4.064-10.534l-1.757-2.183c-.827-1.028-.661-1.455.64-1.662Z" transform="translate(-708.237 -1009.519)"/>
          </g>
        </g>
      </g>
    </g>
  </g>
  <g id="_Group_73" data-name="&lt;Group&gt;" transform="translate(191.804 193.94)">
    <path id="_Path_114" data-name="&lt;Path&gt;" class="cls-44" d="M773.92,1824.431l46.9-27.141,139.871,80.465-46.954,27.109Z" transform="translate(-773.92 -1797.29)"/>
    <path id="_Path_115" data-name="&lt;Path&gt;" class="cls-45" d="M841.29,1857.676l37.18-21.516,130.128,74.862-37.223,21.49Z" transform="translate(-831.563 -1830.548)"/>
    <path id="_Path_116" data-name="&lt;Path&gt;" class="cls-46" d="M908.66,1890.921l27.46-15.89,120.385,69.257-27.492,15.872Z" transform="translate(-889.206 -1863.806)"/>
    <path id="_Path_117" data-name="&lt;Path&gt;" class="cls-47" d="M1104.412,1977.552l-17.76,10.254L976.03,1924.167l17.74-10.267Z" transform="translate(-946.849 -1897.064)"/>
  </g>
  <g id="_Group_74" data-name="&lt;Group&gt;" class="cls-48" transform="translate(223.232 78.927)">
    <g id="_Group_75" data-name="&lt;Group&gt;" class="cls-48" transform="translate(18.077)">
      <path id="_Path_118" data-name="&lt;Path&gt;" class="cls-49" d="M1210.939,1064.391,1101.176,1000.7l-.286,131.614,110.049,63.666Z" transform="translate(-1100.89 -1000.7)"/>
    </g>
    <g id="_Group_76" data-name="&lt;Group&gt;" class="cls-48" transform="translate(0 10.447)">
      <path id="_Path_119" data-name="&lt;Path&gt;" class="cls-50" d="M1086.556,1137.226l-110.58-64.166-.286,131.615,110.866,64.139Z" transform="translate(-975.69 -1073.06)"/>
    </g>
  </g>
  <g id="_Group_77" data-name="&lt;Group&gt;" transform="translate(241.972 179.473)">
    <g id="_Group_78" data-name="&lt;Group&gt;">
      <g id="_Group_79" data-name="&lt;Group&gt;">
        <g id="_Group_80" data-name="&lt;Group&gt;">
          <g id="_Group_81" data-name="&lt;Group&gt;" transform="translate(10.504 15.556)">
            <path id="_Path_120" data-name="&lt;Path&gt;" class="cls-25" d="M1207.767,1848.02q.344.706.7,1.4l-1.421-.824-10.63-6.178h0q-.12-.386-.228-.771c-.013-.042-.025-.084-.036-.127,0-.011-.007-.024-.01-.036s0-.014-.007-.021-.007-.026-.011-.038c-.013-.045-.025-.091-.038-.137l-.022-.078s0-.006,0-.009c-.027-.1-.056-.2-.084-.3q-.409-1.5-.73-2.988c-.056-.256-.11-.51-.16-.764q-.1-.5-.191-1h0c-.009-.045-.016-.089-.023-.133a.185.185,0,0,1-.006-.028c0-.007,0-.013,0-.02s0-.013,0-.019c0-.025-.007-.047-.012-.071-.011-.061-.023-.123-.033-.183h0c-.026-.152-.052-.3-.076-.455h0c-.023-.152-.048-.3-.071-.455v0c-.016-.107-.033-.213-.048-.321s-.027-.189-.042-.284l0-.038c0-.01,0-.019,0-.028a.1.1,0,0,0,0-.02l-.03-.216c0-.03-.007-.061-.011-.093s-.007-.062-.013-.094c0-.016,0-.032-.006-.048-.011-.1-.025-.2-.036-.294,0-.011,0-.022,0-.032s0-.036-.006-.055-.007-.043-.009-.065,0-.033-.006-.05,0-.014,0-.023-.006-.044-.007-.068l-.009-.069c0-.032-.007-.064-.012-.1,0-.011,0-.023,0-.034-.007-.062-.015-.124-.02-.188a.078.078,0,0,1,0-.016c0-.046-.01-.089-.014-.134s-.009-.088-.013-.132c0-.009,0-.016,0-.024s0-.041-.006-.059c0-.049-.009-.1-.013-.146s-.009-.082-.013-.125c-.011-.126-.023-.25-.033-.376,0-.024,0-.048-.007-.072-.025-.3-.046-.592-.065-.885-.007-.111-.013-.221-.019-.332,0-.036,0-.074-.007-.11,0-.016,0-.032,0-.049s0-.045,0-.068,0-.031,0-.048l0-.048a.057.057,0,0,0,0-.016c0-.026,0-.052,0-.078s0-.055,0-.082c0-.05,0-.1-.006-.149v-.029c0-.015,0-.029,0-.043v-.067c0-.044,0-.089-.006-.134,0-.023,0-.046,0-.068v-.021a.308.308,0,0,1,0-.036c0-.014,0-.029,0-.043v-.019c0-.071,0-.142-.006-.212,0-.026,0-.052,0-.076s0-.026,0-.039v-.013c0-.063,0-.127,0-.189v-.024c0-.026,0-.051,0-.076v-.068c0-.019,0-.038,0-.055v-.072c0-.121,0-.242,0-.364,0-.091,0-.182,0-.273v-.061c0-.2.006-.4.01-.595h0c0-.2.011-.406.019-.6h0c0-.1.009-.2.013-.3h0c0-.071.009-.142.012-.212,0-.029,0-.056,0-.087s0-.043,0-.064,0-.039,0-.059a.13.13,0,0,0,0-.024c.006-.074.01-.149.014-.221s.01-.147.016-.219c.007-.1.015-.2.023-.292h0c.007-.1.016-.193.025-.289s.019-.187.027-.281a.04.04,0,0,1,0-.013l.022-.219c0-.02,0-.039.007-.058s.006-.067.01-.1a.14.14,0,0,0,0-.023c.017-.149.035-.3.053-.442h0c.01-.088.023-.177.035-.264a.4.4,0,0,1,.006-.039c.012-.083.022-.167.035-.251v0c.026-.18.055-.361.084-.54,0,0,0-.01,0-.015.013-.083.029-.167.042-.251,0,0,0,0,0,0l0-.007,0-.032c.014-.079.027-.156.042-.235l0,0h0c.016-.09.033-.177.05-.264s.033-.176.052-.263h0c.017-.088.036-.175.055-.261s.037-.175.056-.259.035-.156.054-.233a.152.152,0,0,1,.006-.023.127.127,0,0,1,.006-.024c.014-.065.03-.13.046-.193.045-.182.09-.362.137-.54,0-.014.007-.03.011-.045a.108.108,0,0,0,.006-.021l.03-.11c0-.018.01-.035.015-.051a.147.147,0,0,0,.006-.022c.006-.022.013-.043.019-.065.017-.059.033-.121.051-.18.048-.163.1-.326.146-.487l.069-.216c.029-.087.056-.173.085-.259h0c.013-.039.026-.078.04-.117,0-.007,0-.013.006-.019s0,0,0-.006l0-.015,0-.011s0,0,0-.006a.132.132,0,0,1,.01-.027c0-.012.007-.022.011-.033a0,0,0,0,1,0,0c.006-.019.012-.038.019-.055s.016-.048.025-.071.016-.043.023-.065.025-.068.038-.1l.03-.084c.007-.022.014-.043.023-.064a.132.132,0,0,0,.007-.02v0c.009-.021.016-.043.025-.065.021-.053.042-.108.062-.162,0-.014.012-.03.017-.045.035-.091.071-.182.108-.271,0-.014.012-.029.016-.042.013-.032.025-.062.037-.091h0c.031-.072.061-.146.092-.218h0c.03-.074.062-.146.094-.218,0-.01.009-.02.013-.029s.007-.019.012-.026c.023-.053.047-.107.072-.16s.054-.118.081-.176c.006-.015.011-.028.017-.039.041-.085.081-.17.121-.253a.18.18,0,0,1,.014-.027c0-.01.009-.02.013-.029l.013-.029,0-.009c.011-.024.025-.051.038-.075h0c.009-.019.019-.038.027-.056l.029-.055a.053.053,0,0,1,.006-.013c.014-.029.029-.057.043-.084a.369.369,0,0,1,.025-.048c.059-.116.118-.23.18-.342.01-.02.022-.041.032-.059.02-.038.041-.075.062-.113.009-.014.017-.031.025-.045.02-.035.037-.068.058-.1s.037-.065.055-.1c.038-.066.077-.131.114-.195v0c.03-.049.061-.1.09-.149l.026-.042v0l.027-.042c.01-.019.022-.038.033-.055a.077.077,0,0,0,.009-.016c.011-.017.023-.035.033-.052l.016-.024.119-.188c.04-.062.081-.124.123-.186h0c.007-.01.013-.02.02-.029s.019-.03.027-.043l.022-.032c.041-.059.079-.119.12-.176l.059-.085c.042-.061.084-.12.127-.177h0l.065-.088.064-.087.065-.087.013-.017s0,0,0,0c.061-.081.121-.16.183-.24h0c.058-.073.115-.146.175-.218l.013-.017c.028-.035.055-.068.082-.1s.027-.035.042-.051a.026.026,0,0,1,.009-.009s.009-.012.013-.017a.007.007,0,0,0,0,0l.035-.041.013-.016c.055-.065.11-.127.165-.19s.088-.1.131-.149c0,0,.006-.007.01-.009a.019.019,0,0,1,.007-.009l.1-.11c.061-.065.12-.13.181-.193s.1-.1.147-.151c0,0,.006-.006.009-.009s.02-.021.032-.032l.047-.048c.019-.021.04-.042.061-.062s.033-.033.051-.049l.069-.068c.059-.059.12-.117.182-.175.017-.017.036-.035.055-.051.04-.039.082-.077.124-.114.019-.019.039-.037.059-.055s.03-.029.046-.042c.133-.117.266-.232.4-.344l.02-.017c.045-.038.091-.074.136-.11l.1-.081c.023-.019.045-.034.066-.053l.1-.073h0l.033-.025c.026-.019.05-.039.077-.058.045-.033.089-.068.136-.1.141-.105.286-.207.432-.306l.134-.088c.049-.035.1-.067.15-.1a.162.162,0,0,0,.016-.012l.208-.13c.117-.072.234-.143.352-.211l7.268-4.253a14.476,14.476,0,0,0-3.294,2.7v0a19.593,19.593,0,0,0-4.435,9.024,30.774,30.774,0,0,0-.681,4.947q-.065,1.083-.065,2.22c0,7.778,2.3,16.269,6.152,24.207C1207.736,1847.957,1207.752,1847.989,1207.767,1848.02Z" transform="translate(-1194.14 -1804.83)"/>
          </g>
          <g id="_Group_82" data-name="&lt;Group&gt;" transform="translate(19.066 13.486)">
            <path id="_Path_121" data-name="&lt;Path&gt;" class="cls-26" d="M1253.44,1796.86l7.429-4.347c5.359-3.136,12.791-2.726,20.992,1.978l-7.428,4.346C1266.231,1794.134,1258.8,1793.724,1253.44,1796.86Z" transform="translate(-1253.44 -1790.493)"/>
          </g>
          <g id="_Group_83" data-name="&lt;Group&gt;" transform="translate(11.591)">
            <path id="_Path_122" data-name="&lt;Path&gt;" class="cls-51" d="M1201.67,1704.167l7.428-4.347c7.26-4.248,17.332-3.682,28.465,2.7l-7.428,4.346C1219,1700.485,1208.93,1699.919,1201.67,1704.167Z" transform="translate(-1201.67 -1697.089)"/>
          </g>
          <g id="_Group_84" data-name="&lt;Group&gt;" transform="translate(40.057 17.483)">
            <path id="_Path_123" data-name="&lt;Path&gt;" class="cls-26" d="M1435.823,1869.038c0,8.435-2.7,14.613-7.154,18l-2.7-1.573c.075-.156.15-.316.222-.477.027-.063.056-.127.085-.192.068-.156.136-.313.2-.472l.056-.14c.08-.195.155-.394.228-.593.035-.092.068-.186.1-.28s.077-.218.113-.326q.169-.5.319-1.026c.027-.094.054-.189.08-.284q.188-.691.345-1.418c.011-.056.024-.116.036-.173l.031-.147c.013-.062.024-.124.036-.187.048-.235.091-.475.13-.718.011-.063.023-.127.032-.192s.02-.121.029-.182c.022-.136.042-.271.061-.409.012-.076.022-.153.032-.229.009-.056.016-.113.022-.169.014-.108.027-.218.04-.328s.029-.245.042-.369.023-.221.032-.332c0-.042.01-.085.013-.128.01-.111.02-.222.029-.333.007-.082.013-.165.019-.247s.015-.2.02-.293.015-.219.02-.331.013-.243.019-.365a.338.338,0,0,0,0-.039q.007-.149.013-.3c0-.052,0-.1.006-.156,0-.12.006-.241.009-.363,0-.143.007-.289.007-.435s0-.283,0-.426v-.01c0-18.7-13.263-41.513-29.565-50.86l7.43-4.346c6.994,4.011,13.43,10.5,18.5,18.083a72.351,72.351,0,0,1,4.345,7.421C1433.3,1851.945,1435.822,1860.884,1435.823,1869.038Z" transform="translate(-1398.83 -1818.18)"/>
          </g>
          <g id="_Group_85" data-name="&lt;Group&gt;" transform="translate(40.056 5.432)">
            <g id="_Group_86" data-name="&lt;Group&gt;">
              <path id="_Path_124" data-name="&lt;Path&gt;" class="cls-52" d="M1446.32,1803.644c0,8.049-1.8,14.581-4.971,19.344l-3.82-2.219-.407-.237c.035-.111.069-.222.1-.333.017-.055.035-.11.051-.165.049-.163.1-.326.143-.491.032-.111.063-.222.092-.334.007-.023.013-.046.019-.071.08-.29.155-.583.227-.882.006-.026.013-.054.019-.081q.054-.223.1-.448c.037-.162.072-.323.107-.488a.118.118,0,0,0,.006-.025c.026-.125.053-.252.078-.381.012-.055.022-.11.032-.166q.043-.215.082-.433s0,0,0,0c.026-.146.054-.292.078-.439l.026-.155q.037-.214.069-.429c.027-.173.053-.346.078-.521.022-.143.041-.288.059-.432.009-.063.017-.125.025-.188.021-.169.042-.338.063-.508l.048-.442c0-.028.006-.057.009-.084q.019-.175.034-.348c.006-.066.013-.134.019-.2a.076.076,0,0,0,0-.019c.014-.149.027-.3.039-.449,0-.023,0-.045.006-.068.011-.142.022-.284.032-.427,0-.047.007-.1.01-.145.01-.147.019-.3.027-.444.01-.169.019-.341.027-.513,0-.065.006-.128.009-.192.006-.142.012-.283.016-.425q0-.072,0-.143c.006-.162.01-.325.014-.488v-.013c0-.191.007-.383.009-.575v0c0-.193,0-.389,0-.583v-.01c0-11.516-3.7-24.161-9.8-35.723-1.337-2.534-2.79-5.016-4.344-7.421-6.99-10.818-16.041-20.118-25.929-25.788l7.428-4.347C1428.376,1747.4,1446.317,1778.261,1446.32,1803.644Z" transform="translate(-1398.82 -1734.71)"/>
            </g>
          </g>
          <g id="_Group_87" data-name="&lt;Group&gt;" transform="translate(78.357 74.365)">
            <path id="_Path_125" data-name="&lt;Path&gt;" class="cls-53" d="M1673.3,2212.15c0,8.049-1.8,14.581-4.971,19.344l-3.82-2.219-.407-.237c.035-.111.069-.222.1-.333.017-.055.035-.11.051-.164.049-.164.1-.327.143-.491.032-.111.064-.223.092-.334.007-.023.013-.046.019-.071.079-.291.155-.583.227-.882.006-.026.013-.053.019-.081q.054-.223.1-.448c.038-.162.072-.324.107-.488a.163.163,0,0,0,.006-.025c.026-.125.053-.252.078-.381.012-.055.022-.11.032-.166.029-.143.056-.287.082-.433l0,0c.026-.146.053-.292.078-.439l.026-.155q.036-.214.069-.429c.027-.173.053-.346.078-.521.021-.143.04-.287.059-.431.009-.064.017-.125.025-.188.022-.169.042-.338.064-.509l.047-.441.009-.084c.013-.117.025-.232.035-.348.006-.066.013-.134.019-.2a.093.093,0,0,0,0-.019c.015-.149.028-.3.039-.449,0-.023,0-.045.006-.068.011-.141.022-.284.032-.427,0-.048.007-.1.01-.145.01-.147.019-.3.027-.445.01-.169.019-.341.027-.512,0-.065.006-.129.009-.192.006-.141.012-.283.016-.424q0-.072,0-.143c.006-.162.01-.325.014-.489v-.013q.007-.286.009-.575v0c0-.193,0-.388,0-.583v-.01Z" transform="translate(-1664.1 -2212.15)"/>
          </g>
          <path id="_Compound_Path_6" data-name="&lt;Compound Path&gt;" class="cls-54" d="M1191.72,1765.841c-1.337-2.534-2.789-5.016-4.344-7.421-6.989-10.819-16.041-20.118-25.93-25.788,0,0,0,0-.007,0l-.32-.183c-.192-.109-.383-.214-.573-.319q-.351-.191-.7-.375l-.2-.105h-.006c-.1-.052-.195-.1-.292-.153l-.3-.151a.009.009,0,0,0-.006,0l-.359-.18-.077-.037c-.025-.013-.049-.026-.075-.038l-.152-.073a.025.025,0,0,0-.011-.006l-.025-.013-.041-.019c-.112-.055-.227-.11-.338-.162s-.228-.108-.342-.162l-.016-.007-.11-.051-.068-.032c-.052-.024-.105-.048-.157-.071l-.287-.13c-.244-.108-.488-.215-.729-.317h0c-.048-.022-.1-.042-.144-.062-.193-.081-.387-.162-.58-.24l-.006,0c-.186-.075-.374-.149-.56-.222l-.039-.014-.209-.081-.074-.027-.133-.051-.131-.048c-.1-.036-.191-.071-.287-.1s-.192-.069-.289-.1c-.025-.01-.048-.017-.074-.026-.133-.046-.266-.092-.4-.137l-.046-.016-.046-.016-.281-.094c-.191-.062-.38-.121-.569-.18s-.373-.113-.557-.167l-.137-.039-.2-.056c-.017-.006-.036-.012-.054-.016l-.025-.007a.041.041,0,0,1-.014,0l-.045-.012-.04-.011h0l-.036-.01-.154-.04c-.038-.011-.075-.02-.113-.03l-.312-.081-.253-.063c-.026-.007-.052-.013-.078-.019l-.391-.094-.082-.019q-.136-.032-.273-.061l-.11-.023-.286-.061a.475.475,0,0,1-.048-.01l-.105-.022-.269-.053h0l-.11-.02-.043-.009-.076-.015-.039-.007c-.061-.012-.123-.022-.183-.032-.029-.006-.058-.011-.087-.016l-.178-.031-.156-.026-.2-.032-.228-.035c-.1-.014-.2-.03-.306-.043l-.186-.024c-.048-.006-.1-.011-.146-.019-.065-.009-.132-.016-.2-.023l-.043-.006c-.073-.009-.146-.017-.22-.024l-.023,0-.24-.025h0l-.26-.024-.19-.016-.071-.006h-.027a.046.046,0,0,0-.015,0l-.036,0h0l-.087-.006c-.1-.009-.208-.016-.311-.022l-.039,0c-.114-.007-.228-.013-.342-.017s-.227-.01-.339-.013l-.2-.007h-.013c-.071,0-.14,0-.209,0l-.127,0h-.3c-.114,0-.228,0-.342,0l-.258.006h-.026c-.036,0-.072,0-.108,0l-.09,0c-.075,0-.149.006-.224.009l-.114.006c-.061,0-.123,0-.183.009a.2.2,0,0,1-.032,0c-.028,0-.055,0-.082,0l-.062,0-.177.013c-.029,0-.058,0-.087,0l-.1.009h-.013c-.061,0-.121.009-.182.015h0a.551.551,0,0,0-.067,0l-.048,0a.439.439,0,0,1-.049,0l-.241.024-.049.006c-.118.011-.235.025-.354.041l-.059.007-.178.023-.019,0c-.032,0-.062.009-.094.013-.117.016-.233.032-.348.051h0l-.078.013-.042.007c-.075.011-.149.025-.222.038l-.325.058-.066.013-.2.039-.093.019c-.029.007-.056.011-.084.019l-.087.017c-.058.013-.113.026-.169.038l-.033.007c-.066.014-.133.03-.2.046-.035.007-.068.016-.1.024l-.039.01a.093.093,0,0,0-.019,0c-.091.022-.183.045-.276.069-.022.006-.043.01-.065.017l-.038.008-.227.062c-.11.03-.219.062-.328.094l-.043.013h-.007c-.093.027-.183.055-.274.084-.108.033-.216.069-.323.1l-.319.11-.16.058-.045.016-.074.027-.039.015-.061.023-.166.062-.091.036c-.042.016-.084.032-.124.049l-.069.027-.116.046-.245.1-.063.026,0,0c-.087.036-.173.075-.26.114-.023.012-.046.022-.069.032q-.109.048-.217.1l-.025.011-.035.016c-.091.043-.182.087-.271.131h0s0,0-.007,0l-.032.016-.01,0-.051.026a.039.039,0,0,0-.01.006l-.216.11c-.055.027-.11.056-.165.087s-.087.045-.13.068l-.006,0c-.082.045-.162.088-.244.134l-.016.009,0,0,0,0c-.043.025-.085.048-.126.072l-.091.051-.026.016a19,19,0,0,0-2.275,1.549c-.111.087-.22.175-.326.264s-.215.181-.322.271c-.072.061-.141.123-.212.186-.105.094-.209.188-.315.285s-.205.193-.308.293c-4.962,4.806-7.9,12.606-7.9,22.877a63.3,63.3,0,0,0,1.389,12.831c.065.313.133.63.2.943.007.038.016.075.025.114h0l11.166,6.487q-.119-.385-.228-.771c-.013-.042-.025-.084-.036-.127,0-.011-.007-.025-.01-.036s0-.014-.007-.022-.007-.026-.011-.038c-.013-.045-.025-.091-.038-.137l-.022-.078s0-.006,0-.009c-.029-.1-.056-.2-.084-.3q-.41-1.5-.731-2.987c-.056-.255-.11-.509-.16-.764-.066-.335-.13-.667-.191-1h0c-.009-.045-.016-.089-.023-.133a.2.2,0,0,1-.006-.027c0-.007,0-.013,0-.02s0-.013,0-.018c0-.025-.007-.048-.012-.071-.011-.061-.023-.123-.033-.183h0c-.026-.151-.052-.3-.077-.455h0c-.023-.152-.047-.3-.071-.455v0c-.016-.107-.033-.214-.048-.321s-.027-.189-.042-.285l0-.038,0-.027a.111.111,0,0,0,0-.02c-.014-.1-.027-.206-.042-.309,0-.032-.007-.062-.013-.094a.473.473,0,0,0-.006-.048c-.012-.1-.025-.2-.036-.295l0-.032c0-.019,0-.036-.006-.055-.006-.037-.01-.075-.014-.114,0-.007,0-.015,0-.023s-.006-.045-.007-.068l-.009-.07a.2.2,0,0,1,0-.032c0-.033-.009-.065-.012-.1-.007-.062-.015-.124-.02-.187a.081.081,0,0,1,0-.016c0-.046-.01-.09-.014-.134s-.009-.088-.013-.131c0-.009,0-.016,0-.025s0-.041-.006-.059l-.013-.146c-.006-.04-.009-.082-.013-.125-.012-.126-.023-.25-.033-.375,0-.025,0-.048-.007-.072-.024-.3-.046-.592-.065-.885-.007-.111-.013-.221-.019-.332,0-.036,0-.074-.007-.11,0-.016,0-.032,0-.049s0-.015,0-.022,0-.03,0-.046,0-.016,0-.024a.144.144,0,0,0,0-.023l0-.048a.056.056,0,0,0,0-.016c0-.026,0-.052,0-.078l0-.082c0-.049,0-.1-.006-.149v-.029c0-.015,0-.029,0-.043v-.067c0-.045,0-.089-.006-.134s0-.061,0-.09c0-.009,0-.016,0-.024v-.036a.022.022,0,0,0,0-.009v-.05a.225.225,0,0,1,0-.032c0-.036,0-.072,0-.107,0-.017,0-.035,0-.052s0-.028,0-.04v-.036a.353.353,0,0,0,0-.039v-.016c0-.029,0-.058,0-.087v-.006a.219.219,0,0,1,0-.029v-.013c0-.017,0-.034,0-.052v-.025c0-.026,0-.05,0-.077v-.088c0-.02,0-.042,0-.062v-.043h0v-.064c0-.05,0-.1,0-.15s0-.1,0-.149c0-.091,0-.182,0-.275v-.061c0-.2.006-.4.01-.595h0c0-.2.011-.406.019-.6h0c0-.1.009-.2.013-.3h0c0-.071.009-.142.011-.212,0-.029,0-.056,0-.087s0-.043,0-.064,0-.039,0-.059a.157.157,0,0,0,0-.025c.006-.074.01-.149.015-.221s.01-.147.016-.22c.007-.1.015-.195.023-.292h0c.007-.1.016-.193.025-.289s.019-.188.027-.282a.042.042,0,0,1,0-.013c.007-.073.015-.147.022-.219,0-.02,0-.039.007-.058s.006-.066.01-.1a.132.132,0,0,0,0-.023q.026-.223.053-.442h0c.01-.088.023-.176.035-.264a.322.322,0,0,1,.006-.039c.011-.084.022-.168.035-.251h0c.026-.181.055-.361.084-.54,0,0,0-.01,0-.014.013-.084.029-.168.042-.251,0,0,0,0,0,0l0-.007,0-.032c.015-.079.027-.156.042-.235h0c.016-.089.033-.178.05-.264s.033-.176.052-.263h0c.017-.088.036-.175.055-.261s.038-.175.056-.258.035-.156.054-.233a.127.127,0,0,1,.006-.023.114.114,0,0,1,.006-.024c.014-.065.03-.13.046-.193.045-.182.089-.363.137-.54,0-.014.007-.03.012-.045a.108.108,0,0,0,.006-.022c.01-.038.02-.073.03-.11s.013-.048.02-.072.013-.043.019-.065c.017-.059.033-.121.05-.181.048-.163.1-.326.146-.487l.069-.217c.029-.086.056-.173.085-.258h0c.013-.039.026-.078.041-.117a.182.182,0,0,1,.006-.019s0,0,0-.006l0-.015,0-.011s0,0,0-.006a.138.138,0,0,1,.01-.027c0-.011.007-.022.011-.033a.005.005,0,0,1,0,0c.006-.019.012-.037.019-.055s.016-.048.024-.071.016-.043.023-.065.024-.068.038-.1.02-.056.03-.084.014-.043.023-.063a.112.112,0,0,0,.007-.02h0c.009-.022.016-.043.025-.065.022-.054.042-.108.062-.162,0-.014.011-.03.017-.045.035-.091.071-.182.108-.271,0-.014.011-.029.016-.042.013-.032.025-.062.037-.091h0c.031-.072.061-.146.093-.218h0c.03-.073.062-.146.094-.218,0-.01.009-.02.013-.029s.007-.019.011-.026c.023-.054.047-.107.072-.16s.053-.118.081-.176c.006-.015.012-.027.017-.039.04-.085.081-.17.121-.253a.163.163,0,0,1,.015-.027l.013-.029.013-.029a.048.048,0,0,0,0-.009c.012-.024.025-.05.038-.075h0c.009-.019.019-.036.027-.055l.029-.055a.069.069,0,0,1,.006-.013l.044-.083a.369.369,0,0,1,.025-.048c.058-.114.118-.23.18-.342.01-.02.022-.04.032-.059.02-.037.04-.075.062-.112l.025-.045c.02-.034.037-.068.058-.1s.037-.065.055-.1c.038-.067.077-.132.114-.195v0c.03-.049.061-.1.089-.149l.026-.042h0l.061-.1a.075.075,0,0,0,.009-.016c.012-.017.023-.034.033-.052l.016-.025.118-.187c.04-.062.081-.124.123-.187h0c.016-.024.032-.049.048-.072l.022-.032c.04-.059.079-.118.12-.176l.059-.085c.042-.061.084-.12.127-.177v0c.02-.029.042-.059.065-.088l.064-.087.065-.087.013-.017s0,0,0,0l.051-.068h0l.133-.17h0c.058-.074.115-.147.175-.218l.013-.017c.028-.035.055-.068.083-.1s.027-.034.042-.051a.041.041,0,0,1,.007-.009.1.1,0,0,1,.014-.017.007.007,0,0,0,0,0l.035-.04.013-.016c.055-.065.11-.127.165-.191s.088-.1.131-.149c0,0,.006-.007.01-.009a.014.014,0,0,1,.007-.009c.033-.038.065-.074.1-.11.061-.065.12-.13.18-.193s.1-.1.147-.152h0l.009-.007c.012-.011.02-.022.032-.032l.048-.048c.019-.022.041-.042.061-.062l.05-.049.069-.068c.059-.059.12-.117.182-.175.017-.017.036-.034.055-.05.04-.039.082-.077.124-.114.019-.019.039-.037.059-.055a.586.586,0,0,1,.046-.042c.133-.117.266-.232.4-.344l.02-.017c.045-.038.091-.074.136-.11l.1-.081c.023-.019.045-.035.067-.053s.065-.049.1-.075l.033-.024c.069-.054.14-.107.212-.158.142-.105.286-.206.432-.306l.134-.088c.049-.035.1-.067.15-.1a.182.182,0,0,0,.016-.012l.208-.13c.117-.072.234-.143.352-.211l.132-.073s.007,0,.01-.007c.061-.035.121-.068.183-.1l.052-.027.039-.022.026-.013.023-.013a.248.248,0,0,1,.036-.019c.023-.013.047-.026.074-.039.072-.038.146-.075.219-.111l.175-.085c.056-.027.111-.052.168-.078l.073-.035.071-.032c.126-.056.253-.111.38-.163l.105-.043.027-.011.059-.023c.023-.01.049-.02.074-.029.052-.022.107-.042.162-.062l.007,0,.117-.043h0l.183-.066.037-.013.2-.066c.078-.026.157-.052.237-.077l.114-.035.076-.023a.008.008,0,0,1,.006,0,.253.253,0,0,1,.042-.013s0,0,.006,0c.059-.019.12-.036.18-.052a.068.068,0,0,1,.012,0l.13-.035c.065-.018.131-.036.2-.052a.288.288,0,0,1,.046-.011l.165-.042h0c.043-.012.086-.02.131-.032.025,0,.049-.011.075-.017l.212-.046.131-.027.017,0,.14-.028c.016,0,.033-.007.051-.01a.328.328,0,0,1,.039-.007c.068-.013.136-.025.2-.036l.188-.032.134-.021.154-.022c.039-.006.078-.012.117-.016l.022,0,.072-.01.107-.013c.079-.01.159-.02.238-.027.061-.007.12-.013.182-.019,0,0,.006,0,.009,0h.011l.1-.01c.163-.014.325-.027.49-.036a.131.131,0,0,1,.026,0c.078-.006.158-.008.237-.013l.247-.01h.046c.049,0,.1,0,.15,0h.465s0,0,0,0h.144l.182,0,.13,0c.127,0,.257.009.385.016h.023a.03.03,0,0,1,.011,0,.087.087,0,0,1,.02,0h.01l.1.006.1.006.121.009c.042,0,.082,0,.123.009s.079.006.119.01h.016l.055,0,.049,0h.017l.068.007c.055,0,.111.008.167.016s.1.01.15.016l.129.014.127.013a.144.144,0,0,0,.027,0l.107.013.221.029.17.024.026,0c.023,0,.045.006.066.01.069.01.14.02.211.032l.289.048.324.059c.167.032.333.065.5.1.123.026.247.052.373.081h0l.248.057.218.054.157.04.136.035.053.013.2.055.153.043c.051.013.1.027.153.043h0l.306.09c.159.047.319.1.479.148l.087.028c.029.009.058.019.087.029.058.017.117.037.175.056l.209.071.036.013c.094.033.189.065.284.1l.03.01.027.01c.027.01.053.02.081.029l.181.067.049.017c.054.022.108.04.162.062.069.024.137.051.207.078l.157.061.3.12c.126.052.251.1.377.156l.023.01c.1.042.2.085.3.13l.149.063.087.039.093.04q.329.147.661.3c.141.066.283.134.426.2l.007,0,.269.133.039.019.094.048.036.017.1.052.064.033c.051.025.1.052.153.078.11.056.221.116.331.173.037.019.074.039.111.059l.075.041.061.032c.137.075.276.15.413.228a.008.008,0,0,1,.009,0c.146.079.29.162.434.244h0s.006,0,.009,0c16.3,9.347,29.562,32.161,29.565,50.86v.01c0,.143,0,.284,0,.426s0,.292-.007.435c0,.121-.006.242-.009.362,0,.052,0,.1-.006.156,0,.1-.009.2-.013.3a.329.329,0,0,1,0,.039c-.006.123-.011.244-.019.365s-.011.221-.02.331-.012.2-.02.293-.011.165-.019.247c-.009.111-.019.222-.029.333,0,.043-.009.087-.013.129-.009.111-.02.221-.032.332s-.027.247-.042.37-.026.219-.04.328c-.006.056-.013.113-.022.169-.01.076-.02.153-.032.229-.019.137-.039.273-.061.409-.009.061-.017.121-.029.182s-.021.128-.032.192c-.039.242-.082.482-.13.718-.012.063-.023.125-.036.188s-.02.1-.03.147-.025.117-.036.174c-.1.483-.219.957-.345,1.418-.026.1-.052.189-.08.284q-.149.524-.319,1.027c-.036.108-.073.218-.112.326s-.067.186-.1.28c-.073.2-.149.4-.228.593l-.057.14c-.065.159-.133.317-.2.472-.029.065-.058.128-.085.192-.072.16-.147.321-.222.477l2.7,1.574,8.46,4.916c.035-.111.069-.222.1-.333.017-.055.035-.11.05-.165q.074-.244.143-.491c.032-.111.064-.222.093-.333.007-.023.013-.046.019-.071.079-.29.155-.583.227-.882.006-.026.013-.054.019-.081.036-.149.071-.3.1-.448s.072-.323.107-.488a.122.122,0,0,0,.006-.025c.026-.125.053-.253.078-.381.011-.055.022-.111.032-.166q.043-.214.082-.433s0,0,0,0c.026-.146.053-.292.078-.439l.026-.155q.037-.214.069-.429c.027-.173.053-.346.078-.521.022-.143.041-.287.059-.432.009-.062.017-.125.025-.188.022-.169.042-.338.063-.508l.048-.442c0-.027.006-.056.009-.083.013-.117.025-.233.035-.348.006-.066.013-.134.019-.2a.1.1,0,0,0,0-.019c.014-.149.027-.3.039-.449,0-.023,0-.045.006-.068.012-.142.022-.285.032-.427,0-.048.007-.1.01-.145.01-.147.019-.3.027-.445.01-.169.019-.341.027-.512l.008-.192c.006-.142.012-.283.016-.425q0-.071,0-.143c.006-.162.01-.325.014-.488v-.013c0-.19.007-.382.009-.574v0c0-.194,0-.388,0-.583v-.01C1201.516,1790.048,1197.821,1777.4,1191.72,1765.841Z" transform="translate(-1121.39 -1722.853)"/>
          <path id="_Path_126" data-name="&lt;Path&gt;" class="cls-55" d="M1161.439,1732.629v12.049c-.144-.084-.289-.165-.434-.245a.008.008,0,0,0-.009,0c-.137-.078-.276-.153-.413-.228l-.061-.032-.186-.1q-.548-.292-1.093-.557c-.143-.071-.284-.139-.426-.2q-.662-.312-1.317-.586c-.126-.053-.251-.1-.377-.156l-.3-.12-.157-.061c-.069-.027-.137-.054-.207-.078-.053-.02-.108-.04-.162-.062-.3-.111-.6-.216-.9-.316-.117-.039-.232-.077-.348-.113-.16-.052-.321-.1-.479-.148-.2-.062-.41-.12-.614-.176-.342-.094-.684-.179-1.021-.255-.126-.029-.25-.055-.373-.081-.169-.036-.335-.069-.5-.1l-.324-.059-.289-.048c-.071-.012-.141-.022-.211-.032-.25-.039-.5-.071-.745-.1-.093-.011-.186-.022-.279-.03a19.15,19.15,0,0,0-2.167-.1l-.14,0h0c-.051,0-.1,0-.15,0h-.046l-.247.01-.263.015c-.165.009-.326.022-.49.036l-.116.01s-.007,0-.009,0c-.062.006-.121.011-.182.019-.079.007-.159.017-.238.027l-.107.013c-.025,0-.049.006-.072.01l-.022,0c-.039,0-.078.01-.117.016-.1.013-.192.027-.289.043l-.187.032c-.1.016-.2.033-.293.053l-.14.028-.017,0-.131.027-.212.046c-.026.006-.05.013-.075.017-.045.011-.088.02-.131.032h0l-.165.042a.288.288,0,0,0-.046.011c-.065.016-.131.033-.2.052l-.13.035a.068.068,0,0,0-.012,0c-.061.016-.121.033-.18.052,0,0,0,0-.006,0-.081.023-.16.048-.238.072s-.157.051-.237.077l-.2.066-.037.013-.183.066-.127.048c-.055.02-.11.041-.162.062-.025.008-.049.018-.074.029l-.059.023-.027.011-.105.043c-.127.052-.254.107-.38.163l-.144.066c-.056.026-.111.05-.168.078l-.175.085c-.073.036-.147.074-.219.111s-.133.068-.2.105l-.052.027-.183.1a.041.041,0,0,0-.01.007l-.132.073c-.118.068-.235.139-.352.211l-.208.13-.016.012c-.05.032-.1.063-.15.1l-.134.088c-.146.1-.29.2-.432.306-.072.051-.143.1-.212.158l-.033.024c-.032.026-.065.05-.1.075s-.043.035-.067.053l-.1.081-.136.11-.02.017c-.135.111-.268.227-.4.344a.586.586,0,0,0-.046.042c-.062.056-.123.111-.183.169-.019.016-.037.033-.055.05-.062.058-.123.115-.182.175l-.069.068-.05.049c-.02.02-.042.041-.061.062s-.033.032-.048.048l-.04.039h0q-.074.074-.147.152c-.061.063-.12.128-.18.193-.033.036-.065.072-.1.11a.014.014,0,0,0-.007.009s-.007.006-.01.009l-.131.149c-.055.064-.11.126-.165.191l-.013.016c-.017.02-.035.04-.052.062a.041.041,0,0,0-.007.009c-.013.016-.027.032-.042.051s-.055.066-.083.1l-.013.017c-.059.071-.117.144-.175.218-.045.056-.088.112-.133.17,0,0,0,0,0,0-.017.022-.035.045-.052.069l-.013.017c-.022.029-.043.056-.065.087s-.043.058-.064.087-.045.059-.065.088v0c-.043.059-.087.118-.127.177l-.059.085-.12.176-.022.032c-.016.023-.032.048-.048.072h0c-.042.062-.083.124-.123.187s-.079.124-.118.188l-.016.025-.033.052a.075.075,0,0,1-.009.016l-.061.1h0l-.026.042c-.029.05-.059.1-.089.149v0c-.039.063-.077.128-.114.195-.017.032-.036.063-.055.1s-.038.068-.058.1l-.025.045c-.022.037-.042.075-.062.112-.01.019-.022.039-.032.059-.062.113-.123.228-.18.342a.369.369,0,0,0-.025.048l-.044.083c-.021.04-.042.082-.062.123h0c-.027.056-.056.111-.082.169-.04.082-.081.167-.121.253l-.017.039c-.027.058-.055.117-.081.176s-.049.107-.072.16c0,.007-.007.017-.011.026a.284.284,0,0,0-.013.029c-.032.071-.062.144-.094.218s-.062.146-.093.22h0c-.013.029-.024.059-.037.091-.042.1-.084.208-.124.313-.006.015-.012.029-.017.045-.02.054-.04.108-.062.162-.009.022-.016.043-.025.065s-.01.027-.016.042c-.016.043-.03.085-.045.127s-.026.066-.038.1-.015.043-.023.065-.016.048-.024.071c-.034.1-.068.195-.1.293h0c-.029.085-.056.172-.085.258-.019.056-.038.114-.055.172,0,.015-.01.03-.014.045-.049.16-.1.324-.146.487-.017.059-.033.121-.05.181-.006.022-.013.043-.019.065s-.013.048-.02.072-.02.072-.03.11a.108.108,0,0,1-.006.022c0,.015-.007.029-.012.045-.048.178-.092.358-.137.54-.016.063-.032.128-.046.193a.114.114,0,0,0-.006.024.127.127,0,0,0-.006.023c-.019.077-.036.154-.054.233s-.037.17-.056.258-.038.173-.055.261h0c-.019.087-.036.175-.052.263s-.034.175-.05.264h0c-.015.079-.027.156-.042.235l0,.032a.021.021,0,0,0,0,.008c-.013.084-.029.168-.042.251,0,0,0,.01,0,.014-.029.179-.058.359-.084.54h0c-.013.083-.023.167-.035.251a.322.322,0,0,0-.006.039c-.012.088-.025.176-.035.264h0q-.028.219-.053.442a.132.132,0,0,1,0,.023c0,.033-.006.066-.01.1s0,.038-.007.058c-.007.072-.014.146-.022.219a.042.042,0,0,0,0,.013c-.009.094-.019.188-.027.282s-.018.19-.025.289h0q-.048.581-.078,1.178h0c0,.1-.009.2-.013.3h0c-.007.2-.015.4-.019.6h0c0,.2-.009.4-.01.595v.061c0,.093,0,.183,0,.275q0,1.735.15,3.513c0,.024,0,.047.007.072.013.167.029.335.046.5.01.12.022.24.035.361.048.45.1.9.162,1.357.013.088.024.176.038.264.029.214.061.429.094.643v0c.023.15.047.3.071.455s.051.3.077.453v0c.014.081.027.16.043.241,0,.026.009.053.015.081.007.043.014.088.023.133h0c.061.333.124.666.191,1,.051.254.1.508.16.764q.321,1.49.731,2.987c.058.208.114.416.175.622.011.043.023.085.036.127q.108.386.228.771l-11.166-6.487c-.079-.352-.154-.706-.228-1.058a63.3,63.3,0,0,1-1.389-12.831c0-10.271,2.934-18.071,7.9-22.877.2-.2.411-.39.622-.578.071-.064.14-.126.212-.186q.318-.275.648-.536a19,19,0,0,1,2.275-1.549l.026-.016.091-.051c.041-.024.082-.047.126-.072l.024-.014c.082-.045.162-.089.244-.133.045-.025.091-.05.136-.072s.109-.059.165-.087l.216-.11c.064-.033.129-.065.193-.1l.189-.092.035-.016.178-.081c.044-.022.088-.042.133-.062l.26-.114,0,0,.063-.026.245-.1c.1-.042.205-.082.309-.123l.091-.036.166-.062.061-.023.039-.015c.059-.023.119-.043.179-.065l.1-.036.319-.11c.107-.035.215-.071.323-.1l.074-.022c.068-.022.139-.043.208-.064l.043-.013c.108-.032.218-.063.328-.094l.029-.007c.078-.022.156-.043.236-.063.022-.007.043-.011.065-.017.222-.058.445-.113.669-.162.056-.011.111-.025.169-.038l.087-.017c.059-.013.117-.026.176-.037l.2-.039.066-.013.325-.058c.074-.013.147-.026.222-.038.039-.007.079-.013.12-.019,0,0,0,0,0,0,.1-.014.193-.029.29-.042.056-.009.113-.017.171-.025l.178-.023c.062-.007.123-.016.185-.022.036-.006.071-.01.105-.013l.172-.019.241-.024c.238-.023.478-.04.719-.056l.176-.01.247-.013.274-.01.208-.006.274-.006c.114,0,.228,0,.342,0q1.26,0,2.572.128h0c.641.064,1.29.149,1.948.26l.178.031.173.032c.121.02.244.043.365.067h0l.269.053.105.022c.208.043.416.087.625.134l.173.039.391.094c.44.107.885.225,1.331.352l.137.039c.185.055.371.11.557.167s.378.118.569.18l.281.094c.189.062.377.127.566.195.1.033.194.068.289.1q.416.149.835.31l.039.014c.186.074.374.147.56.222l.006,0c.482.2.967.4,1.455.619l.287.13.225.1.11.051q.715.331,1.435.7a.009.009,0,0,1,.006,0l.3.151c.1.05.195.1.292.153h.006l.2.105q.349.184.7.375c.19.105.381.211.573.319Z" transform="translate(-1121.39 -1722.853)"/>
          <g id="_Group_88" data-name="&lt;Group&gt;" transform="translate(10.504 17.833)">
            <path id="_Path_127" data-name="&lt;Path&gt;" class="cls-32" d="M1253.258,1875.456v.01c0,.143,0,.284,0,.426s0,.292-.007.435c0,.121-.006.243-.009.362,0,.052,0,.1-.006.156q-.007.154-.013.3c0,.013,0,.028,0,.039-.006.123-.012.244-.019.365s-.012.221-.02.331-.011.2-.02.293-.012.165-.019.247c-.009.111-.019.222-.029.333,0,.043-.009.087-.013.128-.009.111-.02.221-.032.332s-.027.247-.042.37-.026.219-.041.328c-.006.056-.013.113-.022.169-.01.076-.02.153-.032.229-.019.137-.039.273-.061.409-.009.061-.017.121-.029.182s-.02.128-.032.192c-.039.242-.082.482-.13.717-.012.064-.023.126-.036.188l-.03.147c-.011.058-.025.117-.036.173q-.156.725-.345,1.418c-.026.1-.052.189-.079.284q-.15.524-.319,1.027c-.036.108-.074.218-.113.326s-.066.186-.1.28c-.074.2-.149.4-.228.594l-.056.14c-.065.159-.133.316-.2.472-.029.065-.058.128-.085.192-.072.16-.147.321-.223.476l-15.232-8.851-2.664-1.549,0,.024c0-.009,0-.016,0-.024l-5.712-3.319-.631-.367-13-7.552-1.737-1.01-3.384-1.968-1.421-.824-10.63-6.178h0q-.12-.386-.228-.771c-.019-.062-.036-.123-.053-.185,0-.013-.007-.026-.011-.037-.013-.045-.025-.091-.038-.137l-.022-.078s0-.006,0-.009c-.027-.1-.056-.2-.084-.3q-.409-1.5-.73-2.987-.085-.383-.16-.764c-.066-.335-.13-.667-.191-1h0c-.009-.045-.016-.09-.023-.133a.182.182,0,0,1-.006-.027c0-.007,0-.013,0-.02s0-.013,0-.019a.052.052,0,0,1,0-.014c0-.019-.007-.038-.01-.056-.011-.061-.023-.123-.033-.183h0c-.026-.152-.052-.3-.076-.455h0c-.023-.151-.048-.3-.071-.455v0c-.016-.107-.033-.214-.048-.321s-.027-.189-.042-.284l0-.037c0-.01,0-.019,0-.028a.1.1,0,0,0,0-.02c-.014-.1-.027-.206-.042-.309,0-.032-.007-.062-.013-.094,0-.016,0-.032-.006-.048-.011-.1-.025-.2-.036-.294,0-.012,0-.022,0-.032s0-.036-.006-.055c-.006-.037-.01-.075-.014-.114,0-.007,0-.014,0-.023s-.006-.045-.007-.068l-.009-.069a.232.232,0,0,1,0-.032c-.012-.1-.023-.19-.032-.286a.085.085,0,0,1,0-.016c-.017-.167-.033-.331-.049-.5-.006-.041-.009-.083-.013-.126-.011-.126-.023-.25-.033-.375,0-.024,0-.047-.007-.072-.025-.3-.046-.592-.065-.885-.007-.111-.013-.221-.019-.332,0-.036,0-.073-.007-.11,0-.016,0-.032,0-.049s0-.014,0-.022,0-.03,0-.046,0-.016,0-.024c0-.029,0-.058,0-.087s0-.052,0-.078,0-.055,0-.083c0-.049,0-.1-.006-.149v-.029c0-.014,0-.029,0-.043v-.066c0-.045,0-.09-.006-.134s0-.061,0-.09c0-.009,0-.016,0-.024v-.036s0-.011,0-.016v-.043a.261.261,0,0,1,0-.031c0-.036,0-.072,0-.107,0-.017,0-.035,0-.052s0-.028,0-.04v-.036a.3.3,0,0,0,0-.039v-.016c0-.029,0-.058,0-.087v-.006a.183.183,0,0,1,0-.029v-.013c0-.018,0-.035,0-.052v-.024c0-.026,0-.051,0-.077v-.088c0-.02,0-.042,0-.062v-.108c0-.051,0-.1,0-.15s0-.1,0-.149c0-.091,0-.182,0-.274v-.061c0-.2.006-.4.01-.595h0c0-.2.011-.406.019-.6h0c0-.1.009-.2.013-.3h0c0-.071.009-.142.012-.212,0-.029,0-.056,0-.087s0-.043,0-.063,0-.039,0-.059a.131.131,0,0,0,0-.025c.006-.073.01-.149.014-.221s.01-.147.016-.22c.007-.1.015-.195.023-.292h0c.007-.1.016-.194.025-.289s.019-.188.027-.281a.04.04,0,0,1,0-.013l.022-.22c0-.02,0-.039.007-.057s.006-.067.01-.1a.134.134,0,0,0,0-.023c.017-.149.035-.3.053-.441h0c.01-.088.023-.176.035-.264a.391.391,0,0,1,.006-.039c.012-.084.022-.167.035-.251h0c.026-.18.055-.361.084-.54,0,0,0-.01,0-.014.013-.084.029-.168.042-.251,0,0,0,0,0,0s0,0,0-.007l0-.031.043-.237h0c.016-.09.033-.177.05-.264s.033-.176.052-.263h0c.017-.088.036-.175.055-.261s.037-.175.056-.258.039-.172.059-.256a.122.122,0,0,1,.006-.025c.014-.065.03-.13.046-.193.045-.182.09-.363.137-.54,0-.014.007-.031.011-.045a.108.108,0,0,0,.006-.021c.016-.053.03-.107.045-.16a.128.128,0,0,0,.006-.021c.006-.022.013-.043.019-.065.017-.059.033-.121.051-.181.048-.163.1-.326.146-.487l.069-.217c.029-.087.056-.173.085-.258h0c.013-.039.026-.078.04-.117,0-.007,0-.013.006-.019s0,0,0-.006l0-.014,0-.011s0,0,0-.006a.143.143,0,0,1,.01-.028c0-.011.007-.021.011-.033a0,0,0,0,1,0,0c.014-.042.029-.085.043-.126.009-.021.016-.043.023-.065s.025-.068.038-.1l.03-.084c.007-.021.014-.043.023-.063a.134.134,0,0,0,.007-.02h0c.009-.022.016-.043.025-.065.021-.053.042-.108.062-.162,0-.014.012-.03.017-.045.035-.091.071-.182.108-.271,0-.014.012-.029.016-.042.013-.032.025-.062.037-.091v0c.031-.072.061-.146.092-.218h0c.03-.073.062-.146.094-.218l.013-.029c0-.009.007-.019.012-.026.023-.053.047-.107.072-.16s.054-.119.081-.176c.006-.014.011-.027.017-.039.041-.085.081-.17.121-.253a.171.171,0,0,1,.014-.027c0-.01.009-.02.013-.029l.013-.029a.047.047,0,0,0,0-.009c.011-.024.025-.051.038-.075h0c.009-.019.019-.036.027-.055l.029-.055a.045.045,0,0,1,.006-.013c.014-.029.029-.056.043-.084a.369.369,0,0,1,.025-.048c.059-.116.118-.229.18-.342.01-.02.022-.04.032-.059.02-.037.041-.075.062-.113.009-.014.017-.03.025-.045.02-.034.037-.068.058-.1s.037-.065.055-.1c.038-.066.077-.131.114-.2v0c.03-.049.061-.1.09-.148l.026-.042h0l.027-.042c.01-.019.022-.038.033-.055a.072.072,0,0,0,.009-.016c.011-.017.023-.035.033-.052l.016-.024.119-.188c.04-.062.081-.124.123-.186h0c.007-.01.013-.02.02-.029l.027-.043.022-.032c.041-.059.079-.118.12-.176l.059-.085c.042-.061.084-.12.127-.177v0l.065-.088.064-.087.065-.087.013-.017s0,0,0,0l.051-.068v0l.133-.17h0c.058-.074.115-.146.175-.218l.013-.018q.041-.052.082-.1c.013-.017.027-.035.042-.051a.024.024,0,0,1,.009-.009.16.16,0,0,0,.013-.017.006.006,0,0,0,0,0l.035-.04.013-.016c.055-.065.11-.127.165-.191s.088-.1.131-.148c0,0,.006-.007.01-.009a.02.02,0,0,1,.007-.009l.1-.11c.061-.065.12-.13.181-.193s.1-.1.147-.152h0l.009-.007c.012-.012.02-.022.032-.032l.047-.048c.019-.021.04-.042.061-.062s.033-.033.051-.049l.069-.068c.059-.059.12-.117.182-.175.017-.017.036-.035.055-.051.04-.039.082-.076.124-.114s.071-.065.106-.1c.133-.117.266-.232.4-.344l.02-.017c.045-.037.091-.073.136-.109l.1-.081c.023-.019.045-.034.066-.053l.1-.074c.036-.029.074-.056.11-.084s.089-.068.136-.1c.141-.105.286-.207.432-.306l.134-.088c.049-.035.1-.066.15-.1a.13.13,0,0,0,.016-.011l.208-.13c.117-.072.234-.143.352-.211l.131-.073.01-.007c.061-.034.121-.068.183-.1l.052-.027.039-.021.026-.013.023-.013a.3.3,0,0,1,.036-.019l.074-.039c.072-.038.146-.075.22-.111.058-.029.115-.058.175-.085s.111-.052.167-.078l.074-.035.071-.032c.125-.056.253-.111.38-.163l.105-.043.027-.011.059-.023c.023-.01.049-.02.074-.029.052-.022.107-.042.162-.062l.007,0,.117-.043h0c.061-.023.121-.045.183-.066l.037-.013c.065-.023.13-.045.2-.066s.157-.052.237-.076l.114-.035.077-.023a.008.008,0,0,1,.006,0,.226.226,0,0,1,.042-.013s0,0,.006,0c.059-.019.12-.036.181-.052a.048.048,0,0,1,.011,0l.13-.035c.065-.019.131-.036.2-.052a.267.267,0,0,1,.046-.012l.165-.042h0c.043-.011.087-.02.131-.031.025,0,.049-.011.075-.018l.212-.046.131-.028.017,0,.14-.027a.457.457,0,0,1,.051-.01.321.321,0,0,1,.039-.007c.068-.013.136-.025.2-.036l.188-.032.134-.021.155-.022.117-.016.022,0,.072-.01.107-.013c.079-.01.159-.02.238-.027.06-.007.12-.013.182-.019a.016.016,0,0,1,.009,0h.012c.035,0,.069-.007.1-.01.163-.015.325-.028.49-.036h.026c.078-.006.157-.009.237-.013s.165-.008.247-.01H1210l.15,0h.465s0,0,0,0h.144l.182,0,.13,0c.127,0,.257.009.386.016h.023a.027.027,0,0,1,.011,0,.088.088,0,0,1,.02,0h.01l.1.006c.033,0,.066,0,.1.006l.121.009c.042,0,.082,0,.123.009s.079.006.118.01h.016l.055,0,.049,0h.017l.068.007c.055,0,.111.009.167.016s.1.01.15.016.085.009.129.014l.127.013a.14.14,0,0,0,.028,0l.107.013.221.029.17.025.026,0c.023,0,.045.006.066.01l.211.032.289.047.323.059c.167.032.333.065.5.1.123.026.247.052.373.081,0,0,0,0,0,0l.248.058c.072.018.146.035.218.053.054.013.105.026.157.041l.136.035.053.013.2.055.153.043c.051.013.1.028.153.043h0l.306.089c.159.048.319.1.479.149l.087.027c.029.009.058.019.087.029.058.017.117.037.175.056l.209.071.036.013c.094.033.189.065.284.1l.03.01.027.01c.027.01.054.02.081.029l.18.066.049.017c.053.022.108.04.162.062.069.024.137.051.206.078l.157.061.3.12c.125.052.251.1.377.156a.106.106,0,0,1,.023.01c.1.042.2.085.3.13l.149.063.087.039.092.04q.329.147.661.3c.142.067.283.134.426.205l.007,0,.269.133.039.019.231.117.064.033c.05.025.1.052.153.078.11.056.221.115.331.173.038.019.074.039.111.059l.075.04.06.032c.137.075.276.15.413.228a.009.009,0,0,1,.009,0c.146.079.29.162.435.244h0s.006,0,.008,0C1240,1833.944,1253.256,1856.758,1253.258,1875.456Z" transform="translate(-1194.14 -1820.6)"/>
          </g>
        </g>
      </g>
      <g id="_Group_89" data-name="&lt;Group&gt;" transform="translate(23.414 29.726)">
        <g id="_Group_90" data-name="&lt;Group&gt;">
          <g id="_Group_91" data-name="&lt;Group&gt;" transform="translate(0.315 26.164)">
            <path id="_Path_128" data-name="&lt;Path&gt;" class="cls-42" d="M1285.74,2087.161l4.868-2.85a1.526,1.526,0,0,1,.986-.081l-4.868,2.849A1.514,1.514,0,0,0,1285.74,2087.161Z" transform="translate(-1285.74 -2084.191)"/>
          </g>
          <g id="_Group_92" data-name="&lt;Group&gt;" transform="translate(1.301 26.203)">
            <path id="_Path_129" data-name="&lt;Path&gt;" class="cls-42" d="M1292.57,2087.309l4.869-2.849,2.443.366-4.869,2.848Z" transform="translate(-1292.57 -2084.46)"/>
          </g>
          <g id="_Group_93" data-name="&lt;Group&gt;" transform="translate(3.744 26.568)">
            <path id="_Path_130" data-name="&lt;Path&gt;" class="cls-42" d="M1309.49,2089.839l4.869-2.849a2.786,2.786,0,0,1,.947.312,3.571,3.571,0,0,1,1.4,2.293l-4.868,2.849a3.57,3.57,0,0,0-1.4-2.293A2.788,2.788,0,0,0,1309.49,2089.839Z" transform="translate(-1309.49 -2086.99)"/>
          </g>
          <g id="_Group_94" data-name="&lt;Group&gt;" transform="translate(6.09 29.173)">
            <path id="_Path_131" data-name="&lt;Path&gt;" class="cls-42" d="M1343.191,2115.2l-3.373,1.974-.631-.367-13-7.552c0-.01-.007-.021-.012-.032-.037-.1-.075-.2-.111-.306,0-.007-.006-.016-.009-.024-.033-.1-.067-.192-.1-.289-.042-.127-.084-.254-.121-.384-.035-.114-.069-.228-.1-.342l4.447-2.6.422-.247c.069.242.143.48.219.718h0a13.684,13.684,0,0,0,6.507,7.942q1.059.607,1.959,1.011C1341.06,2115.49,1342.37,2115.683,1343.191,2115.2Z" transform="translate(-1325.74 -2105.03)"/>
          </g>
          <g id="_Group_95" data-name="&lt;Group&gt;" transform="translate(2.869 2.895)">
            <path id="_Path_132" data-name="&lt;Path&gt;" class="cls-42" d="M1303.43,1926.493l4.869-2.849c1.625-.951,4.042-.83,7.254.537l-4.869,2.849C1307.471,1925.663,1305.056,1925.541,1303.43,1926.493Z" transform="translate(-1303.43 -1923.026)"/>
          </g>
          <g id="_Group_96" data-name="&lt;Group&gt;" transform="translate(6.734 10.832)">
            <g id="_Group_97" data-name="&lt;Group&gt;">
              <path id="_Path_133" data-name="&lt;Path&gt;" class="cls-42" d="M1354.306,2007.344c0,2.906-.784,4.945-2.294,6.011l-2.664-1.549,0,.025c0-.009,0-.016,0-.025.006-.041.01-.081.014-.121,0-.013,0-.025,0-.038,0-.033.009-.065.011-.1s.006-.067.009-.1c.006-.058.01-.117.015-.176.012-.152.02-.306.027-.465,0-.024,0-.051,0-.075,0-.068,0-.137.007-.205,0-.036,0-.071,0-.107,0-.075,0-.15,0-.227,0-9.605-6.676-14.519-12.209-18.32-3.744-2.6-7.028-5.117-7.028-8.488v-.006c0-.062,0-.123,0-.183,0-.025,0-.051,0-.077s0-.051,0-.075a.113.113,0,0,0,0-.023c0-.046,0-.091.007-.135,0,0,0-.007,0-.011,0-.051.007-.1.011-.146s.009-.086.013-.127.01-.084.016-.124c0-.02.007-.041.01-.062.006-.04.013-.08.02-.118,0-.006,0-.01,0-.016l.013-.058c0-.019.007-.039.011-.058a.015.015,0,0,1,0-.007c.01-.041.019-.082.03-.121.02-.08.043-.155.069-.228a2.23,2.23,0,0,1,.094-.232h0c.014-.032.03-.061.046-.091s.03-.056.046-.083.03-.051.046-.074.022-.032.032-.046.032-.045.049-.066.041-.05.062-.074a.625.625,0,0,1,.063-.066.023.023,0,0,1,.006-.007c.023-.022.046-.045.071-.065a.658.658,0,0,1,.069-.056.059.059,0,0,0,.011-.01c.043-.031.088-.06.135-.088l4.868-2.848c-.638.374-.947,1.211-.947,2.535a5.1,5.1,0,0,0,.11,1.054c.6,2.856,3.576,5.108,6.92,7.433.077.055.156.108.234.163a54.388,54.388,0,0,1,4.775,3.6h0C1351,1996.144,1354.3,2000.583,1354.306,2007.344Z" transform="translate(-1330.2 -1978)"/>
            </g>
          </g>
          <g id="_Group_98" data-name="&lt;Group&gt;" transform="translate(10.462)">
            <path id="_Path_134" data-name="&lt;Path&gt;" class="cls-42" d="M1356.02,1905.885l4.87-2.849c.241-.142.626-.036,1.2.293l-4.87,2.849C1356.648,1905.85,1356.263,1905.744,1356.02,1905.885Z" transform="translate(-1356.02 -1902.975)"/>
          </g>
          <g id="_Group_99" data-name="&lt;Group&gt;" transform="translate(15.902 4.562)">
            <path id="_Path_135" data-name="&lt;Path&gt;" class="cls-42" d="M1393.7,1937.418l4.87-2.848v2.8l-4.869,2.85Z" transform="translate(-1393.7 -1934.57)"/>
          </g>
          <g id="_Group_100" data-name="&lt;Group&gt;" transform="translate(11.662 0.354)">
            <path id="_Path_136" data-name="&lt;Path&gt;" class="cls-42" d="M1364.33,1908.279l4.87-2.849,2.743,1.572-4.869,2.85Z" transform="translate(-1364.33 -1905.43)"/>
          </g>
          <g id="_Group_101" data-name="&lt;Group&gt;" transform="translate(14.406 1.927)">
            <path id="_Path_137" data-name="&lt;Path&gt;" class="cls-42" d="M1383.34,1919.17l4.869-2.85a2.565,2.565,0,0,1,1.5,2.635l-4.87,2.849A2.561,2.561,0,0,0,1383.34,1919.17Z" transform="translate(-1383.34 -1916.32)"/>
          </g>
          <g id="_Group_102" data-name="&lt;Group&gt;" transform="translate(15.904 7.364)">
            <g id="_Group_103" data-name="&lt;Group&gt;">
              <path id="_Path_138" data-name="&lt;Path&gt;" class="cls-42" d="M1407.708,1969.27l-4.869,2.85c.459-.27.446-.924.042-2.092-1.851-5.458-4.435-9.691-9.171-13.2l4.868-2.85c4.736,3.509,7.32,7.742,9.171,13.2C1408.156,1968.348,1408.168,1969,1407.708,1969.27Z" transform="translate(-1393.71 -1953.98)"/>
            </g>
          </g>
          <g id="_Group_104" data-name="&lt;Group&gt;" transform="translate(0 2.849)">
            <g id="_Group_105" data-name="&lt;Group&gt;">
              <path id="_Path_139" data-name="&lt;Path&gt;" class="cls-56" d="M1290.1,2108.313l-1.737-1.009-3.384-1.968-1.421-.824a.665.665,0,0,1,.315-.464l.026-.016.027-.013a.611.611,0,0,1,.059-.025.345.345,0,0,1,.059-.019.007.007,0,0,1,.006,0l.062-.016.071-.013.055-.008.036,0c.023,0,.048,0,.071,0a2.669,2.669,0,0,1,.514.036l2.443.365a2.794,2.794,0,0,1,.947.312,3.571,3.571,0,0,1,1.4,2.293c.032.114.067.228.1.342.038.13.079.257.121.384.032.1.065.193.1.289,0,.008.006.017.009.025.036.1.074.2.111.306C1290.095,2108.291,1290.1,2108.3,1290.1,2108.313Z" transform="translate(-1283.56 -2077.763)"/>
              <path id="_Path_140" data-name="&lt;Path&gt;" class="cls-56" d="M1311.611,1962.886c0,.076,0,.152,0,.227,0,.036,0,.071,0,.107,0,.068,0,.137-.007.2,0,.025,0,.051,0,.075-.007.159-.016.313-.028.465,0,.059-.009.118-.014.176,0,.033-.006.068-.009.1s-.007.066-.012.1c0,.013,0,.025,0,.038,0,.041-.009.082-.013.121,0,.009,0,.016,0,.025,0-.009,0-.016,0-.025l-5.712-3.319-.631-.367a5.073,5.073,0,0,0,.157-1.352,5.846,5.846,0,0,0-.049-.756c-.417-3.206-3.467-5.521-7.033-7.935-.472-.329-.951-.667-1.434-1.018h0q-.32-.232-.641-.471c-.962-.716-1.929-1.479-2.863-2.3q-.457-.4-.9-.824c-3.549-3.368-6.419-7.707-6.421-13.736,0-3.081.837-5.209,2.518-6.194l.105-.059a.622.622,0,0,1,.059-.031l.006,0c.018-.009.035-.019.052-.026l.011,0s0,0,.007,0l.009,0c.011-.007.023-.011.033-.017h0a.063.063,0,0,1,.016-.007c.029-.015.058-.029.088-.042l.011-.006.022-.01c.038-.016.074-.032.113-.046.111-.046.228-.088.346-.124l.1-.03.039-.01a.068.068,0,0,0,.019-.006l.067-.017.021,0a.348.348,0,0,1,.049-.013c.037-.01.076-.019.114-.026.119-.026.237-.048.36-.065.043-.006.085-.013.128-.017l.026,0,.024,0,.147-.014.029,0h.02c.03,0,.061,0,.092-.006h.011l.058,0,.147-.006h.013c.061,0,.121,0,.182,0h.162l.152.006c.035,0,.069,0,.105,0l.087.006c.058,0,.117.007.176.015.023,0,.048,0,.071.007.059,0,.118.011.177.017l.082.011.126.016.172.026.188.032.022,0,.02,0c.056.01.114.02.171.032.2.04.4.086.606.14l.134.033q.158.043.321.091l.144.042c.107.033.215.068.323.1.043.014.087.027.13.043q.366.123.749.271l.2.079.2.083.205.086v-2.8c0-.66.1-1.047.339-1.187l.015-.007s0,0,.006,0h0a.008.008,0,0,1,.006,0,.176.176,0,0,1,.028-.011.493.493,0,0,1,.061-.02l.063-.011.046,0h.031c.025,0,.052,0,.081,0l.062.01a1.481,1.481,0,0,1,.284.083v0a2.537,2.537,0,0,1,.3.135c.069.034.141.075.219.12l2.413,1.383.331.189a2.564,2.564,0,0,1,1.5,2.635v2.8c4.736,3.508,7.32,7.743,9.171,13.2.012.036.025.072.036.107s.023.07.033.1.022.068.032.1.016.05.023.075l.013.043c.007.024.014.049.02.074s.017.062.026.092.016.061.021.09.019.079.027.119.013.06.019.091.009.048.013.069.01.061.015.089c0,.013,0,.024,0,.036a.709.709,0,0,1,.009.073.009.009,0,0,1,0,.006c0,.045.007.088.009.129s0,.076,0,.111v.042c0,.015,0,.029,0,.044l0,.04,0,.033h0s0,0,0,.006a.029.029,0,0,1,0,.012.5.5,0,0,1-.01.053.093.093,0,0,1,0,.01c0,.01,0,.019-.006.026s-.007.028-.011.041-.009.026-.013.037-.007.016-.01.025a.245.245,0,0,1-.02.042.131.131,0,0,1-.016.03.285.285,0,0,1-.028.046.458.458,0,0,1-.035.046.377.377,0,0,1-.043.048l-.014.014a.217.217,0,0,1-.022.019l-.01.009-.033.026-.027.017-.009.006s0,0,0,0,0,0,0,0a1.673,1.673,0,0,1-.972.146l-.432-.024h0l-2.01-.117a2.3,2.3,0,0,1-1-.267,3.626,3.626,0,0,1-1.339-2.1c-.138-.383-.28-.754-.429-1.116a12.96,12.96,0,0,0-5.954-6.949q-.633-.364-1.2-.647c-1.9-.949-3.227-1.211-4.031-.741-.046.027-.091.056-.134.088a.054.054,0,0,1-.011.01.712.712,0,0,0-.069.056c-.024.021-.048.043-.071.065l-.006.007a.742.742,0,0,0-.063.066c-.021.025-.042.048-.062.074s-.033.043-.049.067l-.032.046c-.016.023-.03.049-.046.074s-.032.055-.046.083-.032.06-.046.091h0a2.293,2.293,0,0,0-.094.232c-.026.074-.049.149-.069.228-.011.039-.02.081-.03.121a.014.014,0,0,0,0,.007c0,.019-.009.039-.011.058l-.013.058c0,.006,0,.01,0,.016-.007.039-.014.078-.02.118,0,.022-.006.042-.01.062-.006.041-.011.082-.016.124s-.009.084-.013.127-.009.1-.011.146c0,0,0,.007,0,.011,0,.043-.006.088-.007.135a.149.149,0,0,1,0,.023c0,.024,0,.049,0,.075s0,.052,0,.076c0,.061,0,.121,0,.184v.005c0,3.372,3.285,5.884,7.029,8.488C1304.934,1948.367,1311.609,1953.28,1311.611,1962.886Z" transform="translate(-1285.639 -1922.71)"/>
            </g>
          </g>
        </g>
      </g>
    </g>
  </g>
</svg>
