<svg width="746" height="99" viewBox="0 0 746 99" fill="none" xmlns="http://www.w3.org/2000/svg">
<path d="M94 47C106.465 47 118.42 51.9518 127.234 60.766C136.048 69.5802 141 81.5348 141 94L188 94C188 69.0697 178.096 45.1604 160.468 27.532C142.84 9.90355 118.93 8.23647e-07 94 1.12094e-06C69.0696 1.41823e-06 45.1604 9.90355 27.532 27.532C9.90355 45.1604 -2.99105e-06 69.0697 -2.69376e-06 94L47 94C47 81.5348 51.9518 69.5802 60.766 60.766C69.5802 51.9518 81.5348 47 94 47Z" fill="#ACE6F9"/>
<path d="M550 99L599.28 99L599.28 48.375L550 99Z" fill="#ACE6F9"/>
<path d="M644.44 55.8811L606.275 96L644.44 96L644.44 55.8811Z" stroke="#ACE6F9" stroke-width="6"/>
<path d="M647.44 99L696.72 99L696.72 48.375L647.44 99Z" fill="#ACE6F9"/>
<path d="M743 55.7578L703.827 96L743 96L743 55.7578Z" stroke="#ACE6F9" stroke-width="6"/>
<path d="M550 48.375L599.28 48.375L599.28 -2.05964e-06L550 48.375Z" fill="#ACE6F9"/>
<path d="M599.28 48.375L647.44 48.375L647.44 -2.0163e-06L599.28 48.375Z" fill="#ACE6F9"/>
<path d="M693.72 7.14877L654.779 45.375L693.72 45.375L693.72 7.14877Z" stroke="#ACE6F9" stroke-width="6"/>
<path d="M696.72 48.375L746 48.375L746 -2.05964e-06L696.72 48.375Z" fill="#ACE6F9"/>
</svg>
