<svg width="1440" height="456" viewBox="0 0 1440 456" fill="none" xmlns="http://www.w3.org/2000/svg">
<path d="M1153 31L1153 80.28L1203.63 80.28L1153 31Z" fill="#141125"/>
<path d="M1196.12 125.44L1156 87.2746L1156 125.44L1196.12 125.44Z" stroke="#141125" stroke-width="6"/>
<path d="M1153 128.44L1153 177.72L1203.63 177.72L1153 128.44Z" fill="#141125"/>
<path d="M1196.24 224L1156 184.827L1156 224L1196.24 224Z" stroke="#141125" stroke-width="6"/>
<path d="M1203.62 31L1203.62 80.28L1252 80.28L1203.62 31Z" fill="#141125"/>
<path d="M1203.62 80.28L1203.62 128.44L1252 128.44L1203.62 80.28Z" fill="#141125"/>
<path d="M1244.85 174.72L1206.62 135.779L1206.62 174.72L1244.85 174.72Z" stroke="#141125" stroke-width="6"/>
<path d="M1203.62 177.72L1203.62 227L1252 227L1203.62 177.72Z" fill="#141125"/>
<circle cx="151.5" cy="228.5" r="1.5" fill="#3C3754"/>
<circle cx="151.5" cy="254.5" r="1.5" fill="#3C3754"/>
<circle cx="151.5" cy="280.5" r="1.5" fill="#3C3754"/>
<circle cx="151.5" cy="306.5" r="1.5" fill="#3C3754"/>
<circle cx="151.5" cy="332.5" r="1.5" fill="#3C3754"/>
<circle cx="151.5" cy="358.5" r="1.5" fill="#3C3754"/>
<circle cx="185.5" cy="228.5" r="1.5" fill="#3C3754"/>
<circle cx="185.5" cy="254.5" r="1.5" fill="#3C3754"/>
<circle cx="185.5" cy="280.5" r="1.5" fill="#3C3754"/>
<circle cx="185.5" cy="306.5" r="1.5" fill="#3C3754"/>
<circle cx="185.5" cy="332.5" r="1.5" fill="#3C3754"/>
<circle cx="185.5" cy="358.5" r="1.5" fill="#3C3754"/>
<circle cx="219.5" cy="228.5" r="1.5" fill="#3C3754"/>
<circle cx="219.5" cy="254.5" r="1.5" fill="#3C3754"/>
<circle cx="219.5" cy="280.5" r="1.5" fill="#3C3754"/>
<circle cx="219.5" cy="306.5" r="1.5" fill="#3C3754"/>
<circle cx="219.5" cy="332.5" r="1.5" fill="#3C3754"/>
<circle cx="219.5" cy="358.5" r="1.5" fill="#3C3754"/>
<circle cx="253.5" cy="228.5" r="1.5" fill="#3C3754"/>
<circle cx="253.5" cy="254.5" r="1.5" fill="#3C3754"/>
<circle cx="253.5" cy="280.5" r="1.5" fill="#3C3754"/>
<circle cx="253.5" cy="306.5" r="1.5" fill="#3C3754"/>
<circle cx="253.5" cy="332.5" r="1.5" fill="#3C3754"/>
<circle cx="253.5" cy="358.5" r="1.5" fill="#3C3754"/>
<circle cx="287.5" cy="228.5" r="1.5" fill="#3C3754"/>
<circle cx="287.5" cy="254.5" r="1.5" fill="#3C3754"/>
<circle cx="287.5" cy="280.5" r="1.5" fill="#3C3754"/>
<circle cx="287.5" cy="306.5" r="1.5" fill="#3C3754"/>
<circle cx="287.5" cy="332.5" r="1.5" fill="#3C3754"/>
<circle cx="287.5" cy="358.5" r="1.5" fill="#3C3754"/>
<circle cx="321.5" cy="228.5" r="1.5" fill="#3C3754"/>
<circle cx="321.5" cy="254.5" r="1.5" fill="#3C3754"/>
<circle cx="321.5" cy="280.5" r="1.5" fill="#3C3754"/>
<circle cx="321.5" cy="306.5" r="1.5" fill="#3C3754"/>
<circle cx="321.5" cy="332.5" r="1.5" fill="#3C3754"/>
<circle cx="321.5" cy="358.5" r="1.5" fill="#3C3754"/>
<circle cx="355.5" cy="228.5" r="1.5" fill="#3C3754"/>
<circle cx="355.5" cy="254.5" r="1.5" fill="#3C3754"/>
<circle cx="355.5" cy="280.5" r="1.5" fill="#3C3754"/>
<circle cx="355.5" cy="306.5" r="1.5" fill="#3C3754"/>
<circle cx="355.5" cy="332.5" r="1.5" fill="#3C3754"/>
<circle cx="355.5" cy="358.5" r="1.5" fill="#3C3754"/>
<circle cx="389.5" cy="228.5" r="1.5" fill="#3C3754"/>
<circle cx="389.5" cy="254.5" r="1.5" fill="#3C3754"/>
<circle cx="389.5" cy="280.5" r="1.5" fill="#3C3754"/>
<circle cx="389.5" cy="306.5" r="1.5" fill="#3C3754"/>
<circle cx="389.5" cy="332.5" r="1.5" fill="#3C3754"/>
<circle cx="389.5" cy="358.5" r="1.5" fill="#3C3754"/>
</svg>
