<svg width="1060" height="392" viewBox="0 0 1060 392" fill="none" xmlns="http://www.w3.org/2000/svg">
<circle cx="65.5" cy="65.5" r="1.5" fill="#1C0B83"/>
<circle cx="65.5" cy="91.5" r="1.5" fill="#1C0B83"/>
<circle cx="65.5" cy="117.5" r="1.5" fill="#1C0B83"/>
<circle cx="65.5" cy="143.5" r="1.5" fill="#1C0B83"/>
<circle cx="65.5" cy="169.5" r="1.5" fill="#1C0B83"/>
<circle cx="65.5" cy="195.5" r="1.5" fill="#1C0B83"/>
<circle cx="99.5" cy="65.5" r="1.5" fill="#1C0B83"/>
<circle cx="99.5" cy="91.5" r="1.5" fill="#1C0B83"/>
<circle cx="99.5" cy="117.5" r="1.5" fill="#1C0B83"/>
<circle cx="99.5" cy="143.5" r="1.5" fill="#1C0B83"/>
<circle cx="99.5" cy="169.5" r="1.5" fill="#1C0B83"/>
<circle cx="99.5" cy="195.5" r="1.5" fill="#1C0B83"/>
<circle cx="133.5" cy="65.5" r="1.5" fill="#1C0B83"/>
<circle cx="133.5" cy="91.5" r="1.5" fill="#1C0B83"/>
<circle cx="133.5" cy="117.5" r="1.5" fill="#1C0B83"/>
<circle cx="133.5" cy="143.5" r="1.5" fill="#1C0B83"/>
<circle cx="133.5" cy="169.5" r="1.5" fill="#1C0B83"/>
<circle cx="133.5" cy="195.5" r="1.5" fill="#1C0B83"/>
<circle cx="167.5" cy="65.5" r="1.5" fill="#1C0B83"/>
<circle cx="167.5" cy="91.5" r="1.5" fill="#1C0B83"/>
<circle cx="167.5" cy="117.5" r="1.5" fill="#1C0B83"/>
<circle cx="167.5" cy="143.5" r="1.5" fill="#1C0B83"/>
<circle cx="167.5" cy="169.5" r="1.5" fill="#1C0B83"/>
<circle cx="167.5" cy="195.5" r="1.5" fill="#1C0B83"/>
<circle cx="201.5" cy="65.5" r="1.5" fill="#1C0B83"/>
<circle cx="201.5" cy="91.5" r="1.5" fill="#1C0B83"/>
<circle cx="201.5" cy="117.5" r="1.5" fill="#1C0B83"/>
<circle cx="201.5" cy="143.5" r="1.5" fill="#1C0B83"/>
<circle cx="201.5" cy="169.5" r="1.5" fill="#1C0B83"/>
<circle cx="201.5" cy="195.5" r="1.5" fill="#1C0B83"/>
<circle cx="235.5" cy="65.5" r="1.5" fill="#1C0B83"/>
<circle cx="235.5" cy="91.5" r="1.5" fill="#1C0B83"/>
<circle cx="235.5" cy="117.5" r="1.5" fill="#1C0B83"/>
<circle cx="235.5" cy="143.5" r="1.5" fill="#1C0B83"/>
<circle cx="235.5" cy="169.5" r="1.5" fill="#1C0B83"/>
<circle cx="235.5" cy="195.5" r="1.5" fill="#1C0B83"/>
<circle cx="269.5" cy="65.5" r="1.5" fill="#1C0B83"/>
<circle cx="269.5" cy="91.5" r="1.5" fill="#1C0B83"/>
<circle cx="269.5" cy="117.5" r="1.5" fill="#1C0B83"/>
<circle cx="269.5" cy="143.5" r="1.5" fill="#1C0B83"/>
<circle cx="269.5" cy="169.5" r="1.5" fill="#1C0B83"/>
<circle cx="269.5" cy="195.5" r="1.5" fill="#1C0B83"/>
<circle cx="303.5" cy="65.5" r="1.5" fill="#1C0B83"/>
<circle cx="303.5" cy="91.5" r="1.5" fill="#1C0B83"/>
<circle cx="303.5" cy="117.5" r="1.5" fill="#1C0B83"/>
<circle cx="303.5" cy="143.5" r="1.5" fill="#1C0B83"/>
<circle cx="303.5" cy="169.5" r="1.5" fill="#1C0B83"/>
<circle cx="303.5" cy="195.5" r="1.5" fill="#1C0B83"/>
<path d="M848 40H890.989V83.0001L848 40Z" fill="#1C0B83"/>
<path d="M890.987 40H933.992V83.0001L890.987 40Z" fill="#1C0B83"/>
<path d="M933.992 40H976.996V83.0001L933.992 40Z" fill="#1C0B83"/>
<path d="M976.996 40H1020V83.0001L976.996 40Z" fill="#1C0B83"/>
<path d="M848 82.9999H890.989V126L848 82.9999Z" fill="#1C0B83"/>
<path d="M890.987 82.9999H933.992V126L890.987 82.9999Z" fill="#1C0B83"/>
<path d="M933.992 82.9999H976.996V126L933.992 82.9999Z" fill="#1C0B83"/>
<path d="M976.996 82.9999H1020V126L976.996 82.9999Z" fill="#1C0B83"/>
</svg>
