<svg width="360" height="306" viewBox="0 0 360 306" fill="none" xmlns="http://www.w3.org/2000/svg">
<circle cx="1.5" cy="174.5" r="1.5" fill="#9FA9FF"/>
<circle cx="1.5" cy="200.5" r="1.5" fill="#9FA9FF"/>
<circle cx="1.5" cy="226.5" r="1.5" fill="#9FA9FF"/>
<circle cx="1.5" cy="252.5" r="1.5" fill="#9FA9FF"/>
<circle cx="1.5" cy="278.5" r="1.5" fill="#9FA9FF"/>
<circle cx="1.5" cy="304.5" r="1.5" fill="#9FA9FF"/>
<circle cx="35.5" cy="174.5" r="1.5" fill="#9FA9FF"/>
<circle cx="35.5" cy="200.5" r="1.5" fill="#9FA9FF"/>
<circle cx="35.5" cy="226.5" r="1.5" fill="#9FA9FF"/>
<circle cx="35.5" cy="252.5" r="1.5" fill="#9FA9FF"/>
<circle cx="35.5" cy="278.5" r="1.5" fill="#9FA9FF"/>
<circle cx="35.5" cy="304.5" r="1.5" fill="#9FA9FF"/>
<circle cx="69.5" cy="174.5" r="1.5" fill="#9FA9FF"/>
<circle cx="69.5" cy="200.5" r="1.5" fill="#9FA9FF"/>
<circle cx="69.5" cy="226.5" r="1.5" fill="#9FA9FF"/>
<circle cx="69.5" cy="252.5" r="1.5" fill="#9FA9FF"/>
<circle cx="69.5" cy="278.5" r="1.5" fill="#9FA9FF"/>
<circle cx="69.5" cy="304.5" r="1.5" fill="#9FA9FF"/>
<circle cx="103.5" cy="174.5" r="1.5" fill="#9FA9FF"/>
<circle cx="103.5" cy="200.5" r="1.5" fill="#9FA9FF"/>
<circle cx="103.5" cy="226.5" r="1.5" fill="#9FA9FF"/>
<circle cx="103.5" cy="252.5" r="1.5" fill="#9FA9FF"/>
<circle cx="103.5" cy="278.5" r="1.5" fill="#9FA9FF"/>
<circle cx="103.5" cy="304.5" r="1.5" fill="#9FA9FF"/>
<circle cx="137.5" cy="174.5" r="1.5" fill="#9FA9FF"/>
<circle cx="137.5" cy="200.5" r="1.5" fill="#9FA9FF"/>
<circle cx="137.5" cy="226.5" r="1.5" fill="#9FA9FF"/>
<circle cx="137.5" cy="252.5" r="1.5" fill="#9FA9FF"/>
<circle cx="137.5" cy="278.5" r="1.5" fill="#9FA9FF"/>
<circle cx="137.5" cy="304.5" r="1.5" fill="#9FA9FF"/>
<circle cx="171.5" cy="174.5" r="1.5" fill="#9FA9FF"/>
<circle cx="171.5" cy="200.5" r="1.5" fill="#9FA9FF"/>
<circle cx="171.5" cy="226.5" r="1.5" fill="#9FA9FF"/>
<circle cx="171.5" cy="252.5" r="1.5" fill="#9FA9FF"/>
<circle cx="171.5" cy="278.5" r="1.5" fill="#9FA9FF"/>
<circle cx="171.5" cy="304.5" r="1.5" fill="#9FA9FF"/>
<circle cx="205.5" cy="174.5" r="1.5" fill="#9FA9FF"/>
<circle cx="205.5" cy="200.5" r="1.5" fill="#9FA9FF"/>
<circle cx="205.5" cy="226.5" r="1.5" fill="#9FA9FF"/>
<circle cx="205.5" cy="252.5" r="1.5" fill="#9FA9FF"/>
<circle cx="205.5" cy="278.5" r="1.5" fill="#9FA9FF"/>
<circle cx="205.5" cy="304.5" r="1.5" fill="#9FA9FF"/>
<circle cx="239.5" cy="174.5" r="1.5" fill="#9FA9FF"/>
<circle cx="239.5" cy="200.5" r="1.5" fill="#9FA9FF"/>
<circle cx="239.5" cy="226.5" r="1.5" fill="#9FA9FF"/>
<circle cx="239.5" cy="252.5" r="1.5" fill="#9FA9FF"/>
<circle cx="239.5" cy="278.5" r="1.5" fill="#9FA9FF"/>
<circle cx="239.5" cy="304.5" r="1.5" fill="#9FA9FF"/>
<path d="M188 0H230.989V43.0001L188 0Z" fill="#9FA9FF"/>
<path d="M230.988 0H273.993V43.0001L230.988 0Z" fill="#9FA9FF"/>
<path d="M273.992 0H316.996V43.0001L273.992 0Z" fill="#9FA9FF"/>
<path d="M316.996 0H360V43.0001L316.996 0Z" fill="#9FA9FF"/>
<path d="M188 43H230.989V86.0001L188 43Z" fill="#9FA9FF"/>
<path d="M230.988 43H273.993V86.0001L230.988 43Z" fill="#9FA9FF"/>
<path d="M273.992 43H316.996V86.0001L273.992 43Z" fill="#9FA9FF"/>
<path d="M316.996 43H360V86.0001L316.996 43Z" fill="#9FA9FF"/>
</svg>
