<svg width="1059" height="416" viewBox="0 0 1059 416" fill="none" xmlns="http://www.w3.org/2000/svg">
<path d="M271 381C280.283 381 289.185 384.688 295.749 391.251C302.313 397.815 306 406.717 306 416L341 416C341 397.435 333.625 379.63 320.497 366.503C307.37 353.375 289.565 346 271 346C252.435 346 234.63 353.375 221.503 366.503C208.375 379.63 201 397.435 201 416L236 416C236 406.717 239.688 397.815 246.251 391.251C252.815 384.688 261.717 381 271 381Z" fill="#2A263F"/>
<circle cx="792.5" cy="168.5" r="1.5" fill="#2A263F"/>
<circle cx="792.5" cy="194.5" r="1.5" fill="#2A263F"/>
<circle cx="792.5" cy="220.5" r="1.5" fill="#2A263F"/>
<circle cx="792.5" cy="246.5" r="1.5" fill="#2A263F"/>
<circle cx="792.5" cy="272.5" r="1.5" fill="#2A263F"/>
<circle cx="792.5" cy="298.5" r="1.5" fill="#2A263F"/>
<circle cx="826.5" cy="168.5" r="1.5" fill="#2A263F"/>
<circle cx="826.5" cy="194.5" r="1.5" fill="#2A263F"/>
<circle cx="826.5" cy="220.5" r="1.5" fill="#2A263F"/>
<circle cx="826.5" cy="246.5" r="1.5" fill="#2A263F"/>
<circle cx="826.5" cy="272.5" r="1.5" fill="#2A263F"/>
<circle cx="826.5" cy="298.5" r="1.5" fill="#2A263F"/>
<circle cx="860.5" cy="168.5" r="1.5" fill="#2A263F"/>
<circle cx="860.5" cy="194.5" r="1.5" fill="#2A263F"/>
<circle cx="860.5" cy="220.5" r="1.5" fill="#2A263F"/>
<circle cx="860.5" cy="246.5" r="1.5" fill="#2A263F"/>
<circle cx="860.5" cy="272.5" r="1.5" fill="#2A263F"/>
<circle cx="860.5" cy="298.5" r="1.5" fill="#2A263F"/>
<circle cx="894.5" cy="168.5" r="1.5" fill="#2A263F"/>
<circle cx="894.5" cy="194.5" r="1.5" fill="#2A263F"/>
<circle cx="894.5" cy="220.5" r="1.5" fill="#2A263F"/>
<circle cx="894.5" cy="246.5" r="1.5" fill="#2A263F"/>
<circle cx="894.5" cy="272.5" r="1.5" fill="#2A263F"/>
<circle cx="894.5" cy="298.5" r="1.5" fill="#2A263F"/>
<circle cx="928.5" cy="168.5" r="1.5" fill="#2A263F"/>
<circle cx="928.5" cy="194.5" r="1.5" fill="#2A263F"/>
<circle cx="928.5" cy="220.5" r="1.5" fill="#2A263F"/>
<circle cx="928.5" cy="246.5" r="1.5" fill="#2A263F"/>
<circle cx="928.5" cy="272.5" r="1.5" fill="#2A263F"/>
<circle cx="928.5" cy="298.5" r="1.5" fill="#2A263F"/>
<circle cx="962.5" cy="168.5" r="1.5" fill="#2A263F"/>
<circle cx="962.5" cy="194.5" r="1.5" fill="#2A263F"/>
<circle cx="962.5" cy="220.5" r="1.5" fill="#2A263F"/>
<circle cx="962.5" cy="246.5" r="1.5" fill="#2A263F"/>
<circle cx="962.5" cy="272.5" r="1.5" fill="#2A263F"/>
<circle cx="962.5" cy="298.5" r="1.5" fill="#2A263F"/>
<circle cx="996.5" cy="168.5" r="1.5" fill="#2A263F"/>
<circle cx="996.5" cy="194.5" r="1.5" fill="#2A263F"/>
<circle cx="996.5" cy="220.5" r="1.5" fill="#2A263F"/>
<circle cx="996.5" cy="246.5" r="1.5" fill="#2A263F"/>
<circle cx="996.5" cy="272.5" r="1.5" fill="#2A263F"/>
<circle cx="996.5" cy="298.5" r="1.5" fill="#2A263F"/>
<circle cx="1030.5" cy="168.5" r="1.5" fill="#2A263F"/>
<circle cx="1030.5" cy="194.5" r="1.5" fill="#2A263F"/>
<circle cx="1030.5" cy="220.5" r="1.5" fill="#2A263F"/>
<circle cx="1030.5" cy="246.5" r="1.5" fill="#2A263F"/>
<circle cx="1030.5" cy="272.5" r="1.5" fill="#2A263F"/>
<circle cx="1030.5" cy="298.5" r="1.5" fill="#2A263F"/>
<path d="M40 121L80.48 121L80.48 79.5795L40 121Z" fill="#2A263F"/>
<path d="M117.04 87.0642L87.4937 118L117.04 118L117.04 87.0642Z" stroke="#2A263F" stroke-width="6"/>
<path d="M120.04 121L160.52 121L160.52 79.5795L120.04 121Z" fill="#2A263F"/>
<path d="M198 86.9415L167.647 118L198 118L198 86.9415Z" stroke="#2A263F" stroke-width="6"/>
<path d="M40 79.5796L80.48 79.5796L80.48 40L40 79.5796Z" fill="#2A263F"/>
<path d="M80.48 79.5796L120.04 79.5796L120.04 40L80.48 79.5796Z" fill="#2A263F"/>
<path d="M157.52 47.129L127.399 76.5796L157.52 76.5796L157.52 47.129Z" stroke="#2A263F" stroke-width="6"/>
<path d="M160.52 79.5796L201 79.5796L201 40L160.52 79.5796Z" fill="#2A263F"/>
</svg>
