<svg width="510" height="510" viewBox="0 0 510 510" fill="none" xmlns="http://www.w3.org/2000/svg">
<path d="M-1.43051e-05 0V510H510C510 374.74 456.268 245.019 360.624 149.376C264.981 53.732 135.26 0 -1.43051e-05 0V0Z" fill="#141125"/>
<circle cx="389.5" cy="225.5" r="1.5" transform="rotate(90 389.5 225.5)" fill="#2A263F"/>
<circle cx="363.5" cy="225.5" r="1.5" transform="rotate(90 363.5 225.5)" fill="#2A263F"/>
<circle cx="337.5" cy="225.5" r="1.5" transform="rotate(90 337.5 225.5)" fill="#2A263F"/>
<circle cx="311.5" cy="225.5" r="1.5" transform="rotate(90 311.5 225.5)" fill="#2A263F"/>
<circle cx="285.5" cy="225.5" r="1.5" transform="rotate(90 285.5 225.5)" fill="#2A263F"/>
<circle cx="259.5" cy="225.5" r="1.5" transform="rotate(90 259.5 225.5)" fill="#2A263F"/>
<circle cx="389.5" cy="259.5" r="1.5" transform="rotate(90 389.5 259.5)" fill="#2A263F"/>
<circle cx="363.5" cy="259.5" r="1.5" transform="rotate(90 363.5 259.5)" fill="#2A263F"/>
<circle cx="337.5" cy="259.5" r="1.5" transform="rotate(90 337.5 259.5)" fill="#2A263F"/>
<circle cx="311.5" cy="259.5" r="1.5" transform="rotate(90 311.5 259.5)" fill="#2A263F"/>
<circle cx="285.5" cy="259.5" r="1.5" transform="rotate(90 285.5 259.5)" fill="#2A263F"/>
<circle cx="259.5" cy="259.5" r="1.5" transform="rotate(90 259.5 259.5)" fill="#2A263F"/>
<circle cx="389.5" cy="293.5" r="1.5" transform="rotate(90 389.5 293.5)" fill="#2A263F"/>
<circle cx="363.5" cy="293.5" r="1.5" transform="rotate(90 363.5 293.5)" fill="#2A263F"/>
<circle cx="337.5" cy="293.5" r="1.5" transform="rotate(90 337.5 293.5)" fill="#2A263F"/>
<circle cx="311.5" cy="293.5" r="1.5" transform="rotate(90 311.5 293.5)" fill="#2A263F"/>
<circle cx="285.5" cy="293.5" r="1.5" transform="rotate(90 285.5 293.5)" fill="#2A263F"/>
<circle cx="259.5" cy="293.5" r="1.5" transform="rotate(90 259.5 293.5)" fill="#2A263F"/>
<circle cx="389.5" cy="327.5" r="1.5" transform="rotate(90 389.5 327.5)" fill="#2A263F"/>
<circle cx="363.5" cy="327.5" r="1.5" transform="rotate(90 363.5 327.5)" fill="#2A263F"/>
<circle cx="337.5" cy="327.5" r="1.5" transform="rotate(90 337.5 327.5)" fill="#2A263F"/>
<circle cx="311.5" cy="327.5" r="1.5" transform="rotate(90 311.5 327.5)" fill="#2A263F"/>
<circle cx="285.5" cy="327.5" r="1.5" transform="rotate(90 285.5 327.5)" fill="#2A263F"/>
<circle cx="259.5" cy="327.5" r="1.5" transform="rotate(90 259.5 327.5)" fill="#2A263F"/>
<circle cx="389.5" cy="361.5" r="1.5" transform="rotate(90 389.5 361.5)" fill="#2A263F"/>
<circle cx="363.5" cy="361.5" r="1.5" transform="rotate(90 363.5 361.5)" fill="#2A263F"/>
<circle cx="337.5" cy="361.5" r="1.5" transform="rotate(90 337.5 361.5)" fill="#2A263F"/>
<circle cx="311.5" cy="361.5" r="1.5" transform="rotate(90 311.5 361.5)" fill="#2A263F"/>
<circle cx="285.5" cy="361.5" r="1.5" transform="rotate(90 285.5 361.5)" fill="#2A263F"/>
<circle cx="259.5" cy="361.5" r="1.5" transform="rotate(90 259.5 361.5)" fill="#2A263F"/>
<circle cx="389.5" cy="395.5" r="1.5" transform="rotate(90 389.5 395.5)" fill="#2A263F"/>
<circle cx="363.5" cy="395.5" r="1.5" transform="rotate(90 363.5 395.5)" fill="#2A263F"/>
<circle cx="337.5" cy="395.5" r="1.5" transform="rotate(90 337.5 395.5)" fill="#2A263F"/>
<circle cx="311.5" cy="395.5" r="1.5" transform="rotate(90 311.5 395.5)" fill="#2A263F"/>
<circle cx="285.5" cy="395.5" r="1.5" transform="rotate(90 285.5 395.5)" fill="#2A263F"/>
<circle cx="259.5" cy="395.5" r="1.5" transform="rotate(90 259.5 395.5)" fill="#2A263F"/>
<circle cx="389.5" cy="429.5" r="1.5" transform="rotate(90 389.5 429.5)" fill="#2A263F"/>
<circle cx="363.5" cy="429.5" r="1.5" transform="rotate(90 363.5 429.5)" fill="#2A263F"/>
<circle cx="337.5" cy="429.5" r="1.5" transform="rotate(90 337.5 429.5)" fill="#2A263F"/>
<circle cx="311.5" cy="429.5" r="1.5" transform="rotate(90 311.5 429.5)" fill="#2A263F"/>
<circle cx="285.5" cy="429.5" r="1.5" transform="rotate(90 285.5 429.5)" fill="#2A263F"/>
<circle cx="259.5" cy="429.5" r="1.5" transform="rotate(90 259.5 429.5)" fill="#2A263F"/>
<circle cx="389.5" cy="463.5" r="1.5" transform="rotate(90 389.5 463.5)" fill="#2A263F"/>
<circle cx="363.5" cy="463.5" r="1.5" transform="rotate(90 363.5 463.5)" fill="#2A263F"/>
<circle cx="337.5" cy="463.5" r="1.5" transform="rotate(90 337.5 463.5)" fill="#2A263F"/>
<circle cx="311.5" cy="463.5" r="1.5" transform="rotate(90 311.5 463.5)" fill="#2A263F"/>
<circle cx="285.5" cy="463.5" r="1.5" transform="rotate(90 285.5 463.5)" fill="#2A263F"/>
<circle cx="259.5" cy="463.5" r="1.5" transform="rotate(90 259.5 463.5)" fill="#2A263F"/>
</svg>
