<?xml version="1.0" encoding="utf-8"?>
<!-- Generator: Adobe Illustrator 25.0.0, SVG Export Plug-In . SVG Version: 6.00 Build 0)  -->
<svg version="1.1" id="Layer_1" xmlns="http://www.w3.org/2000/svg" xmlns:xlink="http://www.w3.org/1999/xlink" x="0px" y="0px"
	 viewBox="0 0 754.3 468.3" style="enable-background:new 0 0 754.3 468.3;" xml:space="preserve">
<style type="text/css">
	.st0{fill:#FFFFFF;}
	.st1{fill:#E8D8FF;}
	.st2{opacity:5.100000e-02;fill:#8E69C5;enable-background:new    ;}
	.st3{opacity:0.2;fill:#8E69C5;enable-background:new    ;}
	.st4{opacity:0.302;fill:#8E69C5;enable-background:new    ;}
	.st5{opacity:0.4;fill:#8E69C5;enable-background:new    ;}
	.st6{opacity:0.502;fill:#8E69C5;enable-background:new    ;}
	.st7{opacity:0.6;fill:#8E69C5;enable-background:new    ;}
	.st8{opacity:0.8;fill:#8E69C5;enable-background:new    ;}
	.st9{fill:#8E69C5;}
	.st10{fill:#1D1E29;}
	.st11{fill:url(#_Path_11_1_);}
	.st12{fill:url(#_Path_13_1_);}
	.st13{fill-rule:evenodd;clip-rule:evenodd;fill:#7A639D;}
	.st14{fill-rule:evenodd;clip-rule:evenodd;fill:url(#_Compound_Path_3_1_);}
	.st15{fill-rule:evenodd;clip-rule:evenodd;fill:url(#_Compound_Path_5_1_);}
	.st16{fill:#1F1F2B;}
	.st17{fill:url(#_Path_15_1_);}
	.st18{fill:url(#_Path_17_1_);}
	.st19{fill-rule:evenodd;clip-rule:evenodd;fill:url(#_Compound_Path_7_1_);}
	.st20{opacity:0.2;}
	.st21{fill:#1D1D27;}
	.st22{opacity:0.702;}
	.st23{fill:url(#_Path_21_1_);}
	.st24{opacity:0.102;fill:#8E69C5;enable-background:new    ;}
	.st25{fill-rule:evenodd;clip-rule:evenodd;fill:#8E69C5;}
	.st26{opacity:0.302;fill-rule:evenodd;clip-rule:evenodd;fill:#8E69C5;enable-background:new    ;}
	.st27{opacity:0.102;fill-rule:evenodd;clip-rule:evenodd;fill:#8E69C5;enable-background:new    ;}
	.st28{fill:url(#_Path_26_1_);}
	.st29{fill:url(#_Path_27_1_);}
	.st30{opacity:0.502;fill:url(#_Path_28_1_);enable-background:new    ;}
	.st31{opacity:0.502;fill-rule:evenodd;clip-rule:evenodd;fill:#8E69C5;enable-background:new    ;}
	.st32{fill:url(#SVGID_3_);}
</style>
<path id="Path_9705" class="st0" d="M24.4,215.6c0.4,0,0.9,0,1.3-0.2c0.6-0.1,1-0.7,0.9-1.3c0-0.3-0.2-0.7-0.5-0.8
	c-0.5-0.2-1-0.4-1.5-0.5l-1.1-0.3c-0.8-0.1-1.6-0.4-2.3-0.8c-0.7-0.5-1.2-1.4-1.1-2.3c0-0.9,0.4-1.8,1.1-2.4c0.9-0.7,2-1,3.1-1
	c1,0,2.1,0.3,2.9,0.9c0.8,0.6,1.3,1.6,1.3,2.6h-2.2c0-0.6-0.3-1.1-0.9-1.4c-0.4-0.2-0.9-0.3-1.3-0.3c-0.5,0-1,0.1-1.4,0.4
	c-0.3,0.2-0.5,0.6-0.5,1c0,0.4,0.2,0.7,0.5,0.9c0.4,0.2,0.9,0.4,1.4,0.4l1.9,0.4c0.7,0.1,1.3,0.4,1.8,0.8c0.7,0.5,1,1.4,1,2.2
	c0,0.9-0.4,1.9-1.1,2.5c-0.9,0.7-2,1.1-3.2,1c-1.2,0.1-2.4-0.3-3.3-1c-0.8-0.6-1.3-1.6-1.2-2.6h2.2c0,0.4,0.2,0.8,0.4,1.1
	C23,215.4,23.7,215.7,24.4,215.6z M30.6,210c0.7-0.8,1.8-1.2,2.8-1.1c0.8,0,1.6,0.2,2.3,0.5c0.7,0.4,1.1,1.2,1,2v3.7
	c0,0.3,0,0.6,0,0.9c0,0.2,0,0.4,0.1,0.6c0.1,0.1,0.2,0.2,0.3,0.2v0.3h-2.3c-0.1-0.1-0.1-0.3-0.1-0.5c0-0.1,0-0.3-0.1-0.5
	c-0.3,0.3-0.6,0.6-1,0.8c-0.5,0.3-1,0.4-1.5,0.4c-0.7,0-1.3-0.2-1.8-0.6c-0.5-0.4-0.7-1.1-0.7-1.8c-0.1-0.9,0.4-1.7,1.1-2.1
	c0.6-0.3,1.2-0.5,1.8-0.5l0.7-0.1c0.3,0,0.6-0.1,0.8-0.2c0.3-0.1,0.4-0.3,0.4-0.6c0-0.3-0.1-0.5-0.3-0.7c-0.3-0.1-0.7-0.2-1-0.2
	c-0.4,0-0.8,0.1-1,0.4c-0.2,0.2-0.3,0.5-0.3,0.7h-2C30,211.1,30.2,210.5,30.6,210L30.6,210z M32.1,215.6c0.2,0.2,0.5,0.2,0.7,0.2
	c0.4,0,0.9-0.1,1.2-0.4c0.4-0.4,0.6-0.9,0.6-1.4v-0.8c-0.1,0.1-0.3,0.1-0.4,0.2c-0.2,0.1-0.4,0.1-0.6,0.1l-0.5,0.1
	c-0.3,0-0.6,0.1-0.9,0.3c-0.3,0.2-0.5,0.5-0.5,0.9C31.8,215.2,31.9,215.4,32.1,215.6L32.1,215.6z M37.8,209.2h2.3l1.7,5.9l1.7-5.9
	h2.2l-2.9,8h-2.2L37.8,209.2z M49,209.2v8h-2.1v-8L49,209.2z M49,206.3v1.9h-2.1v-1.9H49z M54.8,210.7c-0.6,0-1.2,0.3-1.5,0.9
	c-0.1,0.4-0.2,0.8-0.2,1.2v4.3H51v-8h2v1.2c0.2-0.3,0.5-0.6,0.8-0.9c0.5-0.3,1.1-0.5,1.6-0.5c0.7,0,1.4,0.2,2,0.6
	c0.6,0.6,0.9,1.4,0.8,2.1v5.4h-2.1v-4.9c0-0.3,0-0.7-0.2-1C55.7,210.9,55.3,210.7,54.8,210.7z M62.4,218.5c0.3,0.2,0.7,0.3,1.1,0.3
	c0.6,0.1,1.2-0.2,1.5-0.8c0.2-0.5,0.3-1.1,0.2-1.6v-0.5c-0.2,0.3-0.4,0.6-0.6,0.8c-0.5,0.3-1,0.5-1.6,0.5c-0.9,0-1.8-0.4-2.5-1.1
	c-0.6-0.8-1-1.9-0.9-2.9c0-1.1,0.3-2.1,0.9-3c0.6-0.8,1.5-1.3,2.5-1.2c0.4,0,0.7,0.1,1,0.2c0.5,0.2,1,0.6,1.2,1.2v-1.1h2v7.6
	c0.1,0.8-0.1,1.6-0.5,2.3c-0.6,0.9-1.7,1.3-3.4,1.3c-0.9,0-1.7-0.2-2.5-0.6c-0.6-0.4-1-1.1-1.1-1.8h2.3
	C62.2,218.2,62.3,218.4,62.4,218.5z M62.1,214.4c0.2,0.6,0.8,1,1.5,1c0.5,0,0.9-0.2,1.2-0.6c0.4-0.5,0.6-1.1,0.5-1.8
	c0-0.6-0.1-1.2-0.5-1.7c-0.3-0.4-0.8-0.6-1.3-0.6c-0.7,0-1.3,0.4-1.5,1c-0.2,0.4-0.2,0.9-0.2,1.4C61.8,213.6,61.9,214,62.1,214.4
	L62.1,214.4z M74.8,209.5c0.7,0.5,1.1,1.2,1.1,2.1h-2.1c0-0.2-0.1-0.4-0.2-0.6c-0.3-0.3-0.7-0.5-1.2-0.4c-0.3,0-0.7,0-1,0.2
	c-0.2,0.1-0.3,0.3-0.3,0.5c0,0.2,0.1,0.4,0.3,0.5c0.7,0.3,1.4,0.4,2.2,0.6c0.7,0.1,1.3,0.4,1.9,0.9c0.4,0.4,0.6,0.9,0.6,1.5
	c0,0.7-0.3,1.5-0.9,1.9c-0.8,0.6-1.8,0.8-2.7,0.8c-1,0.1-2-0.2-2.8-0.8c-0.6-0.5-0.9-1.2-0.9-2h2.1c0,0.3,0.1,0.6,0.3,0.8
	c0.4,0.3,0.9,0.5,1.4,0.4c0.3,0,0.7,0,1-0.2c0.2-0.1,0.4-0.3,0.4-0.5c0-0.2-0.1-0.4-0.3-0.5c-0.7-0.3-1.4-0.5-2.2-0.6
	c-0.7-0.1-1.3-0.4-1.9-0.8c-0.4-0.4-0.6-0.9-0.6-1.4c0-0.7,0.3-1.4,0.9-1.9c0.7-0.6,1.6-0.9,2.4-0.8
	C73.2,208.9,74.1,209.1,74.8,209.5z"/>
<path id="Path_9706" class="st0" d="M391.8,339.1v3h-1.9v-3h-3v-1.9h3v-3h1.9v3h3v1.9L391.8,339.1z M400.2,333.7
	c-0.3-0.3-0.7-0.5-1.1-0.4c-0.5-0.1-1.1,0.2-1.3,0.7c-0.2,0.4-0.2,0.9-0.2,1.3h-2c0-0.8,0.2-1.5,0.5-2.2c0.6-1.1,1.7-1.7,3-1.6
	c1-0.1,1.9,0.3,2.7,0.9c0.7,0.6,1,1.5,1,2.5c0,0.8-0.2,1.5-0.7,2.1c-0.4,0.5-0.9,1-1.5,1.4l-0.8,0.6c-0.5,0.4-0.9,0.6-1.1,0.8
	c-0.2,0.2-0.4,0.4-0.5,0.6h4.6v1.8h-7.3c0-0.7,0.2-1.4,0.5-2.1c0.5-0.9,1.2-1.7,2.1-2.2c0.7-0.4,1.3-0.9,1.9-1.5
	c0.4-0.4,0.6-0.9,0.7-1.5C400.6,334.4,400.5,334,400.2,333.7L400.2,333.7z M411.2,338.2v1.6H410v2.3h-2v-2.3h-4.2V338l3.9-6.4h2.3
	v6.6H411.2z M405.3,338.2h2.7v-4.6L405.3,338.2z M419.1,339.6c0-0.7,0.3-1.4,0.8-1.9c0.5-0.5,1.2-0.8,1.9-0.8c0.7,0,1.4,0.3,1.9,0.8
	c0.5,0.5,0.8,1.2,0.8,1.9c0,0.7-0.3,1.4-0.8,1.9c-0.5,0.5-1.2,0.8-1.9,0.8c-0.7,0-1.4-0.3-1.9-0.8
	C419.4,341.1,419.1,340.4,419.1,339.6z M412.8,336.2c-0.5-0.5-0.8-1.2-0.8-1.9c0-0.7,0.3-1.4,0.8-1.9c0.5-0.5,1.2-0.8,1.9-0.8
	c0.7,0,1.4,0.3,1.9,0.8c0.5,0.5,0.8,1.2,0.8,1.9c0,0.7-0.3,1.4-0.8,1.9c-0.5,0.5-1.2,0.8-1.9,0.8C414,337,413.3,336.7,412.8,336.2z
	 M415.9,342.4h-1.1l5.9-10.9h1.1L415.9,342.4z M421,340.5c0.2,0.2,0.5,0.3,0.8,0.3c0.3,0,0.6-0.1,0.8-0.3c0.2-0.2,0.3-0.5,0.3-0.8
	c0-0.3-0.1-0.6-0.3-0.8c-0.2-0.2-0.5-0.3-0.8-0.3c-0.3,0-0.6,0.1-0.8,0.3c-0.2,0.2-0.3,0.5-0.3,0.8
	C420.7,339.9,420.8,340.2,421,340.5L421,340.5z M413.9,335.1c0.2,0.2,0.5,0.3,0.8,0.3c0.3,0,0.6-0.1,0.8-0.3
	c0.2-0.2,0.3-0.5,0.3-0.8c0-0.3-0.1-0.6-0.3-0.8c-0.2-0.2-0.5-0.3-0.8-0.3c-0.3,0-0.6,0.1-0.8,0.3c-0.2,0.2-0.3,0.5-0.3,0.8
	C413.6,334.6,413.7,334.9,413.9,335.1z M433.3,340.1l1.6-5.9h2.2l-2.7,7.9c-0.3,1-0.7,1.9-1.3,2.8c-0.5,0.4-1.2,0.6-1.8,0.5
	c-0.2,0-0.3,0-0.4,0s-0.3,0-0.5,0v-1.7l0.3,0c0.2,0,0.4,0,0.6,0c0.2,0,0.3-0.1,0.5-0.2c0.2-0.1,0.3-0.3,0.3-0.5
	c0.1-0.1,0.1-0.3,0.1-0.5l-2.9-8.3h2.3L433.3,340.1z M440.6,334.2v8h-2.1v-8L440.6,334.2z M440.6,331.3v1.9h-2.1v-1.9H440.6z
	 M449.4,339.8c-0.1,0.5-0.3,1.1-0.7,1.4c-0.7,0.8-1.8,1.2-2.9,1.2c-1,0-1.9-0.3-2.7-1c-0.8-0.8-1.3-2-1.2-3.2
	c-0.1-1.2,0.3-2.3,1.1-3.2c0.7-0.7,1.7-1.1,2.7-1.1c0.6,0,1.2,0.1,1.8,0.4c0.5,0.3,1,0.7,1.3,1.2c0.3,0.5,0.5,1.1,0.6,1.6
	c0.1,0.5,0.1,1.1,0.1,1.6H444c0,0.7,0.2,1.3,0.8,1.7c0.3,0.2,0.7,0.3,1,0.3c0.4,0,0.8-0.1,1-0.4c0.2-0.2,0.3-0.3,0.4-0.5H449.4z
	 M447.3,337.4c0-0.5-0.2-0.9-0.5-1.3c-0.3-0.3-0.7-0.4-1.1-0.4c-0.4,0-0.8,0.1-1.1,0.5c-0.3,0.4-0.5,0.8-0.5,1.2H447.3z
	 M450.9,331.4h2.1v10.8h-2.1L450.9,331.4z M462.3,331.4v10.8h-2V341c-0.2,0.4-0.6,0.8-1,1c-0.4,0.2-0.9,0.3-1.4,0.3
	c-0.9,0-1.8-0.4-2.4-1.1c-0.7-0.8-1-1.8-1-2.9c-0.1-1.1,0.3-2.3,0.9-3.2c0.6-0.8,1.5-1.2,2.5-1.2c0.5,0,0.9,0.1,1.3,0.3
	c0.4,0.2,0.7,0.5,0.9,0.9v-3.8L462.3,331.4z M456.7,338.2c0,0.6,0.1,1.2,0.4,1.8c0.3,0.4,0.8,0.7,1.3,0.7c0.5,0,1-0.2,1.3-0.7
	c0.3-0.5,0.5-1.1,0.5-1.7c0.1-0.8-0.2-1.5-0.7-2.1c-0.3-0.3-0.7-0.4-1.1-0.4c-0.5,0-1.1,0.2-1.3,0.7
	C456.8,337,456.6,337.6,456.7,338.2z"/>
<path id="_Path_" class="st1" d="M423.4,137.5c0,1.3-1,2.3-2.3,2.3c-1.3,0-2.3-1-2.3-2.3c0-1.3,1-2.3,2.3-2.3
	C422.3,135.1,423.4,136.2,423.4,137.5z"/>
<g id="_Group_2">
	<path id="_Path_2" class="st2" d="M6.5,236.5H0V230h6.5V236.5z"/>
	<path id="_Path_3" class="st3" d="M19,236.5h-6.5V230H19V236.5z"/>
	<path id="_Path_4" class="st4" d="M31.5,236.5H25V230h6.6V236.5z"/>
	<path id="_Path_5" class="st5" d="M44,236.5h-6.5V230H44V236.5z"/>
	<path id="_Path_6" class="st6" d="M56.5,236.5H50V230h6.5V236.5z"/>
	<path id="_Path_7" class="st7" d="M69,236.5h-6.5V230H69V236.5z"/>
	<path id="_Path_8" class="st8" d="M81.5,236.5h-6.5V230h6.5V236.5z"/>
	<path id="_Path_9" class="st9" d="M94,236.5h-6.5V230H94V236.5z"/>
</g>
<path id="_Compound_Path_" class="st9" d="M426,387.9l0-2.2l2.2,0l0,2.2L426,387.9z M421.6,387.9l-2.2,0l0-2.2l2.2,0L421.6,387.9z
	 M432.5,387.9l-0.1-2.2l2.2,0l0.1,2.2L432.5,387.9z M415.1,387.8l-2.2-0.1l0.1-2.2l2.2,0.1L415.1,387.8z M439,387.7l-0.1-2.2
	l2.2-0.1l0.1,2.2L439,387.7z M408.6,387.5c-0.7,0-1.5-0.1-2.2-0.1l0.1-2.2c0.7,0,1.4,0.1,2.2,0.1L408.6,387.5z M445.5,387.4
	l-0.1-2.2l2.2-0.1l0.1,2.2L445.5,387.4z M402.1,387.1L400,387l0.2-2.2l2.2,0.2L402.1,387.1z M452,386.9l-0.2-2.2l2.2-0.2l0.2,2.2
	L452,386.9z M395.6,386.6l-2.2-0.2l0.2-2.2l2.2,0.2L395.6,386.6z M458.4,386.4l-0.2-2.2c0.7-0.1,1.4-0.1,2.1-0.2l0.2,2.2
	C459.9,386.2,459.2,386.3,458.4,386.4L458.4,386.4z M389.2,386l-2.2-0.2l0.2-2.2l2.1,0.2L389.2,386z M464.9,385.7l-0.2-2.2l2.1-0.2
	l0.3,2.1L464.9,385.7z M382.7,385.2l-2.2-0.3l0.3-2.1l2.1,0.3L382.7,385.2z M471.4,384.8l-0.3-2.1l2.1-0.3l0.3,2.2L471.4,384.8z
	 M376.2,384.3l-2.2-0.3l0.3-2.1l2.1,0.3L376.2,384.3z M477.8,383.9l-0.3-2.1l2.1-0.3l0.3,2.1L477.8,383.9z M369.8,383.3l-2.1-0.4
	l0.4-2.1l2.1,0.4L369.8,383.3z M484.2,382.8l-0.4-2.1l2.1-0.4l0.4,2.1L484.2,382.8z M363.4,382.1l-2.1-0.4l0.4-2.1l2.1,0.4
	L363.4,382.1z M490.6,381.6l-0.4-2.1l2.1-0.4l0.4,2.1L490.6,381.6z M357,380.8c-0.7-0.2-1.4-0.3-2.1-0.5l0.5-2.1
	c0.7,0.2,1.4,0.3,2.1,0.5L357,380.8z M496.9,380.3l-0.5-2.1l2.1-0.5l0.5,2.1L496.9,380.3z M350.6,379.4l-2.1-0.5l0.5-2.1
	c0.7,0.2,1.4,0.3,2.1,0.5L350.6,379.4z M503.3,378.8l-0.5-2.1l2.1-0.5l0.5,2.1L503.3,378.8z M344.3,377.8c-0.7-0.2-1.4-0.4-2.1-0.6
	l0.6-2.1l2.1,0.5L344.3,377.8z M509.6,377.2l-0.6-2.1l2.1-0.6l0.6,2.1L509.6,377.2z M338,376.1l-2.1-0.6l0.6-2.1l2.1,0.6L338,376.1z
	 M515.8,375.4l-0.6-2.1c0.7-0.2,1.4-0.4,2.1-0.6l0.6,2.1C517.2,375,516.5,375.2,515.8,375.4z M331.7,374.3c-0.7-0.2-1.4-0.4-2.1-0.7
	l0.7-2c0.7,0.2,1.4,0.4,2,0.7L331.7,374.3z M522,373.5l-0.7-2.1l2-0.7l0.7,2L522,373.5z M325.5,372.2l-2-0.7l0.7-2l2,0.7
	L325.5,372.2z M528.2,371.4l-0.7-2l2-0.7l0.7,2L528.2,371.4z M319.4,370.1l-2-0.8l0.8-2l2,0.8L319.4,370.1z M534.3,369.2l-0.8-2
	l2-0.8l0.8,2L534.3,369.2z M313.3,367.7l-2-0.8l0.8-2l2,0.8L313.3,367.7z M540.4,366.8l-0.8-2l2-0.8l0.8,2L540.4,366.8z
	 M307.3,365.3c-0.7-0.3-1.3-0.6-2-0.9l0.9-2c0.6,0.3,1.3,0.6,2,0.9L307.3,365.3z M546.3,364.2l-0.9-2c0.7-0.3,1.3-0.6,2-0.9l0.9,2
	C547.7,363.7,547,364,546.3,364.2z M301.4,362.6c-0.7-0.3-1.3-0.6-2-0.9l0.9-2c0.6,0.3,1.3,0.6,1.9,0.9L301.4,362.6z M552.3,361.5
	l-0.9-2c0.6-0.3,1.3-0.6,1.9-0.9l1,1.9C553.6,360.9,552.9,361.2,552.3,361.5L552.3,361.5z M295.5,359.7l-1.9-1l1-1.9l1.9,1
	L295.5,359.7z M558.1,358.6l-1-1.9l1.9-1l1,1.9L558.1,358.6z M289.7,356.7c-0.6-0.3-1.3-0.7-1.9-1l1.1-1.9c0.6,0.3,1.2,0.7,1.9,1
	L289.7,356.7z M563.8,355.5l-1.1-1.9c0.6-0.3,1.2-0.7,1.9-1.1l1.1,1.9L563.8,355.5z M566.6,353.9l-1.1-1.9c0.6-0.4,1.2-0.7,1.8-1.1
	l1.1,1.8C567.9,353.1,567.3,353.5,566.6,353.9z M284,353.5c-0.6-0.4-1.2-0.7-1.9-1.1l1.1-1.8c0.6,0.4,1.2,0.7,1.9,1.1L284,353.5z
	 M572.2,350.5l-1.2-1.8c0.6-0.4,1.2-0.8,1.8-1.2l1.2,1.8C573.4,349.7,572.8,350.1,572.2,350.5z M278.5,350.1
	c-0.6-0.4-1.2-0.8-1.8-1.2l1.2-1.8c0.6,0.4,1.2,0.8,1.8,1.2L278.5,350.1z M577.6,346.9l-1.2-1.8c0.6-0.4,1.2-0.8,1.8-1.2l1.2,1.8
	C578.8,346.1,578.2,346.5,577.6,346.9L577.6,346.9z M273.1,346.4c-0.6-0.4-1.2-0.8-1.8-1.2l1.2-1.8c0.6,0.4,1.2,0.8,1.8,1.2
	L273.1,346.4z M582.9,343.1l-1.3-1.7c0.6-0.4,1.1-0.9,1.7-1.3l1.3,1.7C584.1,342.2,583.5,342.6,582.9,343.1L582.9,343.1z
	 M267.8,342.6c-0.6-0.5-1.1-0.9-1.7-1.3l1.3-1.7c0.6,0.4,1.1,0.9,1.7,1.3L267.8,342.6z M588.1,339l-1.4-1.7c0.5-0.5,1.1-0.9,1.6-1.4
	l1.4,1.7C589.2,338.1,588.6,338.6,588.1,339L588.1,339z M262.7,338.5c-0.6-0.5-1.1-0.9-1.7-1.4l1.4-1.6c0.5,0.5,1.1,0.9,1.6,1.4
	L262.7,338.5z M593,334.8l-1.5-1.6c0.5-0.5,1.1-1,1.6-1.5l1.5,1.6C594.1,333.8,593.6,334.3,593,334.8L593,334.8z M257.8,334.2
	c-0.5-0.5-1.1-1-1.6-1.5l1.5-1.6c0.5,0.5,1,1,1.6,1.5L257.8,334.2z M597.8,330.3l-1.5-1.5c0.5-0.5,1-1,1.5-1.5l1.6,1.5
	C598.8,329.2,598.3,329.7,597.8,330.3L597.8,330.3z M253.1,329.7c-0.5-0.5-1-1-1.5-1.6l1.6-1.5c0.5,0.5,1,1,1.5,1.5L253.1,329.7z
	 M602.2,325.5l-1.6-1.4c0.5-0.5,0.9-1.1,1.4-1.6l1.7,1.4C603.2,324.4,602.7,324.9,602.2,325.5L602.2,325.5z M248.6,324.9
	c-0.5-0.5-1-1.1-1.4-1.7l1.6-1.4c0.5,0.5,0.9,1.1,1.4,1.6L248.6,324.9z M606.4,320.4l-1.7-1.3c0.4-0.6,0.9-1.1,1.3-1.7l1.7,1.3
	C607.3,319.3,606.9,319.9,606.4,320.4L606.4,320.4z M244.5,319.8c-0.4-0.6-0.9-1.2-1.3-1.8l1.7-1.3c0.4,0.6,0.9,1.1,1.3,1.7
	L244.5,319.8z M610.3,315.1l-1.8-1.2c0.4-0.6,0.8-1.2,1.2-1.8l1.8,1.2C611.1,313.9,610.7,314.5,610.3,315.1L610.3,315.1z
	 M240.6,314.5c-0.4-0.6-0.8-1.2-1.2-1.8l1.8-1.2c0.4,0.6,0.8,1.2,1.2,1.8L240.6,314.5z M613.8,309.6l-1.9-1.1c0.4-0.6,0.7-1.2,1-1.9
	l1.9,1C614.5,308.3,614.1,309,613.8,309.6L613.8,309.6z M237.2,308.9c-0.4-0.6-0.7-1.3-1.1-1.9l1.9-1c0.3,0.6,0.7,1.2,1,1.9
	L237.2,308.9z M616.8,303.8l-2-0.9c0.3-0.6,0.6-1.3,0.9-1.9l2,0.9C617.4,302.5,617.1,303.1,616.8,303.8z M234.2,303.1
	c-0.3-0.7-0.6-1.3-0.9-2l2-0.9c0.3,0.7,0.6,1.3,0.9,1.9L234.2,303.1z M619.4,297.7l-2-0.8c0.2-0.7,0.5-1.3,0.7-2l2,0.7
	C619.9,296.4,619.7,297.1,619.4,297.7L619.4,297.7z M231.7,297c-0.3-0.7-0.5-1.4-0.7-2.1l2-0.7c0.2,0.7,0.5,1.3,0.7,2L231.7,297z
	 M621.5,291.5l-2.1-0.6c0.2-0.7,0.4-1.4,0.5-2l2.1,0.5C621.8,290.1,621.7,290.8,621.5,291.5z M229.7,290.7c-0.2-0.7-0.4-1.4-0.5-2.1
	l2.1-0.5c0.2,0.7,0.3,1.4,0.5,2.1L229.7,290.7z M622.9,285.1l-2.1-0.4c0.1-0.7,0.2-1.4,0.3-2.1l2.1,0.3
	C623.2,283.6,623.1,284.4,622.9,285.1z M228.3,284.3c-0.1-0.7-0.2-1.5-0.3-2.2l2.1-0.3c0.1,0.7,0.2,1.4,0.3,2.1L228.3,284.3z
	 M623.8,278.6l-2.2-0.2c0.1-0.7,0.1-1.4,0.1-2.1l2.2,0.1C623.9,277.1,623.9,277.8,623.8,278.6z M227.5,277.8
	c-0.1-0.7-0.1-1.5-0.1-2.2l2.2-0.1c0,0.7,0.1,1.4,0.1,2.1L227.5,277.8z M621.9,272c0-0.7,0-1.4-0.1-2.1l2.2-0.1c0,0.7,0,1.5,0.1,2.2
	L621.9,272z M229.5,271.2l-2.2-0.1c0-0.7,0-1.5,0.1-2.2l2.2,0.1C229.5,269.8,229.5,270.5,229.5,271.2L229.5,271.2z M621.5,265.6
	c-0.1-0.7-0.2-1.4-0.3-2.1l2.1-0.3c0.1,0.7,0.2,1.5,0.3,2.2L621.5,265.6z M230,264.9l-2.1-0.3c0.1-0.7,0.2-1.5,0.3-2.2l2.1,0.3
	C230.2,263.5,230.1,264.2,230,264.9L230,264.9z M620.5,259.3c-0.2-0.7-0.3-1.4-0.5-2.1l2.1-0.5c0.2,0.7,0.3,1.4,0.5,2.1L620.5,259.3
	z M231.1,258.6l-2.1-0.5c0.2-0.7,0.3-1.4,0.5-2.1l2.1,0.5C231.4,257.2,231.2,257.9,231.1,258.6L231.1,258.6z M618.8,253.2
	c-0.2-0.7-0.4-1.4-0.7-2l2-0.7c0.2,0.7,0.5,1.4,0.7,2.1L618.8,253.2z M232.7,252.4l-2.1-0.7c0.2-0.7,0.5-1.4,0.7-2.1l2,0.7
	C233.2,251.1,232.9,251.8,232.7,252.4L232.7,252.4z M616.7,247.2c-0.3-0.7-0.5-1.3-0.8-2l2-0.9c0.3,0.7,0.6,1.4,0.8,2L616.7,247.2z
	 M234.9,246.4l-2-0.8c0.3-0.7,0.6-1.3,0.9-2l2,0.9C235.5,245.1,235.2,245.8,234.9,246.4L234.9,246.4z M614,241.3
	c-0.3-0.6-0.6-1.3-1-1.9l1.9-1c0.3,0.6,0.7,1.3,1,1.9L614,241.3z M237.6,240.7l-1.9-1c0.3-0.6,0.7-1.3,1-1.9l1.9,1
	C238.3,239.4,238,240,237.6,240.7L237.6,240.7z M610.9,235.7c-0.4-0.6-0.7-1.2-1.1-1.8l1.8-1.2c0.4,0.6,0.8,1.2,1.2,1.9L610.9,235.7
	z M240.8,235.1L239,234c0.4-0.6,0.8-1.2,1.2-1.8l1.8,1.2C241.6,233.9,241.2,234.5,240.8,235.1L240.8,235.1z M607.4,230.4
	c-0.4-0.6-0.8-1.2-1.2-1.7l1.7-1.3c0.4,0.6,0.9,1.2,1.3,1.8L607.4,230.4z M244.4,229.8l-1.8-1.3c0.4-0.6,0.9-1.2,1.3-1.8l1.7,1.3
	C245.2,228.6,244.8,229.2,244.4,229.8L244.4,229.8z M603.5,225.3c-0.5-0.5-0.9-1.1-1.4-1.6l1.7-1.4c0.5,0.6,0.9,1.1,1.4,1.7
	L603.5,225.3z M248.3,224.7l-1.7-1.4c0.5-0.6,0.9-1.1,1.4-1.7l1.6,1.4C249.2,223.6,248.8,224.1,248.3,224.7L248.3,224.7z
	 M599.3,220.4c-0.5-0.5-1-1-1.5-1.6l1.6-1.5c0.5,0.5,1,1.1,1.5,1.6L599.3,220.4z M252.5,219.9l-1.6-1.5c0.5-0.5,1-1.1,1.5-1.6
	l1.6,1.5C253.5,218.8,253,219.3,252.5,219.9z M594.9,215.8c-0.5-0.5-1-1-1.5-1.5l1.5-1.6c0.5,0.5,1.1,1,1.6,1.5L594.9,215.8z
	 M257,215.3l-1.5-1.6c0.5-0.5,1-1,1.6-1.5l1.5,1.6C258,214.3,257.5,214.8,257,215.3L257,215.3z M590.2,211.4
	c-0.5-0.5-1.1-0.9-1.6-1.4l1.4-1.6c0.5,0.5,1.1,1,1.6,1.4L590.2,211.4z M261.8,210.9l-1.4-1.6c0.5-0.5,1.1-0.9,1.7-1.4l1.4,1.6
	C262.8,210,262.3,210.5,261.8,210.9L261.8,210.9z M585.2,207.3c-0.5-0.4-1.1-0.9-1.7-1.3l1.3-1.7c0.6,0.5,1.2,0.9,1.7,1.4
	L585.2,207.3z M266.7,206.8l-1.3-1.7c0.6-0.5,1.1-0.9,1.7-1.3l1.3,1.7C267.8,205.9,267.3,206.4,266.7,206.8L266.7,206.8z
	 M580.1,203.4c-0.6-0.4-1.2-0.8-1.8-1.3l1.3-1.8c0.6,0.4,1.2,0.9,1.8,1.3L580.1,203.4z M271.8,202.9l-1.3-1.8
	c0.6-0.4,1.2-0.8,1.8-1.3l1.2,1.8C273,202.1,272.4,202.5,271.8,202.9L271.8,202.9z M574.9,199.7c-0.6-0.4-1.2-0.8-1.8-1.2l1.2-1.8
	c0.6,0.4,1.2,0.8,1.8,1.2L574.9,199.7z M277.1,199.3l-1.2-1.8c0.6-0.4,1.2-0.8,1.8-1.2l1.2,1.8C278.3,198.5,277.7,198.9,277.1,199.3
	L277.1,199.3z M569.4,196.2c-0.6-0.4-1.2-0.8-1.8-1.1l1.1-1.9c0.6,0.4,1.2,0.8,1.9,1.1L569.4,196.2z M282.6,195.8l-1.1-1.8
	c0.6-0.4,1.2-0.8,1.9-1.1l1.1,1.9C283.8,195.1,283.2,195.4,282.6,195.8L282.6,195.8z M563.9,192.9c-0.6-0.4-1.2-0.7-1.9-1.1l1-1.9
	c0.6,0.4,1.3,0.7,1.9,1.1L563.9,192.9z M288.1,192.5l-1.1-1.9c0.6-0.4,1.3-0.7,1.9-1.1l1,1.9C289.4,191.8,288.7,192.2,288.1,192.5
	L288.1,192.5z M558.2,189.8c-0.6-0.3-1.3-0.7-1.9-1l1-1.9c0.7,0.3,1.3,0.7,1.9,1L558.2,189.8z M293.8,189.4l-1-1.9
	c0.6-0.3,1.3-0.7,1.9-1l1,1.9C295,188.8,294.4,189.1,293.8,189.4L293.8,189.4z M552.5,186.9c-0.6-0.3-1.3-0.6-1.9-0.9l0.9-2
	c0.7,0.3,1.3,0.6,2,0.9L552.5,186.9z M299.6,186.5l-0.9-2c0.6-0.3,1.3-0.6,2-0.9l0.9,2C300.8,185.9,300.2,186.2,299.6,186.5
	L299.6,186.5z M546.7,184.1l-2-0.9l0.9-2l2,0.9L546.7,184.1z M305.4,183.8l-0.9-2c0.7-0.3,1.3-0.6,2-0.9l0.9,2
	C306.7,183.2,306,183.5,305.4,183.8L305.4,183.8z M540.7,181.6l-2-0.8l0.8-2l2,0.8L540.7,181.6z M311.3,181.3l-0.8-2
	c0.7-0.3,1.3-0.6,2-0.8l0.8,2C312.6,180.7,312,181,311.3,181.3L311.3,181.3z M534.8,179.2l-2-0.8l0.8-2l2,0.8L534.8,179.2z
	 M317.3,178.9l-0.8-2l2-0.8l0.8,2L317.3,178.9z M528.7,176.9l-2-0.7l0.7-2l2,0.7L528.7,176.9z M323.4,176.7l-0.7-2l2-0.7l0.7,2
	L323.4,176.7z M522.6,174.8l-2-0.7l0.7-2.1l2.1,0.7L522.6,174.8z M329.5,174.6l-0.7-2l2.1-0.7l0.6,2.1L329.5,174.6z M516.4,172.9
	l-2.1-0.6l0.6-2.1l2.1,0.6L516.4,172.9z M335.7,172.7l-0.6-2.1l2.1-0.6l0.6,2.1L335.7,172.7z M510.2,171.1l-2.1-0.6l0.5-2.1l2.1,0.6
	L510.2,171.1z M341.9,170.9l-0.6-2.1c0.7-0.2,1.4-0.4,2.1-0.6l0.5,2.1L341.9,170.9z M503.9,169.5l-2.1-0.5l0.5-2.1l2.1,0.5
	L503.9,169.5z M348.1,169.3l-0.5-2.1l2.1-0.5l0.5,2.1L348.1,169.3z M497.6,168l-2.1-0.5l0.5-2.1l2.1,0.5L497.6,168z M354.4,167.8
	l-0.5-2.1l2.1-0.5l0.5,2.1L354.4,167.8z M491.3,166.6l-2.1-0.4l0.4-2.1l2.1,0.4L491.3,166.6z M360.7,166.5l-0.4-2.1l2.1-0.4l0.4,2.1
	L360.7,166.5z M484.9,165.4l-2.1-0.4l0.4-2.1l2.1,0.4L484.9,165.4z M367,165.3l-0.4-2.1l2.1-0.4l0.4,2.1L367,165.3z M478.6,164.3
	l-2.1-0.3l0.3-2.1l2.2,0.3L478.6,164.3z M373.4,164.2L373,162l2.1-0.3l0.3,2.1L373.4,164.2z M472.2,163.3L470,163l0.3-2.1l2.2,0.3
	L472.2,163.3z M379.8,163.2l-0.3-2.1l2.2-0.3l0.3,2.1L379.8,163.2z M465.7,162.5l-2.1-0.2l0.2-2.1l2.2,0.2L465.7,162.5z
	 M386.2,162.4l-0.2-2.1l2.2-0.2l0.2,2.1L386.2,162.4z M459.3,161.8l-2.2-0.2l0.2-2.2l2.2,0.2L459.3,161.8z M392.6,161.7l-0.2-2.1
	l2.2-0.2l0.2,2.1L392.6,161.7z M452.8,161.2l-2.2-0.2l0.2-2.2l2.2,0.2L452.8,161.2z M399,161.2l-0.2-2.1l2.2-0.2l0.2,2.1L399,161.2z
	 M446.4,160.7l-2.2-0.1l0.1-2.2l2.2,0.1L446.4,160.7z M405.5,160.7l-0.1-2.2l2.2-0.1l0.1,2.2L405.5,160.7z M439.9,160.4l-2.2-0.1
	l0.1-2.2l2.2,0.1L439.9,160.4z M411.9,160.4l-0.1-2.2l2.2-0.1l0.1,2.2L411.9,160.4z M433.5,160.2l-2.2,0l0-2.2l2.2,0L433.5,160.2z
	 M418.4,160.2l0-2.2l2.2,0l0,2.2L418.4,160.2z M427,160.1l-1.3,0h-0.8l0-2.2h2.2L427,160.1z"/>
<g id="_Group_3">
	<g id="_Group_4">
		<path id="_Path_10" class="st10" d="M640.9,121.7c0,0.2,0,0.4-0.1,0.6c0,0.1-0.1,0.3-0.1,0.4c0,0.2-0.1,0.4-0.2,0.5
			c0,0.1-0.1,0.3-0.2,0.4c-0.1,0.2-0.2,0.4-0.3,0.5c-0.1,0.1-0.2,0.3-0.2,0.4c-0.1,0.2-0.3,0.4-0.4,0.6c-0.1,0.1-0.2,0.2-0.3,0.4
			c-0.3,0.3-0.5,0.6-0.8,0.9c-0.1,0.1-0.1,0.1-0.2,0.2c-0.2,0.2-0.4,0.3-0.6,0.5c-0.2,0.1-0.3,0.2-0.5,0.4c-0.2,0.2-0.5,0.3-0.7,0.5
			c-0.2,0.1-0.3,0.2-0.5,0.4l-32.5,19.3c-0.6,0.3-1.2,0.6-1.8,0.9c-0.1,0.1-0.2,0.1-0.4,0.2c-0.6,0.3-1.2,0.5-1.9,0.7
			c-0.2,0-0.3,0.1-0.5,0.2c-0.3,0.1-0.6,0.2-1,0.3c-0.2,0-0.4,0.1-0.6,0.1c-0.3,0.1-0.6,0.1-1,0.2c-0.2,0-0.4,0.1-0.6,0.1
			c-0.7,0.1-1.3,0.2-2,0.3h-0.1c-0.6,0.1-1.1,0.1-1.7,0.1c-0.2,0-0.4,0-0.6,0c-0.4,0-0.7,0-1.1,0c-0.2,0-0.5,0-0.7,0
			c-0.3,0-0.7,0-1,0l-0.7-0.1c-0.3,0-0.7-0.1-1-0.1c-0.2,0-0.4,0-0.7-0.1c-0.4-0.1-0.8-0.1-1.1-0.2c-0.2,0-0.3-0.1-0.5-0.1
			c-0.6-0.1-1.1-0.3-1.7-0.4c-0.1,0-0.2-0.1-0.3-0.1c-0.6-0.2-1.2-0.4-1.7-0.6c-0.2-0.1-0.5-0.2-0.7-0.3l-21.9-9.2
			c-0.7-0.3-1.4-0.7-2.1-1.1c-3.4-2-5.2-4.6-5.2-7.3l-0.1,25.2c0,2.7,1.8,5.4,5.2,7.3c0.7,0.4,1.4,0.7,2.1,1l21.9,9.2
			c0.1,0.1,0.3,0.1,0.4,0.2c0.1,0,0.2,0.1,0.3,0.1c0.6,0.2,1.1,0.4,1.7,0.6c0.1,0,0.1,0,0.2,0.1l0.1,0c0.6,0.1,1.1,0.3,1.7,0.4
			c0,0,0.1,0,0.1,0c0.1,0,0.3,0,0.4,0.1c0.4,0.1,0.8,0.1,1.1,0.2c0.1,0,0.1,0,0.2,0c0.2,0,0.3,0,0.5,0c0.3,0,0.7,0.1,1,0.1l0.3,0
			c0.1,0,0.3,0,0.4,0c0.3,0,0.7,0,1,0c0.1,0,0.2,0,0.4,0c0.1,0,0.2,0,0.3,0c0.4,0,0.7,0,1.1,0c0.1,0,0.3,0,0.4,0c0.1,0,0.1,0,0.2,0
			c0.6,0,1.1-0.1,1.7-0.1c0,0,0,0,0.1,0h0c0.7-0.1,1.3-0.2,2-0.3l0.2,0c0.1,0,0.2,0,0.3-0.1c0.3-0.1,0.7-0.1,1-0.2
			c0.2,0,0.4-0.1,0.6-0.1c0.3-0.1,0.6-0.2,1-0.3c0.1,0,0.3-0.1,0.4-0.1c0,0,0.1,0,0.1,0c0.6-0.2,1.3-0.4,1.9-0.7
			c0.1-0.1,0.3-0.1,0.4-0.2c0.6-0.3,1.2-0.6,1.8-0.9l32.5-19.3c0,0,0.1,0,0.1-0.1c0.2-0.1,0.3-0.2,0.5-0.3c0.2-0.1,0.5-0.3,0.7-0.5
			c0.2-0.1,0.3-0.2,0.5-0.4c0.2-0.1,0.4-0.3,0.6-0.5c0,0,0,0,0.1,0c0.1-0.1,0.1-0.1,0.2-0.2c0.3-0.3,0.6-0.6,0.8-0.9
			c0-0.1,0.1-0.1,0.2-0.2c0-0.1,0.1-0.1,0.1-0.2c0.1-0.2,0.3-0.4,0.4-0.6c0-0.1,0.1-0.1,0.2-0.2c0-0.1,0-0.1,0.1-0.2
			c0.1-0.2,0.2-0.4,0.3-0.6c0-0.1,0.1-0.2,0.1-0.3c0,0,0-0.1,0-0.1c0.1-0.2,0.1-0.4,0.2-0.5c0-0.1,0.1-0.2,0.1-0.3c0,0,0-0.1,0-0.1
			c0-0.2,0-0.4,0.1-0.6c0-0.1,0-0.2,0-0.3v-0.1l0.1-25.2C641,121.4,640.9,121.6,640.9,121.7z"/>
		<g id="_Group_5">
			
				<linearGradient id="_Path_11_1_" gradientUnits="userSpaceOnUse" x1="-575.0269" y1="769.3197" x2="-575.0269" y2="768.3197" gradientTransform="matrix(89.9111 0 0 -53.6946 52297.332 41405.4297)">
				<stop  offset="0" style="stop-color:#232533"/>
				<stop  offset="1" style="stop-color:#2F3143"/>
			</linearGradient>
			<path id="_Path_11" class="st11" d="M635.7,113.9c6.8,3.9,7.1,10.4,0.2,14.5l-32.5,19.3c-6.1,3.6-16,4.1-23.1,1.1l-21.9-9.2
				c-0.7-0.3-1.4-0.7-2.1-1.1c-5.4-3.1-6.8-8-3.2-12l21.5-23.9c5-5.6,17.4-7.2,26.2-3.5l32.9,13.8
				C634.3,113.2,635.1,113.5,635.7,113.9z"/>
		</g>
	</g>
	<g id="_Group_6">
		<path id="_Path_12" class="st10" d="M721,179.8c0,0.1,0,0.2,0,0.3c0,0.2,0,0.5-0.1,0.7l-0.1,0.3c-0.1,0.3-0.1,0.5-0.2,0.8
			c0,0.1,0,0.1,0,0.1c-0.1,0.3-0.3,0.6-0.4,0.9c0,0.1-0.1,0.1-0.1,0.2c-0.2,0.3-0.4,0.6-0.6,0.8c0,0.1-0.1,0.1-0.1,0.1
			c-0.3,0.4-0.6,0.7-1,1.1l-0.2,0.2c-0.3,0.3-0.6,0.5-0.9,0.8c0,0-0.1,0.1-0.1,0.1c-0.3,0.2-0.6,0.4-1,0.6c-0.1,0-0.2,0.1-0.3,0.2
			c-0.5,0.3-1.1,0.6-1.7,0.9c-0.1,0-0.2,0.1-0.3,0.1c-0.6,0.3-1.2,0.5-1.9,0.7c-0.1,0-0.2,0.1-0.3,0.1c-0.6,0.2-1.3,0.4-2,0.5
			l-43.3,10c-0.7,0.1-1.3,0.3-2,0.4c-0.3,0-0.7,0.1-1,0.1c-0.6,0.1-1.1,0.1-1.7,0.1c-0.2,0-0.4,0-0.6,0c-0.8,0-1.5,0-2.3,0l-0.5,0
			c-0.6,0-1.2-0.1-1.8-0.1c-0.2,0-0.4,0-0.5-0.1c-0.7-0.1-1.5-0.2-2.2-0.4c-0.1,0-0.2-0.1-0.4-0.1c-0.6-0.1-1.2-0.3-1.7-0.5
			c-0.3-0.1-0.7-0.2-1-0.4c-0.4-0.1-0.8-0.3-1.2-0.5l-0.4-0.2c-0.6-0.3-1.2-0.5-1.8-0.9c-1-0.6-2-1.3-2.8-2.1L631,181.3
			c-1.1-1-1.9-2.4-2.3-3.9c-0.1-0.4-0.2-0.9-0.2-1.3l-0.1,25.2c0.1,2,0.9,3.9,2.4,5.2l13.6,13.6c0.8,0.8,1.8,1.5,2.8,2.1
			c0.6,0.3,1.2,0.6,1.8,0.9l0.4,0.2c0.1,0,0.2,0.1,0.4,0.2c0.3,0.1,0.5,0.2,0.8,0.3c0.3,0.1,0.7,0.2,1,0.3c0.1,0,0.2,0.1,0.3,0.1
			c0.5,0.1,0.9,0.2,1.4,0.4c0.1,0,0.2,0.1,0.4,0.1c0,0,0.1,0,0.1,0c0.6,0.1,1.2,0.2,1.8,0.3c0.1,0,0.2,0,0.3,0l0.5,0.1
			c0.3,0,0.5,0.1,0.8,0.1c0.3,0,0.7,0,1,0.1c0.2,0,0.3,0,0.5,0c0.1,0,0.2,0,0.2,0c0.6,0,1.2,0,1.8,0c0.1,0,0.1,0,0.2,0
			c0.2,0,0.4,0,0.6,0c0.4,0,0.8,0,1.2-0.1c0.2,0,0.4-0.1,0.5-0.1c0.3,0,0.7-0.1,1-0.1c0.2,0,0.5-0.1,0.7-0.1
			c0.4-0.1,0.9-0.2,1.3-0.3l43.3-10c0.7-0.2,1.3-0.3,2-0.5c0.1,0,0.1,0,0.2-0.1c0,0,0.1,0,0.1,0c0.6-0.2,1.3-0.5,1.9-0.7
			c0.1,0,0.2-0.1,0.3-0.1c0.6-0.3,1.1-0.5,1.7-0.9c0,0,0.1-0.1,0.1-0.1c0.1,0,0.1-0.1,0.2-0.1c0.3-0.2,0.7-0.4,1-0.6
			c0,0,0.1-0.1,0.1-0.1c0.3-0.2,0.6-0.5,0.9-0.8c0,0,0.1-0.1,0.1-0.1c0,0,0.1-0.1,0.1-0.1c0.4-0.3,0.7-0.7,1-1.1l0,0
			c0,0,0-0.1,0.1-0.1c0.2-0.3,0.4-0.5,0.6-0.8c0,0,0.1-0.1,0.1-0.1c0,0,0-0.1,0-0.1c0.2-0.3,0.3-0.6,0.4-0.9c0,0,0,0,0,0l0-0.1
			c0.1-0.2,0.2-0.5,0.2-0.8c0,0,0-0.1,0-0.1c0,0,0-0.1,0-0.1c0-0.2,0.1-0.5,0.1-0.7c0-0.1,0-0.1,0-0.2c0,0,0-0.1,0-0.2L721,179.8z"
			/>
		<g id="_Group_7">
			
				<linearGradient id="_Path_13_1_" gradientUnits="userSpaceOnUse" x1="-575.2011" y1="769.0062" x2="-575.2011" y2="768.0062" gradientTransform="matrix(92.3975 0 0 -50.8857 53821.8945 39280.5469)">
				<stop  offset="0" style="stop-color:#1E1F2B"/>
				<stop  offset="1" style="stop-color:#2D2F41"/>
			</linearGradient>
			<path id="_Path_13" class="st12" d="M695.3,152.1c1,0.6,2,1.3,2.8,2.1l20.4,20.3c5.4,5.4,1.3,12.4-8.8,14.7l-43.3,10
				c-6.7,1.5-14.2,0.6-19.1-2.3c-1-0.6-2-1.3-2.8-2.1L631,181.3c-4.4-4.4-2.6-10.1,4.3-13.2l36.5-16.8
				C679,148,689.1,148.5,695.3,152.1z"/>
		</g>
	</g>
	<g id="_Group_8">
		<path id="_Compound_Path_2" class="st13" d="M735.2,288.8c-0.2,0-0.5,0-0.7,0l-46.9-1.1c-0.6,0-1,0-1.5-0.1l-0.6-0.1
			c-0.4,0-0.8-0.1-1.2-0.1l-0.4-0.1c-0.6-0.1-1-0.1-1.3-0.2l-0.4-0.1c-0.6-0.1-1-0.2-1.4-0.4l-0.5-0.1c-0.7-0.2-1.3-0.4-1.9-0.6
			l-0.2-0.1c-0.2-0.1-0.5-0.2-0.8-0.3l-0.6-0.3c-0.5-0.2-0.9-0.5-1.3-0.7c-3.2-1.8-5.2-4.4-5.7-7l-2.9-15.6
			c-0.1-0.5-0.1-0.9-0.1-1.4l0.1-25.2v0l2.5,0l0,0l0,0c0,0.3,0,0.6,0.1,0.9l2.9,15.6c0.4,2,2,3.9,4.5,5.3c0.4,0.2,0.8,0.4,1.1,0.6
			l0.4,0.2c0.3,0.1,0.5,0.2,0.8,0.4c0.7,0.3,1.2,0.4,1.8,0.6l0.5,0.1c0.4,0.1,0.8,0.2,1.2,0.3l0.5,0.1c0.3,0.1,0.7,0.1,1,0.2
			l0.6,0.1c0.3,0,0.6,0.1,0.9,0.1l0.7,0.1c0.4,0,0.8,0,1.2,0.1l0.5,0l46.6,1.1c0.6,0,1.2,0,1.8,0c0.6,0,1.2-0.1,1.8-0.1
			c0.8-0.1,1.4-0.2,2-0.3c0.2,0,0.5-0.1,0.7-0.1c0.3-0.1,0.6-0.1,0.9-0.2l0.6-0.1c0.4-0.1,0.7-0.2,0.9-0.3l0.5-0.2
			c0.6-0.2,1.1-0.4,1.6-0.6l0.8,1l-0.5-1.1c0.5-0.2,1.1-0.5,1.6-0.8c0.2-0.1,0.3-0.2,0.5-0.3c0.2-0.1,0.4-0.3,0.6-0.4
			c0.2-0.1,0.3-0.2,0.5-0.3c0.2-0.1,0.3-0.3,0.5-0.4c0.1-0.1,0.2-0.2,0.3-0.3c0.2-0.2,0.5-0.5,0.7-0.8l1.2,0.5l-1-0.8
			c0.2-0.2,0.3-0.4,0.4-0.6l0.8,0.3V255l-0.7-0.4c0-0.1,0.1-0.2,0.1-0.2l0.2-0.4c0-0.1,0.1-0.1,0.1-0.2l0.1-0.3
			c0.1-0.2,0.1-0.4,0.1-0.5l0-0.5c0-0.1,0-0.3,0-0.4l2.5,0l-0.1,25.2c0,0.2,0,0.5-0.1,0.7l-1.3,0.1l1.2,0.1c0,0.1,0,0.3,0,0.4
			c0,0.2-0.1,0.4-0.2,0.6l-1.3-0.1l1.2,0.3c0,0.1-0.1,0.2-0.1,0.3c-0.1,0.2-0.1,0.3-0.2,0.5l-0.1,0.3c-0.1,0.2-0.1,0.3-0.2,0.5
			c-0.1,0.1-0.1,0.2-0.2,0.3c-0.2,0.3-0.4,0.6-0.6,0.9c-0.1,0.1-0.2,0.2-0.2,0.3c-0.3,0.3-0.6,0.6-0.9,1c-0.1,0.1-0.1,0.1-0.2,0.2
			l-0.2,0.2c-0.2,0.2-0.5,0.4-0.7,0.5c-0.2,0.1-0.3,0.3-0.5,0.4c-0.2,0.1-0.5,0.3-0.7,0.5c-0.2,0.1-0.3,0.2-0.4,0.2l-0.2,0.1
			c-0.6,0.3-1.2,0.6-1.8,0.9l-0.2,0.1c-0.7,0.3-1.3,0.5-1.9,0.7c-0.1,0-0.2,0.1-0.3,0.1l-0.2,0.1c-0.4,0.1-0.7,0.2-1,0.3l-0.8,0.2
			c-0.3,0.1-0.6,0.1-0.9,0.2l-0.8,0.2c-0.7,0.1-1.3,0.2-1.9,0.3c-0.1,0-0.2,0-0.3,0c-0.5,0.1-1.2,0.1-1.9,0.1
			C736,288.8,735.6,288.8,735.2,288.8z M738.1,286.1l0.3,1.2l-0.1-1.2c0.6-0.1,1.2-0.1,1.8-0.2l0.7-0.1c0.3-0.1,0.6-0.1,0.8-0.2
			l0.6-0.1c0.4-0.1,0.7-0.2,1-0.3l0.7,1.1l-0.4-1.2l0.2-0.1c0.6-0.2,1.1-0.4,1.6-0.6l0.8,1l-0.5-1.1c0.5-0.2,1.1-0.5,1.6-0.8
			l0.5-0.3c0.2-0.1,0.4-0.3,0.6-0.4c0.2-0.1,0.3-0.2,0.5-0.4c0.2-0.1,0.3-0.3,0.5-0.4l0.2-0.1c0.1-0.1,0.1-0.1,0.2-0.2
			c0.2-0.2,0.5-0.5,0.7-0.7l0.2-0.2c0.2-0.2,0.3-0.5,0.5-0.7l0.1-0.2c0.1-0.1,0.1-0.2,0.2-0.3l0.3-0.9c0.1-0.2,0.1-0.3,0.1-0.5
			l0.1-0.6c0-0.1,0-0.2,0-0.2l0.1-19.6c-0.1,0.1-0.3,0.3-0.4,0.4s-0.3,0.3-0.4,0.4c-0.2,0.2-0.4,0.3-0.6,0.5
			c-0.2,0.1-0.4,0.3-0.5,0.4c-0.2,0.2-0.5,0.3-0.7,0.5c-0.2,0.1-0.4,0.2-0.5,0.3c-0.6,0.4-1.2,0.7-1.8,1l-0.2,0.1
			c-0.7,0.3-1.3,0.5-1.9,0.7l-0.6,0.2c-0.3,0.1-0.6,0.2-0.9,0.3l-0.8,0.2c-0.3,0.1-0.6,0.1-0.9,0.2s-0.6,0.1-0.8,0.2
			c-0.6,0.1-1.3,0.2-1.9,0.3l-0.2,0c-0.6,0.1-1.3,0.1-2,0.1c-0.6,0-1.3,0-1.9,0l-46.9-1.1c-0.6,0-1.1,0-1.5-0.1l-0.6-0.1
			c-0.5,0-0.8-0.1-1.1-0.1l-0.5-0.1c-0.5-0.1-0.8-0.1-1.2-0.2l-0.5-0.1c-0.4-0.1-0.9-0.2-1.3-0.3l-0.5-0.1c-0.7-0.2-1.3-0.4-2-0.7
			c-0.5-0.2-0.8-0.3-1-0.4l-0.5-0.2c-0.4-0.2-0.9-0.4-1.3-0.7c-3.2-1.8-5.2-4.3-5.7-7l-0.6-3.1l0,11.4c0,0.3,0,0.6,0.1,0.9l2.9,15.6
			c0.4,2,2,3.9,4.5,5.3c0.4,0.2,0.7,0.4,1.1,0.6l0.4,0.2c0.3,0.2,0.6,0.3,0.8,0.4c0.7,0.3,1.2,0.5,1.8,0.6l0.2,0.1l0,1.3l0.3-1.2
			c0.4,0.1,0.8,0.2,1.2,0.3l0.5,0.1c0.3,0.1,0.7,0.1,1.1,0.2l0.4,0.1c0.4,0,0.8,0.1,1.1,0.1l0.5,0.1c0.4,0,0.8,0,1.3,0.1l0.5,0
			l46.6,1.1c0.6,0,1.2,0,1.7,0C736.9,286.2,737.5,286.2,738.1,286.1L738.1,286.1z"/>
		<g id="_Group_9">
			
				<linearGradient id="_Compound_Path_3_1_" gradientUnits="userSpaceOnUse" x1="-574.8492" y1="768.4338" x2="-574.8492" y2="767.4338" gradientTransform="matrix(87.5081 0 0 -46.4499 51014.4883 35910.7148)">
				<stop  offset="0" style="stop-color:#C1ABA3"/>
				<stop  offset="0.148" style="stop-color:#736FD4"/>
				<stop  offset="1" style="stop-color:#A27ED5"/>
			</linearGradient>
			<path id="_Compound_Path_3" class="st14" d="M735.3,263.5c-0.3,0-0.5,0-0.8,0l-46.6-1.1c-4.3,0-8.6-1.1-12.5-3.2
				c-3.2-1.9-5.2-4.4-5.7-7.1l-2.9-15.6c-0.4-2.1,0.2-4.3,1.5-6c2.3-3.3,7-5.7,12.8-6.5l45.1-6.7c6.4-1,13.1,0.1,17.8,2.9
				c3.2,1.9,5.2,4.3,5.7,7l4.4,23.4c0.4,2.4-0.3,4.9-2,6.7C748.9,261.2,742.5,263.5,735.3,263.5z M730.8,219.6
				c-1.4,0-2.8,0.1-4.2,0.3l-45.1,6.7c-5,0.7-9.2,2.8-11.1,5.5c-0.9,1.1-1.3,2.6-1,4.1l2.9,15.6c0.4,2,2,3.9,4.5,5.3
				c3.5,1.9,7.3,2.8,11.3,2.9l46.6,1.1c6.7,0.1,12.8-1.9,15.6-5.3c1.2-1.2,1.7-2.9,1.4-4.6l-4.4-23.4c-0.4-2-2-3.9-4.5-5.3
				C739.1,220.5,735,219.5,730.8,219.6z"/>
		</g>
	</g>
	<g id="_Group_10">
		<path id="_Compound_Path_4" class="st13" d="M618.4,436.6c-0.2,0-0.5,0-0.7,0l-0.7,0c-0.4,0-0.7,0-1.1-0.1l-0.7-0.1
			c-0.3,0-0.7-0.1-1-0.1l-0.5-0.1c-0.5-0.1-0.9-0.2-1.2-0.2l-0.5-0.1c-0.5-0.1-0.9-0.2-1.3-0.3l-0.6-0.2c-0.7-0.2-1.4-0.4-2-0.7
			c-0.3-0.1-0.5-0.2-0.8-0.3l-0.6-0.3c-0.5-0.2-0.9-0.5-1.3-0.7c-0.9-0.5-1.7-1.1-2.4-1.7l-26-22.5c-2.1-1.6-3.3-4.1-3.4-6.7
			l0.1-25.2h2.5v0c0.1,1.9,1.1,3.7,2.6,4.8l26,22.5c0.6,0.5,1.3,1,2,1.5c0.4,0.2,0.8,0.4,1.2,0.6l0.4,0.2c0.3,0.1,0.5,0.2,0.8,0.3
			c0.6,0.2,1.2,0.4,1.8,0.6l0.5,0.1c0.4,0.1,0.7,0.2,1.1,0.3l0.6,0.1c0.3,0.1,0.7,0.1,1,0.2l0.7,0.1c0.3,0,0.6,0.1,0.9,0.1l0.7,0.1
			c0.3,0,0.7,0,1,0l0.6,0c0.5,0,1,0,1.5,0c0.7,0,1.3-0.1,1.9-0.1l0.3,0c0.7-0.1,1.2-0.2,1.7-0.2l0.6-0.1c0.3-0.1,0.6-0.1,0.8-0.2
			c0.2-0.1,0.5-0.1,0.7-0.2c0.3-0.1,0.5-0.2,0.8-0.2c0.3-0.1,0.5-0.1,0.7-0.2c0.3-0.1,0.7-0.2,1-0.4l0.5-0.2c0.5-0.2,1-0.4,1.4-0.7
			l30-15.7c0.4-0.2,0.7-0.4,1-0.6c0.2-0.1,0.3-0.2,0.5-0.3c0.2-0.2,0.4-0.3,0.6-0.5c0.2-0.1,0.3-0.2,0.5-0.4s0.3-0.3,0.4-0.4
			c0.2-0.2,0.4-0.5,0.7-0.7l0.2-0.3c0.1-0.2,0.2-0.3,0.3-0.5l0.1-0.2c0.1-0.1,0.2-0.3,0.2-0.4l0.2-0.3c0-0.1,0.1-0.2,0.1-0.2
			l0.1-0.4c0.1-0.2,0.1-0.3,0.1-0.5c0-0.1,0-0.1,0-0.2l0-0.3c0-0.1,0-0.2,0-0.3v0h2.5v0l-0.1,25.4c0,0.1,0,0.3,0,0.4l-1.3,0.1
			l1.2,0.1c0,0.2,0,0.3-0.1,0.5c0,0.2-0.1,0.4-0.1,0.5l-1.3-0.1l1.2,0.3c0,0.1-0.1,0.3-0.1,0.4c-0.1,0.2-0.1,0.3-0.2,0.5l-1.3-0.2
			l1.2,0.5c-0.1,0.2-0.1,0.3-0.2,0.5c-0.1,0.1-0.1,0.3-0.2,0.4c-0.2,0.3-0.4,0.6-0.5,0.8c-0.1,0.1-0.2,0.2-0.3,0.3
			c-0.3,0.3-0.6,0.6-0.9,0.9l-0.2,0.2c-0.1,0.1-0.2,0.2-0.3,0.2c-0.3,0.2-0.4,0.4-0.6,0.5c-0.2,0.2-0.5,0.3-0.7,0.5
			c-0.2,0.1-0.4,0.3-0.6,0.4c-0.1,0.1-0.2,0.1-0.3,0.2c-0.3,0.2-0.6,0.4-1,0.5l-30,15.7c-0.5,0.3-1,0.5-1.6,0.8l-0.5,0.2
			c-0.4,0.1-0.8,0.3-1.1,0.4l-0.7,0.2c-0.4,0.1-0.7,0.2-0.9,0.2c-0.2,0.1-0.4,0.1-0.7,0.2c-0.4,0.1-0.7,0.2-1,0.2l-0.6,0.1
			c-0.7,0.1-1.2,0.2-1.8,0.2l-0.3,0c-0.8,0.1-1.4,0.1-2,0.1C619.1,436.6,618.8,436.6,618.4,436.6z M621.2,433.9l0.4,1.2l-0.2-1.2
			l0.2,0c0.5-0.1,1-0.1,1.6-0.2l0.2,0l0.3,1.2l-0.1-1.2l0.2,0c0.3-0.1,0.6-0.1,0.8-0.2c0.3-0.1,0.5-0.1,0.7-0.2
			c0.2-0.1,0.5-0.1,0.7-0.2l0.6-0.2c0.5-0.2,0.9-0.3,1.2-0.4l0.5-0.2c0.5-0.2,0.9-0.4,1.4-0.7l30.1-15.7c0.3-0.2,0.6-0.3,0.8-0.5
			l0.2-0.2c0.2-0.1,0.4-0.2,0.5-0.3c0.2-0.1,0.4-0.3,0.6-0.4c0.2-0.1,0.3-0.2,0.4-0.4l0.2-0.1c0.1-0.1,0.2-0.2,0.3-0.2
			c0.2-0.2,0.4-0.5,0.6-0.7l0.2-0.2c0.2-0.2,0.3-0.4,0.4-0.6l0.2-0.2c0.1-0.1,0.1-0.2,0.2-0.4l0.5-1.4c0-0.1,0-0.1,0-0.2l0-0.4
			l1.3-0.1l-1.3-0.2l0.1-19.5c-0.1,0.1-0.3,0.3-0.4,0.4c-0.2,0.2-0.3,0.3-0.5,0.5s-0.4,0.3-0.6,0.5s-0.4,0.3-0.7,0.5
			c-0.3,0.2-0.4,0.3-0.6,0.4c-0.4,0.2-0.8,0.5-1.2,0.7l-30.1,15.7c-0.5,0.3-1,0.5-1.6,0.7l-0.4,0.1c-0.5,0.2-0.9,0.4-1.3,0.5
			c-0.2,0.1-0.4,0.1-0.6,0.2c-0.4,0.1-0.7,0.2-1,0.3c-0.3,0.1-0.5,0.1-0.8,0.2c-0.3,0.1-0.6,0.1-0.9,0.2l-0.6,0.1
			c-0.6,0.1-1.2,0.2-1.7,0.2l-0.5,0c-0.6,0.1-1.3,0.1-1.9,0.1c-0.7,0-1.3,0-1.8,0l-0.7,0c-0.4,0-0.7,0-1.1,0l-0.7-0.1
			c-0.3,0-0.7-0.1-1-0.1l-0.7-0.1c-0.4-0.1-0.7-0.1-1.1-0.2l-0.7-0.1c-0.4-0.1-0.8-0.2-1.2-0.3l-0.6-0.2c-0.7-0.2-1.3-0.4-2-0.7
			c-0.3-0.1-0.6-0.2-0.9-0.4l-0.5-0.2c-0.5-0.2-0.9-0.5-1.3-0.7c-0.9-0.5-1.7-1.1-2.4-1.7l-26-22.5c-0.3-0.3-0.7-0.6-1-0.9l0,19.5
			c0.1,1.9,1,3.7,2.6,4.8l26,22.5c0.6,0.5,1.3,1,2,1.5c0.4,0.2,0.8,0.4,1.2,0.6l0.6,0.3c0.2,0.1,0.4,0.2,0.6,0.2
			c0.6,0.2,1.2,0.4,1.8,0.6l0.5,0.2c0.3,0.1,0.7,0.2,1.1,0.3l0.2,0.1l-0.1,1.2l0.3-1.2c0.5,0.1,0.8,0.2,1.2,0.2l0.6,0.1
			c0.3,0,0.6,0.1,1,0.1l0.5,0.1c0.5,0,0.8,0,1.1,0.1l0.5,0c0.6,0,1.1,0,1.6,0C620,434,620.6,434,621.2,433.9L621.2,433.9z"/>
		<g id="_Group_11">
			
				<linearGradient id="_Compound_Path_5_1_" gradientUnits="userSpaceOnUse" x1="-575.3111" y1="769.557" x2="-575.3111" y2="768.162" gradientTransform="matrix(94.0397 0 0 -56.0351 54722.5312 43477.4922)">
				<stop  offset="0" style="stop-color:#9A75DE"/>
				<stop  offset="0.306" style="stop-color:#EBCA8D"/>
				<stop  offset="0.621" style="stop-color:#827EF3"/>
				<stop  offset="1" style="stop-color:#1F202C"/>
			</linearGradient>
			<path id="_Compound_Path_5" class="st15" d="M618.5,411.3c-4.6,0.1-9.1-1-13.2-3.2c-0.9-0.5-1.7-1.1-2.4-1.7l-26-22.5
				c-2.5-2.2-3.7-4.8-3.4-7.5c0.4-3.1,2.7-5.9,6.5-7.9l20-10.5c6.9-3.6,17.2-3.7,24.3-0.3l36,17.2c0.5,0.2,0.9,0.5,1.3,0.7h0
				c3.8,2.2,5.9,5.2,5.8,8.5c-0.1,3.4-2.4,6.4-6.5,8.6l-30.1,15.7C627.1,410.4,622.8,411.4,618.5,411.3z M612.4,357.8
				c-3.9-0.1-7.8,0.8-11.3,2.5l-20,10.5c-3,1.6-4.9,3.7-5.1,6c-0.2,1.9,0.7,3.7,2.5,5.3l26,22.5c0.6,0.5,1.3,1,2,1.5
				c6.4,3.7,16.5,3.8,23.2,0.3l30-15.7c3.2-1.7,5.1-4,5.2-6.4c0-2.3-1.6-4.6-4.6-6.3c-0.4-0.2-0.8-0.4-1.2-0.6l-36-17.2
				C619.9,358.5,616.2,357.8,612.4,357.8z"/>
		</g>
	</g>
	<g id="_Group_12">
		<path id="_Path_14" class="st16" d="M559.5,425.5c0,0.1,0,0.2,0,0.3c0,0.2,0,0.5-0.1,0.7c0,0.1,0,0.2-0.1,0.3
			c0,0.2-0.1,0.4-0.2,0.6l-0.1,0.3c-0.1,0.3-0.3,0.6-0.4,0.9c0,0,0,0.1-0.1,0.1c-0.2,0.3-0.4,0.6-0.6,0.9c-0.1,0.1-0.1,0.2-0.2,0.2
			c-0.3,0.4-0.6,0.7-1,1c-0.1,0.1-0.2,0.1-0.2,0.2c-0.2,0.2-0.5,0.4-0.7,0.6c-0.1,0.1-0.2,0.2-0.3,0.2c-0.3,0.2-0.7,0.5-1,0.7
			c0,0-0.1,0-0.1,0.1c-0.6,0.3-1.1,0.6-1.7,0.9c-0.1,0-0.2,0.1-0.2,0.1c-0.6,0.3-1.2,0.5-1.9,0.7c-0.1,0-0.3,0.1-0.4,0.1
			c-0.3,0.1-0.7,0.2-1,0.3c-0.2,0-0.3,0.1-0.5,0.1c-0.5,0.1-1,0.2-1.5,0.3l-38.5,7.2c-0.8,0.1-1.5,0.2-2.3,0.3l-0.2,0
			c-0.8,0.1-1.5,0.1-2.3,0.1c-0.2,0-0.4,0-0.6,0c-0.6,0-1.1,0-1.7,0c-0.2,0-0.4,0-0.6,0c-0.7,0-1.4-0.1-2.1-0.2c-0.1,0-0.2,0-0.3,0
			c-0.6-0.1-1.2-0.2-1.7-0.3c-0.3-0.1-0.5-0.1-0.8-0.2c-0.4-0.1-0.8-0.2-1.2-0.3s-0.8-0.2-1.2-0.4s-0.7-0.3-1.1-0.4
			c-0.2-0.1-0.3-0.1-0.5-0.2c-0.6-0.3-1.1-0.5-1.6-0.8c-2.3-1.2-4.1-3.1-5-5.5l-8-26.6c-0.2-0.6-0.3-1.2-0.3-1.8l-0.1,25.2
			c0,0.6,0.1,1.2,0.3,1.8l8,26.6c0.9,2.4,2.7,4.4,5,5.5c0.5,0.3,1.1,0.6,1.6,0.8c0.2,0.1,0.3,0.1,0.5,0.2s0.3,0.2,0.5,0.2
			s0.4,0.1,0.6,0.2c0.4,0.1,0.8,0.3,1.2,0.4c0.2,0,0.3,0.1,0.4,0.2c0.2,0.1,0.5,0.1,0.7,0.2c0.3,0.1,0.5,0.1,0.8,0.2
			c0.1,0,0.2,0.1,0.4,0.1c0.4,0.1,0.9,0.2,1.4,0.2l0.3,0.1c0,0,0,0,0.1,0c0.6,0.1,1.1,0.2,1.7,0.2c0.1,0,0.2,0,0.3,0l0.6,0
			c0.3,0,0.5,0,0.8,0s0.6,0,0.9,0h0.9c0.6,0,1.3-0.1,1.9-0.1h0c0.1,0,0.1,0,0.2,0c0.7-0.1,1.4-0.2,2.1-0.3c0.1,0,0.1,0,0.2,0
			l38.5-7.3c0.5-0.1,1-0.2,1.5-0.3c0.2,0,0.3-0.1,0.5-0.1c0.3-0.1,0.7-0.2,1-0.3l0.2-0.1c0.1,0,0.1,0,0.2-0.1
			c0.6-0.2,1.3-0.5,1.9-0.7c0.1,0,0.2-0.1,0.2-0.1c0.6-0.3,1.2-0.6,1.7-0.9c0,0,0,0,0,0c0,0,0,0,0.1-0.1c0.3-0.2,0.7-0.4,1-0.7
			c0.1-0.1,0.2-0.2,0.3-0.2c0.2-0.2,0.5-0.4,0.7-0.6l0.2-0.2c0,0,0,0,0-0.1c0.3-0.3,0.7-0.7,1-1c0,0,0.1-0.1,0.1-0.1
			c0,0,0.1-0.1,0.1-0.1c0.2-0.3,0.4-0.6,0.6-0.9c0,0,0,0,0-0.1c0,0,0,0,0,0c0.2-0.3,0.3-0.6,0.4-0.9c0,0,0-0.1,0-0.1
			c0-0.1,0-0.1,0-0.2c0.1-0.2,0.1-0.4,0.2-0.7c0,0,0-0.1,0-0.2s0-0.1,0-0.2c0-0.2,0.1-0.5,0.1-0.7c0-0.1,0-0.1,0-0.2v-0.2
			L559.5,425.5z"/>
		<g id="_Group_13">
			
				<linearGradient id="_Path_15_1_" gradientUnits="userSpaceOnUse" x1="-574.4053" y1="769.1392" x2="-574.4053" y2="768.1392" gradientTransform="matrix(82.0335 0 0 -52.0408 47638.9414 40417.6055)">
				<stop  offset="0" style="stop-color:#1A1A26"/>
				<stop  offset="1" style="stop-color:#282B38"/>
			</linearGradient>
			<path id="_Path_15" class="st17" d="M533.4,394c1.3,0.7,2.4,1.6,3.4,2.7l20.8,24.2c4.8,5.6-0.1,12.4-10.4,14.3l-38.5,7.2
				c-6.6,1.2-13.5,0.1-18.1-2.5c-2.3-1.1-4.1-3.1-5-5.5l-8-26.6c-1.5-5,3.6-9.9,12-11.5l25.7-4.8C521.8,390.3,528.8,391.4,533.4,394
				z"/>
		</g>
	</g>
	<g id="_Group_14">
		<path id="_Path_16" class="st16" d="M335.8,119.9c0,0.1,0,0.2,0,0.3c0,0.2,0,0.5-0.1,0.7c0,0.1,0,0.2,0,0.2
			c-0.1,0.3-0.2,0.6-0.2,0.9l-0.1,0.1c-0.1,0.3-0.2,0.5-0.4,0.8c0,0.1-0.1,0.1-0.1,0.2c-0.2,0.3-0.4,0.6-0.6,0.9
			c0,0-0.1,0.1-0.1,0.1c-0.3,0.4-0.6,0.7-1,1.1c-0.1,0.1-0.1,0.1-0.2,0.2c-0.2,0.2-0.5,0.4-0.8,0.6c-0.1,0-0.1,0.1-0.2,0.1
			c-0.3,0.2-0.7,0.5-1,0.7c-0.1,0-0.1,0.1-0.2,0.1c-0.5,0.3-1.1,0.6-1.7,0.9c-0.1,0-0.1,0.1-0.2,0.1c-0.6,0.3-1.3,0.5-1.9,0.7
			c-0.2,0.1-0.5,0.2-0.7,0.2l-24.1,7.1c-0.9,0.3-1.8,0.5-2.7,0.6c-0.8,0.1-1.7,0.3-2.5,0.4l-0.5,0c-0.7,0-1.4,0.1-2.1,0.1h-0.6
			c-0.8,0-1.6,0-2.4-0.1c-0.1,0-0.3,0-0.4,0c-0.7-0.1-1.4-0.2-2-0.3l-0.5-0.1c-0.8-0.1-1.5-0.3-2.3-0.5c-0.2-0.1-0.4-0.2-0.7-0.2
			c-0.6-0.2-1.1-0.4-1.6-0.6c-0.1,0-0.2-0.1-0.4-0.1c-0.7-0.3-1.3-0.6-1.9-1c-0.7-0.4-1.3-0.8-2-1.3l-27.1-22
			c-1.5-1.1-2.6-2.7-3.1-4.4c-0.1-0.5-0.2-1-0.2-1.5l-0.1,25.2c0,2.1,1,4.1,3.3,6l27.1,22c0.6,0.5,1.3,0.9,1.9,1.3
			c0.6,0.4,1.3,0.7,2,1c0.1,0,0.2,0.1,0.3,0.1l0.3,0.1c0.5,0.2,0.9,0.3,1.4,0.5c0.2,0.1,0.4,0.2,0.7,0.2l0.1,0
			c0.6,0.2,1.2,0.3,1.9,0.5l0.3,0.1c0.2,0,0.3,0.1,0.5,0.1c0.3,0,0.6,0.1,0.9,0.2c0.4,0,0.7,0.1,1.1,0.1c0.1,0,0.3,0,0.4,0
			c0.1,0,0.1,0,0.2,0c0.6,0,1.1,0.1,1.7,0.1c0.1,0,0.3,0,0.4,0c0.2,0,0.4,0,0.6,0c0.3,0,0.5,0,0.8,0c0.4,0,0.8,0,1.2-0.1
			c0.2,0,0.3,0,0.5,0c0.1,0,0.1,0,0.2,0c0.8-0.1,1.5-0.2,2.3-0.3c0,0,0,0,0.1,0c0.9-0.2,1.8-0.4,2.7-0.6l24-7.1
			c0.2-0.1,0.4-0.1,0.6-0.2c0,0,0.1,0,0.1,0c0.7-0.2,1.3-0.5,1.9-0.7c0.1,0,0.1-0.1,0.2-0.1c0.6-0.3,1.2-0.6,1.7-0.9
			c0,0,0.1,0,0.1,0c0,0,0,0,0.1-0.1c0.4-0.2,0.7-0.4,1-0.7c0.1,0,0.1-0.1,0.2-0.2c0.3-0.2,0.5-0.4,0.8-0.6c0,0,0.1-0.1,0.1-0.1
			c0,0,0,0,0,0c0.4-0.3,0.7-0.7,1-1.1l0.1-0.1c0,0,0,0,0-0.1c0.2-0.3,0.4-0.6,0.6-0.9c0,0,0-0.1,0-0.1c0,0,0-0.1,0.1-0.1
			c0.1-0.3,0.3-0.5,0.4-0.8c0,0,0-0.1,0-0.1v0c0.1-0.3,0.2-0.6,0.3-0.9c0,0,0,0,0-0.1c0,0,0-0.1,0-0.1c0-0.2,0.1-0.5,0.1-0.7
			c0,0,0-0.1,0-0.1v-0.2L335.8,119.9z"/>
		<g id="_Group_15">
			
				<linearGradient id="_Path_17_1_" gradientUnits="userSpaceOnUse" x1="-574.7844" y1="769.275" x2="-574.7844" y2="768.275" gradientTransform="matrix(86.6633 0 0 -53.2751 50105.2109 41067.2031)">
				<stop  offset="0" style="stop-color:#1B1B27"/>
				<stop  offset="1" style="stop-color:#2E3241"/>
			</linearGradient>
			<path id="_Path_17" class="st18" d="M315.5,87c1.7,0.9,3.2,2.3,4.3,4l15.1,25.6c2.8,4.8-0.9,10.1-8.7,12.5l-24.1,7.1
				c-6.9,2-15.2,1.2-20.6-1.9c-0.7-0.4-1.3-0.8-2-1.3l-27.1-22c-6.3-5.1-3.3-12.3,6.3-15.1l36.1-10.7C302,83,310.2,84,315.5,87z"/>
		</g>
	</g>
	<g id="_Group_16">
		<path id="_Compound_Path_6" class="st13" d="M212.8,206.1h-0.7l-0.2,0c-0.5,0-0.8,0-1.1-0.1l-0.7,0c-0.3,0-0.7-0.1-1-0.1l-0.5-0.1
			c-0.6-0.1-1-0.2-1.4-0.2l-0.4-0.1c-0.7-0.1-1.3-0.3-1.9-0.5c-0.5-0.1-1-0.3-1.4-0.4l-40.2-13.8c-0.3-0.1-0.7-0.2-1-0.4
			c-0.2-0.1-0.3-0.1-0.5-0.2L161,190c-0.5-0.2-1.1-0.5-1.6-0.8c-3.7-2.1-5.9-5.2-5.8-8.4l0.1-25.2l2.5,0c0,2.3,1.7,4.5,4.6,6.2
			c0.4,0.3,0.9,0.5,1.4,0.7l0.3,0.1c0.6,0.3,1.1,0.5,1.6,0.7l40.2,13.8c0.4,0.1,0.8,0.3,1.3,0.4c0.5,0.1,1.1,0.3,1.6,0.4l0.2,0
			c0.6,0.1,0.9,0.2,1.3,0.2l0.5,0.1c0.5,0.1,0.8,0.1,1.1,0.1l0.6,0c0.4,0,0.7,0,1,0.1l0.6,0c0.3,0,0.7,0,1,0l0.6,0
			c0.5,0,0.9,0,1.4-0.1l0.4,1.2l-0.1-1.2c0.6-0.1,1.3-0.2,1.9-0.3l0.5-0.1c0.3-0.1,0.6-0.1,1-0.2l0.6-0.1c0.3-0.1,0.6-0.2,1-0.3
			l0.5-0.1c0.6-0.2,1.2-0.4,1.8-0.7l0.2-0.1c0.6-0.3,1.2-0.6,1.7-0.9c0.3-0.2,0.6-0.4,1-0.6l17-12.2c0.3-0.3,0.7-0.5,1-0.8l0.1-0.1
			c0.3-0.3,0.6-0.6,0.9-0.9c0.2-0.3,0.4-0.6,0.6-0.9l0.8,0.3V160l-0.6-0.4c0.1-0.1,0.2-0.3,0.2-0.5l0.1-0.3c0.1-0.2,0.1-0.3,0.1-0.5
			l0.1-0.3c0-0.2,0-0.3,0-0.5h0v-0.3h2.5v0l-0.1,25.5l0,0.2c0,0.3,0,0.5-0.1,0.8c0,0.1,0,0.3-0.1,0.4c-0.1,0.2-0.1,0.5-0.2,0.7
			c0,0.1,0,0.2-0.1,0.2l-0.1,0.2c-0.1,0.2-0.2,0.5-0.3,0.7c0,0.1-0.1,0.2-0.1,0.3c-0.2,0.4-0.5,0.8-0.8,1.2l-0.2,0.2
			c-0.3,0.4-0.6,0.7-1,1l-0.2,0.2c-0.4,0.4-0.9,0.7-1.3,1.1l-17,12.2c-0.4,0.2-0.7,0.5-1.1,0.7c-0.6,0.4-1.2,0.7-1.9,1L224,204
			c-0.6,0.3-1.3,0.5-2,0.8l-0.4,0.1c-0.5,0.1-0.8,0.2-1.2,0.3l-0.6,0.1c-0.3,0.1-0.7,0.2-1,0.2l-0.6,0.1c-0.7,0.1-1.4,0.2-2.1,0.3
			l-0.2,0c-0.6,0-1.1,0.1-1.6,0.1l-0.5,0C213.3,206.1,213.1,206.1,212.8,206.1z M210.5,203.5l0.4,0c0.3,0,0.6,0,0.9,0l0.3,1.3l0-1.3
			h1.6l0.2,1.2l0-1.3c0.6,0,1.1-0.1,1.5-0.1l0.4,1.2l-0.2-1.2c0.7-0.1,1.4-0.2,2-0.3l0.5-0.1c0.3-0.1,0.6-0.1,1-0.2l0.6-0.1
			c0.3-0.1,0.6-0.2,1-0.3l0.5-0.1c0.6-0.2,1.2-0.4,1.8-0.7l0.2-0.1c0.6-0.3,1.2-0.6,1.8-0.9c0.4-0.2,0.7-0.4,1-0.6l17-12.2
			c0.4-0.3,0.7-0.5,1-0.8l0.2-0.2c0.3-0.3,0.5-0.5,0.8-0.8l0.1-0.1c0.2-0.3,0.4-0.5,0.5-0.8l0.1-0.3c0.1-0.2,0.2-0.3,0.2-0.5
			l0.1-0.3c0.1-0.2,0.1-0.3,0.1-0.5l0.1-0.2c0-0.2,0-0.4,0.1-0.6l0-0.2l0.1-19.6c-0.1,0.1-0.3,0.3-0.4,0.4l-0.3,0.3
			c-0.4,0.3-0.8,0.7-1.2,1l-17,12.2c-0.4,0.2-0.7,0.5-1.1,0.7c-0.6,0.3-1.2,0.7-1.9,1l-0.4,0.2c-0.6,0.3-1.3,0.5-2,0.8l-0.4,0.1
			c-0.5,0.2-0.9,0.3-1.2,0.4l-0.6,0.1c-0.4,0.1-0.7,0.2-1,0.2l-0.6,0.1c-0.7,0.1-1.4,0.2-2.1,0.3l-0.2,0c-0.6,0-1.1,0.1-1.6,0.1
			l-0.7,0h-1.1l-0.7,0c-0.3,0-0.7,0-1,0l-0.7-0.1c-0.3,0-0.7-0.1-1-0.1l-0.7-0.1c-0.4-0.1-0.8-0.1-1.2-0.2l-0.5-0.1
			c-0.6-0.1-1.2-0.3-1.8-0.4c-0.5-0.1-0.9-0.3-1.4-0.4l-40.2-13.8c-0.6-0.2-1.1-0.4-1.7-0.6l-0.5-0.2c-0.5-0.3-1.1-0.5-1.6-0.8
			c-1.2-0.7-2.4-1.6-3.4-2.6l-0.1,19.5c0,2.3,1.7,4.5,4.6,6.2c0.4,0.2,0.9,0.5,1.4,0.7l1,0.4c0.3,0.1,0.6,0.2,0.9,0.3l40.2,13.8
			c0.4,0.1,0.8,0.2,1.2,0.4c0.6,0.2,1.2,0.3,1.7,0.4l0.5,0.1c0.4,0.1,0.7,0.1,1.1,0.2l0.6,0.1c0.3,0,0.6,0.1,0.9,0.1l0.1,1.3
			L210.5,203.5z"/>
		<g id="_Group_17">
			
				<linearGradient id="_Compound_Path_7_1_" gradientUnits="userSpaceOnUse" x1="-574.0914" y1="768.9634" x2="-575.3824" y2="768.9694" gradientTransform="matrix(95.1534 0 0 -55.1461 54950.9922 42558.9219)">
				<stop  offset="0" style="stop-color:#EAC98D"/>
				<stop  offset="0.192" style="stop-color:#F4F1EC"/>
				<stop  offset="0.488" style="stop-color:#E9C98E"/>
				<stop  offset="0.897" style="stop-color:#6F6CCD"/>
				<stop  offset="1" style="stop-color:#B18DC6"/>
			</linearGradient>
			<path id="_Compound_Path_7" class="st19" d="M212.9,180.9c-3.2,0-6.4-0.5-9.5-1.5l-40.2-13.8c-1.3-0.4-2.6-1-3.8-1.7
				c-3.6-2.1-5.7-4.9-5.8-8c-0.1-2.9,1.4-5.6,4.4-7.8l25.4-18.2c7-5.1,19.7-5.5,27.7-0.9c0.2,0.1,0.4,0.2,0.5,0.3l31.7,19.9
				c3.3,2.1,5.2,4.9,5.3,7.8c0.1,2.8-1.5,5.6-4.4,7.7l-17,12.2C223.8,179.5,218.4,180.9,212.9,180.9z M198.1,128.2
				c-4.9,0-9.7,1.2-13,3.6l-25.4,18.2c-2.3,1.7-3.5,3.6-3.4,5.6c0.1,2.2,1.7,4.3,4.6,6c1.1,0.6,2.2,1.1,3.3,1.5l40.2,13.8
				c7.2,2.5,16.5,1.5,21.7-2.2l17-12.2c2.2-1.6,3.5-3.6,3.4-5.6c-0.1-2.1-1.5-4.2-4.2-5.8L210,131.1
				C206.3,129.1,202.2,128.2,198.1,128.2L198.1,128.2z"/>
		</g>
	</g>
	<g id="_Group_18">
		<g id="_Group_19" class="st20">
			<path id="_Path_18" class="st21" d="M188,280.4c4.4,2.5,6.3,6.3,4.7,9.9l-6.9,15.1c-2.2,4.9-10.4,8.1-19.2,7.5l-46.3-3.1
				c-3.7-0.2-7.3-1.2-10.5-2.9c-4.3-2.5-6.4-6.2-4.7-10l10.4-22.7c2.8-6.1,14.2-9.3,24.2-6.8l42.9,10.7
				C184.4,278.7,186.3,279.4,188,280.4z"/>
		</g>
		<g id="_Group_20" class="st22">
			<path id="_Path_19" d="M188,253.2c4.4,2.5,6.3,6.3,4.7,9.9l-6.9,15.1c-2.2,4.9-10.4,8.1-19.2,7.5l-46.3-3.1
				c-3.7-0.2-7.3-1.2-10.5-2.9c-4.3-2.5-6.4-6.2-4.7-10l10.4-22.7c2.8-6.1,14.2-9.3,24.2-6.8l42.9,10.7
				C184.4,251.5,186.3,252.2,188,253.2z"/>
		</g>
		<path id="_Path_20" class="st16" d="M193.3,212.1c0,0.4-0.1,0.8-0.1,1.2c0,0.1-0.1,0.2-0.1,0.3c-0.1,0.4-0.2,0.7-0.4,1.1
			l-6.9,15.1c-0.1,0.2-0.2,0.5-0.4,0.7c-0.2,0.2-0.3,0.5-0.5,0.7c-0.1,0.1-0.1,0.2-0.2,0.3c-0.3,0.4-0.6,0.7-1,1
			c-0.1,0.1-0.2,0.2-0.3,0.3c-0.2,0.2-0.4,0.3-0.6,0.5c-0.1,0.1-0.3,0.2-0.4,0.3c-0.2,0.1-0.4,0.3-0.7,0.4c-0.1,0.1-0.3,0.2-0.4,0.2
			c-0.6,0.3-1.1,0.6-1.7,0.9c-0.1,0-0.2,0.1-0.3,0.1c-0.6,0.3-1.3,0.5-2,0.8c0,0-0.1,0-0.1,0c-0.5,0.1-0.9,0.3-1.4,0.4
			c-0.2,0-0.4,0.1-0.5,0.1c-0.4,0.1-0.7,0.2-1.1,0.2l-0.5,0.1c-0.6,0.1-1.2,0.2-1.7,0.2c-0.1,0-0.2,0-0.4,0
			c-0.6,0.1-1.2,0.1-1.8,0.1c-0.1,0-0.3,0-0.5,0c-0.4,0-0.8,0-1.3,0c-0.5,0-1,0-1.5-0.1l-46.3-3.1c-0.3,0-0.6,0-0.9-0.1
			c-0.4,0-0.7-0.1-1-0.1c-0.2,0-0.4,0-0.6-0.1c-0.4-0.1-0.7-0.1-1.1-0.2c-0.2,0-0.4-0.1-0.5-0.1c-0.6-0.1-1.1-0.2-1.7-0.4
			c0,0,0,0,0,0c0,0,0,0,0,0c-0.7-0.2-1.3-0.4-1.9-0.6c-0.1,0-0.2-0.1-0.4-0.1c-0.3-0.1-0.6-0.2-0.9-0.4c-0.1-0.1-0.3-0.1-0.4-0.2
			c-0.4-0.2-0.8-0.4-1.2-0.6c-3.3-1.9-5.3-4.5-5.3-7.3l-0.1,25.2c0,2.8,2,5.4,5.3,7.3c0.4,0.2,0.8,0.4,1.2,0.6
			c0.1,0.1,0.3,0.1,0.4,0.2c0.3,0.1,0.6,0.2,0.9,0.4c0,0,0.1,0,0.2,0.1s0.1,0,0.2,0.1c0.6,0.2,1.3,0.5,1.9,0.6h0
			c0.5,0.1,1.1,0.3,1.7,0.4c0.1,0,0.1,0,0.2,0c0.1,0,0.2,0,0.4,0.1c0.4,0.1,0.7,0.1,1.1,0.2l0.3,0.1l0.3,0c0.3,0,0.7,0.1,1,0.1
			c0.1,0,0.3,0,0.4,0s0.3,0,0.4,0l46.3,3.1c0.4,0,0.9,0,1.3,0.1h0.2c0.4,0,0.9,0,1.3,0c0.1,0,0.3,0,0.4,0h0.1c0.6,0,1.2-0.1,1.8-0.1
			c0,0,0.1,0,0.1,0c0.1,0,0.2,0,0.2,0c0.6-0.1,1.2-0.1,1.7-0.2c0.1,0,0.2,0,0.3,0c0.1,0,0.2,0,0.2,0c0.4-0.1,0.7-0.1,1.1-0.2
			c0.2,0,0.4-0.1,0.5-0.1c0.5-0.1,1-0.3,1.4-0.4c0,0,0.1,0,0.1,0h0c0.7-0.2,1.3-0.5,2-0.8c0.1,0,0.2-0.1,0.3-0.1
			c0.6-0.3,1.2-0.6,1.7-0.9c0,0,0.1,0,0.1-0.1c0.1,0,0.2-0.1,0.3-0.2c0.2-0.1,0.5-0.3,0.7-0.5c0.1-0.1,0.3-0.2,0.4-0.3
			c0.2-0.2,0.4-0.3,0.6-0.5c0.1-0.1,0.2-0.1,0.2-0.2c0,0,0.1-0.1,0.1-0.1c0.3-0.3,0.7-0.7,1-1c0,0,0,0,0,0c0.1-0.1,0.1-0.1,0.1-0.2
			c0.2-0.2,0.3-0.5,0.5-0.7c0-0.1,0.1-0.1,0.1-0.1c0.1-0.2,0.2-0.4,0.3-0.6l6.9-15.1c0.1-0.1,0.1-0.3,0.2-0.5
			c0.1-0.2,0.1-0.4,0.2-0.7c0-0.1,0-0.2,0.1-0.3c0,0,0,0,0-0.1c0.1-0.3,0.1-0.7,0.1-1v-0.1L193.3,212.1z"/>
		<g id="_Group_21">
			
				<linearGradient id="_Path_21_1_" gradientUnits="userSpaceOnUse" x1="-574.9436" y1="768.4261" x2="-574.9436" y2="767.4261" gradientTransform="matrix(88.7684 0 0 -46.3959 51185.7617 35842.8711)">
				<stop  offset="0" style="stop-color:#181A21"/>
				<stop  offset="1" style="stop-color:#292933"/>
			</linearGradient>
			<path id="_Path_21" class="st23" d="M188,204.8c4.4,2.5,6.3,6.3,4.7,9.9l-6.9,15.1c-2.2,4.9-10.4,8.1-19.2,7.5l-46.3-3.1
				c-3.7-0.2-7.3-1.2-10.5-2.9c-4.3-2.5-6.4-6.2-4.7-10l10.4-22.7c2.8-6.1,14.2-9.3,24.2-6.8l42.9,10.7
				C184.4,203.1,186.3,203.8,188,204.8z"/>
		</g>
	</g>
</g>
<path id="_Compound_Path_8" class="st9" d="M423.9,314c-0.7,0-1.4,0-2-0.1l0.1-2c0.7,0,1.3,0.1,2,0.1L423.9,314z M428,314l-0.1-2
	c0.7,0,1.3,0,2-0.1l0.1,2C429.4,313.9,428.7,314,428,314z M417.9,313.6c-0.7-0.1-1.4-0.1-2-0.2l0.2-2c0.7,0.1,1.3,0.1,2,0.2
	L417.9,313.6z M434.1,313.6l-0.2-2c0.7-0.1,1.3-0.1,2-0.2l0.2,2C435.5,313.4,434.8,313.5,434.1,313.6L434.1,313.6z M411.8,312.8
	c-0.7-0.1-1.3-0.2-2-0.4l0.4-2c0.7,0.1,1.3,0.3,2,0.4L411.8,312.8z M440.2,312.7l-0.4-2c0.7-0.1,1.3-0.2,2-0.4l0.4,2
	C441.5,312.5,440.8,312.6,440.2,312.7z M405.8,311.5c-0.7-0.2-1.3-0.4-2-0.5l0.6-1.9c0.6,0.2,1.3,0.4,1.9,0.5L405.8,311.5z
	 M446.1,311.4l-0.5-2c0.6-0.2,1.3-0.3,1.9-0.5l0.6,1.9C447.4,311,446.8,311.2,446.1,311.4L446.1,311.4z M400,309.7
	c-0.6-0.2-1.3-0.5-1.9-0.7l0.8-1.9c0.6,0.2,1.2,0.5,1.8,0.7L400,309.7z M452,309.4l-0.7-1.9c0.6-0.2,1.2-0.5,1.8-0.7l0.8,1.8
	C453.2,308.9,452.6,309.2,452,309.4L452,309.4z M394.3,307.2c-0.6-0.3-1.2-0.6-1.8-1l1-1.8c0.6,0.3,1.1,0.6,1.7,0.9L394.3,307.2z
	 M457.6,306.9l-0.9-1.8c0.6-0.3,1.2-0.6,1.7-1c0.4-0.2,0.8-0.5,1.2-0.7l1.1,1.7c-0.4,0.2-0.8,0.5-1.3,0.8
	C458.8,306.3,458.2,306.6,457.6,306.9L457.6,306.9z M389,304.1c-0.6-0.4-1.1-0.8-1.7-1.2l1.2-1.6c0.5,0.4,1,0.8,1.6,1.2L389,304.1z
	 M464,302.8l-1.2-1.6c0.5-0.4,1-0.8,1.5-1.2l1.3,1.5C465.1,302,464.6,302.4,464,302.8L464,302.8z M384.2,300.1c-0.5-0.5-1-1-1.4-1.5
	l1.5-1.3c0.4,0.5,0.8,1,1.3,1.4L384.2,300.1z M468.6,298.5l-1.5-1.3c0.4-0.5,0.8-1,1.2-1.5l1.6,1.2C469.4,297.5,469,298,468.6,298.5
	L468.6,298.5z M380.4,295.2c-0.4-0.6-0.7-1.2-1-1.9l1.8-0.8c0.3,0.6,0.6,1.1,0.9,1.7L380.4,295.2z M472,293.3l-1.8-0.8
	c0.3-0.6,0.5-1.2,0.7-1.8l1.9,0.6C472.5,292,472.3,292.6,472,293.3L472,293.3z M378.1,289.3c-0.1-0.7-0.2-1.4-0.3-2.1l2-0.1
	c0,0.6,0.1,1.3,0.3,1.9L378.1,289.3z M473.6,287.1l-2-0.1c0-0.4,0-0.7,0-1.1c0-0.3,0-0.5,0-0.8l2-0.1c0,0.3,0,0.6,0,0.9
	C473.6,286.3,473.6,286.7,473.6,287.1L473.6,287.1z M380,283.2l-2-0.4c0.1-0.7,0.3-1.4,0.5-2.1l1.9,0.6
	C380.3,282,380.1,282.6,380,283.2L380,283.2z M470.9,281.4c-0.2-0.6-0.4-1.2-0.7-1.8l1.8-0.8c0.3,0.6,0.5,1.3,0.7,2L470.9,281.4z
	 M382,277.9l-1.8-1c0.3-0.6,0.7-1.2,1.1-1.8l1.7,1.2C382.6,276.8,382.3,277.4,382,277.9L382,277.9z M468.3,276.3
	c-0.4-0.5-0.8-1-1.2-1.5l1.5-1.3c0.5,0.5,0.9,1.1,1.3,1.7L468.3,276.3z M385.5,273.3l-1.4-1.4c0.5-0.5,1-1,1.5-1.4l1.3,1.5
	C386.4,272.4,385.9,272.9,385.5,273.3L385.5,273.3z M464.5,272c-0.5-0.4-1-0.8-1.5-1.2l1.2-1.6c0.5,0.4,1.1,0.9,1.6,1.3L464.5,272z
	 M389.9,269.6l-1.2-1.6c0.5-0.4,1.1-0.8,1.7-1.1l1.1,1.7C391,268.8,390.4,269.2,389.9,269.6L389.9,269.6z M459.8,268.5
	c-0.5-0.3-0.9-0.6-1.4-0.9l-0.3-0.1l1-1.8l0.3,0.1c0.5,0.3,1,0.6,1.5,0.9L459.8,268.5z M395,266.5l-0.9-1.8c0.6-0.3,1.2-0.6,1.8-0.9
	l0.8,1.8C396.1,266,395.5,266.2,395,266.5L395,266.5z M454.6,265.7c-0.6-0.3-1.2-0.5-1.8-0.8l0.8-1.9c0.6,0.3,1.3,0.5,1.9,0.8
	L454.6,265.7z M400.4,264.2l-0.7-1.9c0.6-0.2,1.3-0.5,1.9-0.7l0.6,1.9C401.6,263.7,401,263.9,400.4,264.2L400.4,264.2z M449.1,263.5
	c-0.6-0.2-1.2-0.4-1.9-0.6l0.6-1.9c0.6,0.2,1.3,0.4,2,0.6L449.1,263.5z M406,262.3l-0.5-1.9c0.7-0.2,1.3-0.4,2-0.5l0.5,2
	C407.3,262,406.7,262.2,406,262.3L406,262.3z M443.4,261.8c-0.6-0.1-1.3-0.3-1.9-0.4l0.4-2c0.7,0.1,1.3,0.3,2,0.5L443.4,261.8z
	 M411.8,261l-0.4-2c0.7-0.1,1.3-0.2,2-0.3l0.3,2C413.1,260.8,412.5,260.9,411.8,261L411.8,261z M437.5,260.7c-0.7-0.1-1.3-0.2-2-0.3
	l0.2-2c0.7,0.1,1.3,0.2,2,0.3L437.5,260.7z M417.7,260.2l-0.2-2c0.7-0.1,1.3-0.1,2-0.2l0.1,2C419,260.1,418.4,260.1,417.7,260.2
	L417.7,260.2z M431.6,260c-0.7-0.1-1.3-0.1-2-0.1l0.1-2c0.7,0,1.4,0.1,2,0.1L431.6,260z M423.7,259.8l-0.1-2c0.7,0,1.4,0,2,0v2
	C425,259.8,424.3,259.8,423.7,259.8L423.7,259.8z"/>
<path id="_Path_22" class="st24" d="M458.9,305.1c-18.3,10.6-48,10.6-66.4,0s-18.3-27.7,0-38.3s48-10.6,66.4,0
	S477.2,294.5,458.9,305.1z"/>
<path id="_Compound_Path_9" class="st25" d="M425.7,273.5c-12.1,0-24.2-2.7-33.5-8c-9-5.2-14-12.2-14-19.6s5-14.4,14-19.6
	c18.5-10.6,48.5-10.6,66.9,0c9,5.2,14,12.2,14,19.6s-5,14.4-14,19.6C449.9,270.8,437.8,273.5,425.7,273.5z M425.7,219.3
	c-11.9,0-23.8,2.6-32.9,7.9c-8.7,5-13.5,11.7-13.5,18.7s4.8,13.7,13.5,18.7c18.2,10.5,47.7,10.5,65.8,0c8.7-5,13.5-11.6,13.5-18.7
	s-4.8-13.7-13.5-18.7C449.5,221.9,437.6,219.3,425.7,219.3L425.7,219.3z"/>
<path id="_Compound_Path_10" class="st26" d="M425.7,219.3c-12.1,0-24.2-2.7-33.5-8c-9-5.2-14-12.2-14-19.6s5-14.4,14-19.6
	c18.5-10.7,48.5-10.6,66.9,0c9,5.2,14,12.2,14,19.6s-5,14.4-14,19.6C449.9,216.6,437.8,219.3,425.7,219.3z M425.7,165.1
	c-11.9,0-23.8,2.6-32.9,7.9c-8.7,5-13.5,11.7-13.5,18.7s4.8,13.7,13.5,18.7c18.2,10.5,47.7,10.5,65.8,0c8.7-5,13.5-11.7,13.5-18.7
	s-4.8-13.7-13.5-18.7C449.5,167.7,437.6,165.1,425.7,165.1L425.7,165.1z"/>
<path id="_Compound_Path_11" class="st27" d="M425.7,192.2c-12.1,0-24.2-2.7-33.5-8c-9-5.2-14-12.2-14-19.6s5-14.4,14-19.6
	c18.5-10.6,48.5-10.6,66.9,0c9,5.2,14,12.2,14,19.6s-5,14.4-14,19.6C449.9,189.5,437.8,192.2,425.7,192.2z M425.7,138
	c-11.9,0-23.8,2.6-32.9,7.9c-8.7,5-13.5,11.7-13.5,18.7s4.8,13.7,13.5,18.7c18.2,10.5,47.7,10.5,65.8,0c8.7-5,13.5-11.7,13.5-18.7
	s-4.8-13.7-13.5-18.7C449.5,140.6,437.6,138,425.7,138L425.7,138z"/>
<path id="_Path_23" class="st1" d="M383,238.2c0,1.3-1,2.3-2.3,2.3c-1.3,0-2.3-1-2.3-2.3c0-1.3,1-2.3,2.3-2.3
	C381.9,235.8,383,236.9,383,238.2z"/>
<path id="_Path_24" class="st1" d="M455.6,224c0,1.3-1,2.3-2.3,2.3c-1.3,0-2.3-1-2.3-2.3c0-1.3,1-2.3,2.3-2.3
	C454.5,221.7,455.6,222.7,455.6,224C455.6,224,455.6,224,455.6,224z"/>
<path id="_Path_25" class="st1" d="M469.9,152.5c0,1.3-1,2.3-2.3,2.3c-1.3,0-2.3-1-2.3-2.3c0-1.3,1-2.3,2.3-2.3
	C468.9,150.1,469.9,151.2,469.9,152.5z"/>
<g id="_Group_22" transform="translate(577.326 320.681)">
	
		<linearGradient id="_Path_26_1_" gradientUnits="userSpaceOnUse" x1="-1146.2529" y1="448.762" x2="-1145.2529" y2="448.762" gradientTransform="matrix(44.5191 0 0 -60.3119 50858.6211 26871.248)">
		<stop  offset="0" style="stop-color:#1C1C28"/>
		<stop  offset="0.51" style="stop-color:#36394A"/>
		<stop  offset="1" style="stop-color:#21222F"/>
	</linearGradient>
	<path id="_Path_26" class="st28" d="M-127-183.1c0-0.1,0-0.1,0-0.2c0-0.1,0-0.3,0-0.4c0-0.2,0-0.3,0-0.5c0-0.1,0-0.3,0-0.4
		c0-0.1,0-0.3,0-0.4c0-0.1,0-0.2,0-0.3c0-0.2,0-0.4-0.1-0.6c0-0.1,0-0.2,0-0.4c0,0,0-0.1,0-0.1c-0.1-0.4-0.1-0.8-0.2-1.1v0l0-0.2
		c-0.1-0.3-0.1-0.6-0.2-1c0-0.1,0-0.1,0-0.2c0-0.2-0.1-0.3-0.1-0.5c0-0.2-0.1-0.4-0.1-0.6c0-0.1-0.1-0.2-0.1-0.3
		c0-0.2-0.1-0.3-0.1-0.5c0-0.1-0.1-0.3-0.1-0.4c0-0.2-0.1-0.3-0.1-0.5s-0.1-0.3-0.1-0.5c0-0.1,0-0.2-0.1-0.2
		c-0.1-0.2-0.1-0.4-0.2-0.7c0-0.1-0.1-0.3-0.1-0.4c0,0,0-0.1,0-0.1c-0.1-0.4-0.2-0.8-0.4-1.2c0,0,0,0,0,0c0,0,0-0.1,0-0.1
		c-0.1-0.4-0.2-0.7-0.4-1l-0.1-0.2c0-0.1-0.1-0.3-0.1-0.4c-0.1-0.2-0.1-0.4-0.2-0.6c-0.1-0.1-0.1-0.2-0.1-0.4
		c-0.1-0.1-0.1-0.3-0.2-0.4c0-0.1-0.1-0.2-0.1-0.3c-0.1-0.2-0.2-0.4-0.3-0.6c-0.1-0.1-0.1-0.2-0.1-0.3c0,0,0-0.1-0.1-0.1
		c-0.2-0.4-0.3-0.7-0.5-1.1c0,0,0,0,0-0.1c0-0.1-0.1-0.2-0.1-0.3c-0.1-0.3-0.3-0.6-0.4-0.8c0,0,0-0.1-0.1-0.1
		c-0.1-0.2-0.2-0.5-0.4-0.7c-0.1-0.2-0.2-0.4-0.3-0.5c0,0,0-0.1-0.1-0.1c-0.3-0.6-0.6-1.2-1-1.8c0-0.1-0.1-0.1-0.1-0.2
		s-0.1-0.1-0.1-0.2c-0.5-0.8-1-1.6-1.5-2.4c0,0-0.1-0.1-0.1-0.1c0-0.1-0.1-0.1-0.1-0.2c-0.4-0.6-0.8-1.2-1.3-1.8l0,0c0,0,0,0,0,0
		c-0.3-0.4-0.6-0.8-1-1.2c0,0,0,0,0-0.1c-0.2-0.3-0.5-0.6-0.7-0.9c0-0.1-0.1-0.1-0.1-0.2c0,0,0,0,0,0c-0.3-0.4-0.6-0.7-0.9-1
		c0,0,0,0,0-0.1c-0.1-0.1-0.2-0.2-0.3-0.3c-0.2-0.2-0.4-0.4-0.6-0.6c0,0-0.1-0.1-0.1-0.1c-0.1-0.1-0.3-0.3-0.4-0.4
		c-0.1-0.2-0.3-0.3-0.4-0.5c-0.1-0.1-0.1-0.1-0.2-0.2c-0.1-0.1-0.3-0.3-0.4-0.4c-0.1-0.1-0.2-0.2-0.4-0.4l-0.2-0.2
		c-0.2-0.1-0.3-0.3-0.5-0.4c-0.1-0.1-0.2-0.2-0.3-0.3c-0.1-0.1-0.2-0.1-0.3-0.2c-0.2-0.1-0.3-0.3-0.5-0.4c-0.1-0.1-0.2-0.2-0.3-0.2
		l-0.3-0.3c-0.2-0.1-0.3-0.3-0.5-0.4c-0.1-0.1-0.2-0.1-0.2-0.2c-0.1-0.1-0.3-0.2-0.4-0.3s-0.3-0.2-0.4-0.3c-0.1,0-0.1-0.1-0.2-0.1
		c-0.2-0.1-0.3-0.3-0.5-0.4c-0.1-0.1-0.2-0.2-0.4-0.3c0,0-0.1,0-0.1-0.1c-0.3-0.2-0.6-0.4-1-0.6c0,0,0,0,0,0c0,0,0,0-0.1,0
		c-0.3-0.2-0.6-0.4-0.9-0.5c-0.1,0-0.1-0.1-0.2-0.1c-0.2-0.1-0.5-0.3-0.7-0.4c-0.1-0.1-0.2-0.1-0.3-0.1c-0.1-0.1-0.2-0.1-0.4-0.2
		c-0.1-0.1-0.2-0.1-0.3-0.1c-0.2-0.1-0.3-0.1-0.5-0.2c-0.1-0.1-0.2-0.1-0.3-0.2l-0.1-0.1c-0.3-0.1-0.6-0.3-0.9-0.4l0,0c0,0,0,0,0,0
		c-0.3-0.1-0.6-0.2-0.9-0.3c0,0-0.1,0-0.1,0l-0.3-0.1c-0.2-0.1-0.3-0.1-0.5-0.2c-0.1,0-0.2,0-0.2-0.1c-0.1,0-0.3-0.1-0.4-0.1
		c-0.1,0-0.2-0.1-0.3-0.1s-0.2,0-0.3-0.1l-0.4-0.1l-0.2,0c-0.1,0-0.2,0-0.4-0.1c-0.2,0-0.3-0.1-0.5-0.1c-0.1,0-0.1,0-0.2,0
		c-0.1,0-0.2,0-0.4,0c-0.2,0-0.3,0-0.5-0.1l-0.1,0c-0.1,0-0.2,0-0.3,0c-0.2,0-0.4,0-0.6,0c-0.1,0-0.1,0-0.2,0c-0.1,0-0.2,0-0.2,0
		c-0.2,0-0.5,0-0.7,0c-0.1,0-0.1,0-0.2,0c-0.1,0-0.1,0-0.2,0c-0.4,0-0.7,0.1-1.1,0.2l-0.1,0c0,0,0,0,0,0c-0.1,0-0.1,0-0.2,0.1
		c-0.2,0-0.4,0.1-0.6,0.2c-0.1,0-0.2,0.1-0.3,0.1c-0.1,0-0.3,0.1-0.4,0.1c0,0-0.1,0-0.1,0c-0.2,0.1-0.4,0.2-0.6,0.2
		c-0.1,0-0.2,0.1-0.3,0.1c-0.3,0.1-0.6,0.3-0.9,0.4l-5.6,3.2c0.3-0.2,0.6-0.3,0.9-0.4c0.1,0,0.2-0.1,0.3-0.1
		c0.2-0.1,0.4-0.2,0.6-0.2c0.2-0.1,0.3-0.1,0.5-0.2c0.1,0,0.2-0.1,0.3-0.1c0.2-0.1,0.4-0.1,0.6-0.2c0.1,0,0.1,0,0.2-0.1l0.1,0
		c0.4-0.1,0.7-0.1,1.1-0.2c0.1,0,0.2,0,0.4,0c0.2,0,0.5,0,0.7,0c0.1,0,0.3,0,0.4,0c0.2,0,0.4,0,0.6,0c0.2,0,0.3,0,0.5,0
		s0.3,0,0.5,0.1c0.2,0,0.4,0,0.5,0.1l0.5,0.1c0.2,0,0.4,0.1,0.6,0.1c0.1,0,0.3,0.1,0.4,0.1c0.2,0.1,0.4,0.1,0.6,0.2
		c0.1,0,0.3,0.1,0.4,0.1c0.2,0.1,0.5,0.1,0.7,0.2c0.1,0,0.2,0.1,0.3,0.1c0.3,0.1,0.7,0.2,1,0.4c0,0,0,0,0,0c0.3,0.1,0.7,0.3,1,0.5
		l0.3,0.2c0.2,0.1,0.5,0.2,0.7,0.4c0.1,0.1,0.2,0.1,0.4,0.2c0.3,0.2,0.7,0.4,1,0.5c0.4,0.2,0.7,0.4,1.1,0.7c0,0,0,0,0.1,0
		c0.4,0.2,0.7,0.5,1.1,0.7c0.1,0.1,0.2,0.2,0.4,0.3c0.2,0.2,0.5,0.3,0.7,0.5c0.1,0.1,0.3,0.2,0.4,0.3c0.2,0.2,0.4,0.3,0.6,0.5
		c0.2,0.1,0.3,0.2,0.5,0.4c0.2,0.2,0.4,0.3,0.6,0.5c0.2,0.1,0.3,0.3,0.5,0.4c0.2,0.2,0.4,0.3,0.6,0.5c0.2,0.1,0.3,0.3,0.5,0.4
		c0.2,0.2,0.4,0.4,0.6,0.6l0.4,0.4c0.2,0.2,0.4,0.4,0.6,0.6c0.1,0.1,0.3,0.3,0.4,0.4c0.2,0.2,0.5,0.5,0.7,0.7
		c0.1,0.1,0.2,0.2,0.3,0.3c0.3,0.4,0.6,0.7,0.9,1.1c0,0.1,0.1,0.1,0.1,0.2c0.3,0.3,0.5,0.6,0.8,1c0.3,0.4,0.6,0.8,1,1.2c0,0,0,0,0,0
		c0.4,0.6,0.9,1.2,1.3,1.8c0.1,0.1,0.2,0.2,0.2,0.3c0.5,0.8,1,1.6,1.5,2.4c0.1,0.1,0.1,0.2,0.2,0.3c0.3,0.6,0.7,1.2,1,1.8
		c0.1,0.2,0.2,0.4,0.3,0.6s0.2,0.5,0.4,0.7c0.2,0.3,0.3,0.6,0.5,1c0.1,0.1,0.1,0.2,0.2,0.3c0.2,0.4,0.4,0.8,0.6,1.3
		c0.1,0.1,0.1,0.2,0.1,0.3c0.1,0.3,0.3,0.6,0.4,0.9c0.1,0.1,0.1,0.3,0.2,0.4c0.1,0.3,0.2,0.6,0.3,0.9c0.1,0.1,0.1,0.3,0.1,0.4
		c0.1,0.4,0.3,0.8,0.4,1.2c0,0,0,0.1,0,0.1c0.1,0.4,0.3,0.9,0.4,1.3c0,0.1,0.1,0.3,0.1,0.4c0.1,0.3,0.2,0.6,0.3,0.9
		c0,0.2,0.1,0.3,0.1,0.5c0.1,0.3,0.1,0.6,0.2,0.8c0,0.2,0.1,0.3,0.1,0.5l0.2,0.9c0,0.2,0.1,0.3,0.1,0.5c0.1,0.4,0.1,0.8,0.2,1.1
		l0,0.2c0.1,0.4,0.1,0.9,0.2,1.3c0,0.1,0,0.2,0,0.4c0,0.3,0.1,0.6,0.1,0.9c0,0.1,0,0.3,0,0.4c0,0.3,0,0.6,0.1,0.9c0,0.1,0,0.3,0,0.4
		c0,0.4,0,0.8,0,1.2c0,0.4,0,0.8,0,1.3c0,0.1,0,0.2,0,0.3c0,0.3,0,0.6-0.1,0.8c0,0.2,0,0.3,0,0.5c0,0.2-0.1,0.5-0.1,0.7
		c0,0.2,0,0.3-0.1,0.5c0,0.2-0.1,0.4-0.1,0.6c0,0.2-0.1,0.4-0.1,0.5s-0.1,0.4-0.1,0.5c-0.1,0.2-0.1,0.4-0.2,0.6
		c0,0.2-0.1,0.3-0.1,0.5c-0.1,0.2-0.2,0.5-0.2,0.7c0,0.1-0.1,0.3-0.1,0.4c-0.2,0.4-0.3,0.8-0.5,1.2c-0.1,0.3-0.3,0.6-0.4,0.8
		c0,0,0,0,0,0c-0.1,0.3-0.3,0.5-0.5,0.8c-0.2,0.4-0.5,0.7-0.7,1c-0.1,0.1-0.1,0.2-0.2,0.2c-0.2,0.3-0.5,0.6-0.8,0.9l-0.1,0.1
		c-0.3,0.3-0.6,0.5-0.9,0.8c-0.1,0.1-0.2,0.1-0.2,0.2c-0.3,0.2-0.7,0.5-1,0.7l5.6-3.2c0.3-0.2,0.7-0.4,1-0.7
		c0.1-0.1,0.2-0.1,0.2-0.2c0.3-0.2,0.6-0.5,0.9-0.8l0.1-0.1c0.3-0.3,0.5-0.6,0.8-0.9c0.1-0.1,0.1-0.2,0.2-0.2c0.3-0.3,0.5-0.7,0.7-1
		c0,0,0,0,0,0c0.2-0.2,0.3-0.5,0.4-0.7c0,0,0,0,0,0c0.1-0.3,0.3-0.5,0.4-0.8c0,0,0,0,0,0c0.2-0.4,0.3-0.8,0.5-1.2c0,0,0-0.1,0-0.1
		c0-0.1,0.1-0.2,0.1-0.3c0.1-0.2,0.2-0.5,0.2-0.7c0-0.1,0-0.1,0.1-0.2c0-0.1,0-0.2,0.1-0.3c0.1-0.2,0.1-0.4,0.2-0.6
		c0-0.1,0.1-0.2,0.1-0.3s0-0.2,0.1-0.3c0-0.2,0.1-0.4,0.1-0.5c0-0.1,0-0.2,0.1-0.3s0-0.2,0.1-0.3c0-0.2,0.1-0.3,0.1-0.5
		c0-0.1,0-0.2,0-0.3c0-0.1,0-0.3,0-0.4s0-0.3,0-0.5c0-0.1,0-0.1,0-0.2c0-0.2,0-0.4,0-0.6c0-0.1,0-0.2,0-0.3c0,0,0-0.1,0-0.1
		c0-0.4,0-0.7,0-1.1v-0.1C-127-182.5-127-182.8-127-183.1z"/>
	<g id="_Group_23" transform="translate(0 3.249)">
		
			<linearGradient id="_Path_27_1_" gradientUnits="userSpaceOnUse" x1="-1146.5509" y1="445.3652" x2="-1145.5529" y2="445.3652" gradientTransform="matrix(45.5573 0 0 -58.5996 52055.6055 25902.9336)">
			<stop  offset="0" style="stop-color:#262627"/>
			<stop  offset="0" style="stop-color:#1C1C28"/>
			<stop  offset="0.51" style="stop-color:#373A4D"/>
			<stop  offset="1" style="stop-color:#21222F"/>
		</linearGradient>
		<path id="_Path_27" class="st29" d="M-155.3-221.5c12.6,7.3,22.7,24.9,22.7,39.3s-10.3,20.3-22.9,13s-22.8-24.9-22.7-39.3
			S-167.9-228.7-155.3-221.5z"/>
	</g>
</g>
<radialGradient id="_Path_28_1_" cx="-579.6525" cy="773.0776" r="0.763" gradientTransform="matrix(313.9953 0 0 -313.9925 182432.0312 243039.2031)" gradientUnits="userSpaceOnUse">
	<stop  offset="0" style="stop-color:#E5BEF9"/>
	<stop  offset="0.212" style="stop-color:#E5B2FF;stop-opacity:0.655"/>
	<stop  offset="1" style="stop-color:#2D0244;stop-opacity:0"/>
</radialGradient>
<path id="_Path_28" class="st30" d="M472.6,0h-93.9v286.2h0.1c-0.3,7.2,4.2,14.4,13.7,19.8c18.3,10.6,48,10.6,66.4,0
	c9.2-5.3,13.8-12.2,13.8-19.2L472.6,0z"/>
<path id="_Path_29" class="st1" d="M395.1,172.4c0,1.3-1,2.3-2.3,2.3c-1.3,0-2.3-1-2.3-2.3c0-1.3,1-2.3,2.3-2.3
	C394.1,170.1,395.1,171.1,395.1,172.4z"/>
<path id="_Path_30" class="st1" d="M450.3,168.1c0,1.3-1,2.3-2.3,2.3c-1.3,0-2.3-1-2.3-2.3c0-1.3,1-2.3,2.3-2.3c0,0,0,0,0,0
	C449.3,165.8,450.3,166.9,450.3,168.1C450.3,168.1,450.3,168.1,450.3,168.1z"/>
<path id="_Compound_Path_12" class="st31" d="M425.7,246.4c-12.1,0-24.2-2.7-33.5-8c-9-5.2-14-12.2-14-19.6s5-14.4,14-19.6
	c18.5-10.6,48.5-10.6,66.9,0c9,5.2,14,12.2,14,19.6s-5,14.4-14,19.6C449.9,243.7,437.8,246.4,425.7,246.4z M425.7,192.2
	c-11.9,0-23.8,2.6-32.9,7.9c-8.7,5-13.5,11.6-13.5,18.7s4.8,13.7,13.5,18.7c18.2,10.5,47.7,10.5,65.8,0c8.7-5,13.5-11.6,13.5-18.7
	s-4.8-13.7-13.5-18.7C449.5,194.8,437.6,192.2,425.7,192.2L425.7,192.2z"/>
<path id="_Path_31" class="st1" d="M431.6,191.6c0,1.3-1,2.3-2.3,2.3c-1.3,0-2.3-1-2.3-2.3c0-1.3,1-2.3,2.3-2.3
	C430.5,189.3,431.6,190.4,431.6,191.6z"/>
<g>
	<defs>
		<rect id="SVGID_1_" x="391" y="90.6" width="358" height="201"/>
	</defs>
	<clipPath id="SVGID_2_">
		<use xlink:href="#SVGID_1_"  style="display:none;overflow:visible;"/>
	</clipPath>
</g>
<g>
	
		<linearGradient id="SVGID_3_" gradientUnits="userSpaceOnUse" x1="406.068" y1="128.4346" x2="436.9387" y2="128.4346" gradientTransform="matrix(0.9384 0.5719 -4.193440e-02 1.0401 31.3146 -245.6322)">
		<stop  offset="0" style="stop-color:#844EFA"/>
		<stop  offset="0.2229" style="stop-color:#6641E7"/>
		<stop  offset="0.5626" style="stop-color:#3F30CF"/>
		<stop  offset="0.8336" style="stop-color:#2725C0"/>
		<stop  offset="1" style="stop-color:#1E21BA"/>
	</linearGradient>
	<path class="st32" d="M435.9,137.8c-0.4,8.9-7.1,12.1-15.1,7.2c-8-4.9-14.2-16-13.8-24.9s7.1-12.1,15.1-7.2
		C430.1,117.8,436.3,129,435.9,137.8z"/>
	<g>
		<g>
			<g>
				<path class="st0" d="M415.1,114.1l2.3,1.4l-0.3,7.9l8.9,5.4l0.3-7.9l2.3,1.4l-0.4,10.3l-2.3-1.4l0,0l-8.9-5.4l0,0l-2.3-1.4
					L415.1,114.1z"/>
			</g>
		</g>
		<g>
			<g>
				<path class="st0" d="M414.7,125.1l2.3,1.4l0,0l8.9,5.4l0,0l2.3,1.4l-0.4,10.3l-2.3-1.4l0.3-7.9l-8.9-5.4l-0.3,7.9l-2.3-1.4
					L414.7,125.1z"/>
			</g>
		</g>
	</g>
</g>
</svg>
