<svg width="1544" height="776" viewBox="0 0 1544 776" fill="none" xmlns="http://www.w3.org/2000/svg">
<path d="M1469.72 252.281C1458.65 241.216 1443.65 235 1428 235C1412.35 235 1397.35 241.216 1386.28 252.281C1375.45 263.109 1369.27 277.714 1369.01 293H1313C1313.27 262.861 1325.35 234.014 1346.68 212.683C1368.25 191.116 1397.5 179 1428 179C1458.5 179 1487.75 191.116 1509.32 212.683C1530.65 234.014 1542.73 262.861 1543 293H1486.99C1486.73 277.714 1480.55 263.109 1469.72 252.281Z" stroke="url(#paint0_linear)" stroke-width="2"/>
<circle cx="117.5" cy="248.5" r="1.5" fill="#2A263F"/>
<circle cx="117.5" cy="274.5" r="1.5" fill="#2A263F"/>
<circle cx="117.5" cy="300.5" r="1.5" fill="#2A263F"/>
<circle cx="117.5" cy="326.5" r="1.5" fill="#2A263F"/>
<circle cx="117.5" cy="352.5" r="1.5" fill="#2A263F"/>
<circle cx="117.5" cy="378.5" r="1.5" fill="#2A263F"/>
<circle cx="151.5" cy="248.5" r="1.5" fill="#2A263F"/>
<circle cx="151.5" cy="274.5" r="1.5" fill="#2A263F"/>
<circle cx="151.5" cy="300.5" r="1.5" fill="#2A263F"/>
<circle cx="151.5" cy="326.5" r="1.5" fill="#2A263F"/>
<circle cx="151.5" cy="352.5" r="1.5" fill="#2A263F"/>
<circle cx="151.5" cy="378.5" r="1.5" fill="#2A263F"/>
<circle cx="185.5" cy="248.5" r="1.5" fill="#2A263F"/>
<circle cx="185.5" cy="274.5" r="1.5" fill="#2A263F"/>
<circle cx="185.5" cy="300.5" r="1.5" fill="#2A263F"/>
<circle cx="185.5" cy="326.5" r="1.5" fill="#2A263F"/>
<circle cx="185.5" cy="352.5" r="1.5" fill="#2A263F"/>
<circle cx="185.5" cy="378.5" r="1.5" fill="#2A263F"/>
<circle cx="219.5" cy="248.5" r="1.5" fill="#2A263F"/>
<circle cx="219.5" cy="274.5" r="1.5" fill="#2A263F"/>
<circle cx="219.5" cy="300.5" r="1.5" fill="#2A263F"/>
<circle cx="219.5" cy="326.5" r="1.5" fill="#2A263F"/>
<circle cx="219.5" cy="352.5" r="1.5" fill="#2A263F"/>
<circle cx="219.5" cy="378.5" r="1.5" fill="#2A263F"/>
<circle cx="253.5" cy="248.5" r="1.5" fill="#2A263F"/>
<circle cx="253.5" cy="274.5" r="1.5" fill="#2A263F"/>
<circle cx="253.5" cy="300.5" r="1.5" fill="#2A263F"/>
<circle cx="253.5" cy="326.5" r="1.5" fill="#2A263F"/>
<circle cx="253.5" cy="352.5" r="1.5" fill="#2A263F"/>
<circle cx="253.5" cy="378.5" r="1.5" fill="#2A263F"/>
<circle cx="287.5" cy="248.5" r="1.5" fill="#2A263F"/>
<circle cx="287.5" cy="274.5" r="1.5" fill="#2A263F"/>
<circle cx="287.5" cy="300.5" r="1.5" fill="#2A263F"/>
<circle cx="287.5" cy="326.5" r="1.5" fill="#2A263F"/>
<circle cx="287.5" cy="352.5" r="1.5" fill="#2A263F"/>
<circle cx="287.5" cy="378.5" r="1.5" fill="#2A263F"/>
<circle cx="321.5" cy="248.5" r="1.5" fill="#2A263F"/>
<circle cx="321.5" cy="274.5" r="1.5" fill="#2A263F"/>
<circle cx="321.5" cy="300.5" r="1.5" fill="#2A263F"/>
<circle cx="321.5" cy="326.5" r="1.5" fill="#2A263F"/>
<circle cx="321.5" cy="352.5" r="1.5" fill="#2A263F"/>
<circle cx="321.5" cy="378.5" r="1.5" fill="#2A263F"/>
<circle cx="355.5" cy="248.5" r="1.5" fill="#2A263F"/>
<circle cx="355.5" cy="274.5" r="1.5" fill="#2A263F"/>
<circle cx="355.5" cy="300.5" r="1.5" fill="#2A263F"/>
<circle cx="355.5" cy="326.5" r="1.5" fill="#2A263F"/>
<circle cx="355.5" cy="352.5" r="1.5" fill="#2A263F"/>
<circle cx="355.5" cy="378.5" r="1.5" fill="#2A263F"/>
<circle cx="1051.5" cy="591.5" r="1.5" fill="#2A263F"/>
<circle cx="1051.5" cy="617.5" r="1.5" fill="#2A263F"/>
<circle cx="1051.5" cy="643.5" r="1.5" fill="#2A263F"/>
<circle cx="1051.5" cy="669.5" r="1.5" fill="#2A263F"/>
<circle cx="1051.5" cy="695.5" r="1.5" fill="#2A263F"/>
<circle cx="1051.5" cy="721.5" r="1.5" fill="#2A263F"/>
<circle cx="1085.5" cy="591.5" r="1.5" fill="#2A263F"/>
<circle cx="1085.5" cy="617.5" r="1.5" fill="#2A263F"/>
<circle cx="1085.5" cy="643.5" r="1.5" fill="#2A263F"/>
<circle cx="1085.5" cy="669.5" r="1.5" fill="#2A263F"/>
<circle cx="1085.5" cy="695.5" r="1.5" fill="#2A263F"/>
<circle cx="1085.5" cy="721.5" r="1.5" fill="#2A263F"/>
<circle cx="1119.5" cy="591.5" r="1.5" fill="#2A263F"/>
<circle cx="1119.5" cy="617.5" r="1.5" fill="#2A263F"/>
<circle cx="1119.5" cy="643.5" r="1.5" fill="#2A263F"/>
<circle cx="1119.5" cy="669.5" r="1.5" fill="#2A263F"/>
<circle cx="1119.5" cy="695.5" r="1.5" fill="#2A263F"/>
<circle cx="1119.5" cy="721.5" r="1.5" fill="#2A263F"/>
<circle cx="1153.5" cy="591.5" r="1.5" fill="#2A263F"/>
<circle cx="1153.5" cy="617.5" r="1.5" fill="#2A263F"/>
<circle cx="1153.5" cy="643.5" r="1.5" fill="#2A263F"/>
<circle cx="1153.5" cy="669.5" r="1.5" fill="#2A263F"/>
<circle cx="1153.5" cy="695.5" r="1.5" fill="#2A263F"/>
<circle cx="1153.5" cy="721.5" r="1.5" fill="#2A263F"/>
<circle cx="1187.5" cy="591.5" r="1.5" fill="#2A263F"/>
<circle cx="1187.5" cy="617.5" r="1.5" fill="#2A263F"/>
<circle cx="1187.5" cy="643.5" r="1.5" fill="#2A263F"/>
<circle cx="1187.5" cy="669.5" r="1.5" fill="#2A263F"/>
<circle cx="1187.5" cy="695.5" r="1.5" fill="#2A263F"/>
<circle cx="1187.5" cy="721.5" r="1.5" fill="#2A263F"/>
<circle cx="1221.5" cy="591.5" r="1.5" fill="#2A263F"/>
<circle cx="1221.5" cy="617.5" r="1.5" fill="#2A263F"/>
<circle cx="1221.5" cy="643.5" r="1.5" fill="#2A263F"/>
<circle cx="1221.5" cy="669.5" r="1.5" fill="#2A263F"/>
<circle cx="1221.5" cy="695.5" r="1.5" fill="#2A263F"/>
<circle cx="1221.5" cy="721.5" r="1.5" fill="#2A263F"/>
<circle cx="1255.5" cy="591.5" r="1.5" fill="#2A263F"/>
<circle cx="1255.5" cy="617.5" r="1.5" fill="#2A263F"/>
<circle cx="1255.5" cy="643.5" r="1.5" fill="#2A263F"/>
<circle cx="1255.5" cy="669.5" r="1.5" fill="#2A263F"/>
<circle cx="1255.5" cy="695.5" r="1.5" fill="#2A263F"/>
<circle cx="1255.5" cy="721.5" r="1.5" fill="#2A263F"/>
<circle cx="1289.5" cy="591.5" r="1.5" fill="#2A263F"/>
<circle cx="1289.5" cy="617.5" r="1.5" fill="#2A263F"/>
<circle cx="1289.5" cy="643.5" r="1.5" fill="#2A263F"/>
<circle cx="1289.5" cy="669.5" r="1.5" fill="#2A263F"/>
<circle cx="1289.5" cy="695.5" r="1.5" fill="#2A263F"/>
<circle cx="1289.5" cy="721.5" r="1.5" fill="#2A263F"/>
<defs>
<linearGradient id="paint0_linear" x1="1312" y1="294" x2="1444" y2="294" gradientUnits="userSpaceOnUse">
<stop stop-color="#5EC6E8"/>
<stop offset="1" stop-color="#5EC6E8" stop-opacity="0"/>
</linearGradient>
</defs>
</svg>
