<svg width="1280" height="388" viewBox="0 0 1280 388" fill="none" xmlns="http://www.w3.org/2000/svg">
<circle cx="49.5" cy="216.5" r="1.5" fill="#5EC6E8"/>
<circle cx="49.5" cy="242.5" r="1.5" fill="#5EC6E8"/>
<circle cx="49.5" cy="268.5" r="1.5" fill="#5EC6E8"/>
<circle cx="49.5" cy="294.5" r="1.5" fill="#5EC6E8"/>
<circle cx="49.5" cy="320.5" r="1.5" fill="#5EC6E8"/>
<circle cx="49.5" cy="346.5" r="1.5" fill="#5EC6E8"/>
<circle cx="83.5" cy="216.5" r="1.5" fill="#5EC6E8"/>
<circle cx="83.5" cy="242.5" r="1.5" fill="#5EC6E8"/>
<circle cx="83.5" cy="268.5" r="1.5" fill="#5EC6E8"/>
<circle cx="83.5" cy="294.5" r="1.5" fill="#5EC6E8"/>
<circle cx="83.5" cy="320.5" r="1.5" fill="#5EC6E8"/>
<circle cx="83.5" cy="346.5" r="1.5" fill="#5EC6E8"/>
<circle cx="117.5" cy="216.5" r="1.5" fill="#5EC6E8"/>
<circle cx="117.5" cy="242.5" r="1.5" fill="#5EC6E8"/>
<circle cx="117.5" cy="268.5" r="1.5" fill="#5EC6E8"/>
<circle cx="117.5" cy="294.5" r="1.5" fill="#5EC6E8"/>
<circle cx="117.5" cy="320.5" r="1.5" fill="#5EC6E8"/>
<circle cx="117.5" cy="346.5" r="1.5" fill="#5EC6E8"/>
<circle cx="151.5" cy="216.5" r="1.5" fill="#5EC6E8"/>
<circle cx="151.5" cy="242.5" r="1.5" fill="#5EC6E8"/>
<circle cx="151.5" cy="268.5" r="1.5" fill="#5EC6E8"/>
<circle cx="151.5" cy="294.5" r="1.5" fill="#5EC6E8"/>
<circle cx="151.5" cy="320.5" r="1.5" fill="#5EC6E8"/>
<circle cx="151.5" cy="346.5" r="1.5" fill="#5EC6E8"/>
<circle cx="185.5" cy="216.5" r="1.5" fill="#5EC6E8"/>
<circle cx="185.5" cy="242.5" r="1.5" fill="#5EC6E8"/>
<circle cx="185.5" cy="268.5" r="1.5" fill="#5EC6E8"/>
<circle cx="185.5" cy="294.5" r="1.5" fill="#5EC6E8"/>
<circle cx="185.5" cy="320.5" r="1.5" fill="#5EC6E8"/>
<circle cx="185.5" cy="346.5" r="1.5" fill="#5EC6E8"/>
<circle cx="219.5" cy="216.5" r="1.5" fill="#5EC6E8"/>
<circle cx="219.5" cy="242.5" r="1.5" fill="#5EC6E8"/>
<circle cx="219.5" cy="268.5" r="1.5" fill="#5EC6E8"/>
<circle cx="219.5" cy="294.5" r="1.5" fill="#5EC6E8"/>
<circle cx="219.5" cy="320.5" r="1.5" fill="#5EC6E8"/>
<circle cx="219.5" cy="346.5" r="1.5" fill="#5EC6E8"/>
<circle cx="253.5" cy="216.5" r="1.5" fill="#5EC6E8"/>
<circle cx="253.5" cy="242.5" r="1.5" fill="#5EC6E8"/>
<circle cx="253.5" cy="268.5" r="1.5" fill="#5EC6E8"/>
<circle cx="253.5" cy="294.5" r="1.5" fill="#5EC6E8"/>
<circle cx="253.5" cy="320.5" r="1.5" fill="#5EC6E8"/>
<circle cx="253.5" cy="346.5" r="1.5" fill="#5EC6E8"/>
<circle cx="287.5" cy="216.5" r="1.5" fill="#5EC6E8"/>
<circle cx="287.5" cy="242.5" r="1.5" fill="#5EC6E8"/>
<circle cx="287.5" cy="268.5" r="1.5" fill="#5EC6E8"/>
<circle cx="287.5" cy="294.5" r="1.5" fill="#5EC6E8"/>
<circle cx="287.5" cy="320.5" r="1.5" fill="#5EC6E8"/>
<circle cx="287.5" cy="346.5" r="1.5" fill="#5EC6E8"/>
<g opacity="0.48">
<path d="M1208 112L1208 171.337L1147.15 171.337L1208 112Z" fill="#ACE6F9"/>
<path d="M1154.64 226.325L1205 178.34L1205 226.325L1154.64 226.325Z" stroke="#ACE6F9" stroke-width="6"/>
<path d="M1208 229.326L1208 288.663L1147.15 288.663L1208 229.326Z" fill="#ACE6F9"/>
<path d="M1154.52 345L1205 295.778L1205 345L1154.52 345Z" stroke="#ACE6F9" stroke-width="6"/>
<path d="M1147.15 112L1147.15 171.337L1089 171.337L1147.15 112Z" fill="#ACE6F9"/>
<path d="M1147.15 171.337L1147.15 229.325L1089 229.325L1147.15 171.337Z" fill="#ACE6F9"/>
<path d="M1096.14 285.663L1144.15 236.673L1144.15 285.663L1096.14 285.663Z" stroke="#ACE6F9" stroke-width="6"/>
<path d="M1147.15 288.663L1147.15 348L1089 348L1147.15 288.663Z" fill="#ACE6F9"/>
</g>
</svg>
