<svg width="90" height="32" viewBox="0 0 90 32" fill="none" xmlns="http://www.w3.org/2000/svg">
<path d="M45.6262 8.61H56.5602V11.25H48.6182V15.782H55.5702V18.422H48.6182V25H45.6262V8.61ZM62.7916 25.264C61.5889 25.264 60.5182 24.9853 59.5796 24.428C58.6556 23.8707 57.9296 23.1153 57.4016 22.162C56.8882 21.2087 56.6316 20.1527 56.6316 18.994C56.6316 17.8207 56.8882 16.7647 57.4016 15.826C57.9296 14.8727 58.6409 14.1247 59.5356 13.582C60.4449 13.0393 61.4569 12.768 62.5716 12.768C63.7742 12.768 64.8156 13.032 65.6956 13.56C66.5756 14.0733 67.2429 14.7773 67.6976 15.672C68.1669 16.5667 68.4016 17.5493 68.4016 18.62C68.4016 19.1187 68.3502 19.522 68.2476 19.83H59.6236C59.7116 20.71 60.0489 21.414 60.6356 21.942C61.2222 22.47 61.9482 22.734 62.8136 22.734C63.4589 22.734 64.0089 22.602 64.4636 22.338C64.9329 22.0593 65.3069 21.678 65.5856 21.194L67.9176 22.338C67.5509 23.218 66.9056 23.9293 65.9816 24.472C65.0576 25 63.9942 25.264 62.7916 25.264ZM65.3216 17.63C65.2482 16.8967 64.9622 16.3027 64.4636 15.848C63.9649 15.3787 63.3342 15.144 62.5716 15.144C61.8382 15.144 61.2149 15.364 60.7016 15.804C60.1882 16.2293 59.8509 16.838 59.6896 17.63H65.3216ZM69.7063 8.346H72.5883V25H69.7063V8.346ZM74.3692 13.032H77.2512V25H74.3692V13.032ZM74.1492 9.732C74.1492 9.204 74.2959 8.79333 74.5892 8.5C74.8826 8.20667 75.2859 8.06 75.7992 8.06C76.3272 8.06 76.7379 8.20667 77.0312 8.5C77.3246 8.79333 77.4712 9.204 77.4712 9.732C77.4712 10.2453 77.3246 10.6487 77.0312 10.942C76.7526 11.2353 76.3419 11.382 75.7992 11.382C75.2859 11.382 74.8826 11.2353 74.5892 10.942C74.2959 10.6487 74.1492 10.2453 74.1492 9.732ZM82.1342 18.994L77.9322 13.032H81.3202L83.8502 16.75L86.3582 13.032H89.7242L85.5442 18.994L89.7022 25H86.3362L83.8502 21.282L81.3422 25H77.9542L82.1342 18.994Z" fill="#0C0E0E"/>
<g clip-path="url(#clip0)">
<path d="M17.9781 13.7693L26.9934 16.1849L10.9161 29.8218L14.0219 18.2307L5.00659 15.815L21.0839 2.17815L17.9781 13.7693Z" fill="#5138EE"/>
</g>
<defs>
<clipPath id="clip0">
<rect width="32" height="32" fill="white"/>
</clipPath>
</defs>
</svg>
