<svg width="20" height="22" viewBox="0 0 20 22" fill="none" xmlns="http://www.w3.org/2000/svg">
<path d="M20.0004 11.2281C20.0012 10.5465 19.9424 9.86614 19.8246 9.1944H10.2024V13.0466H15.7136C15.6008 13.6618 15.3621 14.2483 15.0119 14.7707C14.6617 15.2931 14.2071 15.7405 13.6758 16.0861V18.5866H16.9649C18.8908 16.846 20.0004 14.2718 20.0004 11.2281Z" fill="#4285F4"/>
<path d="M10.2024 21.0024C12.9559 21.0024 15.2743 20.1161 16.9649 18.588L13.6758 16.0875C12.7603 16.6959 11.5813 17.0432 10.2024 17.0432C7.54105 17.0432 5.28215 15.2845 4.4744 12.9146H1.08606V15.4915C1.93529 17.1481 3.2375 18.5407 4.8473 19.5138C6.4571 20.4869 8.31113 21.0023 10.2024 21.0024Z" fill="#34A853"/>
<path d="M4.47444 12.9146C4.0474 11.6727 4.0474 10.3279 4.47444 9.08604V6.50912H1.0861C0.371696 7.90268 -0.000366211 9.44069 -0.000366211 11.0003C-0.000366211 12.5599 0.371696 14.098 1.0861 15.4915L4.47444 12.9146Z" fill="#FBBC04"/>
<path d="M10.2024 4.95743C11.6575 4.93413 13.0635 5.47306 14.1165 6.45774L17.0287 3.60299C15.182 1.90275 12.7357 0.969287 10.2024 0.998291C8.31113 0.998376 6.4571 1.51375 4.8473 2.48688C3.2375 3.46 1.93529 4.85258 1.08606 6.50914L4.4744 9.08605C5.28215 6.71612 7.54105 4.95743 10.2024 4.95743Z" fill="#EA4335"/>
</svg>
