<svg width="620" height="575" viewBox="0 0 620 575" fill="none" xmlns="http://www.w3.org/2000/svg">
<path d="M620 135V575H180C180 458.305 226.357 346.389 308.873 263.873C391.389 181.357 503.305 135 620 135V135Z" fill="#F8F7FC"/>
<path d="M0 135L67.3829 135L67.3829 65.9659L0 135Z" fill="#F8F7FC"/>
<path d="M67.3828 135L133.234 135L133.234 65.9659L67.3828 135Z" fill="#F8F7FC"/>
<path d="M133.234 135L200.617 135L200.617 65.9659L133.234 135Z" fill="#F8F7FC"/>
<path d="M200.617 135L268 135L268 65.9659L200.617 135Z" fill="#F8F7FC"/>
<path d="M0 65.9659L67.3829 65.9659L67.3829 1.75565e-05L0 65.9659Z" fill="#F8F7FC"/>
<path d="M67.3828 65.9659L133.234 65.9659L133.234 1.76156e-05L67.3828 65.9659Z" fill="#F8F7FC"/>
<path d="M133.234 65.9659L200.617 65.9659L200.617 1.75565e-05L133.234 65.9659Z" fill="#F8F7FC"/>
<path d="M200.617 65.9659L268 65.9659L268 1.75565e-05L200.617 65.9659Z" fill="#F8F7FC"/>
<circle cx="14.5" cy="356.5" r="1.5" fill="#5138EE"/>
<circle cx="14.5" cy="382.5" r="1.5" fill="#5138EE"/>
<circle cx="14.5" cy="408.5" r="1.5" fill="#5138EE"/>
<circle cx="14.5" cy="434.5" r="1.5" fill="#5138EE"/>
<circle cx="14.5" cy="460.5" r="1.5" fill="#5138EE"/>
<circle cx="14.5" cy="486.5" r="1.5" fill="#5138EE"/>
<circle cx="48.5" cy="356.5" r="1.5" fill="#5138EE"/>
<circle cx="48.5" cy="382.5" r="1.5" fill="#5138EE"/>
<circle cx="48.5" cy="408.5" r="1.5" fill="#5138EE"/>
<circle cx="48.5" cy="434.5" r="1.5" fill="#5138EE"/>
<circle cx="48.5" cy="460.5" r="1.5" fill="#5138EE"/>
<circle cx="48.5" cy="486.5" r="1.5" fill="#5138EE"/>
<circle cx="82.5" cy="356.5" r="1.5" fill="#5138EE"/>
<circle cx="82.5" cy="382.5" r="1.5" fill="#5138EE"/>
<circle cx="82.5" cy="408.5" r="1.5" fill="#5138EE"/>
<circle cx="82.5" cy="434.5" r="1.5" fill="#5138EE"/>
<circle cx="82.5" cy="460.5" r="1.5" fill="#5138EE"/>
<circle cx="82.5" cy="486.5" r="1.5" fill="#5138EE"/>
<circle cx="116.5" cy="356.5" r="1.5" fill="#5138EE"/>
<circle cx="116.5" cy="382.5" r="1.5" fill="#5138EE"/>
<circle cx="116.5" cy="408.5" r="1.5" fill="#5138EE"/>
<circle cx="116.5" cy="434.5" r="1.5" fill="#5138EE"/>
<circle cx="116.5" cy="460.5" r="1.5" fill="#5138EE"/>
<circle cx="116.5" cy="486.5" r="1.5" fill="#5138EE"/>
<circle cx="150.5" cy="356.5" r="1.5" fill="#5138EE"/>
<circle cx="150.5" cy="382.5" r="1.5" fill="#5138EE"/>
<circle cx="150.5" cy="408.5" r="1.5" fill="#5138EE"/>
<circle cx="150.5" cy="434.5" r="1.5" fill="#5138EE"/>
<circle cx="150.5" cy="460.5" r="1.5" fill="#5138EE"/>
<circle cx="150.5" cy="486.5" r="1.5" fill="#5138EE"/>
<circle cx="184.5" cy="356.5" r="1.5" fill="#5138EE"/>
<circle cx="184.5" cy="382.5" r="1.5" fill="#5138EE"/>
<circle cx="184.5" cy="408.5" r="1.5" fill="#5138EE"/>
<circle cx="184.5" cy="434.5" r="1.5" fill="#5138EE"/>
<circle cx="184.5" cy="460.5" r="1.5" fill="#5138EE"/>
<circle cx="184.5" cy="486.5" r="1.5" fill="#5138EE"/>
<circle cx="218.5" cy="356.5" r="1.5" fill="#5138EE"/>
<circle cx="218.5" cy="382.5" r="1.5" fill="#5138EE"/>
<circle cx="218.5" cy="408.5" r="1.5" fill="#5138EE"/>
<circle cx="218.5" cy="434.5" r="1.5" fill="#5138EE"/>
<circle cx="218.5" cy="460.5" r="1.5" fill="#5138EE"/>
<circle cx="218.5" cy="486.5" r="1.5" fill="#5138EE"/>
<circle cx="252.5" cy="356.5" r="1.5" fill="#5138EE"/>
<circle cx="252.5" cy="382.5" r="1.5" fill="#5138EE"/>
<circle cx="252.5" cy="408.5" r="1.5" fill="#5138EE"/>
<circle cx="252.5" cy="434.5" r="1.5" fill="#5138EE"/>
<circle cx="252.5" cy="460.5" r="1.5" fill="#5138EE"/>
<circle cx="252.5" cy="486.5" r="1.5" fill="#5138EE"/>
</svg>
