<svg width="64" height="64" viewBox="0 0 64 64" fill="none" xmlns="http://www.w3.org/2000/svg">
<rect width="64" height="64" rx="32" fill="#F97664" fill-opacity="0.08"/>
<path d="M32 31C33.3261 31 34.5979 31.5268 35.5355 32.4645C36.4732 33.4021 37 34.6739 37 36V42H27V36C27 34.6739 27.5268 33.4021 28.4645 32.4645C29.4021 31.5268 30.6739 31 32 31ZM25.288 34.006C25.1289 34.5428 25.0348 35.0968 25.008 35.656L25 36V42H22V37.5C21.9998 36.6376 22.318 35.8054 22.8936 35.1632C23.4692 34.521 24.2617 34.1139 25.119 34.02L25.289 34.006H25.288ZM38.712 34.006C39.6019 34.0602 40.4376 34.452 41.0486 35.1012C41.6596 35.7505 41.9999 36.6084 42 37.5V42H39V36C39 35.307 38.9 34.638 38.712 34.006ZM25.5 28C26.163 28 26.7989 28.2634 27.2678 28.7322C27.7366 29.2011 28 29.837 28 30.5C28 31.163 27.7366 31.7989 27.2678 32.2678C26.7989 32.7366 26.163 33 25.5 33C24.837 33 24.2011 32.7366 23.7322 32.2678C23.2634 31.7989 23 31.163 23 30.5C23 29.837 23.2634 29.2011 23.7322 28.7322C24.2011 28.2634 24.837 28 25.5 28V28ZM38.5 28C39.163 28 39.7989 28.2634 40.2678 28.7322C40.7366 29.2011 41 29.837 41 30.5C41 31.163 40.7366 31.7989 40.2678 32.2678C39.7989 32.7366 39.163 33 38.5 33C37.837 33 37.2011 32.7366 36.7322 32.2678C36.2634 31.7989 36 31.163 36 30.5C36 29.837 36.2634 29.2011 36.7322 28.7322C37.2011 28.2634 37.837 28 38.5 28V28ZM32 22C33.0609 22 34.0783 22.4214 34.8284 23.1716C35.5786 23.9217 36 24.9391 36 26C36 27.0609 35.5786 28.0783 34.8284 28.8284C34.0783 29.5786 33.0609 30 32 30C30.9391 30 29.9217 29.5786 29.1716 28.8284C28.4214 28.0783 28 27.0609 28 26C28 24.9391 28.4214 23.9217 29.1716 23.1716C29.9217 22.4214 30.9391 22 32 22V22Z" fill="#F97664"/>
</svg>
