<svg width="64" height="64" viewBox="0 0 64 64" fill="none" xmlns="http://www.w3.org/2000/svg">
<rect width="64" height="64" rx="32" fill="#5EC6E8" fill-opacity="0.08"/>
<path d="M30.4778 31.632L25.9678 24.56L27.8988 24.042L34.8498 30.462L40.1118 29.052C40.4961 28.9491 40.9056 29.0031 41.2501 29.202C41.5946 29.401 41.8459 29.7287 41.9488 30.113C42.0517 30.4973 41.9978 30.9067 41.7988 31.2512C41.5998 31.5957 41.2721 31.8471 40.8878 31.95L25.9158 35.96L25.1398 33.062L25.3808 32.997L27.8478 35.442L25.2218 36.146C25.0065 36.2037 24.778 36.1879 24.5728 36.1009C24.3675 36.0139 24.1971 35.8608 24.0888 35.666L21.4658 30.94L22.9148 30.552L25.3808 32.997L30.4778 31.631V31.632ZM23.9998 39H39.9998V41H23.9998V39Z" fill="#5EC6E8"/>
</svg>
