<svg width="80" height="80" viewBox="0 0 80 80" fill="none" xmlns="http://www.w3.org/2000/svg">
<rect width="80" height="80" rx="40" fill="#5138EE" fill-opacity="0.06"/>
<path d="M44.2986 44.6775L41.348 50.8775C41.2921 50.9947 41.2086 51.0966 41.1046 51.1743C41.0006 51.252 40.8793 51.3033 40.751 51.3236C40.6228 51.344 40.4915 51.3328 40.3686 51.2911C40.2456 51.2493 40.1347 51.1783 40.0453 51.0841L35.3226 46.0988C35.1965 45.9657 35.0284 45.8801 34.8466 45.8561L28.0373 44.9655C27.9086 44.9485 27.7861 44.9005 27.6801 44.8256C27.5741 44.7507 27.4879 44.6512 27.429 44.5356C27.3701 44.42 27.3402 44.2917 27.3419 44.162C27.3435 44.0322 27.3767 43.9048 27.4386 43.7908L30.7213 37.7588C30.8086 37.5975 30.8377 37.4111 30.804 37.2308L29.5466 30.4801C29.5228 30.3523 29.5304 30.2207 29.5688 30.0965C29.6073 29.9723 29.6754 29.8594 29.7673 29.7675C29.8593 29.6756 29.9722 29.6074 30.0963 29.569C30.2205 29.5305 30.3522 29.5229 30.48 29.5468L37.2306 30.8041C37.4109 30.8379 37.5973 30.8087 37.7586 30.7215L43.7906 27.4388C43.9048 27.3769 44.0323 27.3437 44.1621 27.3421C44.292 27.3405 44.4202 27.3705 44.5359 27.4296C44.6515 27.4887 44.7511 27.575 44.8259 27.6811C44.9007 27.7873 44.9485 27.91 44.9653 28.0388L45.856 34.8468C45.8799 35.0286 45.9656 35.1966 46.0986 35.3228L51.084 40.0455C51.1782 40.1348 51.2492 40.2458 51.2909 40.3687C51.3326 40.4917 51.3438 40.6229 51.3235 40.7512C51.3031 40.8794 51.2519 41.0008 51.1741 41.1048C51.0964 41.2088 50.9945 41.2923 50.8773 41.3481L44.6773 44.2988C44.5113 44.3778 44.3776 44.5115 44.2986 44.6775ZM45.3613 47.2468L47.2466 45.3615L52.904 51.0175L51.0173 52.9041L45.3613 47.2468Z" fill="#5138EE"/>
</svg>
