<svg width="64" height="64" viewBox="0 0 64 64" fill="none" xmlns="http://www.w3.org/2000/svg">
<rect width="64" height="64" rx="32" fill="#6AD3A1" fill-opacity="0.06"/>
<path d="M27.9412 38C27.6442 36.727 26.3042 35.686 25.7542 35C24.8124 33.8233 24.2222 32.4044 24.0515 30.9069C23.8808 29.4094 24.1366 27.8942 24.7895 26.5357C25.4423 25.1773 26.4656 24.0308 27.7416 23.2286C29.0175 22.4263 30.4941 22.0007 32.0013 22.001C33.5085 22.0012 34.985 22.4272 36.2606 23.2299C37.5363 24.0326 38.5592 25.1794 39.2117 26.538C39.8641 27.8967 40.1194 29.412 39.9482 30.9095C39.7771 32.4069 39.1864 33.8256 38.2442 35.002C37.6942 35.687 36.3562 36.728 36.0592 38H27.9402H27.9412ZM36.0002 40V41C36.0002 41.5304 35.7895 42.0391 35.4144 42.4142C35.0393 42.7893 34.5306 43 34.0002 43H30.0002C29.4698 43 28.9611 42.7893 28.586 42.4142C28.2109 42.0391 28.0002 41.5304 28.0002 41V40H36.0002ZM33.0002 30.005V26L28.5002 32.005H31.0002V36.005L35.5002 30.005H33.0002V30.005Z" fill="#6AD3A1"/>
</svg>
