<svg width="64" height="64" viewBox="0 0 64 64" fill="none" xmlns="http://www.w3.org/2000/svg">
<rect width="64" height="64" rx="32" fill="#5138EE" fill-opacity="0.06"/>
<path d="M31.2456 35H24.7536L22.7536 40H20.5996L26.9996 24H28.9996L35.3996 40H33.2456L31.2456 35ZM30.4456 33L27.9996 26.885L25.5536 33H30.4456V33ZM40.9996 32.535V32H42.9996V40H40.9996V39.465C40.3915 39.8157 39.7018 40.0002 38.9998 40C38.2978 39.9998 37.6083 39.8148 37.0004 39.4637C36.3925 39.1125 35.8878 38.6076 35.5368 37.9996C35.1859 37.3916 35.0012 36.702 35.0012 36C35.0012 35.298 35.1859 34.6084 35.5368 34.0004C35.8878 33.3924 36.3925 32.8875 37.0004 32.5363C37.6083 32.1852 38.2978 32.0002 38.9998 32C39.7018 31.9998 40.3915 32.1843 40.9996 32.535V32.535ZM38.9996 38C39.53 38 40.0387 37.7893 40.4138 37.4142C40.7889 37.0391 40.9996 36.5304 40.9996 36C40.9996 35.4696 40.7889 34.9609 40.4138 34.5858C40.0387 34.2107 39.53 34 38.9996 34C38.4692 34 37.9605 34.2107 37.5854 34.5858C37.2103 34.9609 36.9996 35.4696 36.9996 36C36.9996 36.5304 37.2103 37.0391 37.5854 37.4142C37.9605 37.7893 38.4692 38 38.9996 38V38Z" fill="#5138EE"/>
</svg>
