<svg width="64" height="64" viewBox="0 0 64 64" fill="none" xmlns="http://www.w3.org/2000/svg">
<rect width="64" height="64" rx="32" fill="#5EC6E8" fill-opacity="0.08"/>
<path d="M24.929 39.071C23.999 38.1434 23.2615 37.0413 22.7589 35.8278C22.2562 34.6143 21.9983 33.3135 22 32C22 26.477 26.477 22 32 22C37.523 22 42 26.477 42 32C42 37.523 37.523 42 32 42H22L24.929 39.071ZM28 33C28 34.0609 28.4214 35.0783 29.1716 35.8284C29.9217 36.5786 30.9391 37 32 37C33.0609 37 34.0783 36.5786 34.8284 35.8284C35.5786 35.0783 36 34.0609 36 33H28Z" fill="#5EC6E8"/>
</svg>
