<svg width="64" height="64" viewBox="0 0 64 64" fill="none" xmlns="http://www.w3.org/2000/svg">
<rect width="64" height="64" rx="32" fill="#F9BD64" fill-opacity="0.08"/>
<path d="M21.044 19.7679L32 17.3333L42.956 19.7679C43.2521 19.8337 43.5169 19.9985 43.7067 20.2351C43.8965 20.4717 43.9999 20.7659 44 21.0693V34.3853C43.9999 35.7022 43.6747 36.9988 43.0532 38.1599C42.4317 39.321 41.5332 40.3108 40.4373 41.0413L32 46.6666L23.5627 41.0413C22.467 40.3109 21.5686 39.3214 20.9471 38.1605C20.3256 36.9997 20.0003 35.7033 20 34.3866V21.0693C20.0001 20.7659 20.1035 20.4717 20.2933 20.2351C20.4831 19.9985 20.7479 19.8337 21.044 19.7679ZM33.3333 29.3333V22.6666L26.6667 31.9999H30.6667V38.6666L37.3333 29.3333H33.3333Z" fill="#F9BD64"/>
</svg>
