<svg width="80" height="80" viewBox="0 0 80 80" fill="none" xmlns="http://www.w3.org/2000/svg">
<rect width="80" height="80" rx="40" fill="#5EC6E8" fill-opacity="0.08"/>
<path d="M30.5718 49.4281C29.3319 48.1913 28.3486 46.7218 27.6784 45.1038C27.0081 43.4858 26.6643 41.7514 26.6665 40.0001C26.6665 32.6361 32.6358 26.6667 39.9998 26.6667C47.3638 26.6667 53.3332 32.6361 53.3332 40.0001C53.3332 47.3641 47.3638 53.3334 39.9998 53.3334H26.6665L30.5718 49.4281ZM34.6665 41.3334C34.6665 42.7479 35.2284 44.1045 36.2286 45.1047C37.2288 46.1048 38.5854 46.6667 39.9998 46.6667C41.4143 46.6667 42.7709 46.1048 43.7711 45.1047C44.7713 44.1045 45.3332 42.7479 45.3332 41.3334H34.6665Z" fill="#5EC6E8"/>
</svg>
