<svg width="64" height="64" viewBox="0 0 64 64" fill="none" xmlns="http://www.w3.org/2000/svg">
<rect width="64" height="64" rx="32" fill="#F9BD64" fill-opacity="0.08"/>
<path d="M33 22.05C38.053 22.551 42 26.815 42 32V33H33V39C33 39.5304 33.2107 40.0391 33.5858 40.4142C33.9609 40.7893 34.4696 41 35 41C35.5304 41 36.0391 40.7893 36.4142 40.4142C36.7893 40.0391 37 39.5304 37 39V38H39V39C39 40.0609 38.5786 41.0783 37.8284 41.8284C37.0783 42.5786 36.0609 43 35 43C33.9391 43 32.9217 42.5786 32.1716 41.8284C31.4214 41.0783 31 40.0609 31 39V33H22V32C22 26.815 25.947 22.551 31 22.05V22C31 21.7348 31.1054 21.4804 31.2929 21.2929C31.4804 21.1054 31.7348 21 32 21C32.2652 21 32.5196 21.1054 32.7071 21.2929C32.8946 21.4804 33 21.7348 33 22V22.05Z" fill="#F9BD64"/>
</svg>
