<svg width="400" height="194" viewBox="0 0 400 194" fill="none" xmlns="http://www.w3.org/2000/svg">
<mask id="mask0" mask-type="alpha" maskUnits="userSpaceOnUse" x="0" y="0" width="400" height="194">
<rect width="400" height="194" fill="#141125"/>
</mask>
<g mask="url(#mask0)">
<path d="M244 56C244 33.9086 261.909 16 284 16H320C322.209 16 324 17.7909 324 20V56C324 78.0914 306.091 96 284 96V96C261.909 96 244 78.0914 244 56V56Z" fill="#2A263F"/>
<path d="M-13 143C-13 120.909 4.90861 103 27 103V103C49.0914 103 67 120.909 67 143V179C67 181.209 65.2091 183 63 183H27C4.90861 183 -13 165.091 -13 143V143Z" fill="#2A263F"/>
<rect x="336" y="119" width="72" height="72" rx="4" fill="#2A263F"/>
<rect x="152" y="111" width="80" height="80" rx="40" fill="#2A263F"/>
<rect x="82" y="2" width="80" height="80" rx="40" fill="#2A263F"/>
<g clip-path="url(#clip0)">
<path fill-rule="evenodd" clip-rule="evenodd" d="M187.466 133C185.586 133.001 184.065 134.568 184.067 136.499C184.065 138.43 185.588 139.997 187.467 139.999H190.868V136.501C190.869 134.57 189.347 133.003 187.466 133C187.467 133 187.467 133 187.466 133V133ZM187.466 142.333H178.401C176.521 142.335 174.999 143.902 175 145.833C174.997 147.764 176.52 149.33 178.399 149.333H187.466C189.345 149.332 190.868 147.765 190.866 145.834C190.868 143.902 189.345 142.335 187.466 142.333V142.333Z" fill="#36C5F0"/>
<path fill-rule="evenodd" clip-rule="evenodd" d="M209 145.833C209.002 143.902 207.479 142.335 205.6 142.333C203.72 142.335 202.198 143.902 202.199 145.833V149.333H205.6C207.479 149.332 209.002 147.765 209 145.833ZM199.934 145.833V136.499C199.935 134.57 198.414 133.003 196.534 133C194.655 133.001 193.132 134.568 193.134 136.499V145.833C193.131 147.764 194.653 149.33 196.533 149.333C198.412 149.332 199.935 147.765 199.934 145.833Z" fill="#2EB67D"/>
<path fill-rule="evenodd" clip-rule="evenodd" d="M196.532 168C198.412 167.999 199.934 166.432 199.933 164.501C199.934 162.57 198.412 161.003 196.532 161.002H193.132V164.501C193.13 166.43 194.653 167.997 196.532 168ZM196.532 158.665H205.599C207.479 158.664 209.001 157.097 209 155.166C209.003 153.235 207.48 151.668 205.601 151.665H196.534C194.654 151.667 193.132 153.234 193.133 155.165C193.132 157.097 194.653 158.664 196.532 158.665V158.665Z" fill="#ECB22E"/>
<path fill-rule="evenodd" clip-rule="evenodd" d="M175 155.166C174.999 157.097 176.521 158.664 178.401 158.665C180.28 158.664 181.803 157.097 181.801 155.166V151.667H178.401C176.521 151.668 174.999 153.235 175 155.166ZM184.067 155.166V164.499C184.064 166.43 185.586 167.997 187.466 168C189.345 167.998 190.868 166.432 190.866 164.501V155.169C190.869 153.238 189.347 151.671 187.467 151.668C185.586 151.668 184.065 153.235 184.067 155.166C184.067 155.167 184.067 155.166 184.067 155.166Z" fill="#E01E5A"/>
</g>
<path d="M127 42.0087C127.001 43.451 126.74 44.8816 126.232 46.2313C124.882 46.7397 123.451 47.0002 122.008 47.0005H121.991C120.506 46.9986 119.082 46.727 117.769 46.2319C117.26 44.882 117 43.4513 117 42.0087V41.9913C116.999 40.5492 117.259 39.119 117.767 37.7694C119.117 37.26 120.548 36.9994 121.991 37H122.008C123.451 36.9993 124.882 37.2599 126.232 37.7692C126.741 39.1187 127.001 40.549 127 41.9911V42.0086L127 42.0087ZM141.722 38.6667H130.048L138.302 30.4116C137.654 29.5014 136.932 28.647 136.142 27.857V27.8564C135.352 27.0673 134.497 26.3453 133.588 25.6977L125.333 33.9528V22.2784C124.235 22.0937 123.123 22.0006 122.01 22L121.989 22C120.857 22.0006 119.748 22.0969 118.667 22.2784V33.9528L110.412 25.6977C109.502 26.3451 108.648 27.0677 107.859 27.8578L107.855 27.8609C107.066 28.6499 106.344 29.503 105.697 30.4116L113.953 38.6667H102.278C102.278 38.6667 102 40.8594 102 41.9931V42.0069C102 43.1406 102.096 44.2517 102.278 45.3333H113.953L105.697 53.5884C106.996 55.4109 108.589 57.0043 110.412 58.303L118.667 50.0472V61.7222C119.763 61.906 120.873 61.9989 121.985 62H122.014C123.126 61.999 124.236 61.9061 125.333 61.7222V50.0472L133.588 58.303C134.498 57.6551 135.352 56.9329 136.142 56.1436L136.144 56.1417C136.933 55.3518 137.655 54.4977 138.302 53.5884L130.047 45.3333H141.722C141.904 44.2536 141.999 43.1458 142 42.0145V41.9855C141.999 40.8542 141.904 39.7464 141.722 38.6667V38.6667Z" fill="#FF4A00"/>
<g clip-path="url(#clip1)">
<path d="M288.844 49.7104H289.943L293.072 46.6857L293.226 45.4023C287.403 40.4349 278.513 40.9702 273.374 46.5982C271.945 48.1616 270.908 50.0211 270.344 52.0337C270.692 51.8951 271.079 51.8732 271.442 51.9695L277.7 50.9719C277.7 50.9719 278.018 50.463 278.183 50.495C280.967 47.5403 285.652 47.1961 288.867 49.7104H288.844Z" fill="#EA4335"/>
<path d="M297.528 52.0338C296.809 49.4743 295.333 47.1729 293.279 45.4126L288.888 49.6566C290.742 51.1208 291.799 53.3274 291.754 55.6419V56.3959C293.913 56.3959 295.662 58.0876 295.662 60.1732C295.662 62.2601 293.911 63.9504 291.754 63.9504H283.935L283.155 64.7146V69.2459L283.935 69.9999H291.754C296.235 70.0335 300.211 67.226 301.542 63.09C302.87 58.9525 301.241 54.4606 297.528 52.0338Z" fill="#4285F4"/>
<path d="M276.107 69.9577H283.925V63.9096H276.107C275.551 63.9096 275 63.7944 274.493 63.5698L273.394 63.898L270.243 66.9227L269.969 67.9844C271.736 69.2737 273.892 69.9664 276.107 69.9577Z" fill="#34A853"/>
<path d="M276.107 50.3362C271.765 50.361 267.918 53.0489 266.533 57.026C265.148 61.003 266.528 65.3929 269.97 67.9509L274.505 63.5684C272.537 62.7094 271.663 60.4722 272.552 58.5704C273.441 56.6686 275.756 55.8242 277.724 56.6832C278.59 57.0624 279.284 57.7333 279.676 58.5704L284.211 54.1879C282.281 51.7509 279.282 50.326 276.107 50.3362Z" fill="#FBBC05"/>
</g>
<path d="M27.9584 137.334C30.6509 137.334 32.8337 135.114 32.8337 132.375C32.8337 129.636 30.6509 127.416 27.9584 127.416C25.2658 127.416 23.083 129.636 23.083 132.375C23.083 135.114 25.2658 137.334 27.9584 137.334Z" fill="#7B83EB"/>
<path opacity="0.1" d="M27.6111 133.438H23.1953L23.2173 133.536L23.2193 133.545L23.2423 133.636C23.5632 134.874 24.3417 135.937 25.4152 136.605C26.4887 137.273 27.7744 137.493 29.0036 137.219V134.854C29.0025 134.479 28.8554 134.119 28.5945 133.854C28.3336 133.588 27.98 133.439 27.6111 133.438V133.438Z" fill="black"/>
<path opacity="0.2" d="M26.5665 134.5H23.5537C23.9491 135.348 24.573 136.064 25.3528 136.566C26.1326 137.067 27.0363 137.334 27.959 137.334V135.916C27.9579 135.541 27.8108 135.181 27.5499 134.916C27.289 134.651 26.9354 134.501 26.5665 134.5V134.5Z" fill="black"/>
<path d="M38.9278 137.688C40.9471 137.688 42.584 136.023 42.584 133.969C42.584 131.915 40.9471 130.25 38.9278 130.25C36.9085 130.25 35.2715 131.915 35.2715 133.969C35.2715 136.023 36.9085 137.688 38.9278 137.688Z" fill="#5059C9"/>
<path d="M42.0612 138.75H33.8492C33.6719 138.75 33.5018 138.822 33.3764 138.949C33.251 139.077 33.1806 139.25 33.1806 139.43V148.047C33.158 149.294 33.5573 150.511 34.3117 151.495C35.0661 152.478 36.1299 153.168 37.3247 153.449C38.0857 153.611 38.8728 153.599 39.6286 153.413C40.3843 153.227 41.0898 152.872 41.6936 152.373C42.2975 151.875 42.7844 151.246 43.1191 150.532C43.4537 149.818 43.6276 149.037 43.6281 148.247V140.344C43.6281 139.921 43.4631 139.516 43.1692 139.217C42.8753 138.918 42.4768 138.75 42.0612 138.75Z" fill="#5059C9"/>
<path d="M36.316 140.344V150.437C36.317 152.308 35.7109 154.127 34.5918 155.611C33.4727 157.095 31.9032 158.163 30.1267 158.647C28.3503 159.131 26.4664 159.006 24.7673 158.29C23.0682 157.574 21.6489 156.308 20.7298 154.687C20.5288 154.348 20.3541 153.992 20.2075 153.625C20.0707 153.278 19.9556 152.924 19.8627 152.562C19.6905 151.868 19.6028 151.154 19.6016 150.437V140.344C19.6013 140.134 19.6416 139.927 19.7203 139.734C19.7989 139.54 19.9143 139.364 20.0599 139.216C20.2055 139.068 20.3783 138.951 20.5686 138.871C20.7588 138.791 20.9627 138.75 21.1685 138.75H34.749C34.9548 138.75 35.1587 138.791 35.349 138.871C35.5392 138.951 35.7121 139.068 35.8576 139.216C36.0032 139.364 36.1186 139.54 36.1972 139.734C36.2759 139.927 36.3162 140.134 36.316 140.344V140.344Z" fill="#7B83EB"/>
<path opacity="0.2" d="M26.5665 134.5H23.5537C23.9491 135.348 24.573 136.064 25.3528 136.566C26.1326 137.067 27.0363 137.334 27.959 137.334V135.916C27.9579 135.541 27.8108 135.181 27.5499 134.916C27.289 134.651 26.9354 134.501 26.5665 134.5V134.5Z" fill="black"/>
<path opacity="0.1" d="M29.0034 138.75V152.212C29.0034 152.532 28.8956 152.843 28.6979 153.092C28.5003 153.342 28.2247 153.515 27.9169 153.583C27.8187 153.612 27.7165 153.627 27.614 153.625H20.2075C20.0707 153.279 19.9556 152.924 19.8627 152.563C19.6905 151.868 19.6028 151.154 19.6016 150.438V140.344C19.6013 140.134 19.6416 139.927 19.7203 139.734C19.7989 139.54 19.9143 139.364 20.0599 139.216C20.2055 139.068 20.3783 138.951 20.5686 138.871C20.7588 138.791 20.9627 138.75 21.1685 138.75H29.0034Z" fill="black"/>
<path opacity="0.2" d="M27.9587 138.75V153.274C27.9602 153.379 27.9461 153.482 27.9169 153.582C27.8501 153.895 27.68 154.176 27.4348 154.377C27.1897 154.578 26.8842 154.687 26.5693 154.687H20.7298C20.5288 154.348 20.3541 153.992 20.2075 153.625C20.0707 153.278 19.9556 152.924 19.8627 152.562C19.6905 151.868 19.6028 151.154 19.6016 150.437V140.344C19.6013 140.134 19.6416 139.927 19.7203 139.734C19.7989 139.54 19.9143 139.364 20.0599 139.216C20.2055 139.068 20.3783 138.951 20.5686 138.871C20.7588 138.791 20.9627 138.75 21.1685 138.75H27.9587Z" fill="black"/>
<path opacity="0.2" d="M27.9587 138.75V151.149C27.9571 151.524 27.8102 151.882 27.5499 152.147C27.2897 152.411 26.9373 152.561 26.5693 152.563H19.8627C19.6905 151.868 19.6028 151.154 19.6016 150.438V140.344C19.6013 140.134 19.6416 139.927 19.7203 139.734C19.7989 139.54 19.9143 139.364 20.0599 139.216C20.2055 139.068 20.3783 138.951 20.5686 138.871C20.7588 138.791 20.9627 138.75 21.1685 138.75H27.9587Z" fill="black"/>
<path opacity="0.2" d="M21.1685 138.75C20.9627 138.75 20.7588 138.791 20.5686 138.871C20.3783 138.951 20.2055 139.068 20.0599 139.216C19.9143 139.364 19.7989 139.54 19.7203 139.734C19.6416 139.927 19.6013 140.134 19.6016 140.344V150.438C19.6028 151.154 19.6905 151.868 19.8627 152.563H25.5247C25.8927 152.561 26.2451 152.411 26.5054 152.147C26.7656 151.882 26.9125 151.524 26.9141 151.149V138.75H21.1685Z" fill="black"/>
<path d="M11.5927 134.5H25.5221C25.8914 134.5 26.2456 134.649 26.5067 134.915C26.7679 135.18 26.9146 135.541 26.9146 135.916V150.084C26.9146 150.459 26.7679 150.82 26.5067 151.085C26.2456 151.351 25.8914 151.5 25.5221 151.5H11.5927C11.2234 151.5 10.8692 151.351 10.6081 151.085C10.3469 150.82 10.2002 150.459 10.2002 150.084V135.916C10.2002 135.541 10.3469 135.18 10.6081 134.915C10.8692 134.649 11.2234 134.5 11.5927 134.5V134.5Z" fill="#4B53BC"/>
<path d="M22.7149 139.786H19.5913V148.307H17.5417V139.786H14.3994V137.693H22.7149V139.786Z" fill="white"/>
<g clip-path="url(#clip2)">
<path d="M368.646 144.056C369.936 142.712 371.732 141.878 373.718 141.878C376.358 141.878 378.662 143.351 379.889 145.536C380.955 145.06 382.135 144.795 383.377 144.795C388.139 144.795 392 148.69 392 153.494C392 158.298 388.139 162.193 383.377 162.193C382.806 162.193 382.237 162.136 381.678 162.023C380.598 163.951 378.539 165.253 376.176 165.253C375.187 165.253 374.251 165.024 373.418 164.618C372.323 167.194 369.772 169 366.798 169C363.701 169 361.062 167.041 360.048 164.292C359.606 164.386 359.147 164.435 358.676 164.435C354.989 164.435 352 161.416 352 157.69C352 155.193 353.343 153.013 355.338 151.846C354.928 150.901 354.699 149.858 354.699 148.761C354.699 144.476 358.178 141.002 362.468 141.002C364.987 141.002 367.226 142.2 368.646 144.056Z" fill="#00A1E0"/>
<path d="M357.794 155.52C357.769 155.586 357.803 155.599 357.811 155.611C357.886 155.665 357.963 155.705 358.04 155.749C358.448 155.965 358.833 156.028 359.236 156.028C360.056 156.028 360.566 155.592 360.566 154.889V154.876C360.566 154.226 359.991 153.99 359.451 153.82L359.381 153.797C358.974 153.665 358.623 153.551 358.623 153.283V153.269C358.623 153.04 358.828 152.871 359.146 152.871C359.5 152.871 359.919 152.989 360.189 153.138C360.189 153.138 360.268 153.189 360.297 153.112C360.313 153.071 360.45 152.703 360.464 152.663C360.48 152.62 360.452 152.588 360.424 152.571C360.116 152.383 359.69 152.255 359.249 152.255L359.167 152.256C358.416 152.256 357.892 152.709 357.892 153.359V153.373C357.892 154.059 358.47 154.281 359.012 154.436L359.099 154.463C359.494 154.584 359.834 154.688 359.834 154.966V154.98C359.834 155.234 359.613 155.423 359.256 155.423C359.118 155.423 358.676 155.42 358.199 155.119C358.142 155.085 358.108 155.061 358.064 155.034C358.04 155.019 357.982 154.994 357.956 155.071L357.794 155.52V155.52ZM369.806 155.52C369.781 155.586 369.815 155.599 369.823 155.611C369.898 155.665 369.975 155.705 370.052 155.749C370.46 155.965 370.845 156.028 371.248 156.028C372.068 156.028 372.578 155.592 372.578 154.889V154.876C372.578 154.226 372.003 153.99 371.463 153.82L371.393 153.797C370.986 153.665 370.635 153.551 370.635 153.283V153.269C370.635 153.04 370.84 152.871 371.158 152.871C371.511 152.871 371.931 152.989 372.201 153.138C372.201 153.138 372.28 153.189 372.309 153.112C372.325 153.071 372.462 152.703 372.476 152.663C372.492 152.62 372.464 152.588 372.436 152.571C372.128 152.383 371.702 152.255 371.261 152.255L371.179 152.256C370.428 152.256 369.904 152.709 369.904 153.359V153.373C369.904 154.059 370.482 154.281 371.024 154.436L371.111 154.463C371.506 154.584 371.847 154.688 371.847 154.966V154.98C371.847 155.234 371.625 155.423 371.268 155.423C371.13 155.423 370.688 155.42 370.211 155.119C370.154 155.085 370.12 155.062 370.076 155.034C370.061 155.024 369.992 154.998 369.968 155.071L369.806 155.52V155.52ZM378.006 154.144C378.006 154.541 377.932 154.854 377.786 155.075C377.642 155.294 377.424 155.4 377.12 155.4C376.815 155.4 376.598 155.294 376.456 155.075C376.312 154.854 376.239 154.541 376.239 154.144C376.239 153.747 376.312 153.435 376.456 153.216C376.598 153 376.815 152.894 377.12 152.894C377.424 152.894 377.642 153 377.787 153.216C377.932 153.435 378.006 153.747 378.006 154.144V154.144ZM378.691 153.408C378.624 153.18 378.519 152.98 378.38 152.813C378.24 152.645 378.063 152.511 377.854 152.413C377.644 152.315 377.397 152.266 377.12 152.266C376.842 152.266 376.594 152.315 376.385 152.413C376.176 152.511 375.999 152.645 375.859 152.813C375.72 152.98 375.615 153.181 375.547 153.408C375.48 153.634 375.447 153.881 375.447 154.144C375.447 154.407 375.48 154.654 375.547 154.88C375.615 155.107 375.719 155.308 375.859 155.475C375.999 155.643 376.176 155.776 376.385 155.872C376.595 155.967 376.842 156.015 377.12 156.015C377.397 156.015 377.644 155.967 377.854 155.872C378.063 155.776 378.24 155.642 378.38 155.475C378.519 155.308 378.624 155.107 378.691 154.88C378.759 154.654 378.792 154.406 378.792 154.144C378.792 153.882 378.758 153.634 378.691 153.408V153.408ZM384.316 155.294C384.293 155.228 384.228 155.253 384.228 155.253C384.129 155.291 384.023 155.326 383.91 155.344C383.795 155.361 383.669 155.371 383.534 155.371C383.203 155.371 382.939 155.272 382.751 155.077C382.562 154.882 382.456 154.567 382.457 154.141C382.458 153.753 382.551 153.461 382.72 153.239C382.886 153.018 383.141 152.905 383.48 152.905C383.762 152.905 383.978 152.937 384.203 153.008C384.203 153.008 384.257 153.032 384.283 152.961C384.343 152.795 384.387 152.675 384.451 152.493C384.469 152.441 384.425 152.418 384.409 152.412C384.32 152.377 384.11 152.321 383.952 152.297C383.804 152.274 383.631 152.262 383.438 152.262C383.15 152.262 382.894 152.311 382.674 152.409C382.456 152.507 382.27 152.641 382.123 152.809C381.976 152.976 381.864 153.177 381.79 153.404C381.716 153.63 381.678 153.878 381.678 154.141C381.678 154.709 381.831 155.168 382.134 155.505C382.437 155.842 382.892 156.013 383.486 156.013C383.837 156.013 384.197 155.942 384.456 155.84C384.456 155.84 384.505 155.816 384.484 155.759L384.316 155.294V155.294ZM385.514 153.763C385.546 153.543 385.607 153.359 385.701 153.216C385.843 152.999 386.06 152.88 386.364 152.88C386.668 152.88 386.869 153 387.014 153.216C387.109 153.359 387.151 153.551 387.167 153.763H385.514ZM387.82 153.279C387.762 153.059 387.618 152.838 387.523 152.736C387.374 152.575 387.228 152.463 387.083 152.4C386.894 152.32 386.667 152.266 386.419 152.266C386.129 152.266 385.867 152.314 385.653 152.415C385.44 152.515 385.26 152.652 385.12 152.822C384.979 152.992 384.873 153.194 384.806 153.424C384.738 153.652 384.704 153.901 384.704 154.164C384.704 154.431 384.739 154.68 384.809 154.904C384.88 155.13 384.993 155.329 385.145 155.493C385.297 155.659 385.493 155.789 385.728 155.88C385.961 155.97 386.244 156.016 386.57 156.016C387.239 156.014 387.592 155.864 387.737 155.784C387.763 155.77 387.787 155.745 387.757 155.673L387.605 155.248C387.582 155.185 387.518 155.208 387.518 155.208C387.352 155.27 387.116 155.381 386.566 155.379C386.207 155.379 385.94 155.273 385.773 155.107C385.602 154.937 385.518 154.688 385.503 154.335L387.822 154.338C387.822 154.338 387.882 154.337 387.889 154.277C387.891 154.252 387.969 153.801 387.82 153.279V153.279ZM366.946 153.763C366.979 153.543 367.039 153.359 367.133 153.216C367.275 152.999 367.492 152.88 367.796 152.88C368.1 152.88 368.302 153 368.446 153.216C368.541 153.359 368.583 153.551 368.599 153.763H366.946V153.763ZM369.251 153.279C369.193 153.059 369.05 152.838 368.955 152.736C368.806 152.575 368.66 152.463 368.515 152.4C368.326 152.32 368.099 152.266 367.851 152.266C367.562 152.266 367.299 152.314 367.086 152.415C366.872 152.515 366.692 152.652 366.552 152.822C366.411 152.992 366.305 153.194 366.238 153.424C366.171 153.652 366.136 153.901 366.136 154.164C366.136 154.431 366.171 154.68 366.241 154.904C366.312 155.13 366.425 155.329 366.577 155.493C366.73 155.659 366.925 155.789 367.16 155.88C367.393 155.97 367.676 156.016 368.002 156.016C368.671 156.014 369.024 155.864 369.169 155.784C369.195 155.77 369.22 155.745 369.189 155.673L369.038 155.248C369.014 155.185 368.95 155.208 368.95 155.208C368.784 155.27 368.549 155.381 367.998 155.379C367.639 155.379 367.372 155.273 367.205 155.107C367.034 154.937 366.95 154.688 366.935 154.335L369.254 154.338C369.254 154.338 369.315 154.337 369.321 154.277C369.323 154.252 369.401 153.801 369.251 153.279V153.279ZM361.935 155.282C361.844 155.209 361.831 155.191 361.801 155.144C361.755 155.073 361.732 154.972 361.732 154.843C361.732 154.639 361.799 154.492 361.939 154.394C361.937 154.394 362.138 154.22 362.611 154.226C362.943 154.231 363.24 154.28 363.24 154.28V155.334H363.24C363.24 155.334 362.946 155.397 362.614 155.417C362.142 155.446 361.933 155.281 361.935 155.282V155.282ZM362.857 153.653C362.763 153.646 362.641 153.642 362.495 153.642C362.296 153.642 362.104 153.667 361.924 153.715C361.743 153.764 361.58 153.839 361.44 153.94C361.3 154.04 361.185 154.17 361.104 154.322C361.022 154.475 360.98 154.655 360.98 154.856C360.98 155.062 361.015 155.24 361.086 155.386C361.157 155.532 361.259 155.654 361.389 155.748C361.517 155.842 361.676 155.911 361.861 155.953C362.043 155.994 362.249 156.015 362.475 156.015C362.712 156.015 362.949 155.996 363.179 155.957C363.406 155.918 363.685 155.862 363.763 155.844C363.817 155.831 363.871 155.817 363.925 155.802C363.983 155.788 363.978 155.727 363.978 155.727L363.977 153.606C363.977 153.141 363.853 152.797 363.609 152.583C363.365 152.37 363.007 152.262 362.544 152.262C362.37 152.262 362.09 152.286 361.923 152.32C361.923 152.32 361.416 152.418 361.207 152.581C361.207 152.581 361.162 152.609 361.187 152.673L361.351 153.114C361.372 153.171 361.427 153.152 361.427 153.152C361.427 153.152 361.444 153.145 361.465 153.133C361.911 152.89 362.475 152.898 362.475 152.898C362.726 152.898 362.919 152.948 363.048 153.047C363.175 153.144 363.239 153.291 363.239 153.599V153.697C363.04 153.669 362.857 153.653 362.857 153.653V153.653ZM381.557 152.458C381.574 152.405 381.537 152.38 381.522 152.375C381.483 152.359 381.286 152.318 381.133 152.308C380.842 152.29 380.68 152.339 380.536 152.404C380.392 152.469 380.233 152.574 380.144 152.693V152.411C380.144 152.372 380.116 152.34 380.077 152.34H379.483C379.444 152.34 379.416 152.372 379.416 152.411V155.869C379.416 155.908 379.448 155.94 379.487 155.94H380.096C380.114 155.94 380.132 155.932 380.145 155.919C380.159 155.906 380.166 155.888 380.166 155.869V154.142C380.166 153.91 380.192 153.678 380.243 153.533C380.293 153.39 380.361 153.274 380.446 153.192C380.531 153.11 380.627 153.052 380.732 153.02C380.84 152.987 380.959 152.976 381.043 152.976C381.165 152.976 381.298 153.007 381.298 153.007C381.343 153.012 381.368 152.985 381.382 152.944C381.422 152.839 381.535 152.521 381.557 152.458" fill="white"/>
<path d="M375.839 150.855C375.765 150.832 375.697 150.817 375.61 150.801C375.521 150.785 375.415 150.777 375.294 150.777C374.875 150.777 374.545 150.895 374.313 151.129C374.082 151.361 373.925 151.715 373.847 152.181L373.818 152.337H373.292C373.292 152.337 373.228 152.335 373.214 152.405L373.128 152.887C373.122 152.933 373.142 152.962 373.203 152.962H373.715L373.196 155.863C373.155 156.097 373.109 156.289 373.057 156.435C373.006 156.578 372.956 156.686 372.895 156.765C372.836 156.84 372.78 156.896 372.683 156.928C372.603 156.955 372.511 156.968 372.41 156.968C372.354 156.968 372.28 156.958 372.224 156.947C372.17 156.936 372.141 156.924 372.099 156.906C372.099 156.906 372.039 156.884 372.015 156.944C371.996 156.993 371.86 157.369 371.843 157.415C371.827 157.461 371.85 157.497 371.879 157.508C371.947 157.532 371.998 157.548 372.091 157.57C372.22 157.6 372.328 157.602 372.43 157.602C372.644 157.602 372.838 157.571 373 157.513C373.162 157.455 373.303 157.353 373.428 157.215C373.563 157.065 373.648 156.909 373.729 156.696C373.809 156.485 373.878 156.223 373.933 155.917L374.456 152.962H375.219C375.219 152.962 375.283 152.964 375.297 152.894L375.383 152.412C375.389 152.366 375.37 152.337 375.307 152.337H374.566C374.57 152.321 374.604 152.06 374.689 151.814C374.725 151.71 374.793 151.625 374.851 151.567C374.908 151.51 374.974 151.47 375.045 151.446C375.119 151.422 375.203 151.411 375.294 151.411C375.364 151.411 375.433 151.419 375.485 151.43C375.556 151.445 375.584 151.453 375.603 151.459C375.679 151.482 375.689 151.459 375.704 151.423L375.881 150.936C375.9 150.884 375.855 150.861 375.839 150.855V150.855ZM365.481 155.87C365.481 155.908 365.453 155.94 365.414 155.94H364.8C364.761 155.94 364.733 155.908 364.733 155.87V150.921C364.733 150.883 364.761 150.851 364.8 150.851H365.414C365.453 150.851 365.481 150.883 365.481 150.921V155.87Z" fill="white"/>
</g>
</g>
<defs>
<clipPath id="clip0">
<rect width="34" height="35" fill="white" transform="translate(175 133)"/>
</clipPath>
<clipPath id="clip1">
<rect width="36" height="28" fill="white" transform="translate(266 42)"/>
</clipPath>
<clipPath id="clip2">
<rect width="40" height="28" fill="white" transform="translate(352 141)"/>
</clipPath>
</defs>
</svg>
