<svg width="1060" height="1694" viewBox="0 0 1060 1694" fill="none" xmlns="http://www.w3.org/2000/svg">
<path d="M282.248 1266.47C262.557 1246.67 235.849 1235.55 208 1235.55C180.151 1235.55 153.443 1246.67 133.752 1266.47C114.296 1286.03 103.265 1312.47 103.005 1340.1L1.00237 1340.1C1.26412 1285.27 23.0447 1232.74 61.6308 1193.95C100.451 1154.92 153.102 1133 208 1133C262.898 1133 315.549 1154.92 354.369 1193.95C392.955 1232.74 414.736 1285.27 414.998 1340.1L312.995 1340.1C312.735 1312.47 301.704 1286.03 282.248 1266.47Z" stroke="url(#paint0_linear)" stroke-width="2"/>
<path d="M1059 777.447C987.224 777.182 918.443 748.404 867.669 697.36C816.893 646.314 788.264 577.164 788.002 505L1059 505L1059 777.447Z" stroke="url(#paint1_linear)" stroke-width="2"/>
<g opacity="0.48">
<path d="M990 1388L990 1447.34L929.148 1447.34L990 1388Z" fill="#ACE6F9"/>
<path d="M936.645 1502.33L987 1454.34L987 1502.33L936.645 1502.33Z" stroke="#ACE6F9" stroke-width="6"/>
<path d="M990 1505.33L990 1564.66L929.148 1564.66L990 1505.33Z" fill="#ACE6F9"/>
<path d="M936.521 1621L987 1571.78L987 1621L936.521 1621Z" stroke="#ACE6F9" stroke-width="6"/>
<path d="M929.148 1388L929.148 1447.34L871 1447.34L929.148 1388Z" fill="#ACE6F9"/>
<path d="M929.148 1447.34L929.148 1505.33L871 1505.33L929.148 1447.34Z" fill="#ACE6F9"/>
<path d="M878.14 1561.66L926.148 1512.67L926.148 1561.66L878.14 1561.66Z" stroke="#ACE6F9" stroke-width="6"/>
<path d="M929.148 1564.66L929.148 1624L871 1624L929.148 1564.66Z" fill="#ACE6F9"/>
</g>
<circle cx="51.5" cy="865.5" r="1.5" fill="#ACE6F9"/>
<circle cx="51.5" cy="891.5" r="1.5" fill="#ACE6F9"/>
<circle cx="51.5" cy="917.5" r="1.5" fill="#ACE6F9"/>
<circle cx="51.5" cy="943.5" r="1.5" fill="#ACE6F9"/>
<circle cx="51.5" cy="969.5" r="1.5" fill="#ACE6F9"/>
<circle cx="51.5" cy="995.5" r="1.5" fill="#ACE6F9"/>
<circle cx="85.5" cy="865.5" r="1.5" fill="#ACE6F9"/>
<circle cx="85.5" cy="891.5" r="1.5" fill="#ACE6F9"/>
<circle cx="85.5" cy="917.5" r="1.5" fill="#ACE6F9"/>
<circle cx="85.5" cy="943.5" r="1.5" fill="#ACE6F9"/>
<circle cx="85.5" cy="969.5" r="1.5" fill="#ACE6F9"/>
<circle cx="85.5" cy="995.5" r="1.5" fill="#ACE6F9"/>
<circle cx="119.5" cy="865.5" r="1.5" fill="#ACE6F9"/>
<circle cx="119.5" cy="891.5" r="1.5" fill="#ACE6F9"/>
<circle cx="119.5" cy="917.5" r="1.5" fill="#ACE6F9"/>
<circle cx="119.5" cy="943.5" r="1.5" fill="#ACE6F9"/>
<circle cx="119.5" cy="969.5" r="1.5" fill="#ACE6F9"/>
<circle cx="119.5" cy="995.5" r="1.5" fill="#ACE6F9"/>
<circle cx="153.5" cy="865.5" r="1.5" fill="#ACE6F9"/>
<circle cx="153.5" cy="891.5" r="1.5" fill="#ACE6F9"/>
<circle cx="153.5" cy="917.5" r="1.5" fill="#ACE6F9"/>
<circle cx="153.5" cy="943.5" r="1.5" fill="#ACE6F9"/>
<circle cx="153.5" cy="969.5" r="1.5" fill="#ACE6F9"/>
<circle cx="153.5" cy="995.5" r="1.5" fill="#ACE6F9"/>
<circle cx="187.5" cy="865.5" r="1.5" fill="#ACE6F9"/>
<circle cx="187.5" cy="891.5" r="1.5" fill="#ACE6F9"/>
<circle cx="187.5" cy="917.5" r="1.5" fill="#ACE6F9"/>
<circle cx="187.5" cy="943.5" r="1.5" fill="#ACE6F9"/>
<circle cx="187.5" cy="969.5" r="1.5" fill="#ACE6F9"/>
<circle cx="187.5" cy="995.5" r="1.5" fill="#ACE6F9"/>
<circle cx="221.5" cy="865.5" r="1.5" fill="#ACE6F9"/>
<circle cx="221.5" cy="891.5" r="1.5" fill="#ACE6F9"/>
<circle cx="221.5" cy="917.5" r="1.5" fill="#ACE6F9"/>
<circle cx="221.5" cy="943.5" r="1.5" fill="#ACE6F9"/>
<circle cx="221.5" cy="969.5" r="1.5" fill="#ACE6F9"/>
<circle cx="221.5" cy="995.5" r="1.5" fill="#ACE6F9"/>
<circle cx="255.5" cy="865.5" r="1.5" fill="#ACE6F9"/>
<circle cx="255.5" cy="891.5" r="1.5" fill="#ACE6F9"/>
<circle cx="255.5" cy="917.5" r="1.5" fill="#ACE6F9"/>
<circle cx="255.5" cy="943.5" r="1.5" fill="#ACE6F9"/>
<circle cx="255.5" cy="969.5" r="1.5" fill="#ACE6F9"/>
<circle cx="255.5" cy="995.5" r="1.5" fill="#ACE6F9"/>
<circle cx="289.5" cy="865.5" r="1.5" fill="#ACE6F9"/>
<circle cx="289.5" cy="891.5" r="1.5" fill="#ACE6F9"/>
<circle cx="289.5" cy="917.5" r="1.5" fill="#ACE6F9"/>
<circle cx="289.5" cy="943.5" r="1.5" fill="#ACE6F9"/>
<circle cx="289.5" cy="969.5" r="1.5" fill="#ACE6F9"/>
<circle cx="289.5" cy="995.5" r="1.5" fill="#ACE6F9"/>
<circle cx="771.5" cy="205.5" r="1.5" fill="#ACE6F9"/>
<circle cx="771.5" cy="231.5" r="1.5" fill="#ACE6F9"/>
<circle cx="771.5" cy="257.5" r="1.5" fill="#ACE6F9"/>
<circle cx="771.5" cy="283.5" r="1.5" fill="#ACE6F9"/>
<circle cx="771.5" cy="309.5" r="1.5" fill="#ACE6F9"/>
<circle cx="771.5" cy="335.5" r="1.5" fill="#ACE6F9"/>
<circle cx="805.5" cy="205.5" r="1.5" fill="#ACE6F9"/>
<circle cx="805.5" cy="231.5" r="1.5" fill="#ACE6F9"/>
<circle cx="805.5" cy="257.5" r="1.5" fill="#ACE6F9"/>
<circle cx="805.5" cy="283.5" r="1.5" fill="#ACE6F9"/>
<circle cx="805.5" cy="309.5" r="1.5" fill="#ACE6F9"/>
<circle cx="805.5" cy="335.5" r="1.5" fill="#ACE6F9"/>
<circle cx="839.5" cy="205.5" r="1.5" fill="#ACE6F9"/>
<circle cx="839.5" cy="231.5" r="1.5" fill="#ACE6F9"/>
<circle cx="839.5" cy="257.5" r="1.5" fill="#ACE6F9"/>
<circle cx="839.5" cy="283.5" r="1.5" fill="#ACE6F9"/>
<circle cx="839.5" cy="309.5" r="1.5" fill="#ACE6F9"/>
<circle cx="839.5" cy="335.5" r="1.5" fill="#ACE6F9"/>
<circle cx="873.5" cy="205.5" r="1.5" fill="#ACE6F9"/>
<circle cx="873.5" cy="231.5" r="1.5" fill="#ACE6F9"/>
<circle cx="873.5" cy="257.5" r="1.5" fill="#ACE6F9"/>
<circle cx="873.5" cy="283.5" r="1.5" fill="#ACE6F9"/>
<circle cx="873.5" cy="309.5" r="1.5" fill="#ACE6F9"/>
<circle cx="873.5" cy="335.5" r="1.5" fill="#ACE6F9"/>
<circle cx="907.5" cy="205.5" r="1.5" fill="#ACE6F9"/>
<circle cx="907.5" cy="231.5" r="1.5" fill="#ACE6F9"/>
<circle cx="907.5" cy="257.5" r="1.5" fill="#ACE6F9"/>
<circle cx="907.5" cy="283.5" r="1.5" fill="#ACE6F9"/>
<circle cx="907.5" cy="309.5" r="1.5" fill="#ACE6F9"/>
<circle cx="907.5" cy="335.5" r="1.5" fill="#ACE6F9"/>
<circle cx="941.5" cy="205.5" r="1.5" fill="#ACE6F9"/>
<circle cx="941.5" cy="231.5" r="1.5" fill="#ACE6F9"/>
<circle cx="941.5" cy="257.5" r="1.5" fill="#ACE6F9"/>
<circle cx="941.5" cy="283.5" r="1.5" fill="#ACE6F9"/>
<circle cx="941.5" cy="309.5" r="1.5" fill="#ACE6F9"/>
<circle cx="941.5" cy="335.5" r="1.5" fill="#ACE6F9"/>
<circle cx="975.5" cy="205.5" r="1.5" fill="#ACE6F9"/>
<circle cx="975.5" cy="231.5" r="1.5" fill="#ACE6F9"/>
<circle cx="975.5" cy="257.5" r="1.5" fill="#ACE6F9"/>
<circle cx="975.5" cy="283.5" r="1.5" fill="#ACE6F9"/>
<circle cx="975.5" cy="309.5" r="1.5" fill="#ACE6F9"/>
<circle cx="975.5" cy="335.5" r="1.5" fill="#ACE6F9"/>
<circle cx="1009.5" cy="205.5" r="1.5" fill="#ACE6F9"/>
<circle cx="1009.5" cy="231.5" r="1.5" fill="#ACE6F9"/>
<circle cx="1009.5" cy="257.5" r="1.5" fill="#ACE6F9"/>
<circle cx="1009.5" cy="283.5" r="1.5" fill="#ACE6F9"/>
<circle cx="1009.5" cy="309.5" r="1.5" fill="#ACE6F9"/>
<circle cx="1009.5" cy="335.5" r="1.5" fill="#ACE6F9"/>
<defs>
<linearGradient id="paint0_linear" x1="416" y1="1236.55" x2="-4.54598e-06" y2="1236.55" gradientUnits="userSpaceOnUse">
<stop stop-color="#ACE6F9"/>
<stop offset="0.532216" stop-color="#ACE6F9" stop-opacity="0"/>
</linearGradient>
<linearGradient id="paint1_linear" x1="705.035" y1="641.224" x2="916.723" y2="641.224" gradientUnits="userSpaceOnUse">
<stop stop-color="#99FFDA"/>
<stop offset="0.0001" stop-color="#5EC6E8"/>
<stop offset="1" stop-color="#5EC6E8" stop-opacity="0"/>
</linearGradient>
</defs>
</svg>
