<svg width="180" height="96" viewBox="0 0 180 96" fill="none" xmlns="http://www.w3.org/2000/svg">
<path d="M65.851 58.3279V58.5186H57.7172V58.3279C58.6313 58.1691 58.9913 57.9465 59.0889 57.2475V46.6965C59.0889 44.7567 58.3707 43.8032 56.9007 43.8032C56.4147 43.8128 55.9443 43.9717 55.5568 44.2572C55.1692 44.5426 54.8843 44.9401 54.7427 45.3927C54.8094 45.7601 54.8424 46.1326 54.8411 46.5058V56.425C54.8411 57.6012 55.2002 58.0784 56.3086 58.3321V58.5228H48.5347V58.3279C49.6448 58.0759 50.0021 57.597 50.0021 56.4208V46.6923C50.0021 44.7525 49.2503 43.799 47.8131 43.799C47.3561 43.8031 46.912 43.9463 46.5429 44.2087C46.1738 44.471 45.8984 44.8392 45.7553 45.2616V56.4208C45.7553 57.597 46.1144 58.0742 47.2227 58.3279V58.5186H38.9915V58.3279C40.2646 58.0423 40.9181 57.5012 40.9181 56.2276V46.0925C40.9181 44.4072 40.4614 43.8981 38.9915 43.7712V43.5805L45.7527 41.7684V44.7567C46.0376 43.8449 46.6249 43.0508 47.4228 42.4985C48.2208 41.9463 49.1844 41.667 50.1627 41.7045C52.6124 41.7045 54.148 42.9126 54.6374 44.8844C54.9558 43.9389 55.5793 43.1187 56.415 42.5458C57.2508 41.9729 58.2543 41.6778 59.2762 41.7045C62.3146 41.7045 63.9149 43.6124 63.9149 46.5058V56.2343C63.9235 57.5054 64.5769 58.0465 65.851 58.3279Z" fill="#8C87A6"/>
<path d="M83.1325 55.0577C82.5775 57.662 80.8459 59.0003 78.5576 59.0003C78.1452 59.037 77.7293 58.9935 77.3343 58.8722C76.9393 58.751 76.5731 58.5544 76.2569 58.2941C75.9407 58.0337 75.6809 57.7147 75.4926 57.3557C75.3043 56.9966 75.1913 56.6047 75.1601 56.2028L75.0954 55.9507C74.7968 56.8727 74.1923 57.6723 73.3768 58.2241C72.5613 58.776 71.5808 59.049 70.5888 59.0003C70.0277 59.0428 69.4636 58.9714 68.9324 58.7906C68.4012 58.6097 67.9143 58.3234 67.5028 57.9498C67.0913 57.5762 66.764 57.1234 66.5417 56.6202C66.3195 56.117 66.207 55.5743 66.2116 55.0266C66.2116 52.1971 68.5637 50.353 72.3203 49.5894L75.0315 49.0492V48.3771C75.0315 45.929 74.1166 44.2445 71.3725 44.2445C69.25 44.2445 67.7472 45.23 67.0282 47.71L66.7692 47.6462C67.2871 43.99 69.7739 41.7007 73.6289 41.7007C77.9732 41.7007 79.8679 44.4033 79.8679 48.4728V54.8628C79.8679 55.9759 80.4229 56.548 81.142 56.548C81.7626 56.548 82.4808 56.1986 82.8399 55.0224L83.1325 55.0577ZM75.0315 55.408V49.8431L73.7575 50.0657C71.2094 50.5748 70.72 52.1324 70.72 53.69C70.72 55.3114 71.5365 56.5833 73.1041 56.5833C73.5122 56.6134 73.9195 56.5156 74.2663 56.3041C74.6132 56.0926 74.8813 55.7786 75.0315 55.408Z" fill="#8C87A6"/>
<path d="M100.871 58.3282V58.5189H92.6398V58.3282C93.7179 58.0762 94.1072 57.5973 94.1072 56.4211V46.7287C94.1072 44.7889 93.3562 43.8034 91.8206 43.8034C91.3 43.7991 90.7897 43.9446 90.3538 44.2217C89.9179 44.4989 89.576 44.8953 89.3709 45.361V56.4253C89.3709 57.6015 89.73 58.0787 90.8384 58.3324V58.5231H82.6079V58.3282C83.882 58.0426 84.5354 57.5015 84.5354 56.2279V46.0927C84.5354 44.4075 84.0779 43.8983 82.6079 43.7715V43.5808L89.3701 41.7687V44.8863C89.7013 43.9164 90.3511 43.0795 91.2193 42.5045C92.0875 41.9296 93.126 41.6486 94.1745 41.7048C97.282 41.7048 98.9436 43.5531 98.9436 46.5372V56.2346C98.9445 57.5057 99.5979 58.0468 100.871 58.3282Z" fill="#8C87A6"/>
<path d="M111.978 54.7718C111.26 57.0922 109.496 59.0001 106.654 59.0001C103.91 59.0001 102.603 57.3149 102.603 54.8357V42.8808H100.709V42.722C103.312 41.2942 105.572 39.3437 107.34 37H107.471V42.2457H110.77V42.8808H107.467V54.1039C107.467 55.5666 108.088 56.552 109.296 56.552C109.858 56.5511 110.402 56.3652 110.841 56.0245C111.28 55.6839 111.587 55.2085 111.713 54.676L111.978 54.7718Z" fill="#8C87A6"/>
<path d="M125.536 52.7689C124.719 57.3467 121.747 59.0001 118.905 59.0001C115.115 59.0001 111.654 56.1386 111.654 50.6703C111.654 45.4565 114.627 41.7046 119.102 41.7046C122.27 41.7046 125.537 43.6444 125.504 48.8901H115.443C115.77 52.9596 117.926 55.217 121.095 55.217C121.981 55.2964 122.871 55.0947 123.63 54.642C124.389 54.1893 124.978 53.5099 125.308 52.7051L125.536 52.7689ZM115.409 47.7425V48.092H121.06C121.093 44.0225 120.015 42.5918 118.384 42.5918C116.553 42.5951 115.409 44.566 115.409 47.7425Z" fill="#8C87A6"/>
<path d="M138.048 41.7046V46.2832H137.885C137.351 46.0549 136.768 45.9565 136.186 45.9967C134.063 45.9967 132.658 47.1099 132.658 51.3382V56.2344C132.658 57.6626 133.475 58.1095 135.238 58.3347V58.5254H125.896V58.328C127.17 58.0423 127.824 57.5013 127.824 56.2277V46.3782C127.824 44.566 127.333 43.9301 125.896 43.8032V43.6125L132.462 41.7685V48.8901H132.626C132.885 43.7713 134.847 41.7046 137.689 41.7046H138.048Z" fill="#8C87A6"/>
<path d="M136.611 56.3294C136.622 55.6362 136.913 54.9749 137.42 54.4879C137.927 54.0009 138.61 53.727 139.322 53.7251C140.029 53.7342 140.704 54.0115 141.204 54.498C141.704 54.9844 141.989 55.6416 141.998 56.3294C142.002 57.0244 141.722 57.6925 141.22 58.1871C140.719 58.6818 140.036 58.9627 139.322 58.9682C138.966 58.9691 138.613 58.9015 138.283 58.7692C137.954 58.6369 137.655 58.4425 137.403 58.1973C137.151 57.9521 136.951 57.6609 136.815 57.3403C136.679 57.0198 136.61 56.6762 136.611 56.3294Z" fill="#8C87A6"/>
</svg>
