<svg xmlns="http://www.w3.org/2000/svg" width="24.953" height="19.755" viewBox="0 0 24.953 19.755">
  <defs>
    <style>
      .cls-1 {
        fill: #8c87a6;
      }
    </style>
  </defs>
  <path id="medium" class="cls-1" d="M25.967,6.995h.987V4.083H17.621l-3.1,11.437h-.085L11.361,4.083H2V6.995h.959a1.118,1.118,0,0,1,.913.867V20.126a1.049,1.049,0,0,1-.913.8H2v2.911H9.486V20.927H7.615V8.034h.109l4.314,15.8h3.384l4.37-15.8h.092V20.927H18.012v2.911h8.942V20.927h-.987a1.047,1.047,0,0,1-.885-.8V7.861A1.12,1.12,0,0,1,25.967,6.995Z" transform="translate(-2 -4.083)"/>
</svg>
