<svg width="46" height="37" viewBox="0 0 46 37" fill="none" xmlns="http://www.w3.org/2000/svg">
<path d="M0.749234 9.464C0.749234 14.744 4.31323 18.176 9.46124 18.176C10.7812 18.176 11.9692 17.78 12.2332 17.516C11.9692 23.456 7.21723 28.34 1.80523 29.396V36.524C9.72523 35.6 20.9452 29.264 20.9452 12.632C20.9452 5.372 16.4572 0.619996 10.2532 0.619996C4.70923 0.619996 0.749234 4.57999 0.749234 9.464ZM25.0372 9.464C25.0372 14.744 28.7332 18.176 33.8812 18.176C35.2012 18.176 36.2572 17.78 36.5212 17.516C36.3892 23.456 31.6372 28.34 26.2252 29.396V36.524C34.0132 35.6 45.2332 29.264 45.2332 12.632C45.2332 5.372 40.7452 0.619996 34.6732 0.619996C29.1292 0.619996 25.0372 4.57999 25.0372 9.464Z" fill="#E1DFEC"/>
</svg>
