<svg width="46" height="37" viewBox="0 0 46 37" fill="none" xmlns="http://www.w3.org/2000/svg">
<path d="M45.3008 27.416C45.3008 22.136 41.7368 18.572 36.4568 18.572C35.1368 18.572 34.0808 19.1 33.8168 19.232C34.0808 13.556 38.8328 8.408 44.1128 7.48399V0.223993C36.3248 1.016 25.1048 7.61599 25.1048 24.116C25.1048 31.376 29.5928 36.128 35.6648 36.128C41.2088 36.128 45.3008 32.168 45.3008 27.416ZM20.8808 27.416C20.8808 22.136 17.1848 18.572 12.0368 18.572C10.7168 18.572 9.52878 19.1 9.26478 19.232C9.52878 13.556 14.2808 8.408 19.6928 7.48399V0.223993C11.7728 1.016 0.684781 7.61599 0.684781 24.116C0.684781 31.376 5.04078 36.128 11.2448 36.128C16.7888 36.128 20.8808 32.168 20.8808 27.416Z" fill="#E1DFEC"/>
</svg>
