<svg id="reddit" xmlns="http://www.w3.org/2000/svg" width="24.419" height="19.755" viewBox="0 0 24.419 19.755">
  <defs>
    <style>
      .cls-1 {
        fill: #8c87a6;
      }
    </style>
  </defs>
  <path id="Path_8647" data-name="Path 8647" class="cls-1" d="M5.9,9.5h0Zm3.556,0h0Z" transform="translate(4.945 1.897)"/>
  <path id="Path_8648" data-name="Path 8648" class="cls-1" d="M24.419,11.118A3.042,3.042,0,0,0,21.38,8.078a3,3,0,0,0-1.827.615,12.775,12.775,0,0,0-6.28-2.057l1.275-2.99,3.709.866a2.268,2.268,0,1,0,.353-1.479L14.275,2.02a.76.76,0,0,0-.874.442L11.638,6.6A13.03,13.03,0,0,0,4.82,8.654,3.042,3.042,0,0,0,0,11.118a3.009,3.009,0,0,0,1.536,2.63q-.018.2-.017.409c0,4.189,4.771,7.6,10.637,7.6s10.637-3.408,10.637-7.6c0-.119,0-.236-.012-.353a3.009,3.009,0,0,0,1.638-2.687Zm-3.905-7.6a.761.761,0,1,1-.763.76.761.761,0,0,1,.763-.76ZM6.838,13.4a1.521,1.521,0,1,1,1.52,1.453A1.522,1.522,0,0,1,6.838,13.4Zm8.827,5.04a5.981,5.981,0,0,1-7.017,0,.76.76,0,1,1,.89-1.231,4.457,4.457,0,0,0,5.236,0,.76.76,0,1,1,.89,1.231Zm.29-3.521a1.52,1.52,0,1,1,1.52-1.52A1.52,1.52,0,0,1,15.955,14.916Z" transform="translate(0 -2)"/>
</svg>
