<?xml version="1.0" encoding="utf-8"?>
<!-- Generator: Adobe Illustrator 25.0.0, SVG Export Plug-In . SVG Version: 6.00 Build 0)  -->
<svg version="1.1" id="Layer_1" xmlns="http://www.w3.org/2000/svg" xmlns:xlink="http://www.w3.org/1999/xlink" x="0px" y="0px"
	 viewBox="0 0 796 216" style="enable-background:new 0 0 796 216;" xml:space="preserve">
<style type="text/css">
	.st0{fill:#FAFAF5;}
	.st1{fill:#FAFAFA;}
	.st2{fill:none;stroke:#FFFFFF;stroke-width:5.8427;stroke-miterlimit:10;}
	.st3{fill:#FFFFFF;}
	.st4{fill:none;stroke:#FFFFFF;stroke-width:5.6962;stroke-linecap:round;stroke-miterlimit:10;}
</style>
<path id="Fill-14_1_" class="st0" d="M277.1,109.68c-2.89-1.88-8.13-4.25-15.73-7.12c-7.6-2.86-12.87-5.44-15.82-7.71
	c-2.95-2.28-4.43-5.43-4.43-9.44c0-4.01,1.5-7.18,4.49-9.5c2.99-2.32,6.94-3.48,11.83-3.48s8.88,1.33,11.96,3.98
	c3.08,2.66,4.62,6.43,4.62,11.32h11.99c0-8.4-2.79-14.98-8.35-19.72c-5.57-4.74-12.27-7.12-20.12-7.12c-7.85,0-14.51,2.2-19.99,6.62
	c-5.48,4.41-8.22,10.34-8.22,17.78c0,5.77,1.42,10.35,4.27,13.74c1.51,1.8,2.95,3.31,4.33,4.55c1.38,1.23,4.29,2.93,8.73,5.08
	c4.44,2.15,8.2,3.61,11.3,4.36c5.96,2.56,10.85,4.64,13.97,6.9c3.12,2.26,4.68,5.36,4.68,9.31s-1.62,7.14-4.87,9.56
	c-3.24,2.42-7.72,3.64-13.43,3.64c-5.71,0-10.37-1.43-13.97-4.3c-3.6-2.86-5.4-6.95-5.4-12.26H227c0,8.91,3.06,15.85,9.2,20.82
	c6.13,4.98,13.53,7.46,22.19,7.46c8.66,0,15.86-2.28,21.6-6.84c5.73-4.56,8.57-10.77,8.51-18.63
	C288.43,120.83,284.63,114.49,277.1,109.68"/>
<polygon id="Fill-17_1_" class="st0" points="356.46,61.45 297.56,61.45 297.56,72.7 321.13,72.7 321.13,150.57 332.76,150.57 
	332.76,72.7 356.46,72.7 "/>
<path id="Fill-18_1_" class="st0" d="M386.06,61.45l-32.61,89.12h12.52c0,0,3.18-9.92,5.76-13.97c11.2-17.6,29.83-19.75,35.82-19.59
	l11.94,33.56h12.52l-32.67-89.12H386.06z M378.95,114.06l13.77-38.69l10.79,30.32C397.35,106.14,388.38,108.01,378.95,114.06
	L378.95,114.06z"/>
<polygon id="Fill-20_1_" class="st0" points="586.31,61.45 571.73,61.45 534.45,101.84 534.45,61.45 522.61,61.45 522.61,150.57 
	534.45,150.57 534.45,107.81 573.04,150.57 587.56,150.57 546.86,104.89 "/>
<polygon id="Fill-21_1_" class="st0" points="645.78,116.45 611.37,61.45 598.13,61.45 598.13,150.57 615.55,150.57 615.55,95.44 
	649.85,150.57 663.08,150.57 663.08,61.45 645.78,61.45 "/>
<polygon id="Fill-22_1_" class="st0" points="692.77,113.78 724.24,113.78 724.24,97.37 692.77,97.37 692.77,78.29 727.41,78.29 
	727.41,61.45 675.17,61.45 675.17,150.57 728.03,150.57 728.03,133.79 692.77,133.79 "/>
<polygon id="Fill-23_1_" class="st0" points="735.58,61.45 735.58,78.29 756.96,78.29 756.96,150.57 774.49,150.57 774.49,78.29 
	796,78.29 796,61.45 "/>
<path id="Fill-24_1_" class="st0" d="M489.48,118.48c-1.84-1.66-3.7-3.11-5.57-4.38c5.87-0.85,12.19-3.99,16.26-9.09
	c3.71-4.65,5.33-10.07,5.33-15.91c0-7.67-2.77-14.19-8.31-19.58c-5.54-5.39-12.21-8.08-19.99-8.08h-33.13v89.12h12.06v-33.61
	c6.59,0.15,16.4,1.78,25.41,9.93c8.64,7.83,14.61,17.56,17.69,23.67h12.81C509.39,143.82,501.79,129.63,489.48,118.48L489.48,118.48
	z M477.2,72.57c4.49,0,8.31,1.61,11.49,4.82c3.17,3.21,4.76,7.11,4.76,11.68c0,4.58-1.54,8.55-4.76,11.78
	c-5.75,5.75-19.03,4.61-32.2,4.66c-0.12,0-0.24-0.01-0.36-0.01V72.57H477.2z"/>
<g>
	<g>
		<path id="Fill-4_2_" class="st1" d="M116.31,86.32l-2.02-6.23c-0.41-1.27-1.41-2.25-2.68-2.64l-6.27-1.93
			c-0.87-0.26-0.87-1.49-0.01-1.77l6.24-2.02c1.27-0.41,2.25-1.41,2.64-2.68l1.92-6.26c0.26-0.86,1.49-0.87,1.77-0.01l2.02,6.23
			c0.41,1.26,1.41,2.25,2.68,2.64l6.27,1.92c0.87,0.27,0.88,1.49,0.01,1.77l-6.24,2.02c-1.27,0.41-2.25,1.41-2.64,2.68l-1.92,6.26
			C117.82,87.17,116.59,87.18,116.31,86.32"/>
		<g id="Group-3_2_">
			<path id="Fill-1_2_" class="st2" d="M156.67,107.52c0,42.65-34.61,77.22-77.29,77.22s-77.3-34.57-77.3-77.22
				S36.69,30.3,79.38,30.3S156.67,64.87,156.67,107.52"/>
		</g>
		<path id="Fill-6_2_" class="st3" d="M10.81,106.44c1.84-3.6,5.48-6.31,9.26-8.03c3.82-1.7,8.02-2.74,12.14-3.08
			c8.32-0.75,16.43,0.64,23.82,3.04c3.81,1.13,7.21,2.71,10.73,4.29c1.71,0.82,3.32,1.75,4.97,2.65l4.57,2.65
			c5.02,3.07,9.88,5.8,14.46,7.91c4.58,2.1,8.72,3.51,12.63,4.24c3.9,0.73,7.87,0.72,12.75-0.4c4.84-1.09,10.29-3.45,15.98-6.48
			c5.73-3.03,11.6-6.74,18.3-10.37c-0.67,7.58-2.82,14.69-6.18,21.56c-3.44,6.78-8.22,13.4-15.19,18.76
			c-6.84,5.4-16.23,9.17-25.79,9.73c-9.56,0.65-18.66-1.46-26.4-4.63c-7.77-3.21-14.49-7.43-20.44-12.09
			c-1.64-1.29-2.53-2.02-3.74-3.04l-3.39-2.97c-2.28-1.79-4.5-3.92-6.76-5.69c-4.51-3.77-8.97-7.54-13.86-10.81
			c-2.47-1.66-5.01-3.2-7.89-4.57c-1.43-0.66-2.96-1.27-4.59-1.76C14.52,106.83,12.81,106.51,10.81,106.44"/>
		<path id="Fill-8_2_" class="st4" d="M10.81,106.44c0.94-7.8,4.58-15.12,10.42-21.35c5.81-6.17,14.87-10.93,24.94-11.56
			c4.97-0.33,10.01,0.22,14.64,1.5c4.61,1.28,8.94,3.14,12.84,5.34c1.95,1.1,3.77,2.31,5.58,3.53l4.84,3.66l7.55,5.95
			c4.9,3.9,9.58,7.5,13.9,10.48c4.36,2.98,8.08,5.16,11.63,6.44c3.52,1.39,7.96,1.75,13.83,0.27c2.92-0.67,5.96-1.9,9.2-3.23
			c3.23-1.36,6.58-2.98,10.24-4.59c-0.44,3.92-1.24,7.83-2.75,11.48c-1.46,3.7-3.37,7.32-6.05,10.7c-1.37,1.64-2.84,3.3-4.56,4.82
			c-1.71,1.49-3.61,2.9-5.71,4.14c-4.18,2.42-9.15,4.19-14.24,4.82c-5.09,0.64-10.2,0.32-14.86-0.67c-4.68-0.96-8.95-2.5-12.86-4.29
			c-7.8-3.63-14.33-8.18-20.1-13.01c-2.9-2.41-5.62-4.93-8.19-7.48l-3.04-3.05c-0.92-0.88-1.84-1.77-2.76-2.58
			c-3.69-3.26-7.12-5.76-10.9-7.31c-3.75-1.63-8.55-2.3-14.43-1.2C24.1,100.35,17.67,102.88,10.81,106.44"/>
	</g>
	<path id="Fill-10_2_" class="st1" d="M38.94,147.53c0,2.37-1.92,4.29-4.29,4.29s-4.29-1.92-4.29-4.29c0-2.37,1.92-4.29,4.29-4.29
		S38.94,145.16,38.94,147.53"/>
	<path id="Fill-12_2_" class="st1" d="M38.94,147.53c0,2.37-1.92,4.29-4.29,4.29s-4.29-1.92-4.29-4.29c0-2.37,1.92-4.29,4.29-4.29
		S38.94,145.16,38.94,147.53"/>
</g>
</svg>
