<svg width="136" height="24" viewBox="0 0 136 24" fill="none" xmlns="http://www.w3.org/2000/svg">
<path d="M12.0002 17L6.12223 20.59L7.72023 13.89L2.49023 9.41L9.35523 8.86L12.0002 2.5L14.6452 8.86L21.5112 9.41L16.2802 13.89L17.8782 20.59L12.0002 17Z" fill="#5138EE"/>
<path d="M40.0002 17L34.1222 20.59L35.7202 13.89L30.4902 9.41L37.3552 8.86L40.0002 2.5L42.6452 8.86L49.5112 9.41L44.2802 13.89L45.8782 20.59L40.0002 17Z" fill="#5138EE"/>
<path d="M68.0002 17L62.1222 20.59L63.7202 13.89L58.4902 9.41L65.3552 8.86L68.0002 2.5L70.6452 8.86L77.5112 9.41L72.2802 13.89L73.8782 20.59L68.0002 17Z" fill="#5138EE"/>
<path d="M96.0002 17L90.1222 20.59L91.7202 13.89L86.4902 9.41L93.3552 8.86L96.0002 2.5L98.6452 8.86L105.511 9.41L100.28 13.89L101.878 20.59L96.0002 17Z" fill="#5138EE"/>
<path d="M124 17L118.122 20.59L119.72 13.89L114.49 9.41L121.355 8.86L124 2.5L126.645 8.86L133.511 9.41L128.28 13.89L129.878 20.59L124 17Z" fill="#9FA9FF"/>
</svg>
