<svg width="180" height="96" viewBox="0 0 180 96" fill="none" xmlns="http://www.w3.org/2000/svg">
<path d="M35.0342 56.7207C39.1556 56.7207 42.7086 54.6174 42.7086 50.9224C42.7086 42.7364 31.2254 46.6588 31.2254 40.5478C31.2254 38.9277 32.2771 37.6202 34.4374 37.6202C38.5871 37.6202 37.5355 42.6796 40.6052 42.6796C41.8274 42.6796 42.4243 41.9974 42.4243 40.9173C42.4527 38.5582 39.2977 36 34.5225 36C29.8327 36 26.9904 38.5013 26.9904 41.9121C27.0188 50.3254 38.5018 46.1757 38.5018 52.2298C38.5018 53.9637 37.1944 55.1006 35.2047 55.1006C30.4012 55.1006 31.1686 49.9275 28.3263 49.8707C27.1609 49.8707 26.6208 50.6097 26.6208 51.6045C26.6208 53.8784 29.6337 56.7207 35.0342 56.7207ZM57.0373 53.5373V43.1343C57.0373 42.6512 56.6962 42.5375 55.9573 42.6227L52.319 43.1627C51.9779 43.2196 51.7505 43.4754 51.7505 43.7597V43.8449C51.7505 44.4703 52.8875 44.7544 52.8875 46.0051V51.775C52.8875 53.7931 51.8074 55.1006 50.4431 55.1006C48.8798 55.1006 48.0839 53.8784 48.0839 51.235L48.1692 43.1343C48.1692 42.6512 47.7429 42.5375 47.0039 42.6227L43.4225 43.1627C43.053 43.2196 42.8256 43.4754 42.8256 43.7597V43.8449C42.8256 44.4703 43.9341 44.7544 43.9341 46.0051V50.8087C43.9341 54.7027 46.2932 56.7207 49.2209 56.7207C51.1821 56.7207 52.5749 56.0102 53.3423 54.7596C53.4275 56.1523 54.2519 56.6071 55.872 56.6071C57.4637 56.6071 58.4016 56.4365 58.4016 55.7828C58.4016 54.7311 57.0373 55.7828 57.0373 53.5373ZM70.9637 42.7933C68.0645 42.7933 67.1265 42.509 65.3074 42.509C61.3281 42.509 58.571 44.925 58.571 48.4779C58.571 51.7182 61.4134 54.1058 65.2221 54.1058C65.5916 54.1058 65.9612 54.0774 66.3307 54.0489C67.4392 54.2763 68.0929 55.2427 68.0929 56.6639C68.0929 58.2557 66.9844 59.3357 65.2221 59.3357C61.8966 59.2789 62.5219 55.0153 60.1912 55.0153C59.0258 55.0153 58.5142 55.8112 58.5142 56.6071C58.5142 58.8241 60.9586 60.5295 65.1368 60.5295C69.173 60.5295 72.2711 58.9662 72.2711 56.5502C72.2711 55.0437 71.3901 53.8784 68.8603 53.3099C70.8216 52.372 72.0437 50.6097 72.0437 48.3642C72.0437 46.9999 71.3616 45.664 70.452 44.726C71.3332 44.4703 72.4133 44.5839 72.6122 43.6459C72.7828 43.1343 72.4985 42.7933 70.9637 42.7933ZM62.5788 46.602C62.5788 44.8681 63.3746 43.7597 64.6821 43.7597C66.6717 43.7597 68.0077 47.2557 68.0077 49.9844C68.0077 51.6613 67.2118 52.8268 65.8475 52.8268C64.0568 52.8268 62.5788 49.6149 62.5788 46.602ZM85.9108 53.5941L85.2855 48.3358C84.8876 44.7544 82.3863 42.509 78.6913 42.509C75.7352 42.509 73.234 43.7028 73.234 45.7493C73.234 46.7157 73.9161 47.341 74.9394 47.341C77.0711 47.341 76.4174 43.7028 78.6913 43.7028C80.4251 43.7028 80.8799 45.2945 81.221 48.62L81.2494 48.9611C80.5104 48.4495 79.4587 48.1084 78.1512 48.1084C75.3657 48.1084 72.9782 49.5865 73.0066 52.4288C73.0066 55.2711 75.2805 56.7207 78.3502 56.7207C80.3115 56.7207 81.5052 56.0102 82.1306 55.0721C82.301 56.2944 83.0401 56.6071 84.6602 56.6071C86.0245 56.6071 87.3889 56.4365 87.3889 55.7828C87.3889 55.0153 86.1382 55.5554 85.9108 53.5941ZM79.6008 55.4701C78.1512 55.4701 77.2132 53.7363 77.2132 51.775C77.2132 50.3254 78.0944 49.3875 79.2882 49.3875C80.4536 49.3875 81.3631 50.2402 81.5336 51.9172L81.6189 52.912C81.7042 54.1911 80.9083 55.4701 79.6008 55.4701ZM95.8344 42.509C93.9301 42.509 92.5942 43.5038 91.9688 45.3229V43.1911C91.9688 42.6512 91.713 42.3101 91.0593 42.6227L87.6485 44.2144C87.279 44.385 87.0516 44.6123 87.0516 44.8966V45.0103C87.0516 45.7209 88.359 45.8062 88.359 47.0568V53.7078C88.359 54.9017 87.2506 55.129 87.2506 55.8396V55.9533C87.2506 56.266 87.5064 56.4365 87.9042 56.4365H93.1626C93.5321 56.4365 93.7879 56.266 93.7879 55.9533V55.8396C93.7879 55.129 92.3668 54.9017 92.3668 53.7078V48.0232C92.3668 46.4598 92.7647 44.8966 93.8732 44.8966C95.4081 44.8966 94.4133 47.341 96.6302 47.341C97.9946 47.341 98.4493 46.2894 98.4493 45.0955C98.4493 43.6459 97.5114 42.509 95.8344 42.509ZM105.068 56.7207C108.764 56.7207 110.697 54.4185 110.867 52.0877C110.923 51.4625 110.213 51.3488 109.872 51.8035C109.276 52.8268 108.195 53.7931 106.461 53.7931C103.562 53.7931 101.629 51.3203 101.629 47.54C101.629 45.4366 102.653 43.7597 104.272 43.7597C106.746 43.7312 106.575 47.7674 109.02 47.9095C110.327 47.9664 110.782 47.2273 110.782 46.4883C110.782 44.2713 108.167 42.4806 104.897 42.509C101.061 42.5375 97.7352 45.2092 97.7352 49.5865C97.7352 53.4236 100.776 56.7207 105.068 56.7207ZM124.108 53.5941L123.483 48.3358C123.085 44.7544 120.584 42.509 116.889 42.509C113.933 42.509 111.431 43.7028 111.431 45.7493C111.431 46.7157 112.113 47.341 113.137 47.341C115.268 47.341 114.615 43.7028 116.889 43.7028C118.623 43.7028 119.077 45.2945 119.418 48.62L119.447 48.9611C118.708 48.4495 117.656 48.1084 116.349 48.1084C113.563 48.1084 111.176 49.5865 111.204 52.4288C111.204 55.2711 113.478 56.7207 116.548 56.7207C118.508 56.7207 119.702 56.0102 120.328 55.0721C120.498 56.2944 121.238 56.6071 122.857 56.6071C124.222 56.6071 125.586 56.4365 125.586 55.7828C125.586 55.0153 124.336 55.5554 124.108 53.5941ZM117.798 55.4701C116.349 55.4701 115.411 53.7363 115.411 51.775C115.411 50.3254 116.292 49.3875 117.486 49.3875C118.651 49.3875 119.56 50.2402 119.731 51.9172L119.816 52.912C119.901 54.1911 119.105 55.4701 117.798 55.4701ZM140.114 53.6794L139.773 48.5632C139.432 44.0439 136.931 42.509 134.344 42.509C132.412 42.509 130.905 43.3617 130.138 44.8113V43.2196C130.138 42.6796 129.826 42.2816 129.171 42.6227L125.789 44.2713C125.448 44.4418 125.221 44.5839 125.221 44.8681V44.9818C125.221 45.6925 126.613 45.8062 126.613 47.0852V53.7078C126.613 54.9301 125.391 55.1574 125.391 55.868V55.9817C125.391 56.266 125.647 56.465 126.044 56.465H131.332C131.729 56.465 131.985 56.266 131.985 55.9817V55.868C131.985 55.1574 130.763 54.9301 130.763 53.7078V47.2557C130.763 45.4082 131.644 44.1292 133.179 44.1292C134.686 44.1292 135.511 45.3798 135.652 48.4211L135.936 53.6794C135.993 54.9301 134.913 55.1574 134.913 55.868V55.9817C134.913 56.266 135.169 56.465 135.567 56.465H140.484C140.882 56.465 141.138 56.266 141.138 55.9817V55.868C141.138 55.1574 140.2 54.9301 140.114 53.6794ZM152.864 52.1161C152.324 52.9973 151.13 53.7647 149.624 53.7647C147.918 53.7647 146.611 52.8552 145.872 51.2919L152.182 48.4211C152.95 48.08 153.432 47.5116 153.432 46.5451C153.432 44.6692 151.785 42.509 148.061 42.509C144.337 42.509 141.182 45.3798 141.182 49.5012C141.182 53.8784 144.11 56.7207 148.061 56.7207C151.727 56.7207 153.66 54.0774 153.831 52.4288C153.859 51.8319 153.205 51.6898 152.864 52.1161ZM147.549 43.7597C149.084 43.7597 149.823 45.7777 149.823 46.8009C149.823 47.3979 149.596 47.8811 149.084 48.1368L145.417 49.9844C145.219 49.2454 145.133 48.4211 145.133 47.54C145.133 45.3798 146.043 43.7597 147.549 43.7597Z" fill="#8C87A6"/>
</svg>
