<svg width="1953" height="830" viewBox="0 0 1953 830" fill="none" xmlns="http://www.w3.org/2000/svg">
<circle cx="1457.5" cy="537.5" r="1.5" transform="rotate(90 1457.5 537.5)" fill="#E1DFEC"/>
<circle cx="1431.5" cy="537.5" r="1.5" transform="rotate(90 1431.5 537.5)" fill="#E1DFEC"/>
<circle cx="1405.5" cy="537.5" r="1.5" transform="rotate(90 1405.5 537.5)" fill="#E1DFEC"/>
<circle cx="1379.5" cy="537.5" r="1.5" transform="rotate(90 1379.5 537.5)" fill="#E1DFEC"/>
<circle cx="1353.5" cy="537.5" r="1.5" transform="rotate(90 1353.5 537.5)" fill="#E1DFEC"/>
<circle cx="1327.5" cy="537.5" r="1.5" transform="rotate(90 1327.5 537.5)" fill="#E1DFEC"/>
<circle cx="1457.5" cy="571.5" r="1.5" transform="rotate(90 1457.5 571.5)" fill="#E1DFEC"/>
<circle cx="1431.5" cy="571.5" r="1.5" transform="rotate(90 1431.5 571.5)" fill="#E1DFEC"/>
<circle cx="1405.5" cy="571.5" r="1.5" transform="rotate(90 1405.5 571.5)" fill="#E1DFEC"/>
<circle cx="1379.5" cy="571.5" r="1.5" transform="rotate(90 1379.5 571.5)" fill="#E1DFEC"/>
<circle cx="1353.5" cy="571.5" r="1.5" transform="rotate(90 1353.5 571.5)" fill="#E1DFEC"/>
<circle cx="1327.5" cy="571.5" r="1.5" transform="rotate(90 1327.5 571.5)" fill="#E1DFEC"/>
<circle cx="1457.5" cy="605.5" r="1.5" transform="rotate(90 1457.5 605.5)" fill="#E1DFEC"/>
<circle cx="1431.5" cy="605.5" r="1.5" transform="rotate(90 1431.5 605.5)" fill="#E1DFEC"/>
<circle cx="1405.5" cy="605.5" r="1.5" transform="rotate(90 1405.5 605.5)" fill="#E1DFEC"/>
<circle cx="1379.5" cy="605.5" r="1.5" transform="rotate(90 1379.5 605.5)" fill="#E1DFEC"/>
<circle cx="1353.5" cy="605.5" r="1.5" transform="rotate(90 1353.5 605.5)" fill="#E1DFEC"/>
<circle cx="1327.5" cy="605.5" r="1.5" transform="rotate(90 1327.5 605.5)" fill="#E1DFEC"/>
<circle cx="1457.5" cy="639.5" r="1.5" transform="rotate(90 1457.5 639.5)" fill="#E1DFEC"/>
<circle cx="1431.5" cy="639.5" r="1.5" transform="rotate(90 1431.5 639.5)" fill="#E1DFEC"/>
<circle cx="1405.5" cy="639.5" r="1.5" transform="rotate(90 1405.5 639.5)" fill="#E1DFEC"/>
<circle cx="1379.5" cy="639.5" r="1.5" transform="rotate(90 1379.5 639.5)" fill="#E1DFEC"/>
<circle cx="1353.5" cy="639.5" r="1.5" transform="rotate(90 1353.5 639.5)" fill="#E1DFEC"/>
<circle cx="1327.5" cy="639.5" r="1.5" transform="rotate(90 1327.5 639.5)" fill="#E1DFEC"/>
<circle cx="1457.5" cy="673.5" r="1.5" transform="rotate(90 1457.5 673.5)" fill="#E1DFEC"/>
<circle cx="1431.5" cy="673.5" r="1.5" transform="rotate(90 1431.5 673.5)" fill="#E1DFEC"/>
<circle cx="1405.5" cy="673.5" r="1.5" transform="rotate(90 1405.5 673.5)" fill="#E1DFEC"/>
<circle cx="1379.5" cy="673.5" r="1.5" transform="rotate(90 1379.5 673.5)" fill="#E1DFEC"/>
<circle cx="1353.5" cy="673.5" r="1.5" transform="rotate(90 1353.5 673.5)" fill="#E1DFEC"/>
<circle cx="1327.5" cy="673.5" r="1.5" transform="rotate(90 1327.5 673.5)" fill="#E1DFEC"/>
<circle cx="1457.5" cy="707.5" r="1.5" transform="rotate(90 1457.5 707.5)" fill="#E1DFEC"/>
<circle cx="1431.5" cy="707.5" r="1.5" transform="rotate(90 1431.5 707.5)" fill="#E1DFEC"/>
<circle cx="1405.5" cy="707.5" r="1.5" transform="rotate(90 1405.5 707.5)" fill="#E1DFEC"/>
<circle cx="1379.5" cy="707.5" r="1.5" transform="rotate(90 1379.5 707.5)" fill="#E1DFEC"/>
<circle cx="1353.5" cy="707.5" r="1.5" transform="rotate(90 1353.5 707.5)" fill="#E1DFEC"/>
<circle cx="1327.5" cy="707.5" r="1.5" transform="rotate(90 1327.5 707.5)" fill="#E1DFEC"/>
<circle cx="1457.5" cy="741.5" r="1.5" transform="rotate(90 1457.5 741.5)" fill="#E1DFEC"/>
<circle cx="1431.5" cy="741.5" r="1.5" transform="rotate(90 1431.5 741.5)" fill="#E1DFEC"/>
<circle cx="1405.5" cy="741.5" r="1.5" transform="rotate(90 1405.5 741.5)" fill="#E1DFEC"/>
<circle cx="1379.5" cy="741.5" r="1.5" transform="rotate(90 1379.5 741.5)" fill="#E1DFEC"/>
<circle cx="1353.5" cy="741.5" r="1.5" transform="rotate(90 1353.5 741.5)" fill="#E1DFEC"/>
<circle cx="1327.5" cy="741.5" r="1.5" transform="rotate(90 1327.5 741.5)" fill="#E1DFEC"/>
<circle cx="1457.5" cy="775.5" r="1.5" transform="rotate(90 1457.5 775.5)" fill="#E1DFEC"/>
<circle cx="1431.5" cy="775.5" r="1.5" transform="rotate(90 1431.5 775.5)" fill="#E1DFEC"/>
<circle cx="1405.5" cy="775.5" r="1.5" transform="rotate(90 1405.5 775.5)" fill="#E1DFEC"/>
<circle cx="1379.5" cy="775.5" r="1.5" transform="rotate(90 1379.5 775.5)" fill="#E1DFEC"/>
<circle cx="1353.5" cy="775.5" r="1.5" transform="rotate(90 1353.5 775.5)" fill="#E1DFEC"/>
<circle cx="1327.5" cy="775.5" r="1.5" transform="rotate(90 1327.5 775.5)" fill="#E1DFEC"/>
<path d="M409.48 458.52C380.975 430.014 342.313 414 302 414C261.687 414 223.025 430.014 194.52 458.52C166.25 486.79 150.266 525.048 150.003 565L1.00163 565C1.26531 485.531 32.9481 409.374 89.1609 353.161C145.609 296.712 222.17 265 302 265C381.83 265 458.391 296.712 514.839 353.161C571.052 409.374 602.735 485.531 602.998 565L453.997 565C453.734 525.048 437.75 486.79 409.48 458.52Z" stroke="url(#paint0_linear)" stroke-width="2"/>
<path d="M1952 660.999C1840.44 660.735 1733.51 616.304 1654.6 537.399C1575.7 458.494 1531.27 351.561 1531 240L1952 240L1952 660.999Z" stroke="url(#paint1_linear)" stroke-width="2"/>
<defs>
<linearGradient id="paint0_linear" x1="604" y1="415" x2="-6.60042e-06" y2="415" gradientUnits="userSpaceOnUse">
<stop stop-color="#E1DFEC"/>
<stop offset="0.532216" stop-color="#E1DFEC" stop-opacity="0"/>
</linearGradient>
<linearGradient id="paint1_linear" x1="1403" y1="450.5" x2="1731" y2="450.5" gradientUnits="userSpaceOnUse">
<stop stop-color="#99FFDA"/>
<stop offset="0.0001" stop-color="#5EC6E8"/>
<stop offset="1" stop-color="#5EC6E8" stop-opacity="0"/>
</linearGradient>
</defs>
</svg>
