<svg width="1733" height="830" viewBox="0 0 1733 830" fill="none" xmlns="http://www.w3.org/2000/svg">
<path d="M282.246 217.754C262.555 198.063 235.848 187 208 187C180.152 187 153.445 198.063 133.754 217.754C114.298 237.209 103.266 263.514 103.005 291L1.0024 291C1.26553 236.461 23.0446 184.213 61.6289 145.629C100.449 106.809 153.1 85 208 85C262.9 85 315.551 106.809 354.371 145.629C392.955 184.213 414.734 236.461 414.998 291L312.995 291C312.734 263.514 301.702 237.209 282.246 217.754Z" stroke="url(#paint0_linear)" stroke-width="2"/>
<path d="M1732 595.998C1660.22 595.735 1591.44 567.107 1540.67 516.333C1489.89 465.559 1461.27 396.778 1461 325L1732 325L1732 595.998Z" stroke="url(#paint1_linear)" stroke-width="2"/>
<defs>
<linearGradient id="paint0_linear" x1="416" y1="188" x2="-4.54598e-06" y2="188" gradientUnits="userSpaceOnUse">
<stop stop-color="#E1DFEC"/>
<stop offset="0.532216" stop-color="#E1DFEC" stop-opacity="0"/>
</linearGradient>
<linearGradient id="paint1_linear" x1="1378.04" y1="460.5" x2="1589.72" y2="460.5" gradientUnits="userSpaceOnUse">
<stop stop-color="#99FFDA"/>
<stop offset="0.0001" stop-color="#5EC6E8"/>
<stop offset="1" stop-color="#5EC6E8" stop-opacity="0"/>
</linearGradient>
</defs>
</svg>
