<svg width="161" height="16" viewBox="0 0 161 16" fill="none" xmlns="http://www.w3.org/2000/svg">
<path d="M7.01467 6.33273L5.61816 9.05335H12.2315L13.7083 6.33273H7.01467Z" fill="#2AAAFD"/>
<path d="M15.8753 11.2206L15.1048 12.6501H1.39651L0 15.3707H13.6922H19.3264L15.8753 11.2206Z" fill="#2AAAFD"/>
<path d="M5.68235 0H0L3.45115 4.13472L4.20558 2.72062H17.8336L19.3104 0H5.68235Z" fill="#2AAAFD"/>
<path d="M31.0604 0.0307388H36.9193L35.4907 7.74683C35.2339 9.14557 34.7844 10.3291 34.1584 11.2975C33.5484 12.2504 32.794 13.0344 31.879 13.6492C30.9641 14.2486 29.9046 14.679 28.6847 14.9711C27.4808 15.2324 26.1485 15.3707 24.7038 15.3707H21.8306L22.6974 10.7595H26.0843C27.2079 10.6826 28.0426 10.3906 28.5563 9.88336C29.1021 9.36076 29.4552 8.6537 29.6157 7.74683L31.0604 0.0307388Z" fill="url(#paint0_linear_261_8627)"/>
<path d="M51.1411 9.72965H42.7941L42.6176 10.7595H51.6227L50.7559 15.3707H35.9561L38.7812 0.0307388H53.597L52.7302 4.64195H43.7251L43.5486 5.67179H51.8955L51.1411 9.72965Z" fill="url(#paint1_linear_261_8627)"/>
<path d="M60.4192 4.64196H64.1754C64.7532 4.64196 65.1385 4.76492 65.3472 5.01085C65.5719 5.25678 65.6842 5.59494 65.6842 5.99458C65.6842 6.27125 65.6521 6.56329 65.604 6.87071L65.283 8.54611C65.2348 8.83816 65.1545 9.1302 65.0582 9.3915C64.978 9.6528 64.8495 9.89874 64.673 10.0986C64.5125 10.2984 64.3038 10.4675 64.0309 10.5904C63.7741 10.698 63.437 10.7595 63.0517 10.7595H59.2956L60.4192 4.64196ZM52.6501 15.3707H65.3793C65.8608 15.3707 66.3745 15.2324 66.9523 14.9711C67.5463 14.7098 68.092 14.3716 68.6217 13.9566C69.1514 13.5262 69.6009 13.0651 69.9701 12.5425C70.3553 12.0199 70.6122 11.5127 70.7085 11.0054L71.9124 4.36528C71.9284 4.28843 71.9445 4.21158 71.9445 4.15009C71.9605 4.07324 71.9766 3.99639 71.9766 3.91953C71.9766 3.44304 71.8642 2.98192 71.6395 2.53617C71.4148 2.05968 71.1098 1.64467 70.7245 1.2604C70.3714 0.876133 69.9701 0.584089 69.5206 0.368899C69.0712 0.138339 68.6378 0.0153732 68.2204 0.0153732H55.4913L52.6501 15.3707Z" fill="url(#paint2_linear_261_8627)"/>
<path d="M77.5625 15.3707L80.3876 0.0307388H74.5768L71.7517 15.3707H77.5625Z" fill="url(#paint3_linear_261_8627)"/>
<path d="M79.4246 15.3707H91.1585C91.624 15.3707 92.0574 15.2938 92.4587 15.1401C92.876 14.9864 93.2613 14.7712 93.5823 14.4792C93.9033 14.2025 94.1923 13.8644 94.417 13.4955C94.6417 13.1266 94.8022 12.6962 94.8825 12.2504C94.9306 11.9584 94.9627 11.6664 94.9627 11.3743C94.9627 10.7441 94.8343 10.1447 94.5936 9.59132C94.3688 9.0226 94.0638 8.48463 93.6786 7.94665C93.3094 7.39331 92.8921 6.85533 92.4266 6.31736C91.9771 5.77938 91.5437 5.22604 91.1264 4.64195H98.0768L98.9436 0.0307388H88.4617C87.9802 0.0307388 87.5147 0.122963 87.0652 0.307412C86.5997 0.476489 86.1824 0.722421 85.8132 1.02983C85.444 1.33725 85.1069 1.72152 84.834 2.1519C84.5772 2.58228 84.3846 3.0434 84.2883 3.53526C84.2401 3.75045 84.208 3.95027 84.208 4.10398V4.25768C84.2562 4.87251 84.4167 5.47197 84.7056 6.04068C84.9946 6.62477 85.3477 7.19349 85.7329 7.73146C86.1182 8.26944 86.5355 8.77667 86.985 9.2839C87.4505 9.79114 87.8678 10.2676 88.237 10.7441H80.2914L79.4246 15.3707Z" fill="url(#paint4_linear_261_8627)"/>
<path d="M116.247 5.84087L115.316 0.0307388H110.164L107.002 5.84087L106.087 0.0307388H100.34L102.523 15.3707H108.318L111.143 9.33002L111.753 15.3861H117.548L125.365 0.0307388H119.378L116.247 5.84087Z" fill="url(#paint5_linear_261_8627)"/>
<path d="M133.728 13.019H127.789L126.521 15.3707H120.533L128.367 0.0307388H137.693L139.876 15.3707H134.129L133.728 13.019ZM129.827 8.93038H133.182L132.396 4.0886L129.827 8.93038Z" fill="url(#paint6_linear_261_8627)"/>
<path d="M147.067 15.3707H141.256L144.081 0.0307388H156.473C157.035 0.0307388 157.549 0.153704 158.047 0.384265C158.544 0.614826 158.962 0.93761 159.315 1.32188C159.684 1.72152 159.989 2.1519 160.198 2.64376C160.406 3.13562 160.519 3.62748 160.519 4.11935C160.519 4.21157 160.503 4.30379 160.486 4.39602C160.486 4.48824 160.486 4.58047 160.454 4.67269L160.117 6.53255C160.021 7.05515 159.78 7.59313 159.379 8.16184C158.994 8.71519 158.512 9.20705 157.95 9.66817C157.405 10.1293 156.827 10.4982 156.185 10.7902C155.559 11.0669 154.965 11.2206 154.387 11.2206H147.805L147.067 15.3707ZM148.672 6.68625H152.621C153.231 6.68625 153.648 6.59403 153.873 6.42495C154.098 6.25587 154.258 5.99457 154.339 5.67179L154.371 5.44123C154.371 5.1953 154.274 4.99548 154.098 4.85714C153.921 4.7188 153.552 4.64195 152.99 4.64195H149.041L148.672 6.68625Z" fill="url(#paint7_linear_261_8627)"/>
<defs>
<linearGradient id="paint0_linear_261_8627" x1="20.7419" y1="7.72367" x2="159.961" y2="7.22329" gradientUnits="userSpaceOnUse">
<stop stop-color="#2BA9FD"/>
<stop offset="0.5241" stop-color="#8462F5"/>
<stop offset="1" stop-color="#EF0DEB"/>
</linearGradient>
<linearGradient id="paint1_linear_261_8627" x1="20.742" y1="7.77925" x2="159.961" y2="7.27887" gradientUnits="userSpaceOnUse">
<stop stop-color="#2BA9FD"/>
<stop offset="0.5241" stop-color="#8462F5"/>
<stop offset="1" stop-color="#EF0DEB"/>
</linearGradient>
<linearGradient id="paint2_linear_261_8627" x1="20.7423" y1="7.83083" x2="159.961" y2="7.33045" gradientUnits="userSpaceOnUse">
<stop stop-color="#2BA9FD"/>
<stop offset="0.5241" stop-color="#8462F5"/>
<stop offset="1" stop-color="#EF0DEB"/>
</linearGradient>
<linearGradient id="paint3_linear_261_8627" x1="20.7424" y1="7.88237" x2="159.961" y2="7.38199" gradientUnits="userSpaceOnUse">
<stop stop-color="#2BA9FD"/>
<stop offset="0.5241" stop-color="#8462F5"/>
<stop offset="1" stop-color="#EF0DEB"/>
</linearGradient>
<linearGradient id="paint4_linear_261_8627" x1="20.7426" y1="7.92765" x2="159.962" y2="7.42727" gradientUnits="userSpaceOnUse">
<stop stop-color="#2BA9FD"/>
<stop offset="0.5241" stop-color="#8462F5"/>
<stop offset="1" stop-color="#EF0DEB"/>
</linearGradient>
<linearGradient id="paint5_linear_261_8627" x1="20.7428" y1="7.9907" x2="159.962" y2="7.49032" gradientUnits="userSpaceOnUse">
<stop stop-color="#2BA9FD"/>
<stop offset="0.5241" stop-color="#8462F5"/>
<stop offset="1" stop-color="#EF0DEB"/>
</linearGradient>
<linearGradient id="paint6_linear_261_8627" x1="20.743" y1="8.07367" x2="159.962" y2="7.57329" gradientUnits="userSpaceOnUse">
<stop stop-color="#2BA9FD"/>
<stop offset="0.5241" stop-color="#8462F5"/>
<stop offset="1" stop-color="#EF0DEB"/>
</linearGradient>
<linearGradient id="paint7_linear_261_8627" x1="20.7434" y1="8.11144" x2="159.962" y2="7.61106" gradientUnits="userSpaceOnUse">
<stop stop-color="#2BA9FD"/>
<stop offset="0.5241" stop-color="#8462F5"/>
<stop offset="1" stop-color="#EF0DEB"/>
</linearGradient>
</defs>
</svg>
