<svg width="82" height="20" viewBox="0 0 82 20" fill="none" xmlns="http://www.w3.org/2000/svg">
<path d="M38.85 7.78571C37.9448 7.28571 36.8887 6.85714 35.908 6.57143C34.701 6.21429 33.7958 5.85714 33.2677 5.5C32.7396 5.21429 32.4379 4.71429 32.4379 4.14286C32.4379 3.85714 32.4379 3.57143 32.5888 3.28571C32.7397 3 32.8905 2.78571 33.1923 2.57143C33.7203 2.21429 34.3993 2 35.3045 2C36.2852 2 37.0396 2.21429 37.5676 2.64286C37.7939 2.85714 37.9448 3.07143 38.0957 3.28571H36.2098L39.6799 6.35714L43.2254 3.28571H40.9623C40.8114 2.85714 40.6605 2.5 40.4342 2.14286C39.9062 1.42857 39.2272 0.857143 38.3974 0.5C37.3413 0.214286 36.2852 0 35.3045 0C33.6449 0 32.287 0.428571 31.2309 1.21429C30.1748 2 29.6467 3 29.6467 4.21429C29.6467 5.57143 30.4011 6.71429 31.8344 7.57143C32.8151 8.07143 33.7958 8.5 34.9273 8.78572C36.2098 9.14286 37.115 9.5 37.5676 9.85714C38.0957 10.2143 38.322 10.7143 38.322 11.3571C38.322 11.6429 38.2465 11.9286 38.1711 12.1429C38.0202 12.4286 37.8694 12.6429 37.6431 12.7857C37.1904 13.1429 36.4361 13.3571 35.4554 13.3571C34.3238 13.3571 33.494 13.1429 32.8905 12.6429C32.5133 12.3571 32.2116 11.9286 32.0607 11.4286H34.2484L30.7029 8.35714L27.1573 11.5H29.1941C29.2696 12.1429 29.5713 12.7143 29.9485 13.2143C30.552 13.9286 31.3063 14.5 32.2116 14.8571C33.1923 15.2857 34.3238 15.5 35.3799 15.4286C37.115 15.4286 38.4729 15.0714 39.529 14.2857C40.057 13.9286 40.4342 13.5 40.6605 12.9286C40.9623 12.4286 41.0377 11.8571 41.0377 11.2857C41.0377 10.5714 40.8868 9.85714 40.5097 9.28571C40.1325 8.71429 39.529 8.21429 38.85 7.78571ZM2.48942 4.28571L2.56486 5.42857C3.39466 4.5 4.52622 4.07143 5.95952 4.07143C7.5437 4.07143 8.59982 4.64286 9.20331 5.78571C10.1086 4.64286 11.3155 4.07143 12.8243 4.07143C14.1067 4.07143 15.0874 4.42857 15.7663 5.07143C16.3698 5.78571 16.747 6.78571 16.747 8.07143V15.4286H14.1067V8.21429C14.1067 7.5 13.9558 7 13.5787 6.64286C13.2015 6.28571 12.6734 6.14286 11.919 6.14286C11.391 6.14286 10.8629 6.28571 10.4103 6.57143C10.0331 6.85714 9.73137 7.28571 9.5805 7.78571V15.4286H7.01564V8.07143C7.01564 6.78571 6.26127 6.07143 4.9034 6.07143C3.84729 6.07143 3.09292 6.5 2.64029 7.28571V15.4286H0V4.28571H2.48942ZM22.7065 11.8571L25.0451 4.28571H27.9117L23.2346 17.1429C22.4802 19 21.2732 20 19.5382 20C19.0856 20 18.7084 19.9286 18.2558 19.7857V17.8571H18.7838C19.4627 17.8571 19.9908 17.7143 20.2925 17.5C20.5943 17.2857 20.896 16.8571 21.1224 16.3571L21.4995 15.4286L17.2751 4.28571H20.1417L22.7065 11.8571ZM54.6918 12L56.5777 4.28571H59.1426L55.8988 15.5H53.7111L51.1463 7.78571L48.6569 15.5H46.4692L43.3008 4.28571H45.8657L47.7516 11.9286L50.241 4.28571H52.2778L54.6918 12ZM67.1389 15.5C66.988 15.1429 66.9126 14.7857 66.8372 14.4286C66.46 14.8571 65.9319 15.1429 65.4039 15.3571C64.8758 15.5714 64.2723 15.7143 63.6688 15.7143C62.4618 15.7143 61.4811 15.4286 60.7268 14.7857C60.3496 14.5 60.0478 14.1429 59.897 13.7143C59.7461 13.2857 59.5952 12.8571 59.5952 12.4286C59.5952 11.2143 60.0478 10.2857 61.0285 9.71429C61.9338 9.07143 63.2916 8.78572 65.0267 8.78572H66.6863V8.07143C66.6863 7.57143 66.5354 7.07143 66.1582 6.71429C65.781 6.35714 65.3284 6.21429 64.5741 6.21429C64.046 6.21429 63.5179 6.35714 63.0653 6.64286C62.9144 6.78571 62.7636 6.92857 62.6127 7.14286C62.5373 7.35714 62.4618 7.57143 62.4618 7.78571H59.8215C59.8215 7.14286 60.0478 6.57143 60.425 6.07143C60.8776 5.5 61.4811 5.07143 62.1601 4.78571C62.9144 4.5 63.8197 4.28571 64.6495 4.35714C66.0074 4.35714 67.1389 4.71429 67.9687 5.35714C68.9494 5.71429 69.3266 6.64286 69.402 7.85714V12.8571C69.402 13.8571 69.5529 14.6429 69.8546 15.2857V15.4286L67.1389 15.5ZM64.1969 13.6429C64.7249 13.6429 65.253 13.5 65.7056 13.2857C66.1582 13.0714 66.5354 12.7143 66.7617 12.2857V10.1429H65.3284C64.3477 10.1429 63.5934 10.2857 63.1408 10.6429C62.9144 10.7857 62.6881 11 62.6127 11.2143C62.4618 11.4286 62.3864 11.7143 62.4618 12C62.4618 12.2143 62.4618 12.4286 62.6127 12.6429C62.6881 12.8571 62.839 13 62.9899 13.1429C63.2162 13.5 63.6688 13.7143 64.1969 13.6429ZM82 10C82 11.7143 81.5474 13.1429 80.7176 14.1429C80.3404 14.6429 79.8123 15.0714 79.2843 15.2857C78.6808 15.5714 78.0773 15.7143 77.3983 15.6429C76.1159 15.6429 75.0598 15.2143 74.3054 14.4286V19.7143H71.6651V4.28571H74.0791L74.1546 5.42857C74.9089 4.5 75.965 4.07143 77.3229 4.07143C78.7562 4.07143 79.8878 4.57143 80.7176 5.57143C81.5474 6.57143 81.9246 8 81.9246 9.78571V10H82ZM79.3597 9.78571C79.3597 8.64286 79.1334 7.78571 78.6808 7.14286C78.4545 6.85714 78.1527 6.57143 77.7755 6.42857C77.3983 6.28571 77.0212 6.14286 76.644 6.21429C75.5879 6.21429 74.758 6.64286 74.3054 7.5V12.5C74.758 13.3571 75.5879 13.7857 76.644 13.7857C77.0212 13.7857 77.3983 13.7143 77.7755 13.5714C78.1527 13.4286 78.4545 13.1429 78.6053 12.8571C79.1334 12.0714 79.3597 11.0714 79.3597 9.78571Z" fill="white"/>
</svg>
