<svg width="141" height="21" viewBox="0 0 141 21" fill="none" xmlns="http://www.w3.org/2000/svg">
<path d="M36.0417 18.4646V2.53535H43.0303C44.176 2.53535 45.1498 2.72727 46.0663 3.06313C46.9828 3.39899 47.6702 3.92677 48.1858 4.59849C48.7013 5.2702 48.9877 6.08586 48.9877 7.04546V7.33333C48.9877 8.29293 48.7013 9.10859 48.1858 9.7803C47.6702 10.452 46.9255 10.9798 46.0663 11.3157C45.2071 11.6515 44.176 11.8434 43.0876 11.8434H37.7602V18.5126H36.0417V18.4646ZM37.7602 10.5H42.8584C44.2332 10.5 45.2643 10.2121 46.0663 9.63636C46.8683 9.06061 47.2692 8.29293 47.2692 7.28535V7.04546C47.2692 5.9899 46.8683 5.22222 46.1236 4.69444C45.3789 4.11869 44.2905 3.83081 42.9157 3.83081H37.8175V10.5H37.7602ZM52.3102 18.4646V2.53535H59.757C60.9599 2.53535 61.991 2.67929 62.8503 3.01515C63.7668 3.35101 64.4542 3.83081 64.9697 4.45455C65.4853 5.07828 65.7717 5.84596 65.7717 6.7096V6.99748C65.7717 8.05303 65.4853 8.91667 64.8552 9.5404C64.2251 10.1641 63.5377 10.548 62.6784 10.7399V11.0278C63.3085 11.0278 63.8241 11.2197 64.2823 11.5076C64.7406 11.8434 64.9125 12.3232 64.9125 13.0429V18.4646H63.194V13.2348C63.194 12.7551 63.0221 12.3712 62.6784 12.1313C62.392 11.8914 61.8764 11.7475 61.2463 11.7475H54.0287V18.5126H52.3102V18.4646ZM54.0287 10.404H59.5851C61.0172 10.404 62.1056 10.1162 62.8503 9.58838C63.6522 9.01263 63.9959 8.24495 63.9959 7.18939V7.09343C63.9959 6.03788 63.5949 5.2702 62.8503 4.74242C62.1056 4.16667 61.0172 3.87879 59.5851 3.87879H54.0287V10.404ZM67.8912 18.4646L74.135 2.53535H77.2283L83.4722 18.4646H81.6391L80.0352 14.2424H71.3854L69.7815 18.4646H67.8912ZM71.8437 12.947H79.5197L75.8535 3.44697H75.5098L71.8437 12.947ZM92.8666 18.8005C91.4345 18.8005 90.1743 18.5606 89.0859 18.0808C87.9976 17.601 87.1383 16.8333 86.5655 15.8737C85.9926 14.9141 85.6489 13.7146 85.6489 12.3232V8.72475C85.6489 6.61364 86.3363 4.98232 87.6539 3.87879C88.9714 2.77525 90.8044 2.1995 92.9812 2.1995C95.2152 2.1995 96.8764 2.72727 97.9648 3.73485C99.1105 4.7904 99.6833 6.13384 99.6833 7.86111V7.95707H97.9648V7.81313C97.9648 6.99748 97.793 6.2298 97.4493 5.60606C97.1056 4.93434 96.59 4.45455 95.8453 4.07071C95.1007 3.68687 94.1841 3.49495 93.0385 3.49495C91.2627 3.49495 89.8879 3.92677 88.9141 4.83838C87.9403 5.75 87.4247 6.99747 87.4247 8.62879V12.3232C87.4247 13.9545 87.9403 15.202 88.9141 16.1136C89.8879 17.0253 91.2627 17.4571 93.0385 17.4571C94.757 17.4571 96.0172 17.0253 96.8192 16.2096C97.6211 15.3939 98.0221 14.2424 98.0221 12.851V12.4192H91.721V11.1237H99.6833V18.4646H98.0794V16.6894H97.7357C97.5066 17.0732 97.2201 17.4091 96.8192 17.745C96.4182 18.0808 95.9026 18.3207 95.2152 18.5126C94.6424 18.7045 93.8404 18.8005 92.8666 18.8005ZM104.151 18.4646V2.53535H107.531L113.317 17.601H113.66L119.446 2.53535H122.826V18.4646H121.164V3.39899H120.821L115.035 18.4646H111.942L106.156 3.39899H105.813V18.4646H104.151ZM125.919 18.4646L132.163 2.53535H135.256L141.5 18.4646H139.667L138.063 14.2424H129.413L127.809 18.4646H125.919ZM129.814 12.947H137.49L133.824 3.44697H133.48L129.814 12.947Z" fill="url(#paint0_linear_261_8620)"/>
<path d="M8.48856 5.70202H22.8094C23.554 5.70202 24.1841 6.2298 24.1841 6.85354V18.8485C24.1841 19.4722 23.554 20 22.8094 20H8.48856C7.74388 20 7.11377 19.4722 7.11377 18.8485V6.85354C7.11377 6.2298 7.74388 5.70202 8.48856 5.70202Z" stroke="#04471C" stroke-width="1.0496"/>
<path d="M5.68168 3.35101H20.0025C20.7471 3.35101 21.3773 3.87879 21.3773 4.50252V16.4975C21.3773 17.1212 20.7471 17.649 20.0025 17.649H5.68168C4.937 17.649 4.30688 17.1212 4.30688 16.4975V4.50252C4.30688 3.87879 4.937 3.35101 5.68168 3.35101Z" stroke="#058C42" stroke-width="1.0496"/>
<path d="M2.8748 1H17.1956C17.9403 1 18.5704 1.52778 18.5704 2.15152V14.1465C18.5704 14.7702 17.9403 15.298 17.1956 15.298H2.8748C2.13011 15.298 1.5 14.7702 1.5 14.1465V2.15152C1.5 1.52778 2.13011 1 2.8748 1Z" stroke="#16DB65" stroke-width="1.0496"/>
<defs>
<linearGradient id="paint0_linear_261_8620" x1="36.0184" y1="10.5199" x2="141.442" y2="10.5199" gradientUnits="userSpaceOnUse">
<stop stop-color="#16DB65"/>
<stop offset="1" stop-color="#058C42"/>
</linearGradient>
</defs>
</svg>
