<svg xmlns="http://www.w3.org/2000/svg" width="141" height="21" viewBox="0 0 141 21" fill="none">
  <g opacity="0.5">
    <path d="M35.5417 18.4647V2.53535H42.5303C43.676 2.53535 44.6498 2.72727 45.5663 3.06313C46.4828 3.39899 47.1702 3.92677 47.6858 4.59848C48.2013 5.2702 48.4877 6.08586 48.4877 7.04545V7.33333C48.4877 8.29293 48.2013 9.10859 47.6858 9.7803C47.1702 10.452 46.4255 10.9798 45.5663 11.3157C44.7071 11.6515 43.676 11.8434 42.5876 11.8434H37.2602V18.5126H35.5417V18.4647ZM37.2602 10.5H42.3584C43.7332 10.5 44.7643 10.2121 45.5663 9.63636C46.3683 9.06061 46.7692 8.29293 46.7692 7.28535V7.04545C46.7692 5.9899 46.3683 5.22222 45.6236 4.69444C44.8789 4.11869 43.7905 3.83081 42.4157 3.83081H37.3175V10.5H37.2602ZM51.8102 18.4647V2.53535H59.257C60.4599 2.53535 61.491 2.67929 62.3503 3.01515C63.2668 3.35101 63.9542 3.83081 64.4697 4.45454C64.9853 5.07828 65.2717 5.84596 65.2717 6.7096V6.99747C65.2717 8.05303 64.9853 8.91667 64.3552 9.5404C63.725 10.1641 63.0377 10.548 62.1784 10.7399V11.0278C62.8085 11.0278 63.3241 11.2197 63.7823 11.5076C64.2406 11.8434 64.4124 12.3232 64.4124 13.0429V18.4647H62.694V13.2349C62.694 12.7551 62.5221 12.3712 62.1784 12.1313C61.892 11.8914 61.3764 11.7475 60.7463 11.7475H53.5287V18.5126H51.8102V18.4647ZM53.5287 10.404H59.0851C60.5172 10.404 61.6056 10.1162 62.3503 9.58838C63.1522 9.01263 63.4959 8.24495 63.4959 7.18939V7.09343C63.4959 6.03788 63.0949 5.2702 62.3503 4.74242C61.6056 4.16667 60.5172 3.87879 59.0851 3.87879H53.5287V10.404ZM67.3912 18.4647L73.635 2.53535H76.7283L82.9722 18.4647H81.1391L79.5352 14.2424H70.8854L69.2815 18.4647H67.3912ZM71.3437 12.947H79.0196L75.3535 3.44697H75.0098L71.3437 12.947ZM92.3666 18.8005C90.9345 18.8005 89.6743 18.5606 88.5859 18.0808C87.4975 17.601 86.6383 16.8333 86.0655 15.8737C85.4926 14.9141 85.1489 13.7146 85.1489 12.3232V8.72475C85.1489 6.61364 85.8363 4.98232 87.1538 3.87879C88.4714 2.77525 90.3044 2.19949 92.4812 2.19949C94.7152 2.19949 96.3764 2.72727 97.4648 3.73485C98.6105 4.7904 99.1833 6.13384 99.1833 7.86111V7.95707H97.4648V7.81313C97.4648 6.99747 97.293 6.2298 96.9493 5.60606C96.6056 4.93434 96.09 4.45454 95.3453 4.07071C94.6007 3.68687 93.6841 3.49495 92.5385 3.49495C90.7627 3.49495 89.3879 3.92677 88.4141 4.83838C87.4403 5.75 86.9247 6.99747 86.9247 8.62879V12.3232C86.9247 13.9545 87.4403 15.202 88.4141 16.1136C89.3879 17.0253 90.7627 17.4571 92.5385 17.4571C94.257 17.4571 95.5172 17.0253 96.3191 16.2096C97.1211 15.3939 97.5221 14.2424 97.5221 12.851V12.4192H91.221V11.1237H99.1833V18.4647H97.5794V16.6894H97.2357C97.0065 17.0732 96.7201 17.4091 96.3191 17.745C95.9182 18.0808 95.4026 18.3207 94.7152 18.5126C94.1424 18.7045 93.3404 18.8005 92.3666 18.8005ZM103.651 18.4647V2.53535H107.031L112.817 17.601H113.16L118.946 2.53535H122.326V18.4647H120.664V3.39899H120.321L114.535 18.4647H111.442L105.656 3.39899H105.313V18.4647H103.651ZM125.419 18.4647L131.663 2.53535H134.756L141 18.4647H139.167L137.563 14.2424H128.913L127.309 18.4647H125.419ZM129.314 12.947H136.99L133.324 3.44697H132.98L129.314 12.947Z" fill="#EAEAEA"/>
    <path d="M7.98856 5.70203H22.3093C23.054 5.70203 23.6841 6.2298 23.6841 6.85354V18.8485C23.6841 19.4722 23.054 20 22.3093 20H7.98856C7.24388 20 6.61377 19.4722 6.61377 18.8485V6.85354C6.61377 6.2298 7.24388 5.70203 7.98856 5.70203Z" stroke="#EAEAEA" stroke-width="1.0496"/>
    <path d="M5.18168 3.35098H19.5025C20.2471 3.35098 20.8773 3.87876 20.8773 4.5025V16.4975C20.8773 17.1212 20.2471 17.649 19.5025 17.649H5.18168C4.437 17.649 3.80688 17.1212 3.80688 16.4975V4.5025C3.80688 3.87876 4.437 3.35098 5.18168 3.35098Z" stroke="#EAEAEA" stroke-width="1.0496"/>
    <path d="M2.3748 1H16.6956C17.4403 1 18.0704 1.52778 18.0704 2.15152V14.1465C18.0704 14.7702 17.4403 15.298 16.6956 15.298H2.3748C1.63011 15.298 1 14.7702 1 14.1465V2.15152C1 1.52778 1.63011 1 2.3748 1Z" stroke="#EAEAEA" stroke-width="1.0496"/>
  </g>
</svg>