<svg width="62" height="20" viewBox="0 0 62 20" fill="none" xmlns="http://www.w3.org/2000/svg">
<path d="M30.3667 0.469803L26.7428 12.651V19.5638H22.1459V12.651L18.6562 0.469803H23.2196C23.9243 4.19464 24.3269 6.67786 24.4276 7.98658C24.696 5.9396 25.1658 3.45638 25.8033 0.469803H30.3667Z" fill="#EA2020"/>
<path d="M39.7954 0.469803L42.6475 19.5302H37.5808L37.3123 16.1074H35.534L35.232 19.5302H30.0981L32.6147 0.469803H39.7954ZM37.1781 12.7181C36.9432 10.5705 36.6748 7.88591 36.4399 4.73155C35.9366 8.38927 35.6346 11.0403 35.5004 12.7181H37.1781Z" fill="#EA2020"/>
<path d="M54.8614 7.48322H49.8954V5.73825C49.8954 4.63087 49.8618 3.95973 49.7612 3.69127C49.6605 3.42282 49.4592 3.28859 49.0901 3.28859C48.7881 3.28859 48.5868 3.42282 48.4526 3.65772C48.3519 3.89262 48.2848 4.49664 48.2848 5.4698V14.6309C48.2848 15.5034 48.3519 16.0403 48.4526 16.3423C48.5532 16.6107 48.7881 16.745 49.1236 16.745C49.4927 16.745 49.7276 16.5772 49.8618 16.2752C49.9961 15.9732 50.0632 15.3691 50.0632 14.4966V12.2483H49.0565V9.36241H54.8614V19.5973H51.7409L51.2711 18.2215C50.9356 18.8255 50.4994 19.2617 49.9961 19.5638C49.4927 19.8658 48.8888 20 48.1841 20C47.3453 20 46.5735 19.7987 45.8353 19.396C45.0971 18.9933 44.5603 18.4899 44.1912 17.8859C43.8221 17.2819 43.5872 16.6779 43.4865 16.0067C43.3859 15.3356 43.3523 14.3624 43.3523 13.0537V7.34899C43.3523 5.53691 43.453 4.19463 43.6543 3.38926C43.8556 2.55033 44.426 1.81208 45.332 1.14094C46.2715 0.43624 47.4795 0.10067 48.9559 0.10067C50.3987 0.10067 51.6067 0.402683 52.5797 1.00671C53.5528 1.61074 54.1568 2.31543 54.4588 3.15436C54.7608 3.95973 54.895 5.16778 54.895 6.71141V7.48322H54.8614Z" fill="#EA2020"/>
<path d="M61.74 0.469803V19.5302H56.7739V0.469803H61.74Z" fill="#EA2020"/>
<path d="M5.80493 10.3691H8.69061V19.5302H5.80493V10.3691Z" fill="#EA2020"/>
<path fill-rule="evenodd" clip-rule="evenodd" d="M6.47604 11.3758C4.32857 9.26174 2.58374 6.27517 0.671143 1.94631L2.88573 0.973152C4.76477 5.2349 6.37538 7.8859 8.18732 9.69798C9.9657 11.4765 12.0796 12.5168 15.1331 13.3221L14.4955 15.6376C11.1737 14.7315 8.65708 13.557 6.47604 11.3758Z" fill="#EA2020"/>
<path d="M4.32851 2.18121C4.32851 3.38926 3.35543 4.36242 2.14748 4.36242C0.973076 4.32886 0 3.3557 0 2.18121C0 0.973154 0.973076 0 2.18103 0C3.35543 0 4.32851 0.973154 4.32851 2.18121Z" fill="#EA2020"/>
<path d="M16.8779 14.4631C16.8779 15.6711 15.9049 16.6443 14.6969 16.6443C13.4889 16.6443 12.5159 15.6711 12.5159 14.4631C12.5159 13.255 13.4889 12.2819 14.6969 12.2819C15.9049 12.2819 16.8779 13.2886 16.8779 14.4631Z" fill="#EA2020"/>
</svg>
